<?xml version="1.0" encoding="UTF-8" standalone="no"?>
<svg
   xmlns:dc="http://purl.org/dc/elements/1.1/"
   xmlns:cc="http://creativecommons.org/ns#"
   xmlns:rdf="http://www.w3.org/1999/02/22-rdf-syntax-ns#"
   xmlns:svg="http://www.w3.org/2000/svg"
   xmlns="http://www.w3.org/2000/svg"
   xmlns:sodipodi="http://sodipodi.sourceforge.net/DTD/sodipodi-0.dtd"
   xmlns:inkscape="http://www.inkscape.org/namespaces/inkscape"
   viewBox="0 0 83.149609 83.149609"
   version="1.1"
   id="svg5058"
   sodipodi:docname="admin-ports-security.svg"
   inkscape:version="0.92.3 (2405546, 2018-03-11)"
   width="2.2cm"
   height="2.2cm">
  <metadata
     id="metadata5062">
    <rdf:RDF>
      <cc:Work
         rdf:about="">
        <dc:format>image/svg+xml</dc:format>
        <dc:type
           rdf:resource="http://purl.org/dc/dcmitype/StillImage" />
        <dc:title>Element 265</dc:title>
      </cc:Work>
    </rdf:RDF>
  </metadata>
  <sodipodi:namedview
     pagecolor="#ffffff"
     bordercolor="#666666"
     borderopacity="1"
     objecttolerance="10"
     gridtolerance="10"
     guidetolerance="10"
     inkscape:pageopacity="0"
     inkscape:pageshadow="2"
     inkscape:window-width="1841"
     inkscape:window-height="879"
     id="namedview5060"
     showgrid="false"
     inkscape:zoom="10.498586"
     inkscape:cx="32.607159"
     inkscape:cy="36.21039"
     inkscape:window-x="79"
     inkscape:window-y="27"
     inkscape:window-maximized="1"
     inkscape:current-layer="g846"
     units="cm"
     inkscape:snap-global="false" />
  <defs
     id="defs5010">
    <style
       id="style5005">.cls-1{fill:none;}.cls-2{clip-path:url(#clip-path);}.cls-3{fill:#f9b233;stroke:#f9b233;stroke-miterlimit:10;stroke-width:10px;}.cls-4{fill:#d59a2c;}.cls-5,.cls-6,.cls-9{fill:#fff;}.cls-5{opacity:0.15;}.cls-6{font-size:9px;font-family:Hind-SemiBold, Hind;font-weight:700;letter-spacing:-0.01em;}.cls-7{fill:#1d1d1b;}.cls-8{fill:#009640;}</style>
    <clipPath
       id="clip-path">
      <circle
         class="cls-1"
         cx="94.949997"
         cy="42.689999"
         r="41.099998"
         id="circle5007"
         style="fill:none" />
    </clipPath>
    <clipPath
       id="clip-path-3">
      <circle
         class="cls-1"
         cx="94.949997"
         cy="42.689999"
         r="41.099998"
         id="circle5007-6"
         style="fill:none" />
    </clipPath>
  </defs>
  <title
     id="title5012">Element 265</title>
  <g
     id="Ebene_2"
     data-name="Ebene 2"
     transform="translate(0,-24.680385)">
    <g
       id="Ebene_2-2"
       data-name="Ebene 2">
      <text
         id="text5024"
         x="-53.039585"
         y="23.420635" />
      <text
         id="text5026"
         x="-53.039585"
         y="23.420635" />
      <g
         id="g846"
         transform="translate(-0.38100364,-0.76200741)">
        <circle
           style="fill:#f9b233;stroke:#f9b233;stroke-width:10px;stroke-miterlimit:10"
           class="cls-3"
           cx="42.070415"
           cy="66.53064"
           r="35.98"
           id="circle5014" />
        <path
           style="fill:#d59a2c"
           inkscape:connector-curvature="0"
           class="cls-4"
           d="m 60.250413,48.140636 a 15.38,15.38 0 0 1 1.71,1.93 8.45,8.45 0 0 1 3.48,-1.35 c 2,0.87 4,1.81 4,2 0,0.19 -3,-1.07 -4.06,-1.36 a 8.16,8.16 0 0 0 -2.89,1.16 c -0.1,0.29 0,0.39 0,0.39 a 8.61,8.61 0 0 1 1.35,0.58 c 0.19,0.38 0.38,1.54 0.1,1.83 -0.1,0.1 -0.06,0.14 -0.39,0.2 -0.33,0.06 -1.41,1.71 -2.46,2.76 -1.05,1.05 -4.79,0.23 -4.79,0.23 0,0 0.22,2.18 0.29,4.35 0.38,0.69 0.87,0.87 2.22,1.45 2.42,0.29 4.75,-0.06 4.84,0.19 0.09,0.25 -4.7,0.57 -5.12,0.48 -0.42,-0.09 -1.45,-0.48 -2.52,-0.77 a 10,10 0 0 0 2.23,2.8 c 1.93,0.58 3.86,1.16 3.86,1.36 a 32.61,32.61 0 0 1 -4.25,-0.58 24.94,24.94 0 0 1 -2.23,-1.69 c 0.25,0.74 0.45,2.23 1,2.75 1.31,1.3 3,2.61 2.85,2.73 a 33.4,33.4 0 0 1 -3.65,-2.41 c -0.69,-1.51 -1.73,-4.12 -1.73,-4.12 h -1 a 166.83,166.83 0 0 1 3.68,39.640004 c -4.17,-2.09 -14.37,-17.480004 -7.33,-27.390004 1.18,-1.65 1.31,-12 1.31,-12 a 7.9,7.9 0 0 1 -2.29,-1 2.81,2.81 0 0 1 -0.67,0.09 c 4.43,10.17 -26.57,24.83 -26.57,24.83 0,0 14.57,-30.96 24.74,-26.52 a 2.82,2.82 0 0 1 0.09,-0.68 7.9,7.9 0 0 1 -1,-2.29 c 0,0 -10.33,0.13 -12,1.31 -9.91,7 -25.3,-3.16 -27.39,-7.33 a 167.45,167.45 0 0 1 39.65,3.71 v -1 c 0,0 -2.61,-1.05 -4.12,-1.74 a 33.4,33.4 0 0 1 -2.41,-3.65 c 0.12,-0.15 1.43,1.54 2.73,2.85 0.52,0.52 2,0.72 2.76,1 a 23.21,23.21 0 0 1 -1.7,-2.23 31,31 0 0 1 -0.61,-4.35 c 0.19,0 0.77,1.93 1.35,3.87 a 10.13,10.13 0 0 0 2.84,2.25 c -0.29,-1.07 -0.68,-2 -0.77,-2.51 -0.09,-0.51 0.23,-5.21 0.48,-5.12 0.25,0.09 -0.1,2.41 0.19,4.83 0.58,1.35 0.77,1.84 1.45,2.22 2.17,0.07 4.35,0.29 4.35,0.29 0,0 -0.81,-3.75 0.24,-4.79 1.05,-1.04 2.7,-2.13 2.75,-2.46 0.05,-0.33 0.1,-0.29 0.2,-0.38 0.29,-0.29 1.45,-0.1 1.83,0.09 a 9.05,9.05 0 0 1 0.58,1.35 c 0,0 0.1,0.1 0.39,0 a 8.16,8.16 0 0 0 1.12,-2.92 c -0.29,-1.07 -1.57,-4.05 -1.35,-4.06 0.22,-0.01 1.15,1.93 2,4 a 8.4,8.4 0 0 1 -1.29,3.46 15.38,15.38 0 0 1 1.93,1.72 z"
           id="path5016" />
        <path
           style="opacity:0.15;fill:#ffffff"
           inkscape:connector-curvature="0"
           class="cls-5"
           d="m 58.490413,95.900636 a 42.54,42.54 0 0 1 -35.12,-66.58 42.55,42.55 0 1 0 51,63.51 42.43,42.43 0 0 1 -15.88,3.07 z"
           id="path5018" />
        <text
           class="cls-6"
           id="text5022"
           x="7.7504139"
           y="80.620636"
           style="font-weight:700;font-size:9px;font-family:Hind-SemiBold, Hind;letter-spacing:-0.01em;fill:#ffffff">ADMIN PORTS<tspan
   x="16.720415"
   y="91.420639"
   id="tspan5020">SECURITY</tspan>
</text>
        <g
           id="g215"
           transform="matrix(0.59730287,-0.56183572,0.56183572,0.59730287,-21.851149,50.032053)">
          <rect
             class="cls-9"
             x="-19.524368"
             y="57.046932"
             width="1.3389643"
             height="9.287466"
             transform="rotate(-45)"
             id="rect5038"
             style="fill:#ffffff;stroke-width:0.85284352" />
          <polygon
             class="cls-9"
             points="83.31,37.57 85.43,35.46 87.54,33.34 89.55,39.58 "
             id="polygon5040"
             transform="matrix(0.85284351,0,0,0.85284351,-39.836573,29.379795)"
             style="fill:#ffffff" />
        </g>
        <g
           id="g211"
           transform="matrix(0.57231831,-0.58726642,0.58726642,0.57231831,-21.283866,52.821601)">
          <rect
             class="cls-9"
             x="76.216179"
             y="-1.2819878"
             width="1.3389643"
             height="9.287466"
             transform="rotate(45)"
             id="rect5042"
             style="fill:#ffffff;stroke-width:0.85284352" />
          <polygon
             class="cls-9"
             points="106.67,37.41 100.43,39.41 102.44,33.18 104.55,35.29 "
             id="polygon5044"
             transform="matrix(0.85284351,0,0,0.85284351,-39.836573,29.379795)"
             style="fill:#ffffff" />
        </g>
        <circle
           style="fill:#ffffff"
           id="circle5046"
           r="4.25"
           cy="67.550636"
           cx="42.080418"
           class="cls-9" />
        <path
           style="fill:#ffffff;stroke:#ffffff;stroke-width:0.95651102px;stroke-linecap:butt;stroke-linejoin:miter;stroke-opacity:1"
           d="m 30.745593,45.883934 c 1.430356,2.711121 5.949811,2.774079 12.1987,2.652416 6.549088,-0.12751 12.414463,-0.372616 11.146047,-4.369188 -0.545142,-1.717655 -4.488878,-2.200667 -4.488878,-2.200667 0,0 2.451617,-2.306156 -0.565846,-4.399109 -2.21898,-1.047749 -4.25195,1.582561 -4.25195,1.582561 0,0 0.135457,-4.411525 -2.730574,-4.436848 -3.461477,-0.03059 -3.359178,4.406924 -3.359178,4.406924 0,0 -2.077183,-2.696628 -3.767825,-1.537006 -1.510156,1.035829 -0.603815,3.883723 -0.603815,3.883723 -4.550538,-0.624855 -4.51818,2.542848 -3.576681,4.417194 z"
           id="path217"
           inkscape:connector-curvature="0"
           sodipodi:nodetypes="csscccscscc" />
        <g
           id="g4735"
           transform="matrix(1.1459168,0,0,1.1459168,-11.137162,11.416883)">
          <circle
             r="1.7145166"
             cy="43.059361"
             cx="24.384237"
             id="path1024"
             style="opacity:1;fill:#ffffff;stroke:#ffffff;stroke-width:1.88976383;stroke-opacity:1" />
          <path
             sodipodi:nodetypes="sccs"
             inkscape:connector-curvature="0"
             id="path1026"
             d="m 24.527344,45.112919 c -5.242594,0.02157 -5.183594,7.183593 -5.183594,7.183593 h 10.367188 c 0,0 -0.04209,-7.204751 -5.183594,-7.183593 z"
             style="color:#000000;font-style:normal;font-variant:normal;font-weight:normal;font-stretch:normal;font-size:medium;line-height:normal;font-family:sans-serif;font-variant-ligatures:normal;font-variant-position:normal;font-variant-caps:normal;font-variant-numeric:normal;font-variant-alternates:normal;font-feature-settings:normal;text-indent:0;text-align:start;text-decoration:none;text-decoration-line:none;text-decoration-style:solid;text-decoration-color:#000000;letter-spacing:normal;word-spacing:normal;text-transform:none;writing-mode:lr-tb;direction:ltr;text-orientation:mixed;dominant-baseline:auto;baseline-shift:baseline;text-anchor:start;white-space:normal;shape-padding:0;clip-rule:nonzero;display:inline;overflow:visible;visibility:visible;opacity:1;isolation:auto;mix-blend-mode:normal;color-interpolation:sRGB;color-interpolation-filters:linearRGB;solid-color:#000000;solid-opacity:1;vector-effect:none;fill:#ffffff;fill-opacity:1;fill-rule:nonzero;stroke:none;stroke-width:1.88976383;stroke-linecap:butt;stroke-linejoin:miter;stroke-miterlimit:4;stroke-dasharray:none;stroke-dashoffset:0;stroke-opacity:1;color-rendering:auto;image-rendering:auto;shape-rendering:auto;text-rendering:auto;enable-background:accumulate" />
        </g>
        <ellipse
           style="opacity:1;fill:#ff0000;stroke:#fa0000;stroke-width:1.88976383;stroke-opacity:1"
           id="path3400"
           cx="38.243248"
           cy="67.253098"
           rx="0.52388006"
           ry="0.57150555" />
        <circle
           style="opacity:1;fill:#ff0000;stroke:#fa0000;stroke-width:1.88976383;stroke-opacity:1"
           id="path3402"
           cx="42.005657"
           cy="63.824062"
           r="0.47625464" />
      </g>
    </g>
  </g>
</svg>
