<svg xmlns="http://www.w3.org/2000/svg" xmlns:xlink="http://www.w3.org/1999/xlink" viewBox="0 0 137.67 107.83"><defs><style>.cls-1{fill:none;}.cls-2{clip-path:url(#clip-path);}.cls-3{fill:#f9b233;stroke:#f9b233;stroke-miterlimit:10;stroke-width:10px;}.cls-4{fill:#d59a2c;}.cls-5,.cls-6,.cls-9{fill:#fff;}.cls-5{opacity:0.15;}.cls-6{font-size:9px;font-family:Hind-SemiBold, Hind;font-weight:700;letter-spacing:-0.01em;}.cls-7{fill:#1d1d1b;}.cls-8{fill:#009640;}</style><clipPath id="clip-path"><circle class="cls-1" cx="94.95" cy="42.69" r="41.1"/></clipPath></defs><title>Element 265</title><g id="Ebene_2" data-name="Ebene 2"><g id="Ebene_2-2" data-name="Ebene 2"><g class="cls-2"><circle class="cls-3" cx="95.11" cy="43.11" r="35.98"/><path class="cls-4" d="M113.29,24.72A15.38,15.38,0,0,1,115,26.65a8.45,8.45,0,0,1,3.48-1.35c2,.87,4,1.81,4,2s-3-1.07-4.06-1.36a8.16,8.16,0,0,0-2.89,1.16c-.1.29,0,.39,0,.39a8.61,8.61,0,0,1,1.35.58c.19.38.38,1.54.1,1.83-.1.1-.06.14-.39.2s-1.41,1.71-2.46,2.76-4.79.23-4.79.23.22,2.18.29,4.35c.38.69.87.87,2.22,1.45,2.42.29,4.75-.06,4.84.19s-4.7.57-5.12.48-1.45-.48-2.52-.77a10,10,0,0,0,2.23,2.8c1.93.58,3.86,1.16,3.86,1.36a32.61,32.61,0,0,1-4.25-.58,24.94,24.94,0,0,1-2.23-1.69c.25.74.45,2.23,1,2.75,1.31,1.3,3,2.61,2.85,2.73a33.4,33.4,0,0,1-3.65-2.41c-.69-1.51-1.73-4.12-1.73-4.12h-1a166.83,166.83,0,0,1,3.68,39.64c-4.17-2.09-14.37-17.48-7.33-27.39,1.18-1.65,1.31-12,1.31-12a7.9,7.9,0,0,1-2.29-1,2.81,2.81,0,0,1-.67.09c4.43,10.17-26.57,24.83-26.57,24.83S88.83,32.84,99,37.28a2.82,2.82,0,0,1,.09-.68,7.9,7.9,0,0,1-1-2.29s-10.33.13-12,1.31c-9.91,7-25.3-3.16-27.39-7.33A167.45,167.45,0,0,1,98.35,32v-1s-2.61-1.05-4.12-1.74a33.4,33.4,0,0,1-2.41-3.65c.12-.15,1.43,1.54,2.73,2.85.52.52,2,.72,2.76,1a23.21,23.21,0,0,1-1.7-2.23A31,31,0,0,1,95,22.88c.19,0,.77,1.93,1.35,3.87A10.13,10.13,0,0,0,99.19,29c-.29-1.07-.68-2-.77-2.51s.23-5.21.48-5.12-.1,2.41.19,4.83c.58,1.35.77,1.84,1.45,2.22,2.17.07,4.35.29,4.35.29s-.81-3.75.24-4.79,2.7-2.13,2.75-2.46.1-.29.2-.38c.29-.29,1.45-.1,1.83.09a9.05,9.05,0,0,1,.58,1.35s.1.1.39,0A8.16,8.16,0,0,0,112,19.6c-.29-1.07-1.57-4.05-1.35-4.06s1.15,1.93,2,4A8.4,8.4,0,0,1,111.36,23,15.38,15.38,0,0,1,113.29,24.72Z"/><path class="cls-5" d="M111.53,72.48A42.54,42.54,0,0,1,76.41,5.9a42.55,42.55,0,1,0,51,63.51A42.43,42.43,0,0,1,111.53,72.48Z"/><text class="cls-6" transform="translate(66.79 59.2)">ADMIN PORTS<tspan x="8.97" y="10.8">SECURITY </tspan></text><text></text><text></text><rect class="cls-7" x="16.88" width="3" height="13"/><rect class="cls-7" y="18.75" width="15.38" height="11.38"/></g><rect class="cls-8" x="94.29" y="21.12" width="1.57" height="10.89"/><polygon class="cls-8" points="95.14 36.88 92.15 31.05 95.14 31.05 98.13 31.05 95.14 36.88"/><rect class="cls-9" x="81.44" y="26.89" width="1.57" height="10.89" transform="translate(1.22 67.61) rotate(-45)"/><polygon class="cls-9" points="89.55 39.58 83.31 37.57 85.43 35.46 87.54 33.34 89.55 39.58"/><rect class="cls-9" x="106.89" y="26.64" width="1.57" height="10.89" transform="translate(54.22 -66.74) rotate(45)"/><polygon class="cls-9" points="100.43 39.41 102.44 33.18 104.55 35.29 106.67 37.41 100.43 39.41"/><circle class="cls-9" cx="95.12" cy="44.13" r="4.25"/><rect class="cls-9" x="76.9" y="39.01" width="1.57" height="10.89" transform="translate(33.73 122.42) rotate(-90.37)"/><polygon class="cls-9" points="87.99 44.33 82.18 47.35 82.16 44.36 82.14 41.37 87.99 44.33"/><rect class="cls-9" x="111.63" y="39.01" width="1.57" height="10.89" transform="translate(67.23 156.57) rotate(-89.63)"/><polygon class="cls-9" points="102.11 44.33 107.92 47.35 107.94 44.36 107.95 41.37 102.11 44.33"/></g></g></svg>
