<?xml version="1.0" encoding="UTF-8" standalone="no"?>
<!-- Created with Inkscape (http://www.inkscape.org/) -->

<svg
   width="19.334957mm"
   height="19.334957mm"
   viewBox="0 0 19.334957 19.334957"
   version="1.1"
   id="svg4331"
   inkscape:version="1.1.1 (c3084ef, 2021-09-22)"
   sodipodi:docname="API.svg"
   xmlns:inkscape="http://www.inkscape.org/namespaces/inkscape"
   xmlns:sodipodi="http://sodipodi.sourceforge.net/DTD/sodipodi-0.dtd"
   xmlns="http://www.w3.org/2000/svg"
   xmlns:svg="http://www.w3.org/2000/svg">
  <sodipodi:namedview
     id="namedview4333"
     pagecolor="#ffffff"
     bordercolor="#666666"
     borderopacity="1.0"
     inkscape:pageshadow="2"
     inkscape:pageopacity="0.0"
     inkscape:pagecheckerboard="0"
     inkscape:document-units="mm"
     showgrid="false"
     inkscape:zoom="7.9522134"
     inkscape:cx="18.171042"
     inkscape:cy="32.632424"
     inkscape:window-width="1312"
     inkscape:window-height="715"
     inkscape:window-x="54"
     inkscape:window-y="25"
     inkscape:window-maximized="0"
     inkscape:current-layer="circle129-7" />
  <defs
     id="defs4328">
    <clipPath
       id="_clip1">
      <rect
         x="20.216999"
         y="84.893997"
         width="30"
         height="25.981001"
         id="rect4032" />
    </clipPath>
    <clipPath
       id="_clip2">
      <rect
         x="20.216999"
         y="84.893997"
         width="30"
         height="25.981001"
         id="rect4049" />
    </clipPath>
  </defs>
  <g
     inkscape:label="Layer 1"
     inkscape:groupmode="layer"
     id="layer1"
     transform="translate(-115.04908,-57.079492)">
    <g
       transform="matrix(0.26458333,0,0,0.26458333,114.89136,26.536522)"
       id="g2204"
       style="clip-rule:evenodd;fill-rule:evenodd;stroke-linecap:round;stroke-linejoin:round;stroke-miterlimit:1.5">
      <g
         id="API"
         transform="translate(0.596118,115.438)">
        <rect
           x="0"
           y="0"
           width="73.077003"
           height="73.077003"
           style="fill:none"
           id="rect2125" />
        <g
           id="button"
           transform="translate(-215.713,-286.28)">
          <g
             id="background"
             transform="translate(215.713,286.28)">
            <g
               id="circle129-7"
               transform="translate(-215.713,-286.28)"
               style="fill:#f55e9d;fill-opacity:1">
              <ellipse
                 cx="252.25101"
                 cy="322.81799"
                 style="fill:#670edf;fill-opacity:1"
                 id="ellipse2127"
                 rx="32.080631"
                 ry="32.080002" />
            </g>
            <g
               transform="translate(-215.713,-286.28)"
               id="g2132"
               style="fill:#670edf;fill-opacity:1">
              <path
                 d="m 252.251,286.28 c -20.165,0 -36.537,16.372 -36.537,36.538 0,20.166 16.372,36.538 36.537,36.538 20.166,0 36.537,-16.372 36.537,-36.538 0,-20.166 -16.371,-36.538 -36.537,-36.538 z m 0,8.915 c 15.245,0 27.622,12.378 27.622,27.623 0,15.246 -12.377,27.623 -27.622,27.623 -15.245,0 -27.622,-12.377 -27.622,-27.623 0,-15.245 12.377,-27.623 27.622,-27.623 z"
                 style="fill:#670edf;fill-opacity:1"
                 id="path2130" />
            </g>
            <g
               id="path131-3"
               transform="translate(-246.356,-406.822)">
              <path
                 d="m 300.718,425.445 c 0.555,0.53 1.065,1.106 1.525,1.721 0.931,-0.627 1.991,-1.039 3.102,-1.203 1.784,0.775 3.567,1.613 3.567,1.783 0,0.169 -2.675,-0.954 -3.62,-1.213 -0.917,0.176 -1.792,0.527 -2.577,1.034 -0.089,0.259 0,0.348 0,0.348 0.415,0.138 0.818,0.311 1.204,0.517 0.169,0.339 0.339,1.373 0.089,1.632 -0.089,0.089 -0.054,0.125 -0.348,0.178 -0.294,0.054 -1.257,1.525 -2.193,2.461 -0.937,0.936 -4.271,0.205 -4.271,0.205 0,0 0.196,1.944 0.258,3.879 0.339,0.615 0.776,0.775 1.98,1.292 2.157,0.259 4.235,-0.053 4.315,0.17 0.08,0.223 -4.19,0.508 -4.565,0.428 -0.374,-0.08 -1.293,-0.428 -2.247,-0.687 0.507,0.945 1.181,1.791 1.988,2.497 1.721,0.517 3.442,1.034 3.442,1.213 -1.273,-0.089 -2.539,-0.262 -3.789,-0.518 -0.691,-0.464 -1.354,-0.967 -1.989,-1.506 0.223,0.659 0.402,1.988 0.892,2.452 1.168,1.159 2.675,2.327 2.541,2.434 -1.13,-0.645 -2.218,-1.363 -3.254,-2.149 -0.615,-1.346 -1.543,-3.674 -1.543,-3.674 h -0.891 c 2.5,11.608 3.602,23.474 3.281,35.344 -3.718,-1.863 -12.813,-15.585 -6.536,-24.421 1.052,-1.471 1.168,-10.7 1.168,-10.7 -0.723,-0.187 -1.413,-0.488 -2.042,-0.891 -0.195,0.05 -0.395,0.077 -0.597,0.08 3.95,9.068 -23.69,22.139 -23.69,22.139 0,0 12.991,-27.605 22.058,-23.646 0.002,-0.205 0.029,-0.408 0.081,-0.606 -0.404,-0.629 -0.705,-1.318 -0.892,-2.042 0,0 -9.21,0.116 -10.699,1.168 -8.836,6.241 -22.558,-2.818 -24.422,-6.536 11.874,-0.307 23.742,0.803 35.353,3.308 v -0.891 c 0,0 -2.327,-0.936 -3.674,-1.552 -0.786,-1.036 -1.504,-2.124 -2.148,-3.254 0.106,-0.134 1.275,1.373 2.434,2.541 0.463,0.464 1.783,0.642 2.461,0.892 -0.545,-0.632 -1.051,-1.296 -1.516,-1.989 -0.273,-1.278 -0.455,-2.574 -0.544,-3.878 0.169,0 0.687,1.721 1.204,3.45 0.716,0.816 1.574,1.495 2.532,2.006 -0.259,-0.954 -0.606,-1.783 -0.687,-2.237 -0.08,-0.455 0.206,-4.646 0.428,-4.566 0.223,0.081 -0.089,2.149 0.17,4.307 0.517,1.204 0.686,1.641 1.293,1.979 1.934,0.063 3.878,0.259 3.878,0.259 0,0 -0.722,-3.344 0.214,-4.271 0.936,-0.927 2.408,-1.899 2.452,-2.193 0.045,-0.295 0.089,-0.259 0.178,-0.339 0.259,-0.259 1.293,-0.089 1.632,0.08 0.205,0.387 0.378,0.789 0.517,1.204 0,0 0.089,0.089 0.348,0 0.498,-0.796 0.837,-1.68 0.999,-2.604 -0.259,-0.954 -1.4,-3.611 -1.204,-3.62 0.196,-0.008 1.025,1.721 1.783,3.567 -0.15,1.101 -0.543,2.154 -1.15,3.085 0.616,0.462 1.191,0.975 1.721,1.533 z"
                 style="fill:#ffffff;fill-opacity:0.49;fill-rule:nonzero"
                 id="path2134" />
            </g>
          </g>
          <g
             transform="matrix(0.942731,0,0,0.918786,217.209,287.172)"
             id="g2146">
            <g
               transform="matrix(1.08112,0,0,1.08112,-106.169,82.9876)"
               id="g2140">
              <path
                 d="m 142,-65 6,8 c 0,0 1.348,7.483 -4,17 -4.44,7.901 -11.54,10.817 -11.979,10.992 L 132,-29 c 0,0 -7.417,-2.844 -12,-11 -5.348,-9.517 -4,-17 -4,-17 l 6,-8 z"
                 style="fill:#ffffff;fill-opacity:0.62;stroke:#3d087b;stroke-width:0.55px"
                 id="path2138" />
            </g>
            <g
               transform="matrix(0.921247,0,0,0.921247,-85.0662,75.4736)"
               id="g2144">
              <path
                 d="m 142,-65 6,8 c 0,0 1.348,7.483 -4,17 -4.44,7.901 -11.54,10.817 -11.979,10.992 L 132,-29 c 0,0 -7.417,-2.844 -12,-11 -5.348,-9.517 -4,-17 -4,-17 l 6,-8 z"
                 style="fill:#7e8dd2;stroke:#3d087b;stroke-width:0.64px;fill-opacity:1"
                 id="path2142" />
            </g>
          </g>
          <g
             transform="translate(2.83465e-6)"
             id="g2150">
            <g
               id="gleam">
              <path
                 id="path133-3-3"
                 d="m 236.102,290.185 c -0.519,0.225 -1.033,0.462 -1.541,0.71 -11.6,6.419 -18.83,18.666 -18.847,31.922 0,0 0,10e-4 0,10e-4 0,20.043 16.493,36.537 36.537,36.537 0,0 0,0 0,0 10.11,-0.018 19.772,-4.23 26.665,-11.625 -3.717,1.196 -7.596,1.809 -11.5,1.818 -0.008,0 -0.015,0 -0.022,0 -20.807,0 -37.929,-17.122 -37.929,-37.93 0,-7.649 2.314,-15.122 6.637,-21.433 z"
                 style="fill:#0b0b28;fill-opacity:0.13;fill-rule:nonzero" />
            </g>
          </g>
        </g>
        <g
           id="g2161">
          <g
             transform="matrix(2.04701,0,0,1.53526,-229.252,-24.5966)"
             id="g2155">
            <path
               d="m 131.585,30.102 c 0,-0.539 -0.16,-1.055 -0.446,-1.436 -0.285,-0.381 -0.673,-0.595 -1.077,-0.595 -0.271,0 -0.562,0 -0.833,0 -0.404,0 -0.791,0.214 -1.077,0.595 -0.285,0.381 -0.446,0.897 -0.446,1.436 0,1.397 0,3.303 0,3.303 0,0.324 0.197,0.586 0.44,0.586 h 3 c 0.242,0 0.439,-0.262 0.439,-0.586 z m -0.879,0 v 2.717 c 0,0 -2.121,0 -2.121,0 v -2.717 c 0,-0.228 0.068,-0.446 0.189,-0.607 0.121,-0.161 0.285,-0.252 0.455,-0.252 0.271,0 0.562,0 0.833,0 0.171,0 0.335,0.091 0.456,0.252 0.12,0.161 0.188,0.379 0.188,0.607 z"
               style="fill:#f43585;stroke:#3d087b;stroke-width:0.33px;stroke-linecap:butt;stroke-miterlimit:2"
               id="path2153" />
          </g>
          <g
             transform="matrix(1.25891,0,0,1.25891,-126.956,-15.7729)"
             id="g2159">
            <circle
               cx="129.396"
               cy="37.654999"
               r="6.25"
               style="fill:#fafafb;stroke:#3d087b;stroke-width:0.48px"
               id="circle2157" />
          </g>
        </g>
        <g
           transform="matrix(1.10155,0,0,1.10155,-109.072,-9.57196)"
           id="g2165">
          <path
             d="m 132.225,33.447 c -0.384,-0.056 -0.774,-0.056 -1.158,0 l -0.154,1.059 c -0.281,0.071 -0.55,0.183 -0.8,0.331 l -0.856,-0.64 c -0.312,0.232 -0.588,0.508 -0.819,0.819 l 0.64,0.857 c -0.149,0.249 -0.261,0.519 -0.332,0.8 l -1.058,0.153 c -0.056,0.384 -0.056,0.774 0,1.158 l 1.058,0.154 c 0.071,0.281 0.183,0.55 0.332,0.8 l -0.64,0.856 c 0.231,0.312 0.507,0.588 0.819,0.819 l 0.856,-0.64 c 0.25,0.149 0.519,0.261 0.8,0.332 l 0.154,1.058 c 0.384,0.056 0.774,0.056 1.158,0 l 0.153,-1.058 c 0.281,-0.071 0.551,-0.183 0.8,-0.332 l 0.857,0.64 c 0.311,-0.231 0.587,-0.507 0.819,-0.819 l -0.64,-0.856 c 0.148,-0.25 0.26,-0.519 0.331,-0.8 l 1.059,-0.154 c 0.056,-0.384 0.056,-0.774 0,-1.158 l -1.059,-0.153 c -0.071,-0.281 -0.183,-0.551 -0.331,-0.8 l 0.64,-0.857 c -0.232,-0.311 -0.508,-0.587 -0.819,-0.819 l -0.857,0.64 c -0.249,-0.148 -0.519,-0.26 -0.8,-0.331 z m -0.579,2.414 c 0.852,0 1.544,0.692 1.544,1.544 0,0.853 -0.692,1.545 -1.544,1.545 -0.853,0 -1.545,-0.692 -1.545,-1.545 0,-0.852 0.692,-1.544 1.545,-1.544 z"
             style="fill:#f43585"
             id="path2163" />
        </g>
        <g
           transform="matrix(0.773168,0,0,0.773168,36.5321,53.9362)"
           id="g2201">
          <path
             d="m -20.634,0 1.902,-4.887 h 1.017 L -15.813,0 h -1.044 l -0.508,-1.304 h -2.021 L -19.895,0 Z m 1.499,-1.955 h 1.519 l -0.76,-1.948 z"
             style="fill:#ffffff;fill-rule:nonzero"
             id="path2167" />
          <path
             d="m -15.12,0 v -4.887 h 1.704 c 0.594,0 1.018,0.1 1.273,0.299 0.254,0.199 0.381,0.532 0.381,0.999 0,0.528 -0.17,0.939 -0.51,1.233 -0.34,0.294 -0.816,0.441 -1.428,0.441 h -0.423 V 0 Z m 0.997,-2.586 h 0.198 c 0.348,0 0.623,-0.08 0.824,-0.242 0.202,-0.162 0.302,-0.382 0.302,-0.659 0,-0.486 -0.309,-0.73 -0.928,-0.73 h -0.396 z"
             style="fill:#ffffff;fill-rule:nonzero"
             id="path2169" />
          <rect
             x="-10.973"
             y="-4.8870001"
             width="1.017"
             height="4.8870001"
             style="fill:#ffffff;fill-rule:nonzero"
             id="rect2171" />
          <path
             d="m -6.776,-0.043 v -0.839 c 0.526,0.22 0.977,0.331 1.351,0.331 0.262,0 0.468,-0.059 0.619,-0.175 0.151,-0.117 0.226,-0.276 0.226,-0.476 0,-0.158 -0.047,-0.292 -0.142,-0.401 -0.095,-0.109 -0.274,-0.238 -0.538,-0.388 l -0.327,-0.182 c -0.438,-0.246 -0.747,-0.482 -0.928,-0.708 -0.18,-0.226 -0.271,-0.489 -0.271,-0.791 0,-0.403 0.148,-0.726 0.444,-0.971 0.297,-0.244 0.688,-0.366 1.174,-0.366 0.39,0 0.829,0.056 1.318,0.168 v 0.783 c -0.5,-0.187 -0.895,-0.281 -1.186,-0.281 -0.224,0 -0.404,0.05 -0.54,0.15 -0.135,0.101 -0.203,0.232 -0.203,0.395 0,0.134 0.048,0.252 0.142,0.353 0.095,0.102 0.273,0.226 0.535,0.373 l 0.35,0.195 c 0.471,0.264 0.796,0.508 0.974,0.73 0.179,0.222 0.268,0.493 0.268,0.812 0,0.454 -0.168,0.809 -0.505,1.067 -0.337,0.257 -0.802,0.386 -1.394,0.386 -0.392,0 -0.847,-0.055 -1.367,-0.165 z"
             style="fill:#ffffff;fill-rule:nonzero"
             id="path2173" />
          <path
             d="m 0.314,-0.122 c -0.465,0.136 -0.905,0.205 -1.321,0.205 -0.605,0 -1.083,-0.172 -1.433,-0.516 -0.35,-0.343 -0.525,-0.812 -0.525,-1.406 0,-0.562 0.16,-1.013 0.48,-1.356 0.321,-0.342 0.744,-0.513 1.27,-0.513 0.53,0 0.918,0.167 1.162,0.502 0.245,0.334 0.367,0.864 0.367,1.588 h -2.249 c 0.066,0.691 0.446,1.037 1.139,1.037 0.328,0 0.698,-0.076 1.11,-0.228 z m -2.262,-2.047 h 1.301 c 0,-0.619 -0.199,-0.928 -0.598,-0.928 -0.405,0 -0.639,0.309 -0.703,0.928 z"
             style="fill:#ffffff;fill-rule:nonzero"
             id="path2175" />
          <path
             d="M 3.999,-0.079 C 3.594,0.029 3.218,0.083 2.873,0.083 2.294,0.083 1.836,-0.088 1.501,-0.428 1.165,-0.768 0.997,-1.231 0.997,-1.816 c 0,-0.592 0.173,-1.056 0.519,-1.39 0.345,-0.335 0.823,-0.502 1.433,-0.502 0.295,0 0.635,0.047 1.02,0.142 V -2.86 C 3.568,-2.989 3.248,-3.054 3.008,-3.054 c -0.293,0 -0.528,0.112 -0.706,0.336 -0.179,0.225 -0.268,0.523 -0.268,0.895 0,0.381 0.096,0.686 0.289,0.915 0.193,0.229 0.45,0.343 0.771,0.343 0.293,0 0.594,-0.063 0.905,-0.191 z"
             style="fill:#ffffff;fill-rule:nonzero"
             id="path2177" />
          <path
             d="M 7.165,0 V -0.684 C 6.848,-0.173 6.437,0.083 5.93,0.083 5.607,0.083 5.352,-0.02 5.164,-0.225 4.977,-0.429 4.884,-0.709 4.884,-1.063 v -2.563 h 0.977 v 2.322 c 0,0.411 0.138,0.617 0.413,0.617 0.308,0 0.605,-0.219 0.891,-0.657 V -3.626 H 8.143 V 0 Z"
             style="fill:#ffffff;fill-rule:nonzero"
             id="path2179" />
          <path
             d="m 9.365,0 v -3.626 h 0.977 v 0.684 c 0.253,-0.511 0.638,-0.766 1.156,-0.766 0.061,0 0.122,0.006 0.181,0.02 v 0.871 c -0.138,-0.05 -0.267,-0.076 -0.386,-0.076 -0.39,0 -0.707,0.197 -0.951,0.591 V 0 Z"
             style="fill:#ffffff;fill-rule:nonzero"
             id="path2181" />
          <path
             d="m 12.439,0 v -3.626 h 0.977 V 0 Z m 0,-4.237 v -0.815 h 0.977 v 0.815 z"
             style="fill:#ffffff;fill-rule:nonzero"
             id="path2183" />
          <path
             d="m 16.507,-0.02 c -0.233,0.068 -0.417,0.103 -0.552,0.103 -0.847,0 -1.271,-0.397 -1.271,-1.189 v -1.909 h -0.406 v -0.611 h 0.406 v -0.611 l 0.978,-0.112 v 0.723 h 0.776 v 0.611 h -0.776 v 1.78 c 0,0.445 0.181,0.667 0.544,0.667 0.084,0 0.184,-0.015 0.301,-0.046 z"
             style="fill:#ffffff;fill-rule:nonzero"
             id="path2185" />
          <path
             d="M 17.392,1.304 18.214,0 16.87,-3.626 h 1.05 l 0.898,2.424 1.067,-2.424 h 0.743 l -2.239,4.93 z"
             style="fill:#ffffff;fill-rule:nonzero"
             id="path2187" />
          <path
             d="M -11.755,9.054 V 4.167 h 1.017 v 1.984 h 2.021 V 4.167 H -7.7 V 9.054 H -8.717 V 6.825 h -2.021 v 2.229 z"
             style="fill:#ffffff;fill-rule:nonzero"
             id="path2189" />
          <path
             d="m -3.527,8.931 c -0.464,0.137 -0.904,0.205 -1.32,0.205 -0.606,0 -1.083,-0.171 -1.433,-0.515 -0.351,-0.343 -0.526,-0.812 -0.526,-1.407 0,-0.561 0.161,-1.013 0.481,-1.355 0.32,-0.342 0.743,-0.514 1.27,-0.514 0.53,0 0.918,0.168 1.162,0.502 0.244,0.335 0.366,0.864 0.366,1.589 h -2.248 c 0.066,0.691 0.446,1.036 1.139,1.036 0.328,0 0.698,-0.075 1.109,-0.227 z M -5.788,6.884 h 1.301 c 0,-0.618 -0.2,-0.928 -0.598,-0.928 -0.405,0 -0.64,0.31 -0.703,0.928 z"
             style="fill:#ffffff;fill-rule:nonzero"
             id="path2191" />
          <path
             d="m -0.74,8.664 c -0.325,0.315 -0.674,0.472 -1.046,0.472 -0.317,0 -0.575,-0.097 -0.773,-0.29 -0.198,-0.194 -0.297,-0.445 -0.297,-0.753 0,-0.401 0.16,-0.71 0.48,-0.926 0.32,-0.217 0.779,-0.326 1.375,-0.326 h 0.261 v -0.33 c 0,-0.376 -0.214,-0.565 -0.644,-0.565 -0.38,0 -0.766,0.108 -1.155,0.324 V 5.596 c 0.442,-0.167 0.88,-0.251 1.314,-0.251 0.949,0 1.423,0.378 1.423,1.133 v 1.605 c 0,0.284 0.091,0.426 0.274,0.426 0.033,0 0.076,-0.005 0.129,-0.013 l 0.023,0.548 c -0.207,0.061 -0.39,0.092 -0.548,0.092 -0.401,0 -0.658,-0.157 -0.773,-0.472 z m 0,-0.525 V 7.403 h -0.231 c -0.632,0 -0.947,0.198 -0.947,0.594 0,0.134 0.045,0.247 0.137,0.338 0.091,0.092 0.204,0.137 0.338,0.137 0.229,0 0.463,-0.111 0.703,-0.333 z"
             style="fill:#ffffff;fill-rule:nonzero"
             id="path2193" />
          <path
             d="M 3.741,9.054 V 8.37 C 3.49,8.881 3.095,9.136 2.556,9.136 2.12,9.136 1.778,8.977 1.529,8.657 1.28,8.338 1.156,7.899 1.156,7.34 c 0,-0.608 0.14,-1.092 0.421,-1.453 0.28,-0.361 0.657,-0.542 1.131,-0.542 0.378,0 0.723,0.15 1.033,0.45 V 3.84 h 0.981 v 5.214 z m 0,-2.678 C 3.506,6.112 3.254,5.979 2.985,5.979 2.745,5.979 2.554,6.095 2.41,6.326 2.267,6.557 2.196,6.868 2.196,7.257 2.196,7.999 2.434,8.37 2.909,8.37 3.2,8.37 3.477,8.184 3.741,7.812 Z"
             style="fill:#ffffff;fill-rule:nonzero"
             id="path2195" />
          <path
             d="M 8.892,8.931 C 8.428,9.068 7.988,9.136 7.572,9.136 6.966,9.136 6.489,8.965 6.138,8.621 5.788,8.278 5.613,7.809 5.613,7.214 c 0,-0.561 0.161,-1.013 0.481,-1.355 0.32,-0.342 0.743,-0.514 1.27,-0.514 0.53,0 0.918,0.168 1.162,0.502 0.244,0.335 0.366,0.864 0.366,1.589 H 6.644 c 0.066,0.691 0.445,1.036 1.139,1.036 0.328,0 0.698,-0.075 1.109,-0.227 z M 6.631,6.884 h 1.301 c 0,-0.618 -0.2,-0.928 -0.598,-0.928 -0.405,0 -0.64,0.31 -0.703,0.928 z"
             style="fill:#ffffff;fill-rule:nonzero"
             id="path2197" />
          <path
             d="M 9.903,9.054 V 5.428 h 0.977 v 0.684 c 0.253,-0.511 0.639,-0.767 1.156,-0.767 0.062,0 0.122,0.007 0.182,0.02 V 6.237 C 12.079,6.186 11.95,6.161 11.831,6.161 c -0.389,0 -0.706,0.197 -0.951,0.591 v 2.302 z"
             style="fill:#ffffff;fill-rule:nonzero"
             id="path2199" />
        </g>
      </g>
    </g>
  </g>
</svg>
