<?xml version="1.0" encoding="UTF-8" standalone="no"?>
<svg
   xmlns:dc="http://purl.org/dc/elements/1.1/"
   xmlns:cc="http://creativecommons.org/ns#"
   xmlns:rdf="http://www.w3.org/1999/02/22-rdf-syntax-ns#"
   xmlns:svg="http://www.w3.org/2000/svg"
   xmlns="http://www.w3.org/2000/svg"
   xmlns:sodipodi="http://sodipodi.sourceforge.net/DTD/sodipodi-0.dtd"
   xmlns:inkscape="http://www.inkscape.org/namespaces/inkscape"
   sodipodi:docname="automated_threats.svg"
   inkscape:version="1.0beta2 (2b71d25, 2019-12-03)"
   id="svg1709"
   version="1.1"
   viewBox="0 0 25.7799 25.779899"
   height="25.7799mm"
   width="25.7799mm">
  <defs
     id="defs1703" />
  <sodipodi:namedview
     inkscape:document-rotation="0"
     inkscape:window-maximized="1"
     inkscape:window-y="23"
     inkscape:window-x="0"
     inkscape:window-height="949"
     inkscape:window-width="1680"
     fit-margin-bottom="0"
     fit-margin-right="0"
     fit-margin-left="0"
     fit-margin-top="0"
     showgrid="false"
     inkscape:current-layer="layer2"
     inkscape:document-units="mm"
     inkscape:cy="48.467444"
     inkscape:cx="57.293082"
     inkscape:zoom="7.8973601"
     inkscape:pageshadow="2"
     inkscape:pageopacity="0.0"
     borderopacity="1.0"
     bordercolor="#666666"
     pagecolor="#ffffff"
     id="base" />
  <metadata
     id="metadata1706">
    <rdf:RDF>
      <cc:Work
         rdf:about="">
        <dc:format>image/svg+xml</dc:format>
        <dc:type
           rdf:resource="http://purl.org/dc/dcmitype/StillImage" />
        <dc:title></dc:title>
      </cc:Work>
    </rdf:RDF>
  </metadata>
  <g
     style="display:inline"
     transform="translate(-76.098697,-100.99309)"
     id="layer1"
     inkscape:groupmode="layer"
     inkscape:label="button">
    <g
       style="display:inline"
       transform="translate(76.098697,100.99309)"
       inkscape:label="background"
       id="layer5"
       inkscape:groupmode="layer">
      <circle
         transform="translate(-76.098696,-100.99309)"
         style="display:inline;fill:#de8c31;fill-opacity:1;stroke:#dadada;stroke-width:0;stroke-miterlimit:10;stroke-dasharray:none;stroke-opacity:1"
         id="circle129-7"
         r="12.889999"
         cy="113.88011"
         cx="88.987877"
         class="cls-4" />
      <path
         clip-path="none"
         style="display:inline;fill:#632417;fill-opacity:1;stroke-width:0.314542"
         inkscape:connector-curvature="0"
         id="path131-3"
         d="m 19.177734,6.1680169 a 4.8376628,4.8376628 0 0 1 0.53787,0.60707 2.6578838,2.6578838 0 0 1 1.09461,-0.42463 c 0.62908,0.27365 1.25817,0.56932 1.25817,0.62908 0,0.0598 -0.94363,-0.33656 -1.27704,-0.42778 a 2.5666665,2.5666665 0 0 0 -0.90903,0.36487 c -0.0315,0.0912 0,0.12267 0,0.12267 a 2.7082107,2.7082107 0 0 1 0.42463,0.18244 c 0.0598,0.11953 0.11953,0.48439 0.0314,0.57561 -0.0314,0.0315 -0.0189,0.044 -0.12267,0.0629 -0.1038,0.0189 -0.44351,0.53787 -0.77378,0.86814 -0.33027,0.33027 -1.50665,0.0723 -1.50665,0.0723 0,0 0.0692,0.6857 0.0912,1.3682501 0.11952,0.21704 0.27365,0.27365 0.69828,0.45609 0.76119,0.0912 1.49408,-0.0189 1.52238,0.0598 0.0283,0.0786 -1.47834,0.1793 -1.61045,0.15098 -0.13211,-0.0283 -0.45609,-0.15098 -0.79265,-0.24219 a 3.1454246,3.1454246 0 0 0 0.70143,0.88071 c 0.60707,0.18244 1.21413,0.36488 1.21413,0.42779 a 10.25723,10.25723 0 0 1 -1.3368,-0.18244 7.8446892,7.8446892 0 0 1 -0.70143,-0.53156 c 0.0786,0.23275 0.14154,0.70143 0.31454,0.86498 0.41205,0.4089 0.94363,0.82095 0.89645,0.85871 a 10.505718,10.505718 0 0 1 -1.14808,-0.75805 c -0.21703,-0.47496 -0.54416,-1.29592 -0.54416,-1.29592 h -0.31454 a 52.475119,52.475119 0 0 1 1.15751,12.46847 c -1.31164,-0.65739 -4.51997,-5.49821 -2.30559,-8.61533 0.37116,-0.51899 0.41205,-3.7745 0.41205,-3.7745 a 2.4848854,2.4848854 0 0 1 -0.7203,-0.31454 0.88386433,0.88386433 0 0 1 -0.21075,0.0283 c 1.39343,3.1989 -8.357393,7.81009 -8.357393,7.81009 0,0 4.58288,-9.7382301 7.781783,-8.34167 a 0.88700972,0.88700972 0 0 1 0.0283,-0.2138801 2.4848854,2.4848854 0 0 1 -0.31454,-0.72031 c 0,0 -3.249223,0.0409 -3.774513,0.41205 -3.11712,2.2017801 -7.957931,-0.99396 -8.61532,-2.3056 a 52.670136,52.670136 0 0 1 12.471613,1.16695 v -0.31454 c 0,0 -0.82096,-0.33027 -1.29592,-0.5473 a 10.505718,10.505718 0 0 1 -0.758043,-1.14809 c 0.0377,-0.0472 0.44979,0.4844 0.858703,0.89645 0.16356,0.16356 0.62908,0.22647 0.86813,0.31454 a 7.3005304,7.3005304 0 0 1 -0.53472,-0.70143 9.7508163,9.7508163 0 0 1 -0.19187,-1.36826 c 0.0598,0 0.2422,0.60707 0.42463,1.21728 a 3.1863152,3.1863152 0 0 0 0.8933,0.70772 c -0.0912,-0.33656 -0.21389,-0.62908 -0.24219,-0.7895 -0.0283,-0.16041 0.0724,-1.63876 0.15098,-1.61045 0.0786,0.0283 -0.0315,0.75804 0.0598,1.51923 0.18243,0.42464 0.24219,0.57876 0.45608,0.69829 0.68256,0.022 1.36826,0.0912 1.36826,0.0912 0,0 -0.25478,-1.17954 0.0755,-1.50666 0.33027,-0.32713 0.84927,-0.66998 0.86499,-0.77378 0.0157,-0.10379 0.0314,-0.0912 0.0629,-0.11952 0.0912,-0.0912 0.45609,-0.0315 0.57562,0.0283 a 2.8466092,2.8466092 0 0 1 0.18243,0.42463 c 0,0 0.0314,0.0315 0.12267,0 a 2.5666665,2.5666665 0 0 0 0.35229,-0.91846 c -0.0912,-0.33656 -0.49383,-1.27391 -0.42463,-1.27705 0.0692,-0.003 0.36172,0.60707 0.62909,1.25817 a 2.6421567,2.6421567 0 0 1 -0.40576,1.08832 4.8376628,4.8376628 0 0 1 0.60706,0.54101 z"
         class="cls-5" />
    </g>
    <g
       inkscape:label="automation"
       id="layer8"
       inkscape:groupmode="layer">
      <g
         style="fill:#dedede;fill-opacity:1"
         transform="matrix(-0.06521121,-0.1315597,0.1315597,-0.06521121,90.608642,116.15262)"
         id="g1119">
        <path
           style="fill:#dedede;fill-opacity:1"
           inkscape:connector-curvature="0"
           d="m 2.08,43.608 c 0.035,0.44 0.354,0.805 0.786,0.898 l 3.485,0.752 c 0.123,0.594 0.279,1.18 0.468,1.752 L 4.181,49.4 c -0.327,0.296 -0.421,0.772 -0.231,1.171 0.482,1.014 1.019,1.951 1.596,2.785 0.25,0.362 0.708,0.518 1.129,0.383 l 3.387,-1.091 c 0.405,0.454 0.836,0.885 1.29,1.29 l -1.091,3.387 c -0.135,0.419 0.02,0.878 0.383,1.129 0.834,0.577 1.771,1.114 2.785,1.596 0.4,0.19 0.875,0.095 1.171,-0.231 l 2.39,-2.638 c 0.573,0.188 1.159,0.345 1.753,0.468 l 0.752,3.485 c 0.093,0.431 0.458,0.75 0.897,0.786 0.532,0.042 1.065,0.08 1.608,0.08 0.543,0 1.076,-0.038 1.608,-0.08 0.44,-0.035 0.805,-0.354 0.898,-0.786 l 0.752,-3.485 c 0.594,-0.123 1.181,-0.279 1.753,-0.468 l 2.39,2.638 c 0.297,0.327 0.773,0.422 1.171,0.231 1.014,-0.482 1.951,-1.02 2.785,-1.596 0.363,-0.251 0.518,-0.71 0.383,-1.129 l -1.091,-3.387 c 0.454,-0.405 0.885,-0.836 1.29,-1.289 l 3.387,1.091 c 0.419,0.136 0.878,-0.02 1.129,-0.383 0.577,-0.834 1.114,-1.771 1.596,-2.785 0.19,-0.399 0.096,-0.875 -0.231,-1.171 l -2.638,-2.39 c 0.188,-0.573 0.345,-1.159 0.468,-1.753 l 3.485,-0.752 c 0.431,-0.093 0.75,-0.458 0.786,-0.897 C 41.962,43.076 42,42.543 42,42 42,41.457 41.962,40.924 41.92,40.392 41.885,39.952 41.566,39.587 41.134,39.494 L 37.649,38.742 C 37.526,38.148 37.37,37.561 37.181,36.989 l 2.638,-2.39 c 0.327,-0.296 0.421,-0.772 0.231,-1.171 -0.482,-1.014 -1.02,-1.951 -1.596,-2.785 -0.251,-0.363 -0.71,-0.519 -1.129,-0.383 l -3.387,1.091 c -0.405,-0.454 -0.836,-0.885 -1.29,-1.29 l 1.091,-3.387 c 0.135,-0.419 -0.02,-0.878 -0.383,-1.129 -0.834,-0.577 -1.771,-1.114 -2.785,-1.596 -0.4,-0.191 -0.875,-0.096 -1.171,0.231 l -2.39,2.638 C 26.437,26.63 25.851,26.473 25.257,26.35 l -0.752,-3.485 c -0.093,-0.431 -0.458,-0.75 -0.897,-0.786 -1.065,-0.086 -2.152,-0.084 -3.217,0 -0.44,0.035 -0.805,0.354 -0.898,0.786 l -0.752,3.485 c -0.594,0.123 -1.18,0.279 -1.752,0.468 l -2.39,-2.638 c -0.296,-0.327 -0.771,-0.421 -1.171,-0.231 -1.014,0.482 -1.951,1.019 -2.785,1.596 -0.363,0.251 -0.518,0.71 -0.383,1.129 l 1.091,3.387 c -0.454,0.405 -0.885,0.836 -1.29,1.29 L 6.675,30.26 c -0.42,-0.136 -0.879,0.02 -1.129,0.383 -0.577,0.834 -1.114,1.771 -1.596,2.785 -0.19,0.399 -0.096,0.875 0.231,1.171 l 2.638,2.39 C 6.631,37.562 6.474,38.148 6.351,38.742 L 2.866,39.494 C 2.435,39.587 2.116,39.952 2.08,40.391 2.038,40.924 2,41.457 2,42 c 0,0.543 0.038,1.076 0.08,1.608 z m 1.941,-2.317 3.402,-0.735 c 0.402,-0.087 0.71,-0.411 0.776,-0.817 0.15,-0.922 0.392,-1.827 0.719,-2.691 0.146,-0.384 0.041,-0.819 -0.264,-1.095 L 6.085,33.625 c 0.224,-0.429 0.458,-0.84 0.7,-1.229 l 3.296,1.062 c 0.39,0.125 0.82,0 1.081,-0.318 0.59,-0.722 1.256,-1.387 1.978,-1.978 0.318,-0.26 0.445,-0.689 0.318,-1.081 l -1.062,-3.296 c 0.389,-0.243 0.799,-0.477 1.229,-0.7 l 2.328,2.57 c 0.277,0.305 0.713,0.41 1.096,0.264 0.862,-0.327 1.767,-0.569 2.69,-0.719 0.406,-0.066 0.73,-0.374 0.817,-0.776 l 0.734,-3.402 c 0.471,-0.025 0.95,-0.026 1.419,0 l 0.735,3.402 c 0.087,0.402 0.411,0.71 0.817,0.776 0.922,0.15 1.827,0.392 2.691,0.719 0.382,0.146 0.818,0.042 1.095,-0.264 l 2.328,-2.569 c 0.429,0.224 0.84,0.458 1.229,0.7 l -1.062,3.296 c -0.126,0.392 0,0.82 0.318,1.081 0.722,0.59 1.387,1.256 1.978,1.978 0.261,0.319 0.69,0.446 1.081,0.318 l 3.296,-1.062 c 0.243,0.389 0.477,0.799 0.7,1.228 l -2.57,2.328 c -0.305,0.276 -0.41,0.711 -0.264,1.096 0.327,0.862 0.569,1.767 0.719,2.69 0.066,0.406 0.374,0.73 0.776,0.817 l 3.402,0.734 C 39.991,41.525 40,41.762 40,42 c 0,0.238 -0.008,0.475 -0.021,0.709 l -3.402,0.735 c -0.402,0.087 -0.71,0.411 -0.776,0.817 -0.15,0.922 -0.392,1.827 -0.719,2.691 -0.146,0.384 -0.041,0.819 0.264,1.095 l 2.569,2.328 c -0.224,0.429 -0.458,0.84 -0.7,1.229 l -3.296,-1.062 c -0.393,-0.128 -0.82,-0.001 -1.081,0.318 -0.589,0.72 -1.255,1.386 -1.978,1.978 -0.318,0.26 -0.444,0.689 -0.318,1.08 l 1.062,3.296 c -0.389,0.243 -0.799,0.477 -1.228,0.7 l -2.328,-2.57 c -0.276,-0.305 -0.711,-0.408 -1.096,-0.264 -0.862,0.327 -1.767,0.569 -2.69,0.719 -0.406,0.066 -0.73,0.374 -0.817,0.776 l -0.734,3.402 c -0.471,0.025 -0.95,0.026 -1.419,0 L 20.557,56.575 C 20.47,56.173 20.146,55.865 19.74,55.799 18.818,55.649 17.913,55.407 17.049,55.08 16.666,54.934 16.23,55.038 15.954,55.344 l -2.328,2.569 c -0.429,-0.224 -0.84,-0.458 -1.229,-0.7 l 1.062,-3.296 c 0.126,-0.392 0,-0.82 -0.318,-1.081 -0.722,-0.59 -1.387,-1.256 -1.978,-1.978 -0.261,-0.319 -0.691,-0.445 -1.081,-0.318 L 6.786,51.602 C 6.543,51.213 6.309,50.803 6.086,50.373 l 2.57,-2.328 C 8.961,47.769 9.066,47.334 8.92,46.949 8.593,46.087 8.351,45.182 8.201,44.259 8.135,43.853 7.827,43.529 7.425,43.442 L 4.021,42.71 C 4.009,42.475 4,42.238 4,42 4,41.762 4.008,41.525 4.021,41.291 Z"
           id="path1088" />
        <path
           style="fill:#dedede;fill-opacity:1"
           inkscape:connector-curvature="0"
           d="m 54.219,16.235 c 0.376,-0.118 0.648,-0.447 0.693,-0.839 C 54.972,14.891 55,14.434 55,14 55,13.566 54.972,13.109 54.913,12.604 54.868,12.212 54.596,11.883 54.22,11.765 l -2.773,-0.871 c -0.083,-0.227 -0.175,-0.45 -0.276,-0.668 L 52.515,7.651 C 52.697,7.302 52.657,6.878 52.413,6.568 51.834,5.836 51.168,5.17 50.434,4.589 50.124,4.344 49.7,4.305 49.351,4.486 L 46.774,5.83 C 46.556,5.73 46.333,5.638 46.106,5.555 L 45.235,2.782 C 45.117,2.406 44.788,2.134 44.396,2.089 43.384,1.971 42.615,1.971 41.603,2.089 41.211,2.134 40.882,2.406 40.764,2.782 L 39.893,5.555 C 39.666,5.638 39.443,5.73 39.225,5.831 L 36.65,4.487 C 36.301,4.306 35.878,4.345 35.567,4.589 34.835,5.168 34.169,5.834 33.588,6.568 33.343,6.878 33.303,7.301 33.485,7.651 l 1.343,2.575 c -0.1,0.218 -0.192,0.441 -0.275,0.668 l -2.773,0.871 c -0.376,0.118 -0.648,0.447 -0.693,0.839 C 31.028,13.109 31,13.566 31,14 c 0,0.434 0.028,0.891 0.087,1.396 0.045,0.392 0.317,0.721 0.693,0.839 l 2.773,0.871 c 0.083,0.227 0.175,0.45 0.276,0.668 l -1.344,2.575 c -0.182,0.349 -0.142,0.773 0.102,1.083 0.579,0.732 1.245,1.398 1.979,1.979 0.309,0.245 0.734,0.284 1.083,0.103 l 2.575,-1.343 c 0.218,0.1 0.441,0.192 0.668,0.275 l 0.871,2.773 c 0.118,0.376 0.447,0.648 0.839,0.693 C 42.109,25.972 42.566,26 43,26 c 0.434,0 0.891,-0.028 1.396,-0.087 0.392,-0.045 0.721,-0.317 0.839,-0.693 l 0.871,-2.773 c 0.227,-0.083 0.45,-0.175 0.668,-0.276 l 2.575,1.344 c 0.349,0.182 0.773,0.143 1.083,-0.102 0.732,-0.579 1.398,-1.245 1.979,-1.979 0.245,-0.31 0.285,-0.733 0.103,-1.083 L 51.17,17.776 c 0.101,-0.218 0.193,-0.441 0.276,-0.668 z m -3.86,-0.884 c -0.316,0.1 -0.562,0.349 -0.658,0.667 -0.136,0.452 -0.316,0.887 -0.534,1.294 -0.157,0.292 -0.16,0.643 -0.006,0.936 l 1.269,2.432 c -0.237,0.263 -0.488,0.514 -0.75,0.75 l -2.432,-1.269 c -0.294,-0.154 -0.645,-0.15 -0.936,0.006 -0.407,0.218 -0.842,0.398 -1.294,0.534 -0.317,0.095 -0.567,0.342 -0.667,0.658 l -0.824,2.624 c -0.365,0.022 -0.688,0.022 -1.054,0 L 41.649,21.359 C 41.549,21.043 41.3,20.797 40.982,20.701 40.529,20.565 40.094,20.385 39.689,20.167 39.397,20.01 39.046,20.007 38.752,20.161 L 36.32,21.43 c -0.263,-0.237 -0.514,-0.488 -0.75,-0.75 l 1.269,-2.432 C 36.992,17.955 36.99,17.603 36.833,17.312 36.615,16.905 36.435,16.47 36.299,16.018 36.204,15.701 35.957,15.451 35.641,15.351 L 33.017,14.527 C 33.005,14.344 33,14.169 33,14 c 0,-0.169 0.005,-0.344 0.017,-0.527 l 2.624,-0.824 c 0.316,-0.1 0.562,-0.349 0.658,-0.667 0.136,-0.453 0.316,-0.888 0.534,-1.293 0.157,-0.292 0.16,-0.643 0.006,-0.937 L 35.57,7.32 c 0.237,-0.263 0.488,-0.514 0.75,-0.75 l 2.432,1.269 c 0.293,0.153 0.645,0.15 0.936,-0.006 0.407,-0.218 0.842,-0.398 1.294,-0.534 0.317,-0.095 0.567,-0.342 0.667,-0.658 l 0.824,-2.624 c 0.365,-0.022 0.688,-0.022 1.054,0 l 0.824,2.624 c 0.1,0.316 0.349,0.562 0.667,0.658 0.453,0.136 0.888,0.316 1.293,0.534 0.292,0.157 0.643,0.16 0.937,0.006 L 49.68,6.57 c 0.263,0.237 0.514,0.488 0.75,0.75 l -1.269,2.432 c -0.153,0.293 -0.151,0.645 0.006,0.936 0.218,0.407 0.398,0.842 0.534,1.294 0.095,0.317 0.342,0.567 0.658,0.667 l 2.624,0.824 C 52.995,13.656 53,13.831 53,14 c 0,0.169 -0.005,0.344 -0.017,0.527 z"
           id="path1090" />
        <path
           style="fill:#dedede;fill-opacity:1"
           inkscape:connector-curvature="0"
           d="m 61.262,34.964 -1.718,-0.61 c -0.098,-0.279 -0.21,-0.552 -0.337,-0.817 l 0.781,-1.645 c 0.163,-0.342 0.118,-0.746 -0.116,-1.044 -0.5,-0.639 -1.078,-1.218 -1.719,-1.72 -0.299,-0.234 -0.705,-0.278 -1.045,-0.116 l -1.646,0.781 c -0.264,-0.126 -0.537,-0.239 -0.816,-0.336 l -0.611,-1.718 c -0.127,-0.357 -0.446,-0.612 -0.822,-0.658 -0.891,-0.107 -1.536,-0.107 -2.427,0 -0.376,0.045 -0.695,0.3 -0.822,0.658 l -0.61,1.718 c -0.279,0.098 -0.552,0.21 -0.817,0.337 l -1.645,-0.781 c -0.34,-0.162 -0.745,-0.117 -1.044,0.116 -0.639,0.5 -1.218,1.078 -1.72,1.719 -0.233,0.298 -0.278,0.703 -0.116,1.045 l 0.781,1.646 c -0.126,0.264 -0.239,0.537 -0.336,0.816 l -1.718,0.611 c -0.357,0.127 -0.612,0.446 -0.658,0.822 C 42.026,36.231 42,36.628 42,37 c 0,0.372 0.026,0.768 0.08,1.213 0.045,0.376 0.3,0.695 0.658,0.822 l 1.718,0.61 c 0.098,0.279 0.21,0.552 0.337,0.817 l -0.781,1.645 c -0.163,0.342 -0.118,0.746 0.116,1.044 0.5,0.639 1.078,1.218 1.719,1.72 0.298,0.233 0.704,0.278 1.045,0.116 l 1.646,-0.781 c 0.264,0.126 0.537,0.239 0.816,0.336 l 0.611,1.718 c 0.127,0.357 0.446,0.612 0.822,0.658 C 51.232,46.974 51.628,47 52,47 c 0.372,0 0.768,-0.026 1.213,-0.08 0.376,-0.045 0.695,-0.3 0.822,-0.658 l 0.61,-1.718 c 0.279,-0.098 0.552,-0.21 0.817,-0.337 l 1.645,0.781 c 0.341,0.163 0.747,0.119 1.044,-0.116 0.639,-0.5 1.218,-1.078 1.72,-1.719 0.233,-0.298 0.278,-0.703 0.116,-1.045 l -0.781,-1.646 c 0.126,-0.264 0.239,-0.537 0.336,-0.816 l 1.718,-0.611 c 0.357,-0.127 0.612,-0.446 0.658,-0.822 C 61.974,37.768 62,37.372 62,37 62,36.628 61.974,36.232 61.92,35.787 61.875,35.41 61.62,35.092 61.262,34.964 Z m -1.272,2.401 -1.585,0.563 c -0.307,0.109 -0.542,0.361 -0.629,0.675 -0.131,0.475 -0.318,0.928 -0.555,1.347 -0.16,0.283 -0.172,0.627 -0.033,0.921 l 0.718,1.513 c -0.166,0.182 -0.34,0.356 -0.521,0.521 l -1.513,-0.718 c -0.292,-0.139 -0.637,-0.127 -0.921,0.033 -0.42,0.238 -0.873,0.424 -1.346,0.555 -0.314,0.087 -0.566,0.322 -0.676,0.629 l -0.563,1.585 c -0.242,0.013 -0.488,0.013 -0.73,0 L 51.073,43.404 C 50.964,43.097 50.712,42.862 50.398,42.775 49.923,42.644 49.47,42.457 49.051,42.22 48.768,42.061 48.425,42.049 48.13,42.187 l -1.513,0.718 c -0.182,-0.166 -0.356,-0.34 -0.521,-0.521 l 0.718,-1.513 c 0.14,-0.294 0.127,-0.638 -0.033,-0.921 -0.238,-0.42 -0.424,-0.873 -0.555,-1.346 -0.087,-0.314 -0.322,-0.566 -0.629,-0.676 L 44.012,37.365 C 44.004,37.244 44,37.123 44,37 c 0,-0.123 0.004,-0.245 0.01,-0.365 l 1.585,-0.564 c 0.307,-0.109 0.542,-0.361 0.628,-0.675 0.132,-0.476 0.319,-0.928 0.556,-1.347 0.16,-0.283 0.172,-0.627 0.033,-0.921 l -0.718,-1.513 c 0.166,-0.182 0.34,-0.356 0.521,-0.521 l 1.513,0.718 c 0.294,0.14 0.638,0.128 0.921,-0.033 0.42,-0.238 0.873,-0.424 1.346,-0.555 0.314,-0.087 0.566,-0.322 0.676,-0.629 l 0.563,-1.585 c 0.242,-0.013 0.488,-0.013 0.73,0 l 0.563,1.585 c 0.109,0.307 0.361,0.542 0.675,0.629 0.475,0.131 0.928,0.318 1.347,0.555 0.284,0.161 0.627,0.173 0.921,0.033 l 1.513,-0.718 c 0.182,0.166 0.356,0.34 0.521,0.521 l -0.718,1.513 c -0.14,0.294 -0.127,0.638 0.033,0.921 0.238,0.42 0.424,0.873 0.555,1.346 0.087,0.314 0.322,0.566 0.629,0.676 l 1.585,0.563 C 59.996,36.756 60,36.877 60,37 c 0,0.123 -0.004,0.244 -0.01,0.365 z"
           id="path1092" />
        <path
           style="fill:#dedede;fill-opacity:1"
           inkscape:connector-curvature="0"
           d="m 22,53 c 6.065,0 11,-4.935 11,-11 0,-6.065 -4.935,-11 -11,-11 -6.065,0 -11,4.935 -11,11 0,6.065 4.935,11 11,11 z m 0,-20 c 4.962,0 9,4.038 9,9 0,4.962 -4.038,9 -9,9 -4.962,0 -9,-4.038 -9,-9 0,-4.962 4.038,-9 9,-9 z"
           id="path1094" />
        <path
           style="fill:#dedede;fill-opacity:1"
           inkscape:connector-curvature="0"
           d="M 2.022,25.359 3.558,26.64 C 8.137,21.149 14.858,18 22,18 c 0.509,0 1.017,0.029 1.525,0.061 l -1.232,1.232 1.414,1.414 3,-3 c 0.391,-0.391 0.391,-1.023 0,-1.414 l -3,-3 -1.414,1.414 1.359,1.359 C 23.102,16.031 22.551,16 22,16 14.264,16 6.982,19.411 2.022,25.359 Z"
           id="path1096" />
        <path
           style="fill:#dedede;fill-opacity:1"
           inkscape:connector-curvature="0"
           d="m 43,9 c -2.757,0 -5,2.243 -5,5 0,2.757 2.243,5 5,5 2.757,0 5,-2.243 5,-5 0,-2.757 -2.243,-5 -5,-5 z m 0,8 c -1.654,0 -3,-1.346 -3,-3 0,-1.654 1.346,-3 3,-3 1.654,0 3,1.346 3,3 0,1.654 -1.346,3 -3,3 z"
           id="path1098" />
        <path
           style="fill:#dedede;fill-opacity:1"
           inkscape:connector-curvature="0"
           d="m 52,33 c -2.206,0 -4,1.794 -4,4 0,2.206 1.794,4 4,4 2.206,0 4,-1.794 4,-4 0,-2.206 -1.794,-4 -4,-4 z m 0,6 c -1.103,0 -2,-0.897 -2,-2 0,-1.103 0.897,-2 2,-2 1.103,0 2,0.897 2,2 0,1.103 -0.897,2 -2,2 z"
           id="path1100" />
        <path
           style="fill:#dedede;fill-opacity:1"
           inkscape:connector-curvature="0"
           d="m 61.196,5.02 -5,-1 C 55.652,3.91 55.127,4.263 55.019,4.804 l -1,5 1.961,0.393 0.539,-2.692 C 57.488,9.521 58,11.743 58,14 c 0,3.448 -1.138,6.69 -3.29,9.375 l 1.561,1.251 C 58.676,21.625 60,17.852 60,14 60,11.381 59.395,8.799 58.244,6.469 l 2.56,0.512 z"
           id="path1102" />
      </g>
    </g>
    <g
       style="mix-blend-mode:normal"
       inkscape:label="threat"
       id="layer7"
       inkscape:groupmode="layer">
      <g
         style="fill:#dedede;fill-opacity:1"
         transform="matrix(0.01082133,-0.00408327,0.00408327,0.01082133,80.978816,107.55804)"
         id="XMLID_854_">
        <g
           style="fill:#dedede;fill-opacity:1"
           id="XMLID_841_">
          <path
             style="fill:#dedede;fill-opacity:1"
             inkscape:connector-curvature="0"
             d="m 279.505,64.531 c -0.111,-0.102 0.106,0.106 0,0 z"
             id="XMLID_842_" />
          <path
             style="fill:#dedede;fill-opacity:1"
             inkscape:connector-curvature="0"
             d="m 293.349,50.102 c 0.064,0.058 -0.071,-0.071 0,0 z"
             id="XMLID_843_" />
          <path
             style="fill:#dedede;fill-opacity:1"
             inkscape:connector-curvature="0"
             d="M 463.985,51.197 419.866,37.395 415.677,8.561 C 415.129,4.794 412.49,1.666 408.87,0.489 405.252,-0.686 401.276,0.294 398.619,3.019 L 378.71,23.444 337.102,5.331 c -4.032,-1.755 -8.74,-0.671 -11.596,2.676 -2.856,3.345 -3.191,8.164 -0.825,11.872 l 22.772,35.689 C 331.841,66.651 307.885,64.593 293.348,50.102 279.204,36.227 258.633,32.132 239.979,39.859 219.945,48.157 207,67.35 207,88.757 V 112 h -5.378 c -19.504,0 -35.371,15.867 -35.371,35.371 V 167.47 C 93.868,189.307 41,256.59 41,336 c 0,97.047 78.953,176 176,176 97.047,0 176,-78.953 176,-176 0,-30.277 -7.818,-60.14 -22.61,-86.359 -2.715,-4.812 -8.816,-6.509 -13.623,-3.797 -4.81,2.714 -6.51,8.813 -3.797,13.623 C 366.074,282.694 373,309.159 373,336 373,422.019 303.019,492 217,492 130.981,492 61,422.018 61,336 c 0,-86.018 69.981,-156 156,-156 26.925,0 53.463,6.968 76.744,20.149 4.806,2.719 10.907,1.031 13.629,-3.775 2.721,-4.806 1.031,-10.907 -3.775,-13.629 -11.156,-6.317 -22.978,-11.355 -35.207,-15.078 V 147.371 C 268.391,127.867 252.524,112 233.02,112 H 227 V 88.757 c 0,-13.288 8.099,-25.229 20.633,-30.42 11.366,-4.708 23.419,-2.259 31.872,6.194 11.203,11.028 26.876,17.736 42.89,18.215 3.305,0.099 6.555,-0.06 9.735,-0.452 l -8.879,10.884 c -2.742,3.361 -3.004,8.108 -0.648,11.751 2.355,3.643 6.794,5.353 10.982,4.23 l 43.12,-11.534 31.973,48.004 c 1.896,2.846 5.052,4.458 8.325,4.458 1.118,0 2.25,-0.189 3.35,-0.579 4.32,-1.537 7.042,-5.815 6.603,-10.38 l -5.348,-55.587 42.379,-13.257 c 4.174,-1.306 7.015,-5.171 7.015,-9.544 -0.002,-4.372 -2.843,-8.237 -7.017,-9.543 z M 233.019,132 c 8.476,0 15.371,6.896 15.371,15.371 v 15.468 C 238.068,160.973 227.562,160 217,160 c -10.487,0 -20.761,0.926 -30.749,2.693 v -15.322 c 0,-8.476 6.895,-15.371 15.371,-15.371 z m 174.87,-65.123 c -4.515,1.412 -7.422,5.794 -6.969,10.502 l 2.309,23.993 -13.856,-20.804 c -1.886,-2.83 -5.034,-4.458 -8.323,-4.458 -0.858,0 -1.727,0.111 -2.584,0.341 l -20.157,5.392 12.058,-14.78 c 2.728,-3.345 3.003,-8.061 0.681,-11.7 l -11.874,-18.61 17.886,7.787 c 3.811,1.659 8.25,0.786 11.152,-2.188 l 10.587,-10.861 2.181,15.01 c 0.554,3.806 3.24,6.957 6.911,8.105 l 19.615,6.137 z"
             id="XMLID_847_" />
        </g>
        <path
           style="fill:#dedede;fill-opacity:1"
           inkscape:connector-curvature="0"
           d="m 250.678,270.08 c -5.522,0 -10,4.478 -10,10 v 6.625 c -7.637,-6.171 -17.05,-9.677 -27.563,-9.677 -25.005,0 -50.868,21.67 -50.868,57.935 0,15.978 5.064,30.942 14.261,42.14 9.328,11.357 22.292,17.871 35.569,17.871 12.275,0 23.348,-5.344 31.836,-14.278 1.706,3.737 4.048,7.169 6.95,10.086 5.855,5.885 13.395,9.126 21.228,9.126 22.883,0 37.379,-15.947 43.314,-30.872 9.295,-23.371 10.969,-43.052 5.428,-63.812 -0.028,-0.104 -0.058,-0.207 -0.089,-0.311 -8.397,-27.823 -27.185,-50.606 -52.902,-64.15 -25.715,-13.542 -55.139,-16.141 -82.853,-7.319 -26.261,8.36 -48.109,26.383 -61.521,50.749 -13.415,24.374 -16.943,52.473 -9.935,79.121 6.07,23.084 19.179,42.998 37.907,57.589 18.033,14.05 40.494,22.134 63.245,22.763 0.094,0.003 0.188,0.004 0.281,0.004 5.395,0 9.841,-4.297 9.991,-9.724 0.152,-5.52 -4.199,-10.12 -9.72,-10.272 -38.641,-1.069 -72.51,-27.981 -82.363,-65.445 -11.867,-45.123 13.688,-91.564 58.18,-105.726 22.571,-7.186 46.531,-5.069 67.467,5.956 20.894,11.004 36.169,29.493 43.029,52.079 4.369,16.498 2.952,31.793 -4.729,51.107 -2.184,5.491 -8.966,18.264 -24.73,18.264 -2.472,0 -4.977,-1.148 -7.051,-3.233 -2.751,-2.764 -4.381,-6.828 -4.361,-10.92 V 280.08 c -10e-4,-5.523 -4.479,-10 -10.001,-10 z m -38.602,104.893 c -16.448,0 -29.83,-17.949 -29.83,-40.011 0,-23.745 15.694,-37.935 30.868,-37.935 15.14,0 26.042,13.291 27.563,32.869 v 9.327 c -1.623,20.087 -13.828,35.75 -28.601,35.75 z"
           id="XMLID_871_" />
        <path
           style="fill:#dedede;fill-opacity:1"
           inkscape:connector-curvature="0"
           d="m 327.399,211.639 c -1.859,1.86 -2.93,4.441 -2.93,7.07 0,2.64 1.07,5.21 2.93,7.07 1.86,1.869 4.44,2.93 7.07,2.93 2.63,0 5.21,-1.061 7.07,-2.93 1.859,-1.86 2.93,-4.441 2.93,-7.07 0,-2.63 -1.07,-5.21 -2.93,-7.07 -1.86,-1.859 -4.44,-2.93 -7.07,-2.93 -2.629,0.001 -5.209,1.071 -7.07,2.93 z"
           id="XMLID_872_" />
      </g>
    </g>
    <g
       style="display:inline"
       transform="translate(76.098697,100.99309)"
       inkscape:label="content"
       id="layer2"
       inkscape:groupmode="layer">
      <text
         id="text7112"
         y="16.523632"
         x="12.936996"
         style="font-style:normal;font-weight:normal;font-size:2.82222000000000017px;line-height:1.25;font-family:sans-serif;letter-spacing:0px;word-spacing:0px;display:inline;fill:#def013;fill-opacity:1;stroke:none;stroke-width:0.264583;"
         xml:space="preserve"><tspan
           id="tspan7114"
           style="font-style:normal;font-variant:normal;font-weight:normal;font-stretch:normal;font-size:3.52777999999999992px;font-family:hind;-inkscape-font-specification:hind;text-align:center;text-anchor:middle;fill:#def013;fill-opacity:1;stroke-width:0.264583;"
           y="16.523632"
           x="12.936996"
           sodipodi:role="line">AUTOMATED</tspan><tspan
           id="tspan1123"
           style="font-style:normal;font-variant:normal;font-weight:normal;font-stretch:normal;font-size:3.52777999999999992px;font-family:hind;-inkscape-font-specification:hind;text-align:center;text-anchor:middle;fill:#def013;fill-opacity:1;stroke-width:0.264583;"
           y="20.933357"
           x="12.936996"
           sodipodi:role="line">THREATS</tspan></text>
    </g>
    <g
       style="display:inline"
       transform="translate(76.098697,100.99309)"
       inkscape:label="gleam"
       id="layer4"
       inkscape:groupmode="layer">
      <path
         inkscape:connector-curvature="0"
         id="path133-3-3"
         d="m 83.291381,102.37078 a 13.383781,13.383781 0 0 0 -0.543637,0.25063 12.8895,12.889499 0 0 0 -6.648689,11.26133 12.8895,12.889499 0 0 0 12.889652,12.88966 12.8895,12.889499 0 0 0 9.406661,-4.10105 13.346037,13.346037 0 0 1 -4.057116,0.64131 13.380636,13.380636 0 0 1 -11.046871,-20.94188 z"
         style="display:inline;opacity:0.15;fill:#ffffff;stroke-width:0.314542"
         transform="translate(-76.098696,-100.99309)" />
    </g>
  </g>
  <g
     style="display:inline"
     inkscape:label="edge"
     id="layer3"
     inkscape:groupmode="layer">
    <ellipse
       ry="12.888245"
       rx="12.888499"
       cy="12.885541"
       cx="12.888689"
       id="path1859"
       style="opacity:1;vector-effect:none;fill:none;fill-opacity:1;stroke:#000000;stroke-width:0.00300114;stroke-linecap:butt;stroke-linejoin:miter;stroke-miterlimit:4;stroke-dasharray:none;stroke-dashoffset:0;stroke-opacity:1" />
  </g>
  <g
     style="display:none"
     inkscape:label="contentscope"
     id="layer6"
     inkscape:groupmode="layer">
    <ellipse
       ry="10.409657"
       rx="10.409864"
       cy="12.893641"
       cx="12.825768"
       id="path1859-3"
       style="display:inline;opacity:1;vector-effect:none;fill:none;fill-opacity:1;stroke:#ff0000;stroke-width:0.102;stroke-linecap:butt;stroke-linejoin:miter;stroke-miterlimit:4;stroke-dasharray:none;stroke-dashoffset:0;stroke-opacity:1" />
  </g>
</svg>
