<?xml version="1.0" encoding="UTF-8" standalone="no"?>
<svg
   xmlns:dc="http://purl.org/dc/elements/1.1/"
   xmlns:cc="http://creativecommons.org/ns#"
   xmlns:rdf="http://www.w3.org/1999/02/22-rdf-syntax-ns#"
   xmlns:svg="http://www.w3.org/2000/svg"
   xmlns="http://www.w3.org/2000/svg"
   xmlns:sodipodi="http://sodipodi.sourceforge.net/DTD/sodipodi-0.dtd"
   xmlns:inkscape="http://www.inkscape.org/namespaces/inkscape"
   viewBox="0 0 85.89 83.5"
   version="1.1"
   id="svg107"
   sodipodi:docname="broken_authentification.svg"
   inkscape:version="0.92.2 (5c3e80d, 2017-08-06)">
  <metadata
     id="metadata111">
    <rdf:RDF>
      <cc:Work
         rdf:about="">
        <dc:format>image/svg+xml</dc:format>
        <dc:type
           rdf:resource="http://purl.org/dc/dcmitype/StillImage" />
      </cc:Work>
    </rdf:RDF>
  </metadata>
  <sodipodi:namedview
     pagecolor="#ffffff"
     bordercolor="#666666"
     borderopacity="1"
     objecttolerance="10"
     gridtolerance="10"
     guidetolerance="10"
     inkscape:pageopacity="0"
     inkscape:pageshadow="2"
     inkscape:window-width="3373"
     inkscape:window-height="1385"
     id="namedview109"
     showgrid="false"
     inkscape:zoom="11.305389"
     inkscape:cx="42.945"
     inkscape:cy="34.673729"
     inkscape:window-x="1987"
     inkscape:window-y="27"
     inkscape:window-maximized="1"
     inkscape:current-layer="layer1" />
  <defs
     id="defs7">
    <style
       id="style2">.cls-1{fill:none;}.cls-2{clip-path:url(#clip-path);}.cls-3{fill:#f9b233;stroke:#f9b233;stroke-miterlimit:10;stroke-width:10px;}.cls-4{fill:#d59a2c;}.cls-5,.cls-8{fill:#fff;}.cls-6{font-size:14.07px;}.cls-6,.cls-7{fill:#1d1d1b;font-family:Hind-SemiBold, Hind;font-weight:700;}.cls-7{font-size:6px;letter-spacing:-0.02em;}.cls-8{opacity:0.07;}</style>
    <clipPath
       id="clip-path"
       transform="translate(0 -0.11)">
      <circle
         class="cls-1"
         cx="42.76"
         cy="41.1"
         r="41.1"
         id="circle4" />
    </clipPath>
  </defs>
  <title
     id="title9">Element 271</title>
  <g
     inkscape:groupmode="layer"
     id="layer1"
     inkscape:label="background">
    <circle
       style="fill:#f9b233;stroke:#f9b233;stroke-width:10px;stroke-miterlimit:10"
       id="circle11"
       r="36.150002"
       cy="41.52"
       cx="42.990002"
       class="cls-3" />
    <path
       style="opacity:0.31;fill:#ffffff"
       inkscape:connector-curvature="0"
       id="path1082"
       d="m 62.79255,68.855029 a 42.43,42.43 0 0 1 -34.999999,-66.4 42.44,42.44 0 1 0 50.829999,63.34 42.34,42.34 0 0 1 -15.83,3.06 z"
       class="cls-9" />
  </g>
  <g
     inkscape:groupmode="layer"
     id="layer2"
     inkscape:label="all">
    <path
       style="fill:#d59a2c"
       inkscape:connector-curvature="0"
       id="path13"
       d="m 61.63,22.67 a 21,21 0 0 1 1.78,2 8.82,8.82 0 0 1 3.59,-1.41 c 2.08,0.9 4.07,1.87 4.06,2.08 -0.01,0.21 -3.06,-1.09 -4.18,-1.38 a 8.48,8.48 0 0 0 -3,1.19 c -0.1,0.29 0,0.39 0,0.39 a 9.09,9.09 0 0 1 1.39,0.6 c 0.19,0.39 0.39,1.58 0.1,1.88 -0.1,0.1 -0.06,0.14 -0.4,0.2 -0.34,0.06 -1.45,1.76 -2.52,2.82 -1.07,1.06 -4.91,0.25 -4.91,0.25 0,0 0.23,2.23 0.3,4.45 0.39,0.71 0.89,0.9 2.28,1.49 2.47,0.3 4.86,-0.06 4.95,0.2 0.09,0.26 -4.82,0.58 -5.25,0.49 -0.43,-0.09 -1.49,-0.49 -2.58,-0.79 A 10.43,10.43 0 0 0 59.52,40 c 2,0.6 4,1.19 4,1.39 A 32.45,32.45 0 0 1 59.17,40.8 24.46,24.46 0 0 1 56.88,39.06 c 0.26,0.77 0.46,2.29 1,2.83 1.33,1.33 3.07,2.67 2.92,2.8 A 34.29,34.29 0 0 1 57,42.21 C 56.29,40.67 55.23,37.99 55.23,37.99 H 54.2 A 171.51,171.51 0 0 1 58,78.63 C 53.72,76.5 43.27,60.71 50.48,50.56 c 1.21,-1.71 1.34,-12.3 1.34,-12.3 a 8.3,8.3 0 0 1 -2.34,-1 3.06,3.06 0 0 1 -0.69,0.1 C 53.3,47.75 21.52,62.79 21.52,62.79 21.52,62.79 36.55,31 47,35.55 a 3.06,3.06 0 0 1 0.1,-0.7 8.3,8.3 0 0 1 -1,-2.34 c 0,0 -10.65,0.13 -12.35,1.38 C 23.59,41.06 7.81,30.61 5.67,26.33 a 171.51,171.51 0 0 1 40.64,3.77 v -1.06 c 0,0 -2.68,-1.07 -4.22,-1.78 a 36.73,36.73 0 0 1 -2.48,-3.74 c 0.13,-0.16 1.47,1.58 2.81,2.91 0.53,0.54 2,0.75 2.82,1 a 23.84,23.84 0 0 1 -1.73,-2.28 32.62,32.62 0 0 1 -0.6,-4.36 c 0.2,0 0.79,2 1.39,4 a 10.24,10.24 0 0 0 2.87,2.28 c -0.3,-1.09 -0.69,-2.08 -0.79,-2.58 -0.1,-0.5 0.23,-5.33 0.49,-5.25 0.26,0.08 -0.1,2.48 0.2,5 0.6,1.38 0.78,1.88 1.49,2.27 2.22,0.07 4.45,0.3 4.45,0.3 0,0 -0.82,-3.84 0.25,-4.91 1.07,-1.07 2.77,-2.18 2.82,-2.52 0.05,-0.34 0.1,-0.3 0.2,-0.39 0.3,-0.3 1.49,-0.1 1.89,0.09 a 9.77,9.77 0 0 1 0.59,1.39 c 0,0 0.1,0.1 0.4,0 a 8.45,8.45 0 0 0 1.18,-3 c -0.29,-1.09 -1.6,-4.15 -1.38,-4.16 0.22,-0.01 1.19,2 2.08,4.06 a 8.82,8.82 0 0 1 -1.39,3.52 21,21 0 0 1 1.98,1.78 z"
       class="cls-4" />
    <path
       style="fill:#ffffff"
       inkscape:connector-curvature="0"
       id="path15"
       d="m 22.81,53.68 c -1.11,-1.64 -1.92,-0.55 -1.87,-0.27 0.05,0.28 1.23,0.42 1.44,0.51 0.21,0.09 0.43,-0.24 0.43,-0.24 z"
       class="cls-5" />
    <path
       style="fill:#ffffff"
       inkscape:connector-curvature="0"
       id="path17"
       d="m 18.91,49.46 c 0.22,0.08 2.09,0.64 2.73,0.9 a 4.26,4.26 0 0 1 1.9,1 c 0.25,0.19 0.73,-0.07 0.86,-0.18 0.13,-0.11 -2.32,-1.71 -2.82,-1.81 -0.5,-0.1 -0.88,-1 -1.23,-1.24 a 16.9,16.9 0 0 0 -2.68,-1.62 c -0.45,-0.1 -0.29,0.42 -0.22,0.74 0.07,0.32 2.61,1.3 2.78,1.7 0.17,0.4 -1.08,-0.48 -1.52,-0.53 -0.44,-0.05 -0.73,-0.34 -1.11,0.29 -0.38,0.63 1.1,0.66 1.31,0.75 z"
       class="cls-5" />
    <path
       style="fill:#ffffff"
       inkscape:connector-curvature="0"
       id="path19"
       d="m 24.64,56.19 c 0.2,-0.08 0.3,-0.54 0.45,-0.6 0.15,-0.06 2.44,0.35 2.13,-0.38 l -0.34,-0.38 c 0,0 -1.79,-0.48 -2.24,-0.58 -0.65,-0.14 -2.82,0.21 -2.36,0.82 a 4.26,4.26 0 0 0 1.55,0 c 0.4,-0.17 0.44,0.35 0.44,0.35 a 3.07,3.07 0 0 0 -0.83,1.22 c -0.19,0.72 1,-0.37 1.2,-0.45 z"
       class="cls-5" />
    <path
       style="fill:#ffffff"
       inkscape:connector-curvature="0"
       id="path21"
       d="m 21.8,4.79 c 0.32,-0.06 0.65,0 1,-0.07 1.48,-0.13 1,-1.1 1.31,-1.63 0.31,-0.53 1.54,-0.8 2.17,-1.46 0.06,-0.07 0.23,-0.2 0.24,-0.3 0.01,-0.1 -0.29,-0.11 -0.44,-0.12 -0.5,0 -0.53,0.16 -1.46,0.65 -0.32,0.17 -0.68,0.26 -1,0.46 -3.25,2.14 -3.83,1.79 -5.05,4 -0.05,0.09 -0.2,0.48 -0.32,0.51 1.36,-0.25 2.2,-1.79 3.55,-2.04 z"
       class="cls-5" />
    <path
       style="fill:#ffffff"
       inkscape:connector-curvature="0"
       id="path23"
       d="m 11.4,24.23 c 1.27,-0.54 3.33,-2.88 2.36,-2.47 a 3.71,3.71 0 0 0 -1.59,1 c -0.84,0.74 -1.56,1.81 -0.77,1.47 z"
       class="cls-5" />
    <path
       style="fill:#ffffff"
       inkscape:connector-curvature="0"
       id="path25"
       d="m 16.79,45.13 c 0.35,-0.55 -0.06,-1 -0.53,-0.83 -0.47,0.17 -0.13,0.53 -0.07,0.8 0.06,0.27 0.6,0.03 0.6,0.03 z"
       class="cls-5" />
    <path
       style="fill:#ffffff"
       inkscape:connector-curvature="0"
       id="path27"
       d="m 27.1,2.39 c 1.79,-0.76 4.22,-1.66 4,-2.16 -0.22,-0.5 -3.65,0.76 -3.1,0.86 -1.57,0.8 -2.67,1.58 -0.9,1.3 z"
       class="cls-5" />
    <path
       style="fill:#ffffff"
       inkscape:connector-curvature="0"
       id="path29"
       d="m 12.7,29.25 c 0.23,-0.16 0.93,-0.86 0.93,-0.86 1.21,-0.51 3,-3.42 3.54,-4.26 0.68,-1.16 -0.65,0.28 -0.78,0.39 -0.13,0.11 -1.92,2.79 -3.3,3.57 -0.42,0.24 -0.54,0.64 -0.94,0.81 a 2.06,2.06 0 0 0 -1,0.76 c -0.4,0.55 1.21,-0.17 1.55,-0.41 z"
       class="cls-5" />
    <path
       style="fill:#ffffff"
       inkscape:connector-curvature="0"
       id="path31"
       d="m 73.13,53.5 c 0,1.84 0,1.13 -0.58,1.65 -0.73,0.66 -1.23,1.62 -3.83,5.59 -3.3,4.94 -3.48,3.5 -4.63,8.09 -0.07,0.28 -2.62,5.46 -2.62,5.46 l -1.67,4.34 h 1.34 c 0.81,-2.45 -0.19,-0.4 4.45,-10.64 2.78,-4.73 6.5,-10.49 6.47,-10.85 0,-0.18 2,-1.72 2.1,-2 0.1,-0.28 0.54,-1.89 0.66,-2.07 0.12,-0.18 1.55,-1.48 1.55,-1.48 L 76.21,49.42 C 76,48.63 73.57,52.76 73.13,53.5 Z"
       class="cls-5" />
    <path
       style="fill:#ffffff"
       inkscape:connector-curvature="0"
       id="path33"
       d="m 72.9,60.95 0.43,-1.33 1,-0.41 1.42,-3.74 -2.18,1.93 c -2,3.36 -0.72,1.53 -5.9,8.35 -2.68,6.92 -1.51,4.08 -5.15,12.46 L 63.97,77.6 68.5,66.68 Z"
       class="cls-5" />
    <path
       style="fill:#ffffff"
       inkscape:connector-curvature="0"
       id="path35"
       d="m 71.7,51.89 c 0,0 -2,2.91 -2.2,3.11 -0.38,0.45 -4.31,7.86 -5,8.51 0,0 -0.73,0.41 -2.32,1.5 l -0.16,0.06 c -1.06,1.7 -1.1,2.47 -1.63,3.25 -0.12,0.18 -1.27,1.37 -1.42,1.62 -0.15,0.25 -1.09,2.57 -1.09,2.57 l -1.48,2.32 c -0.95,2.34 -0.63,1.15 -1.85,3.79 -0.36,0.79 0.36,0.23 1,-0.15 0.64,-0.38 0.66,-1.75 0.66,-1.75 l 1.09,-1.43 0.7,-0.4 a 49.92,49.92 0 0 1 2.62,-5.14 l 0.64,-0.59 a 22.11,22.11 0 0 1 1.44,-3.55 l 0.75,-0.19 c 0.75,-0.19 -1.75,4.32 -1.75,4.32 -0.77,1.66 -0.27,0.74 -2.91,6 0,0 -1.1,0.59 -1.59,0.93 -0.49,0.34 -0.74,2 -0.74,2 l 0.85,-0.1 c 0.23,-1 0.54,-0.82 0.87,-0.82 0.33,0 0,1 0,1 l 0.91,-0.12 a 10.86,10.86 0 0 0 0.56,-2.61 c 4.5,-8 2.41,-3.67 5.2,-11.27 a 48.55,48.55 0 0 0 4.37,-6.86 c 1,-1.81 2.58,-3.71 2.82,-4.2 2.31,-4.66 4,-6.86 3.13,-7.71 -0.33,-0.38 -3.26,5.54 -3.47,5.91 z"
       class="cls-5" />
    <path
       style="fill:#ffffff"
       inkscape:connector-curvature="0"
       id="path37"
       d="m 72.09,43.41 c -0.17,0.59 -1.52,2.14 -0.72,2.39 1,0.31 1.81,-3 2.14,-3.67 l -0.34,-0.46 c -0.62,0.13 -0.93,1.22 -1.08,1.74 z"
       class="cls-5" />
    <path
       style="fill:#ffffff"
       inkscape:connector-curvature="0"
       id="path39"
       d="m 74.31,61.89 c -4,3.46 -3.25,1.84 -9.19,15.74 l 1.64,-0.84 5.15,-11.46 1.18,-0.93 -4.32,11.49 1.37,-1.15 c 2.39,-4.91 1,-1.32 3.56,-8.8 a 21.14,21.14 0 0 0 0.76,-2.6 l 0.8,-0.48 c 1.91,-5 1.46,-4 2.22,-5.22 l -0.82,-0.23 z"
       class="cls-5" />
    <path
       style="fill:#ffffff"
       inkscape:connector-curvature="0"
       id="path41"
       d="m 26,58.14 c 0.29,0 0.39,-0.87 0.39,-0.87 0.12,-0.29 -0.62,-0.79 -1.08,-0.77 -0.46,0.02 -0.7,0.29 -1.07,0.68 -0.37,0.39 0.66,0.31 0.93,0.25 0.27,-0.06 0.21,0.21 0.19,0.45 -0.02,0.24 0.34,0.26 0.64,0.26 z"
       class="cls-5" />
    <path
       style="fill:#ffffff"
       inkscape:connector-curvature="0"
       id="path43"
       d="m 73.42,71.3 c 0.68,-0.43 3.11,-8.17 3.11,-8.17 -0.85,0.36 -3.79,8.6 -3.11,8.17 z"
       class="cls-5" />
    <path
       style="fill:#ffffff"
       inkscape:connector-curvature="0"
       id="path45"
       d="m 69.9,35.07 c -0.21,0.13 0,0.62 0,0.62 0.24,0.4 -1.35,3.75 -1.63,4.38 a 11.94,11.94 0 0 0 -1,1 c -0.22,0.34 -2.41,5.11 -2.41,5.11 0,0 -3.29,4.91 -4,5.23 -0.53,0.22 -3.53,4 -4.87,5 C 52.85,58.89 53,59.56 50,62.45 a 10.64,10.64 0 0 0 -0.72,1 15,15 0 0 1 -1.94,1.34 12.69,12.69 0 0 0 -1.77,1.94 9.67,9.67 0 0 0 -1.37,1.46 28,28 0 0 0 -3.2,2.7 h -0.49 l -0.51,1.14 0.19,0.36 c 1.18,-0.5 1.15,-0.44 1.41,-1.16 l 0.49,0.23 c 2,-0.79 0.76,-0.5 0.89,-0.6 0.13,-0.1 1.83,-2 2.25,-2.49 0,0 3.23,-3.21 4.9,-5.16 2,-2.37 6.57,-5.62 8.88,-8.64 0.6,-0.78 1.83,-1.61 2.4,-2.24 1.56,-1.76 4.19,-4.85 5.1,-7.09 a 13.6,13.6 0 0 1 2.05,-4.08 C 69.2,40.42 68.81,40.1 70,38.31 a 20,20 0 0 0 0.77,-3 c 0.07,-0.25 0,-0.34 -0.21,-0.48 -0.21,-0.14 -0.45,0.11 -0.66,0.24 z"
       class="cls-5" />
    <path
       style="fill:#ffffff"
       inkscape:connector-curvature="0"
       id="path47"
       d="m 68.27,30.39 c 0,0.14 -0.94,3.47 -1,4.19 -0.06,0.72 -1.27,2.41 -1.18,3.25 0,0.16 -0.63,2.25 -0.63,2.25 0,0 -0.09,1.13 -0.09,1.35 0,0.22 -0.79,1.57 -1,2 -1.8,4.47 -8,10.6 -8.52,10.87 A 15.05,15.05 0 0 0 54.33,56 c -0.18,0.21 -1.89,1.68 -2.1,1.81 -0.21,0.13 -1.65,1.09 -2,1.27 -0.73,0.3 -5,4 -7,5.07 -0.43,0.23 -2.44,1.83 -2.82,2.08 -3.37,2.22 -2.95,1.88 -3.14,2.56 -0.07,0.25 0.46,0.24 0.81,0.14 0.35,-0.1 1.12,-1.09 1.43,-1.31 0.31,-0.22 1,-0.51 2.07,-1.23 5.21,-3.49 8.66,-7.1 8.72,-6.33 a 15.21,15.21 0 0 1 -1.71,1.69 c -0.17,0.14 -1.59,1.72 -2.22,2.14 0,0 -5.07,3.9 -5.46,4.15 -3.46,2.28 -3.47,2.15 -2.58,2.85 0.33,0.26 2.1,-0.75 2.84,-1.29 a 24.55,24.55 0 0 0 2.22,-2 68.72,68.72 0 0 0 6,-5.5 49.05,49.05 0 0 1 3.39,-3.72 c 0.15,-0.07 2.62,-2.12 2.62,-2.12 5.93,-6.2 3.46,-3.82 6.29,-6.58 3.47,-4.73 3.08,-5.42 4.44,-8.21 0.19,-0.39 1.34,-1.32 1.46,-1.55 a 14.39,14.39 0 0 1 0.74,-1.37 c 0.49,-0.64 0.49,-2.13 0.77,-3 0.16,-0.46 0.35,-1.47 0.61,-2.11 0.26,-0.64 0,-0.29 -0.29,-0.36 -0.29,-0.07 -0.34,0.85 -0.34,0.85 0,0.28 -1.77,4.42 -1.86,4.57 a 4.33,4.33 0 0 1 -0.54,1.51 c -0.46,0.59 -0.49,-0.41 -0.42,-0.66 0.07,-0.25 0.37,-0.69 0.46,-1 0.09,-0.31 1,-2.77 1.15,-3.22 0.94,-3.53 1.26,-3 0.9,-5 -0.03,-0.24 -0.37,-0.06 -0.5,0.26 z"
       class="cls-5" />
    <path
       style="fill:#ffffff"
       inkscape:connector-curvature="0"
       id="path49"
       d="m 28,60.11 c 0.75,-0.44 -0.22,-0.38 -0.35,-0.68 -0.13,-0.3 0.26,-0.23 0.58,-0.42 C 28.55,58.82 28,58.58 28,58.58 a 2.21,2.21 0 0 0 -2.47,0.69 c -0.61,0.5 0.59,0.69 1,0.93 0.41,0.24 0.71,0.34 1.47,-0.09 z"
       class="cls-5" />
    <path
       style="fill:#ffffff"
       inkscape:connector-curvature="0"
       id="path51"
       d="M 54,76.81 54.16,76.43 55,75.69 a 9.58,9.58 0 0 1 1.6,-2.41 v -0.39 l 0.59,-1.78 -0.29,0.06 3.49,-4 c 0.9,-2.34 0.5,-1.68 3,-4 l 0.18,-0.46 1,-1.2 c 0,0 1.47,-2.42 1.72,-2.9 0.56,-1.13 2.12,-3.07 2.09,-2.62 l 1.45,-3.36 c 3.16,-3.84 2.14,-2.26 4.48,-6.94 L 74,44.4 l -1.12,1 a 21.83,21.83 0 0 0 -1.55,4 17.32,17.32 0 0 1 -2.69,3 9.35,9.35 0 0 1 -1.14,2.59 c -1.67,3.29 -1,2.2 -3.16,4.79 -2.43,3.7 -4.34,4.58 -7.21,10.11 0,0 -1.24,1.74 -1.38,1.86 -0.14,0.12 -1.22,2.7 -1.36,2.82 a 14.22,14.22 0 0 0 -2.08,3.32 l 1,0.38 A 5,5 0 0 0 54,76.81 Z"
       class="cls-5" />
    <path
       style="fill:#ffffff"
       inkscape:connector-curvature="0"
       id="path53"
       d="M 54.33,68.81 A 12.55,12.55 0 0 0 56,66.65 9.77,9.77 0 0 1 58.58,63 c 1.38,-1 1.49,-2.4 2.46,-3.81 a 16.18,16.18 0 0 1 2,-1.8 c 0.57,-0.59 1.59,-2.27 2.36,-2.29 a 9.2,9.2 0 0 0 -1.62,2.49 c -1.41,2.54 -3,3.25 -3.57,4.92 a 6.13,6.13 0 0 1 -0.22,0.87 c -0.36,0.63 -1.18,0.37 -1.85,0.8 -0.86,0.54 -0.61,1.84 -1.09,2.71 -0.95,1.73 -3.4,4.1 -3.92,5.16 -0.14,0.27 -0.09,0.62 -0.25,0.9 -0.3,0.53 -1.62,1.21 -0.74,1.88 1.36,-0.73 2,-2 3,-3.14 0.69,-0.81 0.67,-1.82 1.33,-2.65 1.06,-1.33 2,-2.66 2.91,-4 0.3,-0.42 0.79,-0.71 1.12,-1.18 0.33,-0.47 0.22,-0.81 0.83,-1 A 0.09,0.09 0 0 1 61.25,62.81 30.8,30.8 0 0 0 64,59.07 c 0.75,-1.36 1.85,-2.57 2.48,-4 a 19.47,19.47 0 0 1 2.89,-4.8 c 0.53,-0.62 0.86,-1.33 1.38,-2 0.52,-0.67 0.89,-1.41 0,-2 -2.42,3 -1.73,2.7 -2.91,4.39 -0.4,0.57 -0.74,1.19 -1.16,1.68 -0.42,0.49 -1.17,1 -1.73,1.54 -3.27,3.16 -3.62,4.61 -4.68,5.84 -1.06,1.23 -2.07,2.17 -2.96,3.17 -0.89,1 -4.06,5.32 -4.6,6 -2.17,2.61 -1.14,3 -3.75,6.22 -0.19,0.23 -0.77,0.61 -0.8,0.9 0,0.55 1,1.35 1.41,1.38 0.24,-0.47 0.15,-1.1 0.35,-1.64 a 12.78,12.78 0 0 1 1.36,-2.12 c 0,0 2.1,-3.65 3.05,-4.82 z"
       class="cls-5" />
    <path
       style="fill:#ffffff"
       inkscape:connector-curvature="0"
       id="path55"
       d="m 45.12,71.27 c 2.31,-2.29 1.74,-2.19 5.87,-7 12,-10.6 1.28,-0.58 10.66,-10 0.21,-0.2 1.5,-2 1.72,-2.12 0.05,0 3.17,-3.39 1.56,-3 a 7.4,7.4 0 0 0 -0.77,0.8 v 0.14 l -1.36,1.67 v 0.18 c -6.92,7.14 -4.66,5.06 -9,8.76 -0.15,0.23 0.12,-0.05 -1.9,1.85 a 55,55 0 0 0 -7.23,7.66 c -2.67,2.68 -2.27,2.22 -1.89,2.81 0.17,0.27 0.52,0 1.41,-0.37 a 1.64,1.64 0 0 0 0.93,-1.38 z"
       class="cls-5" />
    <path
       style="fill:#ffffff"
       inkscape:connector-curvature="0"
       id="path57"
       d="m 67.1,28.89 c 0.05,1.5 -2.84,11.58 -2.61,11 -2,5 -0.82,1.27 -3,6.29 A 12.6,12.6 0 0 1 58,50.44 c -0.46,0.44 -5.17,4.4 -5.47,5 -0.13,0.23 -3,2.5 -3,2.5 -1.32,0.55 -2.13,1.59 -3.4,2.36 -0.25,0.15 -2.1,1.59 -2.36,1.7 0,0 -5.3,3.35 -6.59,4 a 10.92,10.92 0 0 0 -1.9,1 c -0.54,0.4 -1.27,0.54 -0.93,0.83 a 1.17,1.17 0 0 0 1.21,0.37 c 0.45,-0.19 3.17,-1.87 3.4,-2 0.23,-0.13 3.38,-2.31 3.79,-2.58 0.41,-0.27 3.47,-2.21 3.64,-2.33 0.17,-0.12 2.14,-1.7 2.63,-2 a 29,29 0 0 0 5.06,-3.95 c 0,0 6.49,-6.47 7.18,-7.57 0.35,-0.54 1.83,-3 1.83,-3 a 12.33,12.33 0 0 1 0.34,-1.38 c 0.1,-0.17 0.61,-0.52 0.7,-0.73 0.09,-0.21 0.26,-1 0.26,-1 a 21.84,21.84 0 0 0 1,-4.26 30,30 0 0 0 1.61,-4.57 c 2.13,-6.94 0.07,-4.73 0.1,-3.94 z"
       class="cls-5" />
    <path
       style="fill:#ffffff"
       inkscape:connector-curvature="0"
       id="path59"
       d="M 34.43,0.53 C 35.66,-0.58 33,0.25 33.12,1.09 c 0.09,0.4 1.31,-0.56 1.31,-0.56 z"
       class="cls-5" />
    <path
       style="fill:#ffffff"
       inkscape:connector-curvature="0"
       id="path61"
       d="m 39.29,57.68 c 5.17,-1.75 6.9,-2.08 8.66,-3.38 0.49,-0.36 4.86,-3.22 4.86,-3.22 0,0 -0.37,-0.32 -0.6,-0.16 -0.23,0.16 -0.67,0.22 -0.82,0 -0.15,-0.22 1.51,-1.28 1.51,-1.28 a 37.78,37.78 0 0 0 3.72,-3.69 23.83,23.83 0 0 0 1.45,-2.66 20.56,20.56 0 0 1 1.14,-3 c 0.17,-0.42 1,-3.13 1.08,-3.39 0.08,-0.26 0.59,-3.48 0.63,-3.79 0.04,-0.31 0.62,-3 0.67,-3.27 0.43,-3 0.65,-9 0.9,-10.77 0,-0.31 -0.53,-0.42 -0.53,-0.42 -1.15,7 -0.08,6.8 -2.13,17.57 -0.09,0.44 -2.15,7.36 -3.34,8.74 -2.84,3.36 -0.87,1.25 -3.76,3.88 -3.4,4 -2.53,3.35 -5.79,5.44 -5.22,1.93 -3.26,0.3 -7.25,2.71 a 37.6,37.6 0 0 0 -7.23,0.37 c -0.37,0.1 -1.56,0.07 -1.88,0.14 a 6.52,6.52 0 0 0 -1.87,0.86 c -0.18,0.25 0.67,0.59 0.89,0.56 a 9.61,9.61 0 0 0 1.8,-0.47 21.34,21.34 0 0 1 2.81,-0.42 c 0.37,-0.1 1.83,0 2.13,-0.09 a 8,8 0 0 1 1.6,-0.38 l 0.72,0.05 a 28.31,28.31 0 0 1 -5.25,1.17 c 0,0 -2.27,0.6 -2.47,0.69 -0.85,0.35 -2.89,-0.46 -3.39,2.37 -0.23,1.27 1,-0.61 1.36,-0.81 2.46,-1.5 7.92,-1.34 10.38,-3.35 z"
       class="cls-5" />
    <path
       style="fill:#ffffff"
       inkscape:connector-curvature="0"
       id="path63"
       d="m 60.39,17.01 c 0,0.21 -0.91,3.1 -1,3.69 -0.19,4.49 0.51,3 -2,14.7 v 0 a 5.41,5.41 0 0 1 -0.38,1.9 c -0.1,0.63 0.1,1.14 -3.21,5.23 -1.09,1.33 -4.4,5.09 -5.33,5.62 -0.93,0.53 -2.6,1.75 -3.25,2 -0.65,0.25 -1.33,0.74 -1.7,0.84 a 29.94,29.94 0 0 0 -3.42,0.8 4.39,4.39 0 0 0 -0.48,0 3,3 0 0 0 -0.33,0.28 l -1.36,0.38 a 0.58,0.58 0 0 1 -0.32,0.09 c -0.41,0 -0.8,0.46 -1.13,0.24 a 0.93,0.93 0 0 0 -0.35,-0.07 28.82,28.82 0 0 1 -4.79,0.28 2.59,2.59 0 0 0 -0.37,0.07 c -1.09,-0.17 -0.9,0.21 -3.09,-0.21 -0.78,0.1 -0.37,0.11 -2.91,-0.65 a 1.84,1.84 0 0 1 -0.24,0.18 c -0.37,0.79 -0.46,0.28 -1.13,-0.49 -0.48,-0.25 -0.39,-0.2 -2.8,-0.8 -0.34,-0.39 -0.63,0 -0.71,0.48 1.09,0.85 1.65,0 2.91,1.29 0.66,0.48 1,0.77 1.82,0.52 0,0 4,0.44 4.19,0.33 a 7.76,7.76 0 0 1 2.7,-0.14 c 0.33,0.09 0.36,0.31 0.59,0.28 0.23,-0.03 2.15,0.09 2.4,0 0.25,-0.09 -0.14,-0.17 0.79,-0.33 3.68,-0.63 -2,0.56 7.05,-1.64 0.61,-0.25 2,-0.86 2.62,-1.16 1,-0.62 3.61,-2.29 3.61,-2.29 a 30.19,30.19 0 0 0 2.35,-1.94 c 0.11,-0.16 2.3,-2.32 2.46,-2.5 0.16,-0.18 1.74,-2.5 1.86,-2.67 a 5.79,5.79 0 0 0 1.29,-1.87 c 0.22,-0.52 0.75,-1.54 0.78,-1.7 0.37,-1.92 0.23,-0.3 1.23,-6.1 0.16,-0.88 0.11,-1.69 0.22,-1.85 0.11,-0.16 0.55,-3.69 0.65,-3.86 0,0 0.21,-2.82 0.3,-3.35 A 3.6,3.6 0 0 1 60,20.45 c 0,-0.3 1.19,-3.47 1,-3.7 -0.19,-0.23 -0.61,0.26 -0.61,0.26 z"
       class="cls-5" />
    <path
       style="fill:#ffffff"
       inkscape:connector-curvature="0"
       id="path65"
       d="m 72.25,39.82 -0.45,0.4 c -2.31,4.84 -3.25,4 -3.66,7 a 7,7 0 0 0 -2,2.43 c -1.42,2.11 -0.45,0.93 -4.81,5.76 -7.57,9 -5.65,5.1 -9.8,10 l -2.29,2.28 c -1.28,0.77 -2.27,3.35 -2.3,3.53 0,0.37 -1.8,2.9 -1.74,3.22 0.06,0.32 0.53,-0.37 0.53,-0.37 3.59,-4.14 2.49,-2.62 4.84,-6.67 2.83,-3 1,-1.53 3.91,-4.13 0.72,-0.63 0.38,0 0.07,0.8 0,0 -1.36,1.68 -1.66,1.94 -0.3,0.26 -2.89,3.68 -3.11,3.88 0,0 -2.55,4.59 -2.62,4.9 -0.07,0.31 0.58,0.24 0.58,0.24 l 2.33,-3 a 11.37,11.37 0 0 1 0.59,-2.14 c 4,-4.74 1.87,-2.24 3.47,-3.89 0.33,-0.35 1.42,-1.84 1.55,-2 0.13,-0.16 0.75,-2 0.75,-2 a 9,9 0 0 1 2,-1.87 c 1.07,-0.77 2.29,-2.92 4.53,-5.29 3.15,-3.86 3.7,-4.14 3.58,-4.42 a 37.39,37.39 0 0 0 6.07,-10.3 c 0.94,-2.29 -0.36,-0.3 -0.36,-0.3 z"
       class="cls-5" />
    <path
       style="fill:#ffffff"
       inkscape:connector-curvature="0"
       id="path67"
       d="m 17.9,42.58 c 0.13,0.05 0.09,0 0.15,0 z"
       class="cls-5" />
    <path
       style="fill:#ffffff"
       inkscape:connector-curvature="0"
       id="path69"
       d="m 71.15,37.05 -0.18,1 a 16.29,16.29 0 0 1 -2.26,3.65 c -0.76,2.92 -0.2,1.57 -2.6,6.07 0.31,0.74 0.8,-0.13 1.54,-1.41 a 17.8,17.8 0 0 1 3.21,-5.78 l 0.9,-2 0.06,-1.69 a 0.66,0.66 0 0 0 -0.67,0.16 z"
       class="cls-5" />
    <path
       style="fill:#ffffff"
       inkscape:connector-curvature="0"
       id="path71"
       d="m 65,31.33 a 37.75,37.75 0 0 1 -1,3.64 c -0.94,3.11 0.12,1.14 -1.62,4.69 -3.18,5.63 -1.93,3 -3.29,5.75 0,0 -1.37,1.64 -1.48,1.81 -0.11,0.17 -2.61,2.76 -2.87,2.89 -0.26,0.13 -1.63,1.13 -2.45,1.78 -5.66,4.49 -6.35,3.74 -8.8,4.78 -2.66,1.12 -1.71,1 -4,1.58 l -2,0.85 c -0.19,0.08 -2.44,0.68 -2.66,0.69 -0.22,0.01 -3,1 -3.3,1.13 a 22.75,22.75 0 0 0 -2.82,0.93 c -0.25,0.24 -0.35,0.94 0.07,0.8 5.32,-1.71 1.71,-0.28 6.28,-1.81 1,-0.34 1.51,-0.38 2.14,-0.65 0.63,-0.27 2.3,-1.08 2.86,-1.3 L 42.28,58 a 20.16,20.16 0 0 1 3,-1.26 c 0.4,0 2,-0.39 1.51,-0.07 -1.28,0.93 -4.89,1.84 -6.63,2.72 -2.57,1.3 -8.68,3.58 -8.77,3.62 -0.09,0.04 -2.83,0.49 -1.77,0.7 1.06,0.21 1.22,0.28 1.93,0 0.71,-0.28 3.38,-1.16 3.83,-1.35 3.46,-1.47 6.73,-2.59 6.73,-2.59 6.69,-2.88 14.58,-10.83 15.52,-11.59 1.52,-1.22 1.75,-1.6 5.86,-9.65 a 16.8,16.8 0 0 1 -2.17,5.28 c -2.84,5.34 -2,3.2 -3.57,5.07 a 37.38,37.38 0 0 1 -3.34,3.13 c -0.46,0.28 -1.92,1.61 -2.15,1.79 -3.39,2.76 -4.53,3.45 -5.19,4 -0.27,0.2 -2.3,1.32 -2.53,1.51 -1,0.8 -6.56,2.11 -7.46,2.76 a 10.32,10.32 0 0 1 -3.24,1.59 c -0.58,0.13 -2.78,0.73 -2.37,1.17 a 1,1 0 0 0 1.08,0.25 c 2.79,-1.18 0.86,-0.62 4.1,-1.65 0.22,-0.06 7,-3.23 6.33,-2.5 -0.67,0.73 -3.12,1.53 -3.51,1.8 l -3.57,2 a 19,19 0 0 0 -2.45,1.08 c -0.27,0.29 -0.38,0.86 -0.24,1 0.51,0.44 2.46,-0.31 3,-1.08 0.69,-1 0.94,-0.71 2.51,-1.46 0.28,-0.24 4.28,-2.38 4.8,-2.72 0.89,-0.6 1.38,-1.12 1.7,-1.29 0.32,-0.17 1.34,-1.32 1.75,-1.58 a 44.89,44.89 0 0 0 3.9,-2.53 13.67,13.67 0 0 1 1.47,-1.33 c 1.46,-0.8 6.31,-6.15 7.57,-7.16 0.69,-0.56 1.16,-2.16 1.33,-2.37 A 16.08,16.08 0 0 0 62,43.61 29,29 0 0 0 64,39.24 c 0.34,-2.83 0.39,-3.24 0.67,-3.94 0,-0.06 2,-5.89 2.21,-8.41 0.39,-2.35 -0.6,-3.21 -1.88,4.44 z"
       class="cls-5" />
    <path
       style="fill:#ffffff"
       inkscape:connector-curvature="0"
       id="path73"
       d="m 63.49,20.04 c -0.27,-0.24 -0.27,1.17 -0.34,1.55 -0.07,0.38 -0.48,1.08 -0.35,1.67 a 14.87,14.87 0 0 1 -0.56,3.94 30.25,30.25 0 0 0 -0.11,3.62 c -1,5.32 -0.58,4.16 -2,7.77 l -0.46,2.66 c -1.26,2.45 -0.72,1.35 -2.4,4.88 a 9.07,9.07 0 0 1 -1.36,1.34 c -0.35,0.15 -2.08,2.17 -2.31,2.33 -0.23,0.16 -0.11,0.28 0,0.46 0.11,0.18 2,-1.67 2.25,-1.89 0.25,-0.22 2.66,-3 2.82,-3.19 0.16,-0.19 1.47,-3.29 1.47,-3.29 0,0 0.49,-0.5 0.8,-0.75 a 11.24,11.24 0 0 0 0.87,-2.37 c 0.87,-2.12 0.3,-1.25 2.23,-6 0.2,-0.5 0.39,-2.69 0.55,-3.69 0.16,-1 1.12,-3.18 1.24,-4 0.12,-0.82 -0.29,-0.29 -0.75,0 -0.46,0.29 -0.66,2.45 -0.66,2.45 l -0.7,1.41 c -1.84,10.71 -5.1,16.45 -2.07,7 0.92,-2.76 0.62,-1.92 1.44,-7.42 l 0.64,-0.85 A 4.12,4.12 0 0 0 64,26.24 c 0,-0.22 0.94,-2.22 0.84,-2.71 -0.1,-0.49 -0.51,-0.25 -0.74,-0.09 -0.23,0.16 -0.09,2.73 -0.78,3.14 -0.33,0.2 -0.17,-1.92 -0.1,-2.18 1.28,-5.42 0.87,-3.85 0.27,-4.36 z"
       class="cls-5" />
    <path
       style="fill:#ffffff"
       inkscape:connector-curvature="0"
       id="path75"
       d="m 64,22.15 c -0.07,0.26 0.18,0.57 0.24,0.72 0.06,0.15 0.6,-0.25 0.6,-0.25 A 0.91,0.91 0 0 0 64.55,21.51 C 64.15,21.17 64.1,21.89 64,22.15 Z"
       class="cls-5" />
    <path
       style="fill:#ffffff"
       inkscape:connector-curvature="0"
       id="path77"
       d="m 53.62,46.62 c -0.19,0.22 -6,5.73 -6.52,5.93 -0.52,0.2 -3.25,1.49 -3.94,1.67 -0.69,0.18 -6.5,2 -7.69,1.78 -0.69,-0.11 -3.28,0.16 -3.49,0.07 -0.21,-0.09 -6,0 -5.16,0.84 0.43,0.46 0.42,0.7 0.88,0.56 3.85,-1.13 9.79,-0.33 14.66,-2.39 5.48,-1.56 4.24,-1.27 9.2,-5.41 a 30.45,30.45 0 0 0 5.53,-6.51 c 0.26,-0.4 0.75,-2.67 2.13,-6.88 1.67,-7.57 0.7,-3 1.58,-10.41 A 18.8,18.8 0 0 1 61,22.98 c 0.16,-0.19 0.33,-2.55 0.55,-3.29 0.22,-0.74 0.35,-1.67 0.18,-1.78 -0.17,-0.11 -0.44,0.19 -0.55,0.35 -0.11,0.16 -0.63,2.68 -0.63,2.68 v 2.39 a 22.06,22.06 0 0 0 -0.33,3 c 0.06,0.56 -0.54,3 -0.45,3.53 0.09,0.53 -0.77,3.44 -0.69,3.64 a 18.78,18.78 0 0 1 -0.32,2.39 c -1.44,3.78 -1.09,2.9 -1.68,4.35 a 17.48,17.48 0 0 0 -1.76,2.09 c -0.54,1.34 -6.27,7.89 -12.51,10.23 0,0 0.32,0.33 -0.14,0.64 a 10.66,10.66 0 0 1 -2.21,0.88 L 39,54.24 c 0.09,-0.35 0.21,-0.35 2.4,-1.13 0,0 0.09,-0.34 -0.13,-0.3 a 7,7 0 0 0 -1.44,0.2 c -0.68,0.28 -3.77,1.31 -4.21,1.43 -1.07,0.28 -7.39,-0.34 -7.49,0.18 0,0.19 0.08,1 0.42,1 0.34,0 2.86,0 3.06,-0.12 a 19.33,19.33 0 0 1 2.5,-0.18 c 0.59,0 2.62,-0.46 3.18,-0.4 a 14.32,14.32 0 0 0 5.46,-1.09 c 1.9,-0.92 2.2,-1 2.73,-1.32 0.53,-0.32 2.74,-1.69 2.87,-1.81 3.01,-2.64 2.65,-1.81 5.06,-4.57 0.16,-0.19 2.25,-2.6 2.33,-2.81 0.08,-0.21 1.22,-2.39 1.32,-2 0.28,1.03 -2.66,4.4 -3.44,5.3 z"
       class="cls-5" />
    <path
       style="fill:#ffffff"
       inkscape:connector-curvature="0"
       id="path79"
       d="m 34.42,4.58 a 28.2,28.2 0 0 0 -4.48,2.31 6,6 0 0 1 -1.46,0.73 c -0.24,0.11 -1.77,1.22 -1.92,1.29 -0.15,0.07 -1.17,1.5 0.28,0.23 0.62,-0.32 2.07,-0.93 3.15,-1.57 0.45,-0.26 4.75,-2.48 4.76,-2.48 a 33.58,33.58 0 0 0 5.93,-2.75 c 0,0 0.61,-0.37 0.39,-0.74 -0.22,-0.37 -1.54,0.65 -2.39,1 C 35,4.15 39,2.21 34.42,4.58 Z"
       class="cls-5" />
    <path
       style="fill:#ffffff"
       inkscape:connector-curvature="0"
       id="path81"
       d="m 15.91,24.49 a 6.86,6.86 0 0 1 1.79,-1.46 5,5 0 0 0 1.13,-1.36 c 0.53,-0.81 1.11,-0.82 1.64,-1.39 0.82,-0.92 -0.92,-0.25 1.6,-2.44 a 21.35,21.35 0 0 1 1.71,-1.37 18.25,18.25 0 0 1 1.44,-1.73 20.41,20.41 0 0 1 4.88,-2.76 c 0.73,-0.32 4.29,-3.34 5.87,-4 0.2,-0.09 2.14,-1.32 2.39,-1.43 0.25,-0.11 1.72,-0.49 2,-0.6 0.28,-0.11 1.75,-1.26 2,-1.37 a 18.79,18.79 0 0 0 3,-1.58 c 1,-0.73 -1.56,-0.09 -2.25,0.37 -0.69,0.46 -3,1.4 -3.72,1.75 -0.72,0.35 -0.94,0.77 -1.39,1.06 -0.45,0.29 -1.62,1 -2.07,1.35 -0.45,0.35 -1.56,0.89 -3.07,1.76 -2.76,1.6 -2.86,2.27 -6.52,3.8 -0.84,0.36 -1.25,1.06 -1.5,1.17 -0.25,0.11 -1.12,0.12 -1.59,0.26 a 5.74,5.74 0 0 0 -1.88,1.37 4.81,4.81 0 0 1 -1.66,1.47 c -0.23,0.14 -4.71,3.34 -5,3.56 -0.29,0.22 -0.17,0.72 -0.28,0.88 -1.17,1.79 -0.92,1.21 -2.34,2.63 -0.21,0.21 -0.71,0.42 -1.24,0.82 -0.53,0.4 0,0.36 0,0.51 0,0.15 1.27,-0.88 1.57,-1 a 39.32,39.32 0 0 0 3.88,-4 c 0.12,-0.29 0.42,-0.53 1.48,-1.51 a 7.34,7.34 0 0 1 2.55,-1.36 11.92,11.92 0 0 0 1.53,-1.23 c 0.66,-0.52 0.56,-0.77 1.22,-1.28 0.66,-0.51 0.67,0.06 0.67,0.06 -3.82,4.23 -5.58,3.75 -7.12,5.78 a 33.62,33.62 0 0 1 -2.91,3.1 4.71,4.71 0 0 0 -1.26,1.18 c -0.47,0.91 -2.65,1.74 -1.16,1.84 0.24,0 1.51,-1.28 1.87,-1.55 a 17.36,17.36 0 0 0 1.23,-1.4 c 0.2,-0.2 1.4,-1.12 2,-1.81 0.6,-0.69 0.84,-1.06 1.52,-1.81 0.68,-0.75 0.47,-1 1.33,-1.15 1.12,-0.25 -2.45,3.58 -4,4.68 a 4,4 0 0 0 -0.92,1 39.67,39.67 0 0 1 -3,2.86 c -0.9,0.79 -0.46,0.43 -0.51,0.75 -0.05,0.32 3.53,-2.38 5.09,-4.42 z"
       class="cls-5" />
    <path
       style="fill:#ffffff"
       inkscape:connector-curvature="0"
       id="path83"
       d="m 14.18,20.94 c 0.3,-0.24 0.84,-0.77 0.84,-0.77 a 37.06,37.06 0 0 0 6.33,-4.73 c 1.74,-1.88 -0.62,0.43 6.23,-3.87 A 15.08,15.08 0 0 0 30.67,9.89 12,12 0 0 1 33,8.75 12.45,12.45 0 0 0 35.3,7.08 C 35.57,6.89 40.76,3.89 41,3.78 a 5.5,5.5 0 0 0 2,-1.37 c 1.06,-1 -1.26,0.06 -1.71,0.25 -0.45,0.19 -1.14,0.9 -1.7,1.25 C 39.03,4.26 38.94,4.19 38.24,4.6 37.01,5.33 35.71,4.48 35.7,5.26 l 1.17,0.27 c -5.64,3.36 -6,3.46 -6.36,3.69 a 6.14,6.14 0 0 1 -2.23,1.24 c -1.53,0.33 4.8,-3.5 6.59,-4.26 0.4,-0.17 0.12,-0.4 -0.14,-0.47 A 27.19,27.19 0 0 0 31.14,7.37 C 30.76,7.59 29.48,8.72 29,8.89 a 8.16,8.16 0 0 1 -1.55,0.36 c -0.8,0.16 -0.73,0.48 -0.86,0.6 a 9.35,9.35 0 0 0 -0.81,1.4 6.67,6.67 0 0 1 -1.43,1.07 c -2.5,1.63 -2.3,1.15 -2.95,1.07 a 1.47,1.47 0 0 0 -1,0.25 18.84,18.84 0 0 0 -4.63,3.08 3.29,3.29 0 0 1 -2,0.48 3.94,3.94 0 0 0 -2.27,1.13 c -0.19,0.26 0.16,0.94 0.43,1.17 0.27,0.23 0.25,-0.52 0.37,-0.92 0.12,-0.4 0.37,-0.1 0.75,0.1 0.38,0.2 0.35,0.55 0.5,0.49 l 2.73,-1.45 a 33.15,33.15 0 0 0 2.84,-2.44 2,2 0 0 1 1.23,-0.57 c 0.47,-0.14 0.35,0.55 0.35,0.55 -3.11,2.24 -1.24,0.67 -5.39,3.63 -1.22,0.87 -1.07,0.39 -1.31,0.5 -0.24,0.11 -0.35,0.44 -0.56,0.76 -0.44,0.66 -1.88,1.49 -2.32,2.16 -0.44,0.67 2.52,-0.94 3.06,-1.37 z"
       class="cls-5" />
    <path
       style="fill:#ffffff"
       inkscape:connector-curvature="0"
       id="path85"
       d="m 15.22,14.3 c 0.94,-0.36 2.91,-1.64 3.42,-1.89 1.16,-0.6 4.51,-3.13 4.56,-3.16 0.34,-0.24 1,-1 1.33,-1.23 A 14.86,14.86 0 0 1 25.86,7.33 C 29.18,5.57 28.4,5.62 30,4.89 a 10.09,10.09 0 0 0 1.81,-0.81 6.51,6.51 0 0 1 2,-1.27 C 35,2.29 36.44,1.53 36.59,1.47 36.74,1.41 37.81,0.2 36.82,0.58 a 37.29,37.29 0 0 0 -5.62,2.51 16,16 0 0 0 -1.73,1.12 8.92,8.92 0 0 1 -1.35,1 15.29,15.29 0 0 1 -1.77,1.23 23,23 0 0 1 -4.11,1.64 L 21.72,8 c 7.19,-3.75 0.4,0.46 10.81,-6.34 1.54,-2 -7.32,4.67 -5.71,2.3 L 26.49,3.75 a 8.69,8.69 0 0 0 -1.56,0.14 c -0.3,0.12 -1.06,1.38 -1.06,1.38 -0.67,1.27 -2.67,1.25 -4.52,2.62 0,0 -0.06,0.14 -1,0.67 -1.48,0.8 -2.62,0.22 -1.1,2.1 0,0 -0.77,-0.14 -1,0.08 -0.23,0.22 -0.53,0.7 -0.2,0.91 a 2.45,2.45 0 0 0 1.84,-0.08 c 0.36,-0.26 2.18,-1.5 2.8,-2 0.62,-0.5 0.74,-1 1.21,-0.74 -0.22,0.57 0.05,0.37 -0.3,0.69 a 18.54,18.54 0 0 1 -2.06,1.67 9.19,9.19 0 0 0 -1.3,0.68 3.68,3.68 0 0 1 -1.19,0.72 c -0.54,0.18 -0.78,-0.07 -1.6,0.37 -0.82,0.44 -2.09,1.1 -1.39,1.29 0.7,0.19 0.21,0.4 1.16,0.05 z"
       class="cls-5" />
    <path
       style="fill:#ffffff"
       inkscape:connector-curvature="0"
       id="path87"
       d="m 14.36,16.52 c 0.27,-0.05 2.28,-1.14 2.28,-1.14 2.23,-1.49 1.36,-1.41 3.83,-2.44 0.45,-0.19 1,-0.52 1.3,-0.67 a 2.37,2.37 0 0 1 1.07,0 3.05,3.05 0 0 0 1.16,-0.38 4.42,4.42 0 0 0 1.11,-0.71 c 0.41,-0.29 0.19,-0.66 0.3,-0.83 0.11,-0.17 -0.15,-0.76 -0.15,-0.76 a 13.39,13.39 0 0 1 -1.14,0.78 c -0.2,0.08 -0.39,0.87 -1.16,0.72 -0.77,-0.15 0.75,-1.13 1.09,-1.45 a 3.92,3.92 0 0 1 1.22,-0.58 c 1.48,-0.9 4.43,-2.85 4.47,-2.89 0.57,-0.46 8.29,-3.9 9.77,-4.78 1.48,-0.88 -2.23,0.42 -2.95,0.79 l -4.78,2.4 c -0.5,0.21 -1.19,0.79 -1.79,1 -4.06,1.7 -2.39,1.77 -5.75,3.19 -0.15,0.07 -3,2.23 -3.28,2.92 -0.14,0.35 -0.38,0.21 -1.14,0.48 a 12.26,12.26 0 0 0 -2.46,1.72 c -1.5,1.08 -1.68,0.57 -4,1.42 -0.91,0.33 -0.18,0.25 -0.37,0.63 -0.19,0.38 1.1,0.64 1.37,0.58 z"
       class="cls-5" />
    <path
       style="fill:#ffffff"
       inkscape:connector-curvature="0"
       id="path89"
       d="m 52.72,13.32 c -0.7,0.41 -0.53,0.69 -0.23,0.56 0.3,-0.13 2,-1.3 2.78,-1.76 a 5.72,5.72 0 0 0 1,-0.71 c 0.28,-0.18 -0.24,-0.43 -0.24,-0.43 -0.36,0.15 -2.6,1.91 -3.31,2.34 z"
       class="cls-5" />
    <path
       style="fill:#ffffff"
       inkscape:connector-curvature="0"
       id="path91"
       d="m 45.1,10.18 c -0.24,0.14 -2.86,2.17 -3.5,2.44 a 25.29,25.29 0 0 0 -4.9,3.71 c -0.2,0.35 -0.74,1.15 -1.09,1.78 a 14.59,14.59 0 0 0 -1.06,3.31 8.82,8.82 0 0 0 -0.75,2 33.64,33.64 0 0 0 -0.25,4 9.69,9.69 0 0 0 1,4.52 14.73,14.73 0 0 0 2.45,3.38 3.19,3.19 0 0 0 2.5,0.4 c 1.58,-0.67 1.26,-1.75 1.62,-2.62 a 28.49,28.49 0 0 0 -0.03,-3.21 31.45,31.45 0 0 1 0.14,-4.86 c 0.05,-0.2 0.26,-2.09 0.29,-2.24 0.03,-0.15 0.65,-1.68 0.65,-1.68 -0.46,-1.87 -0.58,1.43 -1,0.77 -0.27,-0.42 0.07,-1.08 0.07,-1.08 0.32,-1 0.31,-1 0.72,-1.32 0.47,1.32 0.48,-0.14 0.86,-1.07 0.09,-0.21 1,-1.74 1.07,-1.86 0.07,-0.12 0.67,-0.81 1.87,-2.55 a 31.53,31.53 0 0 1 4.48,-2.91 c 1.23,-1 -0.83,-0.6 -2.46,0.52 a 16.47,16.47 0 0 0 -2.33,1.46 c -1.77,2 -0.89,1.24 -2.12,3.1 -0.16,0.25 -0.65,1.37 -0.8,1.66 -0.15,0.29 -1.21,1.39 -1.37,1.64 a 6,6 0 0 0 -0.67,1.64 c 0,0.31 -0.25,1.6 -0.18,1.75 0.07,0.15 0.53,0.22 0.61,0.31 0.08,0.09 0.17,1 -0.09,1.14 -0.26,0.14 -0.44,-0.43 -0.55,-0.16 a 25.65,25.65 0 0 0 0,4.88 9.86,9.86 0 0 1 0.24,2.76 c -0.12,0.51 -0.07,2.2 -0.72,2.77 a 3.66,3.66 0 0 1 -0.91,0.65 3.39,3.39 0 0 1 -1.14,-0.09 6.7,6.7 0 0 1 -0.8,-0.63 c -0.65,-0.66 -0.59,-0.26 -1,-3.84 0,0 -0.42,-0.7 -0.47,-0.5 -0.05,0.2 0.56,2.57 0.24,2.54 -0.32,-0.03 -0.53,-0.62 -0.53,-0.62 L 35,30.42 l 0.45,-1 a 30.94,30.94 0 0 1 -0.16,-3.53 c 0,-3.86 -0.18,-3.09 0.45,-3.36 0.33,-0.14 0.15,0.95 0,2.88 a 6.75,6.75 0 0 1 0.26,1.1 c 0,1.62 0.12,2.72 0.1,3.13 a 26.69,26.69 0 0 0 1.13,4.34 c 0.29,0.7 1.15,0.67 1.77,0.3 a 3,3 0 0 0 0.77,-1.09 c 0.27,-0.47 0.08,-2 0.19,-2.6 0.11,-0.6 -0.17,-1.92 -0.08,-2.55 0.17,-1.2 -0.3,-2.26 -0.8,-1.48 -0.11,0.16 0.27,1.06 0.3,1.69 0.03,0.63 0,2.47 0,2.86 a 14.48,14.48 0 0 1 -0.17,1.83 c -0.05,0.34 -1,1.87 -1.86,-0.09 -0.12,-0.3 -0.47,-1.39 -0.55,-1.59 -0.08,-0.2 -0.18,-2.91 -0.18,-3.33 0,-1.71 0.42,-1 0.43,-0.53 0.07,3.4 0.22,3.67 0.57,4.28 0.22,0.37 0,-1.41 0,-1.41 0,0 -0.06,-2.79 -0.08,-3 -0.11,-1.47 -0.53,-0.32 0.07,-3.72 l 0.12,-1.4 a 18.58,18.58 0 0 1 0.93,-2.5 32.19,32.19 0 0 1 2.24,-3.59 11.71,11.71 0 0 1 3.1,-3.44 c 0.43,-0.36 0.74,-0.2 0.74,-0.2 a 6.85,6.85 0 0 1 -0.83,0.82 c -0.36,0.27 -1.19,1.21 -1.4,1.41 -0.21,0.2 -0.7,1.12 -0.81,1.28 -0.11,0.16 -0.48,0.38 -0.64,0.57 -0.16,0.19 -0.35,0.56 -0.26,0.76 0.09,0.2 0.33,-0.32 0.58,-0.43 0.42,-0.17 0.55,0.3 -0.11,0.7 a 5.92,5.92 0 0 0 -1.11,1 c -0.37,0.56 -0.83,2.61 -1.23,3.05 a 1.93,1.93 0 0 0 -0.49,0.79 c -0.88,2.17 -0.39,2.44 -0.62,3.25 -0.09,0.34 0.28,1.35 0.19,1.69 -0.09,0.34 0,1.21 -0.05,1.83 -0.13,0.92 0.45,2.56 0.07,3.49 -0.14,0.36 0.2,0.33 0.4,0.25 a 1,1 0 0 0 0.3,-0.95 c -0.08,-0.32 0.12,-3.05 0.14,-3.41 a 17.23,17.23 0 0 0 -0.21,-1.9 c 0,0 -0.17,-2 -0.2,-2.26 a 5.54,5.54 0 0 1 0.45,-1.72 c 0.16,-0.18 0.26,0.36 0.11,0.54 -0.15,0.18 0,2.23 -0.18,2.48 -0.18,0.25 0.14,0.35 0.53,0.3 0.39,-0.05 0.38,-1.33 0.38,-1.33 0,-2.54 -0.21,-1.74 0.48,-4.54 2,-2.89 1.7,-1.5 2.09,-3.53 a 7.48,7.48 0 0 1 0.81,-1.28 8.14,8.14 0 0 1 2.39,-2.65 33.82,33.82 0 0 1 4.15,-2.4 A 21.86,21.86 0 0 0 52,9.54 C 52.14,9.47 52.89,8.75 53,8.64 53.11,8.53 53.54,8.23 53.27,7.88 53,7.53 52.05,8.33 51.82,8.49 51.15,8.95 49.96,9.4 49.62,9.65 a 11.07,11.07 0 0 1 -1.34,0.45 c -3.62,1.54 -3.58,1.49 -5,2.52 a 26.54,26.54 0 0 1 -2.69,2 c -0.26,0.11 -3.38,2.94 -4.19,4.94 -0.12,0.28 -0.34,1.14 -0.34,1.14 -0.2,1.26 -0.15,1.2 -1.18,1.79 0.2,1.83 -0.17,1.5 -0.28,3.23 0,0.24 0,1.81 0,2 a 7.8,7.8 0 0 0 0.21,1.45 c 0,0.32 -0.06,0.65 -0.15,0.61 -0.32,-0.13 -0.58,-0.92 -0.6,-1.11 0,-0.39 0.45,-3.59 0.36,-4.55 a 7.4,7.4 0 0 1 -0.13,-1 c 0,-0.14 0.76,-1.2 0.86,-1.37 0.57,-0.95 0.91,-2.86 1.35,-3.79 a 8.49,8.49 0 0 1 1.91,-2.26 20.88,20.88 0 0 0 2.14,-1.81 60,60 0 0 1 7.85,-4.67 c 0.35,-0.1 1.9,-0.58 2.24,-0.73 0.34,-0.15 1.68,-1 1.3,-1.08 a 2.75,2.75 0 0 0 -1.56,0 c -0.5,0.14 -4.72,2.48 -5.28,2.77 z"
       class="cls-5" />
    <path
       style="fill:#ffffff"
       inkscape:connector-curvature="0"
       id="path93"
       d="M 29.49,39.44 C 29.55,39.33 29.1,38.8 29.1,38.8 c 0,-0.16 -0.79,-0.86 -1.18,-0.73 -0.2,0.07 0.51,0.81 0.62,1.07 a 0.81,0.81 0 0 0 0.95,0.3 z"
       class="cls-5" />
    <path
       style="fill:#ffffff"
       inkscape:connector-curvature="0"
       id="path95"
       d="m 17.66,40.95 c 0,0 2.57,0.8 4.4,1.25 a 4.79,4.79 0 0 1 1.26,0.35 c 0.26,0.18 2.59,1.54 2.91,1.87 a 17.3,17.3 0 0 0 3,1.33 c 2.43,1 7.61,0.93 8.17,1 a 25,25 0 0 0 2.91,-0.59 c 0.27,-0.05 2.37,-0.93 2.37,-0.93 5.81,-3.3 2.57,-1.74 6.08,-3.52 a 4.55,4.55 0 0 0 1.42,-1.48 5.77,5.77 0 0 0 0.63,-1.85 9.9,9.9 0 0 0 0.07,-2.61 c 0.8,-5 0.14,-3.45 0.26,-5.34 0,-6.37 -0.52,-7.48 0.26,-8.67 0.11,-0.16 1.13,-2.88 1.19,-3.15 a 22.46,22.46 0 0 1 1.37,-2.33 5.59,5.59 0 0 1 0.69,-0.67 c -0.42,0.81 -1.07,2.41 -1.07,2.41 -2.47,5.31 -1.74,2.94 -2,9.88 L 52,29.55 c 0,0 0.24,1.95 0.2,2.14 a 25.62,25.62 0 0 1 -0.45,2.54 c -0.17,0.42 -0.4,2.1 -0.47,2.37 -0.07,0.27 -0.08,1.32 -0.13,1.75 a 13.21,13.21 0 0 1 -0.79,2 4.78,4.78 0 0 1 -1.11,1.12 12.52,12.52 0 0 1 -3.89,2.29 21.37,21.37 0 0 0 -2.58,1.68 c -0.21,0.2 -0.19,0.25 0,0.7 0.27,0.63 2.67,-0.7 2.92,-1 0.25,-0.3 0.91,-0.62 1.33,-1 a 16,16 0 0 1 1.55,-1.19 c 1.92,-1.93 2.23,-2.17 2.69,-3.07 0.34,-0.67 1.9,-2.9 2.11,-4.59 0,-0.43 0.17,-1.25 0.17,-1.25 v 0 l 0.12,-0.86 0.46,0.1 c 0,1.8 0,1.29 -0.83,3.87 -1.6,3.48 -1.51,3.53 -3.68,5.31 -3.33,3.3 -2.17,1.66 -3.75,3.21 a 21.33,21.33 0 0 1 -2.28,1 c -2,0.27 -1.35,-0.49 -3,-0.13 0,0.07 -0.33,0.1 -0.6,0.13 -2.46,0.56 -1.35,0.18 -2.92,0.3 -0.68,0.06 -2.82,0.19 -3.07,0.14 -0.08,0 -5.24,-0.46 -6.79,-1.53 -0.66,-0.45 -3.24,-1.62 -3.94,-2.42 -0.46,-0.52 -2.2,-0.81 -3.92,-1.22 v 0 a 21,21 0 0 0 -4,-1 0.71,0.71 0 0 0 -0.11,0.18 c 3,1.44 2.7,1.37 3.41,1.26 11.41,4.63 6.39,3 10.46,4.26 1.43,0.26 0.62,0.34 4,1 0.35,0 0.74,-0.1 1,-0.14 0.44,-0.07 3.66,0 3.87,0 2.82,-0.43 4,-0.66 3.76,-0.53 0.18,0 -0.09,0.58 -1.83,1 l -4.5,0.32 a 22.21,22.21 0 0 1 -2.71,-0.2 c -3,-0.57 1.73,1.32 -9.09,-2.76 0,0 -1,-0.62 -1.23,-0.72 a 6.84,6.84 0 0 0 -0.82,0 L 21.4,44.53 c -0.29,0 -2.77,-1 -2.83,-1.05 a 1.1,1.1 0 0 1 -0.14,0.11 c -0.27,0.11 -1.45,-1 -1.82,-0.33 a 0.4,0.4 0 0 0 0.13,0.15 c 4,1.91 3.85,1.79 4.18,1.64 1.21,0.61 3.41,2 11.51,3.83 1.46,0.06 8.1,-0.36 8.1,-0.36 a 17.45,17.45 0 0 0 1.65,-0.85 12.21,12.21 0 0 0 4.8,-2.39 c 0.36,-0.21 1.8,-1.22 1.8,-1.22 3.6,-3.56 3.18,-3.14 4.15,-4.75 l 0.34,0.39 -1.83,2.18 A 19.12,19.12 0 0 1 50,43.64 56.53,56.53 0 0 1 45.21,47.01 c -1.87,0.79 -2.61,0.57 -3.85,1.45 l -1.15,0.61 c -4.75,0 -1.78,1.13 -10.79,-0.13 -4.88,-2 -1,0.05 -6.3,-2.26 -2.7,-0.18 -1.83,0.47 -4.64,-1.56 A 0.69,0.69 0 0 0 17.66,45 c -0.72,0.3 2.73,2.28 2.84,2.55 a 6.34,6.34 0 0 0 1.2,1 c 0.4,0.27 6.22,1.44 7.26,2.2 0.26,0.19 1.1,0.36 1.16,0.51 0.06,0.15 -1.06,-0.21 -3.36,-0.87 -0.33,-0.09 -2.47,-0.42 -2.75,-0.53 -0.28,-0.11 -0.61,0.08 -0.55,0.23 0.06,0.15 1.05,0.26 1.31,0.45 0.26,0.19 0.2,0.61 0.13,0.88 -0.07,0.27 1.21,0.07 1.21,0.07 a 43.7,43.7 0 0 0 7.59,0.61 28,28 0 0 0 7.11,-1.37 c 0.69,-0.29 0.72,0 1,0 0.28,0 1.43,-0.49 1.63,-0.57 0.2,-0.08 1.47,-1 1.65,-1.11 a 23.83,23.83 0 0 0 6.33,-4.44 c 0.8,-0.71 2.12,-3.07 3,-4 a 18.31,18.31 0 0 0 1.76,-2.51 20.08,20.08 0 0 0 0.82,-2.28 19.46,19.46 0 0 0 0.13,-3.28 20.72,20.72 0 0 1 1.11,-4.46 c 0.23,-0.56 0,-4.14 0.32,-5.06 0.12,-0.41 0.3,-2.36 0.37,-2.74 0.07,-0.38 0.82,-2.23 0.91,-3 0.09,-0.77 0.31,-0.66 0.5,-1.32 0.19,-0.66 -0.57,-0.11 -0.72,-0.05 -0.38,0.16 -1,2.08 -1.08,2.45 a 31.8,31.8 0 0 0 -0.61,8.41 c 0,0.81 -0.62,1.81 -0.52,0.16 0,0 -0.1,-1.77 -0.13,-2 a 15.18,15.18 0 0 1 0.24,-2.75 c 0.2,-0.34 0.58,-4.58 0.61,-4.66 0.94,-2.31 1.33,-2.22 0.5,-2.56 -0.35,-0.14 -0.86,1.35 -1.53,2.35 -0.67,1 -0.55,1.3 -1.07,2 -0.52,0.7 -0.33,3.89 -0.29,4.58 a 71.8,71.8 0 0 1 -0.61,8.12 c 0,1.59 -0.4,5.77 -1.42,7.06 -0.42,0.53 0.07,-1.38 0.21,-1.73 0.14,-0.35 0.4,-1.82 0.52,-2.1 a 16.6,16.6 0 0 0 0.2,-2 c -0.2,-1 -0.24,-1 -0.3,-1 V 31.65 C 54.79,28.92 55,26.56 55,26.56 c 0.07,-0.27 -0.09,-1.32 0,-1.77 a 34.05,34.05 0 0 0 0.11,-4.16 3.59,3.59 0 0 1 0.5,-2 22.81,22.81 0 0 1 1.18,-2.2 c 1.92,-2.26 1.79,-2.09 2.31,-3.27 0,0 -0.57,-0.23 -0.71,-0.17 -0.14,0.06 -3.62,4 -3.66,5.36 -0.04,1.36 -0.68,3.52 -0.54,5.39 a 26.5,26.5 0 0 1 0.23,2.9 c -0.09,0.21 -0.32,2.3 -0.43,2.59 -0.11,0.29 -0.64,2.38 -0.64,2.38 A 9.17,9.17 0 0 1 53,34.33 v 0 c -0.1,0.74 -0.38,2.41 -0.9,2.58 -0.52,0.17 0.27,-2.7 0.27,-2.7 0.3,-2.45 0.16,-2.5 0.88,-4.3 a 10.91,10.91 0 0 0 0.5,-3 c -0.11,-0.54 0.05,-1.83 0,-2.57 -0.14,-1.39 0.43,-1.68 0.13,-4.69 a 4.84,4.84 0 0 0 0.25,-0.8 c 0,-0.32 0.83,-2.06 1.06,-2.62 A 16.9,16.9 0 0 1 57,13.76 c 0.5,-0.62 1.28,-1.42 1.25,-1.64 -0.03,-0.22 -0.69,0.18 -0.87,0.31 -0.18,0.13 -1.09,1 -1.5,1.42 l 0.46,-0.27 -0.15,0.27 c -2.1,1.31 -1.87,0.82 -3.5,2.74 -0.39,0.46 -0.24,0.68 -0.63,1.55 -0.39,0.87 -0.14,-1 -0.14,-1 1.27,-2.68 0.57,-1.53 3.43,-3.68 0.79,-0.59 1.36,-1 0.71,-1.24 -3.86,2.46 -3.92,2.6 -5,5.28 a 14,14 0 0 0 0,1.84 33.3,33.3 0 0 1 -1,3.66 c -0.09,0.34 -0.5,0.62 -0.62,0.74 -0.38,0.33 0.14,6.5 0.14,6.57 0,1 -0.38,1.33 -0.06,2.08 l -0.28,0.58 a 17.84,17.84 0 0 1 -1.22,4.33 3.43,3.43 0 0 1 -0.46,0.72 c -0.34,0.44 -1,1.66 -1.16,1.84 a 17.87,17.87 0 0 0 -1.4,1.42 8.38,8.38 0 0 1 -2.56,1 l 0.32,-0.12 c -8,1.7 -7.37,0.46 -8.42,0.16 a 10.39,10.39 0 0 1 -3.14,-1.43 13.77,13.77 0 0 0 -2.77,-1.14 9.57,9.57 0 0 0 -1.34,-2.08 26.24,26.24 0 0 1 -2.3,-2.1 c -0.22,-0.53 -1.82,-2 -2,-3.33 -0.14,-0.95 -0.62,-1.15 -0.41,-1.59 a 5.48,5.48 0 0 0 0.35,-1 2,2 0 0 0 0,1.06 c 0.74,2.14 0.34,1.83 2.53,4.3 0.16,0.19 1.24,1 1.24,1 2.87,2.59 1.9,0.91 4.18,4.25 a 1,1 0 0 0 0.15,-0.14 c 3.2,1.66 3.35,1.88 5.73,2.27 a 13.31,13.31 0 0 0 2.69,0 c 0.37,-0.09 1,0.12 1.23,0 0.23,-0.12 0.81,-0.46 1.06,-0.56 0.25,-0.1 1,-0.11 1.29,-0.26 a 7.75,7.75 0 0 0 1.19,-0.8 C 48,37.89 47,36.89 48.74,32.19 c 0,0 0.18,-2.36 0.11,-2.92 -0.83,-7.72 0.74,-5.55 0.84,-7.16 0,-0.49 0.3,-1.24 0.41,-1.82 a 11.59,11.59 0 0 0 0.33,-1.31 7.93,7.93 0 0 1 1.18,-4.09 c 0,0 0.14,-0.76 -0.23,-0.55 -0.37,0.21 -0.5,0.22 -0.59,0.55 -0.09,0.33 -0.93,2 -1,2.29 a 4.41,4.41 0 0 1 -0.23,1.68 c -0.3,0.54 -0.93,1.39 -1.15,1.72 a 13,13 0 0 0 -0.51,1.56 3.54,3.54 0 0 0 -0.24,1.1 c -0.23,1.58 -0.87,1.63 -0.7,3.76 0.07,0.85 0.29,3 0.27,3.4 a 15,15 0 0 0 0,2 11.36,11.36 0 0 1 -0.78,4.26 c -0.54,0.84 -1.65,3.22 -4,4.2 -1.2,0.51 -0.79,0.63 -2,0.73 -1.21,0.1 -2,0 -2.71,0.09 A 22.43,22.43 0 0 1 34.04,41.13 33.58,33.58 0 0 1 30,38.35 6.57,6.57 0 0 0 28.68,37.09 7,7 0 0 1 26.76,35.65 C 26.48,35.2 25.69,34.39 25.53,34.01 a 16.55,16.55 0 0 1 -1.07,-3.37 15.21,15.21 0 0 1 -0.28,-1.69 c 0.08,-0.34 0.06,-0.9 0.15,-1.2 a 8.63,8.63 0 0 0 0.57,-2.71 24.17,24.17 0 0 1 2.08,-4.62 12.84,12.84 0 0 1 -1.17,3.47 c -0.09,0.22 -0.55,1.76 -0.69,2.11 a 7.47,7.47 0 0 0 -0.38,2.45 23.29,23.29 0 0 0 0.89,4.32 c 0.68,1.6 4.85,5.1 4.88,5.15 a 17.12,17.12 0 0 0 1.91,1.89 19.79,19.79 0 0 0 1.93,0.82 12.66,12.66 0 0 0 4,0.72 3.52,3.52 0 0 0 0.95,-0.4 c 0.3,-0.13 0.91,0.08 1.23,0.12 a 12,12 0 0 0 2.22,-1 9.81,9.81 0 0 0 1.69,-1.54 c 0.71,-0.72 1.45,-4.23 2.2,-5.63 0.4,-0.76 0.13,-0.85 0,-0.93 a 15.51,15.51 0 0 0 -0.1,-1.8 c -0.58,-6.89 1.17,-7.88 1.32,-9.77 0.38,-0.63 0.25,-0.72 0,-0.89 a 2,2 0 0 1 0.16,-0.54 c 1.22,-1.08 1,-0.51 1.18,-1.22 0.64,-0.66 0.83,-2.62 1.15,-2.88 1.21,-1 4.5,-3.36 4.63,-3.42 a 0.85,0.85 0 0 0 0.1,-0.33 c 0.11,-0.2 -0.37,-0.22 -0.53,-0.42 v 0 l 0.79,-0.53 c 0,0 0,-0.28 -0.1,-0.36 a 1.65,1.65 0 0 0 -1,0.22 c -0.18,0.12 -1.13,0.75 -1.72,1.17 a 15,15 0 0 1 -1.37,1.13 6,6 0 0 0 -2.58,2.13 c -0.13,0.23 -1,2 -1.31,2.45 -0.31,0.45 -0.68,0.42 -1,1.11 -0.32,0.69 -1.39,2.49 -1.39,2.49 0,0 -0.63,1.3 -0.61,0.7 0,-1.15 0.62,-1.22 2.86,-5.31 a 4.43,4.43 0 0 1 1.61,-2.49 c 0.17,-0.12 2.16,-1.42 2.35,-1.5 0.19,-0.08 2.2,-1.83 2.32,-1.88 0.12,-0.05 0.91,-0.75 0.51,-0.71 a 4.11,4.11 0 0 0 -1.35,0.43 c -0.33,0.19 -3.63,2.61 -3.67,2.64 -3.44,2.77 -3,2.13 -4,4.17 -0.15,0.33 -2,2.93 -2.13,3.39 -0.54,2.76 -0.61,1.87 -0.62,4.1 a 10.08,10.08 0 0 0 -0.32,1.8 c 0.06,0.34 0.06,1.74 0.13,2 a 7.23,7.23 0 0 1 0,1.26 c 0.14,4.66 0,2.46 -0.22,4.29 -0.08,0.67 0.3,0.6 -0.22,1.4 -0.52,0.8 -0.49,1 -1.22,1.38 -0.73,0.38 -0.73,0.63 -1.18,0.63 A 2.32,2.32 0 0 1 37.86,36.44 C 37.5,36.07 35.1,34.5 34.77,33.72 a 5.53,5.53 0 0 1 -1,-1.94 c -0.12,-1.48 -1,-3.82 -0.78,-4.6 0.1,-0.4 0.11,-1.67 0.14,-1.82 A 24.55,24.55 0 0 1 33.69,22 12.89,12.89 0 0 0 34.06,20.72 c 0,-0.33 0.36,-1.06 0.42,-1.35 a 9.84,9.84 0 0 1 0.06,-1.56 c 0.13,-0.24 0.47,-0.61 0.86,-1.18 1.13,-1.66 3,-2.44 6.45,-5 0,0 2.7,-1.63 2.2,-1.65 a 1.51,1.51 0 0 0 -1.08,0.23 c -1.31,0.86 -7.48,5.44 -8.43,6.69 a 16.33,16.33 0 0 1 -1.08,1.27 12.15,12.15 0 0 0 -1.1,1.68 11,11 0 0 0 -1.11,5.49 17.1,17.1 0 0 0 1.35,8.15 6.68,6.68 0 0 0 1.4,2.21 c 0.5,0.65 0.65,1.22 1.44,1.38 0.79,0.16 1.58,0.74 2,0.8 a 6.8,6.8 0 0 0 1.75,0.07 6.83,6.83 0 0 0 3.21,-2 c 0,-0.19 0.39,-1.21 0.4,-1.4 0.26,-3.47 -0.29,-7 0.06,-9.37 a 9,9 0 0 0 0.47,-2.1 12.08,12.08 0 0 1 0.49,-3.32 c 0.81,-2 3.77,-6.56 2.71,-3.95 -0.77,1.9 -0.32,0.67 -1.28,2.21 A 4.7,4.7 0 0 0 44.67,18.9 15.12,15.12 0 0 0 44,20.36 c 0,0.27 -0.33,0.82 -0.23,1.18 a 7.77,7.77 0 0 1 -0.17,3.1 1,1 0 0 1 -0.26,0.56 l 0.15,0.33 v 0 a 4,4 0 0 0 0.28,0.65 c 0.1,0.14 -0.27,0.75 -0.27,1 0,0.25 -0.06,0.7 0.13,0.94 A 2.59,2.59 0 0 1 44,29.2 c 0,0.22 -0.62,0.67 -0.64,1 a 15,15 0 0 0 0.11,2.17 c 0.21,1.11 -0.37,2.06 -0.57,3.67 0,0.33 -0.78,1.14 -2.31,2 -1.53,0.86 -3.72,0.08 -4.32,-0.07 a 7.64,7.64 0 0 1 -1.8,-0.95 3.83,3.83 0 0 1 -1.24,-1.43 42,42 0 0 1 -2,-4.71 c -0.38,-1.13 -0.36,-4.42 -0.47,-5.27 -0.06,-0.47 0.1,-1.58 0.05,-1.92 a 14.83,14.83 0 0 1 0.42,-2.3 c 0,-0.15 0.91,-1.92 1.19,-2.54 A 22.67,22.67 0 0 1 34,16.64 c 0.33,-0.5 0.29,-1 1,-1.48 6.25,-3.76 4.18,-3.48 7.45,-5 1.81,-0.87 2.31,-0.57 5.16,-2.1 C 48.43,7.63 49.06,7.54 50.18,6.97 51.3,6.4 49.23,6.79 47.63,7.46 47.29,7.61 45.95,8.08 45.55,8.3 a 4.24,4.24 0 0 1 -1.38,0.27 c -1.07,0.13 -3.42,1.62 -4.23,2 a 11,11 0 0 1 -1.71,0.45 c -0.28,0.07 -4,2.66 -4.2,2.77 a 9.61,9.61 0 0 0 -1.47,1.44 c -1.76,1.55 -1.63,2.45 -2.5,3.27 -0.87,0.82 -2,5.7 -2.13,6.73 0,0.24 -0.05,2.1 -0.13,2.36 a 16.77,16.77 0 0 0 1.55,6.3 c 0.71,1.14 0.41,-0.85 0.34,-1 -0.07,-0.15 -0.4,-1.68 -0.47,-2 -0.41,-1.55 -0.91,-0.12 -0.72,-5.11 a 2.59,2.59 0 0 1 0.41,-1.17 14.43,14.43 0 0 0 0.49,-2.15 26.09,26.09 0 0 1 1.1,-3.49 c 0.13,-0.44 1.37,-1.84 2.21,-3.2 0.19,-0.3 1.62,-1.63 1.76,-1.83 0.14,-0.2 1.4,-0.86 1.89,-1.2 3.2,-2.24 2.12,-1.77 3,-1.51 0.69,0.2 -3.3,2.27 -4.1,2.91 a 9.41,9.41 0 0 0 -2.18,2 7.69,7.69 0 0 0 -0.86,1.27 c -0.31,0.44 -0.79,0.92 -1,1.22 -0.54,0.86 -1.46,5.85 -1.48,5.91 -0.02,0.06 -0.48,0.79 -0.56,0.92 -0.08,0.13 -0.13,0.77 -0.44,1.54 -0.37,0.93 0.43,2.93 0.82,3.85 0.1,0.23 0.62,2.95 0.7,3.14 0.08,0.19 1.15,1.46 1.26,1.59 0.11,0.13 0.56,0 0.45,-0.1 -0.11,-0.1 -1,-2 -1.21,-2.42 a 35.28,35.28 0 0 1 -1.29,-6.37 c -0.1,-0.77 0,-0.62 0.42,-1 0.42,-0.38 0.25,2 0.3,2.32 0.05,0.32 0.31,1.58 0.36,1.79 0.79,3.92 0.13,1.61 1.42,4.64 0.38,0.91 1,1.15 0.58,1.6 -0.42,0.45 2.33,1.86 3.29,2.54 a 27.36,27.36 0 0 0 2.9,0.77 4,4 0 0 0 1.85,-0.11 c 0.86,-0.23 1,-0.63 1.46,-0.93 0.46,-0.3 0.58,-0.56 1.38,-1.45 a 2.28,2.28 0 0 0 0.74,-1.66 41.87,41.87 0 0 0 0.36,-7.48 9.71,9.71 0 0 0 0.05,-1.37 l 0.53,-0.9 c 0,-0.06 0.42,-1.31 0.22,-1.35 a 1.32,1.32 0 0 0 0,-0.43 c 0,-0.11 0.32,-0.72 0.33,-1 A 19.21,19.21 0 0 1 47,18.38 c 1.25,-1.73 0.73,-0.41 1.64,-2.64 0.11,-0.27 0.65,-1.67 0.95,-1.8 0.3,-0.13 4,-2.64 4.28,-2.8 -3.61,3.51 -4.31,3.09 -4.39,3.85 -0.23,2.06 -1.51,2.53 -1.76,3.34 a 3.16,3.16 0 0 1 -0.2,0.49 c -0.14,0.09 -0.23,0.13 -0.16,0.38 -0.12,0.29 -0.88,2.85 -0.9,2.92 -1.58,6 -0.61,1.91 -1.1,7.12 a 4.47,4.47 0 0 0 0,0.88 3.2,3.2 0 0 0 0.12,2.41 c 0,0.54 -0.11,1.09 -0.14,1.31 -0.05,0.43 -0.44,1.59 -0.41,1.93 a 5,5 0 0 1 -0.53,1.4 8.81,8.81 0 0 1 -1.1,1.4 c -0.32,0.46 -3.24,2.23 -5.58,1 -0.61,-0.33 -2.49,-0.6 -2.88,-0.84 -0.39,-0.24 -2.3,-1.84 -2.91,-2.17 -0.34,-0.18 -2.91,-2 -3.43,-3.24 -0.08,-0.2 -0.41,-2.35 -0.49,-2.55 -0.08,-0.2 -0.4,-1.36 -0.55,-1.71 -0.15,-0.35 -0.07,-2.26 -0.15,-2.58 -0.13,-0.53 0.37,-2 0.68,-4.63 A 22.86,22.86 0 0 1 30,17.64 c 1.66,-2.85 1.73,-2.2 3.39,-3.9 a 23.84,23.84 0 0 1 4.53,-3 c 0.4,-0.17 2.47,-1.11 2.74,-1.28 0.27,-0.17 1.22,-0.87 1.37,-0.93 0.15,-0.06 3.21,-0.77 4,-1.1 0.5,-0.21 1.52,-1 2.07,-1.23 0.55,-0.23 0.44,-0.19 0.22,-0.44 -0.43,-0.49 -4.81,1.76 -5.86,2 A 4,4 0 0 1 41,7.61 c -0.34,-0.1 -0.86,0.18 -1.43,0.37 -2.81,0.89 -3,1.69 -4.22,2.37 -0.75,0.44 -2.44,1.85 -2.69,2 -0.25,0.15 -1.68,1 -1.9,1.18 -0.08,-0.11 -0.17,-0.19 -0.23,-0.17 -0.06,0.02 -3.42,2.73 -3.68,2.84 -0.26,0.11 -1.74,1.57 -2.51,2.31 -0.24,0.18 -0.51,0.38 -0.69,0.54 -0.34,0.29 -0.56,0.68 -0.69,0.73 a 6.06,6.06 0 0 0 -0.64,0.91 c -0.54,0.78 -0.65,1.32 -1.53,1.85 -0.47,0.29 -0.3,-0.37 -0.31,-0.51 -0.01,-0.14 0.86,-1.1 1.37,-1.84 a 6.72,6.72 0 0 1 2.38,-2.62 c 1.54,-1.2 1.09,-1.79 3.81,-3.08 A 32.07,32.07 0 0 0 30.9,12.62 21.6,21.6 0 0 0 35.13,10.01 11.69,11.69 0 0 1 42,7.02 c 4.59,-1.58 1.95,-0.7 5.4,-1.94 1,-0.19 0,-0.57 -0.9,-0.32 -0.5,0.13 -4.28,1.77 -4.19,1.29 a 0.86,0.86 0 0 1 0.47,-0.56 c 2.1,-0.6 5.54,-1.6 3.8,-1.84 a 6.62,6.62 0 0 0 -3.93,1.24 c -3.6,2.61 -3.77,1.74 -5.93,3 -1.31,0.79 -2.85,1.73 -3.51,2.25 a 25.31,25.31 0 0 1 -2.46,1.8 14,14 0 0 0 -3.31,2 14.7,14.7 0 0 0 -2.16,1.68 7.12,7.12 0 0 1 -1.28,1.34 8.93,8.93 0 0 0 -1.66,1.34 19,19 0 0 1 -2.71,3.73 c -3.68,4.5 -2,2.92 -4.28,5.68 -0.29,0.36 -1,0.74 -1.77,1.43 -0.77,0.69 -0.38,0.36 -0.63,1 -0.25,0.64 0.17,0.19 0.46,0.24 A 4.08,4.08 0 0 0 15,30.25 c 0.72,-0.19 0.73,-0.49 1.39,-1 a 16,16 0 0 0 3.49,-4.5 c 0.33,-0.61 0.26,-0.9 0.77,-1.38 0.9,-0.86 -1.2,3 -2.35,4.57 a 19.9,19.9 0 0 1 -1.74,1.85 c -1.16,1.02 -1.56,0.96 -4.36,1.1 -0.55,0 -0.36,-0.43 -0.89,-0.65 -0.53,-0.22 -0.07,1 0,1.23 0.07,0.23 0.4,0.32 0.63,0.38 0.23,0.06 0.76,-0.29 0.9,-0.3 a 11.36,11.36 0 0 0 1.6,-0.18 4.27,4.27 0 0 1 0.9,0.06 1.92,1.92 0 0 0 0.68,-0.14 c 0.23,-0.07 1.82,-0.12 2.13,-0.16 0.31,-0.04 0.35,-0.21 0.37,-0.43 0.16,-1.29 1.83,-4.38 2.55,-6.59 0.25,-0.77 2.15,-3.39 2.23,-3.82 a 1,1 0 0 1 0.66,-0.66 c 0.28,-0.09 -1.06,2.36 -1.14,2.51 a 20.33,20.33 0 0 1 -1.05,2 c -0.32,0.42 -0.43,1 -0.9,1.76 A 7.16,7.16 0 0 0 20.12,28 c -0.1,0.39 -0.78,2 -0.81,2.16 a 7.71,7.71 0 0 1 -0.09,0.83 c -0.1,0.34 0,0.49 0,0.67 0,0.18 -0.37,-0.05 -0.5,-0.08 a 10.55,10.55 0 0 0 -3,0.27 l -0.65,0.27 -1.65,-0.09 c -0.62,0 -1.63,0.26 -1.16,0.66 a 3.76,3.76 0 0 0 2.85,-0.41 4.55,4.55 0 0 1 0.67,0.07 c 0.8,0.22 1.62,-0.12 2.88,0.13 1.26,0.25 1.29,1 3.57,3.54 3.78,3.4 0.85,0.68 4.22,3.54 0.18,0.16 1.18,0.62 1.29,0.75 0.11,0.13 1.59,0.62 1.82,0.75 a 25.1,25.1 0 0 0 9.09,2.66 c 0.66,0 1.92,-0.46 5.18,-1.3 a 12.06,12.06 0 0 1 -4.09,1.56 4.21,4.21 0 0 1 -1.08,0.22 c -0.24,0 -2,-0.34 -2.23,-0.29 a 5.93,5.93 0 0 1 -2,-0.56 c -0.33,-0.22 -0.45,-0.1 -0.54,0.11 -0.09,0.21 0.43,0.46 0.43,0.46 l -0.67,-0.15 c -0.59,-0.41 -1.58,-1.18 -1.87,-1.3 -0.29,-0.12 -3,-1.25 -3.46,-1.52 -2.5,-1.32 -1.23,-0.16 -5.15,-3.54 0,0 -1.67,-1.67 -2.15,-2.08 a 22.27,22.27 0 0 0 -1.71,-1.75 10.23,10.23 0 0 0 -4.8,-0.43 c -0.81,0.17 -0.17,0.34 -0.05,0.51 a 14.67,14.67 0 0 0 2.46,-0.12 c 1.15,0.08 2.94,0.61 3,1.37 0,0.51 -2.09,-0.88 -2.27,-1 a 23.47,23.47 0 0 0 -4.49,0.1 c -0.42,0.14 0.35,0.51 0.65,0.48 a 29.88,29.88 0 0 1 3.1,0.26 5.92,5.92 0 0 1 1.1,0.42 c 0.81,0.33 2.17,0.49 2.54,0.91 a 5.47,5.47 0 0 0 1.18,0.6 c 0.39,0.15 1.44,1.6 2,1.83 0.16,0.07 1.25,0.48 0.71,0.76 -0.54,0.28 -2.91,-2.12 -3,-2.23 -0.09,-0.11 -1.62,-0.9 -2,-1.1 -0.38,-0.2 -1.78,-0.48 -2.71,-0.79 a 10.18,10.18 0 0 0 -3.08,-0.26 c -0.15,0.07 -0.54,0.5 -0.43,0.76 0.11,0.26 2.68,0.4 3,0.42 a 17.9,17.9 0 0 1 2.58,0.89 c 0.24,0.16 1.88,0.48 2,0.64 a 7.93,7.93 0 0 0 3.79,2.31 c 0.79,0.1 1.26,0.79 1.84,1.11 1.27,0.72 3.26,1.48 3.67,1.71 2.23,1.24 2.11,1.14 2.56,1.27 0.08,0.26 2.65,0.66 3.13,0.75 6.24,-0.49 5.32,-0.11 9.42,-2.7 a 18.42,18.42 0 0 0 1.86,-2.13 10.62,10.62 0 0 1 1.21,-1.57 c 1,-1 1.42,-5.12 1.69,-6 a 75.62,75.62 0 0 0 -0.22,-7.6 c 0,-0.22 0.24,-0.39 0.42,-0.53 0.45,-0.34 0.44,3.17 0.38,3.54 a 14.29,14.29 0 0 0 0,2 c 0,0.28 0,1 0,1.71 a 6,6 0 0 1 0,1.89 c -0.19,0.66 -0.41,1.81 -0.55,2.17 a 18.71,18.71 0 0 0 -0.65,1.92 10.85,10.85 0 0 1 -2.57,3.78 c -1.26,1.11 0.19,0.63 -3,2.35 -1.13,0.6 -1.61,0.51 -3.6,1.34 -0.91,0.39 -2.1,0 -4.51,0.15 -2.93,0.24 -6,-2.6 -7.56,-2.61 a 6.39,6.39 0 0 1 -2,-1.07 A 20,20 0 0 0 24,40.36 c -0.23,-0.13 -0.85,-0.63 -1.16,-0.8 -0.31,-0.17 -1.12,-0.29 -1.32,-0.49 -0.2,-0.2 -0.87,-0.81 -1.07,-1 A 9.59,9.59 0 0 0 18.53,37.3 c -0.4,-0.12 -1.29,-0.57 -1.79,-0.36 -1,0.41 3.56,1.08 3.91,2.17 0.18,0.56 -1,-0.22 -1,-0.22 0,0 -2.25,-0.86 -2.56,-0.91 -0.31,-0.05 -0.87,-0.39 -0.81,-0.65 0.06,-0.26 -0.12,-0.71 -0.29,-0.7 -0.17,0.01 -1.48,-0.31 -1.67,-0.35 -0.19,-0.04 -0.52,0.16 -0.76,0.44 -0.24,0.28 0.78,0.43 1.33,0.78 0.55,0.35 1.22,0.66 1.55,0.88 a 14.11,14.11 0 0 0 2.67,0.92 19.61,19.61 0 0 1 2.31,0.72 c 1.45,0.14 1,0.16 3.1,1.8 0.44,0.34 1.49,0.6 1.84,0.87 a 13.26,13.26 0 0 0 1.73,0.91 c 0.89,0.35 1.62,0 2.93,1.1 a 19.5,19.5 0 0 0 4.16,0.82 c 0.22,0 2.63,0.12 2.93,0.12 L 40,45.54 a 15.66,15.66 0 0 1 -1.87,0.44 c -0.17,0 -4.08,-0.09 -4.27,-0.13 -0.19,-0.04 -1.6,-0.44 -1.6,-0.44 -2.88,-0.13 -2.13,-0.64 -2.93,-1.11 -0.24,-0.13 -0.25,0.11 -0.42,0.12 -1.12,0.1 -6,-2.87 -6.9,-3.82 -0.32,-0.34 -1.62,-0.37 -2,-0.47 -0.38,-0.1 -3.5,-1.21 -3.76,-1.4 a 12.34,12.34 0 0 0 -2.69,-0.68 c -0.15,0.06 0,0.51 0.15,0.76 a 8.71,8.71 0 0 0 2.88,0.72 5.15,5.15 0 0 1 1.75,0.67 c 0.16,0.1 2.32,0.77 2.61,0.89 0.29,0.12 0.85,-0.07 1,0.35 0.15,0.42 -1.92,-0.37 -2.13,-0.45 -0.21,-0.08 -5.89,-1.51 -6.13,-1.46 -0.24,0.05 0.18,0.28 0.18,0.28 a 22.15,22.15 0 0 0 3.79,1.14 z M 54.5,38.89 c 1.53,-3.77 0.85,-2.18 1.51,-7 a 12.78,12.78 0 0 1 -0.01,-1.8 18.09,18.09 0 0 0 0.27,-5 c 0,-0.05 0.29,-5.16 0.3,-5.41 l 0.73,-1.6 c 0.25,0.19 -0.29,2 -0.29,2 0,0 -0.31,3.29 -0.3,3.46 0.01,0.17 0,3.57 0.11,3.71 0.11,0.14 0.16,2.46 0.16,2.46 0,0 -0.55,3.28 -0.59,3.47 -0.04,0.19 -0.33,3.66 -0.47,4 -0.76,1.85 -4.15,6.18 -4.46,6.52 -0.6,0.66 -4,3.52 -4.17,3.58 -0.17,0.06 -1.89,1.09 -2,1.16 -0.11,0.07 -2.09,0.18 -2.54,0.37 -0.45,0.19 -2.57,1.68 -2.77,1.76 -0.2,0.08 -4.08,0.61 -4.89,0.66 -0.81,0.05 -2.45,0.16 -2.45,0.16 a 39.4,39.4 0 0 1 -5.61,-2 c -4.54,-1.3 -5.86,-1.5 -6.03,-1.88 -0.08,-0.2 0.63,-0.32 0.82,-0.29 a 8.52,8.52 0 0 1 2,0.93 32.74,32.74 0 0 0 3.92,1.21 l 2.82,1 c 4.12,0.57 1.9,0.39 6.11,-0.12 a 18.65,18.65 0 0 0 2.77,-0.11 l 2,-0.84 c 0.55,-0.24 0.91,-0.63 1.31,-0.79 1,-0.43 2.35,-0.06 5.53,-2.46 0.35,-0.27 1.54,-1.48 2.28,-2.09 0.74,-0.61 0.37,-0.38 1.43,-1.48 a 10.35,10.35 0 0 0 1.48,-1.91 8.42,8.42 0 0 0 1.03,-1.67 z M 53.6,21.07 c 0,-0.06 -0.31,2.48 -0.42,5 -0.09,2 -0.18,3.41 -0.6,4 -0.86,-1.59 -0.21,-10 0.82,-9.26 a 0.56,0.56 0 0 1 0.2,0.23 z m -5.32,1.19 c 0.27,-0.34 1.38,-2.57 1.23,-1.81 0,0.13 -0.8,3.58 -1.13,3 a 1.1,1.1 0 0 1 -0.1,-1.22 z m -0.51,8.91 a 3.78,3.78 0 0 0 0.14,-1.47 11.2,11.2 0 0 1 -0.19,-3.91 c 0,0 0.48,-1.5 0.46,-0.31 -0.06,2.5 0.42,6.91 -0.08,6.48 a 1.44,1.44 0 0 1 -0.33,-0.82 z m -9.89,6.17 c -1.25,0.15 -1.32,-0.54 -2.62,-1.28 a 3.45,3.45 0 0 1 -1.34,-1.34 13.87,13.87 0 0 1 -1.78,-4.53 c 0,-0.32 -0.25,-1.88 -0.26,-2.33 a 16.39,16.39 0 0 1 0,-2.46 c 0.11,-0.27 -0.11,-1.76 0,-2.12 0.11,-0.36 0.47,-1.88 0.54,-2 a 10.54,10.54 0 0 0 0.61,-1.21 c 0,-0.18 1.13,-1.29 0.72,-0.44 a 21.83,21.83 0 0 0 -1.07,4.75 16.31,16.31 0 0 0 0.05,5.22 8.88,8.88 0 0 0 0.48,2.42 c 0.27,0.42 0.79,1.65 1.25,2.31 0.71,0.88 4.14,2.89 3.42,2.98 z m 7,-13.69 c 0,0.25 -0.51,2.54 -0.7,2.35 -0.19,-0.19 -0.36,-0.21 -0.25,-0.59 0.36,-1.22 0.43,-3 0.68,-3.34 0.14,-0.18 0.73,-1.54 0.86,-1.47 0.32,0.16 -0.47,1.6 -0.59,3.02 z m 0.85,8.84 a 16.7,16.7 0 0 1 -0.06,-1.82 c 0.18,-0.85 0.32,-3.6 0.49,0.44 a 13.43,13.43 0 0 1 0.1,1.34 c 0,0.26 -0.11,0.82 -0.24,0.66 -0.13,-0.16 -0.32,-0.49 -0.29,-0.65 z m -26,-8.92 c -0.17,0.31 -2.21,3.58 -2.85,4.37 l 0.05,0.05 a 11.57,11.57 0 0 1 -1.34,1.26 c -0.31,0.17 -1.19,0.66 -1.37,0.58 -0.18,-0.08 -0.68,0.26 -0.22,-0.17 a 23.27,23.27 0 0 0 2.52,-2 c 1,-1.77 1,-1.38 2.09,-3.09 0.41,-0.64 0.83,-1.58 1,-1.47 0.17,0.11 0.23,0.14 0.07,0.44 z m -1.43,5.81 c 0.06,1 -0.36,1 -1.41,1.3 -0.65,-0.15 0.23,-0.53 0.65,-0.95 0.52,-0.61 0.58,-0.69 0.76,-0.35 z m 5.88,-2.9 c -0.56,3 -0.57,2.48 -0.29,4.67 0.06,0.41 1.41,2.95 1.38,3.2 C 25.24,34.6 24,32.46 23.59,31.74 a 5.34,5.34 0 0 1 -0.35,-2.28 3.26,3.26 0 0 1 0.42,-1.5 9.45,9.45 0 0 0 0.15,-1.65 c 0.05,-0.37 0.07,-0.32 0.44,-0.62 0.37,-0.3 0.08,0.43 -0.07,0.79 z m 2.64,0.91 c -0.13,0.4 0.62,2.72 0.54,3.23 a 13.08,13.08 0 0 0 0.83,2.93 8,8 0 0 0 1.68,2.17 13.93,13.93 0 0 0 1.48,1.17 c 2,1.42 2,1.7 3.61,2.7 0.5,0.31 2.4,0.56 3.47,1 0.56,0.23 -0.74,0.2 -1.29,0.14 -0.55,-0.06 -1.88,-0.56 -2.48,-0.59 -0.6,-0.03 -1.28,-0.81 -2,-1.2 a 33.63,33.63 0 0 1 -2.95,-2.68 8.53,8.53 0 0 1 -2.2,-3.12 c -1.12,-2.65 -0.77,-3.77 -1,-5.12 a 1.5,1.5 0 0 1 -0.02,-1.13 c 0.14,-0.36 0.33,0.5 0.33,0.5 z m 4.1,-13 a 32.07,32.07 0 0 1 3,-2.49 c 0,0 2.22,-1.41 2.42,-1.49 0.9,-0.38 2.22,-2.11 4,-1.83 0.81,0.13 -1.29,0.84 -1.84,1.07 a 17.71,17.71 0 0 0 -4.36,2.73 c -0.46,0.31 -2.15,1.73 -2.39,1.83 a 17.49,17.49 0 0 0 -3.51,4.89 c -0.22,1.14 -0.78,2.17 -1.51,4.74 -1,3.56 -0.73,1.06 -1,4.93 a 12.41,12.41 0 0 0 1,3.91 c 0,0 0.38,0.49 0.2,0.74 -0.18,0.25 -1.42,-2.8 -1.5,-3.12 -1.07,-4.51 0.76,-3.9 2,-10.18 v -0.46 l 0.24,-0.28 c -0.17,-0.76 -0.31,-0.7 -0.63,-0.22 a 8,8 0 0 0 -0.86,1.29 19.44,19.44 0 0 1 -0.94,2 19.32,19.32 0 0 0 -1.14,2.1 3.35,3.35 0 0 1 -0.43,0.85 c -0.61,0.76 -0.49,2.66 -0.87,3.05 -0.21,0.22 -0.91,0.43 -0.92,0.74 -0.01,0.31 -0.81,2 -0.18,3.11 a 15.75,15.75 0 0 0 1.31,2.26 c 0.37,0.34 1.56,1.28 1.3,1.39 -0.26,0.11 -0.61,-0.4 -0.61,-0.4 0,0 -1.41,-1.34 -1.47,-1.49 -0.23,-0.55 -2.05,-2.78 -0.82,-4.63 0.16,-0.24 0.08,-0.34 0.3,-0.87 1.27,-3.13 1.53,-2.68 2,-4.25 a 35,35 0 0 1 2.78,-5.27 c 0.38,-0.16 0.33,-0.16 1,-0.73 a 10,10 0 0 1 1.4,-1.17 c 0.14,-0.1 0.27,-0.51 0.62,-0.83 a 9.62,9.62 0 0 0 1.2,-1.52 1.86,1.86 0 0 0 0.21,-0.42 z M 27,38.34 c 0.08,0.18 0.06,0.76 -0.12,0.66 -0.51,-0.29 -2.43,-2.3 -3.35,-2.72 A 6.09,6.09 0 0 1 21.74,34.75 20.36,20.36 0 0 1 20,32.05 c 0.18,-2.84 0.45,-1.47 1.16,-4.45 a 6.29,6.29 0 0 1 1.28,-2.48 c 0.12,-0.14 0.63,-2.25 0.7,-2.41 0.07,-0.16 0.95,-1.59 0.95,-1.59 0.46,-1.44 0.54,-1.49 2.22,-3.49 0.88,-1 3.05,-2.93 3.26,-2.61 0.21,0.32 0.59,-0.56 -0.11,0.48 -0.7,1.04 0.28,-0.07 -1.12,1.31 -2.36,2.34 -1.36,0.27 -3.74,4.36 0,0 -2.15,4.39 -2.47,5.18 -1.42,3.53 -1.85,3.88 -1.66,4.93 0.34,1.87 0,1.41 2.92,4.39 a 4,4 0 0 0 1.37,1 12.8,12.8 0 0 1 2.24,1.67 z m 20.7,2.75 A 13.76,13.76 0 0 0 50,37.24 c 0,0 0.43,-0.24 0,0.92 a 7,7 0 0 1 -0.32,1.31 c -0.6,1.1 -1.7,2 -1.89,1.92 -0.19,-0.08 -0.53,0.18 -0.09,-0.3 z"
       class="cls-5" />
    <text
       style="font-weight:700;font-size:14.06999969px;font-family:Hind-SemiBold, Hind;fill:#1d1d1b"
       id="text97"
       class="cls-6"
       x="16.57"
       y="47.029999">BROKEN</text>
    <text
       style="font-weight:700;font-size:6px;font-family:Hind-SemiBold, Hind;letter-spacing:-0.02em;fill:#1d1d1b"
       id="text99"
       class="cls-7"
       x="17.389999"
       y="53.43">AUTHENTIFICATION</text>
    <path
       style="opacity:0.07000002;fill:#ffffff"
       inkscape:connector-curvature="0"
       id="path101"
       d="M 62.64,67.96 A 42.77,42.77 0 0 1 27.34,1.04 42.77,42.77 0 1 0 78.59,64.89 42.7,42.7 0 0 1 62.64,67.96 Z"
       class="cls-8" />
  </g>
</svg>
