<?xml version="1.0" encoding="UTF-8" standalone="no"?>
<svg
   xmlns:dc="http://purl.org/dc/elements/1.1/"
   xmlns:cc="http://creativecommons.org/ns#"
   xmlns:rdf="http://www.w3.org/1999/02/22-rdf-syntax-ns#"
   xmlns:svg="http://www.w3.org/2000/svg"
   xmlns="http://www.w3.org/2000/svg"
   xmlns:sodipodi="http://sodipodi.sourceforge.net/DTD/sodipodi-0.dtd"
   xmlns:inkscape="http://www.inkscape.org/namespaces/inkscape"
   viewBox="0 0 97.487488 97.452087"
   version="1.1"
   id="svg107"
   sodipodi:docname="broken_authentification.svg"
   inkscape:version="0.92.3 (2405546, 2018-03-11)"
   width="97.487488"
   height="97.452087">
  <metadata
     id="metadata111">
    <rdf:RDF>
      <cc:Work
         rdf:about="">
        <dc:format>image/svg+xml</dc:format>
        <dc:type
           rdf:resource="http://purl.org/dc/dcmitype/StillImage" />
        <dc:title>Element 271</dc:title>
      </cc:Work>
    </rdf:RDF>
  </metadata>
  <sodipodi:namedview
     pagecolor="#ffffff"
     bordercolor="#666666"
     borderopacity="1"
     objecttolerance="10"
     gridtolerance="10"
     guidetolerance="10"
     inkscape:pageopacity="0"
     inkscape:pageshadow="2"
     inkscape:window-width="1841"
     inkscape:window-height="879"
     id="namedview109"
     showgrid="false"
     inkscape:zoom="5.6526945"
     inkscape:cx="-6.7717828"
     inkscape:cy="35.748819"
     inkscape:window-x="79"
     inkscape:window-y="27"
     inkscape:window-maximized="1"
     inkscape:current-layer="layer4"
     fit-margin-top="0"
     fit-margin-left="0"
     fit-margin-right="0"
     fit-margin-bottom="0" />
  <defs
     id="defs7">
    <style
       id="style2">.cls-1{fill:none;}.cls-2{clip-path:url(#clip-path);}.cls-3{fill:#f9b233;stroke:#f9b233;stroke-miterlimit:10;stroke-width:10px;}.cls-4{fill:#d59a2c;}.cls-5,.cls-8{fill:#fff;}.cls-6{font-size:14.07px;}.cls-6,.cls-7{fill:#1d1d1b;font-family:Hind-SemiBold, Hind;font-weight:700;}.cls-7{font-size:6px;letter-spacing:-0.02em;}.cls-8{opacity:0.07;}</style>
    <clipPath
       id="clip-path"
       transform="translate(0 -0.11)">
      <circle
         class="cls-1"
         cx="42.759998"
         cy="41.099998"
         r="41.099998"
         id="circle4"
         style="fill:none" />
    </clipPath>
    <clipPath
       clipPathUnits="userSpaceOnUse"
       id="clipPath1225">
      <ellipse
         style="display:inline;opacity:1;vector-effect:none;fill:none;fill-opacity:1;stroke:#000000;stroke-width:0.01134289;stroke-linecap:butt;stroke-linejoin:miter;stroke-miterlimit:4;stroke-dasharray:none;stroke-dashoffset:0;stroke-opacity:1"
         id="ellipse1227"
         cx="43.342159"
         cy="41.396187"
         rx="48.71244"
         ry="48.711475" />
    </clipPath>
    <clipPath
       clipPathUnits="userSpaceOnUse"
       id="clipPath1229">
      <ellipse
         ry="48.711475"
         rx="48.71244"
         cy="41.396187"
         cx="43.342159"
         id="ellipse1231"
         style="display:inline;opacity:1;vector-effect:none;fill:none;fill-opacity:1;stroke:#000000;stroke-width:0.01134289;stroke-linecap:butt;stroke-linejoin:miter;stroke-miterlimit:4;stroke-dasharray:none;stroke-dashoffset:0;stroke-opacity:1" />
    </clipPath>
  </defs>
  <title
     id="title9">Element 271</title>
  <g
     inkscape:groupmode="layer"
     id="layer4"
     inkscape:label="button"
     transform="translate(5.3759527,7.32096)">
    <g
       inkscape:groupmode="layer"
       id="layer7"
       inkscape:label="background">
      <circle
         style="fill:#f9b233;stroke:#f9b233;stroke-width:11.8392725px;stroke-miterlimit:10"
         id="circle11"
         r="42.798969"
         cy="41.412525"
         cx="43.392933"
         class="cls-3" />
      <path
         style="fill:#d59a2c;stroke-width:1.08657312"
         inkscape:connector-curvature="0"
         id="path13"
         d="m 63.644121,20.652849 a 22.818035,22.818035 0 0 1 1.9341,2.173146 9.5835746,9.5835746 0 0 1 3.900798,-1.532068 c 2.260072,0.977916 4.422352,2.031892 4.411486,2.260072 -0.01087,0.22818 -3.324913,-1.184365 -4.541875,-1.499471 a 9.2141397,9.2141397 0 0 0 -3.259719,1.293022 c -0.108658,0.315106 0,0.423764 0,0.423764 a 9.8769493,9.8769493 0 0 1 1.510336,0.651943 c 0.206449,0.423764 0.423764,1.716786 0.108657,2.042758 -0.108657,0.108657 -0.06519,0.15212 -0.434629,0.217314 -0.369435,0.06519 -1.575531,1.912369 -2.738164,3.064136 -1.162633,1.151768 -5.335074,0.271644 -5.335074,0.271644 0,0 0.249912,2.423058 0.325972,4.83525 0.423764,0.771467 0.96705,0.977916 2.477387,1.618994 2.683835,0.325972 5.280745,-0.0652 5.378537,0.217314 0.09779,0.282509 -5.237283,0.630213 -5.704509,0.532421 -0.467227,-0.09779 -1.618994,-0.532421 -2.803359,-0.858392 a 11.332957,11.332957 0 0 0 2.477387,3.118464 c 2.173146,0.651944 4.346292,1.293022 4.346292,1.510337 a 35.259296,35.259296 0 0 1 -4.726593,-0.641078 26.577578,26.577578 0 0 1 -2.488252,-1.890637 c 0.282509,0.836661 0.499824,2.488252 1.086573,3.075001 1.445142,1.445143 3.335779,2.901151 3.172793,3.042405 a 37.258591,37.258591 0 0 1 -4.128977,-2.694701 c -0.771467,-1.673323 -1.923235,-4.585339 -1.923235,-4.585339 h -1.11917 a 186.35815,186.35815 0 0 1 4.128978,44.15833 c -4.650533,-2.3144 -16.005222,-19.471389 -8.17103,-30.500106 1.314754,-1.85804 1.456008,-13.364849 1.456008,-13.364849 a 9.0185566,9.0185566 0 0 1 -2.542581,-1.086573 3.3249136,3.3249136 0 0 1 -0.749735,0.108657 c 4.900444,11.289495 -29.630848,27.631554 -29.630848,27.631554 0,0 16.331193,-34.542158 27.685882,-29.598251 a 3.3249136,3.3249136 0 0 1 0.108657,-0.760601 9.0185566,9.0185566 0 0 1 -1.086573,-2.542581 c 0,0 -11.572003,0.141254 -13.419177,1.499471 C 22.310881,40.634928 5.1647579,29.280239 2.8394915,24.629706 a 186.35815,186.35815 0 0 1 44.1583305,4.096381 v -1.151768 c 0,0 -2.912016,-1.162633 -4.585339,-1.9341 a 39.909829,39.909829 0 0 1 -2.694701,-4.063783 c 0.141254,-0.173852 1.597262,1.716785 3.05327,3.161928 0.575884,0.586749 2.173146,0.814929 3.064136,1.086573 A 25.903902,25.903902 0 0 1 43.955417,23.34755 35.444014,35.444014 0 0 1 43.303473,18.610091 c 0.217315,0 0.858393,2.173147 1.510337,4.346293 a 11.126508,11.126508 0 0 0 3.118464,2.477386 c -0.325972,-1.184364 -0.749735,-2.260072 -0.858392,-2.803358 -0.108658,-0.543287 0.249911,-5.791435 0.53242,-5.704509 0.282509,0.08693 -0.108657,2.694701 0.217315,5.432866 0.651944,1.49947 0.847527,2.042757 1.618994,2.46652 2.412192,0.07606 4.83525,0.325972 4.83525,0.325972 0,0 -0.89099,-4.17244 0.271643,-5.335073 1.162634,-1.162634 3.009808,-2.36873 3.064137,-2.738165 0.05433,-0.369434 0.108657,-0.325972 0.217314,-0.423763 0.325972,-0.325972 1.618994,-0.108657 2.053623,0.09779 a 10.615819,10.615819 0 0 1 0.641078,1.510337 c 0,0 0.108658,0.108657 0.43463,0 a 9.1815425,9.1815425 0 0 0 1.282156,-3.259719 c -0.315106,-1.184365 -1.738517,-4.509279 -1.499471,-4.520144 0.239046,-0.01087 1.293022,2.173146 2.260072,4.411486 a 9.5835746,9.5835746 0 0 1 -1.510337,3.824738 22.818035,22.818035 0 0 1 2.151415,1.9341 z"
         class="cls-4" />
    </g>
    <g
       inkscape:groupmode="layer"
       id="layer6"
       inkscape:label="content">
      <g
         id="g1114"
         clip-path="url(#clipPath1229)">
        <path
           class="cls-5"
           d="m 19.101738,56.154718 c -1.303819,-1.926363 -2.255255,-0.646036 -2.196524,-0.317145 0.05873,0.328891 1.444772,0.493337 1.691441,0.599052 0.246668,0.105715 0.505083,-0.281907 0.505083,-0.281907 z"
           id="path15"
           inkscape:connector-curvature="0"
           style="fill:#ffffff;stroke-width:1.17461145" />
        <path
           class="cls-5"
           d="m 14.520753,51.197858 c 0.258414,0.09397 2.454938,0.751751 3.206689,1.05715 a 5.0038448,5.0038448 0 0 1 2.231762,1.174611 c 0.293653,0.223177 0.857466,-0.08222 1.010166,-0.21143 0.152699,-0.129207 -2.725099,-2.008585 -3.312405,-2.126046 -0.587305,-0.117462 -1.033658,-1.174612 -1.444772,-1.456519 a 19.850934,19.850934 0 0 0 -3.147958,-1.90287 c -0.528576,-0.117461 -0.340638,0.493337 -0.258415,0.869212 0.08222,0.375876 3.065736,1.526995 3.26542,1.99684 0.199684,0.469844 -1.26858,-0.563814 -1.78541,-0.622544 -0.516829,-0.05873 -0.857466,-0.399368 -1.303818,0.340637 -0.446353,0.740005 1.292072,0.775244 1.538741,0.880959 z"
           id="path17"
           inkscape:connector-curvature="0"
           style="fill:#ffffff;stroke-width:1.17461145" />
        <path
           class="cls-5"
           d="m 21.251276,59.102993 c 0.234923,-0.09397 0.352384,-0.63429 0.528576,-0.704767 0.176191,-0.07048 2.866052,0.411114 2.501922,-0.446352 l -0.399368,-0.446353 c 0,0 -2.102554,-0.563813 -2.63113,-0.681274 -0.763497,-0.164446 -3.312404,0.246668 -2.772083,0.963181 a 5.0038448,5.0038448 0 0 0 1.820648,0 c 0.469845,-0.199684 0.516829,0.411114 0.516829,0.411114 a 3.6060572,3.6060572 0 0 0 -0.974927,1.433026 c -0.223176,0.84572 1.174611,-0.434606 1.409533,-0.528575 z"
           id="path19"
           inkscape:connector-curvature="0"
           style="fill:#ffffff;stroke-width:1.17461145" />
        <path
           class="cls-5"
           d="m 17.91538,-1.2720366 c 0.375876,-0.070477 0.763497,0 1.174611,-0.082223 1.738425,-0.1526994 1.174612,-1.2920726 1.538741,-1.9146166 0.36413,-0.6225441 1.808902,-0.9396892 2.548907,-1.7149328 0.07048,-0.082223 0.270161,-0.2349223 0.281907,-0.3523834 0.01175,-0.1174612 -0.340637,-0.1292073 -0.516829,-0.1409534 -0.587306,0 -0.622544,0.1879378 -1.714933,0.7634975 -0.375875,0.1996839 -0.798736,0.3053989 -1.174611,0.5403212 -3.817487,2.5136686 -4.498762,2.1025546 -5.931788,4.69844589 -0.05873,0.10571503 -0.234922,0.56381351 -0.375876,0.59905181 1.597472,-0.29365283 2.584145,-2.10255449 4.169871,-2.3962072 z"
           id="path21"
           inkscape:connector-curvature="0"
           style="fill:#ffffff;stroke-width:1.17461145" />
        <path
           class="cls-5"
           d="m 5.6994207,21.56241 c 1.4917565,-0.63429 3.9114562,-3.382881 2.772083,-2.90129 A 4.3578085,4.3578085 0 0 0 6.6038715,19.835731 C 5.6171979,20.704944 4.7714776,21.961778 5.6994207,21.56241 Z"
           id="path23"
           inkscape:connector-curvature="0"
           style="fill:#ffffff;stroke-width:1.17461145" />
        <path
           class="cls-5"
           d="m 12.030576,46.11179 c 0.411114,-0.646036 -0.07048,-1.174612 -0.622544,-0.974928 -0.552067,0.199684 -0.152699,0.622545 -0.08222,0.93969 0.07048,0.317145 0.704766,0.03524 0.704766,0.03524 z"
           id="path25"
           inkscape:connector-curvature="0"
           style="fill:#ffffff;stroke-width:1.17461145" />
        <path
           class="cls-5"
           d="m 24.140821,-4.0911041 c 2.102554,-0.8927047 4.95686,-1.949855 4.698446,-2.5371607 -0.258415,-0.5873058 -4.287332,0.8927047 -3.641296,1.0101658 -1.84414,0.9396892 -3.136213,1.8558861 -1.05715,1.5269949 z"
           id="path27"
           inkscape:connector-curvature="0"
           style="fill:#ffffff;stroke-width:1.17461145" />
        <path
           class="cls-5"
           d="m 7.2264156,27.45896 c 0.2701606,-0.187938 1.0923887,-1.010166 1.0923887,-1.010166 1.4212798,-0.599052 3.5238347,-4.017171 4.1581247,-5.003845 0.798736,-1.362549 -0.763498,0.328891 -0.916197,0.458099 -0.1527,0.129207 -2.2552541,3.277166 -3.8762179,4.193363 -0.4933369,0.281906 -0.6342902,0.751751 -1.1041348,0.951435 A 2.4196996,2.4196996 0 0 0 5.4057678,27.940551 C 4.9359232,28.586587 6.8270477,27.740867 7.2264156,27.45896 Z"
           id="path29"
           inkscape:connector-curvature="0"
           style="fill:#ffffff;stroke-width:1.17461145" />
        <path
           class="cls-5"
           d="m 78.208186,55.943288 c 0,2.161285 0,1.327311 -0.681274,1.938109 -0.857467,0.775243 -1.444772,1.90287 -4.498762,6.566078 -3.876218,5.802581 -4.087648,4.11114 -5.438451,9.502607 -0.08222,0.328891 -3.077482,6.413378 -3.077482,6.413378 l -1.961601,5.097814 h 1.573979 c 0.951435,-2.877798 -0.223176,-0.469845 5.227021,-12.497866 3.26542,-5.555912 7.634975,-12.321674 7.599736,-12.744534 0,-0.21143 2.349223,-2.020332 2.466684,-2.349223 0.117461,-0.328891 0.63429,-2.220016 0.775244,-2.431446 0.140953,-0.21143 1.820648,-1.738425 1.820648,-1.738425 L 81.82599,51.150873 c -0.246669,-0.927943 -3.100975,3.923202 -3.617804,4.792415 z"
           id="path31"
           inkscape:connector-curvature="0"
           style="fill:#ffffff;stroke-width:1.17461145" />
        <path
           class="cls-5"
           d="m 77.938026,64.694143 0.505083,-1.562233 1.174611,-0.481591 1.667948,-4.393046 -2.560653,2.267 c -2.349222,3.946694 -0.84572,1.797155 -6.930207,9.808005 -3.147959,8.128312 -1.773663,4.792415 -6.049249,14.635659 l 1.703186,-0.716513 5.32099,-12.826757 z"
           id="path33"
           inkscape:connector-curvature="0"
           style="fill:#ffffff;stroke-width:1.17461145" />
        <path
           class="cls-5"
           d="m 76.528492,54.052163 c 0,0 -2.349223,3.41812 -2.584145,3.653042 -0.446353,0.528575 -5.062576,9.232446 -5.873058,9.995944 0,0 -0.857466,0.48159 -2.725098,1.761917 l -0.187938,0.07048 c -1.245088,1.996839 -1.292073,2.90129 -1.914617,3.817487 -0.140953,0.21143 -1.491756,1.609218 -1.667948,1.90287 -0.176192,0.293653 -1.280326,3.018752 -1.280326,3.018752 l -1.738425,2.725098 c -1.115881,2.748591 -0.740006,1.350804 -2.173032,4.451778 -0.42286,0.927943 0.422861,0.270161 1.174612,-0.176192 0.751751,-0.446352 0.775243,-2.05557 0.775243,-2.05557 l 1.280327,-1.679694 0.822228,-0.469845 a 58.636604,58.636604 0 0 1 3.077482,-6.037503 l 0.751751,-0.693021 a 25.970659,25.970659 0 0 1 1.691441,-4.16987 l 0.880958,-0.223176 c 0.880959,-0.223177 -2.05557,5.074321 -2.05557,5.074321 -0.90445,1.949855 -0.317145,0.869213 -3.418119,7.047669 0,0 -1.292073,0.693021 -1.867632,1.092389 -0.57556,0.399367 -0.869213,2.349223 -0.869213,2.349223 l 0.99842,-0.117462 c 0.270161,-1.174611 0.63429,-0.963181 1.021912,-0.963181 0.387622,0 0,1.174611 0,1.174611 l 1.068896,-0.140953 a 12.756281,12.756281 0 0 0 0.657783,-3.065736 c 5.285751,-9.396892 2.830814,-4.310824 6.10798,-13.237871 a 57.027387,57.027387 0 0 0 5.133052,-8.057835 c 1.174611,-2.126046 3.030497,-4.357808 3.312404,-4.933368 2.713352,-5.473689 4.698446,-8.057835 3.676534,-9.056254 -0.387622,-0.446353 -3.829234,6.507347 -4.075902,6.941953 z"
           id="path35"
           inkscape:connector-curvature="0"
           style="fill:#ffffff;stroke-width:1.17461145" />
        <path
           class="cls-5"
           d="m 76.986591,44.091458 c -0.199684,0.693021 -1.78541,2.513669 -0.845721,2.807322 1.174612,0.364129 2.126047,-3.523835 2.513669,-4.310824 l -0.399368,-0.540322 c -0.728259,0.1527 -1.092389,1.433026 -1.26858,2.043824 z"
           id="path37"
           inkscape:connector-curvature="0"
           style="fill:#ffffff;stroke-width:1.17461145" />
        <path
           class="cls-5"
           d="m 79.594228,65.798278 c -4.698446,4.064156 -3.817487,2.161285 -10.794679,18.488385 l 1.926362,-0.986674 6.049249,-13.461047 1.386042,-1.092389 -5.074322,13.496286 1.609218,-1.350804 c 2.807322,-5.767342 1.174612,-1.550487 4.181617,-10.33658 a 24.831286,24.831286 0 0 0 0.892705,-3.05399 l 0.939689,-0.563814 c 2.243508,-5.873057 1.714933,-4.698446 2.607637,-6.131472 l -0.963181,-0.27016 z"
           id="path39"
           inkscape:connector-curvature="0"
           style="fill:#ffffff;stroke-width:1.17461145" />
        <path
           class="cls-5"
           d="m 22.848748,61.393485 c 0.340637,0 0.458099,-1.021912 0.458099,-1.021912 0.140953,-0.340637 -0.72826,-0.927943 -1.268581,-0.904451 -0.540321,0.02349 -0.822228,0.340638 -1.256834,0.798736 -0.434606,0.458099 0.775243,0.36413 1.092389,0.293653 0.317145,-0.07048 0.246668,0.246668 0.223176,0.528575 -0.02349,0.281907 0.399368,0.305399 0.751751,0.305399 z"
           id="path41"
           inkscape:connector-curvature="0"
           style="fill:#ffffff;stroke-width:1.17461145" />
        <path
           class="cls-5"
           d="m 78.548824,76.851372 c 0.798736,-0.505083 3.653041,-9.596576 3.653041,-9.596576 -0.998419,0.42286 -4.451777,10.101659 -3.653041,9.596576 z"
           id="path43"
           inkscape:connector-curvature="0"
           style="fill:#ffffff;stroke-width:1.17461145" />
        <path
           class="cls-5"
           d="m 74.414191,34.295199 c -0.246668,0.152699 0,0.728259 0,0.728259 0.281907,0.469844 -1.585725,4.404793 -1.914616,5.144798 a 14.024861,14.024861 0 0 0 -1.174612,1.174611 c -0.258414,0.399368 -2.830813,6.002265 -2.830813,6.002265 0,0 -3.864472,5.767342 -4.698446,6.143218 -0.622544,0.258414 -4.146379,4.698446 -5.720358,5.873057 -3.68828,2.913037 -3.512088,3.700026 -7.035923,7.094654 a 12.497866,12.497866 0 0 0 -0.84572,1.174611 17.619172,17.619172 0 0 1 -2.278746,1.573979 14.905819,14.905819 0 0 0 -2.079063,2.278747 11.358493,11.358493 0 0 0 -1.609217,1.714932 32.889121,32.889121 0 0 0 -3.758757,3.171451 h -0.57556 l -0.599051,1.339057 0.223176,0.422861 c 1.386041,-0.587306 1.350803,-0.51683 1.656202,-1.36255 l 0.57556,0.270161 c 2.349222,-0.927943 0.892704,-0.587306 1.045404,-0.704767 0.152699,-0.117461 2.149539,-2.349223 2.642876,-2.924783 0,0 3.793995,-3.770502 5.755596,-6.060995 2.349223,-2.783829 7.717197,-6.601316 10.43055,-10.148643 0.704766,-0.916197 2.149539,-1.891124 2.819067,-2.631129 1.832394,-2.067317 4.921622,-5.696866 5.990519,-8.327996 a 15.974716,15.974716 0 0 1 2.407953,-4.792415 c 0.751751,-0.869212 0.293653,-1.245088 1.691441,-3.347642 a 23.492229,23.492229 0 0 0 0.90445,-3.523835 c 0.08222,-0.293652 0,-0.399368 -0.246668,-0.563813 -0.246668,-0.164446 -0.528575,0.129207 -0.775244,0.281907 z"
           id="path45"
           inkscape:connector-curvature="0"
           style="fill:#ffffff;stroke-width:1.17461145" />
        <path
           class="cls-5"
           d="m 72.499575,28.798017 c 0,0.164446 -1.104135,4.075902 -1.174612,4.921622 -0.07048,0.84572 -1.491756,2.830814 -1.386041,3.817487 0,0.187938 -0.740005,2.642876 -0.740005,2.642876 0,0 -0.105716,1.327311 -0.105716,1.585726 0,0.258414 -0.927943,1.84414 -1.174611,2.349222 -2.114301,5.250514 -9.396892,12.450882 -10.00769,12.768027 a 17.677903,17.677903 0 0 0 -1.785409,1.99684 c -0.21143,0.246668 -2.220016,1.973347 -2.466684,2.126046 -0.246669,0.1527 -1.938109,1.280327 -2.349223,1.491757 -0.857466,0.352383 -5.873057,4.698446 -8.22228,5.95528 -0.505083,0.270161 -2.866052,2.149539 -3.312405,2.443192 -3.95844,2.607637 -3.465104,2.208269 -3.68828,3.007005 -0.08222,0.293653 0.540322,0.281907 0.951436,0.164446 0.411114,-0.117461 1.315564,-1.280327 1.679694,-1.538741 0.36413,-0.258415 1.174611,-0.599052 2.431446,-1.444772 6.119725,-4.099394 10.172135,-8.339742 10.242612,-7.435291 a 17.86584,17.86584 0 0 1 -2.008586,1.985094 c -0.199684,0.164445 -1.867632,2.020331 -2.607637,2.513668 0,0 -5.95528,4.580985 -6.413379,4.874638 -4.064156,2.678114 -4.075902,2.525414 -3.030498,3.347642 0.387622,0.305399 2.466685,-0.880958 3.335897,-1.515248 a 28.836711,28.836711 0 0 0 2.607637,-2.349223 80.7193,80.7193 0 0 0 7.047669,-6.460363 57.614692,57.614692 0 0 1 3.981933,-4.369555 c 0.176192,-0.08222 3.077482,-2.490176 3.077482,-2.490176 6.965446,-7.282592 4.064156,-4.487016 7.388306,-7.728944 4.075902,-5.555912 3.617804,-6.366394 5.215275,-9.64356 0.223176,-0.458098 1.57398,-1.550487 1.714933,-1.820648 a 16.902659,16.902659 0 0 1 0.869212,-1.609217 c 0.57556,-0.751752 0.57556,-2.501923 0.904451,-3.523835 0.187938,-0.540321 0.411114,-1.726679 0.716513,-2.47843 0.305399,-0.751751 0,-0.340637 -0.340637,-0.42286 -0.340637,-0.08222 -0.399368,0.99842 -0.399368,0.99842 0,0.328891 -2.079062,5.191782 -2.184777,5.367974 a 5.0860676,5.0860676 0 0 1 -0.634291,1.773663 c -0.540321,0.693021 -0.575559,-0.48159 -0.493336,-0.775243 0.08222,-0.293653 0.434606,-0.810482 0.540321,-1.174612 0.105715,-0.364129 1.174611,-3.253674 1.350803,-3.782249 1.104135,-4.146378 1.480011,-3.523834 1.05715,-5.873057 -0.03524,-0.281907 -0.434606,-0.07048 -0.587305,0.305399 z"
           id="path47"
           inkscape:connector-curvature="0"
           style="fill:#ffffff;stroke-width:1.17461145" />
        <path
           class="cls-5"
           d="m 25.197971,63.70747 c 0.880959,-0.516829 -0.258415,-0.446353 -0.411114,-0.798736 -0.152699,-0.352384 0.305399,-0.270161 0.681275,-0.493337 0.375875,-0.223176 -0.270161,-0.505083 -0.270161,-0.505083 a 2.5958913,2.5958913 0 0 0 -2.90129,0.810482 c -0.716513,0.587306 0.69302,0.810482 1.174611,1.092389 0.481591,0.281906 0.833974,0.399368 1.726679,-0.105715 z"
           id="path49"
           inkscape:connector-curvature="0"
           style="fill:#ffffff;stroke-width:1.17461145" />
        <path
           class="cls-5"
           d="m 55.737869,83.323481 0.187938,-0.446352 0.986674,-0.869213 a 11.252778,11.252778 0 0 1 1.879378,-2.830813 v -0.458099 l 0.693021,-2.090808 -0.340638,0.07048 4.099394,-4.698446 c 1.057151,-2.748591 0.587306,-1.973348 3.523835,-4.698446 l 0.21143,-0.540321 1.174611,-1.409534 c 0,0 1.726679,-2.84256 2.020332,-3.406373 0.657782,-1.327311 2.490176,-3.606058 2.454938,-3.077483 l 1.703187,-3.946694 c 3.711772,-4.510508 2.513668,-2.654622 5.262259,-8.151804 l -0.36413,-1.515248 -1.315564,1.174611 a 25.641768,25.641768 0 0 0 -1.820648,4.698446 20.344271,20.344271 0 0 1 -3.159705,3.523834 10.982617,10.982617 0 0 1 -1.339057,3.042244 c -1.961601,3.864472 -1.174612,2.584145 -3.711772,5.626389 -2.854306,4.346062 -5.097814,5.37972 -8.468949,11.875322 0,0 -1.456518,2.043824 -1.620964,2.184777 -0.164445,0.140954 -1.433026,3.171451 -1.597471,3.312404 a 16.702975,16.702975 0 0 0 -2.443192,3.899711 l 1.174611,0.446352 a 5.8730573,5.8730573 0 0 0 0.810482,-1.714933 z"
           id="path51"
           inkscape:connector-curvature="0"
           style="fill:#ffffff;stroke-width:1.17461145" />
        <path
           class="cls-5"
           d="m 56.125491,73.926589 a 14.741374,14.741374 0 0 0 1.961601,-2.53716 11.475954,11.475954 0 0 1 3.030498,-4.287332 c 1.620963,-1.174612 1.750171,-2.819068 2.889544,-4.47527 a 19.005214,19.005214 0 0 1 2.349223,-2.1143 c 0.669528,-0.693021 1.867632,-2.666369 2.772083,-2.689861 a 10.806425,10.806425 0 0 0 -1.902871,2.924783 c -1.656202,2.983513 -3.523834,3.817487 -4.193363,5.779088 a 7.2003683,7.2003683 0 0 1 -0.258414,1.021912 c -0.42286,0.740005 -1.386042,0.434606 -2.173031,0.939689 -1.010166,0.634291 -0.716513,2.161285 -1.280327,3.183197 -1.115881,2.032078 -3.993679,4.815907 -4.604477,6.060996 -0.164445,0.317145 -0.105715,0.728259 -0.293653,1.05715 -0.352383,0.622544 -1.90287,1.42128 -0.869212,2.208269 1.597471,-0.857466 2.349223,-2.349222 3.523834,-3.68828 0.810482,-0.951435 0.78699,-2.137792 1.562233,-3.11272 1.245089,-1.562233 2.349223,-3.124466 3.41812,-4.698446 0.352383,-0.493337 0.927943,-0.833974 1.315565,-1.386041 0.387621,-0.552068 0.258414,-0.951436 0.974927,-1.174612 a 0.10571503,0.10571503 0 0 1 -0.09397,-0.05873 36.178033,36.178033 0 0 0 3.230182,-4.393047 c 0.880958,-1.597472 2.173031,-3.018752 2.913036,-4.698446 a 22.869685,22.869685 0 0 1 3.394627,-5.638135 c 0.622544,-0.728259 1.010166,-1.562233 1.620964,-2.349223 0.610798,-0.78699 1.045404,-1.656202 0,-2.349223 -2.84256,3.523834 -2.032078,3.171451 -3.418119,5.156544 -0.469845,0.669529 -0.869213,1.397788 -1.36255,1.973348 -0.493336,0.575559 -1.374295,1.174611 -2.032077,1.808901 -3.84098,3.711773 -4.252094,5.414959 -5.497182,6.859731 -1.245088,1.444772 -2.431446,2.548907 -3.47685,3.723519 -1.045404,1.174611 -4.768922,6.248933 -5.403213,7.047668 -2.548907,3.065736 -1.339057,3.523835 -4.404793,7.306084 -0.223176,0.27016 -0.904451,0.716513 -0.939689,1.05715 0,0.646036 1.174612,1.585725 1.656202,1.620964 0.281907,-0.552068 0.176192,-1.292073 0.411114,-1.926363 a 15.011535,15.011535 0 0 1 1.597472,-2.490176 c 0,0 2.466684,-4.287332 3.582565,-5.661628 z"
           id="path53"
           inkscape:connector-curvature="0"
           style="fill:#ffffff;stroke-width:1.17461145" />
        <path
           class="cls-5"
           d="m 45.307319,76.816134 c 2.713353,-2.689861 2.043824,-2.572399 6.89497,-8.222281 14.095337,-12.450881 1.503502,-0.681274 12.521358,-11.746114 0.246668,-0.234923 1.761917,-2.349223 2.020332,-2.490177 0.05873,0 3.723518,-3.981932 1.832393,-3.523834 a 8.6921248,8.6921248 0 0 0 -0.90445,0.939689 v 0.164446 l -1.597472,1.961601 v 0.21143 c -8.128311,8.386726 -5.473689,5.943534 -10.571503,10.289596 -0.176192,0.270161 0.140953,-0.05873 -2.231762,2.173032 a 64.603631,64.603631 0 0 0 -8.492441,8.997524 c -3.136212,3.147958 -2.666368,2.607637 -2.220016,3.300658 0.199684,0.317145 0.610798,0 1.656203,-0.434607 a 1.9263628,1.9263628 0 0 0 1.092388,-1.620963 z"
           id="path55"
           inkscape:connector-curvature="0"
           style="fill:#ffffff;stroke-width:1.17461145" />
        <path
           class="cls-5"
           d="m 71.125279,27.0361 c 0.05873,1.761917 -3.335896,13.602001 -3.065736,12.920726 -2.349223,5.873057 -0.963181,1.491756 -3.523834,7.388306 a 14.800104,14.800104 0 0 1 -4.099394,5.003845 c -0.540321,0.516829 -6.072741,5.16829 -6.425125,5.873057 -0.152699,0.270161 -3.523834,2.936529 -3.523834,2.936529 -1.550487,0.646036 -2.501923,1.867632 -3.993679,2.772083 -0.293653,0.176192 -2.466684,1.867632 -2.772083,1.996839 0,0 -6.225441,3.934949 -7.74069,4.698446 a 12.826757,12.826757 0 0 0 -2.231762,1.174612 c -0.63429,0.469844 -1.491756,0.63429 -1.092388,0.974927 a 1.3742954,1.3742954 0 0 0 1.42128,0.434606 c 0.528575,-0.223176 3.723518,-2.196523 3.993679,-2.349222 0.27016,-0.1527 3.970186,-2.713353 4.451777,-3.030498 0.481591,-0.317145 4.075902,-2.595891 4.275586,-2.736845 0.199684,-0.140953 2.513668,-1.996839 3.089228,-2.349223 a 34.063732,34.063732 0 0 0 5.943534,-4.639715 c 0,0 7.623228,-7.599736 8.43371,-8.891809 0.411114,-0.63429 2.149539,-3.523834 2.149539,-3.523834 a 14.482959,14.482959 0 0 1 0.399368,-1.620964 c 0.117461,-0.199684 0.716513,-0.610798 0.822228,-0.857466 0.105715,-0.246669 0.305399,-1.174612 0.305399,-1.174612 a 25.653514,25.653514 0 0 0 1.174612,-5.003845 35.238344,35.238344 0 0 0 1.891124,-5.367974 c 2.501923,-8.151804 0.08222,-5.555912 0.117461,-4.627969 z"
           id="path57"
           inkscape:connector-curvature="0"
           style="fill:#ffffff;stroke-width:1.17461145" />
        <path
           class="cls-5"
           d="m 32.750723,-6.2758814 c 1.444772,-1.3038187 -1.679695,-0.3288912 -1.538741,0.6577824 0.105715,0.4698446 1.538741,-0.6577824 1.538741,-0.6577824 z"
           id="path59"
           inkscape:connector-curvature="0"
           style="fill:#ffffff;stroke-width:1.17461145" />
        <path
           class="cls-5"
           d="m 38.459334,60.853164 c 6.072742,-2.05557 8.10482,-2.443192 10.172136,-3.970187 0.575559,-0.42286 5.708611,-3.782249 5.708611,-3.782249 0,0 -0.434606,-0.375875 -0.704766,-0.187938 -0.270161,0.187938 -0.78699,0.258415 -0.963182,0 -0.176192,-0.258414 1.773664,-1.503502 1.773664,-1.503502 a 44.376821,44.376821 0 0 0 4.369554,-4.334317 27.990991,27.990991 0 0 0 1.703187,-3.124466 24.150012,24.150012 0 0 1 1.339057,-3.523835 c 0.199684,-0.493336 1.174611,-3.676533 1.26858,-3.981932 0.09397,-0.305399 0.693021,-4.087648 0.740005,-4.451778 0.04698,-0.364129 0.72826,-3.523834 0.78699,-3.840979 0.505083,-3.523835 0.763498,-10.571504 1.05715,-12.650566 0,-0.364129 -0.622544,-0.493337 -0.622544,-0.493337 -1.350803,8.222281 -0.09397,7.987358 -2.501922,20.637924 -0.105715,0.516829 -2.525415,8.64514 -3.923202,10.266104 -3.335897,3.946695 -1.021912,1.468264 -4.416539,4.557492 -3.993679,4.698446 -2.971767,3.934949 -6.801001,6.389887 -6.131472,2.267 -3.829233,0.352383 -8.515933,3.183197 a 44.165391,44.165391 0 0 0 -8.492441,0.434606 c -0.434606,0.117461 -1.832394,0.08222 -2.208269,0.164446 A 7.6584668,7.6584668 0 0 0 26.031945,61.6519 c -0.21143,0.293653 0.78699,0.69302 1.045404,0.657782 a 11.288016,11.288016 0 0 0 2.114301,-0.552067 25.066209,25.066209 0 0 1 3.300658,-0.493337 c 0.434606,-0.117461 2.149539,0 2.501923,-0.105715 a 9.3968917,9.3968917 0 0 1 1.879378,-0.446353 l 0.84572,0.05873 a 33.253251,33.253251 0 0 1 -6.16671,1.374295 c 0,0 -2.666368,0.704767 -2.90129,0.810482 -0.99842,0.411114 -3.394627,-0.540321 -3.981933,2.78383 -0.270161,1.491756 1.174611,-0.716513 1.597471,-0.951436 2.889545,-1.761917 9.302923,-1.573979 12.192467,-3.934947 z"
           id="path61"
           inkscape:connector-curvature="0"
           style="fill:#ffffff;stroke-width:1.17461145" />
        <path
           class="cls-5"
           d="m 63.243636,13.081716 c 0,0.246668 -1.068896,3.641295 -1.174611,4.334316 -0.223176,5.274005 0.599052,3.523834 -2.349223,17.266788 v 0 a 6.354648,6.354648 0 0 1 -0.446352,2.231762 c -0.117462,0.740005 0.117461,1.339057 -3.770503,6.143218 -1.280327,1.562233 -5.168291,5.978773 -6.260679,6.601317 -1.092389,0.622544 -3.05399,2.05557 -3.817488,2.349223 -0.763497,0.293652 -1.562233,0.869212 -1.996839,0.986673 a 35.167867,35.167867 0 0 0 -4.017171,0.939689 5.1565443,5.1565443 0 0 0 -0.563814,0 3.5238344,3.5238344 0 0 0 -0.387622,0.328892 l -1.597471,0.446352 a 0.68127465,0.68127465 0 0 1 -0.375876,0.105715 c -0.481591,0 -0.939689,0.540321 -1.327311,0.281907 a 1.0923887,1.0923887 0 0 0 -0.411114,-0.08222 33.852302,33.852302 0 0 1 -5.626389,0.328891 3.0422437,3.0422437 0 0 0 -0.434606,0.08222 c -1.280326,-0.199684 -1.05715,0.246668 -3.629549,-0.246669 -0.916197,0.117462 -0.434607,0.129208 -3.41812,-0.763497 a 2.1612851,2.1612851 0 0 1 -0.281906,0.21143 c -0.434607,0.927943 -0.540322,0.328891 -1.327311,-0.57556 -0.563814,-0.293652 -0.458099,-0.234922 -3.288913,-0.939689 -0.399367,-0.458098 -0.740005,0 -0.833974,0.563814 1.280327,0.99842 1.938109,0 3.41812,1.515249 0.775243,0.563813 1.174611,0.90445 2.137793,0.610798 0,0 4.698445,0.516829 4.921622,0.387621 a 9.114985,9.114985 0 0 1 3.171451,-0.164445 c 0.387621,0.105715 0.42286,0.364129 0.69302,0.328891 0.270161,-0.03524 2.525415,0.105715 2.819068,0 0.293653,-0.105715 -0.164446,-0.199684 0.927943,-0.387622 4.32257,-0.740005 -2.349223,0.657783 8.281011,-1.926363 0.716513,-0.293653 2.349223,-1.010166 3.077482,-1.362549 1.174611,-0.728259 4.240347,-2.68986 4.240347,-2.68986 a 35.46152,35.46152 0 0 0 2.760337,-2.278746 c 0.129207,-0.187938 2.701606,-2.725099 2.889544,-2.936529 0.187938,-0.21143 2.043824,-2.936529 2.184778,-3.136213 a 6.8010004,6.8010004 0 0 0 1.515248,-2.196523 c 0.258415,-0.610798 0.880959,-1.808902 0.916197,-1.99684 0.434607,-2.255254 0.270161,-0.352383 1.444772,-7.16513 0.187938,-1.033658 0.129208,-1.985093 0.258415,-2.173031 0.129207,-0.187938 0.646036,-4.334316 0.763497,-4.534 0,0 0.246669,-3.312404 0.352384,-3.934948 a 4.2286013,4.2286013 0 0 1 0.105715,-2.513669 c 0,-0.352383 1.397788,-4.075902 1.174611,-4.346062 -0.223176,-0.270161 -0.716513,0.305399 -0.716513,0.305399 z"
           id="path63"
           inkscape:connector-curvature="0"
           style="fill:#ffffff;stroke-width:1.17461145" />
        <path
           class="cls-5"
           d="m 77.174528,39.874603 -0.528575,0.469845 c -2.713352,5.685119 -3.817487,4.698446 -4.299078,8.22228 a 8.2222803,8.2222803 0 0 0 -2.349223,2.854306 c -1.667948,2.47843 -0.528575,1.092388 -5.649881,6.765762 -8.891809,10.571503 -6.636555,5.990518 -11.511192,11.746114 l -2.68986,2.678115 c -1.503503,0.90445 -2.666368,3.934948 -2.701607,4.146378 0,0.434606 -2.1143,3.406373 -2.043824,3.782249 0.07048,0.375876 0.622544,-0.434606 0.622544,-0.434606 4.216855,-4.862892 2.924783,-3.077482 5.68512,-7.834659 3.32415,-3.523834 1.174611,-1.797155 4.592731,-4.851145 0.84572,-0.740005 0.446352,0 0.08222,0.939689 0,0 -1.597471,1.973347 -1.949855,2.278746 -0.352383,0.305399 -3.394627,4.322571 -3.653041,4.557493 0,0 -2.99526,5.391466 -3.077482,5.755596 -0.08222,0.36413 0.681274,0.281907 0.681274,0.281907 l 2.736845,-3.523835 a 13.355332,13.355332 0 0 1 0.693021,-2.513668 c 4.698446,-5.567659 2.196523,-2.63113 4.075902,-4.569239 0.387621,-0.411114 1.667948,-2.161285 1.820647,-2.349223 0.1527,-0.187938 0.880959,-2.349223 0.880959,-2.349223 a 10.571503,10.571503 0 0 1 2.349223,-2.196523 c 1.256834,-0.904451 2.68986,-3.429866 5.32099,-6.213695 3.700026,-4.534 4.346062,-4.862891 4.205109,-5.191782 a 43.918723,43.918723 0 0 0 7.129891,-12.098498 c 1.104135,-2.689861 -0.42286,-0.352384 -0.42286,-0.352384 z"
           id="path65"
           inkscape:connector-curvature="0"
           style="fill:#ffffff;stroke-width:1.17461145" />
        <path
           class="cls-5"
           d="m 13.334395,43.116531 c 0.1527,0.05873 0.105715,0 0.176192,0 z"
           id="path67"
           inkscape:connector-curvature="0"
           style="fill:#ffffff;stroke-width:1.17461145" />
        <path
           class="cls-5"
           d="m 75.882456,36.620929 -0.21143,1.174612 a 19.134421,19.134421 0 0 1 -2.654622,4.287332 c -0.892705,3.429865 -0.234923,1.84414 -3.05399,7.129891 0.36413,0.869213 0.939689,-0.152699 1.808902,-1.656202 a 20.908084,20.908084 0 0 1 3.770502,-6.789254 l 1.057151,-2.349223 0.07048,-1.985094 a 0.77524357,0.77524357 0 0 0 -0.786989,0.187938 z"
           id="path69"
           inkscape:connector-curvature="0"
           style="fill:#ffffff;stroke-width:1.17461145" />
        <path
           class="cls-5"
           d="m 68.658595,29.902152 a 44.341583,44.341583 0 0 1 -1.174611,4.275585 c -1.104135,3.653042 0.140953,1.339058 -1.902871,5.508928 -3.735264,6.613063 -2.267,3.523835 -3.864472,6.754016 0,0 -1.609217,1.926363 -1.738424,2.126047 -0.129208,0.199684 -3.065736,3.241928 -3.371135,3.394627 -0.305399,0.1527 -1.914617,1.327311 -2.877798,2.090808 -6.648301,5.274006 -7.458783,4.393047 -10.336581,5.614643 -3.124467,1.315565 -2.008586,1.174612 -4.698446,1.855886 l -2.349223,0.99842 c -0.223176,0.09397 -2.866052,0.798736 -3.124467,0.810482 -0.258414,0.01175 -3.523834,1.174612 -3.876218,1.327311 a 26.722411,26.722411 0 0 0 -3.312404,1.092389 c -0.293653,0.281906 -0.411114,1.104134 0.08222,0.939689 6.248933,-2.008586 2.008586,-0.328891 7.37656,-2.126047 1.174611,-0.399368 1.773663,-0.446352 2.513668,-0.763497 0.740006,-0.317145 2.701607,-1.268581 3.359389,-1.526995 L 41.97142,61.22904 a 23.680167,23.680167 0 0 1 3.523834,-1.480011 c 0.469845,0 2.349223,-0.458098 1.773663,-0.08222 -1.503502,1.092389 -5.74385,2.161285 -7.787674,3.194943 -3.018751,1.526995 -10.195627,4.20511 -10.301342,4.252094 -0.105715,0.04698 -3.324151,0.57556 -2.079062,0.822228 1.245088,0.246668 1.433026,0.328891 2.267,0 0.833974,-0.328891 3.970186,-1.362549 4.498762,-1.585725 4.064155,-1.726679 7.905135,-3.042244 7.905135,-3.042244 7.85815,-3.382881 17.125835,-12.721042 18.22997,-13.613747 1.785409,-1.433026 2.05557,-1.879378 6.883223,-11.335001 a 19.733473,19.733473 0 0 1 -2.548907,6.201949 c -3.335897,6.272425 -2.349223,3.758757 -4.193363,5.95528 a 43.906977,43.906977 0 0 1 -3.923202,3.676534 c -0.540321,0.328891 -2.255254,1.891124 -2.525415,2.102554 -3.981933,3.241928 -5.32099,4.05241 -6.096233,4.698446 -0.317145,0.234923 -2.701607,1.550487 -2.971767,1.773664 -1.174612,0.939689 -7.705452,2.47843 -8.762602,3.241927 a 12.12199,12.12199 0 0 1 -3.805741,1.867632 c -0.681275,0.1527 -3.26542,0.857467 -2.783829,1.374296 a 1.1746115,1.1746115 0 0 0 1.26858,0.293653 c 3.277166,-1.386042 1.010166,-0.728259 4.815907,-1.938109 0.258415,-0.07048 8.22228,-3.793995 7.435291,-2.936529 -0.78699,0.857466 -3.664788,1.797156 -4.122886,2.114301 l -4.193363,2.349223 a 22.317618,22.317618 0 0 0 -2.877799,1.26858 c -0.317145,0.340637 -0.446352,1.010166 -0.281906,1.174612 0.599052,0.516829 2.889544,-0.36413 3.523834,-1.268581 0.810482,-1.174611 1.104135,-0.833974 2.948275,-1.714933 0.328891,-0.281906 5.027337,-2.795575 5.638135,-3.194943 1.045404,-0.704767 1.620964,-1.315565 1.996839,-1.515249 0.375876,-0.199684 1.57398,-1.550487 2.055571,-1.855886 a 52.728309,52.728309 0 0 0 4.580984,-2.971767 16.056939,16.056939 0 0 1 1.726679,-1.562233 c 1.714933,-0.939689 7.411798,-7.22386 8.891809,-8.410218 0.810482,-0.657782 1.362549,-2.537161 1.562233,-2.783829 a 18.887752,18.887752 0 0 0 0.892705,-1.973347 34.063732,34.063732 0 0 0 2.349223,-5.133053 c 0.399368,-3.32415 0.458098,-3.805741 0.786989,-4.627969 0,-0.07048 2.349223,-6.918461 2.595892,-9.878482 0.458098,-2.760337 -0.704767,-3.770503 -2.20827,5.215275 z"
           id="path71"
           inkscape:connector-curvature="0"
           style="fill:#ffffff;stroke-width:1.17461145" />
        <path
           class="cls-5"
           d="m 66.884932,16.640788 c -0.317145,-0.281906 -0.317145,1.374296 -0.399368,1.820648 -0.08222,0.446352 -0.563813,1.26858 -0.411114,1.961601 A 17.466472,17.466472 0 0 1 65.416668,25.051006 35.531997,35.531997 0 0 0 65.28746,29.3031 c -1.174611,6.248933 -0.681274,4.886384 -2.349223,9.126731 l -0.540321,3.124466 c -1.48001,2.877799 -0.84572,1.585726 -2.819067,5.732104 a 10.653726,10.653726 0 0 1 -1.597472,1.57398 c -0.411114,0.176192 -2.443192,2.548907 -2.713352,2.736845 -0.270161,0.187937 -0.129208,0.328891 0,0.540321 0.129207,0.21143 2.349222,-1.961601 2.642875,-2.220016 0.293653,-0.258414 3.124467,-3.523834 3.312405,-3.74701 0.187937,-0.223177 1.726679,-3.864472 1.726679,-3.864472 0,0 0.575559,-0.587306 0.939689,-0.880959 a 13.202633,13.202633 0 0 0 1.021912,-2.783829 c 1.021912,-2.490176 0.352383,-1.468264 2.619383,-7.047669 0.234923,-0.587305 0.458099,-3.159705 0.646037,-4.334316 0.187937,-1.174612 1.315564,-3.735265 1.456518,-4.698446 0.140953,-0.963181 -0.340638,-0.340637 -0.880959,0 -0.540321,0.340637 -0.775243,2.877798 -0.775243,2.877798 l -0.822228,1.656202 c -2.161286,12.580089 -5.990519,19.322359 -2.431446,8.222281 1.080642,-3.241928 0.728259,-2.255254 1.69144,-8.715617 l 0.751752,-0.99842 a 4.8393992,4.8393992 0 0 0 0.317145,-1.679695 c 0,-0.258414 1.104135,-2.607637 0.986673,-3.183197 -0.117461,-0.575559 -0.599051,-0.293653 -0.869212,-0.105715 -0.270161,0.187938 -0.105715,3.20669 -0.916197,3.68828 -0.387622,0.234923 -0.199684,-2.255254 -0.117461,-2.560653 1.503502,-6.366394 1.021912,-4.522254 0.317145,-5.121306 z"
           id="path73"
           inkscape:connector-curvature="0"
           style="fill:#ffffff;stroke-width:1.17461145" />
        <path
           class="cls-5"
           d="m 67.483984,19.119218 c -0.08222,0.305399 0.21143,0.669529 0.281907,0.845721 0.07048,0.176191 0.704766,-0.293653 0.704766,-0.293653 A 1.0688964,1.0688964 0 0 0 68.13002,18.367467 c -0.469845,-0.399368 -0.528575,0.446353 -0.646036,0.751751 z"
           id="path75"
           inkscape:connector-curvature="0"
           style="fill:#ffffff;stroke-width:1.17461145" />
        <path
           class="cls-5"
           d="m 55.291517,47.861961 c -0.223176,0.258415 -7.047669,6.730524 -7.658467,6.965446 -0.610798,0.234922 -3.817487,1.750171 -4.627969,1.961601 -0.810482,0.21143 -7.634975,2.349223 -9.032762,2.090809 -0.810482,-0.129208 -3.852726,0.187937 -4.099394,0.08222 -0.246669,-0.105715 -7.047669,0 -6.060996,0.986674 0.505083,0.540321 0.493337,0.822228 1.033659,0.657782 4.522254,-1.327311 11.499446,-0.387621 17.219804,-2.807321 6.43687,-1.832394 4.980352,-1.491757 10.806425,-6.354648 a 35.766919,35.766919 0 0 0 6.495602,-7.646721 c 0.305399,-0.469844 0.880958,-3.136212 2.501922,-8.081327 1.961601,-8.891808 0.822228,-3.523834 1.855886,-12.227705 a 22.082696,22.082696 0 0 1 0.234922,-3.394627 c 0.187938,-0.223176 0.387622,-2.995259 0.646037,-3.864472 0.258414,-0.869212 0.411114,-1.961601 0.21143,-2.090808 -0.199684,-0.129207 -0.516829,0.223176 -0.646037,0.411114 -0.129207,0.187938 -0.740005,3.147959 -0.740005,3.147959 v 2.807321 a 25.911929,25.911929 0 0 0 -0.387622,3.523834 c 0.07048,0.657783 -0.63429,3.523835 -0.528575,4.146379 0.105715,0.622544 -0.904451,4.040663 -0.810482,4.275586 A 22.059203,22.059203 0 0 1 61.32902,35.25838 c -1.691441,4.440031 -1.280327,3.406373 -1.973348,5.10956 a 20.532208,20.532208 0 0 0 -2.067316,2.454938 c -0.63429,1.573979 -7.364814,9.267684 -14.694389,12.016275 0,0 0.375875,0.387622 -0.164446,0.751751 A 12.521358,12.521358 0 0 1 39.83363,56.624563 L 38.118697,56.8125 c 0.105715,-0.411114 0.246669,-0.411114 2.819068,-1.327311 0,0 0.105715,-0.399367 -0.1527,-0.352383 a 8.2222803,8.2222803 0 0 0 -1.69144,0.234922 c -0.798736,0.328892 -4.428286,1.538741 -4.945115,1.679695 -1.256834,0.328891 -8.680378,-0.399368 -8.797839,0.21143 0,0.223176 0.09397,1.174611 0.493336,1.174611 0.399368,0 3.359389,0 3.594311,-0.140953 a 22.70524,22.70524 0 0 1 2.936529,-0.21143 c 0.693021,0 3.077482,-0.540321 3.735265,-0.469845 A 16.820436,16.820436 0 0 0 42.52349,56.33091 c 2.231762,-1.080643 2.584145,-1.174612 3.206689,-1.550487 0.622545,-0.375876 3.218436,-1.985094 3.371135,-2.126047 3.535581,-3.100974 3.112721,-2.126047 5.943534,-5.367975 0.187938,-0.223176 2.642876,-3.053989 2.736845,-3.300658 0.09397,-0.246668 1.433026,-2.807321 1.550487,-2.349223 0.328891,1.20985 -3.124466,5.168291 -4.040663,6.225441 z"
           id="path77"
           inkscape:connector-curvature="0"
           style="fill:#ffffff;stroke-width:1.17461145" />
        <path
           class="cls-5"
           d="m 32.738977,-1.518705 a 33.124043,33.124043 0 0 0 -5.26226,2.7133525 7.0476688,7.0476688 0 0 1 -1.714932,0.8574664 c -0.281907,0.1292073 -2.079063,1.433026 -2.255254,1.5152488 -0.176192,0.082223 -1.374296,1.7619172 0.328891,0.2701606 0.728259,-0.3758756 2.431445,-1.0923886 3.700026,-1.84414 0.528575,-0.305399 5.579404,-2.91303641 5.59115,-2.91303641 a 39.443453,39.443453 0 0 0 6.965446,-3.23018149 c 0,0 0.716513,-0.4346063 0.458099,-0.8692125 -0.258415,-0.4346063 -1.808902,0.7634974 -2.807322,1.1746114 -4.32257,1.8206478 0.375876,-0.4580984 -5.003844,2.3257307 z"
           id="path79"
           inkscape:connector-curvature="0"
           style="fill:#ffffff;stroke-width:1.17461145" />
        <path
           class="cls-5"
           d="m 10.996918,21.867809 a 8.0578347,8.0578347 0 0 1 2.102555,-1.714932 5.8730573,5.8730573 0 0 0 1.327311,-1.597472 c 0.622544,-0.951435 1.303819,-0.963181 1.926363,-1.63271 0.963181,-1.080643 -1.080643,-0.293653 1.879378,-2.866052 a 25.077955,25.077955 0 0 1 2.008586,-1.609218 21.436659,21.436659 0 0 1 1.69144,-2.032077 23.97382,23.97382 0 0 1 5.732104,-3.2419281 C 28.522121,6.7975442 32.703738,3.2502176 34.559624,2.474974 34.794547,2.369259 37.073293,0.92448689 37.366946,0.79527963 37.660599,0.66607236 39.387278,0.21972001 39.716169,0.09051275 40.04506,-0.03869451 41.771739,-1.3894977 42.065392,-1.518705 a 22.070949,22.070949 0 0 0 3.523834,-1.8558861 c 1.174612,-0.8574663 -1.832394,-0.105715 -2.642876,0.4346063 -0.810482,0.5403212 -3.523834,1.644456 -4.369554,2.05557003 -0.845721,0.41111401 -1.104135,0.90445083 -1.63271,1.24508815 C 36.415511,0.70131071 35.041215,1.5352848 34.51264,1.9463989 33.984065,2.3575129 32.680246,2.9918031 30.906583,4.013715 27.664655,5.8930934 27.547194,6.6800831 23.248116,8.4772386 22.261442,8.9000987 21.779852,9.7223268 21.486199,9.851534 21.192546,9.9807413 20.170634,9.9924874 19.618567,10.156933 a 6.7422698,6.7422698 0 0 0 -2.20827,1.609218 5.6498811,5.6498811 0 0 1 -1.949855,1.726679 c -0.270161,0.164445 -5.53242,3.923202 -5.8730574,4.181616 -0.3406373,0.258415 -0.1996839,0.845721 -0.3288912,1.033658 -1.3742954,2.102555 -1.0806425,1.42128 -2.7485908,3.089229 -0.2466684,0.246668 -0.8339741,0.493336 -1.4565182,0.963181 -0.6225441,0.469845 0,0.42286 0,0.599052 0,0.176192 1.4917565,-1.033658 1.84414,-1.174612 a 46.185723,46.185723 0 0 0 4.5574926,-4.698445 c 0.140953,-0.340638 0.493337,-0.622545 1.738425,-1.773664 a 8.6216482,8.6216482 0 0 1 2.995259,-1.597471 14.001369,14.001369 0 0 0 1.797156,-1.444772 c 0.775243,-0.610798 0.657782,-0.904451 1.433026,-1.503503 0.775243,-0.599052 0.786989,0.07048 0.786989,0.07048 -4.487016,4.968606 -6.554332,4.404793 -8.363233,6.789254 A 39.490437,39.490437 0 0 1 8.4245193,21.668128 5.53242,5.53242 0 0 0 6.9445088,23.05417 c -0.5520673,1.068896 -3.1127203,2.043824 -1.3625493,2.161285 0.2819068,0 1.7736634,-1.503503 2.1965235,-1.820648 a 20.391255,20.391255 0 0 0 1.4447721,-1.644456 c 0.2349223,-0.234922 1.6444559,-1.315565 2.3492229,-2.126047 0.704767,-0.810481 0.986674,-1.245088 1.785409,-2.126046 0.798736,-0.880959 0.552068,-1.174612 1.562234,-1.350804 1.315565,-0.293652 -2.877798,4.20511 -4.698446,5.497182 a 4.6984459,4.6984459 0 0 0 -1.0806427,1.174612 46.596837,46.596837 0 0 1 -3.5238344,3.359388 c -1.0571503,0.927943 -0.5403213,0.505083 -0.5990519,0.880959 -0.05873,0.375876 4.1463785,-2.795575 5.978772,-5.191783 z"
           id="path81"
           inkscape:connector-curvature="0"
           style="fill:#ffffff;stroke-width:1.17461145" />
        <path
           class="cls-5"
           d="M 8.9648406,17.697939 C 9.317224,17.416032 9.9515142,16.793488 9.9515142,16.793488 a 43.531101,43.531101 0 0 0 7.4352908,-5.555912 c 2.043824,-2.20827 -0.728259,0.505082 7.317829,-4.5457468 a 17.713141,17.713141 0 0 0 3.62955,-1.9733473 14.095338,14.095338 0 0 1 2.736844,-1.3390571 14.623913,14.623913 0 0 0 2.701607,-1.9616011 c 0.317145,-0.2231762 6.413378,-3.7470106 6.695285,-3.8762178 a 6.4603631,6.4603631 0 0 0 2.349223,-1.6092177 c 1.245088,-1.1746115 -1.48001,0.070477 -2.008586,0.2936528 -0.528575,0.2231762 -1.339057,1.0571503 -1.996839,1.4682644 -0.657783,0.411114 -0.763498,0.3288912 -1.585726,0.8104819 -1.444772,0.85746634 -2.971767,-0.1409534 -2.983513,0.77524354 l 1.374296,0.31714509 C 28.991966,3.5438705 28.569106,3.6613316 28.146246,3.9314922 a 7.2121144,7.2121144 0 0 1 -2.619384,1.4565183 c -1.797155,0.3876217 5.638135,-4.1111402 7.74069,-5.00384489 0.469844,-0.19968395 0.140953,-0.46984458 -0.164446,-0.55206739 A 31.937686,31.937686 0 0 0 28.886251,1.758461 c -0.446352,0.2584145 -1.949855,1.5857255 -2.513669,1.7854095 a 9.5848296,9.5848296 0 0 1 -1.820647,0.4228601 c -0.939689,0.1879378 -0.857467,0.5638135 -1.010166,0.7047669 a 10.982617,10.982617 0 0 0 -0.951435,1.644456 7.8346585,7.8346585 0 0 1 -1.679695,1.2568343 C 17.974111,9.4874045 18.209033,8.923591 17.445535,8.829622 a 1.7266789,1.7266789 0 0 0 -1.174611,0.2936529 22.12968,22.12968 0 0 0 -5.438451,3.6178031 3.8644717,3.8644717 0 0 1 -2.3492231,0.563814 4.6279692,4.6279692 0 0 0 -2.6663681,1.327311 c -0.2231761,0.305399 0.1879379,1.104134 0.505083,1.374295 0.3171451,0.270161 0.2936528,-0.610798 0.4346062,-1.080642 0.1409534,-0.469845 0.4346062,-0.117462 0.8809586,0.117461 0.4463524,0.234922 0.411114,0.646036 0.5873057,0.575559 L 11.431525,13.91569 a 38.93837,38.93837 0 0 0 3.335896,-2.866052 2.3492229,2.3492229 0 0 1 1.444772,-0.669529 c 0.552068,-0.164445 0.411114,0.646036 0.411114,0.646036 -3.653041,2.63113 -1.456518,0.78699 -6.331155,4.26384 -1.4330265,1.021912 -1.2568348,0.458099 -1.5387415,0.587306 -0.2819068,0.129207 -0.411114,0.516829 -0.6577824,0.892705 -0.5168291,0.775243 -2.2082696,1.750171 -2.7250986,2.53716 -0.5168291,0.78699 2.9600209,-1.104134 3.5943111,-1.609217 z"
           id="path83"
           inkscape:connector-curvature="0"
           style="fill:#ffffff;stroke-width:1.17461145" />
        <path
           class="cls-5"
           d="m 10.186436,9.8985185 c 1.104135,-0.4228601 3.41812,-1.9263628 4.017172,-2.2200157 1.362549,-0.7047669 5.297497,-3.6765339 5.356228,-3.7117722 0.399368,-0.2819068 1.174611,-1.1746115 1.562233,-1.4447721 a 17.454726,17.454726 0 0 1 1.562233,-0.8104819 c 3.899711,-2.06731621 2.983514,-2.00858564 4.862892,-2.866052 a 11.85183,11.85183 0 0 0 2.126047,-0.9514353 7.6467206,7.6467206 0 0 1 2.349223,-1.4917566 c 1.397787,-0.6107979 3.089228,-1.5035026 3.26542,-1.5739793 0.176191,-0.070477 1.433025,-1.4917566 0.27016,-1.0454042 a 43.801262,43.801262 0 0 0 -6.601316,2.9482748 18.793783,18.793783 0 0 0 -2.032078,1.3155648 10.477534,10.477534 0 0 1 -1.585726,1.17461146 17.959809,17.959809 0 0 1 -2.079062,1.4447721 27.016064,27.016064 0 0 1 -4.827653,1.92636284 l -0.610798,-0.093969 c 8.445456,-4.404793 0.469845,0.5403212 12.69755,-7.4470367 1.808902,-2.349223 -8.598156,5.4854355 -6.707032,2.7016063 l -0.387621,-0.2466684 a 10.207374,10.207374 0 0 0 -1.832394,0.1644456 c -0.352384,0.1409534 -1.245088,1.62096385 -1.245088,1.62096385 -0.78699,1.49175656 -3.136213,1.46826433 -5.309244,3.07748205 0,0 -0.07048,0.1644456 -1.174612,0.7869897 -1.738425,0.9396891 -3.077482,0.2584145 -1.292072,2.466684 0,0 -0.904451,-0.1644456 -1.174612,0.093969 -0.27016,0.2584145 -0.622544,0.822228 -0.234922,1.0688964 A 2.8777981,2.8777981 0 0 0 13.322649,6.691829 C 13.745509,6.3864302 15.883302,4.929912 16.611561,4.3426063 17.33982,3.7553005 17.480774,3.1679948 18.032841,3.4733938 17.774427,4.1429223 18.091572,3.908 17.680458,4.2838757 a 21.777297,21.777297 0 0 1 -2.4197,1.9616011 10.794679,10.794679 0 0 0 -1.526995,0.7987358 4.3225702,4.3225702 0 0 1 -1.397788,0.8457203 c -0.63429,0.21143 -0.916196,-0.082223 -1.879378,0.4346062 -0.9631813,0.5168291 -2.4549378,1.2920726 -1.6327098,1.5152488 0.822228,0.2231761 0.2466684,0.4698441 1.3625488,0.058731 z"
           id="path85"
           inkscape:connector-curvature="0"
           style="fill:#ffffff;stroke-width:1.17461145" />
        <path
           class="cls-5"
           d="m 9.1762706,12.506156 c 0.3171451,-0.05873 2.6781144,-1.339057 2.6781144,-1.339057 2.619383,-1.7501712 1.597471,-1.6562023 4.498762,-2.8660521 0.528575,-0.2231762 1.174611,-0.610798 1.526995,-0.7869897 a 2.7838292,2.7838292 0 0 1 1.256834,0 3.582565,3.582565 0 0 0 1.362549,-0.4463523 5.1917827,5.1917827 0 0 0 1.303819,-0.8339742 C 22.284935,5.8930934 22.02652,5.4584871 22.155727,5.2588032 22.284935,5.0591192 21.979536,4.3660985 21.979536,4.3660985 a 15.728048,15.728048 0 0 1 -1.339057,0.9161969 c -0.234923,0.093969 -0.458099,1.021912 -1.36255,0.8457203 -0.904451,-0.1761917 0.880959,-1.327311 1.280327,-1.7031866 a 4.6044769,4.6044769 0 0 1 1.433026,-0.6812747 c 1.738425,-1.0571503 5.203529,-3.34764267 5.250513,-3.39462713 0.669528,-0.54032128 9.737529,-4.58098467 11.475954,-5.61464277 1.738425,-1.0336581 -2.619384,0.4933368 -3.465104,0.927943 l -5.614643,2.8190675 c -0.587305,0.2466684 -1.397787,0.9279431 -2.102554,1.1746115 -4.768923,1.9968395 -2.807322,2.0790623 -6.754016,3.7470106 -0.176192,0.082223 -3.523834,2.6193835 -3.852726,3.4298655 -0.164445,0.411114 -0.446352,0.2466684 -1.339057,0.5638135 a 14.400737,14.400737 0 0 0 -2.889544,2.0203317 c -1.761917,1.2685802 -1.973347,0.6695282 -4.6984458,1.6679482 -1.0688965,0.387622 -0.2114301,0.293653 -0.4346063,0.740005 -0.2231762,0.446353 1.2920726,0.751752 1.6092177,0.681275 z"
           id="path87"
           inkscape:connector-curvature="0"
           style="fill:#ffffff;stroke-width:1.17461145" />
        <path
           class="cls-5"
           d="m 54.234366,8.7473992 c -0.822228,0.4815907 -0.622544,0.810482 -0.27016,0.6577825 0.352383,-0.1526995 2.349223,-1.5269949 3.26542,-2.0673162 A 6.7187776,6.7187776 0 0 0 58.404237,6.5038913 C 58.733128,6.2924613 58.12233,5.9988084 58.12233,5.9988084 57.69947,6.1750001 55.068341,8.2423163 54.234366,8.7473992 Z"
           id="path89"
           inkscape:connector-curvature="0"
           style="fill:#ffffff;stroke-width:1.17461145" />
        <path
           class="cls-5"
           d="m 45.283827,5.0591192 c -0.281907,0.1644457 -3.359389,2.5489069 -4.11114,2.866052 A 29.705924,29.705924 0 0 0 35.417091,12.28298 c -0.234923,0.411114 -0.869213,1.350803 -1.280327,2.090808 a 17.137581,17.137581 0 0 0 -1.245088,3.887964 10.360073,10.360073 0 0 0 -0.880958,2.349223 39.51393,39.51393 0 0 0 -0.293653,4.698446 11.381985,11.381985 0 0 0 1.174611,5.309244 17.302027,17.302027 0 0 0 2.877798,3.970186 3.7470106,3.7470106 0 0 0 2.936529,0.469845 c 1.855886,-0.78699 1.48001,-2.05557 1.90287,-3.077482 a 33.464681,33.464681 0 0 0 -0.03524,-3.770503 36.941531,36.941531 0 0 1 0.164446,-5.708611 c 0.05873,-0.234923 0.305399,-2.454938 0.340637,-2.63113 0.03524,-0.176192 0.763497,-1.973347 0.763497,-1.973347 -0.540321,-2.196524 -0.681274,1.679694 -1.174611,0.90445 -0.317145,-0.493336 0.08222,-1.26858 0.08222,-1.26858 0.375875,-1.174611 0.364129,-1.174611 0.84572,-1.550487 0.552067,1.550487 0.563814,-0.164446 1.010166,-1.256834 0.105715,-0.246669 1.174611,-2.043824 1.256834,-2.184778 0.08222,-0.140953 0.78699,-0.951435 2.196524,-2.995259 A 37.0355,37.0355 0 0 1 51.32133,6.1280157 C 52.766102,4.9534042 50.346402,5.4232488 48.431786,6.7388136 a 19.345851,19.345851 0 0 0 -2.736845,1.7149328 c -2.079062,2.3492226 -1.045404,1.4565182 -2.490176,3.6412956 -0.187938,0.293653 -0.763498,1.609218 -0.939689,1.949855 -0.176192,0.340637 -1.42128,1.63271 -1.609218,1.926363 a 7.0476688,7.0476688 0 0 0 -0.78699,1.926363 c 0,0.364129 -0.293653,1.879378 -0.21143,2.05557 0.08222,0.176191 0.622544,0.258414 0.716513,0.364129 0.09397,0.105715 0.199684,1.174612 -0.105715,1.339057 -0.305399,0.164446 -0.516829,-0.505083 -0.646036,-0.187938 a 30.128784,30.128784 0 0 0 0,5.732104 11.581669,11.581669 0 0 1 0.281907,3.241928 c -0.140954,0.599052 -0.08222,2.584145 -0.845721,3.253674 a 4.299078,4.299078 0 0 1 -1.068896,0.763497 3.9819329,3.9819329 0 0 1 -1.339057,-0.105715 7.8698968,7.8698968 0 0 1 -0.939689,-0.740005 c -0.763498,-0.775244 -0.693021,-0.305399 -1.174612,-4.510508 0,0 -0.493337,-0.822228 -0.552067,-0.587306 -0.05873,0.234923 0.657782,3.018752 0.281907,2.983513 -0.375876,-0.03524 -0.622545,-0.728259 -0.622545,-0.728259 l -0.223176,-1.938109 0.528575,-1.174611 a 36.342479,36.342479 0 0 1 -0.187937,-4.146379 c 0,-4.534 -0.21143,-3.629549 0.528575,-3.946694 0.387622,-0.164446 0.176191,1.115881 0,3.382881 a 7.9286274,7.9286274 0 0 1 0.305399,1.292072 c 0,1.902871 0.140953,3.194944 0.117461,3.676534 a 31.35038,31.35038 0 0 0 1.327311,5.097814 c 0.340637,0.822228 1.350803,0.78699 2.079062,0.352384 a 3.5238344,3.5238344 0 0 0 0.904451,-1.280327 c 0.317145,-0.552067 0.09397,-2.349223 0.223176,-3.05399 0.129207,-0.704767 -0.199684,-2.255254 -0.09397,-2.995259 0.199684,-1.409534 -0.352383,-2.654622 -0.939689,-1.738425 -0.129207,0.187938 0.317145,1.245088 0.352383,1.985093 0.03524,0.740006 0,2.901291 0,3.359389 a 17.008374,17.008374 0 0 1 -0.199683,2.149539 c -0.05873,0.399368 -1.174612,2.196524 -2.184778,-0.105715 -0.140953,-0.352383 -0.552067,-1.63271 -0.646036,-1.867632 -0.09397,-0.234922 -0.21143,-3.418119 -0.21143,-3.911456 0,-2.008586 0.493337,-1.174612 0.505083,-0.622544 0.08222,3.993679 0.258414,4.310824 0.669528,5.027337 0.258415,0.434606 0,-1.656202 0,-1.656202 0,0 -0.07048,-3.277166 -0.09397,-3.523835 -0.129207,-1.726679 -0.622544,-0.375875 0.08222,-4.369554 l 0.140954,-1.644457 a 21.824281,21.824281 0 0 1 1.092388,-2.936528 37.810743,37.810743 0 0 1 2.63113,-4.216855 13.7547,13.7547 0 0 1 3.641295,-4.0406638 c 0.505083,-0.4228601 0.869213,-0.2349223 0.869213,-0.2349223 a 8.0460885,8.0460885 0 0 1 -0.974928,0.9631814 c -0.42286,0.3171451 -1.397787,1.4212797 -1.644456,1.6562017 -0.246668,0.234923 -0.822228,1.315565 -0.951435,1.503503 -0.129207,0.187938 -0.563813,0.446353 -0.751751,0.669529 -0.187938,0.223176 -0.411114,0.657782 -0.305399,0.892704 0.105715,0.234923 0.387622,-0.375875 0.681274,-0.505083 0.493337,-0.199683 0.646037,0.352384 -0.129207,0.822229 a 6.9536999,6.9536999 0 0 0 -1.303819,1.174611 c -0.434606,0.657782 -0.974927,3.065736 -1.444772,3.582565 a 2.2670001,2.2670001 0 0 0 -0.575559,0.927943 c -1.033658,2.548907 -0.458099,2.866052 -0.728259,3.817487 -0.105715,0.399368 0.328891,1.585726 0.223176,1.985094 -0.105715,0.399368 0,1.42128 -0.05873,2.149539 -0.152699,1.080642 0.528575,3.007005 0.08222,4.099394 -0.164446,0.42286 0.234922,0.387621 0.469845,0.293653 a 1.1746115,1.1746115 0 0 0 0.352383,-1.115881 c -0.09397,-0.375876 0.140953,-3.582565 0.164446,-4.005425 a 20.238556,20.238556 0 0 0 -0.246669,-2.231762 c 0,0 -0.199684,-2.349223 -0.234922,-2.654622 a 6.5073475,6.5073475 0 0 1 0.528575,-2.020332 c 0.187938,-0.21143 0.305399,0.42286 0.129207,0.63429 -0.176191,0.21143 0,2.619384 -0.21143,2.913037 -0.21143,0.293653 0.164446,0.411114 0.622544,0.352383 0.458099,-0.05873 0.446353,-1.562233 0.446353,-1.562233 0,-2.983513 -0.246669,-2.043824 0.563813,-5.332736 2.349223,-3.394627 1.99684,-1.761917 2.454938,-4.146379 a 8.7860938,8.7860938 0 0 1 0.951435,-1.503502 9.5613373,9.5613373 0 0 1 2.807322,-3.1127207 39.72536,39.72536 0 0 1 4.874637,-2.8190675 25.677007,25.677007 0 0 0 2.736845,-0.8104819 c 0.164446,-0.082223 1.045404,-0.9279431 1.174612,-1.0571503 0.129207,-0.1292073 0.63429,-0.4815907 0.317145,-0.8927047 -0.317145,-0.411114 -1.433026,0.5285751 -1.703187,0.716513 -0.78699,0.5403212 -2.184777,1.0688964 -2.584145,1.3625493 a 13.002949,13.002949 0 0 1 -1.573979,0.5285751 c -4.252094,1.8089017 -4.20511,1.7501711 -5.873058,2.9600209 a 31.174188,31.174188 0 0 1 -3.159705,2.3492228 c -0.305399,0.129207 -3.970186,3.453358 -4.921622,5.802581 -0.140953,0.328891 -0.399368,1.339057 -0.399368,1.339057 -0.234922,1.48001 -0.176191,1.409534 -1.386041,2.102554 0.234922,2.149539 -0.199684,1.761918 -0.328891,3.793995 0,0.281907 0,2.126047 0,2.349223 a 9.1619694,9.1619694 0 0 0 0.246668,1.703187 c 0,0.375876 -0.07048,0.763497 -0.176192,0.716513 -0.375875,-0.1527 -0.681274,-1.080643 -0.704767,-1.303819 0,-0.458098 0.528576,-4.216855 0.422861,-5.344482 a 8.6921248,8.6921248 0 0 1 -0.1527,-1.174611 c 0,-0.164446 0.892705,-1.409534 1.010166,-1.609218 0.669529,-1.115881 1.068896,-3.359389 1.585725,-4.451778 a 9.9724513,9.9724513 0 0 1 2.243508,-2.654621 24.525887,24.525887 0 0 0 2.513669,-2.1260472 70.476688,70.476688 0 0 1 9.2207,-5.4854356 C 49.571152,3.8140311 51.3918,3.2502176 51.791168,3.0740259 52.190535,2.8978341 53.764515,1.8994144 53.318162,1.8054455 a 3.2301815,3.2301815 0 0 0 -1.832393,0 c -0.587299,0.1644456 -5.54416,2.9130364 -6.201942,3.2536737 z"
           id="path91"
           inkscape:connector-curvature="0"
           style="fill:#ffffff;stroke-width:1.17461145" />
        <path
           class="cls-5"
           d="m 26.948142,39.428251 c 0.07048,-0.129208 -0.458098,-0.751752 -0.458098,-0.751752 0,-0.187937 -0.927943,-1.010165 -1.386042,-0.857466 -0.234922,0.08222 0.599052,0.951435 0.728259,1.256834 a 0.95143529,0.95143529 0 0 0 1.115881,0.352384 z"
           id="path93"
           inkscape:connector-curvature="0"
           style="fill:#ffffff;stroke-width:1.17461145" />
        <path
           class="cls-5"
           d="m 13.052488,41.201914 c 0,0 3.018752,0.939689 5.168291,1.468264 a 5.6263889,5.6263889 0 0 1 1.48001,0.411114 c 0.305399,0.21143 3.042244,1.808902 3.41812,2.196524 a 20.320778,20.320778 0 0 0 3.523834,1.562233 c 2.854306,1.174612 8.938793,1.092389 9.596576,1.174612 a 29.365287,29.365287 0 0 0 3.418119,-0.693021 c 0.317145,-0.05873 2.783829,-1.092389 2.783829,-1.092389 6.824493,-3.876218 3.018752,-2.043824 7.141638,-4.134632 a 5.3444822,5.3444822 0 0 0 1.667948,-1.738425 6.7775082,6.7775082 0 0 0 0.740006,-2.173031 11.628654,11.628654 0 0 0 0.08222,-3.065736 c 0.93969,-5.873058 0.164446,-4.05241 0.305399,-6.272426 0,-7.482275 -0.610798,-8.786093 0.305399,-10.183881 0.129208,-0.187938 1.327311,-3.382881 1.397788,-3.700026 a 26.381774,26.381774 0 0 1 1.609218,-2.736845 6.5660781,6.5660781 0 0 1 0.810482,-0.786989 c -0.493337,0.951435 -1.256835,2.830813 -1.256835,2.830813 -2.90129,6.237187 -2.043824,3.453358 -2.349223,11.605161 l 0.493337,1.938109 c 0,0 0.281907,2.290493 0.234922,2.513669 a 30.093546,30.093546 0 0 1 -0.528575,2.983513 c -0.199684,0.493337 -0.469844,2.466684 -0.552067,2.783829 -0.08222,0.317145 -0.09397,1.550487 -0.1527,2.05557 a 15.516617,15.516617 0 0 1 -0.927943,2.349223 5.6146428,5.6146428 0 0 1 -1.303818,1.315565 14.706136,14.706136 0 0 1 -4.569239,2.68986 25.101447,25.101447 0 0 0 -3.030498,1.973348 c -0.246668,0.234922 -0.223176,0.293652 0,0.822228 0.317146,0.740005 3.136213,-0.822228 3.429866,-1.174612 0.293653,-0.352383 1.068896,-0.728259 1.562233,-1.174611 a 18.793783,18.793783 0 0 1 1.820648,-1.397788 c 2.255254,-2.267 2.619384,-2.548907 3.159705,-3.606057 0.399368,-0.78699 2.231762,-3.406373 2.47843,-5.391467 0,-0.505083 0.199684,-1.468264 0.199684,-1.468264 v 0 l 0.140953,-1.010166 0.540322,0.117461 c 0,2.114301 0,1.515249 -0.974928,4.545746 -1.879378,4.087648 -1.773663,4.146379 -4.32257,6.237187 -3.911456,3.876218 -2.548907,1.949855 -4.404793,3.770503 a 25.054463,25.054463 0 0 1 -2.678114,1.174612 c -2.349223,0.317145 -1.585726,-0.57556 -3.523835,-0.1527 0,0.08222 -0.387621,0.117461 -0.704767,0.1527 -2.889544,0.657782 -1.585725,0.21143 -3.429865,0.352383 -0.798736,0.07048 -3.312404,0.223176 -3.606057,0.164446 -0.09397,0 -6.154964,-0.540322 -7.975612,-1.797156 -0.775244,-0.528575 -3.805741,-1.90287 -4.627969,-2.84256 -0.540321,-0.610798 -2.584145,-0.951435 -4.604477,-1.433026 v 0 a 24.666841,24.666841 0 0 0 -4.698446,-1.174611 0.83397414,0.83397414 0 0 0 -0.129207,0.21143 c 3.523834,1.69144 3.171451,1.609218 4.005425,1.48001 13.402317,5.438452 7.505767,3.523835 12.286436,5.003845 1.679694,0.305399 0.728259,0.399368 4.698446,1.174612 0.411114,0 0.869212,-0.117461 1.174611,-0.164446 0.516829,-0.08222 4.299078,0 4.545746,0 3.312405,-0.505083 4.698446,-0.775243 4.41654,-0.622544 0.21143,0 -0.105715,0.681275 -2.149539,1.174612 L 33.90184,49.823562 A 26.088121,26.088121 0 0 1 30.718645,49.58864 c -3.523834,-0.669529 2.032078,1.550487 -10.677218,-3.241928 0,0 -1.174612,-0.728259 -1.444772,-0.84572 a 8.0343424,8.0343424 0 0 0 -0.963182,0 l -0.187938,-0.09397 c -0.340637,0 -3.253673,-1.174611 -3.32415,-1.233342 a 1.2920726,1.2920726 0 0 1 -0.164446,0.129207 c -0.317145,0.129208 -1.703186,-1.174611 -2.137793,-0.387621 a 0.46984459,0.46984459 0 0 0 0.1527,0.176191 c 4.698446,2.243508 4.522254,2.102555 4.909876,1.926363 1.42128,0.716513 4.005425,2.349223 13.519778,4.498762 1.714933,0.07048 9.514353,-0.42286 9.514353,-0.42286 a 20.49697,20.49697 0 0 0 1.938109,-0.99842 14.342006,14.342006 0 0 0 5.638135,-2.807321 c 0.42286,-0.246669 2.1143,-1.433026 2.1143,-1.433026 4.228602,-4.181617 3.735265,-3.68828 4.874638,-5.579405 l 0.399368,0.458099 -2.149539,2.560653 a 22.458571,22.458571 0 0 1 -1.691441,2.067316 66.400786,66.400786 0 0 1 -5.626389,3.958441 c -2.196523,0.927943 -3.065736,0.669528 -4.522254,1.703186 l -1.350803,0.716513 c -5.579404,0 -2.090808,1.327311 -12.674058,-0.152699 -5.732104,-2.349223 -1.174611,0.05873 -7.400052,-2.654622 -3.171451,-0.21143 -2.149539,0.552067 -5.450197,-1.832394 A 0.81048191,0.81048191 0 0 0 13.052488,45.95909 c -0.84572,0.352384 3.20669,2.678115 3.335897,2.99526 a 7.4470367,7.4470367 0 0 0 1.409534,1.174611 c 0.469844,0.317145 7.306083,1.691441 8.527679,2.584145 0.305399,0.223177 1.292073,0.422861 1.362549,0.599052 0.07048,0.176192 -1.245088,-0.246668 -3.946694,-1.021912 -0.387622,-0.105715 -2.901291,-0.493337 -3.230182,-0.622544 -0.328891,-0.129207 -0.716513,0.09397 -0.646036,0.270161 0.07048,0.176192 1.233342,0.305399 1.538741,0.528575 0.305399,0.223176 0.234922,0.716513 0.152699,1.033658 -0.08222,0.317145 1.42128,0.08222 1.42128,0.08222 a 51.330521,51.330521 0 0 0 8.915301,0.716513 32.889121,32.889121 0 0 0 8.351488,-1.609218 c 0.810482,-0.340637 0.84572,0 1.174611,0 0.328892,0 1.679695,-0.575559 1.914617,-0.669528 0.234922,-0.09397 1.726679,-1.174612 1.938109,-1.303819 a 27.990991,27.990991 0 0 0 7.435291,-5.215275 c 0.939689,-0.833974 2.490176,-3.606057 3.523834,-4.698446 a 21.507136,21.507136 0 0 0 2.067316,-2.948275 23.586198,23.586198 0 0 0 0.963182,-2.678114 22.857939,22.857939 0 0 0 0.152699,-3.852725 24.33795,24.33795 0 0 1 1.303819,-5.238768 c 0.27016,-0.657782 0,-4.862891 0.375875,-5.943534 0.140954,-0.48159 0.352384,-2.772083 0.434607,-3.218435 0.08222,-0.446352 0.963181,-2.619384 1.068896,-3.523834 0.105715,-0.904451 0.36413,-0.775244 0.587306,-1.550487 0.223176,-0.775244 -0.669529,-0.129208 -0.84572,-0.05873 -0.446353,0.187938 -1.174612,2.443192 -1.268581,2.877798 a 37.352645,37.352645 0 0 0 -0.716513,9.878482 c 0,0.951436 -0.728259,2.126047 -0.610798,0.187938 0,0 -0.117461,-2.079062 -0.152699,-2.349223 a 17.830602,17.830602 0 0 1 0.281906,-3.230181 c 0.234923,-0.399368 0.681275,-5.379721 0.716513,-5.47369 1.104135,-2.713352 1.562234,-2.607637 0.587306,-3.007005 -0.411114,-0.164446 -1.010166,1.585726 -1.797155,2.760337 -0.78699,1.174611 -0.646037,1.526995 -1.256835,2.349223 -0.610798,0.822228 -0.387621,4.569239 -0.340637,5.37972 a 84.337103,84.337103 0 0 1 -0.716513,9.537846 c 0,1.867632 -0.469845,6.777508 -1.667948,8.292756 -0.493337,0.622545 0.08222,-1.620963 0.246668,-2.032077 0.164446,-0.411114 0.469845,-2.137793 0.610798,-2.466684 A 19.49855,19.49855 0 0 0 56.48962,32.14566 c -0.234922,-1.174612 -0.281906,-1.174612 -0.352383,-1.174612 v -0.693021 c 0.528575,-3.206689 0.775244,-5.978772 0.775244,-5.978772 0.08222,-0.317145 -0.105715,-1.550487 0,-2.079062 a 39.99552,39.99552 0 0 0 0.129207,-4.886384 4.2168552,4.2168552 0 0 1 0.587306,-2.349223 26.792888,26.792888 0 0 1 1.386041,-2.584145 c 2.255254,-2.654622 2.102555,-2.4549381 2.713353,-3.8409796 0,0 -0.669529,-0.2701606 -0.833975,-0.1996839 -0.164445,0.070477 -4.252093,4.6984455 -4.299078,6.2959175 -0.04698,1.597472 -0.798735,4.134632 -0.63429,6.331156 a 31.127204,31.127204 0 0 1 0.270161,3.406373 c -0.105715,0.246668 -0.375876,2.701606 -0.505083,3.042244 -0.129207,0.340637 -0.751751,2.795575 -0.751751,2.795575 a 10.771187,10.771187 0 0 1 -0.411114,3.194943 v 0 c -0.117461,0.869213 -0.446353,2.830814 -1.057151,3.030498 -0.610798,0.199684 0.317145,-3.171451 0.317145,-3.171451 0.352384,-2.877798 0.187938,-2.936529 1.033659,-5.05083 a 12.815011,12.815011 0 0 0 0.587305,-3.523834 c -0.129207,-0.63429 0.05873,-2.149539 0,-3.018751 -0.164445,-1.63271 0.505083,-1.973348 0.1527,-5.508928 a 5.6851195,5.6851195 0 0 0 0.293653,-0.939689 c 0,-0.375876 0.974927,-2.4197 1.245088,-3.077482 A 19.850934,19.850934 0 0 1 59.261704,9.2642283 C 59.849009,8.5359692 60.765206,7.59628 60.729968,7.3378655 60.694729,7.079451 59.919486,7.5492956 59.708056,7.701995 59.496626,7.8546945 58.427729,8.8766065 57.946139,9.3699433 L 58.48646,9.0527982 58.310268,9.3699433 c -2.466684,1.5387407 -2.196523,0.9631817 -4.11114,3.2184357 -0.458098,0.540321 -0.281907,0.798736 -0.740005,1.820648 -0.458099,1.021911 -0.164446,-1.174612 -0.164446,-1.174612 1.491757,-3.147959 0.669529,-1.797155 4.028918,-4.3225701 0.927943,-0.6930208 1.597471,-1.1746115 0.833974,-1.4565183 -4.534001,2.8895444 -4.604477,3.0539894 -5.873058,6.2019484 a 16.444561,16.444561 0 0 0 0,2.161285 39.114562,39.114562 0 0 1 -1.174611,4.299078 c -0.105715,0.399368 -0.587306,0.728259 -0.728259,0.869213 -0.446353,0.387621 0.164445,7.634974 0.164445,7.717197 0,1.174612 -0.446352,1.562233 -0.07048,2.443192 l -0.328891,0.681275 a 20.955069,20.955069 0 0 1 -1.433026,5.086067 4.0289173,4.0289173 0 0 1 -0.540322,0.84572 c -0.399368,0.516829 -1.174611,1.949855 -1.362549,2.161286 a 20.990307,20.990307 0 0 0 -1.644456,1.667948 9.8432441,9.8432441 0 0 1 -3.007005,1.174611 l 0.375875,-0.140953 c -9.396891,1.996839 -8.656886,0.540321 -9.890228,0.187938 A 12.204213,12.204213 0 0 1 28.956728,41.131437 16.1744,16.1744 0 0 0 25.703054,39.79238 11.241032,11.241032 0 0 0 24.129075,37.349188 30.821805,30.821805 0 0 1 21.427468,34.882504 C 21.169054,34.25996 19.289675,32.533281 19.078245,30.971048 18.9138,29.855167 18.349986,29.620245 18.596655,29.103416 a 6.4368708,6.4368708 0 0 0 0.411114,-1.174612 2.3492229,2.3492229 0 0 0 0,1.245089 c 0.869212,2.513668 0.399367,2.149539 2.971767,5.050829 0.187937,0.223176 1.456518,1.174611 1.456518,1.174611 3.371135,3.042244 2.231762,1.068897 4.909876,4.992099 a 1.1746115,1.1746115 0 0 0 0.176191,-0.164445 c 3.758757,1.949855 3.934949,2.208269 6.730524,2.666368 a 15.634079,15.634079 0 0 0 3.159705,0 c 0.434606,-0.105715 1.174611,0.140953 1.444772,0 0.270161,-0.140954 0.951435,-0.540322 1.245088,-0.657783 0.293653,-0.117461 1.174612,-0.129207 1.515249,-0.305399 a 9.1032389,9.1032389 0 0 0 1.397788,-0.939689 c 4.674953,-3.382881 3.500342,-4.557493 5.544166,-10.078166 0,0 0.21143,-2.772083 0.129207,-3.429866 -0.974927,-9.068 0.869213,-6.519094 0.986674,-8.410218 0,-0.57556 0.352383,-1.456518 0.48159,-2.137793 a 13.613747,13.613747 0 0 0 0.387622,-1.538741 9.3146689,9.3146689 0 0 1 1.386042,-4.804161 c 0,0 0.164445,-0.8927045 -0.270161,-0.6460361 -0.434606,0.2466681 -0.587306,0.2584141 -0.693021,0.6460361 -0.105715,0.387622 -1.092388,2.349223 -1.174611,2.689861 a 5.1800366,5.1800366 0 0 1 -0.270161,1.973347 c -0.352383,0.63429 -1.092388,1.63271 -1.350803,2.020331 a 15.269949,15.269949 0 0 0 -0.599052,1.832394 4.1581246,4.1581246 0 0 0 -0.281907,1.292073 c -0.27016,1.855886 -1.021912,1.914617 -0.822228,4.416539 0.08222,0.99842 0.340638,3.523834 0.317145,3.993679 a 17.619172,17.619172 0 0 0 0,2.349223 13.343586,13.343586 0 0 1 -0.916196,5.003845 c -0.634291,0.986673 -1.938109,3.782249 -4.698446,4.933368 -1.409534,0.599052 -0.927943,0.740005 -2.349223,0.857466 -1.42128,0.117462 -2.349223,0 -3.183197,0.105715 a 26.346535,26.346535 0 0 1 -4.346063,-0.646036 39.443453,39.443453 0 0 1 -4.74543,-3.26542 7.7171973,7.7171973 0 0 0 -1.550487,-1.48001 8.2222803,8.2222803 0 0 1 -2.255254,-1.691441 c -0.328891,-0.528575 -1.256834,-1.48001 -1.444772,-1.926363 a 19.43982,19.43982 0 0 1 -1.256835,-3.95844 17.86584,17.86584 0 0 1 -0.328891,-1.985094 c 0.09397,-0.399367 0.07048,-1.05715 0.176192,-1.409533 a 10.136897,10.136897 0 0 0 0.669528,-3.183197 28.390359,28.390359 0 0 1 2.443192,-5.426705 15.082011,15.082011 0 0 1 -1.374295,4.075901 c -0.105715,0.258415 -0.646036,2.067317 -0.810482,2.478431 a 8.7743476,8.7743476 0 0 0 -0.446352,2.877798 27.356701,27.356701 0 0 0 1.045404,5.074321 c 0.798736,1.879379 5.696865,5.990519 5.732104,6.049249 a 20.109348,20.109348 0 0 0 2.243508,2.220016 23.245561,23.245561 0 0 0 2.267,0.963181 14.870581,14.870581 0 0 0 4.698446,0.845721 4.1346324,4.1346324 0 0 0 1.115881,-0.469845 c 0.352383,-0.152699 1.068896,0.09397 1.444772,0.140953 a 14.095338,14.095338 0 0 0 2.607637,-1.174611 11.522938,11.522938 0 0 0 1.985094,-1.808902 c 0.833974,-0.84572 1.703186,-4.968606 2.584145,-6.613062 0.469844,-0.892705 0.152699,-0.99842 0,-1.092389 a 18.218224,18.218224 0 0 0 -0.117461,-2.114301 c -0.681275,-8.093073 1.374295,-9.255938 1.550487,-11.475954 0.446352,-0.740005 0.293653,-0.84572 0,-1.045404 a 2.3492229,2.3492229 0 0 1 0.187938,-0.63429 c 1.433026,-1.26858 1.174611,-0.599052 1.386041,-1.433026 0.751751,-0.775244 0.974928,-3.077482 1.350803,-3.382881 1.42128,-1.1746114 5.285752,-3.9466945 5.438451,-4.0171712 A 0.99841975,0.99841975 0 0 0 57.006449,6.163254 C 57.135657,5.9283317 56.571843,5.9048395 56.383905,5.6699172 v 0 l 0.927943,-0.6225441 c 0,0 0,-0.3288912 -0.117461,-0.4228601 a 1.9381089,1.9381089 0 0 0 -1.174611,0.2584145 c -0.21143,0.1409534 -1.327311,0.8809586 -2.020332,1.3742954 a 17.619172,17.619172 0 0 1 -1.609218,1.327311 7.0476688,7.0476688 0 0 0 -3.030497,2.5019221 c -0.1527,0.270161 -1.174612,2.349223 -1.538741,2.877798 -0.36413,0.528576 -0.798736,0.493337 -1.174612,1.303819 -0.375875,0.810482 -1.63271,2.924783 -1.63271,2.924783 0,0 -0.740005,1.526995 -0.716513,0.822228 0,-1.350803 0.72826,-1.433026 3.359389,-6.237187 a 5.2035288,5.2035288 0 0 1 1.891125,-2.9247827 c 0.199684,-0.1409534 2.53716,-1.6679483 2.760337,-1.7619172 0.223176,-0.093969 2.584145,-2.149539 2.725098,-2.2082696 0.140954,-0.058731 1.068897,-0.8809586 0.599052,-0.8339741 a 4.8276531,4.8276531 0 0 0 -1.585725,0.5050829 c -0.387622,0.2231762 -4.26384,3.0657359 -4.310824,3.1009743 -4.040664,3.2536734 -3.523835,2.5019224 -4.698446,4.8981294 -0.176192,0.387622 -2.349223,3.441612 -2.501923,3.981933 -0.63429,3.241928 -0.716513,2.196524 -0.728259,4.815907 a 11.840084,11.840084 0 0 0 -0.375876,2.114301 c 0.07048,0.399368 0.07048,2.043824 0.1527,2.349223 a 8.4924409,8.4924409 0 0 1 0,1.48001 c 0.164446,5.47369 0,2.889544 -0.258415,5.039083 -0.09397,0.78699 0.352384,0.704767 -0.258414,1.644457 -0.610798,0.939689 -0.57556,1.174611 -1.433026,1.620963 -0.857466,0.446353 -0.857466,0.740006 -1.386042,0.740006 A 2.7250986,2.7250986 0 0 1 36.77964,35.904416 C 36.35678,35.46981 33.537712,33.62567 33.150091,32.709473 a 6.4956014,6.4956014 0 0 1 -1.174612,-2.278746 c -0.140953,-1.738425 -1.174611,-4.487016 -0.916197,-5.403213 0.117461,-0.469844 0.129207,-1.961601 0.164446,-2.137793 a 28.836711,28.836711 0 0 1 0.657782,-3.946694 15.140742,15.140742 0 0 0 0.434606,-1.503503 c 0,-0.387622 0.422861,-1.245088 0.493337,-1.585725 a 11.558177,11.558177 0 0 1 0.07048,-1.832394 c 0.152699,-0.281907 0.552067,-0.716513 1.010166,-1.386042 1.327311,-1.949855 3.523834,-2.8660518 7.576244,-5.8730571 0,0 3.171451,-1.9146167 2.584145,-1.9381089 a 1.7736633,1.7736633 0 0 0 -1.26858,0.2701606 C 41.243164,6.1045234 33.995811,11.484244 32.87993,12.952508 a 19.181405,19.181405 0 0 1 -1.26858,1.491757 14.271529,14.271529 0 0 0 -1.292073,1.973347 12.920726,12.920726 0 0 0 -1.303819,6.448617 20.085856,20.085856 0 0 0 1.585726,9.573084 7.8464046,7.8464046 0 0 0 1.644456,2.595891 c 0.587306,0.763497 0.763497,1.433026 1.69144,1.620964 0.927943,0.187937 1.855886,0.869212 2.349223,0.939689 a 7.987358,7.987358 0 0 0 2.05557,0.08222 8.0225963,8.0225963 0 0 0 3.770503,-2.349223 c 0,-0.223176 0.458099,-1.42128 0.469845,-1.644456 0.305399,-4.075902 -0.340638,-8.222281 0.07048,-11.00611 a 10.571503,10.571503 0 0 0 0.552068,-2.466684 14.189307,14.189307 0 0 1 0.575559,-3.89971 c 0.951436,-2.349223 4.428286,-7.7054511 3.183197,-4.639715 -0.90445,2.231762 -0.375875,0.786989 -1.503502,2.595891 a 5.5206739,5.5206739 0 0 0 -0.681275,1.033658 17.760125,17.760125 0 0 0 -0.78699,1.714933 c 0,0.317145 -0.387621,0.963181 -0.27016,1.386041 a 9.1267311,9.1267311 0 0 1 -0.199684,3.641296 1.1746115,1.1746115 0 0 1 -0.305399,0.657782 l 0.176192,0.387622 v 0 a 4.6984459,4.6984459 0 0 0 0.328891,0.763498 c 0.117461,0.164445 -0.317145,0.880958 -0.317145,1.174611 0,0.293653 -0.07048,0.822228 0.152699,1.104135 a 3.0422437,3.0422437 0 0 1 0.434606,1.26858 c 0,0.258415 -0.728259,0.78699 -0.751751,1.174612 a 17.619172,17.619172 0 0 0 0.129207,2.548907 c 0.246669,1.303818 -0.434606,2.419699 -0.669528,4.310824 0,0.387622 -0.916197,1.339057 -2.713353,2.349223 -1.797155,1.010166 -4.369554,0.09397 -5.074321,-0.08222 a 8.9740316,8.9740316 0 0 1 -2.114301,-1.115881 4.4987619,4.4987619 0 0 1 -1.456518,-1.679694 49.333682,49.333682 0 0 1 -2.349223,-5.53242 c -0.446352,-1.327311 -0.42286,-5.191783 -0.552067,-6.190203 -0.07048,-0.552067 0.117461,-1.855886 0.05873,-2.255254 a 17.419488,17.419488 0 0 1 0.493337,-2.701606 c 0,-0.176192 1.068896,-2.255254 1.397788,-2.983513 a 26.628442,26.628442 0 0 1 1.855886,-2.595892 c 0.387622,-0.587305 0.340637,-1.174611 1.174611,-1.738425 C 40.761573,6.4921452 38.330127,6.8210364 42.171107,5.035627 44.297153,4.013715 44.884459,4.3660985 48.232102,2.5689429 49.195283,2.06386 49.935288,1.958145 51.250853,1.2886164 52.566418,0.61908791 50.134972,1.0771864 48.255594,1.8641761 47.856226,2.0403678 46.282247,2.5924352 45.812402,2.8508497 A 4.9803526,4.9803526 0 0 1 44.191438,3.1679948 C 42.934604,3.3206943 40.174267,5.0708654 39.222832,5.5172177 A 12.920726,12.920726 0 0 1 37.214246,6.0457929 C 36.885355,6.1280157 32.5158,9.1702594 32.280878,9.2994666 a 11.288016,11.288016 0 0 0 -1.726679,1.6914404 c -2.067316,1.820648 -1.914616,2.877798 -2.936528,3.84098 -1.021912,0.963181 -2.349223,6.695285 -2.501923,7.905135 0,0.281907 -0.05873,2.466684 -0.152699,2.772083 a 19.698234,19.698234 0 0 0 1.820647,7.400052 c 0.833975,1.339057 0.481591,-0.99842 0.399368,-1.174611 -0.08222,-0.176192 -0.469844,-1.973348 -0.552067,-2.349223 -0.481591,-1.820648 -1.068896,-0.140954 -0.84572,-6.002265 a 3.0422437,3.0422437 0 0 1 0.48159,-1.374295 16.949643,16.949643 0 0 0 0.57556,-2.525415 30.645613,30.645613 0 0 1 1.292073,-4.099394 c 0.152699,-0.516829 1.609217,-2.161285 2.595891,-3.758757 0.223176,-0.352383 1.902871,-1.9146164 2.067316,-2.1495386 0.164446,-0.2349223 1.644456,-1.0101659 2.220016,-1.4095338 3.758757,-2.6311297 2.490176,-2.0790623 3.523834,-1.7736633 0.810482,0.2349223 -3.876218,2.666368 -4.815907,3.4181193 a 11.053094,11.053094 0 0 0 -2.560653,2.3492234 9.0327622,9.0327622 0 0 0 -1.010166,1.491756 c -0.364129,0.516829 -0.927943,1.080643 -1.174611,1.433026 -0.63429,1.010166 -1.714933,6.871477 -1.738425,6.941954 -0.02349,0.07048 -0.563814,0.927943 -0.657782,1.080642 -0.09397,0.1527 -0.1527,0.904451 -0.51683,1.808902 -0.434606,1.092389 0.505083,3.441612 0.963182,4.522254 0.117461,0.270161 0.728259,3.465104 0.822228,3.68828 0.09397,0.223176 1.350803,1.714933 1.48001,1.867632 0.129208,0.1527 0.657783,0 0.528576,-0.117461 -0.129208,-0.117461 -1.174612,-2.349223 -1.42128,-2.842559 A 41.440292,41.440292 0 0 1 26.92465,24.451955 c -0.117461,-0.904451 0,-0.72826 0.493337,-1.174612 0.493336,-0.446352 0.293653,2.349223 0.352383,2.725099 0.05873,0.375875 0.36413,1.855886 0.42286,2.102554 0.927943,4.604477 0.1527,1.891125 1.667949,5.450197 0.446352,1.068897 1.174611,1.350804 0.681274,1.879379 -0.493337,0.528575 2.736845,2.184777 3.864472,2.983513 a 32.13737,32.13737 0 0 0 3.406373,0.904451 4.6984459,4.6984459 0 0 0 2.173031,-0.129208 c 1.010166,-0.27016 1.174612,-0.740005 1.714933,-1.092388 0.540321,-0.352384 0.681275,-0.657783 1.620964,-1.703187 a 2.6781141,2.6781141 0 0 0 0.869212,-1.949855 49.180982,49.180982 0 0 0 0.422861,-8.786094 11.405477,11.405477 0 0 0 0.05873,-1.609217 l 0.622544,-1.057151 c 0,-0.07048 0.493337,-1.538741 0.258415,-1.585725 a 1.5504871,1.5504871 0 0 0 0,-0.505083 c 0,-0.129207 0.375875,-0.84572 0.387621,-1.174612 a 22.564286,22.564286 0 0 1 1.57398,-5.039083 c 1.468264,-2.032078 0.857466,-0.48159 1.926363,-3.100974 0.129207,-0.317145 0.763497,-1.9616012 1.115881,-2.1143006 0.352383,-0.1526995 4.698445,-3.1009743 5.027337,-3.2889121 -4.240348,4.1228857 -5.062576,3.6295494 -5.156545,4.5222537 -0.27016,2.4197 -1.773663,2.971767 -2.067316,3.923203 a 3.7117722,3.7117722 0 0 1 -0.234922,0.575559 c -0.164446,0.105715 -0.270161,0.1527 -0.187938,0.446353 -0.140953,0.340637 -1.033658,3.347642 -1.05715,3.429865 -1.855886,7.047669 -0.716513,2.243508 -1.292073,8.363234 a 5.2505133,5.2505133 0 0 0 0,1.033658 3.7587567,3.7587567 0 0 0 0.140953,2.830813 c 0,0.634291 -0.129207,1.280327 -0.164445,1.538742 -0.05873,0.505082 -0.516829,1.867632 -0.481591,2.267 a 5.8730573,5.8730573 0 0 1 -0.622544,1.644456 10.348327,10.348327 0 0 1 -1.292073,1.644456 c -0.375875,0.540321 -3.805741,2.619383 -6.554332,1.174611 -0.716513,-0.387622 -2.924782,-0.704767 -3.382881,-0.986673 -0.458098,-0.281907 -2.701606,-2.161286 -3.418119,-2.548907 -0.399368,-0.21143 -3.418119,-2.349223 -4.028917,-3.805741 -0.09397,-0.234923 -0.481591,-2.760337 -0.57556,-2.99526 -0.09397,-0.234922 -0.469844,-1.597471 -0.646036,-2.008585 -0.176192,-0.411114 -0.08222,-2.654622 -0.176192,-3.030498 -0.152699,-0.622544 0.434606,-2.349223 0.798736,-5.438451 a 26.851618,26.851618 0 0 1 2.360969,-4.945114 c 1.949855,-3.347643 2.032078,-2.584145 3.981933,-4.5809849 a 28.002737,28.002737 0 0 1 5.32099,-3.5238344 c 0.469844,-0.199684 2.90129,-1.3038188 3.218435,-1.5035027 0.317145,-0.199684 1.433026,-1.021912 1.609218,-1.0923887 0.176192,-0.070477 3.770503,-0.9044508 4.698446,-1.2920726 0.587305,-0.2466684 1.785409,-1.17461145 2.431445,-1.44477209 0.646037,-0.27016063 0.51683,-0.22317618 0.258415,-0.51682904 C 48.560993,-0.70822305 43.416195,1.9346527 42.182853,2.2165595 A 4.6984459,4.6984459 0 0 1 40.46792,2.0403678 c -0.399368,-0.1174612 -1.010166,0.21143 -1.679694,0.4346062 -3.300659,1.0454042 -3.523835,1.9850934 -4.956861,2.7838292 -0.880958,0.516829 -2.866052,2.1730312 -3.159705,2.3492229 -0.293652,0.1761917 -1.973347,1.1746115 -2.231761,1.3860416 -0.09397,-0.1292073 -0.199684,-0.2231762 -0.270161,-0.199684 -0.07048,0.023492 -4.017171,3.2066893 -4.32257,3.3358963 -0.305399,0.129208 -2.043824,1.84414 -2.948275,2.713353 -0.281907,0.21143 -0.599052,0.446352 -0.810482,0.63429 -0.399368,0.340637 -0.657782,0.798736 -0.810482,0.857466 a 7.1181455,7.1181455 0 0 0 -0.751751,1.068897 c -0.63429,0.916197 -0.763498,1.550487 -1.797156,2.173031 -0.552067,0.340637 -0.352383,-0.434606 -0.364129,-0.599052 -0.01175,-0.164445 1.010166,-1.292073 1.609218,-2.161285 a 7.893389,7.893389 0 0 1 2.795575,-3.077482 c 1.808901,-1.409534 1.280326,-2.102555 4.475269,-3.617803 A 37.66979,37.66979 0 0 0 28.604344,7.9251712 25.371608,25.371608 0 0 0 33.572951,4.8594353 13.731208,13.731208 0 0 1 41.642532,1.347347 c 5.391466,-1.8558861 2.290492,-0.82222801 6.342901,-2.27874623 1.174612,-0.22317617 0,-0.66952857 -1.05715,-0.37587567 -0.587306,0.1526995 -5.027337,2.0790623 -4.921622,1.51524879 a 1.0101659,1.0101659 0 0 1 0.552067,-0.65778242 c 2.466685,-0.70476687 6.507348,-1.87937837 4.463524,-2.16128507 a 7.7759279,7.7759279 0 0 0 -4.616223,1.4565182 C 38.177428,1.9111605 37.977744,0.88924854 35.440583,2.369259 33.901842,3.297202 32.09294,4.4013368 31.317697,5.0121348 a 29.729416,29.729416 0 0 1 -2.889544,2.1143006 16.444561,16.444561 0 0 0 -3.887964,2.349223 17.266789,17.266789 0 0 0 -2.537161,1.9733476 8.3632336,8.3632336 0 0 1 -1.503503,1.573979 10.48928,10.48928 0 0 0 -1.949855,1.573979 22.317618,22.317618 0 0 1 -3.183197,4.381301 c -4.32257,5.285752 -2.349223,3.429866 -5.027337,6.671793 -0.3406373,0.42286 -1.1746115,0.869213 -2.0790623,1.679695 -0.9044508,0.810482 -0.4463524,0.42286 -0.7400052,1.174611 -0.2936529,0.751751 0.1996839,0.223176 0.5403212,0.281907 a 4.7924148,4.7924148 0 0 0 1.8676323,-0.1527 c 0.84572,-0.223176 0.857466,-0.575559 1.63271,-1.174611 a 18.793783,18.793783 0 0 0 4.099394,-5.285752 c 0.387622,-0.716513 0.305399,-1.05715 0.904451,-1.620964 1.05715,-1.010165 -1.409534,3.523835 -2.760337,5.367975 a 23.374768,23.374768 0 0 1 -2.043824,2.173031 c -1.362549,1.198104 -1.832394,1.127627 -5.1213061,1.292073 -0.6460363,0 -0.4228602,-0.505083 -1.0454042,-0.763498 -0.6225441,-0.258414 -0.082223,1.174612 0,1.444772 0.082223,0.270161 0.4698445,0.375876 0.7400052,0.446353 0.2701606,0.07048 0.8927047,-0.340638 1.0571503,-0.352384 a 13.343586,13.343586 0 0 0 1.8793783,-0.21143 5.015591,5.015591 0 0 1 1.0571505,0.07048 2.255254,2.255254 0 0 0 0.798736,-0.164446 c 0.27016,-0.08222 2.137793,-0.140953 2.501922,-0.187938 0.36413,-0.04698 0.411114,-0.246668 0.434606,-0.505082 0.187938,-1.515249 2.149539,-5.144799 2.99526,-7.74069 0.293652,-0.904451 2.525414,-3.981933 2.619383,-4.487016 a 1.1746115,1.1746115 0 0 1 0.775244,-0.775243 c 0.328891,-0.105715 -1.245088,2.772083 -1.339057,2.948274 a 23.879851,23.879851 0 0 1 -1.233342,2.349223 c -0.375876,0.493337 -0.505083,1.174612 -1.057151,2.067316 a 8.4102181,8.4102181 0 0 0 -0.880958,2.466685 c -0.117461,0.458098 -0.916197,2.349222 -0.951436,2.53716 a 9.0562544,9.0562544 0 0 1 -0.105715,0.974928 c -0.117461,0.399368 0,0.575559 0,0.78699 0,0.21143 -0.434606,-0.05873 -0.587305,-0.09397 A 12.392151,12.392151 0 0 0 10.773742,30.51295 L 10.010245,30.830095 8.0721358,30.72438 c -0.7282591,0 -1.9146166,0.305399 -1.3625493,0.775243 a 4.4165391,4.4165391 0 0 0 3.3476425,-0.48159 5.3444822,5.3444822 0 0 1 0.78699,0.08222 c 0.939689,0.258415 1.90287,-0.140953 3.382881,0.1527 1.48001,0.293653 1.515249,1.174611 4.193363,4.158125 4.440031,3.993678 0.99842,0.798735 4.95686,4.158124 0.21143,0.187938 1.386042,0.728259 1.515249,0.880959 0.129207,0.152699 1.867632,0.728259 2.137793,0.880958 a 29.482748,29.482748 0 0 0 10.677218,3.124467 c 0.775244,0 2.255254,-0.540321 6.084488,-1.526995 a 14.165814,14.165814 0 0 1 -4.804161,1.832394 4.9451143,4.9451143 0 0 1 -1.268581,0.258414 c -0.281907,0 -2.349223,-0.399368 -2.619383,-0.340637 A 6.965446,6.965446 0 0 1 32.750723,44.02098 c -0.387622,-0.258415 -0.528575,-0.117462 -0.63429,0.129207 -0.105715,0.246668 0.505082,0.540321 0.505082,0.540321 l -0.786989,-0.176192 c -0.693021,-0.48159 -1.855886,-1.386041 -2.196524,-1.526995 -0.340637,-0.140953 -3.523834,-1.468264 -4.064155,-1.785409 -2.936529,-1.550487 -1.444772,-0.187938 -6.049249,-4.158125 0,0 -1.961602,-1.961601 -2.525415,-2.443191 a 26.158597,26.158597 0 0 0 -2.008586,-2.05557 12.016275,12.016275 0 0 0 -5.6381347,-0.505083 c -0.9514352,0.199684 -0.1996839,0.399368 -0.05873,0.599051 a 17.23155,17.23155 0 0 0 2.8895447,-0.140953 c 1.350803,0.09397 3.453358,0.716513 3.523834,1.609218 0,0.599052 -2.454938,-1.033658 -2.666368,-1.174612 A 27.568131,27.568131 0 0 0 7.7667369,33.05011 c -0.4933368,0.164446 0.411114,0.599052 0.7634974,0.563814 a 35.097391,35.097391 0 0 1 3.6412957,0.305399 6.9536999,6.9536999 0 0 1 1.292072,0.493337 c 0.951436,0.387622 2.548907,0.575559 2.983514,1.068896 a 6.4251247,6.4251247 0 0 0 1.386041,0.704767 c 0.458099,0.176192 1.691441,1.879378 2.349223,2.149539 0.187938,0.08222 1.468264,0.563814 0.833974,0.892705 -0.63429,0.328891 -3.418119,-2.490177 -3.523834,-2.619384 -0.105715,-0.129207 -1.902871,-1.05715 -2.349223,-1.292072 C 14.696945,35.082188 13.052488,34.753297 11.9601,34.389168 A 11.957545,11.957545 0 0 0 8.3422965,34.083769 c -0.1761917,0.08222 -0.6342902,0.587305 -0.5050829,0.892704 0.1292072,0.305399 3.1479584,0.469845 3.5238344,0.493337 a 21.025545,21.025545 0 0 1 3.030498,1.045404 c 0.281906,0.187938 2.208269,0.563814 2.349222,0.751752 a 9.3146689,9.3146689 0 0 0 4.451778,2.713352 c 0.927943,0.117461 1.48001,0.927943 2.161285,1.303819 1.491757,0.84572 3.829233,1.738425 4.310824,2.008585 2.619384,1.456519 2.47843,1.339058 3.007005,1.491757 0.09397,0.305399 3.112721,0.775244 3.676534,0.880959 7.329576,-0.57556 6.248933,-0.129208 11.06484,-3.171451 a 21.636343,21.636343 0 0 0 2.184778,-2.501923 12.474374,12.474374 0 0 1 1.42128,-1.84414 c 1.174611,-1.174611 1.667948,-6.01401 1.985093,-7.047669 A 88.824119,88.824119 0 0 0 50.74577,22.173208 c 0,-0.258414 0.281907,-0.458098 0.493337,-0.622544 0.528575,-0.399368 0.516829,3.723519 0.446353,4.158125 a 16.785198,16.785198 0 0 0 0,2.349223 c 0,0.328891 0,1.174611 0,2.008585 a 7.0476688,7.0476688 0 0 1 0,2.220016 c -0.223177,0.775244 -0.481591,2.126047 -0.646037,2.548907 a 21.976981,21.976981 0 0 0 -0.763497,2.255254 12.744534,12.744534 0 0 1 -3.018752,4.440031 c -1.48001,1.303819 0.223177,0.740005 -3.523834,2.760337 -1.327311,0.704767 -1.891125,0.599052 -4.228601,1.57398 -1.068897,0.458098 -2.466684,0 -5.297498,0.176191 -3.441612,0.281907 -7.047669,-3.05399 -8.880063,-3.065736 a 7.5057673,7.5057673 0 0 1 -2.349223,-1.256834 23.492229,23.492229 0 0 0 -2.47843,-1.20985 c -0.27016,-0.152699 -0.99842,-0.740005 -1.362549,-0.939689 -0.36413,-0.199684 -1.315565,-0.340637 -1.550487,-0.57556 -0.234923,-0.234922 -1.021912,-0.951435 -1.256835,-1.174611 A 11.264524,11.264524 0 0 0 14.0744,36.914582 c -0.469844,-0.140953 -1.515248,-0.669528 -2.102554,-0.42286 -1.174612,0.481591 4.181617,1.26858 4.592731,2.548907 0.21143,0.657782 -1.174612,-0.258415 -1.174612,-0.258415 0,0 -2.642876,-1.010165 -3.007005,-1.068896 -0.36413,-0.05873 -1.021912,-0.458098 -0.951435,-0.763497 0.07048,-0.305399 -0.140954,-0.833975 -0.340638,-0.822228 -0.199684,0.01175 -1.7384247,-0.36413 -1.9616008,-0.411115 -0.2231762,-0.04698 -0.610798,0.187938 -0.8927047,0.51683 -0.2819068,0.328891 0.9161969,0.505082 1.5622332,0.916196 0.6460363,0.411114 1.4330263,0.775244 1.8206473,1.033659 a 16.573768,16.573768 0 0 0 3.136213,1.080642 23.034131,23.034131 0 0 1 2.713353,0.84572 c 1.703186,0.164446 1.174611,0.187938 3.641295,2.114301 0.516829,0.399368 1.750171,0.704767 2.161285,1.021912 a 15.575348,15.575348 0 0 0 2.032078,1.068896 c 1.045404,0.411114 1.902871,0 3.441612,1.292073 a 22.904924,22.904924 0 0 0 4.886383,0.963181 c 0.258415,0 3.089228,0.140954 3.441612,0.140954 l 2.220016,-0.117461 a 18.394416,18.394416 0 0 1 -2.196524,0.516829 c -0.199684,0 -4.792415,-0.105715 -5.015591,-0.1527 -0.223176,-0.04698 -1.879378,-0.516829 -1.879378,-0.516829 -3.382881,-0.152699 -2.501923,-0.751751 -3.441612,-1.303819 -0.281906,-0.152699 -0.293653,0.129208 -0.493337,0.140954 -1.315564,0.117461 -7.047668,-3.371135 -8.104819,-4.487016 -0.375875,-0.399368 -1.90287,-0.434606 -2.349223,-0.552067 -0.446352,-0.117462 -4.11114,-1.42128 -4.416539,-1.644456 A 14.494705,14.494705 0 0 0 8.2365815,37.795541 c -0.1761918,0.07048 0,0.599052 0.1761917,0.892704 a 10.230866,10.230866 0 0 0 3.3828808,0.845721 6.049249,6.049249 0 0 1 2.05557,0.786989 c 0.187938,0.117462 2.725099,0.904451 3.065736,1.045405 0.340638,0.140953 0.99842,-0.08222 1.174612,0.411114 0.176191,0.493336 -2.255254,-0.434607 -2.501923,-0.528576 -0.246668,-0.09397 -6.9184613,-1.773663 -7.2003681,-1.714932 -0.2819067,0.05873 0.2114301,0.328891 0.2114301,0.328891 a 26.017644,26.017644 0 0 0 4.451777,1.339057 z m 43.272687,-2.4197 c 1.797155,-4.428285 0.99842,-2.560653 1.773663,-8.22228 a 15.011535,15.011535 0 0 1 -0.01175,-2.1143 21.248721,21.248721 0 0 0 0.317145,-5.873058 c 0,-0.05873 0.340637,-6.060995 0.352384,-6.354648 l 0.857466,-1.879378 c 0.293653,0.223176 -0.340637,2.349223 -0.340637,2.349223 0,0 -0.36413,3.864471 -0.352384,4.064155 0.01175,0.199684 0,4.193363 0.129207,4.357809 0.129208,0.164446 0.187938,2.889544 0.187938,2.889544 0,0 -0.646036,3.852726 -0.69302,4.075902 -0.04698,0.223176 -0.387622,4.299078 -0.552068,4.698446 -0.892705,2.173031 -4.874637,7.259099 -5.238767,7.658467 -0.704767,0.775243 -4.698446,4.134632 -4.89813,4.205109 -0.199684,0.07048 -2.220015,1.280326 -2.349223,1.362549 -0.129207,0.08222 -2.454938,0.21143 -2.983513,0.434606 -0.528575,0.223176 -3.018751,1.973347 -3.253674,2.067316 -0.234922,0.09397 -4.792414,0.716513 -5.74385,0.775244 -0.951435,0.05873 -2.877798,0.187938 -2.877798,0.187938 a 46.279692,46.279692 0 0 1 -6.58957,-2.349223 c -5.332736,-1.526995 -6.883223,-1.761917 -7.082907,-2.20827 -0.09397,-0.234922 0.740005,-0.375875 0.963181,-0.340637 a 10.00769,10.00769 0 0 1 2.349223,1.092389 38.456779,38.456779 0 0 0 4.604477,1.421279 l 3.312404,1.174612 c 4.8394,0.669528 2.231762,0.458098 7.176876,-0.140953 a 21.906504,21.906504 0 0 0 3.253674,-0.129208 l 2.349223,-0.986673 c 0.646036,-0.281907 1.068897,-0.740006 1.538741,-0.927943 1.174612,-0.505083 2.760337,-0.07048 6.495602,-2.889545 0.411114,-0.317145 1.808901,-1.738425 2.678114,-2.454938 0.869212,-0.716513 0.434606,-0.446352 1.679694,-1.738425 a 12.157229,12.157229 0 0 0 1.738425,-2.243507 9.8902285,9.8902285 0 0 0 1.20985,-1.961602 z m -1.05715,-20.931576 c 0,-0.07048 -0.36413,2.913037 -0.493337,5.873057 -0.105715,2.349223 -0.21143,4.005426 -0.704767,4.698446 -1.010166,-1.867632 -0.246669,-11.746114 0.963181,-10.876902 a 0.65778242,0.65778242 0 0 1 0.234923,0.270161 z m -6.248933,1.397788 c 0.317145,-0.399368 1.620963,-3.018752 1.444772,-2.126047 0,0.152699 -0.93969,4.205109 -1.327311,3.523834 A 1.2920726,1.2920726 0 0 1 49.019092,19.213187 Z M 48.42004,29.714214 a 4.4400313,4.4400313 0 0 0 0.164445,-1.726679 13.155648,13.155648 0 0 1 -0.223176,-4.592731 c 0,0 0.563814,-1.761917 0.540321,-0.364129 -0.07048,2.936528 0.493337,8.116565 -0.09397,7.611482 a 1.6914405,1.6914405 0 0 1 -0.38762,-0.963181 z m -11.616908,7.247353 c -1.468264,0.176191 -1.550487,-0.634291 -3.077482,-1.503503 a 4.0524096,4.0524096 0 0 1 -1.573979,-1.573979 16.291861,16.291861 0 0 1 -2.090809,-5.32099 c 0,-0.375876 -0.293652,-2.20827 -0.305399,-2.736845 a 19.251882,19.251882 0 0 1 0,-2.889544 c 0.129208,-0.317145 -0.129207,-2.067316 0,-2.490177 0.129208,-0.42286 0.552068,-2.208269 0.634291,-2.349222 a 12.380405,12.380405 0 0 0 0.716513,-1.42128 c 0,-0.21143 1.327311,-1.515249 0.84572,-0.516829 a 25.641768,25.641768 0 0 0 -1.256834,5.579404 19.157913,19.157913 0 0 0 0.05873,6.131472 10.43055,10.43055 0 0 0 0.563814,2.84256 c 0.317145,0.493336 0.927943,1.938109 1.468264,2.713352 0.833974,1.033658 4.862892,3.394627 4.017171,3.500342 z m 8.222281,-16.080431 c 0,0.293653 -0.599052,2.983513 -0.822228,2.760337 -0.223177,-0.223177 -0.422861,-0.246669 -0.293653,-0.693021 0.42286,-1.433026 0.505083,-3.523835 0.798735,-3.923202 0.164446,-0.21143 0.857467,-1.808902 1.010166,-1.726679 0.375876,0.187938 -0.552067,1.879378 -0.69302,3.547326 z m 0.998419,10.383565 a 19.616011,19.616011 0 0 1 -0.07048,-2.137793 c 0.21143,-0.99842 0.375875,-4.228601 0.575559,0.516829 a 15.775032,15.775032 0 0 1 0.117461,1.57398 c 0,0.305399 -0.129207,0.963181 -0.281906,0.775243 -0.1527,-0.187938 -0.375876,-0.575559 -0.340638,-0.763497 z M 15.483934,20.787167 c -0.199684,0.364129 -2.595891,4.205109 -3.347642,5.133052 l 0.05873,0.05873 a 13.590255,13.590255 0 0 1 -1.573979,1.480011 c -0.36413,0.199684 -1.3977879,0.775243 -1.609218,0.681275 -0.21143,-0.09397 -0.7987358,0.305399 -0.2584145,-0.199684 a 27.333209,27.333209 0 0 0 2.9600205,-2.349223 c 1.174612,-2.079063 1.174612,-1.620964 2.454938,-3.62955 0.481591,-0.751751 0.974928,-1.855886 1.174612,-1.726679 0.199684,0.129208 0.27016,0.164446 0.08222,0.516829 z m -1.679694,6.824492 c 0.07048,1.174612 -0.42286,1.174612 -1.656202,1.526995 -0.763498,-0.176191 0.27016,-0.622544 0.763497,-1.115881 0.610798,-0.716513 0.681275,-0.810482 0.892705,-0.411114 z m 6.906715,-3.406373 c -0.657782,3.523835 -0.669528,2.913037 -0.340637,5.485436 0.07048,0.48159 1.656202,3.465103 1.620964,3.758756 -0.03524,0.293653 -1.491757,-2.220015 -1.973348,-3.065736 a 6.2724252,6.2724252 0 0 1 -0.411114,-2.678114 3.8292334,3.8292334 0 0 1 0.493337,-1.761917 11.100078,11.100078 0 0 0 0.176192,-1.938109 c 0.05873,-0.434606 0.08222,-0.375875 0.516829,-0.728259 0.434606,-0.352383 0.09397,0.505083 -0.08222,0.927943 z m 3.100974,1.068897 c -0.152699,0.469844 0.72826,3.194943 0.634291,3.793995 a 15.363918,15.363918 0 0 0 0.974927,3.441611 9.3968917,9.3968917 0 0 0 1.973347,2.548907 16.362338,16.362338 0 0 0 1.738425,1.374295 c 2.349223,1.667949 2.349223,1.99684 4.240348,3.171451 0.587306,0.36413 2.819067,0.657783 4.075902,1.174612 0.657782,0.270161 -0.869213,0.234922 -1.515249,0.164446 -0.646036,-0.07048 -2.20827,-0.657783 -2.913037,-0.693021 -0.704767,-0.03524 -1.503502,-0.951436 -2.349223,-1.409534 a 39.502184,39.502184 0 0 1 -3.465103,-3.147959 10.019436,10.019436 0 0 1 -2.584146,-3.664788 c -1.315564,-3.11272 -0.90445,-4.428285 -1.174611,-6.01401 a 1.7619172,1.7619172 0 0 1 -0.02349,-1.327311 c 0.164445,-0.42286 0.387621,0.587306 0.387621,0.587306 z m 4.815907,-15.269949 a 37.66979,37.66979 0 0 1 3.523835,-2.924783 c 0,0 2.607637,-1.6562022 2.84256,-1.7501711 1.05715,-0.4463524 2.607637,-2.4784302 4.698445,-2.149539 0.951436,0.1526995 -1.515248,0.9866736 -2.161285,1.2568343 a 20.802369,20.802369 0 0 0 -5.121306,3.2066893 c -0.540321,0.3641295 -2.525414,2.0320778 -2.807321,2.149539 a 20.543955,20.543955 0 0 0 -4.122886,5.7438505 c -0.258415,1.339057 -0.916197,2.548906 -1.773664,5.567658 -1.174611,4.181617 -0.857466,1.245088 -1.174611,5.790834 a 14.576928,14.576928 0 0 0 1.174611,4.592731 c 0,0 0.446353,0.57556 0.234923,0.869213 -0.21143,0.293653 -1.667949,-3.288912 -1.761917,-3.664788 -1.256835,-5.297498 0.892704,-4.580985 2.349222,-11.957545 v -0.540321 l 0.281907,-0.328891 C 24.610665,14.97284 24.44622,15.043317 24.070344,15.60713 a 9.3968917,9.3968917 0 0 0 -1.010166,1.515249 22.834447,22.834447 0 0 1 -1.104135,2.349223 22.693494,22.693494 0 0 0 -1.339057,2.466684 3.9349484,3.9349484 0 0 1 -0.505083,0.99842 c -0.716513,0.892704 -0.575559,3.124466 -1.021912,3.582565 -0.246668,0.258414 -1.068896,0.505083 -1.080642,0.869212 -0.01175,0.36413 -0.951435,2.349223 -0.21143,3.653042 a 18.500131,18.500131 0 0 0 1.538741,2.654622 c 0.434606,0.399368 1.832394,1.503502 1.526995,1.63271 -0.305399,0.129207 -0.716513,-0.469845 -0.716513,-0.469845 0,0 -1.656202,-1.573979 -1.726679,-1.750171 -0.270161,-0.646036 -2.407954,-3.26542 -0.963182,-5.438451 0.187938,-0.281907 0.09397,-0.399368 0.352384,-1.021912 1.491756,-3.676534 1.797155,-3.147959 2.349223,-4.992099 a 41.111401,41.111401 0 0 1 3.26542,-6.190202 c 0.446352,-0.187938 0.387621,-0.187938 1.174611,-0.857467 a 11.746115,11.746115 0 0 1 1.644456,-1.374295 c 0.164446,-0.117461 0.317145,-0.599052 0.728259,-0.974927 a 11.299762,11.299762 0 0 0 1.409534,-1.78541 2.1847773,2.1847773 0 0 0 0.246668,-0.4933367 z M 24.02336,38.136178 c 0.09397,0.21143 0.07048,0.892705 -0.140954,0.775244 -0.599052,-0.340638 -2.854306,-2.701607 -3.934948,-3.194944 a 7.1533838,7.1533838 0 0 1 -2.102555,-1.797155 23.915089,23.915089 0 0 1 -2.043824,-3.171451 c 0.21143,-3.335897 0.528575,-1.726679 1.36255,-5.227021 a 7.3883061,7.3883061 0 0 1 1.503502,-2.913036 c 0.140954,-0.164446 0.740005,-2.642876 0.822228,-2.830814 0.08222,-0.187938 1.115881,-1.867632 1.115881,-1.867632 0.540321,-1.691441 0.63429,-1.750171 2.607638,-4.099394 1.033658,-1.174612 3.582565,-3.441612 3.829233,-3.065736 0.246668,0.375875 0.693021,-0.657783 -0.129207,0.563813 -0.822228,1.221596 0.328891,-0.08222 -1.315565,1.538741 -2.772083,2.748591 -1.597472,0.317145 -4.393047,5.121306 0,0 -2.525415,5.156545 -2.90129,6.084488 -1.667949,4.146378 -2.173031,4.557492 -1.949855,5.790834 0.399368,2.196524 0,1.656202 3.429865,5.156544 a 4.6984459,4.6984459 0 0 0 1.609218,1.174612 15.035027,15.035027 0 0 1 2.63113,1.961601 z m 24.314457,3.230182 a 16.162654,16.162654 0 0 0 2.701606,-4.522255 c 0,0 0.505083,-0.281906 0,1.080643 a 8.2222803,8.2222803 0 0 1 -0.375875,1.538741 c -0.704767,1.292073 -1.99684,2.349223 -2.220016,2.255254 -0.223176,-0.09397 -0.622544,0.21143 -0.105715,-0.352383 z"
           id="path95"
           inkscape:connector-curvature="0"
           style="fill:#ffffff;stroke-width:1.17461145" />
        <text
           y="48.343552"
           x="11.772161"
           class="cls-6"
           id="text97"
           style="font-weight:700;font-size:16.52678299px;font-family:Hind-SemiBold, Hind;fill:#1d1d1b;stroke-width:1.17461145">BROKEN</text>
        <text
           y="55.861065"
           x="12.735343"
           class="cls-7"
           id="text99"
           style="font-weight:700;font-size:7.04766893px;font-family:Hind-SemiBold, Hind;letter-spacing:-0.02em;fill:#1d1d1b;stroke-width:1.17461145">AUTHENTIFICATION</text>
      </g>
    </g>
    <g
       inkscape:groupmode="layer"
       id="layer5"
       inkscape:label="gleam">
      <path
         style="opacity:0.15;fill:#ffffff;stroke-width:1.18620718"
         inkscape:connector-curvature="0"
         id="path101"
         d="M 66.420444,72.807113 A 50.73408,50.73408 0 0 1 24.547331,-6.5738701 50.73408,50.73408 0 1 0 85.340448,69.165457 50.651046,50.651046 0 0 1 66.420444,72.807113 Z"
         class="cls-8"
         clip-path="url(#clipPath1225)" />
    </g>
  </g>
</svg>
