<svg xmlns="http://www.w3.org/2000/svg" xmlns:xlink="http://www.w3.org/1999/xlink" viewBox="0 0 85.89 83.5"><defs><style>.cls-1{fill:none;}.cls-2{clip-path:url(#clip-path);}.cls-3{fill:#f9b233;stroke:#f9b233;stroke-miterlimit:10;stroke-width:10px;}.cls-4{fill:#d59a2c;}.cls-5,.cls-8{fill:#fff;}.cls-6{font-size:14.07px;}.cls-6,.cls-7{fill:#1d1d1b;font-family:Hind-SemiBold, Hind;font-weight:700;}.cls-7{font-size:6px;letter-spacing:-0.02em;}.cls-8{opacity:0.07;}</style><clipPath id="clip-path" transform="translate(0 -0.11)"><circle class="cls-1" cx="42.76" cy="41.1" r="41.1"/></clipPath></defs><title>Element 271</title><g id="Ebene_2" data-name="Ebene 2"><g id="Ebene_2-2" data-name="Ebene 2"><g class="cls-2"><circle class="cls-3" cx="42.99" cy="41.52" r="36.15"/><path class="cls-4" d="M61.63,22.78a21,21,0,0,1,1.78,2A8.82,8.82,0,0,1,67,23.37c2.08.9,4.07,1.87,4.06,2.08S68,24.36,66.88,24.07a8.48,8.48,0,0,0-3,1.19c-.1.29,0,.39,0,.39a9.09,9.09,0,0,1,1.39.6c.19.39.39,1.58.1,1.88-.1.1-.06.14-.4.2s-1.45,1.76-2.52,2.82-4.91.25-4.91.25.23,2.23.3,4.45c.39.71.89.9,2.28,1.49,2.47.3,4.86-.06,4.95.2s-4.82.58-5.25.49-1.49-.49-2.58-.79a10.43,10.43,0,0,0,2.28,2.87c2,.6,4,1.19,4,1.39a32.45,32.45,0,0,1-4.35-.59,24.46,24.46,0,0,1-2.29-1.74c.26.77.46,2.29,1,2.83,1.33,1.33,3.07,2.67,2.92,2.8A34.29,34.29,0,0,1,57,42.32c-.71-1.54-1.77-4.22-1.77-4.22H54.2A171.51,171.51,0,0,1,58,78.74c-4.28-2.13-14.73-17.92-7.52-28.07,1.21-1.71,1.34-12.3,1.34-12.3a8.3,8.3,0,0,1-2.34-1,3.06,3.06,0,0,1-.69.1C53.3,47.86,21.52,62.9,21.52,62.9S36.55,31.11,47,35.66a3.06,3.06,0,0,1,.1-.7,8.3,8.3,0,0,1-1-2.34S35.45,32.75,33.75,34C23.59,41.17,7.81,30.72,5.67,26.44a171.51,171.51,0,0,1,40.64,3.77V29.15s-2.68-1.07-4.22-1.78a36.73,36.73,0,0,1-2.48-3.74c.13-.16,1.47,1.58,2.81,2.91.53.54,2,.75,2.82,1a23.84,23.84,0,0,1-1.73-2.28,32.62,32.62,0,0,1-.6-4.36c.2,0,.79,2,1.39,4a10.24,10.24,0,0,0,2.87,2.28c-.3-1.09-.69-2.08-.79-2.58s.23-5.33.49-5.25-.1,2.48.2,5c.6,1.38.78,1.88,1.49,2.27,2.22.07,4.45.3,4.45.3s-.82-3.84.25-4.91,2.77-2.18,2.82-2.52.1-.3.2-.39c.3-.3,1.49-.1,1.89.09a9.77,9.77,0,0,1,.59,1.39s.1.1.4,0a8.45,8.45,0,0,0,1.18-3c-.29-1.09-1.6-4.15-1.38-4.16s1.19,2,2.08,4.06A8.82,8.82,0,0,1,59.65,21,21,21,0,0,1,61.63,22.78Z" transform="translate(0 -0.11)"/><path class="cls-5" d="M22.81,53.79c-1.11-1.64-1.92-.55-1.87-.27s1.23.42,1.44.51S22.81,53.79,22.81,53.79Z" transform="translate(0 -0.11)"/><path class="cls-5" d="M18.91,49.57c.22.08,2.09.64,2.73.9a4.26,4.26,0,0,1,1.9,1c.25.19.73-.07.86-.18s-2.32-1.71-2.82-1.81-.88-1-1.23-1.24a16.9,16.9,0,0,0-2.68-1.62c-.45-.1-.29.42-.22.74s2.61,1.3,2.78,1.7-1.08-.48-1.52-.53-.73-.34-1.11.29S18.7,49.48,18.91,49.57Z" transform="translate(0 -0.11)"/><path class="cls-5" d="M24.64,56.3c.2-.08.3-.54.45-.6s2.44.35,2.13-.38l-.34-.38s-1.79-.48-2.24-.58c-.65-.14-2.82.21-2.36.82a4.26,4.26,0,0,0,1.55,0c.4-.17.44.35.44.35a3.07,3.07,0,0,0-.83,1.22C23.25,57.47,24.44,56.38,24.64,56.3Z" transform="translate(0 -0.11)"/><path class="cls-5" d="M21.8,4.9c.32-.06.65,0,1-.07,1.48-.13,1-1.1,1.31-1.63s1.54-.8,2.17-1.46c.06-.07.23-.2.24-.3s-.29-.11-.44-.12c-.5,0-.53.16-1.46.65-.32.17-.68.26-1,.46-3.25,2.14-3.83,1.79-5.05,4-.05.09-.2.48-.32.51C19.61,6.69,20.45,5.15,21.8,4.9Z" transform="translate(0 -0.11)"/><path class="cls-5" d="M11.4,24.34c1.27-.54,3.33-2.88,2.36-2.47a3.71,3.71,0,0,0-1.59,1C11.33,23.61,10.61,24.68,11.4,24.34Z" transform="translate(0 -0.11)"/><path class="cls-5" d="M16.79,45.24c.35-.55-.06-1-.53-.83s-.13.53-.07.8S16.79,45.24,16.79,45.24Z" transform="translate(0 -0.11)"/><path class="cls-5" d="M27.1,2.5c1.79-.76,4.22-1.66,4-2.16S27.45,1.1,28,1.2C26.43,2,25.33,2.78,27.1,2.5Z" transform="translate(0 -0.11)"/><path class="cls-5" d="M12.7,29.36c.23-.16.93-.86.93-.86,1.21-.51,3-3.42,3.54-4.26.68-1.16-.65.28-.78.39s-1.92,2.79-3.3,3.57c-.42.24-.54.64-.94.81a2.06,2.06,0,0,0-1,.76C10.75,30.32,12.36,29.6,12.7,29.36Z" transform="translate(0 -0.11)"/><path class="cls-5" d="M73.13,53.61c0,1.84,0,1.13-.58,1.65-.73.66-1.23,1.62-3.83,5.59-3.3,4.94-3.48,3.5-4.63,8.09-.07.28-2.62,5.46-2.62,5.46L59.8,78.74h1.34c.81-2.45-.19-.4,4.45-10.64,2.78-4.73,6.5-10.49,6.47-10.85,0-.18,2-1.72,2.1-2s.54-1.89.66-2.07,1.55-1.48,1.55-1.48l-.16-2.17C76,48.74,73.57,52.87,73.13,53.61Z" transform="translate(0 -0.11)"/><path class="cls-5" d="M72.9,61.06l.43-1.33,1-.41,1.42-3.74-2.18,1.93c-2,3.36-.72,1.53-5.9,8.35-2.68,6.92-1.51,4.08-5.15,12.46l1.45-.61,4.53-10.92Z" transform="translate(0 -0.11)"/><path class="cls-5" d="M71.7,52s-2,2.91-2.2,3.11c-.38.45-4.31,7.86-5,8.51,0,0-.73.41-2.32,1.5l-.16.06c-1.06,1.7-1.1,2.47-1.63,3.25-.12.18-1.27,1.37-1.42,1.62s-1.09,2.57-1.09,2.57L56.4,74.94c-.95,2.34-.63,1.15-1.85,3.79-.36.79.36.23,1-.15s.66-1.75.66-1.75L57.3,75.4,58,75a49.92,49.92,0,0,1,2.62-5.14l.64-.59a22.11,22.11,0,0,1,1.44-3.55l.75-.19c.75-.19-1.75,4.32-1.75,4.32-.77,1.66-.27.74-2.91,6,0,0-1.1.59-1.59.93s-.74,2-.74,2l.85-.1c.23-1,.54-.82.87-.82s0,1,0,1l.91-.12a10.86,10.86,0,0,0,.56-2.61c4.5-8,2.41-3.67,5.2-11.27A48.55,48.55,0,0,0,69.22,58c1-1.81,2.58-3.71,2.82-4.2,2.31-4.66,4-6.86,3.13-7.71C74.84,45.71,71.91,51.63,71.7,52Z" transform="translate(0 -0.11)"/><path class="cls-5" d="M72.09,43.52c-.17.59-1.52,2.14-.72,2.39,1,.31,1.81-3,2.14-3.67l-.34-.46C72.55,41.91,72.24,43,72.09,43.52Z" transform="translate(0 -0.11)"/><path class="cls-5" d="M74.31,62c-4,3.46-3.25,1.84-9.19,15.74l1.64-.84,5.15-11.46,1.18-.93L68.77,76l1.37-1.15c2.39-4.91,1-1.32,3.56-8.8a21.14,21.14,0,0,0,.76-2.6l.8-.48c1.91-5,1.46-4,2.22-5.22l-.82-.23Z" transform="translate(0 -0.11)"/><path class="cls-5" d="M26,58.25c.29,0,.39-.87.39-.87.12-.29-.62-.79-1.08-.77s-.7.29-1.07.68.66.31.93.25.21.21.19.45S25.7,58.25,26,58.25Z" transform="translate(0 -0.11)"/><path class="cls-5" d="M73.42,71.41c.68-.43,3.11-8.17,3.11-8.17C75.68,63.6,72.74,71.84,73.42,71.41Z" transform="translate(0 -0.11)"/><path class="cls-5" d="M69.9,35.18c-.21.13,0,.62,0,.62.24.4-1.35,3.75-1.63,4.38a11.94,11.94,0,0,0-1,1c-.22.34-2.41,5.11-2.41,5.11s-3.29,4.91-4,5.23c-.53.22-3.53,4-4.87,5C52.85,59,53,59.67,50,62.56a10.64,10.64,0,0,0-.72,1,15,15,0,0,1-1.94,1.34,12.69,12.69,0,0,0-1.77,1.94,9.67,9.67,0,0,0-1.37,1.46A28,28,0,0,0,41,71h-.49L40,72.14l.19.36c1.18-.5,1.15-.44,1.41-1.16l.49.23c2-.79.76-.5.89-.6s1.83-2,2.25-2.49c0,0,3.23-3.21,4.9-5.16,2-2.37,6.57-5.62,8.88-8.64.6-.78,1.83-1.61,2.4-2.24,1.56-1.76,4.19-4.85,5.1-7.09a13.6,13.6,0,0,1,2.05-4.08c.64-.74.25-1.06,1.44-2.85a20,20,0,0,0,.77-3c.07-.25,0-.34-.21-.48S70.11,35.05,69.9,35.18Z" transform="translate(0 -0.11)"/><path class="cls-5" d="M68.27,30.5c0,.14-.94,3.47-1,4.19S66,37.1,66.09,37.94c0,.16-.63,2.25-.63,2.25s-.09,1.13-.09,1.35-.79,1.57-1,2c-1.8,4.47-8,10.6-8.52,10.87a15.05,15.05,0,0,0-1.52,1.7c-.18.21-1.89,1.68-2.1,1.81s-1.65,1.09-2,1.27c-.73.3-5,4-7,5.07-.43.23-2.44,1.83-2.82,2.08-3.37,2.22-2.95,1.88-3.14,2.56-.07.25.46.24.81.14s1.12-1.09,1.43-1.31,1-.51,2.07-1.23c5.21-3.49,8.66-7.1,8.72-6.33a15.21,15.21,0,0,1-1.71,1.69C48.42,62,47,63.58,46.37,64c0,0-5.07,3.9-5.46,4.15-3.46,2.28-3.47,2.15-2.58,2.85.33.26,2.1-.75,2.84-1.29a24.55,24.55,0,0,0,2.22-2,68.72,68.72,0,0,0,6-5.5,49.05,49.05,0,0,1,3.39-3.72c.15-.07,2.62-2.12,2.62-2.12,5.93-6.2,3.46-3.82,6.29-6.58,3.47-4.73,3.08-5.42,4.44-8.21.19-.39,1.34-1.32,1.46-1.55a14.39,14.39,0,0,1,.74-1.37c.49-.64.49-2.13.77-3,.16-.46.35-1.47.61-2.11s0-.29-.29-.36-.34.85-.34.85c0,.28-1.77,4.42-1.86,4.57a4.33,4.33,0,0,1-.54,1.51c-.46.59-.49-.41-.42-.66s.37-.69.46-1,1-2.77,1.15-3.22c.94-3.53,1.26-3,.9-5C68.74,30,68.4,30.18,68.27,30.5Z" transform="translate(0 -0.11)"/><path class="cls-5" d="M28,60.22c.75-.44-.22-.38-.35-.68s.26-.23.58-.42-.23-.43-.23-.43a2.21,2.21,0,0,0-2.47.69c-.61.5.59.69,1,.93S27.24,60.65,28,60.22Z" transform="translate(0 -0.11)"/><path class="cls-5" d="M54,76.92l.16-.38L55,75.8a9.58,9.58,0,0,1,1.6-2.41l0-.39.59-1.78-.29.06,3.49-4c.9-2.34.5-1.68,3-4l.18-.46,1-1.2s1.47-2.42,1.72-2.9c.56-1.13,2.12-3.07,2.09-2.62l1.45-3.36c3.16-3.84,2.14-2.26,4.48-6.94L74,44.51l-1.12,1a21.83,21.83,0,0,0-1.55,4,17.32,17.32,0,0,1-2.69,3,9.35,9.35,0,0,1-1.14,2.59c-1.67,3.29-1,2.2-3.16,4.79C61.91,63.59,60,64.47,57.13,70c0,0-1.24,1.74-1.38,1.86s-1.22,2.7-1.36,2.82A14.22,14.22,0,0,0,52.31,78l1,.38A5,5,0,0,0,54,76.92Z" transform="translate(0 -0.11)"/><path class="cls-5" d="M54.33,68.92A12.55,12.55,0,0,0,56,66.76a9.77,9.77,0,0,1,2.58-3.65c1.38-1,1.49-2.4,2.46-3.81a16.18,16.18,0,0,1,2-1.8c.57-.59,1.59-2.27,2.36-2.29a9.2,9.2,0,0,0-1.62,2.49c-1.41,2.54-3,3.25-3.57,4.92a6.13,6.13,0,0,1-.22.87c-.36.63-1.18.37-1.85.8-.86.54-.61,1.84-1.09,2.71-.95,1.73-3.4,4.1-3.92,5.16-.14.27-.09.62-.25.9-.3.53-1.62,1.21-.74,1.88,1.36-.73,2-2,3-3.14.69-.81.67-1.82,1.33-2.65,1.06-1.33,2-2.66,2.91-4,.3-.42.79-.71,1.12-1.18s.22-.81.83-1a.09.09,0,0,1-.08-.05A30.8,30.8,0,0,0,64,59.18c.75-1.36,1.85-2.57,2.48-4a19.47,19.47,0,0,1,2.89-4.8c.53-.62.86-1.33,1.38-2s.89-1.41,0-2c-2.42,3-1.73,2.7-2.91,4.39-.4.57-.74,1.19-1.16,1.68s-1.17,1-1.73,1.54c-3.27,3.16-3.62,4.61-4.68,5.84S58.2,62,57.31,63s-4.06,5.32-4.6,6c-2.17,2.61-1.14,3-3.75,6.22-.19.23-.77.61-.8.9,0,.55,1,1.35,1.41,1.38.24-.47.15-1.1.35-1.64a12.78,12.78,0,0,1,1.36-2.12S53.38,70.09,54.33,68.92Z" transform="translate(0 -0.11)"/><path class="cls-5" d="M45.12,71.38c2.31-2.29,1.74-2.19,5.87-7,12-10.6,1.28-.58,10.66-10,.21-.2,1.5-2,1.72-2.12.05,0,3.17-3.39,1.56-3a7.4,7.4,0,0,0-.77.8l0,.14L62.8,51.87l0,.18c-6.92,7.14-4.66,5.06-9,8.76-.15.23.12-.05-1.9,1.85a55,55,0,0,0-7.23,7.66C42,73,42.4,72.54,42.78,73.13c.17.27.52,0,1.41-.37A1.64,1.64,0,0,0,45.12,71.38Z" transform="translate(0 -0.11)"/><path class="cls-5" d="M67.1,29c.05,1.5-2.84,11.58-2.61,11-2,5-.82,1.27-3,6.29A12.6,12.6,0,0,1,58,50.55c-.46.44-5.17,4.4-5.47,5-.13.23-3,2.5-3,2.5-1.32.55-2.13,1.59-3.4,2.36-.25.15-2.1,1.59-2.36,1.7,0,0-5.3,3.35-6.59,4a10.92,10.92,0,0,0-1.9,1c-.54.4-1.27.54-.93.83a1.17,1.17,0,0,0,1.21.37c.45-.19,3.17-1.87,3.4-2s3.38-2.31,3.79-2.58,3.47-2.21,3.64-2.33,2.14-1.7,2.63-2a29,29,0,0,0,5.06-3.95s6.49-6.47,7.18-7.57c.35-.54,1.83-3,1.83-3a12.33,12.33,0,0,1,.34-1.38c.1-.17.61-.52.7-.73s.26-1,.26-1a21.84,21.84,0,0,0,1-4.26A30,30,0,0,0,67,32.94C69.13,26,67.07,28.21,67.1,29Z" transform="translate(0 -0.11)"/><path class="cls-5" d="M34.43.64C35.66-.47,33,.36,33.12,1.2,33.21,1.6,34.43.64,34.43.64Z" transform="translate(0 -0.11)"/><path class="cls-5" d="M39.29,57.79c5.17-1.75,6.9-2.08,8.66-3.38.49-.36,4.86-3.22,4.86-3.22s-.37-.32-.6-.16-.67.22-.82,0,1.51-1.28,1.51-1.28a37.78,37.78,0,0,0,3.72-3.69,23.83,23.83,0,0,0,1.45-2.66,20.56,20.56,0,0,1,1.14-3c.17-.42,1-3.13,1.08-3.39s.59-3.48.63-3.79.62-3,.67-3.27c.43-3,.65-9,.9-10.77,0-.31-.53-.42-.53-.42-1.15,7-.08,6.8-2.13,17.57-.09.44-2.15,7.36-3.34,8.74-2.84,3.36-.87,1.25-3.76,3.88-3.4,4-2.53,3.35-5.79,5.44-5.22,1.93-3.26.3-7.25,2.71a37.6,37.6,0,0,0-7.23.37c-.37.1-1.56.07-1.88.14a6.52,6.52,0,0,0-1.87.86c-.18.25.67.59.89.56a9.61,9.61,0,0,0,1.8-.47,21.34,21.34,0,0,1,2.81-.42c.37-.1,1.83,0,2.13-.09a8,8,0,0,1,1.6-.38l.72.05a28.31,28.31,0,0,1-5.25,1.17s-2.27.6-2.47.69c-.85.35-2.89-.46-3.39,2.37-.23,1.27,1-.61,1.36-.81C31.37,59.64,36.83,59.8,39.29,57.79Z" transform="translate(0 -0.11)"/><path class="cls-5" d="M60.39,17.12c0,.21-.91,3.1-1,3.69-.19,4.49.51,3-2,14.7h0a5.41,5.41,0,0,1-.38,1.9c-.1.63.1,1.14-3.21,5.23-1.09,1.33-4.4,5.09-5.33,5.62s-2.6,1.75-3.25,2-1.33.74-1.7.84a29.94,29.94,0,0,0-3.42.8,4.39,4.39,0,0,0-.48,0,3,3,0,0,0-.33.28l-1.36.38a.58.58,0,0,1-.32.09c-.41,0-.8.46-1.13.24a.93.93,0,0,0-.35-.07,28.82,28.82,0,0,1-4.79.28,2.59,2.59,0,0,0-.37.07c-1.09-.17-.9.21-3.09-.21-.78.1-.37.11-2.91-.65a1.84,1.84,0,0,1-.24.18c-.37.79-.46.28-1.13-.49-.48-.25-.39-.2-2.8-.8-.34-.39-.63,0-.71.48,1.09.85,1.65,0,2.91,1.29.66.48,1,.77,1.82.52,0,0,4,.44,4.19.33a7.76,7.76,0,0,1,2.7-.14c.33.09.36.31.59.28s2.15.09,2.4,0-.14-.17.79-.33c3.68-.63-2,.56,7.05-1.64.61-.25,2-.86,2.62-1.16,1-.62,3.61-2.29,3.61-2.29a30.19,30.19,0,0,0,2.35-1.94c.11-.16,2.3-2.32,2.46-2.5s1.74-2.5,1.86-2.67a5.79,5.79,0,0,0,1.29-1.87c.22-.52.75-1.54.78-1.7.37-1.92.23-.3,1.23-6.1.16-.88.11-1.69.22-1.85s.55-3.69.65-3.86c0,0,.21-2.82.3-3.35A3.6,3.6,0,0,1,60,20.56c0-.3,1.19-3.47,1-3.7S60.39,17.12,60.39,17.12Z" transform="translate(0 -0.11)"/><path class="cls-5" d="M72.25,39.93l-.45.4c-2.31,4.84-3.25,4-3.66,7a7,7,0,0,0-2,2.43c-1.42,2.11-.45.93-4.81,5.76-7.57,9-5.65,5.1-9.8,10l-2.29,2.28c-1.28.77-2.27,3.35-2.3,3.53,0,.37-1.8,2.9-1.74,3.22s.53-.37.53-.37c3.59-4.14,2.49-2.62,4.84-6.67,2.83-3,1-1.53,3.91-4.13.72-.63.38,0,.07.8,0,0-1.36,1.68-1.66,1.94S50,69.8,49.78,70c0,0-2.55,4.59-2.62,4.9s.58.24.58.24l2.33-3A11.37,11.37,0,0,1,50.66,70c4-4.74,1.87-2.24,3.47-3.89.33-.35,1.42-1.84,1.55-2s.75-2,.75-2a9,9,0,0,1,2-1.87c1.07-.77,2.29-2.92,4.53-5.29,3.15-3.86,3.7-4.14,3.58-4.42a37.39,37.39,0,0,0,6.07-10.3C73.55,37.94,72.25,39.93,72.25,39.93Z" transform="translate(0 -0.11)"/><path class="cls-5" d="M17.9,42.69c.13.05.09,0,.15,0Z" transform="translate(0 -0.11)"/><path class="cls-5" d="M71.15,37.16l-.18,1a16.29,16.29,0,0,1-2.26,3.65c-.76,2.92-.2,1.57-2.6,6.07.31.74.8-.13,1.54-1.41a17.8,17.8,0,0,1,3.21-5.78l.9-2L71.82,37A.66.66,0,0,0,71.15,37.16Z" transform="translate(0 -0.11)"/><path class="cls-5" d="M65,31.44a37.75,37.75,0,0,1-1,3.64c-.94,3.11.12,1.14-1.62,4.69-3.18,5.63-1.93,3-3.29,5.75,0,0-1.37,1.64-1.48,1.81S55,50.09,54.74,50.22,53.11,51.35,52.29,52c-5.66,4.49-6.35,3.74-8.8,4.78-2.66,1.12-1.71,1-4,1.58l-2,.85c-.19.08-2.44.68-2.66.69s-3,1-3.3,1.13a22.75,22.75,0,0,0-2.82.93c-.25.24-.35.94.07.8,5.32-1.71,1.71-.28,6.28-1.81,1-.34,1.51-.38,2.14-.65S39.5,59.22,40.06,59l2.22-.89a20.16,20.16,0,0,1,3-1.26c.4,0,2-.39,1.51-.07-1.28.93-4.89,1.84-6.63,2.72-2.57,1.3-8.68,3.58-8.77,3.62s-2.83.49-1.77.7,1.22.28,1.93,0,3.38-1.16,3.83-1.35c3.46-1.47,6.73-2.59,6.73-2.59C48.8,57,56.69,49.05,57.63,48.29c1.52-1.22,1.75-1.6,5.86-9.65a16.8,16.8,0,0,1-2.17,5.28c-2.84,5.34-2,3.2-3.57,5.07a37.38,37.38,0,0,1-3.34,3.13c-.46.28-1.92,1.61-2.15,1.79-3.39,2.76-4.53,3.45-5.19,4-.27.2-2.3,1.32-2.53,1.51-1,.8-6.56,2.11-7.46,2.76a10.32,10.32,0,0,1-3.24,1.59c-.58.13-2.78.73-2.37,1.17a1,1,0,0,0,1.08.25c2.79-1.18.86-.62,4.1-1.65.22-.06,7-3.23,6.33-2.5s-3.12,1.53-3.51,1.8l-3.57,2a19,19,0,0,0-2.45,1.08c-.27.29-.38.86-.24,1,.51.44,2.46-.31,3-1.08.69-1,.94-.71,2.51-1.46C39,64.14,43,62,43.52,61.66c.89-.6,1.38-1.12,1.7-1.29s1.34-1.32,1.75-1.58a44.89,44.89,0,0,0,3.9-2.53,13.67,13.67,0,0,1,1.47-1.33c1.46-.8,6.31-6.15,7.57-7.16.69-.56,1.16-2.16,1.33-2.37A16.08,16.08,0,0,0,62,43.72a29,29,0,0,0,2-4.37c.34-2.83.39-3.24.67-3.94,0-.06,2-5.89,2.21-8.41C67.27,24.65,66.28,23.79,65,31.44Z" transform="translate(0 -0.11)"/><path class="cls-5" d="M63.49,20.15c-.27-.24-.27,1.17-.34,1.55s-.48,1.08-.35,1.67a14.87,14.87,0,0,1-.56,3.94,30.25,30.25,0,0,0-.11,3.62c-1,5.32-.58,4.16-2,7.77l-.46,2.66c-1.26,2.45-.72,1.35-2.4,4.88a9.07,9.07,0,0,1-1.36,1.34c-.35.15-2.08,2.17-2.31,2.33s-.11.28,0,.46,2-1.67,2.25-1.89,2.66-3,2.82-3.19S60.14,42,60.14,42s.49-.5.8-.75a11.24,11.24,0,0,0,.87-2.37c.87-2.12.3-1.25,2.23-6,.2-.5.39-2.69.55-3.69s1.12-3.18,1.24-4-.29-.29-.75,0-.66,2.45-.66,2.45l-.7,1.41c-1.84,10.71-5.1,16.45-2.07,7,.92-2.76.62-1.92,1.44-7.42l.64-.85A4.12,4.12,0,0,0,64,26.35c0-.22.94-2.22.84-2.71s-.51-.25-.74-.09-.09,2.73-.78,3.14c-.33.2-.17-1.92-.1-2.18C64.5,19.09,64.09,20.66,63.49,20.15Z" transform="translate(0 -0.11)"/><path class="cls-5" d="M64,22.26c-.07.26.18.57.24.72s.6-.25.6-.25a.91.91,0,0,0-.29-1.11C64.15,21.28,64.1,22,64,22.26Z" transform="translate(0 -0.11)"/><path class="cls-5" d="M53.62,46.73c-.19.22-6,5.73-6.52,5.93s-3.25,1.49-3.94,1.67-6.5,2-7.69,1.78c-.69-.11-3.28.16-3.49.07s-6,0-5.16.84c.43.46.42.7.88.56,3.85-1.13,9.79-.33,14.66-2.39,5.48-1.56,4.24-1.27,9.2-5.41a30.45,30.45,0,0,0,5.53-6.51c.26-.4.75-2.67,2.13-6.88,1.67-7.57.7-3,1.58-10.41A18.8,18.8,0,0,1,61,23.09c.16-.19.33-2.55.55-3.29s.35-1.67.18-1.78-.44.19-.55.35-.63,2.68-.63,2.68l0,2.39a22.06,22.06,0,0,0-.33,3c.06.56-.54,3-.45,3.53s-.77,3.44-.69,3.64A18.78,18.78,0,0,1,58.76,36c-1.44,3.78-1.09,2.9-1.68,4.35a17.48,17.48,0,0,0-1.76,2.09c-.54,1.34-6.27,7.89-12.51,10.23,0,0,.32.33-.14.64a10.66,10.66,0,0,1-2.21.88L39,54.35c.09-.35.21-.35,2.4-1.13,0,0,.09-.34-.13-.3a7,7,0,0,0-1.44.2c-.68.28-3.77,1.31-4.21,1.43-1.07.28-7.39-.34-7.49.18,0,.19.08,1,.42,1s2.86,0,3.06-.12a19.33,19.33,0,0,1,2.5-.18c.59,0,2.62-.46,3.18-.4a14.32,14.32,0,0,0,5.46-1.09c1.9-.92,2.2-1,2.73-1.32s2.74-1.69,2.87-1.81C51.36,48.17,51,49,53.41,46.24c.16-.19,2.25-2.6,2.33-2.81s1.22-2.39,1.32-2C57.34,42.46,54.4,45.83,53.62,46.73Z" transform="translate(0 -0.11)"/><path class="cls-5" d="M34.42,4.69A28.2,28.2,0,0,0,29.94,7a6,6,0,0,1-1.46.73c-.24.11-1.77,1.22-1.92,1.29s-1.17,1.5.28.23c.62-.32,2.07-.93,3.15-1.57.45-.26,4.75-2.48,4.76-2.48a33.58,33.58,0,0,0,5.93-2.75s.61-.37.39-.74-1.54.65-2.39,1C35,4.26,39,2.32,34.42,4.69Z" transform="translate(0 -0.11)"/><path class="cls-5" d="M15.91,24.6a6.86,6.86,0,0,1,1.79-1.46,5,5,0,0,0,1.13-1.36c.53-.81,1.11-.82,1.64-1.39.82-.92-.92-.25,1.6-2.44a21.35,21.35,0,0,1,1.71-1.37,18.25,18.25,0,0,1,1.44-1.73,20.41,20.41,0,0,1,4.88-2.76c.73-.32,4.29-3.34,5.87-4,.2-.09,2.14-1.32,2.39-1.43s1.72-.49,2-.6,1.75-1.26,2-1.37a18.79,18.79,0,0,0,3-1.58c1-.73-1.56-.09-2.25.37s-3,1.4-3.72,1.75S38.45,6,38,6.29s-1.62,1-2.07,1.35-1.56.89-3.07,1.76C30.1,11,30,11.67,26.34,13.2c-.84.36-1.25,1.06-1.5,1.17s-1.12.12-1.59.26A5.74,5.74,0,0,0,21.37,16a4.81,4.81,0,0,1-1.66,1.47c-.23.14-4.71,3.34-5,3.56s-.17.72-.28.88c-1.17,1.79-.92,1.21-2.34,2.63-.21.21-.71.42-1.24.82s0,.36,0,.51,1.27-.88,1.57-1a39.32,39.32,0,0,0,3.88-4c.12-.29.42-.53,1.48-1.51A7.34,7.34,0,0,1,20.33,18a11.92,11.92,0,0,0,1.53-1.23c.66-.52.56-.77,1.22-1.28s.67.06.67.06c-3.82,4.23-5.58,3.75-7.12,5.78a33.62,33.62,0,0,1-2.91,3.1,4.71,4.71,0,0,0-1.26,1.18c-.47.91-2.65,1.74-1.16,1.84.24,0,1.51-1.28,1.87-1.55a17.36,17.36,0,0,0,1.23-1.4c.2-.2,1.4-1.12,2-1.81s.84-1.06,1.52-1.81.47-1,1.33-1.15c1.12-.25-2.45,3.58-4,4.68a4,4,0,0,0-.92,1,39.67,39.67,0,0,1-3,2.86c-.9.79-.46.43-.51.75S14.35,26.64,15.91,24.6Z" transform="translate(0 -0.11)"/><path class="cls-5" d="M14.18,21.05c.3-.24.84-.77.84-.77a37.06,37.06,0,0,0,6.33-4.73c1.74-1.88-.62.43,6.23-3.87A15.08,15.08,0,0,0,30.67,10,12,12,0,0,1,33,8.86,12.45,12.45,0,0,0,35.3,7.19C35.57,7,40.76,4,41,3.89a5.5,5.5,0,0,0,2-1.37c1.06-1-1.26.06-1.71.25s-1.14.9-1.7,1.25-.65.28-1.35.69c-1.23.73-2.53-.12-2.54.66l1.17.27c-5.64,3.36-6,3.46-6.36,3.69a6.14,6.14,0,0,1-2.23,1.24c-1.53.33,4.8-3.5,6.59-4.26.4-.17.12-.4-.14-.47a27.19,27.19,0,0,0-3.59,1.64C30.76,7.7,29.48,8.83,29,9a8.16,8.16,0,0,1-1.55.36c-.8.16-.73.48-.86.6a9.35,9.35,0,0,0-.81,1.4,6.67,6.67,0,0,1-1.43,1.07c-2.5,1.63-2.3,1.15-2.95,1.07a1.47,1.47,0,0,0-1,.25,18.84,18.84,0,0,0-4.63,3.08,3.29,3.29,0,0,1-2,.48,3.94,3.94,0,0,0-2.27,1.13c-.19.26.16.94.43,1.17s.25-.52.37-.92.37-.1.75.1.35.55.5.49l2.73-1.45a33.15,33.15,0,0,0,2.84-2.44,2,2,0,0,1,1.23-.57c.47-.14.35.55.35.55-3.11,2.24-1.24.67-5.39,3.63-1.22.87-1.07.39-1.31.5s-.35.44-.56.76c-.44.66-1.88,1.49-2.32,2.16S13.64,21.48,14.18,21.05Z" transform="translate(0 -0.11)"/><path class="cls-5" d="M15.22,14.41c.94-.36,2.91-1.64,3.42-1.89,1.16-.6,4.51-3.13,4.56-3.16.34-.24,1-1,1.33-1.23a14.86,14.86,0,0,1,1.33-.69C29.18,5.68,28.4,5.73,30,5a10.09,10.09,0,0,0,1.81-.81,6.51,6.51,0,0,1,2-1.27C35,2.4,36.44,1.64,36.59,1.58s1.22-1.27.23-.89A37.29,37.29,0,0,0,31.2,3.2a16,16,0,0,0-1.73,1.12,8.92,8.92,0,0,1-1.35,1,15.29,15.29,0,0,1-1.77,1.23,23,23,0,0,1-4.11,1.64l-.52-.08c7.19-3.75.4.46,10.81-6.34,1.54-2-7.32,4.67-5.71,2.3l-.33-.21A8.69,8.69,0,0,0,24.93,4c-.3.12-1.06,1.38-1.06,1.38C23.2,6.65,21.2,6.63,19.35,8c0,0-.06.14-1,.67-1.48.8-2.62.22-1.1,2.1,0,0-.77-.14-1,.08s-.53.7-.2.91a2.45,2.45,0,0,0,1.84-.08c.36-.26,2.18-1.5,2.8-2s.74-1,1.21-.74c-.22.57.05.37-.3.69a18.54,18.54,0,0,1-2.06,1.67,9.19,9.19,0,0,0-1.3.68,3.68,3.68,0,0,1-1.19.72c-.54.18-.78-.07-1.6.37s-2.09,1.1-1.39,1.29S14.27,14.76,15.22,14.41Z" transform="translate(0 -0.11)"/><path class="cls-5" d="M14.36,16.63c.27-.05,2.28-1.14,2.28-1.14C18.87,14,18,14.08,20.47,13.05c.45-.19,1-.52,1.3-.67a2.37,2.37,0,0,1,1.07,0A3.05,3.05,0,0,0,24,12a4.42,4.42,0,0,0,1.11-.71c.41-.29.19-.66.3-.83s-.15-.76-.15-.76a13.39,13.39,0,0,1-1.14.78c-.2.08-.39.87-1.16.72s.75-1.13,1.09-1.45a3.92,3.92,0,0,1,1.22-.58c1.48-.9,4.43-2.85,4.47-2.89.57-.46,8.29-3.9,9.77-4.78s-2.23.42-2.95.79L31.78,4.69c-.5.21-1.19.79-1.79,1-4.06,1.7-2.39,1.77-5.75,3.19-.15.07-3,2.23-3.28,2.92-.14.35-.38.21-1.14.48A12.26,12.26,0,0,0,17.36,14c-1.5,1.08-1.68.57-4,1.42-.91.33-.18.25-.37.63S14.09,16.69,14.36,16.63Z" transform="translate(0 -0.11)"/><path class="cls-5" d="M52.72,13.43c-.7.41-.53.69-.23.56s2-1.3,2.78-1.76a5.72,5.72,0,0,0,1-.71c.28-.18-.24-.43-.24-.43C55.67,11.24,53.43,13,52.72,13.43Z" transform="translate(0 -0.11)"/><path class="cls-5" d="M45.1,10.29c-.24.14-2.86,2.17-3.5,2.44a25.29,25.29,0,0,0-4.9,3.71c-.2.35-.74,1.15-1.09,1.78a14.59,14.59,0,0,0-1.06,3.31,8.82,8.82,0,0,0-.75,2,33.64,33.64,0,0,0-.25,4,9.69,9.69,0,0,0,1,4.52A14.73,14.73,0,0,0,37,35.43a3.19,3.19,0,0,0,2.5.4c1.58-.67,1.26-1.75,1.62-2.62A28.49,28.49,0,0,0,41.09,30a31.45,31.45,0,0,1,.14-4.86c.05-.2.26-2.09.29-2.24s.65-1.68.65-1.68c-.46-1.87-.58,1.43-1,.77-.27-.42.07-1.08.07-1.08.32-1,.31-1,.72-1.32.47,1.32.48-.14.86-1.07.09-.21,1-1.74,1.07-1.86s.67-.81,1.87-2.55a31.53,31.53,0,0,1,4.48-2.91c1.23-1-.83-.6-2.46.52a16.47,16.47,0,0,0-2.33,1.46c-1.77,2-.89,1.24-2.12,3.1-.16.25-.65,1.37-.8,1.66s-1.21,1.39-1.37,1.64a6,6,0,0,0-.67,1.64c0,.31-.25,1.6-.18,1.75s.53.22.61.31.17,1-.09,1.14-.44-.43-.55-.16a25.65,25.65,0,0,0,0,4.88,9.86,9.86,0,0,1,.24,2.76c-.12.51-.07,2.2-.72,2.77a3.66,3.66,0,0,1-.91.65,3.39,3.39,0,0,1-1.14-.09,6.7,6.7,0,0,1-.8-.63c-.65-.66-.59-.26-1-3.84,0,0-.42-.7-.47-.5s.56,2.57.24,2.54-.53-.62-.53-.62L35,30.53l.45-1A30.94,30.94,0,0,1,35.29,26c0-3.86-.18-3.09.45-3.36.33-.14.15.95,0,2.88A6.75,6.75,0,0,1,36,26.62c0,1.62.12,2.72.1,3.13a26.69,26.69,0,0,0,1.13,4.34c.29.7,1.15.67,1.77.3a3,3,0,0,0,.77-1.09c.27-.47.08-2,.19-2.6s-.17-1.92-.08-2.55c.17-1.2-.3-2.26-.8-1.48-.11.16.27,1.06.3,1.69s0,2.47,0,2.86a14.48,14.48,0,0,1-.17,1.83c-.05.34-1,1.87-1.86-.09-.12-.3-.47-1.39-.55-1.59s-.18-2.91-.18-3.33c0-1.71.42-1,.43-.53.07,3.4.22,3.67.57,4.28.22.37,0-1.41,0-1.41s-.06-2.79-.08-3c-.11-1.47-.53-.32.07-3.72l.12-1.4a18.58,18.58,0,0,1,.93-2.5,32.19,32.19,0,0,1,2.24-3.59A11.71,11.71,0,0,1,44,12.73c.43-.36.74-.2.74-.2a6.85,6.85,0,0,1-.83.82c-.36.27-1.19,1.21-1.4,1.41s-.7,1.12-.81,1.28-.48.38-.64.57-.35.56-.26.76.33-.32.58-.43c.42-.17.55.3-.11.7a5.92,5.92,0,0,0-1.11,1c-.37.56-.83,2.61-1.23,3.05a1.93,1.93,0,0,0-.49.79c-.88,2.17-.39,2.44-.62,3.25-.09.34.28,1.35.19,1.69s0,1.21-.05,1.83c-.13.92.45,2.56.07,3.49-.14.36.2.33.4.25a1,1,0,0,0,.3-.95c-.08-.32.12-3.05.14-3.41a17.23,17.23,0,0,0-.21-1.9s-.17-2-.2-2.26a5.54,5.54,0,0,1,.45-1.72c.16-.18.26.36.11.54s0,2.23-.18,2.48.14.35.53.3.38-1.33.38-1.33c0-2.54-.21-1.74.48-4.54,2-2.89,1.7-1.5,2.09-3.53a7.48,7.48,0,0,1,.81-1.28,8.14,8.14,0,0,1,2.39-2.65,33.82,33.82,0,0,1,4.15-2.4A21.86,21.86,0,0,0,52,9.65c.14-.07.89-.79,1-.9s.54-.41.27-.76-1.22.45-1.45.61c-.67.46-1.86.91-2.2,1.16a11.07,11.07,0,0,1-1.34.45c-3.62,1.54-3.58,1.49-5,2.52a26.54,26.54,0,0,1-2.69,2c-.26.11-3.38,2.94-4.19,4.94-.12.28-.34,1.14-.34,1.14-.2,1.26-.15,1.2-1.18,1.79.2,1.83-.17,1.5-.28,3.23,0,.24,0,1.81,0,2a7.8,7.8,0,0,0,.21,1.45c0,.32-.06.65-.15.61-.32-.13-.58-.92-.6-1.11,0-.39.45-3.59.36-4.55a7.4,7.4,0,0,1-.13-1c0-.14.76-1.2.86-1.37.57-.95.91-2.86,1.35-3.79a8.49,8.49,0,0,1,1.91-2.26A20.88,20.88,0,0,0,40.55,14,60,60,0,0,1,48.4,9.33c.35-.1,1.9-.58,2.24-.73s1.68-1,1.3-1.08a2.75,2.75,0,0,0-1.56,0C49.88,7.66,45.66,10,45.1,10.29Z" transform="translate(0 -0.11)"/><path class="cls-5" d="M29.49,39.55c.06-.11-.39-.64-.39-.64,0-.16-.79-.86-1.18-.73-.2.07.51.81.62,1.07A.81.81,0,0,0,29.49,39.55Z" transform="translate(0 -0.11)"/><path class="cls-5" d="M17.66,41.06s2.57.8,4.4,1.25a4.79,4.79,0,0,1,1.26.35c.26.18,2.59,1.54,2.91,1.87a17.3,17.3,0,0,0,3,1.33c2.43,1,7.61.93,8.17,1a25,25,0,0,0,2.91-.59c.27-.05,2.37-.93,2.37-.93,5.81-3.3,2.57-1.74,6.08-3.52a4.55,4.55,0,0,0,1.42-1.48,5.77,5.77,0,0,0,.63-1.85,9.9,9.9,0,0,0,.07-2.61c.8-5,.14-3.45.26-5.34,0-6.37-.52-7.48.26-8.67.11-.16,1.13-2.88,1.19-3.15a22.46,22.46,0,0,1,1.37-2.33,5.59,5.59,0,0,1,.69-.67c-.42.81-1.07,2.41-1.07,2.41-2.47,5.31-1.74,2.94-2,9.88L52,29.66s.24,1.95.2,2.14a25.62,25.62,0,0,1-.45,2.54c-.17.42-.4,2.1-.47,2.37s-.08,1.32-.13,1.75a13.21,13.21,0,0,1-.79,2,4.78,4.78,0,0,1-1.11,1.12,12.52,12.52,0,0,1-3.89,2.29,21.37,21.37,0,0,0-2.58,1.68c-.21.2-.19.25,0,.7.27.63,2.67-.7,2.92-1s.91-.62,1.33-1a16,16,0,0,1,1.55-1.19c1.92-1.93,2.23-2.17,2.69-3.07.34-.67,1.9-2.9,2.11-4.59,0-.43.17-1.25.17-1.25h0l.12-.86.46.1c0,1.8,0,1.29-.83,3.87-1.6,3.48-1.51,3.53-3.68,5.31-3.33,3.3-2.17,1.66-3.75,3.21a21.33,21.33,0,0,1-2.28,1c-2,.27-1.35-.49-3-.13,0,.07-.33.1-.6.13-2.46.56-1.35.18-2.92.3-.68.06-2.82.19-3.07.14-.08,0-5.24-.46-6.79-1.53-.66-.45-3.24-1.62-3.94-2.42-.46-.52-2.2-.81-3.92-1.22h0a21,21,0,0,0-4-1,.71.71,0,0,0-.11.18c3,1.44,2.7,1.37,3.41,1.26,11.41,4.63,6.39,3,10.46,4.26,1.43.26.62.34,4,1,.35,0,.74-.1,1-.14.44-.07,3.66,0,3.87,0,2.82-.43,4-.66,3.76-.53.18,0-.09.58-1.83,1l-4.5.32a22.21,22.21,0,0,1-2.71-.2c-3-.57,1.73,1.32-9.09-2.76,0,0-1-.62-1.23-.72a6.84,6.84,0,0,0-.82,0l-.16-.08c-.29,0-2.77-1-2.83-1.05a1.1,1.1,0,0,1-.14.11c-.27.11-1.45-1-1.82-.33a.4.4,0,0,0,.13.15c4,1.91,3.85,1.79,4.18,1.64,1.21.61,3.41,2,11.51,3.83,1.46.06,8.1-.36,8.1-.36a17.45,17.45,0,0,0,1.65-.85,12.21,12.21,0,0,0,4.8-2.39c.36-.21,1.8-1.22,1.8-1.22,3.6-3.56,3.18-3.14,4.15-4.75l.34.39-1.83,2.18A19.12,19.12,0,0,1,50,43.75a56.53,56.53,0,0,1-4.79,3.37c-1.87.79-2.61.57-3.85,1.45l-1.15.61c-4.75,0-1.78,1.13-10.79-.13-4.88-2-1,.05-6.3-2.26-2.7-.18-1.83.47-4.64-1.56a.69.69,0,0,0-.82-.12c-.72.3,2.73,2.28,2.84,2.55a6.34,6.34,0,0,0,1.2,1c.4.27,6.22,1.44,7.26,2.2.26.19,1.1.36,1.16.51s-1.06-.21-3.36-.87c-.33-.09-2.47-.42-2.75-.53s-.61.08-.55.23,1.05.26,1.31.45.2.61.13.88,1.21.07,1.21.07a43.7,43.7,0,0,0,7.59.61,28,28,0,0,0,7.11-1.37c.69-.29.72,0,1,0s1.43-.49,1.63-.57,1.47-1,1.65-1.11a23.83,23.83,0,0,0,6.33-4.44c.8-.71,2.12-3.07,3-4a18.31,18.31,0,0,0,1.76-2.51A20.08,20.08,0,0,0,57,35.93a19.46,19.46,0,0,0,.13-3.28,20.72,20.72,0,0,1,1.11-4.46c.23-.56,0-4.14.32-5.06.12-.41.3-2.36.37-2.74s.82-2.23.91-3,.31-.66.5-1.32-.57-.11-.72-.05c-.38.16-1,2.08-1.08,2.45a31.8,31.8,0,0,0-.61,8.41c0,.81-.62,1.81-.52.16,0,0-.1-1.77-.13-2a15.18,15.18,0,0,1,.24-2.75c.2-.34.58-4.58.61-4.66.94-2.31,1.33-2.22.5-2.56-.35-.14-.86,1.35-1.53,2.35s-.55,1.3-1.07,2-.33,3.89-.29,4.58a71.8,71.8,0,0,1-.61,8.12c0,1.59-.4,5.77-1.42,7.06-.42.53.07-1.38.21-1.73s.4-1.82.52-2.1a16.6,16.6,0,0,0,.2-2c-.2-1-.24-1-.3-1l0-.59c.45-2.73.66-5.09.66-5.09.07-.27-.09-1.32,0-1.77a34.05,34.05,0,0,0,.11-4.16,3.59,3.59,0,0,1,.5-2,22.81,22.81,0,0,1,1.18-2.2c1.92-2.26,1.79-2.09,2.31-3.27,0,0-.57-.23-.71-.17s-3.62,4-3.66,5.36-.68,3.52-.54,5.39a26.5,26.5,0,0,1,.23,2.9c-.09.21-.32,2.3-.43,2.59s-.64,2.38-.64,2.38A9.17,9.17,0,0,1,53,34.44h0c-.1.74-.38,2.41-.9,2.58s.27-2.7.27-2.7c.3-2.45.16-2.5.88-4.3a10.91,10.91,0,0,0,.5-3c-.11-.54.05-1.83,0-2.57-.14-1.39.43-1.68.13-4.69a4.84,4.84,0,0,0,.25-.8c0-.32.83-2.06,1.06-2.62A16.9,16.9,0,0,1,57,13.87c.5-.62,1.28-1.42,1.25-1.64s-.69.18-.87.31-1.09,1-1.5,1.42l.46-.27-.15.27c-2.1,1.31-1.87.82-3.5,2.74-.39.46-.24.68-.63,1.55s-.14-1-.14-1c1.27-2.68.57-1.53,3.43-3.68.79-.59,1.36-1,.71-1.24-3.86,2.46-3.92,2.6-5,5.28a14,14,0,0,0,0,1.84,33.3,33.3,0,0,1-1,3.66c-.09.34-.5.62-.62.74-.38.33.14,6.5.14,6.57,0,1-.38,1.33-.06,2.08l-.28.58a17.84,17.84,0,0,1-1.22,4.33,3.43,3.43,0,0,1-.46.72c-.34.44-1,1.66-1.16,1.84A17.87,17.87,0,0,0,45,41.39a8.38,8.38,0,0,1-2.56,1l.32-.12c-8,1.7-7.37.46-8.42.16A10.39,10.39,0,0,1,31.2,41a13.77,13.77,0,0,0-2.77-1.14,9.57,9.57,0,0,0-1.34-2.08,26.24,26.24,0,0,1-2.3-2.1c-.22-.53-1.82-2-2-3.33-.14-.95-.62-1.15-.41-1.59a5.48,5.48,0,0,0,.35-1,2,2,0,0,0,0,1.06c.74,2.14.34,1.83,2.53,4.3.16.19,1.24,1,1.24,1,2.87,2.59,1.9.91,4.18,4.25a1,1,0,0,0,.15-.14c3.2,1.66,3.35,1.88,5.73,2.27a13.31,13.31,0,0,0,2.69,0c.37-.09,1,.12,1.23,0s.81-.46,1.06-.56,1-.11,1.29-.26a7.75,7.75,0,0,0,1.19-.8C48,38,47,37,48.74,32.3c0,0,.18-2.36.11-2.92-.83-7.72.74-5.55.84-7.16,0-.49.3-1.24.41-1.82a11.59,11.59,0,0,0,.33-1.31A7.93,7.93,0,0,1,51.61,15s.14-.76-.23-.55-.5.22-.59.55-.93,2-1,2.29a4.41,4.41,0,0,1-.23,1.68c-.3.54-.93,1.39-1.15,1.72a13,13,0,0,0-.51,1.56,3.54,3.54,0,0,0-.24,1.1c-.23,1.58-.87,1.63-.7,3.76.07.85.29,3,.27,3.4a15,15,0,0,0,0,2,11.36,11.36,0,0,1-.78,4.26c-.54.84-1.65,3.22-4,4.2-1.2.51-.79.63-2,.73s-2,0-2.71.09a22.43,22.43,0,0,1-3.7-.55A33.58,33.58,0,0,1,30,38.46a6.57,6.57,0,0,0-1.32-1.26,7,7,0,0,1-1.92-1.44c-.28-.45-1.07-1.26-1.23-1.64a16.55,16.55,0,0,1-1.07-3.37,15.21,15.21,0,0,1-.28-1.69c.08-.34.06-.9.15-1.2a8.63,8.63,0,0,0,.57-2.71,24.17,24.17,0,0,1,2.08-4.62A12.84,12.84,0,0,1,25.81,24c-.09.22-.55,1.76-.69,2.11a7.47,7.47,0,0,0-.38,2.45,23.29,23.29,0,0,0,.89,4.32c.68,1.6,4.85,5.1,4.88,5.15a17.12,17.12,0,0,0,1.91,1.89,19.79,19.79,0,0,0,1.93.82,12.66,12.66,0,0,0,4,.72,3.52,3.52,0,0,0,.95-.4c.3-.13.91.08,1.23.12a12,12,0,0,0,2.22-1,9.81,9.81,0,0,0,1.69-1.54c.71-.72,1.45-4.23,2.2-5.63.4-.76.13-.85,0-.93a15.51,15.51,0,0,0-.1-1.8c-.58-6.89,1.17-7.88,1.32-9.77.38-.63.25-.72,0-.89a2,2,0,0,1,.16-.54c1.22-1.08,1-.51,1.18-1.22.64-.66.83-2.62,1.15-2.88,1.21-1,4.5-3.36,4.63-3.42a.85.85,0,0,0,.1-.33c.11-.2-.37-.22-.53-.42l0,0,.79-.53s0-.28-.1-.36a1.65,1.65,0,0,0-1,.22c-.18.12-1.13.75-1.72,1.17a15,15,0,0,1-1.37,1.13,6,6,0,0,0-2.58,2.13c-.13.23-1,2-1.31,2.45s-.68.42-1,1.11-1.39,2.49-1.39,2.49-.63,1.3-.61.7c0-1.15.62-1.22,2.86-5.31a4.43,4.43,0,0,1,1.61-2.49c.17-.12,2.16-1.42,2.35-1.5s2.2-1.83,2.32-1.88.91-.75.51-.71a4.11,4.11,0,0,0-1.35.43c-.33.19-3.63,2.61-3.67,2.64-3.44,2.77-3,2.13-4,4.17-.15.33-2,2.93-2.13,3.39-.54,2.76-.61,1.87-.62,4.1a10.08,10.08,0,0,0-.32,1.8c.06.34.06,1.74.13,2a7.23,7.23,0,0,1,0,1.26c.14,4.66,0,2.46-.22,4.29-.08.67.3.6-.22,1.4s-.49,1-1.22,1.38-.73.63-1.18.63a2.32,2.32,0,0,1-1.25-.37c-.36-.37-2.76-1.94-3.09-2.72a5.53,5.53,0,0,1-1-1.94c-.12-1.48-1-3.82-.78-4.6.1-.4.11-1.67.14-1.82a24.55,24.55,0,0,1,.56-3.36,12.89,12.89,0,0,0,.37-1.28c0-.33.36-1.06.42-1.35a9.84,9.84,0,0,1,.06-1.56c.13-.24.47-.61.86-1.18,1.13-1.66,3-2.44,6.45-5,0,0,2.7-1.63,2.2-1.65a1.51,1.51,0,0,0-1.08.23c-1.31.86-7.48,5.44-8.43,6.69a16.33,16.33,0,0,1-1.08,1.27,12.15,12.15,0,0,0-1.1,1.68,11,11,0,0,0-1.11,5.49A17.1,17.1,0,0,0,32.6,33.6,6.68,6.68,0,0,0,34,35.81c.5.65.65,1.22,1.44,1.38s1.58.74,2,.8a6.8,6.8,0,0,0,1.75.07,6.83,6.83,0,0,0,3.21-2c0-.19.39-1.21.4-1.4.26-3.47-.29-7,.06-9.37a9,9,0,0,0,.47-2.1,12.08,12.08,0,0,1,.49-3.32c.81-2,3.77-6.56,2.71-3.95-.77,1.9-.32.67-1.28,2.21a4.7,4.7,0,0,0-.58.88A15.12,15.12,0,0,0,44,20.47c0,.27-.33.82-.23,1.18a7.77,7.77,0,0,1-.17,3.1,1,1,0,0,1-.26.56l.15.33,0,0a4,4,0,0,0,.28.65c.1.14-.27.75-.27,1s-.06.7.13.94A2.59,2.59,0,0,1,44,29.31c0,.22-.62.67-.64,1a15,15,0,0,0,.11,2.17c.21,1.11-.37,2.06-.57,3.67,0,.33-.78,1.14-2.31,2s-3.72.08-4.32-.07a7.64,7.64,0,0,1-1.8-.95,3.83,3.83,0,0,1-1.24-1.43,42,42,0,0,1-2-4.71c-.38-1.13-.36-4.42-.47-5.27-.06-.47.1-1.58.05-1.92a14.83,14.83,0,0,1,.42-2.3c0-.15.91-1.92,1.19-2.54A22.67,22.67,0,0,1,34,16.75c.33-.5.29-1,1-1.48,6.25-3.76,4.18-3.48,7.45-5,1.81-.87,2.31-.57,5.16-2.1.82-.43,1.45-.52,2.57-1.09s-.95-.18-2.55.49c-.34.15-1.68.62-2.08.84a4.24,4.24,0,0,1-1.38.27c-1.07.13-3.42,1.62-4.23,2a11,11,0,0,1-1.71.45c-.28.07-4,2.66-4.2,2.77a9.61,9.61,0,0,0-1.47,1.44c-1.76,1.55-1.63,2.45-2.5,3.27s-2,5.7-2.13,6.73c0,.24-.05,2.1-.13,2.36A16.77,16.77,0,0,0,29.35,34c.71,1.14.41-.85.34-1s-.4-1.68-.47-2c-.41-1.55-.91-.12-.72-5.11a2.59,2.59,0,0,1,.41-1.17,14.43,14.43,0,0,0,.49-2.15,26.09,26.09,0,0,1,1.1-3.49c.13-.44,1.37-1.84,2.21-3.2.19-.3,1.62-1.63,1.76-1.83s1.4-.86,1.89-1.2c3.2-2.24,2.12-1.77,3-1.51.69.2-3.3,2.27-4.1,2.91a9.41,9.41,0,0,0-2.18,2,7.69,7.69,0,0,0-.86,1.27c-.31.44-.79.92-1,1.22-.54.86-1.46,5.85-1.48,5.91s-.48.79-.56.92-.13.77-.44,1.54c-.37.93.43,2.93.82,3.85.1.23.62,2.95.7,3.14s1.15,1.46,1.26,1.59.56,0,.45-.1-1-2-1.21-2.42a35.28,35.28,0,0,1-1.29-6.37c-.1-.77,0-.62.42-1s.25,2,.3,2.32.31,1.58.36,1.79c.79,3.92.13,1.61,1.42,4.64.38.91,1,1.15.58,1.6s2.33,1.86,3.29,2.54a27.36,27.36,0,0,0,2.9.77,4,4,0,0,0,1.85-.11c.86-.23,1-.63,1.46-.93s.58-.56,1.38-1.45a2.28,2.28,0,0,0,.74-1.66,41.87,41.87,0,0,0,.36-7.48,9.71,9.71,0,0,0,.05-1.37l.53-.9c0-.06.42-1.31.22-1.35a1.32,1.32,0,0,0,0-.43c0-.11.32-.72.33-1A19.21,19.21,0,0,1,47,18.49c1.25-1.73.73-.41,1.64-2.64.11-.27.65-1.67.95-1.8s4-2.64,4.28-2.8c-3.61,3.51-4.31,3.09-4.39,3.85-.23,2.06-1.51,2.53-1.76,3.34a3.16,3.16,0,0,1-.2.49c-.14.09-.23.13-.16.38-.12.29-.88,2.85-.9,2.92-1.58,6-.61,1.91-1.1,7.12a4.47,4.47,0,0,0,0,.88,3.2,3.2,0,0,0,.12,2.41c0,.54-.11,1.09-.14,1.31-.05.43-.44,1.59-.41,1.93a5,5,0,0,1-.53,1.4,8.81,8.81,0,0,1-1.1,1.4c-.32.46-3.24,2.23-5.58,1-.61-.33-2.49-.6-2.88-.84s-2.3-1.84-2.91-2.17c-.34-.18-2.91-2-3.43-3.24-.08-.2-.41-2.35-.49-2.55s-.4-1.36-.55-1.71-.07-2.26-.15-2.58c-.13-.53.37-2,.68-4.63A22.86,22.86,0,0,1,30,17.75c1.66-2.85,1.73-2.2,3.39-3.9a23.84,23.84,0,0,1,4.53-3c.4-.17,2.47-1.11,2.74-1.28s1.22-.87,1.37-.93,3.21-.77,4-1.1c.5-.21,1.52-1,2.07-1.23s.44-.19.22-.44c-.43-.49-4.81,1.76-5.86,2A4,4,0,0,1,41,7.72c-.34-.1-.86.18-1.43.37-2.81.89-3,1.69-4.22,2.37-.75.44-2.44,1.85-2.69,2s-1.68,1-1.9,1.18c-.08-.11-.17-.19-.23-.17s-3.42,2.73-3.68,2.84-1.74,1.57-2.51,2.31c-.24.18-.51.38-.69.54-.34.29-.56.68-.69.73a6.06,6.06,0,0,0-.64.91c-.54.78-.65,1.32-1.53,1.85-.47.29-.3-.37-.31-.51s.86-1.1,1.37-1.84a6.72,6.72,0,0,1,2.38-2.62c1.54-1.2,1.09-1.79,3.81-3.08a32.07,32.07,0,0,0,2.86-1.87,21.6,21.6,0,0,0,4.23-2.61A11.69,11.69,0,0,1,42,7.13c4.59-1.58,1.95-.7,5.4-1.94,1-.19,0-.57-.9-.32C46,5,42.22,6.64,42.31,6.16a.86.86,0,0,1,.47-.56C44.88,5,48.32,4,46.58,3.76A6.62,6.62,0,0,0,42.65,5c-3.6,2.61-3.77,1.74-5.93,3-1.31.79-2.85,1.73-3.51,2.25a25.31,25.31,0,0,1-2.46,1.8,14,14,0,0,0-3.31,2,14.7,14.7,0,0,0-2.16,1.68A7.12,7.12,0,0,1,24,17.07a8.93,8.93,0,0,0-1.66,1.34,19,19,0,0,1-2.71,3.73c-3.68,4.5-2,2.92-4.28,5.68-.29.36-1,.74-1.77,1.43s-.38.36-.63,1,.17.19.46.24A4.08,4.08,0,0,0,15,30.36c.72-.19.73-.49,1.39-1a16,16,0,0,0,3.49-4.5c.33-.61.26-.9.77-1.38.9-.86-1.2,3-2.35,4.57a19.9,19.9,0,0,1-1.74,1.85C15.4,30.92,15,30.86,12.2,31c-.55,0-.36-.43-.89-.65s-.07,1,0,1.23.4.32.63.38.76-.29.9-.3a11.36,11.36,0,0,0,1.6-.18,4.27,4.27,0,0,1,.9.06,1.92,1.92,0,0,0,.68-.14c.23-.07,1.82-.12,2.13-.16s.35-.21.37-.43c.16-1.29,1.83-4.38,2.55-6.59.25-.77,2.15-3.39,2.23-3.82a1,1,0,0,1,.66-.66c.28-.09-1.06,2.36-1.14,2.51a20.33,20.33,0,0,1-1.05,2c-.32.42-.43,1-.9,1.76a7.16,7.16,0,0,0-.75,2.1c-.1.39-.78,2-.81,2.16a7.71,7.71,0,0,1-.09.83c-.1.34,0,.49,0,.67s-.37-.05-.5-.08a10.55,10.55,0,0,0-3,.27l-.65.27-1.65-.09c-.62,0-1.63.26-1.16.66a3.76,3.76,0,0,0,2.85-.41,4.55,4.55,0,0,1,.67.07c.8.22,1.62-.12,2.88.13s1.29,1,3.57,3.54c3.78,3.4.85.68,4.22,3.54.18.16,1.18.62,1.29.75s1.59.62,1.82.75a25.1,25.1,0,0,0,9.09,2.66c.66,0,1.92-.46,5.18-1.3a12.06,12.06,0,0,1-4.09,1.56,4.21,4.21,0,0,1-1.08.22c-.24,0-2-.34-2.23-.29a5.93,5.93,0,0,1-2-.56c-.33-.22-.45-.1-.54.11s.43.46.43.46l-.67-.15c-.59-.41-1.58-1.18-1.87-1.3s-3-1.25-3.46-1.52c-2.5-1.32-1.23-.16-5.15-3.54,0,0-1.67-1.67-2.15-2.08a22.27,22.27,0,0,0-1.71-1.75,10.23,10.23,0,0,0-4.8-.43c-.81.17-.17.34-.05.51a14.67,14.67,0,0,0,2.46-.12c1.15.08,2.94.61,3,1.37,0,.51-2.09-.88-2.27-1a23.47,23.47,0,0,0-4.49.1c-.42.14.35.51.65.48a29.88,29.88,0,0,1,3.1.26,5.92,5.92,0,0,1,1.1.42c.81.33,2.17.49,2.54.91a5.47,5.47,0,0,0,1.18.6c.39.15,1.44,1.6,2,1.83.16.07,1.25.48.71.76s-2.91-2.12-3-2.23-1.62-.9-2-1.1-1.78-.48-2.71-.79A10.18,10.18,0,0,0,13.65,35c-.15.07-.54.5-.43.76s2.68.4,3,.42a17.9,17.9,0,0,1,2.58.89c.24.16,1.88.48,2,.64a7.93,7.93,0,0,0,3.79,2.31c.79.1,1.26.79,1.84,1.11,1.27.72,3.26,1.48,3.67,1.71,2.23,1.24,2.11,1.14,2.56,1.27.08.26,2.65.66,3.13.75,6.24-.49,5.32-.11,9.42-2.7a18.42,18.42,0,0,0,1.86-2.13,10.62,10.62,0,0,1,1.21-1.57c1-1,1.42-5.12,1.69-6a75.62,75.62,0,0,0-.22-7.6c0-.22.24-.39.42-.53.45-.34.44,3.17.38,3.54a14.29,14.29,0,0,0,0,2c0,.28,0,1,0,1.71a6,6,0,0,1,0,1.89c-.19.66-.41,1.81-.55,2.17a18.71,18.71,0,0,0-.65,1.92,10.85,10.85,0,0,1-2.57,3.78c-1.26,1.11.19.63-3,2.35-1.13.6-1.61.51-3.6,1.34-.91.39-2.1,0-4.51.15-2.93.24-6-2.6-7.56-2.61a6.39,6.39,0,0,1-2-1.07A20,20,0,0,0,24,40.47c-.23-.13-.85-.63-1.16-.8s-1.12-.29-1.32-.49-.87-.81-1.07-1a9.59,9.59,0,0,0-1.92-.77c-.4-.12-1.29-.57-1.79-.36-1,.41,3.56,1.08,3.91,2.17.18.56-1-.22-1-.22s-2.25-.86-2.56-.91-.87-.39-.81-.65-.12-.71-.29-.7-1.48-.31-1.67-.35-.52.16-.76.44.78.43,1.33.78,1.22.66,1.55.88a14.11,14.11,0,0,0,2.67.92,19.61,19.61,0,0,1,2.31.72c1.45.14,1,.16,3.1,1.8.44.34,1.49.6,1.84.87a13.26,13.26,0,0,0,1.73.91c.89.35,1.62,0,2.93,1.1a19.5,19.5,0,0,0,4.16.82c.22,0,2.63.12,2.93.12L40,45.65a15.66,15.66,0,0,1-1.87.44c-.17,0-4.08-.09-4.27-.13s-1.6-.44-1.6-.44c-2.88-.13-2.13-.64-2.93-1.11-.24-.13-.25.11-.42.12-1.12.1-6-2.87-6.9-3.82-.32-.34-1.62-.37-2-.47s-3.5-1.21-3.76-1.4a12.34,12.34,0,0,0-2.69-.68c-.15.06,0,.51.15.76a8.71,8.71,0,0,0,2.88.72,5.15,5.15,0,0,1,1.75.67c.16.1,2.32.77,2.61.89s.85-.07,1,.35-1.92-.37-2.13-.45-5.89-1.51-6.13-1.46.18.28.18.28A22.15,22.15,0,0,0,17.66,41.06ZM54.5,39c1.53-3.77.85-2.18,1.51-7A12.78,12.78,0,0,1,56,30.2a18.09,18.09,0,0,0,.27-5c0-.05.29-5.16.3-5.41l.73-1.6c.25.19-.29,2-.29,2s-.31,3.29-.3,3.46,0,3.57.11,3.71.16,2.46.16,2.46-.55,3.28-.59,3.47-.33,3.66-.47,4c-.76,1.85-4.15,6.18-4.46,6.52-.6.66-4,3.52-4.17,3.58s-1.89,1.09-2,1.16-2.09.18-2.54.37-2.57,1.68-2.77,1.76-4.08.61-4.89.66-2.45.16-2.45.16a39.4,39.4,0,0,1-5.61-2C22.49,48.2,21.17,48,21,47.62c-.08-.2.63-.32.82-.29a8.52,8.52,0,0,1,2,.93,32.74,32.74,0,0,0,3.92,1.21l2.82,1c4.12.57,1.9.39,6.11-.12a18.65,18.65,0,0,0,2.77-.11l2-.84c.55-.24.91-.63,1.31-.79,1-.43,2.35-.06,5.53-2.46.35-.27,1.54-1.48,2.28-2.09s.37-.38,1.43-1.48a10.35,10.35,0,0,0,1.48-1.91A8.42,8.42,0,0,0,54.5,39Zm-.9-17.82c0-.06-.31,2.48-.42,5-.09,2-.18,3.41-.6,4-.86-1.59-.21-10,.82-9.26A.56.56,0,0,1,53.6,21.15Zm-5.32,1.19c.27-.34,1.38-2.57,1.23-1.81,0,.13-.8,3.58-1.13,3A1.1,1.1,0,0,1,48.28,22.34Zm-.51,8.91a3.78,3.78,0,0,0,.14-1.47,11.2,11.2,0,0,1-.19-3.91s.48-1.5.46-.31c-.06,2.5.42,6.91-.08,6.48A1.44,1.44,0,0,1,47.77,31.25Zm-9.89,6.17c-1.25.15-1.32-.54-2.62-1.28a3.45,3.45,0,0,1-1.34-1.34,13.87,13.87,0,0,1-1.78-4.53c0-.32-.25-1.88-.26-2.33a16.39,16.39,0,0,1,0-2.46c.11-.27-.11-1.76,0-2.12s.47-1.88.54-2a10.54,10.54,0,0,0,.61-1.21c0-.18,1.13-1.29.72-.44a21.83,21.83,0,0,0-1.07,4.75,16.31,16.31,0,0,0,.05,5.22,8.88,8.88,0,0,0,.48,2.42c.27.42.79,1.65,1.25,2.31C35.17,35.32,38.6,37.33,37.88,37.42Zm7-13.69c0,.25-.51,2.54-.7,2.35s-.36-.21-.25-.59c.36-1.22.43-3,.68-3.34.14-.18.73-1.54.86-1.47C45.79,20.87,45,22.31,44.88,23.73Zm.85,8.84a16.7,16.7,0,0,1-.06-1.82c.18-.85.32-3.6.49.44a13.43,13.43,0,0,1,.1,1.34c0,.26-.11.82-.24.66S45.7,32.73,45.73,32.57Zm-26-8.92c-.17.31-2.21,3.58-2.85,4.37l.05.05a11.57,11.57,0,0,1-1.34,1.26c-.31.17-1.19.66-1.37.58s-.68.26-.22-.17a23.27,23.27,0,0,0,2.52-2c1-1.77,1-1.38,2.09-3.09.41-.64.83-1.58,1-1.47S19.84,23.35,19.68,23.65ZM18.3,29.49c.06,1-.36,1-1.41,1.3-.65-.15.23-.53.65-.95C18.06,29.23,18.12,29.15,18.3,29.49Zm5.88-2.9c-.56,3-.57,2.48-.29,4.67.06.41,1.41,2.95,1.38,3.2S24,32.57,23.59,31.85a5.34,5.34,0,0,1-.35-2.28,3.26,3.26,0,0,1,.42-1.5,9.45,9.45,0,0,0,.15-1.65c.05-.37.07-.32.44-.62S24.33,26.23,24.18,26.59Zm2.64.91c-.13.4.62,2.72.54,3.23a13.08,13.08,0,0,0,.83,2.93,8,8,0,0,0,1.68,2.17A13.93,13.93,0,0,0,31.35,37c2,1.42,2,1.7,3.61,2.7.5.31,2.4.56,3.47,1,.56.23-.74.2-1.29.14s-1.88-.56-2.48-.59-1.28-.81-2-1.2a33.63,33.63,0,0,1-2.95-2.68,8.53,8.53,0,0,1-2.2-3.12c-1.12-2.65-.77-3.77-1-5.12A1.5,1.5,0,0,1,26.49,27C26.63,26.64,26.82,27.5,26.82,27.5Zm4.1-13a32.07,32.07,0,0,1,3-2.49s2.22-1.41,2.42-1.49c.9-.38,2.22-2.11,4-1.83.81.13-1.29.84-1.84,1.07a17.71,17.71,0,0,0-4.36,2.73c-.46.31-2.15,1.73-2.39,1.83a17.49,17.49,0,0,0-3.51,4.89c-.22,1.14-.78,2.17-1.51,4.74-1,3.56-.73,1.06-1,4.93a12.41,12.41,0,0,0,1,3.91s.38.49.2.74-1.42-2.8-1.5-3.12c-1.07-4.51.76-3.9,2-10.18v-.46l.24-.28c-.17-.76-.31-.7-.63-.22a8,8,0,0,0-.86,1.29,19.44,19.44,0,0,1-.94,2,19.32,19.32,0,0,0-1.14,2.1,3.35,3.35,0,0,1-.43.85c-.61.76-.49,2.66-.87,3.05-.21.22-.91.43-.92.74s-.81,2-.18,3.11a15.75,15.75,0,0,0,1.31,2.26c.37.34,1.56,1.28,1.3,1.39s-.61-.4-.61-.4-1.41-1.34-1.47-1.49c-.23-.55-2.05-2.78-.82-4.63.16-.24.08-.34.3-.87,1.27-3.13,1.53-2.68,2-4.25a35,35,0,0,1,2.78-5.27c.38-.16.33-.16,1-.73a10,10,0,0,1,1.4-1.17c.14-.1.27-.51.62-.83a9.62,9.62,0,0,0,1.2-1.52A1.86,1.86,0,0,0,30.92,14.48ZM27,38.45c.08.18.06.76-.12.66-.51-.29-2.43-2.3-3.35-2.72a6.09,6.09,0,0,1-1.79-1.53A20.36,20.36,0,0,1,20,32.16c.18-2.84.45-1.47,1.16-4.45a6.29,6.29,0,0,1,1.28-2.48c.12-.14.63-2.25.7-2.41s.95-1.59.95-1.59c.46-1.44.54-1.49,2.22-3.49.88-1,3.05-2.93,3.26-2.61s.59-.56-.11.48.28-.07-1.12,1.31c-2.36,2.34-1.36.27-3.74,4.36,0,0-2.15,4.39-2.47,5.18-1.42,3.53-1.85,3.88-1.66,4.93.34,1.87,0,1.41,2.92,4.39a4,4,0,0,0,1.37,1A12.8,12.8,0,0,1,27,38.45ZM47.7,41.2A13.76,13.76,0,0,0,50,37.35s.43-.24,0,.92a7,7,0,0,1-.32,1.31c-.6,1.1-1.7,2-1.89,1.92S47.26,41.68,47.7,41.2Z" transform="translate(0 -0.11)"/><text class="cls-6" transform="translate(16.57 47.03)">BROKEN</text><text class="cls-7" transform="translate(17.39 53.43)">AUTHENTIFICATION</text><path class="cls-8" d="M62.64,68.07A42.77,42.77,0,0,1,27.34,1.15,42.77,42.77,0,1,0,78.59,65,42.7,42.7,0,0,1,62.64,68.07Z" transform="translate(0 -0.11)"/></g></g></g></svg>