<?xml version="1.0" encoding="UTF-8" standalone="no"?>
<svg
   xmlns:dc="http://purl.org/dc/elements/1.1/"
   xmlns:cc="http://creativecommons.org/ns#"
   xmlns:rdf="http://www.w3.org/1999/02/22-rdf-syntax-ns#"
   xmlns:svg="http://www.w3.org/2000/svg"
   xmlns="http://www.w3.org/2000/svg"
   xmlns:sodipodi="http://sodipodi.sourceforge.net/DTD/sodipodi-0.dtd"
   xmlns:inkscape="http://www.inkscape.org/namespaces/inkscape"
   sodipodi:docname="business_continuity.svg"
   inkscape:version="1.0 (4035a4f, 2020-05-01)"
   id="svg1709"
   version="1.1"
   viewBox="0 0 25.7799 25.779899"
   height="25.7799mm"
   width="25.7799mm">
  <defs
     id="defs1703">
    <inkscape:path-effect
       lpeversion="1"
       is_visible="true"
       id="path-effect1157"
       effect="spiro" />
    <inkscape:path-effect
       lpeversion="1"
       is_visible="true"
       id="path-effect67"
       effect="spiro" />
    <inkscape:path-effect
       lpeversion="1"
       is_visible="true"
       id="path-effect36"
       effect="spiro" />
    <clipPath
       id="clipPath1706"
       clipPathUnits="userSpaceOnUse">
      <circle
         r="9.7385139"
         cy="156.39888"
         cx="99.772911"
         id="circle1708"
         style="opacity:1;fill:#993727;fill-opacity:1;stroke:none;stroke-width:0.1580953;stroke-linecap:round;stroke-linejoin:miter;stroke-miterlimit:4;stroke-dasharray:none;stroke-opacity:1" />
    </clipPath>
  </defs>
  <sodipodi:namedview
     inkscape:document-rotation="0"
     inkscape:window-maximized="0"
     inkscape:window-y="23"
     inkscape:window-x="1"
     inkscape:window-height="949"
     inkscape:window-width="1680"
     fit-margin-bottom="0"
     fit-margin-right="0"
     fit-margin-left="0"
     fit-margin-top="0"
     showgrid="false"
     inkscape:current-layer="layer8"
     inkscape:document-units="mm"
     inkscape:cy="41.837117"
     inkscape:cx="25.96972"
     inkscape:zoom="5.3267141"
     inkscape:pageshadow="2"
     inkscape:pageopacity="0.0"
     borderopacity="1.0"
     bordercolor="#666666"
     pagecolor="#ffffff"
     id="base" />
  <metadata
     id="metadata1706">
    <rdf:RDF>
      <cc:Work
         rdf:about="">
        <dc:format>image/svg+xml</dc:format>
        <dc:type
           rdf:resource="http://purl.org/dc/dcmitype/StillImage" />
        <dc:title></dc:title>
      </cc:Work>
    </rdf:RDF>
  </metadata>
  <g
     style="display:inline"
     transform="translate(-76.098697,-100.99309)"
     id="layer1"
     inkscape:groupmode="layer"
     inkscape:label="button">
    <g
       style="display:inline"
       transform="translate(76.098697,100.99309)"
       inkscape:label="background"
       id="layer8"
       inkscape:groupmode="layer">
      <circle
         style="display:inline;fill:#f6a316;fill-opacity:1;stroke:#dadada;stroke-width:3.14542000000000010px;stroke-miterlimit:10;stroke-opacity:1"
         id="circle129-7"
         r="11.317238"
         cy="113.88304"
         cx="88.988647"
         class="cls-4"
         transform="translate(-76.098696,-100.99309)" />
      <path
         clip-path="url(#clipPath1706)"
         style="display:inline;fill:#3b9999;fill-opacity:1;stroke-width:0.314542"
         inkscape:connector-curvature="0"
         id="path131-3"
         d="m 106.08657,150.08769 a 4.8376628,4.8376628 0 0 1 0.53787,0.60707 2.6578838,2.6578838 0 0 1 1.09461,-0.42463 c 0.62908,0.27365 1.25817,0.56932 1.25817,0.62908 0,0.0598 -0.94363,-0.33656 -1.27704,-0.42778 a 2.5666665,2.5666665 0 0 0 -0.90903,0.36487 c -0.0315,0.0912 0,0.12267 0,0.12267 a 2.7082107,2.7082107 0 0 1 0.42463,0.18244 c 0.0598,0.11953 0.11953,0.48439 0.0314,0.57561 -0.0314,0.0315 -0.0189,0.044 -0.12267,0.0629 -0.1038,0.0189 -0.44351,0.53787 -0.77378,0.86814 -0.33027,0.33027 -1.50665,0.0723 -1.50665,0.0723 0,0 0.0692,0.6857 0.0912,1.36825 0.11952,0.21704 0.27365,0.27365 0.69828,0.45609 0.76119,0.0912 1.49408,-0.0189 1.52238,0.0598 0.0283,0.0786 -1.47834,0.1793 -1.61045,0.15098 -0.13211,-0.0283 -0.45609,-0.15098 -0.79265,-0.24219 a 3.1454246,3.1454246 0 0 0 0.70143,0.88071 c 0.60707,0.18244 1.21413,0.36488 1.21413,0.42779 a 10.25723,10.25723 0 0 1 -1.3368,-0.18244 7.8446892,7.8446892 0 0 1 -0.70143,-0.53156 c 0.0786,0.23275 0.14154,0.70143 0.31454,0.86498 0.41205,0.4089 0.94363,0.82095 0.89645,0.85871 a 10.505718,10.505718 0 0 1 -1.14808,-0.75805 c -0.21703,-0.47496 -0.54416,-1.29592 -0.54416,-1.29592 h -0.31454 a 52.475119,52.475119 0 0 1 1.15751,12.46847 c -1.31164,-0.65739 -4.51997,-5.49821 -2.30559,-8.61533 0.37116,-0.51899 0.41205,-3.7745 0.41205,-3.7745 a 2.4848854,2.4848854 0 0 1 -0.7203,-0.31454 0.88386433,0.88386433 0 0 1 -0.21075,0.0283 c 1.39343,3.1989 -8.357393,7.81009 -8.357393,7.81009 0,0 4.58288,-9.73823 7.781783,-8.34167 a 0.88700972,0.88700972 0 0 1 0.0283,-0.21388 2.4848854,2.4848854 0 0 1 -0.31454,-0.72031 c 0,0 -3.249223,0.0409 -3.774513,0.41205 -3.11712,2.20178 -7.957931,-0.99396 -8.61532,-2.3056 a 52.670136,52.670136 0 0 1 12.471613,1.16695 V 152.063 c 0,0 -0.82096,-0.33027 -1.29592,-0.5473 a 10.505718,10.505718 0 0 1 -0.758043,-1.14809 c 0.0377,-0.0472 0.44979,0.4844 0.858703,0.89645 0.16356,0.16356 0.62908,0.22647 0.86813,0.31454 a 7.3005304,7.3005304 0 0 1 -0.53472,-0.70143 9.7508163,9.7508163 0 0 1 -0.19187,-1.36826 c 0.0598,0 0.2422,0.60707 0.42463,1.21728 a 3.1863152,3.1863152 0 0 0 0.8933,0.70772 c -0.0912,-0.33656 -0.21389,-0.62908 -0.24219,-0.7895 -0.0283,-0.16041 0.0724,-1.63876 0.15098,-1.61045 0.0786,0.0283 -0.0315,0.75804 0.0598,1.51923 0.18243,0.42464 0.24219,0.57876 0.45608,0.69829 0.68256,0.022 1.36826,0.0912 1.36826,0.0912 0,0 -0.25478,-1.17954 0.0755,-1.50666 0.33027,-0.32713 0.84927,-0.66998 0.86499,-0.77378 0.0157,-0.10379 0.0314,-0.0912 0.0629,-0.11952 0.0912,-0.0912 0.45609,-0.0315 0.57562,0.0283 a 2.8466092,2.8466092 0 0 1 0.18243,0.42463 c 0,0 0.0314,0.0315 0.12267,0 a 2.5666665,2.5666665 0 0 0 0.35229,-0.91846 c -0.0912,-0.33656 -0.49383,-1.27391 -0.42463,-1.27705 0.0692,-0.003 0.36172,0.60707 0.62909,1.25817 a 2.6421567,2.6421567 0 0 1 -0.40576,1.08832 4.8376628,4.8376628 0 0 1 0.60706,0.54101 z"
         class="cls-5"
         transform="translate(-86.908836,-143.51764)" />
      <g
         style="fill:#f0f0f0;fill-opacity:1"
         transform="matrix(0.02593576,-0.00964345,0.00964345,0.02593576,4.539583,9.0462683)"
         id="g239">
        <path
           style="fill:#f0f0f0;fill-opacity:1"
           d="m 392.098,344.131 c -6.597,-5.014 -16.007,-3.729 -21.019,2.868 -0.962,1.266 -1.948,2.516 -2.957,3.751 -15.046,18.411 -35.315,33.36 -60.321,44.474 -0.124,0.055 -0.247,0.111 -0.369,0.17 -39.456,18.831 -85.618,21.405 -129.896,7.274 -38.875,-12.657 -70.505,-37.162 -94.017,-72.837 -17.462,-27.997 -26.613,-58.428 -27.264,-90.524 -0.016,-0.781 -0.015,-1.564 -0.021,-2.346 h 18.402 c 6.919,0 10.384,-8.365 5.491,-13.257 L 46.7,190.277 c -3.033,-3.033 -7.95,-3.033 -10.983,0 L 2.29,223.704 c -4.892,4.892 -1.427,13.257 5.491,13.257 H 26.21 c 0.24,38.722 10.983,75.351 31.963,108.92 0.062,0.099 0.125,0.196 0.188,0.294 27.356,41.581 64.327,70.186 109.971,85.046 21.87,6.979 44.152,10.447 66.102,10.447 29.833,-0.001 59.045,-6.407 85.737,-19.113 31.267,-13.929 56.432,-33.243 74.793,-57.405 5.013,-6.596 3.729,-16.006 -2.866,-21.019 z"
           id="path235" />
        <path
           style="fill:#f0f0f0;fill-opacity:1"
           d="m 460.09,233.876 h -18.428 c -10e-4,-4.112 -0.123,-8.271 -0.364,-12.362 C 439.385,189.103 429.73,157.188 413.377,129.219 397.432,101.948 375.085,78.287 348.751,60.793 321.977,43.006 290.977,31.567 259.102,27.714 223.676,23.431 187.65,28.292 154.917,41.766 c -32.1,13.213 -60.653,34.522 -82.572,61.623 -5.21,6.44 -4.211,15.886 2.229,21.096 6.442,5.209 15.886,4.211 21.096,-2.23 1.12,-1.385 2.264,-2.75 3.424,-4.1 18.274,-21.253 41.418,-38.016 67.242,-48.646 27.995,-11.523 58.83,-15.678 89.166,-12.011 27.25,3.294 53.754,13.074 76.648,28.284 22.546,14.979 41.679,35.234 55.329,58.58 13.98,23.91 22.235,51.2 23.871,78.92 0.104,1.763 0.182,3.54 0.235,5.32 0.052,1.76 0.077,3.522 0.078,5.275 h -18.426 c -6.919,0 -10.384,8.365 -5.491,13.257 l 33.427,33.427 c 3.033,3.033 7.95,3.033 10.983,0 l 33.427,-33.427 c 4.89,-4.893 1.425,-13.258 -5.493,-13.258 z"
           id="path237" />
      </g>
    </g>
    <g
       style="display:inline"
       transform="translate(76.098697,100.99309)"
       inkscape:label="content"
       id="layer10"
       inkscape:groupmode="layer">
      <g
         style="font-style:normal;font-weight:normal;font-size:2.82222px;line-height:1.25;font-family:sans-serif;letter-spacing:0px;word-spacing:0px;display:inline;fill:#000000;fill-opacity:1;stroke:none;stroke-width:0.264583"
         id="text7112"
         aria-label="BUSINESS">
        <path
           id="path48"
           style="font-style:normal;font-variant:normal;font-weight:normal;font-stretch:normal;font-size:3.52778px;font-family:hind;-inkscape-font-specification:hind;text-align:center;text-anchor:middle;fill:#ffffff;stroke-width:0.264583"
           d="M 6.6640543,8.8354325 7.094852,8.5102499 Q 7.275055,8.3742258 7.309152,8.2203085 7.3439392,8.0614502 7.2227927,7.9009569 7.1016463,7.7404636 6.923823,7.7332518 6.7488154,7.7239146 6.5489027,7.8748164 L 6.1603401,8.1681183 Z M 5.5248525,7.3262325 6.0136891,7.973837 6.3177816,7.7442963 Q 6.545851,7.5721408 6.5833994,7.3935183 6.6209478,7.2148958 6.5061775,7.0628495 6.4062848,6.9305129 6.2383437,6.9246817 6.0710928,6.9139095 5.8683644,7.0669366 Z M 5.1501321,7.3041066 5.7217135,6.8726552 Q 6.0145433,6.6516161 6.291133,6.654995 6.5705384,6.6562485 6.7426939,6.8843179 6.8659657,7.0476269 6.8644398,7.2388382 6.8636041,7.4251084 6.743384,7.564475 6.92019,7.470795 7.119267,7.5061635 7.3190343,7.536591 7.469936,7.7365037 7.6420915,7.9645731 7.5963141,8.220127 7.5512269,8.4707399 7.2752911,8.6790267 L 6.5826358,9.2018694 Z" />
        <path
           id="path50"
           style="font-style:normal;font-variant:normal;font-weight:normal;font-stretch:normal;font-size:3.52778px;font-family:hind;-inkscape-font-specification:hind;text-align:center;text-anchor:middle;fill:#ffffff;stroke-width:0.264583"
           d="M 9.1756803,6.6144784 8.5682805,5.2630331 8.8289164,5.1458917 9.4334238,6.4909016 Q 9.6214285,6.9092061 9.5059532,7.2202423 9.3936957,7.5298324 9.0172216,7.6990366 8.647183,7.8653484 8.3440284,7.7501985 8.0394276,7.6318309 7.8586539,7.229615 L 7.242577,5.8588633 7.5032129,5.741722 8.1178436,7.1092559 q 0.1344957,0.2992486 0.339708,0.3771962 0.2084301,0.076501 0.4497596,-0.031963 0.5373604,-0.2415137 0.2683691,-0.8400107 z" />
        <path
           id="path52"
           style="font-style:normal;font-variant:normal;font-weight:normal;font-stretch:normal;font-size:3.52778px;font-family:hind;-inkscape-font-specification:hind;text-align:center;text-anchor:middle;fill:#ffffff;stroke-width:0.264583"
           d="m 11.07498,4.6710571 0.06164,0.2934586 q -0.239604,-0.093866 -0.533063,-0.032232 -0.2106,0.044232 -0.31386,0.1704571 -0.103985,0.1227728 -0.07063,0.2815858 0.0174,0.082859 0.06225,0.1419295 0.0483,0.058346 0.143488,0.099635 0.09446,0.037837 0.159678,0.056582 0.06449,0.015293 0.200383,0.044428 0.12826,0.027133 0.19693,0.045153 0.06794,0.014568 0.178391,0.059861 0.113174,0.041116 0.17456,0.093109 0.06411,0.047815 0.123119,0.13996 0.06173,0.087967 0.08566,0.2018983 0.06454,0.3072685 -0.110534,0.5206707 -0.175794,0.2099497 -0.50723,0.2795606 -0.36596,0.076862 -0.652621,-0.017935 l -0.06309,-0.3003635 q 0.29191,0.1369517 0.654418,0.060815 0.217505,-0.045682 0.32149,-0.1684549 0.103985,-0.1227728 0.06555,-0.3057529 -0.01595,-0.075954 -0.05935,-0.1281197 -0.04067,-0.056343 -0.119872,-0.090175 -0.07647,-0.03801 -0.145143,-0.05603 -0.06594,-0.022198 -0.179669,-0.048779 -0.02289,-0.00601 -0.06794,-0.014568 -0.162232,-0.034417 -0.25034,-0.059169 Q 10.34454,5.9131045 10.220836,5.8561766 10.099859,5.7950711 10.029047,5.6981965 9.9582337,5.601322 9.9285041,5.4597714 9.8661443,5.1628603 10.041939,4.9529106 q 0.178521,-0.2141273 0.4996,-0.2815629 0.300363,-0.063085 0.533441,-2.906e-4 z" />
        <path
           id="path54"
           style="font-style:normal;font-variant:normal;font-weight:normal;font-stretch:normal;font-size:3.52778px;font-family:hind;-inkscape-font-specification:hind;text-align:center;text-anchor:middle;fill:#ffffff;stroke-width:0.264583"
           d="M 12.16752,6.860449 12.023791,4.4870733 12.309019,4.4698003 12.452747,6.843176 Z" />
        <path
           id="path56"
           style="font-style:normal;font-variant:normal;font-weight:normal;font-stretch:normal;font-size:3.52778px;font-family:hind;-inkscape-font-specification:hind;text-align:center;text-anchor:middle;fill:#ffffff;stroke-width:0.264583"
           d="m 13.017788,6.791819 0.279541,-2.3612343 0.357338,0.042304 0.474272,1.0650339 0.47796,1.0938899 q 0.02622,-0.3414806 0.106678,-1.0211237 L 14.831781,4.612244 15.115549,4.645839 14.836009,7.0070734 14.478671,6.9647694 14.003569,5.9067421 Q 13.860154,5.5878077 13.739788,5.3142316 13.619837,5.0371521 13.570049,4.9175805 l -0.0467,-0.1156534 q -0.02562,0.3664185 -0.104005,1.028545 l -0.117788,0.9949415 z" />
        <path
           id="path58"
           style="font-style:normal;font-variant:normal;font-weight:normal;font-stretch:normal;font-size:3.52778px;font-family:hind;-inkscape-font-specification:hind;text-align:center;text-anchor:middle;fill:#ffffff;stroke-width:0.264583"
           d="m 15.717679,7.0241022 0.982042,0.344441 -0.0829,0.2363559 -1.251688,-0.4390164 0.78696,-2.2437165 1.235043,0.4331783 -0.0829,0.2363559 -0.965398,-0.338603 -0.269715,0.7689889 0.852213,0.2989047 -0.0829,0.2363559 -0.852213,-0.2989047 z" />
        <path
           id="path60"
           style="font-style:normal;font-variant:normal;font-weight:normal;font-stretch:normal;font-size:3.52778px;font-family:hind;-inkscape-font-specification:hind;text-align:center;text-anchor:middle;fill:#ffffff;stroke-width:0.264583"
           d="M 19.24663,6.4403915 19.096295,6.6998451 Q 18.980844,6.4698617 18.721391,6.3195266 18.535195,6.211639 18.374018,6.2364871 q -0.159409,0.021796 -0.240766,0.1622059 -0.04245,0.073257 -0.04858,0.1471708 -0.0031,0.075682 0.04011,0.1700202 0.04496,0.091286 0.08093,0.1488245 0.03774,0.054486 0.11933,0.1669959 0.07725,0.1059199 0.116277,0.1652272 0.04079,0.056255 0.09266,0.1637725 0.05668,0.1062339 0.06758,0.1859381 0.01572,0.07842 -0.002,0.186395 -0.01289,0.1066908 -0.07126,0.2074199 Q 18.370894,8.2121202 18.098034,8.2538 17.826943,8.2924273 17.533913,8.1226371 17.210359,7.9351603 17.060534,7.6730273 L 17.214406,7.407469 q 0.125549,0.296993 0.446051,0.4827012 0.1923,0.1114248 0.351709,0.089629 0.159408,-0.021796 0.253147,-0.1835726 0.03891,-0.067153 0.04151,-0.1349612 0.0074,-0.069092 -0.02887,-0.1471988 -0.03147,-0.07939 -0.07049,-0.1386975 -0.0342,-0.060591 -0.101015,-0.156384 -0.01301,-0.019769 -0.04079,-0.056255 -0.09765,-0.1340474 -0.14663,-0.2113551 -0.04593,-0.075539 -0.09987,-0.2005722 -0.04912,-0.1263169 -0.03703,-0.2457022 0.01209,-0.1193853 0.08461,-0.2445335 0.152104,-0.262506 0.423195,-0.3011333 0.275913,-0.039911 0.559785,0.1245732 0.265559,0.1538724 0.396927,0.3563842 z" />
        <path
           id="path62"
           style="font-style:normal;font-variant:normal;font-weight:normal;font-stretch:normal;font-size:3.52778px;font-family:hind;-inkscape-font-specification:hind;text-align:center;text-anchor:middle;fill:#ffffff;stroke-width:0.264583"
           d="M 21.041253,7.871843 20.843166,8.0969612 Q 20.774828,7.8488664 20.54971,7.650779 20.388155,7.5086222 20.225228,7.5015314 q -0.160597,-0.00974 -0.267797,0.1120893 -0.05593,0.063563 -0.07637,0.1348573 -0.01779,0.073625 0.0062,0.1745791 0.02628,0.098306 0.05033,0.1617593 0.02638,0.060805 0.08444,0.1870761 0.05509,0.1189617 0.08179,0.1847456 0.02903,0.063136 0.05891,0.1787084 0.03486,0.1152548 0.02999,0.1955531 1.09e-4,0.07998 -0.03834,0.1824201 -0.03347,0.1021218 -0.110376,0.1895206 Q 19.83653,9.4385523 19.560783,9.4261695 19.287367,9.4111382 19.033115,9.187416 18.75238,8.9403893 18.656604,8.6540535 l 0.202748,-0.2304151 q 0.06516,0.3157868 0.34325,0.560483 0.166852,0.1468177 0.327448,0.156557 0.160597,0.00974 0.28411,-0.1306286 0.05127,-0.058266 0.06705,-0.1242634 0.02076,-0.066316 4.18e-4,-0.1500027 -0.01536,-0.084005 -0.04206,-0.1497891 -0.02172,-0.066102 -0.06855,-0.1730934 -0.0089,-0.021928 -0.02903,-0.063135 -0.0696,-0.1505295 -0.102554,-0.235911 -0.0303,-0.083051 -0.0588,-0.216209 -0.02352,-0.133476 0.01164,-0.2482041 0.03516,-0.114728 0.130713,-0.2233144 0.200418,-0.2277667 0.473834,-0.2127354 0.278396,0.014713 0.524701,0.2314442 0.230415,0.2027483 0.319727,0.427007 z" />
      </g>
      <g
         style="font-size:3.52778px;line-height:1.25;font-family:Hind;-inkscape-font-specification:Hind;fill:#f9f9f9;stroke-width:0.264583"
         id="text1161"
         transform="matrix(0.73190906,-0.71822346,0.75548261,0.69581252,-6.6252517,12.193088)"
         aria-label="Continuity">
        <path
           id="path1166"
           style="font-size:3.52778px;fill:#f9f9f9;stroke-width:0.264583"
           d="M 5.7628907,14.297182 5.4706094,14.3147 q 0.071707,-0.159799 0.099535,-0.285161 0.027828,-0.125361 0.015798,-0.326085 -0.023005,-0.383839 -0.2989999,-0.625288 -0.275784,-0.237927 -0.6948379,-0.212811 -0.4366612,0.02617 -0.6820534,0.295333 -0.2453923,0.269164 -0.2202769,0.688218 0.020261,0.33806 0.2142074,0.566755 l -0.2993242,0.01794 q -0.160987,-0.209466 -0.1837809,-0.589784 -0.03208,-0.535262 0.2753657,-0.889429 0.3109672,-0.354378 0.8779224,-0.388358 0.5352621,-0.03208 0.8900621,0.28593 0.3585325,0.321321 0.3893463,0.835454 0.022161,0.369754 -0.090682,0.609768 z" />
        <path
           id="path1168"
           style="font-size:3.52778px;fill:#f9f9f9;stroke-width:0.264583"
           d="m 3.7422535,15.549117 q -0.1047813,-0.369977 0.081478,-0.657385 0.1906151,-0.284976 0.5707745,-0.392641 0.3835537,-0.108627 0.700609,0.0399 0.3214109,0.150964 0.4223471,0.507364 0.1105491,0.390342 -0.081027,0.671923 Q 5.24582,16.003258 4.858872,16.112846 4.4753183,16.221472 4.1626185,16.075374 3.8499188,15.929276 3.7422535,15.549117 Z M 5.2798627,15.11365 q -0.069213,-0.244389 -0.2987063,-0.329722 -0.2294929,-0.08533 -0.5044296,-0.0075 -0.2681482,0.07594 -0.4178534,0.272334 -0.146311,0.195432 -0.07902,0.433031 0.073059,0.257966 0.2957628,0.345221 0.2260986,0.08629 0.5010354,0.0084 0.2851195,-0.08075 0.4309201,-0.265036 0.1491949,-0.185248 0.072291,-0.45679 z" />
        <path
           id="path1170"
           style="font-size:3.52778px;fill:#f9f9f9;stroke-width:0.264583"
           d="m 5.8849184,16.159772 -0.2758116,0.142492 q 0.3706161,-0.01279 0.5568266,0.347649 0.1198225,0.231933 0.050028,0.442704 -0.069794,0.21077 -0.304861,0.332212 L 4.8172569,17.989937 4.6893383,17.742334 5.7173634,17.211229 q 0.1755165,-0.09068 0.2194515,-0.228526 0.048688,-0.136335 -0.025796,-0.280509 -0.092296,-0.178651 -0.2982088,-0.239043 -0.2042939,-0.05726 -0.4487633,0.06904 l -0.8681797,0.448525 -0.1262993,-0.24447 1.589051,-0.820945 z" />
        <path
           id="path1172"
           style="font-size:3.52778px;fill:#f9f9f9;stroke-width:0.264583"
           d="m 6.5811409,17.759336 -0.8366481,0.630715 q -0.2281767,0.172014 -0.066782,0.386105 0.082821,0.109863 0.2113207,0.14553 L 5.6777568,19.080957 Q 5.5569714,19.026217 5.469903,18.910725 5.15136,18.488175 5.5823605,18.163261 l 0.831014,-0.626467 -0.1720132,-0.228177 0.1802878,-0.135912 0.1720132,0.228177 0.3549416,-0.267576 0.1677659,0.222543 -0.3549415,0.267576 0.2973067,0.394379 -0.1802877,0.135912 z" />
        <path
           id="path1174"
           style="font-size:3.52778px;fill:#f9f9f9;stroke-width:0.264583"
           d="M 5.929236,19.415995 7.2233336,18.181351 7.415714,18.382996 6.1216164,19.61764 Z m 1.6103682,-1.526633 q 0.00419,-0.07226 0.060348,-0.125836 0.056154,-0.05357 0.1285338,-0.05437 0.074815,0.0018 0.1283892,0.05791 0.053574,0.05615 0.051815,0.130969 -0.00176,0.07481 -0.057913,0.128389 -0.056154,0.05357 -0.1309689,0.05182 -0.072262,-0.0042 -0.1258367,-0.06035 -0.053574,-0.05615 -0.054368,-0.128534 z" />
        <path
           id="path1176"
           style="font-size:3.52778px;fill:#f9f9f9;stroke-width:0.264583"
           d="m 7.8023926,18.758869 -0.1906669,0.244994 q 0.3311146,-0.166982 0.651277,0.08219 0.2060176,0.160333 0.2310145,0.380948 0.024997,0.220614 -0.1375034,0.429416 L 7.6003462,20.868035 7.3804085,20.696868 8.091076,19.783709 Q 8.2124095,19.627804 8.1945063,19.484234 8.1815533,19.340047 8.0534888,19.24038 7.8947996,19.11688 7.6825372,19.14838 7.4730589,19.18204 7.3040587,19.399197 l -0.6001674,0.771174 -0.2171537,-0.169 1.0985013,-1.411499 z" />
        <path
           id="path1178"
           style="font-size:3.52778px;fill:#f9f9f9;stroke-width:0.264583"
           d="m 9.81324,20.022849 0.249443,0.124294 -0.7976829,1.600855 -0.2494429,-0.124294 0.1384538,-0.277861 q -0.274194,0.233872 -0.6499371,0.04665 -0.2368129,-0.118 -0.3065162,-0.326157 -0.064972,-0.209742 0.053028,-0.446555 L 8.799681,19.517807 9.0491238,19.642101 8.5314954,20.68092 q -0.086534,0.173663 -0.04375,0.309284 0.042783,0.135621 0.1943436,0.211141 0.1989228,0.09912 0.3849774,0.0184 0.1892121,-0.07914 0.3072125,-0.315956 z" />
        <path
           id="path1180"
           style="font-size:3.52778px;fill:#f9f9f9;stroke-width:0.264583"
           d="m 9.7668272,21.913115 0.5658418,-1.696719 0.26438,0.08817 -0.565841,1.69672 z m 0.7086938,-2.102771 q -0.03011,-0.06582 -0.0056,-0.139448 0.02455,-0.07362 0.08815,-0.108199 0.06694,-0.03346 0.140565,-0.0089 0.07362,0.02455 0.107083,0.09149 0.03346,0.06694 0.0089,0.140565 -0.02455,0.07362 -0.09149,0.107082 -0.06582,0.03011 -0.139448,0.0056 -0.07362,-0.02455 -0.108199,-0.08815 z" />
        <path
           id="path1182"
           style="font-size:3.52778px;fill:#f9f9f9;stroke-width:0.264583"
           d="m 11.239925,20.70655 -0.219695,1.024459 q -0.05992,0.279398 0.202234,0.335616 0.134525,0.02885 0.255019,-0.02829 l -0.05548,0.258702 q -0.127143,0.03768 -0.268567,0.0073 -0.517403,-0.110957 -0.404227,-0.638708 l 0.218216,-1.01756 -0.279398,-0.05992 0.04734,-0.220759 0.279397,0.05992 0.0932,-0.434619 0.272499,0.05844 -0.0932,0.434619 0.48291,0.10356 -0.04734,0.220758 z" />
        <path
           id="path1184"
           style="font-size:3.52778px;fill:#f9f9f9;stroke-width:0.264583"
           d="m 12.311426,22.382625 -0.638546,-1.775487 0.313609,0.0151 0.204231,0.599655 0.274587,0.82555 q 0.0326,-0.09026 0.320918,-0.796878 l 0.236231,-0.578447 0.299514,0.01442 -0.728648,1.709659 q -0.154899,0.356324 -0.352305,0.495158 -0.193881,0.139003 -0.437016,0.127297 -0.09162,-0.0044 -0.147147,-0.02474 l 0.01205,-0.250183 q 0.05218,0.01664 0.119128,0.01986 0.355893,0.01714 0.523399,-0.380964 z" />
      </g>
    </g>
    <g
       inkscape:label="circle"
       id="layer2"
       inkscape:groupmode="layer" />
    <g
       style="display:inline"
       transform="translate(76.098697,100.99309)"
       inkscape:label="gleam"
       id="layer9"
       inkscape:groupmode="layer" />
    <text
       inkscape:label="text18"
       id="text18"
       y="105.68349"
       x="86.577995"
       style="font-style:normal;font-weight:normal;font-size:8.86664px;line-height:1.25;font-family:sans-serif;letter-spacing:0px;word-spacing:0px;display:inline;fill:#000000;fill-opacity:1;stroke:none;stroke-width:0.221666"
       xml:space="preserve"><tspan
         style="stroke-width:0.221666"
         y="105.68349"
         x="86.577995"
         id="tspan16"
         sodipodi:role="line"> </tspan></text>
  </g>
  <g
     sodipodi:insensitive="true"
     style="display:none"
     inkscape:label="edge"
     id="layer4"
     inkscape:groupmode="layer">
    <ellipse
       ry="12.888245"
       rx="12.8885"
       cy="12.892049"
       cx="12.889828"
       id="path1859"
       style="display:inline;opacity:1;vector-effect:none;fill:none;fill-opacity:1;stroke:#000000;stroke-width:0.00300114;stroke-linecap:butt;stroke-linejoin:miter;stroke-miterlimit:4;stroke-dasharray:none;stroke-dashoffset:0;stroke-opacity:1" />
  </g>
</svg>
