<?xml version="1.0" encoding="utf-8"?>
<!-- Generator: Adobe Illustrator 23.0.5, SVG Export Plug-In . SVG Version: 6.00 Build 0)  -->
<svg version="1.1" xmlns="http://www.w3.org/2000/svg" xmlns:xlink="http://www.w3.org/1999/xlink" x="0px" y="0px"
	 viewBox="0 0 1000 1000" style="enable-background:new 0 0 1000 1000;" xml:space="preserve">
<style type="text/css">
	.st0{fill:#082C42;}
	.st1{opacity:0.2;}
	.st2{fill:#B3B3B3;}
	.st3{fill:#808080;}
	.st4{fill:#4D4D4D;}
	.st5{fill:#333333;}
	.st6{fill:#666666;}
	.st7{fill:#CCCCCC;}
	.st8{fill:#FFFFFF;}
	.st9{font-family:'Hind-Bold';}
	.st10{font-size:96.0107px;}
	.st11{font-family:'Hind-Regular';}
	.st12{fill:#4C4C4C;}
	.st13{fill:#191919;}
	.st14{fill:#5E79EC;}
	.st15{opacity:0.3;fill:#333333;}
	.st16{fill:#5E5E5E;}
	.st17{opacity:0.2;fill:#FFFFFF;}
	.st18{fill:#D1D1D1;}
	.st19{fill:#C2C2C2;}
	.st20{fill:#FAF3FA;}
	.st21{fill:#ADA8AD;}
	.st22{fill:#615757;}
	.st23{fill:#8F8080;}
	.st24{fill:#756A6A;}
</style>
<g id="Bg">
</g>
<g id="Object">
	<circle class="st0" cx="500" cy="500" r="488.9"/>
	<circle class="st0" cx="500" cy="500" r="423.3"/>
	<path class="st1" d="M767.2,434.5c-11.7,2-23.4,4.1-35.1,6.1c-3.1,0.5-6.3,0.6-9.4,1.4c-10.9,2.8-20.8-0.3-30.6-4.9
		c-5.9-2.7-12.1-4.7-20.2-7.7c5.2,9.9,9.3,18.3,14,26.3c0.9,1.6,3.7,2.4,5.8,3c15.4,5.1,30.9,10,46.3,15.1c3.4,1.1,6.5,2.9,9.7,4.4
		c-0.1,0.7-0.3,1.4-0.4,2.1c-5.7-0.7-11.6-1-17.2-2.3c-14.8-3.3-29.5-6.7-44.1-10.6c-3.2-0.8-6.1-3.5-8.8-5.6
		c-2.2-1.8-3.9-4.1-6.4-5.8c3.8,12.3,5.3,25.1,17.1,34c10.5,7.9,19.2,18.2,28.7,27.4c-0.5,0.7-1,1.5-1.6,2.2c-2.2-1-4.7-1.5-6.5-2.9
		c-12-9.3-23.8-18.7-35.6-28.2c-1.8-1.5-2.9-3.9-4-6.1c-6.6-13.6-13.2-27.2-19.8-41c-6.4,0.1-7.8,2.3-6.7,8.7
		c10.3,61.4,21.2,122.7,29.8,184.4c8.3,59.6,11.1,119.7,9.7,179.9c-0.6,24.8-3.6,49.5-6.4,74.1c-1.1,9.8-6.1,11.3-12.6,4
		c-9.3-10.4-18.1-21.4-25.8-33.1c-20.5-30.9-39.5-62.9-52.5-97.7c-13.4-36.2-19.8-74.1-18.4-112.9c0.5-13.5,6-25.3,13.4-36.4
		c8.7-13,17-26.3,18.9-42.3c1.8-14.8,2.7-29.7,4.1-44.5c2.4-25,4.7-49.9,7.4-74.8c0.6-5-0.9-6.4-5.3-7.9c-8.7-3-17-7.1-25.5-10.7
		c0-0.1-0.3,0.6-0.1,1c10.6,18,8.1,36-0.5,53.8c-11.6,23.9-29.7,43-46.8,62.8c-50.9,59.2-114.7,101-183.5,135.9
		c-24.8,12.5-50,24-75.1,36c-1.6,0.7-3.3,1.2-6.2,2.2c2.7-6.2,4.9-11.3,7.2-16.3c26.2-57.7,54.8-114.1,91.7-165.7
		c32.7-45.8,73.5-83.9,118.3-117.7c12.7-9.5,26.7-16.9,43-18.8c11.4-1.3,21.8,1.2,32.2,7.3c-4.8-10.9-9.2-20.8-14.2-31.9
		c-5.7,0.5-12.6,1-19.5,1.6c-33.5,3.1-67,6.2-100.5,9.4c-13,1.3-24.9,6-36,13c-1,0.6-2,1.1-2.9,1.8c-24.5,20-52.8,19.9-82.3,17
		c-73.7-7.2-134.5-43.1-193.1-84.4c-5.1-3.6-9.7-8.2-13.8-12.9c-5-5.6-4.1-8.8,3.2-10.3c10.6-2.2,21.3-4.6,32.1-4.8
		c40.9-0.7,81.8-1.6,122.7-0.5c31.1,0.8,62.2,3.7,93.2,7.1c33,3.7,65.8,8.7,98.5,13.9c31.6,5.1,63.1,11.2,94.6,16.9
		c3.2,0.6,6.7,1.8,8.1-3.1c1.5-5-2.7-5-5.2-6.3c-7.2-3.7-14.4-7.7-22-10.5c-24.9-9.1-36.5-31.1-50.5-50.8c-0.3-0.4-0.2-1.2-0.5-3.4
		c3,2,5.4,3.1,7.1,4.9c8.1,8.2,16.6,16.1,24,24.9c5.2,6.2,11,10.3,18.8,12.1c4.3,1,8.5,2.7,12.8,4.1c0.1-1.1,0.3-1.8,0.2-1.9
		c-9.3-5.9-11.7-15.4-13.7-25.2c-2.9-14.4-6-28.7-9-43c-0.4-2-0.1-4.1,1.5-6.6c1.6,3.5,3.6,7,4.8,10.7c5,15,9.7,30.1,14.7,45
		c0.8,2.4,2.2,5.3,4.2,6.4c7.4,4.3,15.1,7.9,23.8,12.4c-0.4-2.4-0.6-3.7-0.9-5.1c-0.1-0.7-0.3-1.3-0.7-1.9
		c-13.2-22.2-11-45.7-5.8-69.5c1.4-6.2,2.7-12.5,4.1-18.7c0.8,0.1,1.6,0.2,2.5,0.3c0,8.4,0.4,16.8-0.1,25.1c-0.5,9-2,18-2.7,26.9
		c-0.2,1.9,0.3,4.1,1.3,5.7c6.4,10.1,12.9,20.2,19.6,30.1c0.9,1.4,3.1,2.9,4.6,2.7c7.4-0.7,14.7-2.7,22.1-2.6
		c7.1,0.1,14.2,2.2,21.9,3.5c-1.7-6.4-3.7-12.7-4.9-19.1c-4.5-23.4,3.2-39,24.1-50.3c1.4-0.8,2.7-2.3,3.3-3.8
		c4.8-10.3,11.8-15.5,21.2-14.7c10.5,0.8,17.6,6.4,20.9,16.5c0.4,1.2,0.9,2.3,3.2,3.9c4.3-11.8,9.2-23.4,12.5-35.4
		c1.2-4.4-0.9-10.3-3-14.9c-3.8-8.7-8.7-16.8-12.9-25.3c-0.9-1.9-0.5-4.5-0.7-6.7c2.1,1.2,4.2,2.3,6.2,3.5c0.5,0.3,0.7,1.1,1.1,1.7
		c21.6,37.9,19.5,39.4,4.5,74.3c-1.1,2.4-2.2,4.9-3.3,7.5c4.7,3.3,9.6,5.8,13.4,9.6c8.3,8.5,16.3,17.4,23.9,26.6
		c2.6,3.3,4.2,4.2,8.2,2.4c9.1-4,18.1-8.5,27.7-10.8c6.6-1.6,14.7-1.8,21,0.4c10.6,3.6,20.4,9.5,30.3,14.9c1.6,0.9,2.2,3.8,3.2,5.7
		c-2.2-0.1-4.7,0.5-6.4-0.3c-8.7-4.2-17.2-9-25.9-13.3c-7.7-3.8-15.6-3.9-23.6-0.6c-8.6,3.6-17.3,7.1-27.8,11.5
		c3.5,1.3,4.9,1.8,6.2,2.3c9.2,3.4,14.9,11.1,15.3,20.4c0.4,10.2-3.9,16.6-13.6,21.2c-1.7,0.8-3.8,2.1-4.4,3.6
		c-7.9,21.3-30.5,29.3-54.4,23.5c-5-1.2-9.9-2.9-14.6-4.3c0.9,9.3,2.1,18.6,2.6,27.9c0.2,3.8-0.1,7.9-1.5,11.3
		c-2.4,6,0,8.9,4.9,11.8c8.2,4.8,15.7,10.7,24,15.3c3.8,2.1,8.8,2.8,13.2,2.7c13.3-0.5,26.6-1.8,39.9-2.7c2.3-0.1,4.7,0.5,7,0.8
		C767.1,432.7,767.2,433.6,767.2,434.5z"/>
	<text transform="matrix(1 0 0 1 238.9033 760.3615)"><tspan x="0" y="0" class="st8 st9 st10">Container</tspan><tspan x="62.3" y="91.8" class="st8 st11 st10">Security</tspan></text>
	<g>
		<polygon class="st3" points="209.8,226.2 209.8,403.8 207.4,405.2 207.4,224.9 		"/>
		<polygon class="st2" points="363.9,109.4 783.5,351.7 610.8,451.4 191.1,209.1 		"/>
		<polygon class="st2" points="594.5,448.4 594.5,626 209.8,403.8 209.8,226.2 		"/>
		<polygon class="st12" points="209.8,403.8 594.5,626 594.5,628.8 207.4,405.2 		"/>
		<g>
			<path class="st3" d="M191.1,209.1v199.4l419.6,242.3V451.4L191.1,209.1z M207.4,224.9l387.2,223.5v180.4L207.4,405.2V224.9z"/>
		</g>
		<polygon class="st3" points="586,623.8 586,443.5 581.9,441.1 581.9,621.5 		"/>
		<polygon class="st3" points="573.4,616.5 573.4,436.2 569.3,433.8 569.3,614.2 		"/>
		<polygon class="st3" points="560.7,609.3 560.7,428.9 556.7,426.5 556.7,606.9 		"/>
		<polygon class="st3" points="548.1,602 548.1,421.6 544.1,419.2 544.1,599.6 		"/>
		<polygon class="st3" points="535.5,594.7 535.5,414.3 531.4,412 531.4,592.3 		"/>
		<polygon class="st3" points="522.9,587.4 522.9,407 518.8,404.7 518.8,585 		"/>
		<polygon class="st3" points="510.3,580.1 510.3,399.7 506.2,397.4 506.2,577.8 		"/>
		<polygon class="st3" points="497.6,572.8 497.6,392.4 493.6,390.1 493.6,570.5 		"/>
		<polygon class="st3" points="485,565.5 485,385.2 481,382.8 481,563.2 		"/>
		<polygon class="st3" points="472.4,558.3 472.4,377.9 468.3,375.5 468.3,555.9 		"/>
		<polygon class="st3" points="459.8,551 459.8,370.6 455.7,368.2 455.7,548.6 		"/>
		<polygon class="st3" points="447.2,543.7 447.2,363.3 443.1,360.9 443.1,541.3 		"/>
		<polygon class="st3" points="434.5,536.4 434.5,356 430.5,353.7 430.5,534 		"/>
		<polygon class="st3" points="421.9,529.1 421.9,348.7 417.8,346.4 417.8,526.8 		"/>
		<polygon class="st3" points="409.3,521.8 409.3,341.4 405.2,339.1 405.2,519.5 		"/>
		<polygon class="st3" points="396.7,514.5 396.7,334.2 392.6,331.8 392.6,512.2 		"/>
		<polygon class="st3" points="384.1,507.2 384.1,326.9 380,324.5 380,504.9 		"/>
		<polygon class="st3" points="371.4,500 371.4,319.6 367.4,317.2 367.4,497.6 		"/>
		<polygon class="st3" points="358.8,492.7 358.8,312.3 354.7,309.9 354.7,490.3 		"/>
		<polygon class="st3" points="346.2,485.4 346.2,305 342.1,302.7 342.1,483 		"/>
		<polygon class="st3" points="333.6,478.1 333.6,297.7 329.5,295.4 329.5,475.7 		"/>
		<polygon class="st3" points="321,470.8 321,290.4 316.9,288.1 316.9,468.5 		"/>
		<polygon class="st3" points="308.3,463.5 308.3,283.1 304.3,280.8 304.3,461.2 		"/>
		<polygon class="st3" points="295.7,456.2 295.7,275.9 291.6,273.5 291.6,453.9 		"/>
		<polygon class="st3" points="283.1,449 283.1,268.6 279,266.2 279,446.6 		"/>
		<polygon class="st3" points="270.5,441.7 270.5,261.3 266.4,258.9 266.4,439.3 		"/>
		<polygon class="st3" points="257.8,434.4 257.8,254 253.8,251.6 253.8,432 		"/>
		<polygon class="st3" points="245.2,427.1 245.2,246.7 241.2,244.4 241.2,424.7 		"/>
		<polygon class="st3" points="232.6,419.8 232.6,239.4 228.5,237.1 228.5,417.5 		"/>
		<polygon class="st3" points="220,412.5 220,232.1 215.9,229.8 215.9,410.2 		"/>
		<polygon class="st5" points="433.3,545.7 455.2,558.4 455.2,551 433.3,538.3 		"/>
		<polygon class="st5" points="368.6,508.4 346.7,495.7 346.7,488.3 368.6,501 		"/>
		<polygon class="st5" points="610.8,650.8 783.5,551.1 783.5,351.7 610.8,451.4 		"/>
		<g>
			<polygon class="st2" points="619.2,636.2 775,546.2 775,366.3 619.2,456.3 			"/>
		</g>
		<polygon class="st12" points="775,366.3 775,546.2 619.2,456.3 		"/>
		<g>
			<polygon class="st13" points="773.3,343.7 785.8,350.9 784.6,351.6 772.1,344.4 			"/>
			<polygon class="st12" points="783.4,350.9 782.7,351.3 772.1,345.1 772.1,344.4 			"/>
			<g>
				<path class="st2" d="M773.3,358.1v9.7l12.5-7.2v-9.7L773.3,358.1z M776.5,361.1c0-1.8,1.3-4,2.8-4.8c1.5-0.9,2.8-0.2,2.8,1.6
					c0,1.8-1.3,4-2.8,4.8C777.8,363.6,776.5,362.9,776.5,361.1z"/>
			</g>
			<g>
				<path class="st12" d="M778.1,362c1.5-0.9,2.8-3.1,2.8-4.8c0-0.5-0.1-1-0.3-1.3c0.9,0,1.5,0.7,1.5,2c0,1.8-1.3,4-2.8,4.8
					c-1.1,0.6-2,0.5-2.5-0.3C777.2,362.4,777.7,362.3,778.1,362z"/>
				<polygon class="st13" points="783.4,350.9 784.6,351.6 773.3,358.1 773.3,367.9 772.1,367.2 772.1,357.4 				"/>
			</g>
		</g>
		<g>
			<g>
				<path class="st14" d="M201.3,407l-12.1-7v9.7l12.1,7V407z M198,410c0,1.8-1.3,2.5-2.8,1.6c-1.5-0.9-2.8-3.1-2.8-4.8
					c0-1.8,1.3-2.5,2.8-1.6C196.8,406,198,408.2,198,410z"/>
			</g>
		</g>
		<g>
			<path class="st2" d="M610.8,451.9l-12.6-7.3v9.7l12.6,7.3V451.9z M607.1,454.6c0,1.8-1.3,2.5-2.8,1.6c-1.5-0.9-2.8-3.1-2.8-4.8
				s1.3-2.5,2.8-1.6C605.8,450.7,607.1,452.8,607.1,454.6z"/>
		</g>
		<g>
			<polygon class="st13" points="202.5,201.7 202.5,202.6 191.9,208.7 191.1,208.2 			"/>
			<g>
				<path class="st2" d="M188.7,208.2v9.7l12.6,7.3v-9.7L188.7,208.2z M192.4,215.2c0-1.8,1.3-2.5,2.8-1.6c1.5,0.9,2.8,3.1,2.8,4.8
					s-1.3,2.5-2.8,1.6C193.7,219.2,192.4,217,192.4,215.2z"/>
			</g>
			<polygon class="st13" points="201.3,201 202.5,201.7 191.1,208.2 202.5,214.8 201.3,215.5 188.7,208.2 			"/>
			<polygon class="st13" points="202.5,214.8 202.5,224.5 201.3,225.2 201.3,215.5 			"/>
			<path class="st13" d="M193.6,214.5c0,1.8,1.3,4,2.8,4.8c0.5,0.3,0.9,0.4,1.3,0.4c-0.5,0.8-1.4,0.9-2.5,0.3
				c-1.5-0.9-2.8-3.1-2.8-4.8c0-1.3,0.6-2,1.5-2C193.7,213.6,193.6,214,193.6,214.5z"/>
		</g>
		<g>
			<g>
				<path class="st2" d="M188.7,399.7v9.7l12.6,7.3V407L188.7,399.7z M192.4,406.7c0-1.8,1.3-2.5,2.8-1.6c1.5,0.9,2.8,3.1,2.8,4.8
					c0,1.8-1.3,2.5-2.8,1.6C193.7,410.7,192.4,408.5,192.4,406.7z"/>
			</g>
			<polygon class="st13" points="191.1,398.3 191.1,399.7 202.5,406.3 201.3,407 188.7,399.7 			"/>
			<polygon class="st13" points="202.5,406.3 202.5,416 201.3,416.7 201.3,407 			"/>
			<path class="st12" d="M193.6,406c0,1.8,1.3,4,2.8,4.8c0.5,0.3,0.9,0.4,1.3,0.4c-0.5,0.8-1.4,0.9-2.5,0.3
				c-1.5-0.9-2.8-3.1-2.8-4.8c0-1.3,0.6-2,1.5-2C193.7,405.1,193.6,405.5,193.6,406z"/>
		</g>
		<g>
			<polygon class="st15" points="209.8,226.2 209.8,403.8 207.4,405.2 207.4,224.9 			"/>
			<polygon class="st15" points="222.4,233.5 222.4,411.1 220,412.5 220,232.1 			"/>
			<polygon class="st15" points="235,240.8 235,418.4 232.6,419.8 232.6,239.4 			"/>
			<polygon class="st15" points="247.6,248.1 247.6,425.7 245.2,427.1 245.2,246.7 			"/>
			<polygon class="st15" points="260.3,255.4 260.3,433 257.8,434.4 257.8,254 			"/>
			<polygon class="st15" points="272.9,262.7 272.9,440.3 270.5,441.7 270.5,261.3 			"/>
			<polygon class="st15" points="285.5,270 285.5,447.6 283.1,449 283.1,268.6 			"/>
			<polygon class="st15" points="298.1,277.3 298.1,454.8 295.7,456.2 295.7,275.9 			"/>
			<polygon class="st15" points="310.7,284.5 310.7,462.1 308.3,463.5 308.3,283.1 			"/>
			<polygon class="st15" points="323.4,291.8 323.4,469.4 321,470.8 321,290.4 			"/>
			<polygon class="st15" points="336,299.1 336,476.7 333.6,478.1 333.6,297.7 			"/>
			<polygon class="st15" points="348.6,306.4 348.6,484 346.2,485.4 346.2,305 			"/>
			<polygon class="st15" points="361.2,313.7 361.2,491.3 358.8,492.7 358.8,312.3 			"/>
			<polygon class="st15" points="373.9,321 373.9,498.6 371.4,500 371.4,319.6 			"/>
			<polygon class="st15" points="386.5,328.3 386.5,505.9 384.1,507.2 384.1,326.9 			"/>
			<polygon class="st15" points="399.1,335.6 399.1,513.1 396.7,514.5 396.7,334.2 			"/>
			<polygon class="st15" points="411.7,342.8 411.7,520.4 409.3,521.8 409.3,341.4 			"/>
			<polygon class="st15" points="424.3,350.1 424.3,527.7 421.9,529.1 421.9,348.7 			"/>
			<polygon class="st15" points="437,357.4 437,535 434.5,536.4 434.5,356 			"/>
			<polygon class="st15" points="449.6,364.7 449.6,542.3 447.2,543.7 447.2,363.3 			"/>
			<polygon class="st15" points="462.2,372 462.2,549.6 459.8,551 459.8,370.6 			"/>
			<polygon class="st15" points="474.8,379.3 474.8,556.9 472.4,558.3 472.4,377.9 			"/>
			<polygon class="st15" points="487.4,386.6 487.4,564.1 485,565.5 485,385.2 			"/>
			<polygon class="st15" points="500.1,393.8 500.1,571.4 497.6,572.8 497.6,392.4 			"/>
			<polygon class="st15" points="512.7,401.1 512.7,578.7 510.3,580.1 510.3,399.7 			"/>
			<polygon class="st15" points="525.3,408.4 525.3,586 522.9,587.4 522.9,407 			"/>
			<polygon class="st15" points="537.9,415.7 537.9,593.3 535.5,594.7 535.5,414.3 			"/>
			<polygon class="st15" points="550.5,423 550.5,600.6 548.1,602 548.1,421.6 			"/>
			<polygon class="st15" points="563.2,430.3 563.2,607.9 560.7,609.3 560.7,428.9 			"/>
			<polygon class="st15" points="575.8,437.6 575.8,615.2 573.4,616.5 573.4,436.2 			"/>
			<polygon class="st15" points="588.4,444.9 588.4,622.4 586,623.8 586,443.5 			"/>
		</g>
		<g>
			<path class="st2" d="M610.8,451.9v9.7l12.6-7.3v-9.7L610.8,451.9z M617.3,456.2c-1.5,0.9-2.8,0.2-2.8-1.6s1.3-4,2.8-4.8
				c1.5-0.9,2.8-0.2,2.8,1.6C620.1,453.1,618.8,455.3,617.3,456.2z"/>
		</g>
		<path class="st12" d="M602.7,450.7c0,1.8,1.3,4,2.8,4.8c0.5,0.3,0.9,0.4,1.3,0.4c-0.5,0.7-1.4,0.9-2.5,0.3
			c-1.5-0.9-2.8-3.1-2.8-4.8c0-1.3,0.6-2,1.5-2C602.8,449.7,602.7,450.2,602.7,450.7z"/>
		<path class="st12" d="M617.3,456.2c-1.1,0.6-2,0.5-2.4-0.3c0.4,0,0.8-0.1,1.2-0.4c1.5-0.9,2.8-3.1,2.8-4.8c0-0.6-0.1-1-0.4-1.4
			c0.9,0,1.6,0.7,1.6,2C620.1,453.1,618.8,455.3,617.3,456.2z"/>
		<polygon class="st13" points="598.2,444.6 599.4,444 610.8,450.5 622.2,444 623.4,444.6 610.8,451.9 		"/>
		<g>
			<g>
				<path class="st2" d="M610.8,643.3l-12.6-7.3v9.7l12.6,7.3V643.3z M607.1,646c0,1.8-1.3,2.5-2.8,1.6c-1.5-0.9-2.8-3.1-2.8-4.8
					s1.3-2.5,2.8-1.6C605.8,642.1,607.1,644.3,607.1,646z"/>
			</g>
			<polygon class="st13" points="598.2,636 599.4,635.4 610.8,642 610.8,643.3 			"/>
			<path class="st12" d="M602.7,642.2c0,1.8,1.3,4,2.8,4.8c0.4,0.3,0.8,0.4,1.2,0.4c-0.5,0.7-1.4,0.8-2.4,0.2
				c-1.5-0.9-2.8-3.1-2.8-4.8c0-1.3,0.6-2,1.6-2C602.8,641.1,602.7,641.6,602.7,642.2z"/>
			<g>
				<path class="st2" d="M623.4,645.8V636l-12.6,7.3v9.7L623.4,645.8z M620.1,642.8c0,1.8-1.3,4-2.8,4.8c-1.5,0.9-2.8,0.2-2.8-1.6
					c0-1.8,1.3-4,2.8-4.8C618.8,640.3,620.1,641,620.1,642.8z"/>
			</g>
			<path class="st12" d="M617.3,647.7c-1,0.6-1.9,0.5-2.4-0.2c0.4,0,0.8-0.1,1.2-0.4c1.5-0.9,2.8-3.1,2.8-4.8c0-0.6-0.1-1.1-0.4-1.4
				c0.9,0,1.6,0.7,1.6,2C620.1,644.6,618.8,646.8,617.3,647.7z"/>
			<polygon class="st13" points="622.2,635.4 623.4,636 610.8,643.3 610.8,642 			"/>
		</g>
		<g>
			<g>
				<path class="st2" d="M785.9,552v-9.7l-12.6,7.3v9.7L785.9,552z M779.3,547.6c1.5-0.9,2.8-0.2,2.8,1.6s-1.3,4-2.8,4.8
					c-1.5,0.9-2.8,0.2-2.8-1.6C776.5,550.7,777.8,548.5,779.3,547.6z"/>
			</g>
			<path class="st12" d="M779.3,554.1c-1.1,0.6-2,0.5-2.5-0.3c0.4,0,0.8-0.1,1.3-0.4c1.5-0.9,2.8-3.1,2.8-4.8c0-0.5-0.1-1-0.3-1.3
				c0.9,0,1.5,0.7,1.5,2C782.1,551,780.9,553.2,779.3,554.1z"/>
			<polygon class="st13" points="783.5,542.2 783.5,543.6 773.3,549.5 773.3,559.2 772.1,558.5 772.1,548.8 			"/>
			<polygon class="st13" points="785.9,542.2 783.5,543.6 783.5,540.8 			"/>
		</g>
		<g>
			<path class="st5" d="M711.8,584.3l3.9,2.2c0.9,0.5,1.3,1.2,1.3,1.9c0,0.7-0.4,1.3-1.3,1.9c-1.8,1-4.7,1-6.4,0l-3.9-2.2
				L711.8,584.3z"/>
			<path class="st5" d="M709.2,590.2c1.8,1,4.7,1,6.4,0c0.9-0.5,1.3-1.2,1.3-1.9c0,0,0,2.8,0,3.5c0,0.7-0.4,1.3-1.3,1.9
				c-1.8,1-4.7,1-6.4,0l-3.9-2.2V588L709.2,590.2z"/>
		</g>
		<g>
			<path class="st5" d="M688.8,597.5l3.9,2.2c0.9,0.5,1.3,1.2,1.3,1.9c0,0.7-0.4,1.3-1.3,1.9c-1.8,1-4.7,1-6.4,0l-3.9-2.2
				L688.8,597.5z"/>
			<path class="st5" d="M686.3,603.4c1.8,1,4.7,1,6.4,0c0.9-0.5,1.3-1.2,1.3-1.9c0,0,0,2.8,0,3.5c0,0.7-0.4,1.3-1.3,1.9
				c-1.8,1-4.7,1-6.4,0l-3.9-2.2v-3.5L686.3,603.4z"/>
		</g>
		<g>
			<path class="st5" d="M688.8,411.1l3.9,2.2c0.9,0.5,1.3,1.2,1.3,1.9c0,0.7-0.4,1.3-1.3,1.9c-1.8,1-4.7,1-6.4,0l-3.9-2.2
				L688.8,411.1z"/>
			<path class="st5" d="M686.3,417c1.8,1,4.7,1,6.4,0c0.9-0.5,1.3-1.2,1.3-1.9c0,0,0,2.8,0,3.5c0,0.7-0.4,1.3-1.3,1.9
				c-1.8,1-4.7,1-6.4,0l-3.9-2.2v-3.5L686.3,417z"/>
		</g>
		<g>
			<path class="st5" d="M711.8,397.8l3.9,2.2c0.9,0.5,1.3,1.2,1.3,1.9c0,0.7-0.4,1.3-1.3,1.9c-1.8,1-4.7,1-6.4,0l-3.9-2.2
				L711.8,397.8z"/>
			<path class="st5" d="M709.2,403.8c1.8,1,4.7,1,6.4,0c0.9-0.5,1.3-1.2,1.3-1.9c0,0,0,2.8,0,3.5c0,0.7-0.4,1.3-1.3,1.9
				c-1.8,1-4.7,1-6.4,0l-3.9-2.2v-3.5L709.2,403.8z"/>
		</g>
		<g>
			<polygon class="st5" points="624.2,453.8 699.8,497.4 694.7,500.3 619.2,456.6 			"/>
			<polygon class="st16" points="699.8,497.4 699.8,673.7 694.7,676.6 694.7,500.3 			"/>
			<polygon class="st6" points="694.7,676.6 619.2,633 619.2,456.6 694.7,500.3 			"/>
			<g>
				<g>
					<polygon class="st5" points="624.6,517.9 689.3,555.2 689.3,541.7 624.6,504.3 					"/>
					<polygon class="st6" points="631.6,516.6 685.5,547.8 685.5,541.1 631.6,509.9 					"/>
					<polygon class="st5" points="624.6,504.3 689.3,541.7 685.5,541.1 631.6,509.9 					"/>
					<polygon class="st17" points="624.6,517.9 689.3,555.2 685.5,547.8 631.6,516.6 					"/>
				</g>
				<g>
					<polygon class="st5" points="624.6,591.5 689.3,628.9 689.3,615.3 624.6,578 					"/>
					<polygon class="st6" points="631.6,590.2 685.5,621.4 685.5,614.7 631.6,583.6 					"/>
					<polygon class="st5" points="624.6,578 689.3,615.3 685.5,614.7 631.6,583.6 					"/>
					<polygon class="st17" points="624.6,591.5 689.3,628.9 685.5,621.4 631.6,590.2 					"/>
				</g>
			</g>
			<g>
				<g>
					<path class="st5" d="M676.9,662.8L673,665c-0.9,0.5-1.3,1.2-1.3,1.9c0,0.7,0.4,1.3,1.3,1.9c1.8,1,4.7,1,6.4,0l3.9-2.2
						L676.9,662.8z"/>
					<path class="st5" d="M679.4,668.7c-1.8,1-4.7,1-6.4,0c-0.9-0.5-1.3-1.2-1.3-1.9c0,0,0,2.8,0,3.5c0,0.7,0.4,1.3,1.3,1.9
						c1.8,1,4.7,1,6.4,0l3.9-2.2v-3.5L679.4,668.7z"/>
				</g>
				<g>
					<path class="st18" d="M673.7,497.3c0,0,0,168.7,0,169.5c0,0.8,1.1,1.5,2.6,1.5c1.4,0,2.6-0.7,2.6-1.5c0-0.8,0-169.5,0-169.5
						H673.7z"/>
					<path class="st19" d="M676.2,498.8c-1.4,0-2.6-0.7-2.6-1.5c0-0.8,1.1-1.5,2.6-1.5c1.4,0,2.6,0.7,2.6,1.5
						S677.6,498.8,676.2,498.8z"/>
				</g>
				<g>
					<path class="st5" d="M676.9,489.9l-3.9,2.2c-0.9,0.5-1.3,1.2-1.3,1.9c0,0.7,0.4,1.3,1.3,1.9c1.8,1,4.7,1,6.4,0l3.9-2.2
						L676.9,489.9z"/>
					<path class="st5" d="M679.4,495.9c-1.8,1-4.7,1-6.4,0c-0.9-0.5-1.3-1.2-1.3-1.9c0,0,0,2.8,0,3.5c0,0.7,0.4,1.3,1.3,1.9
						c1.8,1,4.7,1,6.4,0l3.9-2.2v-3.5L679.4,495.9z"/>
					<path class="st18" d="M678,495.1c-1,0.6-2.6,0.6-3.6,0c-1-0.6-1-1.5,0-2.1c1-0.6,2.6-0.6,3.6,0C679,493.6,679,494.5,678,495.1z
						"/>
				</g>
				<g>
					<g>
						<polygon class="st19" points="681.1,609.5 676.6,607 676.6,600.9 681.1,603.5 						"/>
					</g>
					<path class="st20" d="M678.6,600L678.6,600c-0.3,0.5-1.1,0.9-2,1l0,0l4.4,2.6l1.8-1.1L678.6,600z"/>
					<polygon class="st21" points="681.1,603.5 681.1,609.5 682.9,608.5 682.9,602.4 					"/>
					<polygon class="st19" points="695.3,616.3 681.1,608.1 681.1,604.9 695.3,613.1 					"/>
					<polygon class="st21" points="695.3,613.1 695.3,616.3 697.1,615.3 697.1,612.1 					"/>
					<polygon class="st20" points="682.9,603.9 681.1,604.9 695.3,613.1 697.1,612.1 					"/>
				</g>
			</g>
		</g>
		<g>
			<polygon class="st5" points="775.4,366.5 850.9,410.1 845.9,413 770.3,369.4 			"/>
			<polygon class="st16" points="850.9,410.1 850.9,586.4 845.9,589.3 845.9,413 			"/>
			<polygon class="st6" points="845.9,589.3 770.3,545.7 770.3,369.4 845.9,413 			"/>
		</g>
		<g>
			<g>
				<polygon class="st22" points="623.4,478.4 623.4,491.5 625.8,490.1 625.8,477 				"/>
				<polygon class="st23" points="618.5,472.7 616,474.1 623.4,478.4 625.8,477 				"/>
				<polygon class="st24" points="623.4,491.5 616,487.3 616,474.1 623.4,478.4 				"/>
			</g>
			<g>
				<polygon class="st22" points="623.4,545.7 623.4,558.9 625.8,557.5 625.8,544.3 				"/>
				<polygon class="st23" points="618.5,540.1 616,541.5 623.4,545.7 625.8,544.3 				"/>
				<polygon class="st24" points="623.4,558.9 616,554.6 616,541.5 623.4,545.7 				"/>
			</g>
			<g>
				<polygon class="st22" points="623.4,613.1 623.4,626.3 625.8,624.9 625.8,611.7 				"/>
				<polygon class="st23" points="618.5,607.5 616,608.9 623.4,613.1 625.8,611.7 				"/>
				<polygon class="st24" points="623.4,626.3 616,622 616,608.9 623.4,613.1 				"/>
			</g>
		</g>
	</g>
</g>
</svg>
