<?xml version="1.0" encoding="utf-8"?>
<!-- Generator: Adobe Illustrator 23.0.5, SVG Export Plug-In . SVG Version: 6.00 Build 0)  -->
<svg version="1.1" xmlns="http://www.w3.org/2000/svg" xmlns:xlink="http://www.w3.org/1999/xlink" x="0px" y="0px"
	 viewBox="0 0 1000 1000" style="enable-background:new 0 0 1000 1000;" xml:space="preserve">
<style type="text/css">
	.st0{fill:#082C42;}
	.st1{opacity:0.2;}
	.st2{fill:#B3B3B3;}
	.st3{fill:#808080;}
	.st4{fill:#4D4D4D;}
	.st5{fill:#333333;}
	.st6{fill:#666666;}
	.st7{fill:#CCCCCC;}
	.st8{fill:#FFFFFF;}
	.st9{font-family:'Hind-Bold';}
	.st10{font-size:96.0107px;}
	.st11{font-family:'Hind-Regular';}
</style>
<g id="Bg">
</g>
<g id="Object">
	<circle class="st0" cx="500" cy="500" r="488.9"/>
	<circle class="st0" cx="500" cy="500" r="423.3"/>
	<path class="st1" d="M767.2,434.5c-11.7,2-23.4,4.1-35.1,6.1c-3.1,0.5-6.3,0.6-9.4,1.4c-10.9,2.8-20.8-0.3-30.6-4.9
		c-5.9-2.7-12.1-4.7-20.2-7.7c5.2,9.9,9.3,18.3,14,26.3c0.9,1.6,3.7,2.4,5.8,3c15.4,5.1,30.9,10,46.3,15.1c3.4,1.1,6.5,2.9,9.7,4.4
		c-0.1,0.7-0.3,1.4-0.4,2.1c-5.7-0.7-11.6-1-17.2-2.3c-14.8-3.3-29.5-6.7-44.1-10.6c-3.2-0.8-6.1-3.5-8.8-5.6
		c-2.2-1.8-3.9-4.1-6.4-5.8c3.8,12.3,5.3,25.1,17.1,34c10.5,7.9,19.2,18.2,28.7,27.4c-0.5,0.7-1,1.5-1.6,2.2c-2.2-1-4.7-1.5-6.5-2.9
		c-12-9.3-23.8-18.7-35.6-28.2c-1.8-1.5-2.9-3.9-4-6.1c-6.6-13.6-13.2-27.2-19.8-41c-6.4,0.1-7.8,2.3-6.7,8.7
		c10.3,61.4,21.2,122.7,29.8,184.4c8.3,59.6,11.1,119.7,9.7,179.9c-0.6,24.8-3.6,49.5-6.4,74.1c-1.1,9.8-6.1,11.3-12.6,4
		c-9.3-10.4-18.1-21.4-25.8-33.1c-20.5-30.9-39.5-62.9-52.5-97.7c-13.4-36.2-19.8-74.1-18.4-112.9c0.5-13.5,6-25.3,13.4-36.4
		c8.7-13,17-26.3,18.9-42.3c1.8-14.8,2.7-29.7,4.1-44.5c2.4-25,4.7-49.9,7.4-74.8c0.6-5-0.9-6.4-5.3-7.9c-8.7-3-17-7.1-25.5-10.7
		c0-0.1-0.3,0.6-0.1,1c10.6,18,8.1,36-0.5,53.8c-11.6,23.9-29.7,43-46.8,62.8c-50.9,59.2-114.7,101-183.5,135.9
		c-24.8,12.5-50,24-75.1,36c-1.6,0.7-3.3,1.2-6.2,2.2c2.7-6.2,4.9-11.3,7.2-16.3c26.2-57.7,54.8-114.1,91.7-165.7
		c32.7-45.8,73.5-83.9,118.3-117.7c12.7-9.5,26.7-16.9,43-18.8c11.4-1.3,21.8,1.2,32.2,7.3c-4.8-10.9-9.2-20.8-14.2-31.9
		c-5.7,0.5-12.6,1-19.5,1.6c-33.5,3.1-67,6.2-100.5,9.4c-13,1.3-24.9,6-36,13c-1,0.6-2,1.1-2.9,1.8c-24.5,20-52.8,19.9-82.3,17
		c-73.7-7.2-134.5-43.1-193.1-84.4c-5.1-3.6-9.7-8.2-13.8-12.9c-5-5.6-4.1-8.8,3.2-10.3c10.6-2.2,21.3-4.6,32.1-4.8
		c40.9-0.7,81.8-1.6,122.7-0.5c31.1,0.8,62.2,3.7,93.2,7.1c33,3.7,65.8,8.7,98.5,13.9c31.6,5.1,63.1,11.2,94.6,16.9
		c3.2,0.6,6.7,1.8,8.1-3.1c1.5-5-2.7-5-5.2-6.3c-7.2-3.7-14.4-7.7-22-10.5c-24.9-9.1-36.5-31.1-50.5-50.8c-0.3-0.4-0.2-1.2-0.5-3.4
		c3,2,5.4,3.1,7.1,4.9c8.1,8.2,16.6,16.1,24,24.9c5.2,6.2,11,10.3,18.8,12.1c4.3,1,8.5,2.7,12.8,4.1c0.1-1.1,0.3-1.8,0.2-1.9
		c-9.3-5.9-11.7-15.4-13.7-25.2c-2.9-14.4-6-28.7-9-43c-0.4-2-0.1-4.1,1.5-6.6c1.6,3.5,3.6,7,4.8,10.7c5,15,9.7,30.1,14.7,45
		c0.8,2.4,2.2,5.3,4.2,6.4c7.4,4.3,15.1,7.9,23.8,12.4c-0.4-2.4-0.6-3.7-0.9-5.1c-0.1-0.7-0.3-1.3-0.7-1.9
		c-13.2-22.2-11-45.7-5.8-69.5c1.4-6.2,2.7-12.5,4.1-18.7c0.8,0.1,1.6,0.2,2.5,0.3c0,8.4,0.4,16.8-0.1,25.1c-0.5,9-2,18-2.7,26.9
		c-0.2,1.9,0.3,4.1,1.3,5.7c6.4,10.1,12.9,20.2,19.6,30.1c0.9,1.4,3.1,2.9,4.6,2.7c7.4-0.7,14.7-2.7,22.1-2.6
		c7.1,0.1,14.2,2.2,21.9,3.5c-1.7-6.4-3.7-12.7-4.9-19.1c-4.5-23.4,3.2-39,24.1-50.3c1.4-0.8,2.7-2.3,3.3-3.8
		c4.8-10.3,11.8-15.5,21.2-14.7c10.5,0.8,17.6,6.4,20.9,16.5c0.4,1.2,0.9,2.3,3.2,3.9c4.3-11.8,9.2-23.4,12.5-35.4
		c1.2-4.4-0.9-10.3-3-14.9c-3.8-8.7-8.7-16.8-12.9-25.3c-0.9-1.9-0.5-4.5-0.7-6.7c2.1,1.2,4.2,2.3,6.2,3.5c0.5,0.3,0.7,1.1,1.1,1.7
		c21.6,37.9,19.5,39.4,4.5,74.3c-1.1,2.4-2.2,4.9-3.3,7.5c4.7,3.3,9.6,5.8,13.4,9.6c8.3,8.5,16.3,17.4,23.9,26.6
		c2.6,3.3,4.2,4.2,8.2,2.4c9.1-4,18.1-8.5,27.7-10.8c6.6-1.6,14.7-1.8,21,0.4c10.6,3.6,20.4,9.5,30.3,14.9c1.6,0.9,2.2,3.8,3.2,5.7
		c-2.2-0.1-4.7,0.5-6.4-0.3c-8.7-4.2-17.2-9-25.9-13.3c-7.7-3.8-15.6-3.9-23.6-0.6c-8.6,3.6-17.3,7.1-27.8,11.5
		c3.5,1.3,4.9,1.8,6.2,2.3c9.2,3.4,14.9,11.1,15.3,20.4c0.4,10.2-3.9,16.6-13.6,21.2c-1.7,0.8-3.8,2.1-4.4,3.6
		c-7.9,21.3-30.5,29.3-54.4,23.5c-5-1.2-9.9-2.9-14.6-4.3c0.9,9.3,2.1,18.6,2.6,27.9c0.2,3.8-0.1,7.9-1.5,11.3
		c-2.4,6,0,8.9,4.9,11.8c8.2,4.8,15.7,10.7,24,15.3c3.8,2.1,8.8,2.8,13.2,2.7c13.3-0.5,26.6-1.8,39.9-2.7c2.3-0.1,4.7,0.5,7,0.8
		C767.1,432.7,767.2,433.6,767.2,434.5z"/>
	<g>
		<path id="XMLID_85_" class="st2" d="M231.8,238.3c-0.1-1.6,0.3-2.6,1.9-3.5c9.6-5.4,19.1-11,28.6-16.5c11-6.4,22.1-12.8,33.1-19.2
			c11-6.4,22.1-12.8,33.1-19.2c13.1-7.6,26.2-15.3,39.3-22.9c8.2-4.7,16.4-9.4,24.6-14.2c1.4-0.8,2.4-0.3,3.6,0.4
			c9.6,5.5,19.2,11.1,28.7,16.6c14.8,8.6,29.6,17.2,44.4,25.8c21.7,12.6,43.4,25.3,65.1,37.9c19,11,38,22,57,33
			c21.7,12.6,43.4,25.3,65.1,37.9c19,11,38,22,57,33c16,9.3,32,18.6,48,27.9c1.2,0.7,1.7,1.5,1.6,2.8c-0.1,2.4,0,4.9,0.1,7.3
			c0.1,2.2,0.5,4.5-0.2,6.7c-0.7,0.4-1.4,0.7-2.2,1.1c-1.2-2.2-1.2-4.7-1.3-7c-0.1-3.7-0.1-3.7-3.2-2c-21,12.1-42,24.2-62.9,36.3
			c-26.7,15.4-53.3,30.8-79.9,46.2c-2.4,1.4-4.8,2.9-7.3,4.2c-1.8,0.9-2.5,2.3-2.5,4.3c0,2.1,0.4,4.3-0.4,6.4
			c-0.7,1.1-1.6,1.7-2.9,1.6c-2.7-1-5.1-2.7-7.6-4c-2-1.4-4.2-2.5-6.4-3.7c-0.6-0.3-1.2-0.6-1.7-0.9c-4.6-2.9-9.3-5.5-14-8.2
			c-3.5-2-7-4.1-10.6-6.1c-0.7-0.5-1.6-0.9-2.4-1.4c-4.7-2.8-9.3-5.6-14.1-8.1c-3.4-2.2-7.1-4.1-10.5-6.2c-1-0.7-2-1.2-3.1-1.7
			c-4.6-2.8-9.4-5.4-14-8.3c-3.8-1.9-7.3-4.2-11-6.3c-0.6-0.4-1.3-0.8-2-1.1c-4.6-2.6-9.1-5.4-13.7-7.9c-3.7-2.3-7.5-4.5-11.3-6.5
			c-0.7-0.4-1.3-0.9-2-1.2c-4.6-2.6-9.1-5.4-13.7-7.9c-3.8-2.2-7.5-4.4-11.3-6.6c-0.7-0.4-1.3-0.9-2-1.2c-4.6-2.6-9.1-5.4-13.8-7.9
			c-3.7-2.3-7.5-4.4-11.2-6.6c-0.8-0.4-1.6-0.9-2.4-1.4c-4.7-2.7-9.4-5.4-14-8.2c-3.4-1.8-6.6-3.9-9.9-5.7c-1-0.7-2-1.2-3.1-1.7
			c-4.6-2.8-9.4-5.4-14-8.3c-3.3-1.9-6.7-3.7-9.9-5.7c-1-0.7-2-1.2-3.1-1.7c-4.6-2.6-9.1-5.4-13.7-7.9c-3.7-2.3-7.5-4.3-11.2-6.6
			c-0.6-0.4-1.3-0.8-2-1.1c-4.6-2.7-9.1-5.3-13.7-7.9c-3.7-2.2-7.5-4.4-11.3-6.6c-0.8-0.5-1.5-1-2.4-1.4c-4.7-2.7-9.4-5.5-14.1-8.2
			c-3.5-2.1-7-4.2-10.6-6.2c-0.8-0.4-1.6-0.9-2.4-1.4c-4.6-2.8-9.4-5.5-14-8.2c-3.6-2-7.1-4.1-10.6-6.2c-0.8-0.5-1.6-0.9-2.4-1.4
			c-4.6-2.6-9-5.4-13.7-7.8c-1.2-0.8-2.5-1.5-3.7-2.3c-0.7-0.5-1.5-0.8-2.3-1.2c-1.4-0.7-2.8-1.6-4.1-2.4c-1.3-0.8-1.9-0.5-1.9,1
			c0,2.4,0,4.8,0,7.3c0,6.4,0,12.9,0,19.3c0,1.3,0.5,2.9-1.3,3.6c0-11.4-0.1-22.8-0.1-34.2C232.3,245.1,232.3,241.7,231.8,238.3z"/>
		<path id="XMLID_84_" class="st3" d="M602.7,461.5c0-2.1,0.2-4.2,0-6.2c-0.4-2.7,1-4,3.2-5.2c16.3-9.4,32.5-18.8,48.7-28.2
			c13-7.5,26.1-14.9,39.1-22.4c12.5-7.2,25-14.5,37.6-21.8c8.8-5.1,17.6-10.2,26.4-15.3c1.7-1,2.6-0.9,2.4,1.4
			c-0.4,3.2,0.7,6.3,0.5,9.5c0,30.9,0,61.9,0,92.8c0,0.2,0.1,0.4,0.1,0.6c0.4,2.5,0.2,5,0.2,7.5c0,13.8,0,27.6,0,41.3
			c0,2.8,0.1,5.6,0,8.4c-0.2,5.4,0.8,10.7,0.8,16.1c0,1.7-0.4,2.8-2.2,3.3c-2.8,0.8-5.1,2.6-7.6,4.1c-1.2,0.6-2.5,1-3.6,1.9
			c-26.3,15.3-52.8,30.5-79.2,45.7c-18.5,10.7-37,21.5-55.6,32.1c-0.9,0.5-1.8,0.9-2.7,1.5c-1.8,1.2-3.6,2.3-5.5,3.2
			c-1.3,0.6-2.4,0.6-2.3-1.3c-0.3-48.5,0-96.9-0.3-145.4c0-6.4-0.4-12.9-0.5-19.3C602.3,464.2,602.4,462.8,602.7,461.5z"/>
		<path id="XMLID_83_" class="st2" d="M610.7,627.8c2.1,2.2,1.9,3.7-0.7,5.2c-3.1,1.8-6.1,4.7-9.3,5c-3.3,0.3-6.2-3-9.2-4.7
			c-118.6-68.9-237.1-137.7-355.6-206.6c-0.9-0.5-1.7-1.3-2.8-1.1c-0.2-0.2-0.3-0.4-0.5-0.6c-0.9-2.4-0.2-4.8-0.4-7.3
			c-0.1-1.2,0.2-2.4-0.2-3.5c0-0.5-0.1-1.1-0.1-1.6c-0.1-0.3-0.1-0.5,0-0.8c1.3-2.1,3-2.2,5-1.1c0.8,0.4,1.6,0.9,2.4,1.4
			c0.8,0.5,1.6,0.9,2.4,1.3c1.5,1,3,1.9,4.6,2.8c4.5,2.5,8.9,5.2,13.4,7.7c1,0.7,2,1.2,3,1.8c3.6,2,7,4.2,10.6,6.1
			c4.4,2.6,8.9,5.2,13.4,7.8c1,0.7,2,1.2,3.1,1.7c3.5,2.2,7.1,4.1,10.6,6.2c4.5,2.6,9,5.1,13.3,7.8c1,0.7,2,1.2,3.1,1.7
			c3.3,1.9,6.6,3.9,9.9,5.7c4.8,2.9,9.6,5.7,14.4,8.4c0.9,0.5,1.8,1.1,2.7,1.6c3.7,2.1,7.2,4.3,10.9,6.3c4.4,2.6,8.9,5.2,13.4,7.8
			c0.9,0.5,1.7,1.1,2.7,1.6c3.7,2,7.2,4.3,11,6.3c4.4,2.6,8.9,5.2,13.4,7.8c1,0.6,2.1,1.1,3.1,1.8c3.6,2,7,4.2,10.6,6.1
			c4.4,2.7,8.9,5.2,13.4,7.8c1,0.7,2,1.2,3.1,1.7c3.5,2.2,7.1,4.1,10.6,6.2c4.4,2.6,8.9,5.1,13.4,7.8c1,0.7,2,1.2,3.1,1.7
			c3.5,2.1,7.1,4.1,10.6,6.2c4.8,2.7,9.7,5.5,14.4,8.3c0.6,0.4,1.3,0.8,2,1.2c3.7,2.1,7.2,4.3,10.9,6.3c4.6,2.8,9.3,5.5,14.1,8.2
			c0.7,0.4,1.3,0.9,2,1.2c3.7,2,7.2,4.3,10.9,6.3c4.4,2.7,8.9,5.2,13.4,7.8c0.8,0.5,1.6,0.9,2.4,1.3c3.6,2.4,7.5,4.4,11.2,6.6
			c4.5,2.6,8.9,5.2,13.4,7.8c1,0.7,2,1.2,3,1.8c3.6,2,7,4.2,10.6,6.1c4.4,2.6,8.9,5.1,13.3,7.8c0.9,0.7,2,1.2,3,1.7c1.6,1,3.3,2,5,3
			c2.7,1.5,5.4,3.1,8.2,4.6c4.4,2.1,2.9,5.9,2.7,9.3c2.1,0.6,3.1-1.4,4.8-1.9C609,629.1,609.8,628.3,610.7,627.8z"/>
		<path id="XMLID_82_" class="st4" d="M239.1,412.7c-0.6-0.3-1.2-0.5-1.7-0.8c-1.9-1.5-3.8-1.5-5.6,0.2c-0.5-0.6-0.3-1.2-0.3-1.9
			c0-26.5,0-53,0-79.6c0-0.4,0-0.7,0.1-1.1c0.1-10.3,0.1-20.5,0.2-30.8c0-5.3,0.1-10.6,0.1-15.9c0.7-0.9,0.4-2,0.4-3
			c0-9.2,0-18.3,0-27.5c0-0.9-0.3-1.8,0.3-2.9c2.7,1,5,2.9,7.5,4.2c0.9,1.1,0.9,2.4,0.9,3.7c0,13.5,0.2,27-0.1,40.4
			c-0.8,35.4-0.1,70.7-0.3,106.1c0,2.2-0.2,4.3-0.2,6.4C240.5,411.3,240.5,412.5,239.1,412.7z"/>
		<path id="XMLID_81_" class="st2" d="M762.3,545.2c-3.4,1.9-6.7,3.7-10.1,5.6c-0.8-0.9-1-2.1-1.1-3.3c2.2-2.8,5.4-4,8.5-5.1
			c0.8-0.3,1.5,0,1.4-1.3c-0.8-8.4-0.3-16.7-0.3-25.1c0.2-0.1,0.4,0,0.4,0.3c0,4.2-0.1,8.4-0.1,12.6c0,0.5,0,1.4,0.3,1.6
			c3.2,1.7,1.9,4.7,2.1,7.2c0.1,1.8-0.1,3.6,0.1,5.3C763.6,544,763,544.6,762.3,545.2z"/>
		<path id="XMLID_80_" class="st4" d="M259.3,424.4c-4.6-2.4-9.1-5-13.5-7.9c-1.6-2.9-1.4-6.2-1.5-9.3c-0.2-6.6-0.1-13.3-0.1-19.9
			c0-41.7,0-83.4,0-125.1c0-1.8-0.5-3.8,1-5.3c4.9,2.2,9.4,5.2,14,7.9c1.2,1.7,1,3.7,1,5.7c0,40-0.1,79.9,0.1,119.9
			c0,10,0.6,20,0.4,30C260.9,421.9,261.4,423.7,259.3,424.4z"/>
		<path id="XMLID_79_" class="st4" d="M286.3,440.2c-4.5-2.6-9-5.3-13.5-7.9c-0.7-1-1-2.2-1-3.5c0-0.4,0-0.7,0-1.1
			c-0.4-50.1-0.7-100.3-0.5-150.4c0-1.7-0.4-3.6,1-5.1c4.7,2.8,9.4,5.6,14.1,8.3c1.1,1.7,1,3.6,1,5.4c0,26.2-0.4,52.4,0.1,78.6
			c0.5,23.7,0.2,47.3,0.4,71C287.9,437.2,288.6,439.2,286.3,440.2z"/>
		<path id="XMLID_78_" class="st4" d="M313.3,455.9c-4.5-2.6-9-5.3-13.5-7.9c-1.2-1.6-1-3.6-1-5.4c0-32.6,0.3-65.1-0.1-97.7
			c-0.2-17.4-0.3-34.8-0.4-52.2c0-1.6-0.4-3.4,1-4.8c4.7,2.8,9.4,5.6,14.1,8.4c1.1,1.3,1,2.8,1,4.3c0,5.5-0.1,11,0,16.6
			c1,44.2,0.3,88.3,0.5,132.5c0,1.3,0.1,2.6-0.1,3.9C314.6,454.5,314.8,455.7,313.3,455.9z"/>
		<path id="XMLID_77_" class="st4" d="M421.8,518.9c-4.6-2.5-9.1-5-13.5-7.9c-1.2-1.7-1-3.6-1-5.4c0-30.2,0.4-60.5-0.1-90.7
			c-0.3-19.7-0.3-39.5-0.4-59.2c0-1.6-0.4-3.4,1-4.8c4.7,2.8,9.4,5.6,14.1,8.3c0.7,1.1,1,2.4,1,3.7c0,0.3,0,0.6,0,0.8
			c-0.3,25.7,0.5,51.5,0.4,77.2c-0.1,24.3,0.3,48.7,0.1,73C423.3,515.7,424.1,517.8,421.8,518.9z"/>
		<path id="XMLID_76_" class="st4" d="M367.8,487.4c-4.7-2.3-9.1-5-13.5-7.9c-1-1.2-1-2.6-1-4c0.4-19.1-0.7-38.1-0.6-57.2
			c0.2-31.1,0-62.1,0.1-93.2c0-1.8-0.5-3.8,1-5.3c4.9,2.3,9.4,5.3,14,8c1.2,1.6,1,3.6,1,5.4c0,35.7-0.2,71.3,0.1,107
			c0.1,14.6,0.3,29.2,0.3,43.8C369.2,485.2,369.7,486.8,367.8,487.4z"/>
		<path id="XMLID_75_" class="st4" d="M394.8,503.1c-4.6-2.4-9.1-5-13.5-7.9c-1.3-1.5-1-3.4-1-5.1c0-27.3,0.4-54.7-0.1-82
			c-0.5-22.6-0.2-45.3-0.4-67.9c0-1.7-0.4-3.6,1-5.1c4.7,2.8,9.4,5.6,14.1,8.3c0.8,1.1,1,2.4,1,3.7c0,0.4,0,0.7,0,1.1
			c-0.2,40.4,0.7,80.9,0.4,121.3c-0.1,9.8,0.3,19.7,0.1,29.5C396.3,500.6,396.8,502.4,394.8,503.1z"/>
		<path id="XMLID_74_" class="st4" d="M476.8,550.8c-4.9-2.8-9.7-5.6-14.6-8.4c-0.7-2.9-1-5.9-1-8.9c0-48.6,0-97.3,0-145.9
			c0-1.6-0.4-3.4,1-4.8c4.9,2.3,9.3,5.3,14,7.9c1,1.3,0.9,2.8,0.9,4.3c0.2,47.5,0.2,95,0.1,142.6c0,3.4,0.4,6.7,0.4,10.1
			C477.7,548.8,477.8,550,476.8,550.8z"/>
		<path id="XMLID_73_" class="st4" d="M340.8,471.7c-5.1-2.4-9.9-5.4-14.7-8.4c-0.4-1.2-0.4-2.4-0.4-3.6c0-50,0-99.9,0-149.9
			c0-1.9-0.5-4,1-5.6c4.9,2.3,9.4,5.2,14,7.9c0.9,1.2,0.8,2.6,0.9,4c0.3,31.5,0.1,63.1,0.1,94.6c0,18.7,0,37.4,0,56.2
			C341.8,468.5,342.2,470.3,340.8,471.7z"/>
		<path id="XMLID_72_" class="st4" d="M448.7,534.6c-4.5-2.6-9-5.3-13.5-7.9c-0.9-1.3-1-2.8-1-4.3c0-50.4,0-100.7,0-151.1
			c0-1.5-0.2-3,1-4.2c4.7,2.6,9.4,5.3,14,7.9c0.6,0.9,0.9,1.8,0.9,2.9c0,0.4,0,0.7,0,1.1c-0.1,50,0.3,100.1,0.2,150.1
			c0,1.1,0.1,2.3-0.1,3.4C450,533.4,450,534.4,448.7,534.6z"/>
		<path id="XMLID_71_" class="st4" d="M557.2,597.5c-4.6-2.4-9.1-5-13.5-7.9c-1.3-1.6-1-3.6-1-5.4c0-42.3,0-84.6,0-127
			c0-7.7,0-15.4,0-23c0-1.5-0.2-3,1-4.2c4.8,2.6,9.6,5.2,14.1,8.4c1.1,1.3,0.8,2.8,0.8,4.3c0,44.5,0,88.9,0,133.4
			c0,5.9,0.2,11.8,0.1,17.7C558.7,595.2,559.1,596.9,557.2,597.5z"/>
		<path id="XMLID_70_" class="st4" d="M584.2,613.3c-4.5-2.6-9-5.2-13.5-7.9c-0.9-1.3-1-2.8-1-4.3c0-50.5,0-100.9,0-151.4
			c0-1.4-0.2-2.8,1-4c4.8,2.6,9.7,5.1,14.1,8.4c1.1,1.3,0.8,2.8,0.8,4.3c0,33.3-0.1,66.6,0.1,100c0.1,16.8,0.1,33.5,0.1,50.3
			C585.7,610.3,586.4,612.3,584.2,613.3z"/>
		<path id="XMLID_69_" class="st4" d="M503.8,566.6c-4.8-2.6-9.6-5.2-14.1-8.3c-0.6-0.8-0.9-1.6-0.9-2.6c0-0.6,0-1.1,0-1.7
			c-0.2-50.2-0.9-100.4-0.5-150.7c0-1.6-0.4-3.4,1-4.8c4.9,2.3,9.3,5.3,14,7.9c0.9,1.2,0.8,2.6,0.9,4c0.3,32.4-0.2,64.8,0.2,97.1
			c0.2,18.4,0.2,36.9,0.3,55.3C504.7,564.2,505,565.5,503.8,566.6z"/>
		<path id="XMLID_68_" class="st4" d="M530.2,581.8c-4.7-2.3-9.1-5-13.5-7.8c-1.3-1.6-1-3.6-1-5.4c0-39.1,0.1-78.2-0.1-117.4
			c-0.1-10.9-0.5-21.9-0.4-32.8c0-1.6-0.3-3.2,1-4.5c4.7,2.8,9.4,5.6,14.1,8.3c0.8,1.1,1,2.4,1,3.7c0,0.3,0,0.6,0,0.8
			c0.5,50.4,0.4,100.9,0.4,151.3C531.6,579.4,532.2,581.1,530.2,581.8z"/>
		<path id="XMLID_67_" class="st3" d="M693.8,330c-2.3,2.3-5.3,3.5-8,5.1c-16.7,9.8-33.6,19.5-50.4,29.2c-13.9,8-27.8,16-41.7,24
			c-11.8,6.8-23.6,13.6-35.4,20.5c-2,1.2-3.8,1.9-6.1,0.2c-2.7-2-5.7-3.5-8.6-5.2c1.3-2,3.5-2.7,5.4-3.8c22.5-13,45-26,67.6-39
			c21.1-12.1,42.1-24.4,63.2-36.5c1.1-0.7,2.3-1.3,3.7-1.1c3.4,1.1,6.2,3.4,9.3,5.1C693.5,328.7,694,329.2,693.8,330z"/>
		<path id="XMLID_66_" class="st3" d="M666.8,314.2c-5.7,4-11.8,7.1-17.8,10.6c-11.3,6.7-22.8,13.2-34.2,19.7
			c-11.6,6.7-23.3,13.4-34.9,20.1c-11.4,6.6-22.8,13.1-34.2,19.7c-5.3,3.1-10.7,6.2-16,9.3c-1.4,0.8-2.5,0.8-3.8-0.1
			c-3-2-6.2-3.8-9.3-5.7c0.2-1.1,1.2-1.4,2-1.8c33-19,66-38.1,99-57.1c11.2-6.4,22.4-12.9,33.5-19.4c1.7-1,3.3-2.2,5.4-2
			c3.3,1.3,6.2,3.4,9.2,5.2C666.4,313,667,313.4,666.8,314.2z"/>
		<path id="XMLID_65_" class="st3" d="M721.3,345.7c-12.7,7.4-25.5,14.8-38.3,22.2c-12.7,7.3-25.4,14.6-38.1,21.9
			c-12.6,7.3-25.2,14.6-37.8,21.9c-7.8,4.5-15.5,8.9-23.3,13.4c-1.2,0.7-2.2,0.8-3.4,0c-3.3-2-6.6-3.9-9.9-5.8
			c0.4-0.9,1.3-1.4,2.1-1.8c29.8-17.1,59.5-34.3,89.2-51.5c14.7-8.5,29.5-17,44.2-25.6c1.4-0.8,2.7-1.7,4.4-1.5
			c3.7,1.3,6.8,3.6,10.2,5.6C721.2,344.8,721.5,345.2,721.3,345.7z"/>
		<path id="XMLID_64_" class="st3" d="M639.8,298.5c-9.1,5.3-18.2,10.6-27.3,15.9c-11.4,6.6-22.8,13.1-34.2,19.7
			c-11.7,6.8-23.4,13.6-35.1,20.3c-13.1,7.6-26.2,15.1-39.2,22.7c-2.2,1.3-4,1.6-6.3-0.1c-2.6-1.9-5.6-3.3-8.4-4.9
			c0.5-0.9,1.4-1.2,2.2-1.7c31.3-18.1,62.7-36.2,94-54.3c13.4-7.8,26.9-15.5,40.3-23.3c1.1-0.6,2.1-1.3,3.4-1.2
			c3.7,1.3,6.9,3.6,10.2,5.6C639.7,297.6,640,298,639.8,298.5z"/>
		<path id="XMLID_63_" class="st3" d="M612.8,282.8c-12.7,7.4-25.5,14.8-38.3,22.2c-12.7,7.3-25.4,14.6-38.1,21.9
			c-12.6,7.3-25.2,14.6-37.8,21.9c-7.8,4.5-15.5,8.9-23.3,13.4c-1.2,0.7-2.2,0.8-3.4,0c-3.3-2-6.6-3.9-9.9-5.8
			c2.3-2.1,5.1-3.4,7.7-5c22.4-12.9,44.7-25.8,67.1-38.7c20.5-11.8,41-23.7,61.5-35.5c1.1-0.6,2.2-1.5,3.6-1.2
			c3.8,1.2,6.8,3.6,10.2,5.6C612.8,281.9,613,282.3,612.8,282.8z"/>
		<path id="XMLID_62_" class="st3" d="M585.3,267c-6.9,4.8-14.4,8.5-21.6,12.8c-12.7,7.5-25.5,14.8-38.3,22.1
			c-11.6,6.7-23.3,13.4-34.9,20.1c-11.4,6.6-22.8,13.2-34.2,19.7c-2.9,1.7-5.8,3.4-8.7,5c-0.7,0.4-1.3,0.5-2.1,0
			c-3.4-2.1-6.9-4.1-10.3-6.1c1.8-2.1,4.4-3.1,6.8-4.4c42-24.2,83.9-48.5,125.9-72.6c2.3-1.3,4.3-3.4,7.3-3.4
			c3.4,1.1,6.2,3.4,9.3,5.1C585.1,265.7,585.5,266.2,585.3,267z"/>
		<path id="XMLID_61_" class="st3" d="M531.4,235.6c-6.3,3.7-12.7,7.5-19,11.2c-11.4,6.6-22.8,13.1-34.2,19.7
			c-11.6,6.7-23.3,13.5-34.9,20.2c-16.4,9.5-32.9,18.9-49.3,28.4c-1.2,0.7-2,0.6-3,0c-3.4-2-6.8-3.9-10.1-5.9
			c4.3-3.1,8.9-5.5,13.5-8.1c23.9-13.8,47.8-27.6,71.8-41.4c17.1-9.9,34.2-19.7,51.3-29.7c1.1-0.6,2.1-1.2,3.4-1.2
			c3.8,1.2,7.1,3.5,10.4,5.8C531.4,234.8,531.5,235.2,531.4,235.6z"/>
		<path id="XMLID_60_" class="st5" d="M543.7,430.1c0,53.2,0,106.4,0,159.6c-3.9-2-7.8-4-11.3-6.7c-1.1-1.3-0.8-2.8-0.8-4.3
			c0-38.2,0.1-76.4-0.1-114.6c0-12-0.1-24-0.1-35.9c0-1.5-0.6-3.5,1.5-4.3C536.6,425.9,540.2,428,543.7,430.1z"/>
		<path id="XMLID_59_" class="st3" d="M558.3,251.3c-6.7,3.9-13.3,7.9-20,11.7c-11.4,6.6-22.8,13.2-34.2,19.7
			c-11.6,6.7-23.3,13.4-34.9,20.1c-11.4,6.6-22.8,13.1-34.2,19.7c-4.8,2.8-9.7,5.5-14.5,8.4c-0.9,0.5-1.5,0.5-2.3,0.1
			c-3.3-2-6.7-4.1-10-6.1c1.7-2.1,4.2-3,6.5-4.3c21.1-12.2,42.3-24.4,63.4-36.6c22.3-12.8,44.5-25.7,66.8-38.6c1-0.6,2-1.1,3.2-0.9
			c3.3,1.3,6.2,3.3,9.2,5.1C558,250,558.5,250.5,558.3,251.3z"/>
		<path id="XMLID_58_" class="st5" d="M570.7,445.8c0,53.2,0,106.4,0,159.6c-3.6-2.1-7.1-4.1-10.7-6.2c-0.8-1.3-0.9-2.8-1-4.3
			c-0.8-50.6-0.2-101.2-0.4-151.9c0-1.3-0.5-2.9,1.4-3.5C563.6,441.6,567.1,443.7,570.7,445.8z"/>
		<path id="XMLID_57_" class="st3" d="M504.4,219.8c-12.8,7.4-25.5,14.8-38.3,22.2c-12.7,7.3-25.4,14.6-38.1,21.9
			c-12.6,7.3-25.2,14.6-37.8,21.9c-7.8,4.5-15.5,8.9-23.3,13.4c-1,0.6-2,0.9-3.1,0.2c-3.3-2-6.7-3.9-10.1-5.9
			c2.8-2.5,6.3-3.9,9.5-5.8c28.5-16.5,57-32.9,85.5-49.4c13.9-8.1,27.8-16.1,41.8-24.1c1-0.6,2-1.1,3.2-1c3.7,1.1,6.7,3.4,10,5.3
			C504.1,218.8,504.6,219.2,504.4,219.8z"/>
		<path id="XMLID_56_" class="st5" d="M516.2,413.8c0.8,53.4,0.6,106.7,0.6,160.1c-3.7-2.1-7.5-4.2-11.2-6.3
			c-0.6-0.9-0.9-1.8-0.9-2.9c0-0.6,0-1.1,0-1.7c0-47.3-0.3-94.7-0.1-142c0-3.5-0.6-6.9-0.4-10.4c0.1-1.1-0.1-2.3,0.9-3.1
			C508.7,409.7,512.4,411.8,516.2,413.8z"/>
		<path id="XMLID_55_" class="st3" d="M476.8,204.1c-6.1,4.2-12.7,7.5-19,11.2c-12.6,7.4-25.3,14.7-38,22
			c-11.6,6.7-23.3,13.4-34.9,20.1c-10.1,5.8-20.2,11.7-30.3,17.5c-5.1,2.9-10.2,5.9-15.2,8.9c-0.7,0.4-1.4,0.7-2.3,0.1
			c-3.4-2.1-6.9-4.1-10.3-6.1c3.8-3,8.2-5.1,12.4-7.5c22.6-13.1,45.2-26.1,67.7-39.1c18.5-10.7,37.1-21.4,55.6-32.1
			c1.3-0.7,2.6-1.6,4.1-1.6c3.4,1.1,6.3,3.2,9.3,5C476.6,202.8,477.1,203.3,476.8,204.1z"/>
		<path id="XMLID_54_" class="st5" d="M435.3,367.1c0,53.2,0,106.4,0,159.6c-3.6-2.1-7.1-4.1-10.7-6.2c-0.7-1.1-1-2.4-1-3.7
			c0-0.4,0-0.7,0-1.1c0.2-34.6-0.6-69.2-0.5-103.9c0-15.5,0-31.1-0.1-46.6c0-1.6-0.4-3.4,1-4.8C427.8,362.6,431.5,364.9,435.3,367.1
			z"/>
		<path id="XMLID_53_" class="st5" d="M380.7,335.2c-0.1,53.4,1,106.7,0.6,160.1c-3.9-1.7-7.4-4.3-11.2-6.3
			c-0.9-1.1-0.9-2.4-0.9-3.7c-0.2-50.3-0.2-100.6-0.1-151c0-1.7-0.8-3.8,1.5-4.9C374,331.3,377.4,333.2,380.7,335.2z"/>
		<path id="XMLID_52_" class="st5" d="M489.2,398.5c0,34.8-0.4,69.7,0.1,104.5c0.3,18.4,0.1,36.8,0.4,55.3c-4-1.7-7.5-4.2-11.2-6.3
			c-1.7-3.3-0.9-6.8-0.9-10.2c-0.1-33,0.1-66.1-0.1-99.1c-0.1-15.7-0.3-31.4-0.3-47.1c0-1.3-0.3-2.7,0.9-3.7
			C481.8,393.9,485.7,395.9,489.2,398.5z"/>
		<path id="XMLID_51_" class="st3" d="M449.9,188.4c-9.4,5.4-18.7,10.9-28.1,16.3c-12.7,7.3-25.4,14.7-38.1,22
			c-11.6,6.7-23.3,13.4-34.9,20.1c-11.4,6.6-22.8,13.1-34.1,19.8c-2.5,1.5-4.5,2-7,0.2c-2.5-1.8-5.2-3.2-7.9-4.8
			c0.5-1,1.6-1.3,2.4-1.8c33.9-19.6,67.8-39.2,101.8-58.8c10.8-6.2,21.5-12.4,32.3-18.7c1-0.6,2.1-1.3,3.4-1.1
			c3.3,1.3,6.2,3.4,9.3,5.1C449.7,187.1,450.1,187.6,449.9,188.4z"/>
		<path id="XMLID_50_" class="st5" d="M407.7,350.9c0.1,53.4,0.9,106.7,0.6,160.1c-3.6-2.1-7.1-4.1-10.7-6.2c-0.8-1.3-0.9-2.8-1-4.3
			c-0.3-18-0.5-35.9-0.4-53.9c0.1-32.2-0.3-64.4-0.1-96.6c0-1.7-0.8-3.8,1.5-4.9C401,347,404.3,348.9,407.7,350.9z"/>
		<path id="XMLID_49_" class="st5" d="M462.2,382.8c0,50.9,0,101.7,0,152.6c0,2.4,1.6,4.7,0,7.1c-3.6-2.1-7.1-4.1-10.7-6.2
			c-1.2-1.7-1-3.6-1-5.4c0-24.7,0.3-49.4-0.1-74.1c-0.4-25.5-0.1-51.1-0.3-76.6c0-1.4-0.4-2.9,0.9-4
			C454.8,378.4,458.5,380.6,462.2,382.8z"/>
		<path id="XMLID_48_" class="st3" d="M422.9,172.6c-11.7,6.8-23.4,13.5-35.2,20.3c-11.6,6.7-23.3,13.4-34.9,20.1
			c-11.4,6.6-22.8,13.2-34.2,19.7c-11.2,6.5-22.5,13-33.7,19.5c-0.9,0.6-1.7,0.4-2.6-0.1c-3.4-2-6.7-3.9-10.1-5.9
			c6.1-4,12.6-7.4,18.9-11.1c22.4-12.9,44.7-25.9,67.1-38.8c17-9.8,34-19.7,51.1-29.4c1.1-0.6,2.1-1.3,3.4-1.1
			c3.3,1.2,6.2,3.4,9.2,5.2C422.5,171.4,423.1,171.8,422.9,172.6z"/>
		<path id="XMLID_47_" class="st5" d="M353.8,319.8c0,41.1-0.3,82.2,0.1,123.3c0.1,12.1,0.1,24.3,0.4,36.4
			c-3.9-1.7-7.5-4.2-11.2-6.3c-1.3-1.7-1-3.7-1-5.7c0-46.3,0-92.6,0-138.9c0-4.1-0.6-8.2-0.4-12.3c0-1.1-0.1-2.3,0.9-3.1
			C346.4,315.2,350.3,317.3,353.8,319.8z"/>
		<path id="XMLID_46_" class="st5" d="M326.8,304.1c0,51.8,0,103.6,0,155.4c0,1.3,0.5,2.6-0.6,3.7c-3.3-1.9-6.7-3.8-10-5.7
			c-1.2-1.6-1-3.6-1-5.4c0-35.4,0.2-70.8-0.1-106.1c-0.1-14.6-0.5-29.2-0.5-43.8c0-1.6-0.4-3.4,1-4.8
			C319.4,299.5,323.3,301.6,326.8,304.1z"/>
		<path id="XMLID_45_" class="st5" d="M299.3,287.9c0.3,53.4,0.8,106.7,0.6,160.1c-3.6-2.1-7.1-4.1-10.7-6.2c-1.2-1.7-1-3.6-1-5.4
			c0-24.9,0.5-49.8-0.1-74.7c-0.6-25-0.2-50-0.4-74.9c0-1.7-0.4-3.6,1-5.1C292.2,283.8,295.7,285.8,299.3,287.9z"/>
		<path id="XMLID_44_" class="st5" d="M272.3,272.2c-0.2,53.4,0.3,106.7,0.6,160.1c-3.7-1.8-7.2-4-10.7-6.2c-0.7-1.1-1-2.4-1-3.7
			c0-0.3,0-0.6,0-0.8c-0.2-50.1-0.9-100.1-0.5-150.2c0-1.8-0.5-3.8,1-5.3C265.2,268.1,268.7,270.1,272.3,272.2z"/>
		<path id="XMLID_43_" class="st4" d="M599.9,622.3c-2.8-1.2-5.4-2.8-7.9-4.5c-1.2-1.5-1.1-3.2-0.8-4.8c0.4-2.5,0.4-5,0.4-7.6
			c0-47.1,0-94.1,0-141.2c0-1.9-0.5-4,1-5.6c2.6,1,4.9,2.6,7.3,4c1.7,1,1.5,2.7,1.5,4.2c0.1,7.2,0,14.4,0,21.6
			c0,12.1,0.3,24.2-0.1,36.2c-0.9,31.1-0.3,62.2-0.5,93.3C600.9,619.5,601.1,621.1,599.9,622.3z"/>
		<path id="XMLID_42_" class="st4" d="M422.9,172.6c-3.2-2.4-6.8-4.1-10.1-6.2c-1-0.5-2.5-0.1-2.8-1.7c-4.7-2.6-9.3-5.3-14-8
			c-0.7-1.1-1.3-2.2,0.5-2.8c10.4,6,20.7,11.9,31.1,17.9c16,9.3,32,18.5,48,27.8c13.1,7.6,26.2,15.2,39.2,22.8
			c14.6,8.5,29.3,17,43.9,25.5c14.4,8.3,28.8,16.7,43.1,25.1c14.6,8.5,29.3,17,43.9,25.5c14.4,8.3,28.8,16.7,43.1,25.1
			c14.7,8.5,29.4,17.1,44.1,25.6c2.7,1.6,5.5,3.2,8.2,4.8c1.9,1,1.2,1.7-0.3,2.3c-1.7,0.8-2.8-0.4-4.1-1c-0.7-0.4-1.2-1-1.6-1.8
			c-4.7-2.6-9.3-5.3-14-7.9c-3.6-2.1-7.1-4.1-10.7-6.2c-0.7-0.5-1.8-0.2-2.3-1.1c-4.6-3.3-9.4-6.1-14.6-8.5
			c-3.1-2.5-6.7-4.2-10.1-6.2c-0.7-0.5-1.8-0.2-2.3-1.1c-4.6-3.2-9.5-6.1-14.6-8.4c-3.1-2.4-6.8-4.1-10.1-6.2
			c-1-0.5-2.5-0.1-2.8-1.7c-4.7-2.6-9.2-5.6-14-7.9c-3.4-2.3-6.9-4.5-10.7-6.2c-0.9-0.4-2-0.5-2.3-1.6c-4.7-2.6-9.3-5.3-14-7.9
			c-3.6-2.1-7.1-4.1-10.7-6.2c-0.7-0.5-1.8-0.2-2.3-1.1c-4.5-3.4-9.5-6-14.6-8.5c-3.1-2.4-6.7-4.2-10.1-6.2
			c-0.9-0.6-2.4-0.2-2.8-1.7c-4.7-2.7-9.1-5.8-14.1-7.9c-3.1-2.5-6.8-4.1-10.1-6.1c-1-0.5-2.5-0.1-2.8-1.7
			c-4.7-2.6-9.1-5.7-14.1-7.9c-3.4-2.3-6.9-4.4-10.7-6.2c-0.9-0.4-2-0.4-2.3-1.6c-4.7-2.6-9.3-5.3-14-7.9c-3.4-2.4-7-4.3-10.7-6.2
			c-0.7-0.5-1.8-0.1-2.3-1.1c-4.5-3.4-9.4-6.2-14.6-8.5c-3-2.6-6.7-4.1-10.1-6.1c-1-0.5-2.4-0.2-2.8-1.7c-4.6-2.7-9.1-5.8-14-7.9
			c-3.1-2.6-6.8-4-10.1-6.2c-0.9-0.6-2.4-0.3-2.8-1.7C432.3,177.9,427.8,174.8,422.9,172.6z"/>
		<path id="XMLID_41_" class="st5" d="M592.7,458.6c0,35.1,0,70.2-0.1,105.3c0,8.1,0,16.3,0,24.4c0,9.8,0.2,19.6-0.6,29.4
			c-1.7-1-3.4-1.9-5.1-2.9c-0.7-1.1-1-2.4-1-3.7c0-0.3,0-0.6,0-0.8c-0.2-50.6-0.6-101.2-0.4-151.9c0-1.3-0.3-2.7,0.9-3.7
			C588.5,456.1,590.8,456.9,592.7,458.6z"/>
		<path id="XMLID_40_" class="st6" d="M599.9,622.3c0-12.8,0.1-25.6,0-38.5c-0.2-39.1,1-78.2,0.6-117.3c0-1.3,0.2-2.6-0.6-3.8
			c1.2,0.2,1.9-0.6,2.8-1.2c0.9,0.8,0.6,1.9,0.6,2.9c1.1,54.4,0.3,108.9,0.5,163.4c0,1.2,0.5,2.5-0.5,3.5c0-0.6-0.1-1.3,0-1.9
			C603.8,626.2,602.9,623.7,599.9,622.3z"/>
		<path id="XMLID_39_" class="st3" d="M737,354.7c1.4,0.4,2.3,1.8,3.9,1.7c-9.8,5.7-19.6,11.5-29.5,17.2
			c-11,6.4-22.1,12.8-33.2,19.2c-12.4,7.2-24.9,14.4-37.3,21.6c-11.7,6.8-23.4,13.5-35,20.5c-3.1,1.8-5.6,2.7-8.4,0.1
			c2.7-2.7,6.2-4.1,9.4-6c30-17.3,59.9-34.7,89.9-51.9c12.2-7,24.4-14.2,36.7-21.2C734.8,355.4,735.8,354.9,737,354.7z"/>
		<path id="XMLID_38_" class="st5" d="M245.4,256.9c0,34.7,0,69.4,0,104.2c0,14.2,0.1,28.5-0.1,42.7c0,4.3,0.8,8.5,0.6,12.8
			c-1.7-0.7-3.3-1.4-4.5-2.8c-1.3-1.8-0.9-3.8-0.7-5.7c0.2-2.3,0.3-4.7,0.3-7c0-32.2-0.1-64.4,0-96.6c0.1-15.4,0-30.9,0.1-46.3
			c0-1.2-0.2-2.5,0.9-3.4C243.2,255.3,244.5,255.7,245.4,256.9z"/>
		<path id="XMLID_37_" class="st6" d="M261.6,266c0,35-0.4,70.1,0.1,105.1c0.3,18.3,0.1,36.7,0.4,55c-0.9-0.6-1.9-1.1-2.8-1.7
			c0.8-0.7,0.6-1.7,0.6-2.6c0-7.2,0.2-14.4,0-21.6c-1.2-45.1-0.2-90.2-0.5-135.4C260.1,265.2,260.9,265.6,261.6,266z"/>
		<path id="XMLID_36_" class="st6" d="M288.6,281.7c0,23.9-0.5,47.8,0.1,71.6c0.7,29.5,0.1,59,0.4,88.4c-0.9-0.6-1.9-1.1-2.8-1.7
			c0.8-0.7,0.6-1.7,0.6-2.6c0-21.4,0.5-42.7-0.1-64.1c-0.8-31-0.1-62-0.4-92.9C287.1,280.9,287.9,281.3,288.6,281.7z"/>
		<path id="XMLID_35_" class="st6" d="M396.5,154.1c-0.9,0.8-0.5,1.8-0.5,2.8c-4.6,1.5-8.4,4.4-12.5,6.7
			c-13.8,7.9-27.5,15.9-41.2,23.8c-13.1,7.6-26.1,15.2-39.2,22.8c-12.8,7.4-25.5,14.8-38.3,22.1c-2.3,1.3-4.5,2.6-6.8,3.9
			c-0.8,0.5-2,0.8-2.5-0.1c-0.6-1.1,0.8-1.3,1.4-1.6c9.4-5.6,18.8-11.1,28.3-16.6c13.2-7.7,26.5-15.3,39.8-23
			c13.6-7.9,27.1-15.8,40.7-23.7c9.8-5.7,19.5-11.3,29.3-17C395.4,154,395.8,153.3,396.5,154.1z"/>
		<path id="XMLID_34_" class="st6" d="M315.6,297.5c0,12.6-0.3,25.3,0,37.9c1.1,40.7,0.1,81.4,0.5,122.2c-1-0.5-2.1-0.8-2.8-1.7
			c0.9-0.8,0.5-1.9,0.5-2.9c0-40,0.3-80-0.1-120c-0.1-12.2-0.2-24.5-0.4-36.7C314.3,296.3,314.8,297.1,315.6,297.5z"/>
		<path id="XMLID_33_" class="st6" d="M342.5,313.2c1.2,53.4,0.2,106.7,0.6,160.1c-0.8-0.5-1.5-1-2.3-1.6c0-53.2,0-106.4,0-159.6
			C341.5,312.3,342.2,312.5,342.5,313.2z"/>
		<path id="XMLID_32_" class="st6" d="M409.9,164.8c0.9,0.6,1.9,1.1,2.8,1.7c-3.6,0.8-6.3,3.1-9.4,4.8c-19.2,11-38.3,22.1-57.5,33.1
			c-19.7,11.4-39.4,22.8-59.1,34.3c-4.1,2.4-8.3,4.7-12.4,7.1c-0.7,0.4-1.4,0.6-2.1,0.5c-1.8-1.2-0.2-1.6,0.6-2
			c5.5-3.3,11.1-6.5,16.7-9.7c12.7-7.3,25.4-14.7,38.1-22c11.6-6.7,23.3-13.4,34.9-20.2c12.7-7.3,25.4-14.6,38.1-22
			C403.8,168.6,406.8,166.7,409.9,164.8z"/>
		<path id="XMLID_31_" class="st6" d="M370.6,329.4c-0.8,0.6-0.6,1.5-0.6,2.4c0,52.4,0,104.8,0.1,157.2c-0.8-0.5-1.5-1.1-2.3-1.6
			c0.9-0.8,0.6-1.9,0.6-2.9c0-11.4,0.3-22.9,0-34.3c-1.2-40.8-0.1-81.6-0.5-122.4C368.8,328.3,369.7,328.9,370.6,329.4z"/>
		<path id="XMLID_30_" class="st6" d="M436.9,180.5c0.9,0.6,1.9,1.1,2.8,1.7c-0.8,0-1.4,0.3-2.1,0.6c-22.7,13.1-45.5,26.2-68.2,39.3
			c-22.3,12.9-44.6,25.8-66.9,38.7c-0.9,0.5-1.9,0.8-2.8,1.2c-2.6-0.8-1-1.4,0.1-2c9.9-5.7,19.7-11.4,29.6-17.1
			c12-6.9,24.1-13.9,36.1-20.9c13.1-7.6,26.2-15.1,39.3-22.7c9.9-5.7,19.9-11.5,29.8-17.2C435.5,181.7,436.2,181.1,436.9,180.5z"/>
		<path id="XMLID_29_" class="st6" d="M478,391.9c0,7.5-0.2,15,0,22.5c0.9,45.9,0.4,91.7,0.5,137.6c-0.6-0.4-1.1-0.7-1.7-1.1
			c-1.3-53.4-0.2-106.7-0.6-160.1C476.8,391.1,477.4,391.5,478,391.9z"/>
		<path id="XMLID_28_" class="st6" d="M242,254.8c0,44.4,0,88.9,0,133.3c0,8.6,0.1,17.2-0.6,25.8c-0.9-0.2-1.6-0.5-2.2-1.1
			c1-1,0.6-2.3,0.6-3.5c0-34.8-0.3-69.7,0.2-104.5c0.2-17,0.2-34,0.4-51.1C240.9,253.9,241.6,254.1,242,254.8z"/>
		<path id="XMLID_27_" class="st6" d="M424,360.4c0,34.9-0.4,69.8,0.1,104.6c0.3,18.5,0.1,37,0.4,55.5c-0.9-0.6-1.9-1.1-2.8-1.7
			c0.8-0.7,0.6-1.7,0.6-2.6c0-34.8,0.4-69.7-0.2-104.5c-0.3-17.5-0.1-35-0.4-52.5C422.5,359.6,423.3,360,424,360.4z"/>
		<path id="XMLID_26_" class="st6" d="M505,407.6c1.2,53.4,0.2,106.7,0.6,160.1c-0.6-0.4-1.2-0.7-1.7-1.1
			c-0.3-53.4-0.8-106.7-0.6-160.1C503.8,406.8,504.4,407.2,505,407.6z"/>
		<path id="XMLID_25_" class="st6" d="M463.9,196.3c0.9,0.6,1.9,1.1,2.8,1.7c-5.5,2-10.2,5.5-15.2,8.3c-12,6.8-24,13.7-35.9,20.6
			c-11,6.3-22,12.7-33,19c-11.7,6.8-23.4,13.6-35.1,20.3c-5.6,3.2-11.1,6.5-16.7,9.7c-1.3,0.7-2.6,1.6-4.1,1.8
			c-2.2-0.8-0.7-1.5,0.2-2c5.3-3.1,10.7-6.1,16-9.2c12.7-7.3,25.4-14.7,38.1-22c12.7-7.3,25.4-14.6,38.1-22
			c12.6-7.3,25.2-14.6,37.8-21.9C459.3,199.3,462,198.4,463.9,196.3z"/>
		<path id="XMLID_24_" class="st6" d="M451,376.1c0,23.8-0.5,47.7,0.1,71.5c0.7,29.5,0.1,59.1,0.4,88.6c-0.9-0.6-1.9-1.1-2.8-1.7
			c0.8-0.7,0.6-1.7,0.6-2.6c0-52.3,0-104.6,0-156.9C449.9,375.4,450.4,375.8,451,376.1z"/>
		<path id="XMLID_23_" class="st6" d="M397.6,345.1c-0.9,0.8-0.6,1.9-0.6,2.9c0,44.6-0.1,89.2,0.1,133.8c0,7.6,0.3,15.3,0.4,22.9
			c-0.9-0.6-1.9-1.1-2.8-1.7c0.9-0.8,0.6-1.9,0.6-2.9c0-30.5,0.5-61-0.1-91.4c-0.4-21.8-0.1-43.5-0.4-65.3
			C395.7,344,396.7,344.6,397.6,345.1z"/>
		<path id="XMLID_22_" class="st6" d="M491.4,212.5c0.9,0.1,1.7,0.4,2.3,1.1c-6.3,2.8-12.1,6.6-18.1,10
			c-11.9,6.8-23.8,13.7-35.7,20.5c-11.2,6.5-22.4,13-33.7,19.5c-11.6,6.7-23.3,13.4-34.9,20.1c-4.3,2.5-8.6,4.9-12.8,7.4
			c-1.5,0.9-3,1.9-4.8,2.3c-1.8-1.2-0.2-1.6,0.5-2c5.3-3.1,10.6-6.2,16-9.3c12.7-7.3,25.4-14.6,38.1-21.9
			c13.1-7.6,26.2-15.1,39.3-22.7c13.9-8,27.8-16.1,41.7-24.2C490,213,490.7,212.8,491.4,212.5z"/>
		<path id="XMLID_21_" class="st6" d="M518.4,227.7c0.8,0.5,1.5,1.1,2.3,1.6c-5.2,2-9.6,5.3-14.4,8c-12.7,7.2-25.4,14.6-38.1,21.9
			c-12.5,7.2-25,14.5-37.6,21.7c-11.8,6.8-23.6,13.6-35.4,20.4c-4,2.3-8.1,4.6-12.1,7c-0.7,0.4-1.4,0.9-2.3,0.8
			c-1.6-0.9-0.5-1.3,0.3-1.8c9-5.2,18-10.3,27-15.5c12.1-7,24.3-14,36.4-21c13-7.5,26-15.1,39-22.6c11.2-6.5,22.5-12.9,33.7-19.4
			C517.7,228.6,518,228.1,518.4,227.7z"/>
		<path id="XMLID_20_" class="st6" d="M572.4,259.2c0.9,0.6,1.9,1.1,2.8,1.7c-1.8-0.1-2.9,1.1-4.3,1.9
			c-20.3,11.7-40.5,23.5-60.8,35.2c-20.2,11.7-40.5,23.2-60.7,34.9c-4.7,2.7-9.2,5.7-14.1,7.9c-1.6-0.6-1.3-1.2-0.1-1.9
			c4-2.3,8.1-4.7,12.1-7c14.1-8.2,28.3-16.3,42.4-24.5c14-8.1,28-16.1,42-24.2c13.3-7.6,26.5-15.3,39.7-23
			C571.8,260,572.1,259.5,572.4,259.2z"/>
		<path id="XMLID_19_" class="st6" d="M586.5,454.8c0,35-0.4,69.9,0.1,104.9c0.3,18.4,0,36.8,0.4,55.2c-0.9-0.6-1.9-1.1-2.8-1.7
			c1-1,0.6-2.3,0.6-3.5c0-50.7,0-101.3,0-152c0-1.2,0-2.4,0-3.7C585.3,454.4,585.9,454.6,586.5,454.8z"/>
		<path id="XMLID_18_" class="st6" d="M545.4,243.5c0.9,0.6,1.9,1.1,2.8,1.7c-4.1,1-7.3,3.6-10.9,5.6c-12.8,7.3-25.6,14.7-38.3,22.1
			c-11.2,6.5-22.4,13-33.7,19.5c-11.6,6.7-23.3,13.4-34.9,20.1c-6.5,3.8-13.1,7.6-19.6,11.4c-0.8,0.5-1.6,1-2.5,1.1
			c-2-0.4-1.4-1.1-0.2-1.7c3.1-1.8,6.2-3.5,9.2-5.3c15.2-8.8,30.4-17.6,45.6-26.4c14-8.1,28-16.1,42-24.2
			c12.6-7.2,25.1-14.4,37.7-21.7C543.6,245.1,544.8,244.6,545.4,243.5z"/>
		<path id="XMLID_17_" class="st6" d="M533,423.8c-1,1-0.6,2.3-0.6,3.5c0,50.7,0,101.4,0,152c0,1.2,0,2.4-0.1,3.6
			c-0.9-0.2-1.6-0.5-2.2-1.1c0.9-0.8,0.6-1.9,0.6-2.9c0-38.5,0.3-77-0.2-115.6c-0.2-13.7-0.1-27.4-0.4-41.2
			C531.2,422.7,532.1,423.3,533,423.8z"/>
		<path id="XMLID_16_" class="st6" d="M599.9,275.5c0.9,0.1,1.7,0.4,2.3,1.1c-4.6,1.5-8.4,4.4-12.5,6.7
			c-11.8,6.7-23.6,13.6-35.4,20.4c-11.3,6.5-22.6,13.1-33.9,19.6c-11.6,6.7-23.3,13.4-34.9,20.1c-6.5,3.8-13.1,7.6-19.6,11.4
			c-1.1,0.7-2.2,1.4-3.5,1.6c-1.6-0.9-0.6-1.3,0.3-1.8c8.4-4.8,16.8-9.7,25.2-14.6c11.2-6.5,22.5-13,33.7-19.5
			c11.6-6.7,23.3-13.4,34.9-20.2c12.7-7.3,25.4-14.7,38.1-22C596.3,277.4,598.1,276.4,599.9,275.5z"/>
		<path id="XMLID_15_" class="st6" d="M626.9,290.7c0.8,0.5,1.5,1.1,2.3,1.6c-3.1,0.6-5.5,2.7-8.1,4.2c-15.7,8.9-31.4,18-47.1,27.1
			c-14.8,8.6-29.5,17.2-44.3,25.7c-12.7,7.3-25.4,14.6-38.1,21.9c-0.7,0.4-1.6,0.6-2.3,0.9c-1.6-0.9-0.6-1.3,0.3-1.8
			c8.7-5,17.5-10,26.2-15.1c12.6-7.3,25.2-14.6,37.8-21.9c12.8-7.4,25.6-14.7,38.3-22.1c11.3-6.5,22.7-13,34-19.6
			C626.3,291.5,626.6,291,626.9,290.7z"/>
		<path id="XMLID_14_" class="st6" d="M653.9,306.4c0.9,0.6,1.9,1.1,2.8,1.7c-4.5,0.9-8,3.9-11.9,6.1c-11.9,6.8-23.8,13.7-35.7,20.5
			c-11,6.3-22,12.7-33,19c-11.8,6.8-23.6,13.7-35.4,20.5c-8,4.6-16,9.2-24.1,13.7c-2.7-0.6-0.7-1.5,0-1.9c3.9-2.3,7.9-4.6,11.9-6.9
			c15.1-8.7,30.2-17.5,45.4-26.2c12.9-7.4,25.8-14.8,38.6-22.2c13.4-7.7,26.9-15.5,40.3-23.3C653.3,307.2,653.6,306.7,653.9,306.4z"
			/>
		<path id="XMLID_13_" class="st6" d="M560,439.5c-0.9,0.8-0.6,1.9-0.6,2.9c0,44.8-0.1,89.6,0.1,134.4c0,7.4,0.2,14.9,0.4,22.4
			c-0.9-0.6-1.9-1.1-2.8-1.7c1-1,0.6-2.3,0.6-3.5c0-50.7,0-101.3,0-152c0-1.2,0-2.4,0-3.7C558.6,438.6,559.4,438.9,560,439.5z"/>
		<path id="XMLID_12_" class="st6" d="M737,354.7c-8.6,5-17.2,10.1-25.8,15.1c-11.7,6.8-23.4,13.5-35.2,20.3
			c-11.4,6.6-22.8,13.2-34.2,19.7c-12.6,7.3-25.2,14.6-37.8,21.8c-2.1,1.2-4,2.7-6.4,3.4c-1.6-0.9-0.6-1.3,0.3-1.8
			c8.7-5,17.5-10,26.2-15.1c12.6-7.3,25.2-14.6,37.8-21.9c12.8-7.4,25.6-14.7,38.3-22.1c11.3-6.5,22.7-13,34-19.6
			c0.4-0.2,0.6-0.7,0.9-1C735.9,354,736.5,354.4,737,354.7z"/>
		<path id="XMLID_11_" class="st6" d="M681.4,322.7c0.9,0.1,1.7,0.4,2.3,1.1c-3,0.2-5.1,2.2-7.5,3.6c-18.1,10.3-36.1,20.8-54.1,31.2
			c-16.1,9.3-32.1,18.7-48.2,28c-9.9,5.7-19.7,11.3-29.6,17c-0.2,0.1-0.4,0.1-0.5,0.1c-2.3-1.1-0.2-1.5,0.4-1.8
			c5.9-3.5,11.8-6.9,17.7-10.3c21.5-12.4,43-24.9,64.5-37.3c18.1-10.5,36.2-20.9,54.3-31.3C680.8,322.8,681.1,322.8,681.4,322.7z"/>
		<path id="XMLID_10_" class="st6" d="M708.4,338.4c0.9,0.1,1.7,0.4,2.3,1.1c-4,0.6-7,3.4-10.4,5.3c-15.8,8.9-31.4,18-47.1,27.1
			c-14.8,8.6-29.5,17.2-44.3,25.7c-12.5,7.2-25.1,14.4-37.6,21.6c-0.2,0.1-0.4,0.1-0.5,0.1c-1.6-0.9-0.5-1.3,0.3-1.8
			c8.8-5.1,17.6-10.1,26.5-15.2c12.5-7.2,24.9-14.4,37.3-21.6c11.7-6.8,23.4-13.5,35.2-20.3c11.4-6.6,22.8-13.2,34.2-19.7
			C705.5,339.9,707,339.2,708.4,338.4z"/>
		<path id="XMLID_9_" class="st2" d="M750.6,431.1c0,2.3-0.3,4.7,0,7c0.4,3.2-1.1,4.6-3.6,6.1c-16,9.2-32,18.6-48,27.8
			c-19.1,11.1-38.3,22.2-57.4,33.3c-9.9,5.8-19.8,11.6-29.8,17.4c-0.2,0.1-0.5,0.2-1.1,0.3c-0.4-3.2-0.5-6.3-0.6-9.4
			c-0.4-7-0.1-14-0.1-21.1c0-0.7,0-1.3,0.5-1.8c0.8-0.3-0.3,1.9,1.4,0.9c16.9-10.1,33.9-19.8,50.9-29.7c21.5-12.5,43-25,64.5-37.5
			c6.8-3.9,13.5-8,20.4-11.8c1.1-0.6,2.5-1.9,3.5,0.3c0.6,5.4,0.3,10.8,0.2,16.3C751.4,429.9,751.2,430.6,750.6,431.1z"/>
		<path id="XMLID_8_" class="st2" d="M750.5,483.4c0,9.2-0.1,18.4,0,27.5c0,2.1-0.7,3.1-2.5,4.1c-11,6.2-21.8,12.6-32.7,19
			c-13.3,7.7-26.6,15.5-40,23.2c-10.7,6.2-21.5,12.5-32.2,18.7c-10.2,5.9-20.4,11.8-30.5,17.8c-1.9,1.2-2.1,0.6-2.1-1.2
			c0-8.2-0.1-16.5,0.1-24.7c0-1.9-1.6-3.8-0.1-5.6c1.6,1.4,2.8,0,4-0.7c8.4-4.8,16.7-9.7,25-14.5c35.9-20.9,71.9-41.7,107.8-62.6
			C748.4,483.7,749.3,482.9,750.5,483.4z"/>
		<path id="XMLID_7_" class="st2" d="M750.5,463.1c0,4,0,7.9,0.1,11.9l0,0c-6.5,3.1-12.5,7.1-18.7,10.6
			c-13.4,7.7-26.8,15.5-40.2,23.3c-10.8,6.3-21.6,12.6-32.4,18.9c-12.4,7.2-24.9,14.4-37.3,21.6c-3.6,2.1-7.2,4.2-11.4,6.6
			c0-4.3,0-8.1,0-11.9c0.4-1.4,1.8-1.8,2.9-2.5c18.7-11,37.5-21.8,56.3-32.7c17.7-10.3,35.4-20.6,53.1-30.9
			c8.2-4.8,16.4-9.4,24.5-14.2C748.3,463.3,749.2,462.4,750.5,463.1z"/>
		<path id="XMLID_6_" class="st4" d="M750.6,431.1c0-6.4,0-12.7-0.1-19.1c-0.8-0.9-0.6-1.8,0-2.7c0-10.6,0-21.2,0-31.7
			c0-0.7,0-1.3,0-2c-0.1-1.8,1.2-2.5,2.4-2.5c1.6,0,0.9,1.6,0.9,2.4c0.1,19.7,0.1,39.3,0.1,59c0,29.6,0,59.2,0,88.8
			c0,3.7,0.3,7.5,0.5,11.2c0,0.8,0.2,1.7-0.5,2.4c-1.4,0.7-2.3,0.1-2.8-1.1c0-17.6,0-35.2,0-52.8c-0.7-0.6-0.8-1.3-0.5-2.2
			c0-1.9,0-3.8,0-5.6l0,0c0.9-0.8,0.5-1.9,0.5-2.9c0.4-6.4-0.6-12.8-0.5-19.3c0.1-6.2,0.4-12.5,0.5-18.7
			C751.1,433.1,751.4,432,750.6,431.1z"/>
		<path id="XMLID_5_" class="st6" d="M751.1,535.7c0.9,0.4,1.9,0.8,2.8,1.1c-3.8,3.2-8.4,5.2-12.6,7.7
			c-11.4,6.7-22.9,13.3-34.4,19.9c-11.7,6.8-23.5,13.5-35.2,20.2c-11.2,6.5-22.5,13-33.7,19.5c-8.3,4.8-16.7,9.6-25,14.4
			c-0.7,0.4-1.4,1.4-2.1,0.4c-0.7-1-0.4-2.3,0.7-3c1.9-1.3,3.9-2.5,6-3.7c15.3-8.8,30.6-17.6,45.9-26.4c13.9-8,27.8-16.1,41.7-24.1
			c14-8.1,28-16.1,42-24.1C748.4,537,749.5,535.8,751.1,535.7z"/>
		<path id="XMLID_4_" class="st7" d="M750.5,463.1c-5.5,2.6-10.6,6-15.8,9c-14.7,8.5-29.4,17-44.1,25.6
			c-11.5,6.7-23.1,13.4-34.6,20.1c-13.6,7.9-27.1,15.8-40.7,23.7c-1.5,0.9-3.1,1.8-4.6,2.6c-1.3-1.7-0.1-2.5,1.2-3.2
			c6.3-3.7,12.6-7.4,18.9-11c13.2-7.7,26.5-15.3,39.8-23c15.8-9.2,31.6-18.4,47.5-27.6c10.1-5.9,20.2-11.8,30.3-17.6
			c0.6-0.4,1.3-0.6,2-1C750.9,461.5,750.4,462.3,750.5,463.1z"/>
		<path id="XMLID_3_" class="st7" d="M750.5,480.6c0.4,0.7,0.6,1.4,0.5,2.2c-0.2,0.2-0.3,0.4-0.5,0.6c-9.1,5.2-18.1,10.4-27.2,15.7
			c-13.4,7.8-26.8,15.6-40.2,23.4c-13.1,7.6-26.1,15.3-39.2,22.8c-10.5,6.1-21.1,12.1-31.5,18.2c-2.3,1.4-1.7-0.4-1.8-1.4
			c11-6.4,21.9-12.8,32.9-19.2c13.2-7.7,26.5-15.3,39.8-23c15.9-9.2,31.8-18.5,47.7-27.8C737.5,488.3,744,484.5,750.5,480.6z"/>
		<path id="XMLID_2_" class="st7" d="M750.5,409.3c0,0.9,0,1.8,0,2.7c-8.5,4.3-16.5,9.4-24.8,14.2c-13.6,7.8-27.1,15.8-40.6,23.6
			c-20.5,11.9-41,23.9-61.4,35.8c-3.7,2.2-7.5,4.2-11.1,6.4c-1.8,1.1-2,0.2-1.9-1.3c10.3-6.1,20.6-12.2,30.9-18.2
			c13.2-7.7,26.5-15.3,39.8-23c15.8-9.2,31.6-18.4,47.5-27.6C735.9,417.7,743.2,413.5,750.5,409.3z"/>
		<path id="XMLID_1_" class="st4" d="M751.1,547.5c1.5,0.7,1,2.1,1.1,3.3c-1.6-0.1-2.8-1.1-4-2.1C749.1,548,749.7,546.9,751.1,547.5
			z"/>
	</g>
	<text transform="matrix(1 0 0 1 238.9033 739.1472)"><tspan x="0" y="0" class="st8 st9 st10">Container</tspan><tspan x="62.3" y="91.8" class="st8 st11 st10">Security</tspan></text>
</g>
</svg>
