<svg xmlns="http://www.w3.org/2000/svg" xmlns:xlink="http://www.w3.org/1999/xlink" viewBox="0 0 86.03 85.48"><defs><style>.cls-1{fill:#1d1d1b;stroke:#fff;stroke-miterlimit:10;}.cls-2{fill:none;}.cls-3{clip-path:url(#clip-path);}.cls-4{fill:#5469af;}.cls-5{fill:#304871;}.cls-6{fill:#878787;}.cls-7{fill:#fff;}.cls-8{fill:#34a0d4;}.cls-9{fill:#2fac66;}.cls-10{fill:#f9b233;}.cls-11{fill:#c6c6c6;}.cls-12{mask:url(#mask);}.cls-13{mask:url(#mask-2);}.cls-14{opacity:0.07;}.cls-15{filter:url(#luminosity-noclip-2);}.cls-16{filter:url(#luminosity-noclip);}</style><clipPath id="clip-path" transform="translate(0 -0.22)"><circle class="cls-2" cx="45.28" cy="40.9" r="40.9"/></clipPath><filter id="luminosity-noclip" x="35.14" y="20.13" width="26.61" height="30.07" filterUnits="userSpaceOnUse" color-interpolation-filters="sRGB"><feFlood flood-color="#fff" result="bg"/><feBlend in="SourceGraphic" in2="bg"/></filter><mask id="mask" x="35.14" y="19.91" width="26.61" height="30.07" maskUnits="userSpaceOnUse"><g class="cls-16"><g transform="translate(0 -0.22)"><polygon class="cls-1" points="53.37 22.95 51.29 23.82 42.58 44.93 44.12 47.81 47.97 49.69 56.05 48.55 61.21 44.19 60 36.32 55.11 22.95 53.37 22.95"/></g></g></mask><filter id="luminosity-noclip-2" x="22.99" y="21.94" width="34.21" height="29.7" filterUnits="userSpaceOnUse" color-interpolation-filters="sRGB"><feFlood flood-color="#fff" result="bg"/><feBlend in="SourceGraphic" in2="bg"/></filter><mask id="mask-2" x="22.99" y="21.71" width="34.21" height="29.7" maskUnits="userSpaceOnUse"><g class="cls-15"><g transform="translate(0 -0.22)"><path class="cls-1" d="M37.08,23l-1,1.21,2.69,18.63,1.74,5.29,2.34,1.34,3.42-.6,6.5-2.68,3.82-5.77s.27-6.43,0-6.9S47,22.55,47,22.55Z"/></g></g></mask></defs><title>Element 290</title><g id="Ebene_2" data-name="Ebene 2"><g id="Ebene_2-2" data-name="Ebene 2"><g class="cls-3"><circle class="cls-4" cx="45.2" cy="40.83" r="35.83"/><path class="cls-4" d="M45.2,81.88A40.83,40.83,0,1,1,86,41.05,40.88,40.88,0,0,1,45.2,81.88Zm0-71.66A30.83,30.83,0,1,0,76,41.05,30.86,30.86,0,0,0,45.2,10.22Z" transform="translate(0 -0.22)"/><path class="cls-5" d="M65.65,20.4a18.31,18.31,0,0,1,1.79,2A8.91,8.91,0,0,1,71,21c2.09.9,4.08,1.87,4.08,2.09S72,22,70.92,21.69a8.53,8.53,0,0,0-3,1.19c-.1.3,0,.4,0,.4a9.09,9.09,0,0,1,1.39.6c.2.39.4,1.59.1,1.88-.1.1-.06.15-.4.2s-1.45,1.77-2.52,2.84-4.93.25-4.93.25.22,2.24.29,4.47c.4.71.9.9,2.29,1.49,2.49.3,4.89-.06,5,.2s-4.83.58-5.27.5-1.49-.5-2.58-.8a10.29,10.29,0,0,0,2.28,2.89c2,.59,4,1.19,4,1.39a32.77,32.77,0,0,1-4.37-.6,23.39,23.39,0,0,1-2.3-1.74c.26.77.47,2.3,1,2.83C63.22,41,65,42.37,64.8,42.5A35.34,35.34,0,0,1,61.05,40c-.71-1.55-1.79-4.23-1.79-4.23H58.19A171.82,171.82,0,0,1,62,76.57c-4.29-2.14-14.78-18-7.54-28.18,1.22-1.71,1.34-12.34,1.34-12.34a8.26,8.26,0,0,1-2.35-1,2.58,2.58,0,0,1-.69.1c4.56,10.46-27.35,25.55-27.35,25.55s15.09-31.9,25.56-27.34a2.53,2.53,0,0,1,.1-.69,8.17,8.17,0,0,1-1-2.36s-10.63.13-12.34,1.35c-10.2,7.24-26-3.25-28.18-7.55a172.11,172.11,0,0,1,40.79,3.79V26.79S47.59,25.71,46,25a35.28,35.28,0,0,1-2.48-3.75c.13-.16,1.47,1.58,2.81,2.92.54.54,2.07.75,2.84,1a26,26,0,0,1-1.74-2.3,32.77,32.77,0,0,1-.6-4.37c.2,0,.8,2,1.39,4a10.17,10.17,0,0,0,2.89,2.29c-.3-1.09-.7-2.09-.8-2.58s.24-5.36.5-5.27-.1,2.48.2,5c.59,1.39.78,1.89,1.49,2.28,2.23.07,4.47.3,4.47.3s-.83-3.85.25-4.93S60,17.36,60.08,17s.1-.29.2-.39c.3-.3,1.49-.1,1.89.1a8.68,8.68,0,0,1,.6,1.39s.1.1.4,0a8.6,8.6,0,0,0,1.19-3C64.06,14,62.75,11,63,11s1.19,2,2.09,4.08a8.8,8.8,0,0,1-1.4,3.58A18.46,18.46,0,0,1,65.65,20.4Z" transform="translate(0 -0.22)"/><rect class="cls-6" x="29.28" y="23.37" width="17.16" height="26.81" rx="2.83" ry="2.83" transform="translate(-14.91 37.32) rotate(-45)"/><path class="cls-7" d="M41.27,51.64a3.32,3.32,0,0,1-2.36-1L24,35.72A3.34,3.34,0,0,1,24,31l8.12-8.12a3.42,3.42,0,0,1,4.71,0l15,15a3.33,3.33,0,0,1,0,4.71l-8.12,8.12A3.32,3.32,0,0,1,41.27,51.64ZM34.45,22.91a2.29,2.29,0,0,0-1.65.68l-8.13,8.12a2.34,2.34,0,0,0,0,3.3L39.62,50a2.39,2.39,0,0,0,3.3,0L51,41.84a2.35,2.35,0,0,0,0-3.31L36.1,23.59A2.32,2.32,0,0,0,34.45,22.91Z" transform="translate(0 -0.22)"/><path class="cls-8" d="M32.92,27.61H35.5a.24.24,0,0,1,.24.24v25a1.47,1.47,0,0,1-1.47,1.47H32.92a1.47,1.47,0,0,1-1.47-1.47V29.07a1.47,1.47,0,0,1,1.47-1.47Z" transform="translate(-19.12 35.53) rotate(-45)"/><rect class="cls-6" x="37.57" y="21.54" width="17.16" height="26.81" rx="2.83" ry="2.83" transform="translate(-5.87 9.33) rotate(-11.12)"/><path class="cls-7" d="M42.55,49.76a3.34,3.34,0,0,1-3.27-2.69L35.2,26.33a3.34,3.34,0,0,1,2.63-3.92L49.1,20.2A3.34,3.34,0,0,1,53,22.82l4.07,20.75a3.33,3.33,0,0,1-2.63,3.91h0L43.19,49.7A3.55,3.55,0,0,1,42.55,49.76Zm7.19-28.63a2.3,2.3,0,0,0-.45.05L38,23.39a2.34,2.34,0,0,0-1.84,2.74l4.08,20.74A2.31,2.31,0,0,0,43,48.71L54.27,46.5a2.34,2.34,0,0,0,1.84-2.74L52,23a2.34,2.34,0,0,0-2.29-1.89Z" transform="translate(0 -0.22)"/><path class="cls-9" d="M42.55,49.22h0A2.16,2.16,0,0,1,40,47.52l-4.32-22A2.14,2.14,0,0,1,37.41,23l1.86-.37a.24.24,0,0,1,.28.19L44.24,46.7A2.15,2.15,0,0,1,42.55,49.22Z" transform="translate(0 -0.22)"/><rect class="cls-6" x="46.4" y="24.29" width="17.16" height="26.81" rx="2.83" ry="2.83" transform="translate(18.48 -18.31) rotate(22.36)"/><path class="cls-7" d="M56.27,53A3.34,3.34,0,0,1,55,52.74L44.38,48.37A3.34,3.34,0,0,1,42.56,44l8-19.55A3.33,3.33,0,0,1,55,22.66L65.58,27a3.29,3.29,0,0,1,1.81,1.8,3.36,3.36,0,0,1,0,2.55L59.35,50.93A3.34,3.34,0,0,1,56.27,53ZM53.7,23.41a2.38,2.38,0,0,0-.91.18,2.36,2.36,0,0,0-1.26,1.26l-8,19.55a2.34,2.34,0,0,0,1.27,3.05l10.62,4.37a2.34,2.34,0,0,0,3-1.27l8-19.55a2.27,2.27,0,0,0,0-1.79A2.32,2.32,0,0,0,65.2,28L54.58,23.58A2.26,2.26,0,0,0,53.7,23.41Z" transform="translate(0 -0.22)"/><path class="cls-10" d="M44,47.65h0a2.14,2.14,0,0,1-1.17-2.8l8.52-20.72A2.15,2.15,0,0,1,54.15,23h0c1.1.45,2.35.07,1.9,1.16l-9.9,24C45.69,49.17,45.09,48.1,44,47.65Z" transform="translate(0 -0.22)"/><path class="cls-11" d="M56.27,53A3.34,3.34,0,0,1,55,52.74L44.38,48.37A3.34,3.34,0,0,1,42.56,44l8-19.55A3.33,3.33,0,0,1,55,22.66L65.58,27a3.29,3.29,0,0,1,1.81,1.8,3.36,3.36,0,0,1,0,2.55L59.35,50.93A3.34,3.34,0,0,1,56.27,53ZM53.7,23.41a2.38,2.38,0,0,0-.91.18,2.36,2.36,0,0,0-1.26,1.26l-8,19.55a2.34,2.34,0,0,0,1.27,3.05l10.62,4.37a2.34,2.34,0,0,0,3-1.27l8-19.55a2.27,2.27,0,0,0,0-1.79A2.32,2.32,0,0,0,65.2,28L54.58,23.58A2.26,2.26,0,0,0,53.7,23.41Z" transform="translate(0 -0.22)"/><g class="cls-12"><path class="cls-11" d="M42.55,49.76a3.34,3.34,0,0,1-3.27-2.69L35.2,26.33a3.34,3.34,0,0,1,2.63-3.92L49.1,20.2A3.34,3.34,0,0,1,53,22.82l4.07,20.75a3.33,3.33,0,0,1-2.63,3.91h0L43.19,49.7A3.55,3.55,0,0,1,42.55,49.76Zm7.19-28.63a2.3,2.3,0,0,0-.45.05L38,23.39a2.34,2.34,0,0,0-1.84,2.74l4.08,20.74A2.31,2.31,0,0,0,43,48.71L54.27,46.5a2.34,2.34,0,0,0,1.84-2.74L52,23a2.34,2.34,0,0,0-2.29-1.89Z" transform="translate(0 -0.22)"/></g><g class="cls-13"><path class="cls-11" d="M41.27,51.64a3.32,3.32,0,0,1-2.36-1L24,35.72A3.34,3.34,0,0,1,24,31l8.12-8.12a3.42,3.42,0,0,1,4.71,0l15,15a3.33,3.33,0,0,1,0,4.71l-8.12,8.12A3.32,3.32,0,0,1,41.27,51.64ZM34.45,22.91a2.29,2.29,0,0,0-1.65.68l-8.13,8.12a2.34,2.34,0,0,0,0,3.3L39.62,50a2.39,2.39,0,0,0,3.3,0L51,41.84a2.35,2.35,0,0,0,0-3.31L36.1,23.59A2.32,2.32,0,0,0,34.45,22.91Z" transform="translate(0 -0.22)"/></g><g class="cls-14"><path class="cls-7" d="M61.56,70.3A42.38,42.38,0,0,1,26.58,4,42.38,42.38,0,1,0,77.36,67.24,42.11,42.11,0,0,1,61.56,70.3Z" transform="translate(0 -0.22)"/></g><path class="cls-7" d="M26,44.6v1a2.56,2.56,0,0,0-1.34-.36,1.67,1.67,0,0,0-1.23.5,2.08,2.08,0,0,0,0,2.68,1.73,1.73,0,0,0,1.28.5,2.16,2.16,0,0,0,1.3-.4v1a2.51,2.51,0,0,1-1.39.32,2.74,2.74,0,0,1-2-.75,2.77,2.77,0,0,1,2-4.77A2.78,2.78,0,0,1,26,44.6Z" transform="translate(0 -0.22)"/><path class="cls-7" d="M26.53,47.06a2.9,2.9,0,0,1,.69-2,2.66,2.66,0,0,1,3.72,0,3.31,3.31,0,0,1,0,4,2.63,2.63,0,0,1-3.7,0A2.85,2.85,0,0,1,26.53,47.06Zm1.08,0A2.06,2.06,0,0,0,28,48.4a1.4,1.4,0,0,0,2.14,0,2.53,2.53,0,0,0,0-2.7,1.41,1.41,0,0,0-2.15,0A2.13,2.13,0,0,0,27.61,47.06Z" transform="translate(0 -0.22)"/><path class="cls-7" d="M35.15,49.77l-1.22-2h-.55v2h-1V44.38H34a2.1,2.1,0,0,1,1.45.46A1.58,1.58,0,0,1,36,46.08a1.66,1.66,0,0,1-.28,1,1.6,1.6,0,0,1-.74.59l1.38,2.13Zm-1.77-4.56V47h.67a.94.94,0,0,0,.7-.24.9.9,0,0,0,.23-.66.81.81,0,0,0-.25-.64,1,1,0,0,0-.7-.22Z" transform="translate(0 -0.22)"/><path class="cls-7" d="M36.92,49.77V44.38h1.15l1.29,2.25c.21.36.41.71.57,1s.28.55.34.68l.09.2c0-.44-.06-1.08-.06-1.9V44.38h1v5.39H40.16l-1.31-2.24c-.21-.35-.4-.69-.56-1s-.29-.56-.35-.7l-.1-.23a17,17,0,0,1,.09,1.93v2.25Z" transform="translate(0 -0.22)"/><path class="cls-7" d="M45.44,47.71V44.38h1V47.7a2.2,2.2,0,0,1-3.64,1.6,2,2,0,0,1-.58-1.55V44.38h1v3.37a1,1,0,0,0,1.1,1.16C45.07,48.91,45.44,48.51,45.44,47.71Z" transform="translate(0 -0.22)"/><path class="cls-7" d="M51.31,44.6v1A2.62,2.62,0,0,0,50,45.23a1.67,1.67,0,0,0-1.23.5,2.08,2.08,0,0,0,0,2.68,1.75,1.75,0,0,0,1.29.5,2.13,2.13,0,0,0,1.29-.4v1a2.49,2.49,0,0,1-1.39.32,2.74,2.74,0,0,1-2-.75,2.67,2.67,0,0,1-.78-2,2.64,2.64,0,0,1,2.76-2.76A2.85,2.85,0,0,1,51.31,44.6Z" transform="translate(0 -0.22)"/><path class="cls-7" d="M51.87,47.06a2.85,2.85,0,0,1,.7-2,2.64,2.64,0,0,1,3.71,0,3.29,3.29,0,0,1,0,4,2.64,2.64,0,0,1-3.71,0A2.89,2.89,0,0,1,51.87,47.06Zm1.08,0a2.12,2.12,0,0,0,.4,1.34,1.41,1.41,0,0,0,2.15,0,2.53,2.53,0,0,0,0-2.7,1.3,1.3,0,0,0-1.08-.5,1.28,1.28,0,0,0-1.07.5A2.07,2.07,0,0,0,53,47.06Z" transform="translate(0 -0.22)"/><path class="cls-7" d="M57.71,44.38H59.4a2.08,2.08,0,0,1,1.46.49,1.64,1.64,0,0,1,.55,1.28,1.61,1.61,0,0,1-.57,1.3,2,2,0,0,1-1.42.49h-.7v1.83h-1Zm1,2.74h.57a1.15,1.15,0,0,0,.82-.26,1,1,0,0,0,.27-.71.91.91,0,0,0-.27-.7,1.18,1.18,0,0,0-.8-.25h-.59Z" transform="translate(0 -0.22)"/><path class="cls-7" d="M62.07,49.77V44.38h1v5.39Z" transform="translate(0 -0.22)"/><path class="cls-7" d="M67.62,49.77l-.38-1.22h-2l-.38,1.22H63.76l1.82-5.39h1.31l1.82,5.39Zm-2.15-2.05H67l-.08-.24c-.18-.57-.33-1.06-.44-1.45s-.19-.64-.21-.74l0-.16c0,.27-.28,1-.69,2.36Z" transform="translate(0 -0.22)"/></g></g></g></svg>