<?xml version="1.0" encoding="UTF-8" standalone="no"?>
<svg
   xmlns:dc="http://purl.org/dc/elements/1.1/"
   xmlns:cc="http://creativecommons.org/ns#"
   xmlns:rdf="http://www.w3.org/1999/02/22-rdf-syntax-ns#"
   xmlns:svg="http://www.w3.org/2000/svg"
   xmlns="http://www.w3.org/2000/svg"
   xmlns:sodipodi="http://sodipodi.sourceforge.net/DTD/sodipodi-0.dtd"
   xmlns:inkscape="http://www.inkscape.org/namespaces/inkscape"
   viewBox="0 0 82.2 82.199998"
   version="1.1"
   id="svg192"
   sodipodi:docname="cornucopia_gold.svg"
   inkscape:version="0.92.3 (2405546, 2018-03-11)"
   width="82.199997"
   height="82.199997">
  <metadata
     id="metadata196">
    <rdf:RDF>
      <cc:Work
         rdf:about="">
        <dc:format>image/svg+xml</dc:format>
        <dc:type
           rdf:resource="http://purl.org/dc/dcmitype/StillImage" />
        <dc:title>Element 289</dc:title>
      </cc:Work>
    </rdf:RDF>
  </metadata>
  <sodipodi:namedview
     pagecolor="#ffffff"
     bordercolor="#666666"
     borderopacity="1"
     objecttolerance="10"
     gridtolerance="10"
     guidetolerance="10"
     inkscape:pageopacity="0"
     inkscape:pageshadow="2"
     inkscape:window-width="1841"
     inkscape:window-height="879"
     id="namedview194"
     showgrid="false"
     inkscape:zoom="5.4122234"
     inkscape:cx="12.889118"
     inkscape:cy="40.113429"
     inkscape:window-x="79"
     inkscape:window-y="27"
     inkscape:window-maximized="1"
     inkscape:current-layer="g188"
     fit-margin-top="0"
     fit-margin-left="0"
     fit-margin-right="0"
     fit-margin-bottom="0" />
  <defs
     id="defs124">
    <style
       id="style103">.cls-1,.cls-2{fill:#1d1d1b;stroke:#fff;stroke-miterlimit:10;}.cls-1{filter:url(#luminosity-noclip);}.cls-2{filter:url(#luminosity-noclip-2);}.cls-3{fill:none;}.cls-4{clip-path:url(#clip-path);}.cls-5{fill:#5469af;}.cls-6{fill:#304871;}.cls-7{fill:#878787;}.cls-8{fill:#fff;}.cls-9{fill:#34a0d4;}.cls-10{fill:#2fac66;}.cls-11{fill:#f9b233;}.cls-12{fill:#c6c6c6;}.cls-13{mask:url(#mask);}.cls-14{mask:url(#mask-2);}.cls-15{opacity:0.07;}.cls-16{fill:#e2a32f;}</style>
    <clipPath
       id="clip-path">
      <circle
         class="cls-3"
         cx="45.34"
         cy="42.950001"
         r="41.099998"
         id="circle105"
         style="fill:none" />
    </clipPath>
    <filter
       id="luminosity-noclip"
       x="35.240002"
       y="21.82"
       width="26.33"
       height="29.76"
       filterUnits="userSpaceOnUse"
       style="color-interpolation-filters:sRGB">
      <feFlood
         flood-color="#fff"
         result="bg"
         id="feFlood108" />
      <feBlend
         in="SourceGraphic"
         in2="bg"
         id="feBlend110"
         mode="normal" />
    </filter>
    <mask
       id="mask"
       x="35.24"
       y="21.82"
       width="26.33"
       height="29.76"
       maskUnits="userSpaceOnUse">
      <polygon
         class="cls-1"
         points="55,24.6 53.28,24.6 51.22,25.46 42.6,46.35 44.13,49.21 47.94,51.06 55.93,49.94 61.04,45.63 59.84,37.83 "
         id="polygon113"
         style="fill:#1d1d1b;stroke:#ffffff;stroke-miterlimit:10;filter:url(#luminosity-noclip)" />
    </mask>
    <filter
       id="luminosity-noclip-2"
       x="23.23"
       y="23.58"
       width="33.849998"
       height="29.41"
       filterUnits="userSpaceOnUse"
       style="color-interpolation-filters:sRGB">
      <feFlood
         flood-color="#fff"
         result="bg"
         id="feFlood116" />
      <feBlend
         in="SourceGraphic"
         in2="bg"
         id="feBlend118"
         mode="normal" />
    </filter>
    <mask
       id="mask-2"
       x="23.23"
       y="23.58"
       width="33.85"
       height="29.41"
       maskUnits="userSpaceOnUse">
      <path
         class="cls-2"
         d="m 37.17,24.6 -1,1.2 2.65,18.43 1.73,5.24 2.32,1.33 3.38,-0.6 6.43,-2.65 3.78,-5.7 c 0,0 0.27,-6.37 0,-6.84 C 56.19,34.54 47,24.21 47,24.21 Z"
         id="path121"
         inkscape:connector-curvature="0"
         style="fill:#1d1d1b;stroke:#ffffff;stroke-miterlimit:10;filter:url(#luminosity-noclip-2)" />
    </mask>
    <clipPath
       clipPathUnits="userSpaceOnUse"
       id="clipPath2775">
      <ellipse
         style="display:inline;opacity:1;vector-effect:none;fill:none;fill-opacity:1;stroke:#000000;stroke-width:0.00950353;stroke-linecap:butt;stroke-linejoin:miter;stroke-miterlimit:4;stroke-dasharray:none;stroke-dashoffset:0;stroke-opacity:1"
         id="ellipse2777"
         cx="45.188606"
         cy="41.031532"
         rx="40.81324"
         ry="40.812431" />
    </clipPath>
  </defs>
  <title
     id="title126">Element 289</title>
  <g
     id="Ebene_2"
     data-name="Ebene 2"
     transform="translate(-4.2400017,-1.8500023)">
    <g
       id="Ebene_2-2"
       data-name="Ebene 2">
      <g
         class="cls-4"
         clip-path="url(#clip-path)"
         id="g188">
        <circle
           class="cls-5"
           cx="47.047668"
           cy="46.070572"
           r="35.830002"
           id="circle128"
           style="fill:#5469af" />
        <path
           class="cls-5"
           d="M 45.2,83.39 A 40.83,40.83 0 1 1 86,42.56 40.88,40.88 0 0 1 45.2,83.39 Z m 0,-71.66 A 30.83,30.83 0 1 0 76,42.56 30.86,30.86 0 0 0 45.2,11.73 Z"
           id="path130"
           inkscape:connector-curvature="0"
           style="fill:#5469af" />
        <path
           class="cls-6"
           d="m 65.65,21.91 a 21.19,21.19 0 0 1 1.79,2 A 8.8,8.8 0 0 1 71,22.5 c 2.09,0.9 4.08,1.87 4.08,2.09 0,0.22 -3.08,-1.09 -4.16,-1.39 a 8.53,8.53 0 0 0 -3,1.19 c -0.1,0.3 0,0.4 0,0.4 a 9.09,9.09 0 0 1 1.39,0.6 c 0.2,0.39 0.4,1.59 0.1,1.89 -0.1,0.1 -0.06,0.14 -0.4,0.19 -0.34,0.05 -1.45,1.77 -2.52,2.84 -1.07,1.07 -4.93,0.25 -4.93,0.25 0,0 0.22,2.24 0.29,4.47 0.4,0.71 0.9,0.9 2.29,1.49 2.49,0.3 4.89,-0.06 5,0.2 0.11,0.26 -4.83,0.59 -5.27,0.5 -0.44,-0.09 -1.49,-0.5 -2.58,-0.8 a 10.29,10.29 0 0 0 2.28,2.89 c 2,0.59 4,1.19 4,1.39 A 32.77,32.77 0 0 1 63.2,40.1 23.39,23.39 0 0 1 60.9,38.36 c 0.26,0.77 0.47,2.3 1,2.84 1.32,1.34 3.1,2.68 2.9,2.8 A 35.34,35.34 0 0 1 61.05,41.51 C 60.34,39.96 59.26,37.28 59.26,37.28 H 58.19 A 171.82,171.82 0 0 1 62,78.08 C 57.71,75.94 47.22,60.08 54.46,49.9 55.68,48.19 55.8,37.56 55.8,37.56 a 8.26,8.26 0 0 1 -2.35,-1 2.58,2.58 0 0 1 -0.69,0.1 c 4.56,10.47 -27.35,25.55 -27.35,25.55 0,0 15.09,-31.9 25.56,-27.34 a 2.53,2.53 0 0 1 0.1,-0.69 8.17,8.17 0 0 1 -1,-2.36 c 0,0 -10.63,0.13 -12.34,1.35 -10.2,7.24 -26,-3.25 -28.18,-7.54 a 171.82,171.82 0 0 1 40.79,3.78 V 28.3 c 0,0 -2.75,-1.08 -4.34,-1.79 a 35.28,35.28 0 0 1 -2.48,-3.75 c 0.13,-0.16 1.47,1.58 2.81,2.92 0.54,0.54 2.07,0.75 2.84,1 a 24.65,24.65 0 0 1 -1.74,-2.3 32.77,32.77 0 0 1 -0.6,-4.37 c 0.2,0 0.8,2 1.39,4 a 10.17,10.17 0 0 0 2.89,2.29 c -0.3,-1.09 -0.7,-2.09 -0.8,-2.58 -0.1,-0.49 0.24,-5.36 0.5,-5.27 0.26,0.09 -0.1,2.48 0.2,5 0.59,1.39 0.78,1.89 1.49,2.28 2.23,0.08 4.47,0.3 4.47,0.3 0,0 -0.83,-3.85 0.25,-4.93 1.08,-1.08 2.78,-2.18 2.83,-2.52 0.05,-0.34 0.1,-0.3 0.2,-0.4 0.3,-0.3 1.49,-0.1 1.89,0.1 a 8.68,8.68 0 0 1 0.6,1.39 c 0,0 0.1,0.1 0.4,0 a 8.6,8.6 0 0 0 1.19,-3 c -0.3,-1.1 -1.61,-4.17 -1.39,-4.18 0.22,-0.01 1.19,2 2.09,4.08 a 8.8,8.8 0 0 1 -1.4,3.58 18.46,18.46 0 0 1 2.02,1.76 z"
           id="path132"
           inkscape:connector-curvature="0"
           style="fill:#304871" />
        <rect
           class="cls-7"
           x="29.450001"
           y="25.02"
           width="16.98"
           height="26.530001"
           rx="2.8299999"
           ry="2.8299999"
           transform="rotate(-45,37.938342,38.285424)"
           id="rect134"
           style="fill:#878787" />
        <path
           class="cls-8"
           d="M 41.31,53 A 3.34,3.34 0 0 1 39,52 L 24.21,37.26 a 3.33,3.33 0 0 1 0,-4.71 l 8,-8 a 3.34,3.34 0 0 1 4.72,0 L 51.66,39.3 a 3.34,3.34 0 0 1 0,4.72 l -8,8 A 3.32,3.32 0 0 1 41.31,53 Z M 34.56,24.58 a 2.29,2.29 0 0 0 -1.65,0.68 l -8,8 a 2.35,2.35 0 0 0 0,3.31 L 39.66,51.3 a 2.34,2.34 0 0 0 3.3,0 l 8,-8 A 2.34,2.34 0 0 0 51,40 L 36.21,25.26 a 2.29,2.29 0 0 0 -1.65,-0.68 z"
           id="path136"
           inkscape:connector-curvature="0"
           style="fill:#ffffff" />
        <path
           class="cls-9"
           d="m 33.06,29.21 h 2.54 a 0.24,0.24 0 0 1 0.24,0.24 v 24.71 a 1.47,1.47 0 0 1 -1.47,1.47 H 33.06 A 1.47,1.47 0 0 1 31.59,54.16 V 30.68 a 1.47,1.47 0 0 1 1.47,-1.47 z"
           transform="rotate(-45,33.721763,42.421988)"
           id="path138"
           inkscape:connector-curvature="0"
           style="fill:#34a0d4" />
        <rect
           class="cls-7"
           x="37.650002"
           y="23.209999"
           width="16.98"
           height="26.530001"
           rx="2.8299999"
           ry="2.8299999"
           transform="rotate(-11.12,46.120894,36.481061)"
           id="rect140"
           style="fill:#878787" />
        <path
           class="cls-8"
           d="M 42.6,51.13 A 3.33,3.33 0 0 1 39.33,48.44 L 35.31,28 a 3.26,3.26 0 0 1 0.5,-2.5 3.31,3.31 0 0 1 2.12,-1.41 L 49,21.88 a 3.34,3.34 0 0 1 3.91,2.63 L 57,45 a 3.35,3.35 0 0 1 -2.63,3.92 v 0 l -11.1,2.18 a 3.47,3.47 0 0 1 -0.67,0.03 z m 7.07,-28.31 a 2.28,2.28 0 0 0 -0.45,0 L 38.13,25 a 2.33,2.33 0 0 0 -1.84,2.74 l 4,20.47 a 2.33,2.33 0 0 0 2.74,1.84 L 54.12,47.87 A 2.33,2.33 0 0 0 56,45.17 L 52,24.7 a 2.35,2.35 0 0 0 -2.29,-1.88 z"
           id="path142"
           inkscape:connector-curvature="0"
           style="fill:#ffffff" />
        <path
           class="cls-10"
           d="m 42.58,50.59 v 0 A 2.11,2.11 0 0 1 40.09,48.92 L 35.81,27.17 a 2.13,2.13 0 0 1 1.68,-2.49 l 1.84,-0.36 a 0.23,0.23 0 0 1 0.28,0.18 l 4.64,23.6 a 2.11,2.11 0 0 1 -1.67,2.49 z"
           id="path144"
           inkscape:connector-curvature="0"
           style="fill:#2fac66" />
        <rect
           class="cls-7"
           x="46.389999"
           y="25.93"
           width="16.98"
           height="26.530001"
           rx="2.8299999"
           ry="2.8299999"
           transform="rotate(22.36,54.879653,39.202752)"
           id="rect146"
           style="fill:#878787" />
        <path
           class="cls-8"
           d="M 56.13,54.33 A 3.45,3.45 0 0 1 54.87,54.08 L 44.41,49.77 A 3.34,3.34 0 0 1 42.6,45.42 l 7.93,-19.29 a 3.34,3.34 0 0 1 4.36,-1.81 l 10.45,4.3 A 3.34,3.34 0 0 1 67.16,33 l -7.94,19.26 a 3.36,3.36 0 0 1 -1.8,1.81 3.42,3.42 0 0 1 -1.29,0.26 z m -0.88,-1.18 a 2.34,2.34 0 0 0 3,-1.27 l 7.93,-19.29 a 2.33,2.33 0 0 0 -1.27,-3 l -10.4,-4.35 a 2.34,2.34 0 0 0 -3,1.27 L 43.52,45.8 a 2.34,2.34 0 0 0 1.27,3.05 z"
           id="path148"
           inkscape:connector-curvature="0"
           style="fill:#ffffff" />
        <path
           class="cls-11"
           d="m 44,49 v 0 a 2.12,2.12 0 0 1 -1.15,-2.77 l 8.43,-20.5 a 2.12,2.12 0 0 1 2.77,-1.15 v 0 c 1.08,0.44 2.32,0.06 1.87,1.14 l -9.79,23.7 C 45.69,50.55 45.09,49.49 44,49 Z"
           id="path150"
           inkscape:connector-curvature="0"
           style="fill:#f9b233" />
        <path
           class="cls-12"
           d="M 56.13,54.33 A 3.45,3.45 0 0 1 54.87,54.08 L 44.41,49.77 A 3.34,3.34 0 0 1 42.6,45.42 l 7.93,-19.29 a 3.34,3.34 0 0 1 4.36,-1.81 l 10.45,4.3 A 3.34,3.34 0 0 1 67.16,33 l -7.94,19.26 a 3.36,3.36 0 0 1 -1.8,1.81 3.42,3.42 0 0 1 -1.29,0.26 z m -0.88,-1.18 a 2.34,2.34 0 0 0 3,-1.27 l 7.93,-19.29 a 2.33,2.33 0 0 0 -1.27,-3 l -10.4,-4.35 a 2.34,2.34 0 0 0 -3,1.27 L 43.52,45.8 a 2.34,2.34 0 0 0 1.27,3.05 z"
           id="path152"
           inkscape:connector-curvature="0"
           style="fill:#c6c6c6" />
        <g
           class="cls-13"
           mask="url(#mask)"
           id="g156">
          <path
             class="cls-12"
             d="M 42.6,51.13 A 3.33,3.33 0 0 1 39.33,48.44 L 35.31,28 a 3.26,3.26 0 0 1 0.5,-2.5 3.31,3.31 0 0 1 2.12,-1.41 L 49,21.88 a 3.34,3.34 0 0 1 3.91,2.63 L 57,45 a 3.35,3.35 0 0 1 -2.63,3.92 v 0 l -11.1,2.18 a 3.47,3.47 0 0 1 -0.67,0.03 z m 7.07,-28.31 a 2.28,2.28 0 0 0 -0.45,0 L 38.13,25 a 2.33,2.33 0 0 0 -1.84,2.74 l 4,20.47 a 2.33,2.33 0 0 0 2.74,1.84 L 54.12,47.87 A 2.33,2.33 0 0 0 56,45.17 L 52,24.7 a 2.35,2.35 0 0 0 -2.29,-1.88 z"
             id="path154"
             inkscape:connector-curvature="0"
             style="fill:#c6c6c6" />
        </g>
        <g
           class="cls-14"
           mask="url(#mask-2)"
           id="g160">
          <path
             class="cls-12"
             d="M 41.31,53 A 3.34,3.34 0 0 1 39,52 L 24.21,37.26 a 3.33,3.33 0 0 1 0,-4.71 l 8,-8 a 3.34,3.34 0 0 1 4.72,0 L 51.66,39.3 a 3.34,3.34 0 0 1 0,4.72 l -8,8 A 3.32,3.32 0 0 1 41.31,53 Z M 34.56,24.58 a 2.29,2.29 0 0 0 -1.65,0.68 l -8,8 a 2.35,2.35 0 0 0 0,3.31 L 39.66,51.3 a 2.34,2.34 0 0 0 3.3,0 l 8,-8 A 2.34,2.34 0 0 0 51,40 L 36.21,25.26 a 2.29,2.29 0 0 0 -1.65,-0.68 z"
             id="path158"
             inkscape:connector-curvature="0"
             style="fill:#c6c6c6" />
        </g>
        <g
           class="cls-15"
           id="g164"
           style="opacity:0.07000002" />
        <path
           class="cls-8"
           d="m 26,46.11 v 1 a 2.56,2.56 0 0 0 -1.34,-0.35 1.64,1.64 0 0 0 -1.23,0.5 1.81,1.81 0 0 0 -0.49,1.34 1.79,1.79 0 0 0 0.49,1.33 1.73,1.73 0 0 0 1.28,0.5 A 2.16,2.16 0 0 0 26,50 v 1 a 2.6,2.6 0 0 1 -1.39,0.32 2.75,2.75 0 0 1 -2,-0.76 2.77,2.77 0 0 1 2,-4.77 2.78,2.78 0 0 1 1.39,0.32 z"
           id="path166"
           inkscape:connector-curvature="0"
           style="fill:#ffffff" />
        <path
           class="cls-8"
           d="m 26.53,48.57 a 2.9,2.9 0 0 1 0.69,-2 2.66,2.66 0 0 1 3.72,0 3.31,3.31 0 0 1 0,4 2.4,2.4 0 0 1 -1.85,0.76 2.44,2.44 0 0 1 -1.86,-0.76 2.89,2.89 0 0 1 -0.7,-2 z m 1.08,0 a 2.06,2.06 0 0 0 0.4,1.34 1.31,1.31 0 0 0 1.07,0.5 1.29,1.29 0 0 0 1.07,-0.49 2.53,2.53 0 0 0 0,-2.7 1.41,1.41 0 0 0 -2.15,0 2.13,2.13 0 0 0 -0.39,1.35 z"
           id="path168"
           inkscape:connector-curvature="0"
           style="fill:#ffffff" />
        <path
           class="cls-8"
           d="m 35.15,51.28 -1.22,-2 h -0.55 v 2 h -1 V 45.89 H 34 a 2.1,2.1 0 0 1 1.45,0.46 1.58,1.58 0 0 1 0.55,1.24 1.72,1.72 0 0 1 -0.28,1 1.58,1.58 0 0 1 -0.74,0.58 l 1.38,2.13 z m -1.77,-4.56 v 1.76 h 0.67 a 1,1 0 0 0 0.7,-0.23 0.93,0.93 0 0 0 0.23,-0.66 0.79,0.79 0 0 0 -0.25,-0.64 1,1 0 0 0 -0.7,-0.23 z"
           id="path170"
           inkscape:connector-curvature="0"
           style="fill:#ffffff" />
        <path
           class="cls-8"
           d="m 36.92,51.28 v -5.39 h 1.15 l 1.29,2.25 c 0.21,0.37 0.4,0.71 0.57,1 0.17,0.29 0.28,0.54 0.34,0.67 l 0.09,0.2 c 0,-0.44 -0.06,-1.08 -0.06,-1.9 v -2.22 h 1 v 5.39 H 40.16 L 38.85,49 C 38.64,48.65 38.45,48.31 38.28,48 38.11,47.69 38,47.44 37.94,47.3 l -0.1,-0.22 A 16.68,16.68 0 0 1 37.93,49 v 2.25 z"
           id="path172"
           inkscape:connector-curvature="0"
           style="fill:#ffffff" />
        <path
           class="cls-8"
           d="m 45.44,49.22 v -3.33 h 1 v 3.32 a 1.93,1.93 0 0 1 -2.11,2.14 2.18,2.18 0 0 1 -1.54,-0.54 2,2 0 0 1 -0.57,-1.54 v -3.38 h 1 v 3.37 a 1.15,1.15 0 0 0 0.3,0.89 1.18,1.18 0 0 0 0.8,0.28 c 0.75,0 1.12,-0.43 1.12,-1.21 z"
           id="path174"
           inkscape:connector-curvature="0"
           style="fill:#ffffff" />
        <path
           class="cls-8"
           d="m 51.3,46.11 v 1 a 2.56,2.56 0 0 0 -1.3,-0.36 1.64,1.64 0 0 0 -1.23,0.5 1.81,1.81 0 0 0 -0.49,1.34 1.79,1.79 0 0 0 0.49,1.33 1.75,1.75 0 0 0 1.29,0.5 2.13,2.13 0 0 0 1.29,-0.4 v 1 a 2.58,2.58 0 0 1 -1.39,0.32 2.75,2.75 0 0 1 -2,-0.76 2.65,2.65 0 0 1 -0.78,-2 2.71,2.71 0 0 1 0.77,-2 2.68,2.68 0 0 1 2,-0.77 2.78,2.78 0 0 1 1.35,0.3 z"
           id="path176"
           inkscape:connector-curvature="0"
           style="fill:#ffffff" />
        <path
           class="cls-8"
           d="m 51.87,48.57 a 2.85,2.85 0 0 1 0.7,-2 2.64,2.64 0 0 1 3.71,0 3.29,3.29 0 0 1 0,4 2.64,2.64 0 0 1 -3.71,0 2.89,2.89 0 0 1 -0.7,-2 z m 1.08,0 a 2.12,2.12 0 0 0 0.4,1.34 1.32,1.32 0 0 0 1.07,0.5 1.29,1.29 0 0 0 1.08,-0.49 2.53,2.53 0 0 0 0,-2.7 1.3,1.3 0 0 0 -1.08,-0.5 1.32,1.32 0 0 0 -1.08,0.5 2.13,2.13 0 0 0 -0.34,1.35 z"
           id="path178"
           inkscape:connector-curvature="0"
           style="fill:#ffffff" />
        <path
           class="cls-8"
           d="m 57.71,45.89 h 1.69 a 2,2 0 0 1 1.46,0.5 1.62,1.62 0 0 1 0.55,1.27 1.64,1.64 0 0 1 -0.57,1.34 2.09,2.09 0 0 1 -1.42,0.48 h -0.7 v 1.83 h -1 z m 1,2.74 h 0.57 a 1.11,1.11 0 0 0 0.82,-0.26 1,1 0 0 0 0.27,-0.71 0.87,0.87 0 0 0 -0.27,-0.69 1.13,1.13 0 0 0 -0.8,-0.26 h -0.59 z"
           id="path180"
           inkscape:connector-curvature="0"
           style="fill:#ffffff" />
        <path
           class="cls-8"
           d="m 62.07,51.28 v -5.39 h 1 v 5.39 z"
           id="path182"
           inkscape:connector-curvature="0"
           style="fill:#ffffff" />
        <path
           class="cls-8"
           d="m 67.62,51.28 -0.38,-1.22 h -2 l -0.38,1.22 h -1.1 l 1.82,-5.39 h 1.31 l 1.82,5.39 z M 65.46,49.23 H 67 L 66.91,49 c -0.18,-0.57 -0.33,-1.06 -0.44,-1.45 -0.11,-0.39 -0.19,-0.64 -0.21,-0.74 v -0.16 c 0,0.27 -0.27,1 -0.68,2.36 z"
           id="path184"
           inkscape:connector-curvature="0"
           style="fill:#ffffff" />
        <path
           class="cls-16"
           d="m 45.384767,86.161504 a 42.73,42.73 0 1 1 42.72,-42.72 42.78,42.78 0 0 1 -42.72,42.72 z m 0,-72.45 a 29.73,29.73 0 1 0 29.72,29.73 29.76,29.76 0 0 0 -29.72,-29.73 z"
           id="path186"
           inkscape:connector-curvature="0"
           style="fill:#e2a32f" />
        <path
           class="cls-7"
           d="M 61.56,70.3 A 42.38,42.38 0 0 1 26.58,4 42.38,42.38 0 1 0 77.36,67.24 42.11,42.11 0 0 1 61.56,70.3 Z"
           transform="matrix(1.0615742,0,0,1.0933701,-2.6978979,-4.8492112)"
           id="path69"
           inkscape:connector-curvature="0"
           style="opacity:0.15;fill:#ffffff"
           clip-path="url(#clipPath2775)" />
      </g>
    </g>
  </g>
</svg>
