<?xml version="1.0" encoding="UTF-8" standalone="no"?>
<svg
   xmlns:dc="http://purl.org/dc/elements/1.1/"
   xmlns:cc="http://creativecommons.org/ns#"
   xmlns:rdf="http://www.w3.org/1999/02/22-rdf-syntax-ns#"
   xmlns:svg="http://www.w3.org/2000/svg"
   xmlns="http://www.w3.org/2000/svg"
   xmlns:sodipodi="http://sodipodi.sourceforge.net/DTD/sodipodi-0.dtd"
   xmlns:inkscape="http://www.inkscape.org/namespaces/inkscape"
   viewBox="0 0 97.417146 97.464878"
   version="1.1"
   id="svg97"
   sodipodi:docname="cornucopia_basic.svg"
   width="97.417145"
   height="97.464882"
   inkscape:version="0.92.3 (2405546, 2018-03-11)">
  <metadata
     id="metadata101">
    <rdf:RDF>
      <cc:Work
         rdf:about="">
        <dc:format>image/svg+xml</dc:format>
        <dc:type
           rdf:resource="http://purl.org/dc/dcmitype/StillImage" />
        <dc:title>Element 290</dc:title>
      </cc:Work>
    </rdf:RDF>
  </metadata>
  <sodipodi:namedview
     pagecolor="#ffffff"
     bordercolor="#666666"
     borderopacity="1"
     objecttolerance="10"
     gridtolerance="10"
     guidetolerance="10"
     inkscape:pageopacity="0"
     inkscape:pageshadow="2"
     inkscape:window-width="1841"
     inkscape:window-height="879"
     id="namedview99"
     showgrid="false"
     fit-margin-top="0"
     fit-margin-left="0"
     fit-margin-right="0"
     fit-margin-bottom="0"
     inkscape:zoom="7.8089468"
     inkscape:cx="16.239938"
     inkscape:cy="51.480835"
     inkscape:window-x="79"
     inkscape:window-y="27"
     inkscape:window-maximized="1"
     inkscape:current-layer="svg97" />
  <defs
     id="defs31">
    <style
       id="style2">.cls-1{fill:#1d1d1b;stroke:#fff;stroke-miterlimit:10;}.cls-2{fill:none;}.cls-3{clip-path:url(#clip-path);}.cls-4{fill:#5469af;}.cls-5{fill:#304871;}.cls-6{fill:#878787;}.cls-7{fill:#fff;}.cls-8{fill:#34a0d4;}.cls-9{fill:#2fac66;}.cls-10{fill:#f9b233;}.cls-11{fill:#c6c6c6;}.cls-12{mask:url(#mask);}.cls-13{mask:url(#mask-2);}.cls-14{opacity:0.07;}.cls-15{filter:url(#luminosity-noclip-2);}.cls-16{filter:url(#luminosity-noclip);}</style>
    <clipPath
       id="clip-path"
       transform="translate(0 -0.22)">
      <circle
         class="cls-2"
         cx="45.279999"
         cy="40.900002"
         r="40.900002"
         id="circle4"
         style="fill:none" />
    </clipPath>
    <filter
       id="luminosity-noclip"
       x="35.139999"
       y="20.129999"
       width="26.610001"
       height="30.07"
       filterUnits="userSpaceOnUse"
       style="color-interpolation-filters:sRGB">
      <feFlood
         flood-color="#fff"
         result="bg"
         id="feFlood7" />
      <feBlend
         in="SourceGraphic"
         in2="bg"
         id="feBlend9"
         mode="normal" />
    </filter>
    <mask
       id="mask"
       x="35.14"
       y="19.91"
       width="26.61"
       height="30.07"
       maskUnits="userSpaceOnUse">
      <g
         class="cls-16"
         id="g16"
         style="filter:url(#luminosity-noclip)">
        <g
           transform="translate(0,-0.22)"
           id="g14">
          <polygon
             class="cls-1"
             points="51.29,23.82 42.58,44.93 44.12,47.81 47.97,49.69 56.05,48.55 61.21,44.19 60,36.32 55.11,22.95 53.37,22.95 "
             id="polygon12"
             style="fill:#1d1d1b;stroke:#ffffff;stroke-miterlimit:10" />
        </g>
      </g>
    </mask>
    <filter
       id="luminosity-noclip-2"
       x="22.99"
       y="21.940001"
       width="34.209999"
       height="29.700001"
       filterUnits="userSpaceOnUse"
       style="color-interpolation-filters:sRGB">
      <feFlood
         flood-color="#fff"
         result="bg"
         id="feFlood19" />
      <feBlend
         in="SourceGraphic"
         in2="bg"
         id="feBlend21"
         mode="normal" />
    </filter>
    <mask
       id="mask-2"
       x="22.99"
       y="21.71"
       width="34.21"
       height="29.7"
       maskUnits="userSpaceOnUse">
      <g
         class="cls-15"
         id="g28"
         style="filter:url(#luminosity-noclip-2)">
        <g
           transform="translate(0,-0.22)"
           id="g26">
          <path
             class="cls-1"
             d="m 37.08,23 -1,1.21 2.69,18.63 1.74,5.29 2.34,1.34 3.42,-0.6 6.5,-2.68 3.82,-5.77 c 0,0 0.27,-6.43 0,-6.9 C 56.32,33.05 47,22.55 47,22.55 Z"
             id="path24"
             inkscape:connector-curvature="0"
             style="fill:#1d1d1b;stroke:#ffffff;stroke-miterlimit:10" />
        </g>
      </g>
    </mask>
    <clipPath
       clipPathUnits="userSpaceOnUse"
       id="clipPath2775">
      <ellipse
         style="display:inline;opacity:1;vector-effect:none;fill:none;fill-opacity:1;stroke:#000000;stroke-width:0.00950353;stroke-linecap:butt;stroke-linejoin:miter;stroke-miterlimit:4;stroke-dasharray:none;stroke-dashoffset:0;stroke-opacity:1"
         id="ellipse2777"
         cx="45.188606"
         cy="41.031532"
         rx="40.81324"
         ry="40.812431" />
    </clipPath>
  </defs>
  <title
     id="title33">Element 290</title>
  <g
     id="Ebene_2"
     data-name="Ebene 2"
     transform="matrix(1.193545,0,0,1.193545,-5.2277238,-1.3154429e-5)">
    <g
       id="Ebene_2-2"
       data-name="Ebene 2">
      <g
         class="cls-3"
         clip-path="url(#clip-path)"
         id="g93">
        <circle
           class="cls-4"
           cx="45.200001"
           cy="40.830002"
           r="35.830002"
           id="circle35"
           style="fill:#5469af" />
        <path
           class="cls-4"
           d="M 45.2,81.88 A 40.83,40.83 0 1 1 86,41.05 40.88,40.88 0 0 1 45.2,81.88 Z m 0,-71.66 A 30.83,30.83 0 1 0 76,41.05 30.86,30.86 0 0 0 45.2,10.22 Z"
           transform="translate(0,-0.22)"
           id="path37"
           inkscape:connector-curvature="0"
           style="fill:#5469af" />
        <path
           class="cls-5"
           d="m 65.65,20.4 a 18.31,18.31 0 0 1 1.79,2 A 8.91,8.91 0 0 1 71,21 c 2.09,0.9 4.08,1.87 4.08,2.09 0,0.22 -3.08,-1.09 -4.16,-1.4 a 8.53,8.53 0 0 0 -3,1.19 c -0.1,0.3 0,0.4 0,0.4 a 9.09,9.09 0 0 1 1.39,0.6 c 0.2,0.39 0.4,1.59 0.1,1.88 -0.1,0.1 -0.06,0.15 -0.4,0.2 -0.34,0.05 -1.45,1.77 -2.52,2.84 -1.07,1.07 -4.93,0.25 -4.93,0.25 0,0 0.22,2.24 0.29,4.47 0.4,0.71 0.9,0.9 2.29,1.49 2.49,0.3 4.89,-0.06 5,0.2 0.11,0.26 -4.83,0.58 -5.27,0.5 -0.44,-0.08 -1.49,-0.5 -2.58,-0.8 a 10.29,10.29 0 0 0 2.28,2.89 c 2,0.59 4,1.19 4,1.39 a 32.77,32.77 0 0 1 -4.37,-0.6 23.39,23.39 0 0 1 -2.3,-1.74 c 0.26,0.77 0.47,2.3 1,2.83 1.32,1.32 3.1,2.69 2.9,2.82 A 35.34,35.34 0 0 1 61.05,40 C 60.34,38.45 59.26,35.77 59.26,35.77 H 58.19 A 171.82,171.82 0 0 1 62,76.57 C 57.71,74.43 47.22,58.57 54.46,48.39 55.68,46.68 55.8,36.05 55.8,36.05 a 8.26,8.26 0 0 1 -2.35,-1 2.58,2.58 0 0 1 -0.69,0.1 C 57.32,45.61 25.41,60.7 25.41,60.7 c 0,0 15.09,-31.9 25.56,-27.34 a 2.53,2.53 0 0 1 0.1,-0.69 8.17,8.17 0 0 1 -1,-2.36 c 0,0 -10.63,0.13 -12.34,1.35 -10.2,7.24 -26,-3.25 -28.18,-7.55 a 172.11,172.11 0 0 1 40.79,3.79 v -1.11 c 0,0 -2.75,-1.08 -4.34,-1.79 a 35.28,35.28 0 0 1 -2.48,-3.75 c 0.13,-0.16 1.47,1.58 2.81,2.92 0.54,0.54 2.07,0.75 2.84,1 a 26,26 0 0 1 -1.74,-2.3 32.77,32.77 0 0 1 -0.6,-4.37 c 0.2,0 0.8,2 1.39,4 a 10.17,10.17 0 0 0 2.89,2.29 c -0.3,-1.09 -0.7,-2.09 -0.8,-2.58 -0.1,-0.49 0.24,-5.36 0.5,-5.27 0.26,0.09 -0.1,2.48 0.2,5 0.59,1.39 0.78,1.89 1.49,2.28 2.23,0.07 4.47,0.3 4.47,0.3 0,0 -0.83,-3.85 0.25,-4.93 1.08,-1.08 2.78,-2.23 2.86,-2.59 0.08,-0.36 0.1,-0.29 0.2,-0.39 0.3,-0.3 1.49,-0.1 1.89,0.1 a 8.68,8.68 0 0 1 0.6,1.39 c 0,0 0.1,0.1 0.4,0 a 8.6,8.6 0 0 0 1.19,-3 C 64.06,14 62.75,11 63,11 c 0.25,0 1.19,2 2.09,4.08 a 8.8,8.8 0 0 1 -1.4,3.58 18.46,18.46 0 0 1 1.96,1.74 z"
           transform="translate(0,-0.22)"
           id="path39"
           inkscape:connector-curvature="0"
           style="fill:#304871" />
        <rect
           class="cls-6"
           x="29.280001"
           y="23.370001"
           width="17.16"
           height="26.809999"
           rx="2.8299999"
           ry="2.8299999"
           transform="rotate(-45,37.594225,36.657962)"
           id="rect41"
           style="fill:#878787" />
        <path
           class="cls-7"
           d="m 41.27,51.64 a 3.32,3.32 0 0 1 -2.36,-1 L 24,35.72 A 3.34,3.34 0 0 1 24,31 l 8.12,-8.12 a 3.42,3.42 0 0 1 4.71,0 l 15,15 a 3.33,3.33 0 0 1 0,4.71 l -8.12,8.12 a 3.32,3.32 0 0 1 -2.44,0.93 z M 34.45,22.91 a 2.29,2.29 0 0 0 -1.65,0.68 l -8.13,8.12 a 2.34,2.34 0 0 0 0,3.3 L 39.62,50 a 2.39,2.39 0 0 0 3.3,0 L 51,41.84 a 2.35,2.35 0 0 0 0,-3.31 L 36.1,23.59 a 2.32,2.32 0 0 0 -1.65,-0.68 z"
           transform="translate(0,-0.22)"
           id="path43"
           inkscape:connector-curvature="0"
           style="fill:#ffffff" />
        <path
           class="cls-8"
           d="m 32.92,27.61 h 2.58 a 0.24,0.24 0 0 1 0.24,0.24 v 25 a 1.47,1.47 0 0 1 -1.47,1.47 H 32.92 A 1.47,1.47 0 0 1 31.45,52.85 V 29.07 a 1.47,1.47 0 0 1 1.47,-1.47 z"
           transform="rotate(-45,33.328504,40.844882)"
           id="path45"
           inkscape:connector-curvature="0"
           style="fill:#34a0d4" />
        <rect
           class="cls-6"
           x="37.57"
           y="21.540001"
           width="17.16"
           height="26.809999"
           rx="2.8299999"
           ry="2.8299999"
           transform="rotate(-11.12,44.986815,34.815167)"
           id="rect47"
           style="fill:#878787" />
        <path
           class="cls-7"
           d="M 42.55,49.76 A 3.34,3.34 0 0 1 39.28,47.07 L 35.2,26.33 a 3.34,3.34 0 0 1 2.63,-3.92 L 49.1,20.2 a 3.34,3.34 0 0 1 3.9,2.62 l 4.07,20.75 a 3.33,3.33 0 0 1 -2.63,3.91 v 0 L 43.19,49.7 a 3.55,3.55 0 0 1 -0.64,0.06 z m 7.19,-28.63 a 2.3,2.3 0 0 0 -0.45,0.05 L 38,23.39 a 2.34,2.34 0 0 0 -1.84,2.74 l 4.08,20.74 A 2.31,2.31 0 0 0 43,48.71 L 54.27,46.5 a 2.34,2.34 0 0 0 1.84,-2.74 L 52,23 a 2.34,2.34 0 0 0 -2.29,-1.89 z"
           transform="translate(0,-0.22)"
           id="path49"
           inkscape:connector-curvature="0"
           style="fill:#ffffff" />
        <path
           class="cls-9"
           d="m 42.55,49.22 v 0 A 2.16,2.16 0 0 1 40,47.52 l -4.32,-22 A 2.14,2.14 0 0 1 37.41,23 l 1.86,-0.37 a 0.24,0.24 0 0 1 0.28,0.19 l 4.69,23.88 a 2.15,2.15 0 0 1 -1.69,2.52 z"
           transform="translate(0,-0.22)"
           id="path51"
           inkscape:connector-curvature="0"
           style="fill:#2fac66" />
        <rect
           class="cls-6"
           x="46.400002"
           y="24.290001"
           width="17.16"
           height="26.809999"
           rx="2.8299999"
           ry="2.8299999"
           transform="rotate(22.36,55.560984,37.596053)"
           id="rect53"
           style="fill:#878787" />
        <path
           class="cls-7"
           d="M 56.27,53 A 3.34,3.34 0 0 1 55,52.74 L 44.38,48.37 A 3.34,3.34 0 0 1 42.56,44 l 8,-19.55 A 3.33,3.33 0 0 1 55,22.66 L 65.58,27 a 3.29,3.29 0 0 1 1.81,1.8 3.36,3.36 0 0 1 0,2.55 L 59.35,50.93 A 3.34,3.34 0 0 1 56.27,53 Z M 53.7,23.41 a 2.38,2.38 0 0 0 -0.91,0.18 2.36,2.36 0 0 0 -1.26,1.26 l -8,19.55 a 2.34,2.34 0 0 0 1.27,3.05 l 10.62,4.37 a 2.34,2.34 0 0 0 3,-1.27 l 8,-19.55 a 2.27,2.27 0 0 0 0,-1.79 A 2.32,2.32 0 0 0 65.2,28 L 54.58,23.58 A 2.26,2.26 0 0 0 53.7,23.41 Z"
           transform="translate(0,-0.22)"
           id="path55"
           inkscape:connector-curvature="0"
           style="fill:#ffffff" />
        <path
           class="cls-10"
           d="m 44,47.65 v 0 a 2.14,2.14 0 0 1 -1.17,-2.8 L 51.35,24.13 A 2.15,2.15 0 0 1 54.15,23 v 0 c 1.1,0.45 2.35,0.07 1.9,1.16 l -9.9,24 C 45.69,49.17 45.09,48.1 44,47.65 Z"
           transform="translate(0,-0.22)"
           id="path57"
           inkscape:connector-curvature="0"
           style="fill:#f9b233" />
        <path
           class="cls-11"
           d="M 56.27,53 A 3.34,3.34 0 0 1 55,52.74 L 44.38,48.37 A 3.34,3.34 0 0 1 42.56,44 l 8,-19.55 A 3.33,3.33 0 0 1 55,22.66 L 65.58,27 a 3.29,3.29 0 0 1 1.81,1.8 3.36,3.36 0 0 1 0,2.55 L 59.35,50.93 A 3.34,3.34 0 0 1 56.27,53 Z M 53.7,23.41 a 2.38,2.38 0 0 0 -0.91,0.18 2.36,2.36 0 0 0 -1.26,1.26 l -8,19.55 a 2.34,2.34 0 0 0 1.27,3.05 l 10.62,4.37 a 2.34,2.34 0 0 0 3,-1.27 l 8,-19.55 a 2.27,2.27 0 0 0 0,-1.79 A 2.32,2.32 0 0 0 65.2,28 L 54.58,23.58 A 2.26,2.26 0 0 0 53.7,23.41 Z"
           transform="translate(0,-0.22)"
           id="path59"
           inkscape:connector-curvature="0"
           style="fill:#c6c6c6" />
        <g
           class="cls-12"
           mask="url(#mask)"
           id="g63">
          <path
             class="cls-11"
             d="M 42.55,49.76 A 3.34,3.34 0 0 1 39.28,47.07 L 35.2,26.33 a 3.34,3.34 0 0 1 2.63,-3.92 L 49.1,20.2 a 3.34,3.34 0 0 1 3.9,2.62 l 4.07,20.75 a 3.33,3.33 0 0 1 -2.63,3.91 v 0 L 43.19,49.7 a 3.55,3.55 0 0 1 -0.64,0.06 z m 7.19,-28.63 a 2.3,2.3 0 0 0 -0.45,0.05 L 38,23.39 a 2.34,2.34 0 0 0 -1.84,2.74 l 4.08,20.74 A 2.31,2.31 0 0 0 43,48.71 L 54.27,46.5 a 2.34,2.34 0 0 0 1.84,-2.74 L 52,23 a 2.34,2.34 0 0 0 -2.29,-1.89 z"
             transform="translate(0,-0.22)"
             id="path61"
             inkscape:connector-curvature="0"
             style="fill:#c6c6c6" />
        </g>
        <g
           class="cls-13"
           mask="url(#mask-2)"
           id="g67">
          <path
             class="cls-11"
             d="m 41.27,51.64 a 3.32,3.32 0 0 1 -2.36,-1 L 24,35.72 A 3.34,3.34 0 0 1 24,31 l 8.12,-8.12 a 3.42,3.42 0 0 1 4.71,0 l 15,15 a 3.33,3.33 0 0 1 0,4.71 l -8.12,8.12 a 3.32,3.32 0 0 1 -2.44,0.93 z M 34.45,22.91 a 2.29,2.29 0 0 0 -1.65,0.68 l -8.13,8.12 a 2.34,2.34 0 0 0 0,3.3 L 39.62,50 a 2.39,2.39 0 0 0 3.3,0 L 51,41.84 a 2.35,2.35 0 0 0 0,-3.31 L 36.1,23.59 a 2.32,2.32 0 0 0 -1.65,-0.68 z"
             transform="translate(0,-0.22)"
             id="path65"
             inkscape:connector-curvature="0"
             style="fill:#c6c6c6" />
        </g>
        <g
           class="cls-14"
           id="g71"
           style="opacity:0.15">
          <path
             class="cls-7"
             d="M 61.56,70.3 A 42.38,42.38 0 0 1 26.58,4 42.38,42.38 0 1 0 77.36,67.24 42.11,42.11 0 0 1 61.56,70.3 Z"
             transform="translate(0,-0.22)"
             id="path69"
             inkscape:connector-curvature="0"
             style="fill:#ffffff"
             clip-path="url(#clipPath2775)" />
        </g>
        <path
           class="cls-7"
           d="m 26,44.6 v 1 a 2.56,2.56 0 0 0 -1.34,-0.36 1.67,1.67 0 0 0 -1.23,0.5 2.08,2.08 0 0 0 0,2.68 1.73,1.73 0 0 0 1.28,0.5 2.16,2.16 0 0 0 1.3,-0.4 v 1 a 2.51,2.51 0 0 1 -1.39,0.32 2.74,2.74 0 0 1 -2,-0.75 2.77,2.77 0 0 1 2,-4.77 2.78,2.78 0 0 1 1.38,0.28 z"
           transform="translate(0,-0.22)"
           id="path73"
           inkscape:connector-curvature="0"
           style="fill:#ffffff" />
        <path
           class="cls-7"
           d="m 26.53,47.06 a 2.9,2.9 0 0 1 0.69,-2 2.66,2.66 0 0 1 3.72,0 3.31,3.31 0 0 1 0,4 2.63,2.63 0 0 1 -3.7,0 2.85,2.85 0 0 1 -0.71,-2 z m 1.08,0 a 2.06,2.06 0 0 0 0.39,1.34 1.4,1.4 0 0 0 2.14,0 2.53,2.53 0 0 0 0,-2.7 1.41,1.41 0 0 0 -2.15,0 2.13,2.13 0 0 0 -0.38,1.36 z"
           transform="translate(0,-0.22)"
           id="path75"
           inkscape:connector-curvature="0"
           style="fill:#ffffff" />
        <path
           class="cls-7"
           d="m 35.15,49.77 -1.22,-2 h -0.55 v 2 h -1 V 44.38 H 34 a 2.1,2.1 0 0 1 1.45,0.46 1.58,1.58 0 0 1 0.55,1.24 1.66,1.66 0 0 1 -0.28,1 1.6,1.6 0 0 1 -0.74,0.59 l 1.38,2.13 z M 33.38,45.21 V 47 h 0.67 a 0.94,0.94 0 0 0 0.7,-0.24 0.9,0.9 0 0 0 0.23,-0.66 0.81,0.81 0 0 0 -0.25,-0.64 1,1 0 0 0 -0.7,-0.22 z"
           transform="translate(0,-0.22)"
           id="path77"
           inkscape:connector-curvature="0"
           style="fill:#ffffff" />
        <path
           class="cls-7"
           d="m 36.92,49.77 v -5.39 h 1.15 l 1.29,2.25 c 0.21,0.36 0.41,0.71 0.57,1 0.16,0.29 0.28,0.55 0.34,0.68 l 0.09,0.2 c 0,-0.44 -0.06,-1.08 -0.06,-1.9 v -2.23 h 1 v 5.39 h -1.14 l -1.31,-2.24 c -0.21,-0.35 -0.4,-0.69 -0.56,-1 -0.16,-0.31 -0.29,-0.56 -0.35,-0.7 l -0.1,-0.23 a 17,17 0 0 1 0.09,1.93 v 2.25 z"
           transform="translate(0,-0.22)"
           id="path79"
           inkscape:connector-curvature="0"
           style="fill:#ffffff" />
        <path
           class="cls-7"
           d="m 45.44,47.71 v -3.33 h 1 v 3.32 a 2.2,2.2 0 0 1 -3.64,1.6 2,2 0 0 1 -0.58,-1.55 v -3.37 h 1 v 3.37 a 1,1 0 0 0 1.1,1.16 c 0.75,0 1.12,-0.4 1.12,-1.2 z"
           transform="translate(0,-0.22)"
           id="path81"
           inkscape:connector-curvature="0"
           style="fill:#ffffff" />
        <path
           class="cls-7"
           d="m 51.31,44.6 v 1 A 2.62,2.62 0 0 0 50,45.23 a 1.67,1.67 0 0 0 -1.23,0.5 2.08,2.08 0 0 0 0,2.68 1.75,1.75 0 0 0 1.29,0.5 2.13,2.13 0 0 0 1.29,-0.4 v 1 a 2.49,2.49 0 0 1 -1.39,0.32 2.74,2.74 0 0 1 -2,-0.75 2.67,2.67 0 0 1 -0.78,-2 2.64,2.64 0 0 1 2.76,-2.76 2.85,2.85 0 0 1 1.37,0.28 z"
           transform="translate(0,-0.22)"
           id="path83"
           inkscape:connector-curvature="0"
           style="fill:#ffffff" />
        <path
           class="cls-7"
           d="m 51.87,47.06 a 2.85,2.85 0 0 1 0.7,-2 2.64,2.64 0 0 1 3.71,0 3.29,3.29 0 0 1 0,4 2.64,2.64 0 0 1 -3.71,0 2.89,2.89 0 0 1 -0.7,-2 z m 1.08,0 a 2.12,2.12 0 0 0 0.4,1.34 1.41,1.41 0 0 0 2.15,0 2.53,2.53 0 0 0 0,-2.7 1.3,1.3 0 0 0 -1.08,-0.5 1.28,1.28 0 0 0 -1.07,0.5 2.07,2.07 0 0 0 -0.35,1.36 z"
           transform="translate(0,-0.22)"
           id="path85"
           inkscape:connector-curvature="0"
           style="fill:#ffffff" />
        <path
           class="cls-7"
           d="m 57.71,44.38 h 1.69 a 2.08,2.08 0 0 1 1.46,0.49 1.64,1.64 0 0 1 0.55,1.28 1.61,1.61 0 0 1 -0.57,1.3 2,2 0 0 1 -1.42,0.49 h -0.7 v 1.83 h -1 z m 1,2.74 h 0.57 a 1.15,1.15 0 0 0 0.82,-0.26 1,1 0 0 0 0.27,-0.71 0.91,0.91 0 0 0 -0.27,-0.7 1.18,1.18 0 0 0 -0.8,-0.25 h -0.59 z"
           transform="translate(0,-0.22)"
           id="path87"
           inkscape:connector-curvature="0"
           style="fill:#ffffff" />
        <path
           class="cls-7"
           d="m 62.07,49.77 v -5.39 h 1 v 5.39 z"
           transform="translate(0,-0.22)"
           id="path89"
           inkscape:connector-curvature="0"
           style="fill:#ffffff" />
        <path
           class="cls-7"
           d="m 67.62,49.77 -0.38,-1.22 h -2 l -0.38,1.22 h -1.1 l 1.82,-5.39 h 1.31 l 1.82,5.39 z M 65.47,47.72 H 67 l -0.08,-0.24 c -0.18,-0.57 -0.33,-1.06 -0.44,-1.45 -0.11,-0.39 -0.19,-0.64 -0.21,-0.74 v -0.16 c 0,0.27 -0.28,1 -0.69,2.36 z"
           transform="translate(0,-0.22)"
           id="path91"
           inkscape:connector-curvature="0"
           style="fill:#ffffff" />
      </g>
    </g>
  </g>
</svg>
