<svg xmlns="http://www.w3.org/2000/svg" xmlns:xlink="http://www.w3.org/1999/xlink" viewBox="0 0 88.2 87.21"><defs><style>.cls-1,.cls-2{fill:#1d1d1b;stroke:#fff;stroke-miterlimit:10;}.cls-1{filter:url(#luminosity-noclip);}.cls-2{filter:url(#luminosity-noclip-2);}.cls-3{fill:none;}.cls-4{clip-path:url(#clip-path);}.cls-5{fill:#5469af;}.cls-6{fill:#304871;}.cls-7{fill:#878787;}.cls-8{fill:#fff;}.cls-9{fill:#34a0d4;}.cls-10{fill:#2fac66;}.cls-11{fill:#f9b233;}.cls-12{fill:#c6c6c6;}.cls-13{mask:url(#mask);}.cls-14{mask:url(#mask-2);}.cls-15{opacity:0.07;}.cls-16{fill:#e2a32f;}</style><clipPath id="clip-path"><circle class="cls-3" cx="45.34" cy="42.95" r="41.1"/></clipPath><filter id="luminosity-noclip" x="35.24" y="21.82" width="26.33" height="29.76" filterUnits="userSpaceOnUse" color-interpolation-filters="sRGB"><feFlood flood-color="#fff" result="bg"/><feBlend in="SourceGraphic" in2="bg"/></filter><mask id="mask" x="35.24" y="21.82" width="26.33" height="29.76" maskUnits="userSpaceOnUse"><polygon class="cls-1" points="53.28 24.6 51.22 25.46 42.6 46.35 44.13 49.21 47.94 51.06 55.93 49.94 61.04 45.63 59.84 37.83 55 24.6 53.28 24.6"/></mask><filter id="luminosity-noclip-2" x="23.23" y="23.58" width="33.85" height="29.41" filterUnits="userSpaceOnUse" color-interpolation-filters="sRGB"><feFlood flood-color="#fff" result="bg"/><feBlend in="SourceGraphic" in2="bg"/></filter><mask id="mask-2" x="23.23" y="23.58" width="33.85" height="29.41" maskUnits="userSpaceOnUse"><path class="cls-2" d="M37.17,24.6l-1,1.2,2.65,18.43,1.73,5.24,2.32,1.33,3.38-.6,6.43-2.65,3.78-5.7s.27-6.37,0-6.84S47,24.21,47,24.21Z"/></mask></defs><title>Element 289</title><g id="Ebene_2" data-name="Ebene 2"><g id="Ebene_2-2" data-name="Ebene 2"><g class="cls-4"><circle class="cls-5" cx="45.2" cy="42.56" r="35.83"/><path class="cls-5" d="M45.2,83.39A40.83,40.83,0,1,1,86,42.56,40.88,40.88,0,0,1,45.2,83.39Zm0-71.66A30.83,30.83,0,1,0,76,42.56,30.86,30.86,0,0,0,45.2,11.73Z"/><path class="cls-6" d="M65.65,21.91a21.19,21.19,0,0,1,1.79,2A8.8,8.8,0,0,1,71,22.5c2.09.9,4.08,1.87,4.08,2.09S72,23.5,70.92,23.2a8.53,8.53,0,0,0-3,1.19c-.1.3,0,.4,0,.4a9.09,9.09,0,0,1,1.39.6c.2.39.4,1.59.1,1.89-.1.1-.06.14-.4.19s-1.45,1.77-2.52,2.84-4.93.25-4.93.25.22,2.24.29,4.47c.4.71.9.9,2.29,1.49,2.49.3,4.89-.06,5,.2s-4.83.59-5.27.5-1.49-.5-2.58-.8a10.29,10.29,0,0,0,2.28,2.89c2,.59,4,1.19,4,1.39a32.77,32.77,0,0,1-4.37-.6,23.39,23.39,0,0,1-2.3-1.74c.26.77.47,2.3,1,2.84C63.22,42.54,65,43.88,64.8,44a35.34,35.34,0,0,1-3.75-2.49c-.71-1.55-1.79-4.23-1.79-4.23H58.19A171.82,171.82,0,0,1,62,78.08c-4.29-2.14-14.78-18-7.54-28.18,1.22-1.71,1.34-12.34,1.34-12.34a8.26,8.26,0,0,1-2.35-1,2.58,2.58,0,0,1-.69.1c4.56,10.47-27.35,25.55-27.35,25.55s15.09-31.9,25.56-27.34a2.53,2.53,0,0,1,.1-.69,8.17,8.17,0,0,1-1-2.36s-10.63.13-12.34,1.35c-10.2,7.24-26-3.25-28.18-7.54a171.82,171.82,0,0,1,40.79,3.78V28.3S47.59,27.22,46,26.51a35.28,35.28,0,0,1-2.48-3.75c.13-.16,1.47,1.58,2.81,2.92.54.54,2.07.75,2.84,1a24.65,24.65,0,0,1-1.74-2.3,32.77,32.77,0,0,1-.6-4.37c.2,0,.8,2,1.39,4a10.17,10.17,0,0,0,2.89,2.29c-.3-1.09-.7-2.09-.8-2.58s.24-5.36.5-5.27-.1,2.48.2,5c.59,1.39.78,1.89,1.49,2.28,2.23.08,4.47.3,4.47.3s-.83-3.85.25-4.93,2.78-2.18,2.83-2.52.1-.3.2-.4c.3-.3,1.49-.1,1.89.1a8.68,8.68,0,0,1,.6,1.39s.1.1.4,0a8.6,8.6,0,0,0,1.19-3c-.3-1.1-1.61-4.17-1.39-4.18s1.19,2,2.09,4.08a8.8,8.8,0,0,1-1.4,3.58A18.46,18.46,0,0,1,65.65,21.91Z"/><rect class="cls-7" x="29.45" y="25.02" width="16.98" height="26.53" rx="2.83" ry="2.83" transform="translate(-15.96 38.04) rotate(-45)"/><path class="cls-8" d="M41.31,53A3.34,3.34,0,0,1,39,52L24.21,37.26a3.33,3.33,0,0,1,0-4.71l8-8a3.34,3.34,0,0,1,4.72,0L51.66,39.3a3.34,3.34,0,0,1,0,4.72l-8,8A3.32,3.32,0,0,1,41.31,53ZM34.56,24.58a2.29,2.29,0,0,0-1.65.68l-8,8a2.35,2.35,0,0,0,0,3.31L39.66,51.3a2.34,2.34,0,0,0,3.3,0l8-8A2.34,2.34,0,0,0,51,40L36.21,25.26A2.29,2.29,0,0,0,34.56,24.58Z"/><path class="cls-9" d="M33.06,29.21H35.6a.24.24,0,0,1,.24.24V54.16a1.47,1.47,0,0,1-1.47,1.47H33.06a1.47,1.47,0,0,1-1.47-1.47V30.68a1.47,1.47,0,0,1,1.47-1.47Z" transform="translate(-20.12 36.27) rotate(-45)"/><rect class="cls-7" x="37.65" y="23.21" width="16.98" height="26.53" rx="2.83" ry="2.83" transform="translate(-6.17 9.58) rotate(-11.12)"/><path class="cls-8" d="M42.6,51.13a3.33,3.33,0,0,1-3.27-2.69L35.31,28a3.26,3.26,0,0,1,.5-2.5,3.31,3.31,0,0,1,2.12-1.41L49,21.88a3.34,3.34,0,0,1,3.91,2.63L57,45a3.35,3.35,0,0,1-2.63,3.92h0l-11.1,2.18A3.47,3.47,0,0,1,42.6,51.13Zm7.07-28.31a2.28,2.28,0,0,0-.45,0L38.13,25a2.33,2.33,0,0,0-1.84,2.74l4,20.47a2.33,2.33,0,0,0,2.74,1.84l11.09-2.18A2.33,2.33,0,0,0,56,45.17L52,24.7a2.35,2.35,0,0,0-2.29-1.88Z"/><path class="cls-10" d="M42.58,50.59h0a2.11,2.11,0,0,1-2.49-1.67L35.81,27.17a2.13,2.13,0,0,1,1.68-2.49l1.84-.36a.23.23,0,0,1,.28.18l4.64,23.6A2.11,2.11,0,0,1,42.58,50.59Z"/><rect class="cls-7" x="46.39" y="25.93" width="16.98" height="26.53" rx="2.83" ry="2.83" transform="translate(19.04 -17.93) rotate(22.36)"/><path class="cls-8" d="M56.13,54.33a3.45,3.45,0,0,1-1.26-.25L44.41,49.77a3.34,3.34,0,0,1-1.81-4.35l7.93-19.29a3.34,3.34,0,0,1,4.36-1.81l10.45,4.3A3.34,3.34,0,0,1,67.16,33L59.22,52.26a3.36,3.36,0,0,1-1.8,1.81A3.42,3.42,0,0,1,56.13,54.33Zm-.88-1.18a2.34,2.34,0,0,0,3-1.27l7.93-19.29a2.33,2.33,0,0,0-1.27-3L54.51,25.24a2.34,2.34,0,0,0-3,1.27L43.52,45.8a2.34,2.34,0,0,0,1.27,3.05Z"/><path class="cls-11" d="M44,49h0a2.12,2.12,0,0,1-1.15-2.77l8.43-20.5a2.12,2.12,0,0,1,2.77-1.15h0c1.08.44,2.32.06,1.87,1.14l-9.79,23.7C45.69,50.55,45.09,49.49,44,49Z"/><path class="cls-12" d="M56.13,54.33a3.45,3.45,0,0,1-1.26-.25L44.41,49.77a3.34,3.34,0,0,1-1.81-4.35l7.93-19.29a3.34,3.34,0,0,1,4.36-1.81l10.45,4.3A3.34,3.34,0,0,1,67.16,33L59.22,52.26a3.36,3.36,0,0,1-1.8,1.81A3.42,3.42,0,0,1,56.13,54.33Zm-.88-1.18a2.34,2.34,0,0,0,3-1.27l7.93-19.29a2.33,2.33,0,0,0-1.27-3L54.51,25.24a2.34,2.34,0,0,0-3,1.27L43.52,45.8a2.34,2.34,0,0,0,1.27,3.05Z"/><g class="cls-13"><path class="cls-12" d="M42.6,51.13a3.33,3.33,0,0,1-3.27-2.69L35.31,28a3.26,3.26,0,0,1,.5-2.5,3.31,3.31,0,0,1,2.12-1.41L49,21.88a3.34,3.34,0,0,1,3.91,2.63L57,45a3.35,3.35,0,0,1-2.63,3.92h0l-11.1,2.18A3.47,3.47,0,0,1,42.6,51.13Zm7.07-28.31a2.28,2.28,0,0,0-.45,0L38.13,25a2.33,2.33,0,0,0-1.84,2.74l4,20.47a2.33,2.33,0,0,0,2.74,1.84l11.09-2.18A2.33,2.33,0,0,0,56,45.17L52,24.7a2.35,2.35,0,0,0-2.29-1.88Z"/></g><g class="cls-14"><path class="cls-12" d="M41.31,53A3.34,3.34,0,0,1,39,52L24.21,37.26a3.33,3.33,0,0,1,0-4.71l8-8a3.34,3.34,0,0,1,4.72,0L51.66,39.3a3.34,3.34,0,0,1,0,4.72l-8,8A3.32,3.32,0,0,1,41.31,53ZM34.56,24.58a2.29,2.29,0,0,0-1.65.68l-8,8a2.35,2.35,0,0,0,0,3.31L39.66,51.3a2.34,2.34,0,0,0,3.3,0l8-8A2.34,2.34,0,0,0,51,40L36.21,25.26A2.29,2.29,0,0,0,34.56,24.58Z"/></g><g class="cls-15"><path class="cls-8" d="M61.56,71.81a42.38,42.38,0,0,1-35-66.31A42.38,42.38,0,1,0,77.36,68.76,42.3,42.3,0,0,1,61.56,71.81Z"/></g><path class="cls-8" d="M26,46.11v1a2.56,2.56,0,0,0-1.34-.35,1.64,1.64,0,0,0-1.23.5,1.81,1.81,0,0,0-.49,1.34,1.79,1.79,0,0,0,.49,1.33,1.73,1.73,0,0,0,1.28.5A2.16,2.16,0,0,0,26,50v1a2.6,2.6,0,0,1-1.39.32,2.75,2.75,0,0,1-2-.76,2.77,2.77,0,0,1,2-4.77A2.78,2.78,0,0,1,26,46.11Z"/><path class="cls-8" d="M26.53,48.57a2.9,2.9,0,0,1,.69-2,2.66,2.66,0,0,1,3.72,0,3.31,3.31,0,0,1,0,4,2.4,2.4,0,0,1-1.85.76,2.44,2.44,0,0,1-1.86-.76A2.89,2.89,0,0,1,26.53,48.57Zm1.08,0a2.06,2.06,0,0,0,.4,1.34,1.31,1.31,0,0,0,1.07.5,1.29,1.29,0,0,0,1.07-.49,2.53,2.53,0,0,0,0-2.7,1.41,1.41,0,0,0-2.15,0A2.13,2.13,0,0,0,27.61,48.57Z"/><path class="cls-8" d="M35.15,51.28l-1.22-2h-.55v2h-1V45.89H34a2.1,2.1,0,0,1,1.45.46A1.58,1.58,0,0,1,36,47.59a1.72,1.72,0,0,1-.28,1,1.58,1.58,0,0,1-.74.58l1.38,2.13Zm-1.77-4.56v1.76h.67a1,1,0,0,0,.7-.23.93.93,0,0,0,.23-.66.79.79,0,0,0-.25-.64,1,1,0,0,0-.7-.23Z"/><path class="cls-8" d="M36.92,51.28V45.89h1.15l1.29,2.25c.21.37.4.71.57,1s.28.54.34.67l.09.2c0-.44-.06-1.08-.06-1.9V45.89h1v5.39H40.16L38.85,49c-.21-.35-.4-.69-.57-1s-.28-.56-.34-.7l-.1-.22A16.68,16.68,0,0,1,37.93,49v2.25Z"/><path class="cls-8" d="M45.44,49.22V45.89h1v3.32a1.93,1.93,0,0,1-2.11,2.14,2.18,2.18,0,0,1-1.54-.54,2,2,0,0,1-.57-1.54V45.89h1v3.37a1.15,1.15,0,0,0,.3.89,1.18,1.18,0,0,0,.8.28C45.07,50.43,45.44,50,45.44,49.22Z"/><path class="cls-8" d="M51.3,46.11v1A2.56,2.56,0,0,0,50,46.75a1.64,1.64,0,0,0-1.23.5,1.81,1.81,0,0,0-.49,1.34,1.79,1.79,0,0,0,.49,1.33,1.75,1.75,0,0,0,1.29.5,2.13,2.13,0,0,0,1.29-.4v1a2.58,2.58,0,0,1-1.39.32,2.75,2.75,0,0,1-2-.76,2.65,2.65,0,0,1-.78-2,2.71,2.71,0,0,1,.77-2,2.68,2.68,0,0,1,2-.77A2.78,2.78,0,0,1,51.3,46.11Z"/><path class="cls-8" d="M51.87,48.57a2.85,2.85,0,0,1,.7-2,2.64,2.64,0,0,1,3.71,0,3.29,3.29,0,0,1,0,4,2.64,2.64,0,0,1-3.71,0A2.89,2.89,0,0,1,51.87,48.57Zm1.08,0a2.12,2.12,0,0,0,.4,1.34,1.32,1.32,0,0,0,1.07.5,1.29,1.29,0,0,0,1.08-.49,2.53,2.53,0,0,0,0-2.7,1.3,1.3,0,0,0-1.08-.5,1.32,1.32,0,0,0-1.08.5A2.13,2.13,0,0,0,53,48.57Z"/><path class="cls-8" d="M57.71,45.89H59.4a2,2,0,0,1,1.46.5,1.62,1.62,0,0,1,.55,1.27A1.64,1.64,0,0,1,60.84,49a2.09,2.09,0,0,1-1.42.48h-.7v1.83h-1Zm1,2.74h.57a1.11,1.11,0,0,0,.82-.26,1,1,0,0,0,.27-.71.87.87,0,0,0-.27-.69,1.13,1.13,0,0,0-.8-.26h-.59Z"/><path class="cls-8" d="M62.07,51.28V45.89h1v5.39Z"/><path class="cls-8" d="M67.62,51.28l-.38-1.22h-2l-.38,1.22H63.76l1.82-5.39h1.31l1.82,5.39Zm-2.16-2.05H67L66.91,49c-.18-.57-.33-1.06-.44-1.45s-.19-.64-.21-.74l0-.16c0,.27-.27,1-.68,2.36Z"/><path class="cls-16" d="M45.48,85.45A42.73,42.73,0,1,1,88.2,42.73,42.78,42.78,0,0,1,45.48,85.45Zm0-72.45A29.73,29.73,0,1,0,75.2,42.73,29.76,29.76,0,0,0,45.48,13Z"/></g></g></g></svg>