<svg xmlns="http://www.w3.org/2000/svg" xmlns:xlink="http://www.w3.org/1999/xlink" viewBox="0 0 326.51 87.94"><defs><style>.cls-1,.cls-11{fill:#1d1d1b;}.cls-1{filter:url(#luminosity-noclip);}.cls-17,.cls-2{fill:none;}.cls-3{clip-path:url(#clip-path);}.cls-4{fill:#970b27;stroke:#970b27;stroke-width:10px;}.cls-14,.cls-15,.cls-17,.cls-4{stroke-miterlimit:10;}.cls-5{fill:#6b0816;}.cls-13,.cls-14,.cls-15,.cls-6,.cls-7,.cls-9{fill:#fff;}.cls-6{opacity:0.15;}.cls-7{font-size:9px;font-family:Hind-SemiBold, Hind;font-weight:700;letter-spacing:-0.01em;}.cls-8{font-size:7px;fill:#dadada;letter-spacing:-0.01em;}.cls-9{font-size:10px;font-family:MyriadPro-Regular, Myriad Pro;}.cls-10{letter-spacing:0.02em;}.cls-12{opacity:0.64;}.cls-14,.cls-15,.cls-17{stroke:#fff;}.cls-14{stroke-width:0.25px;}.cls-15{stroke-width:0.75px;}.cls-16{mask:url(#mask);}</style><clipPath id="clip-path"><circle class="cls-2" cx="94.95" cy="42.69" r="41.1"/></clipPath><filter id="luminosity-noclip" x="320.07" y="30.56" width="14.87" height="10.5" filterUnits="userSpaceOnUse" color-interpolation-filters="sRGB"><feFlood flood-color="#fff" result="bg"/><feBlend in="SourceGraphic" in2="bg"/></filter><mask id="mask" x="320.07" y="30.56" width="14.87" height="10.5" maskUnits="userSpaceOnUse"><polygon class="cls-1" points="332.63 30.94 328.06 30.56 332.5 41.06 334.56 38.56 334.94 31.38 332.63 30.94"/></mask></defs><title>Element 264</title><g id="Ebene_2" data-name="Ebene 2"><g id="Ebene_2-2" data-name="Ebene 2"><g class="cls-3"><circle class="cls-4" cx="94.61" cy="42.9" r="35.98"/><path class="cls-5" d="M113.29,24.72A15.38,15.38,0,0,1,115,26.65a8.45,8.45,0,0,1,3.48-1.35c2,.87,4,1.81,4,2s-3-1.07-4.06-1.36a8.16,8.16,0,0,0-2.89,1.16c-.1.29,0,.39,0,.39a8.61,8.61,0,0,1,1.35.58c.19.38.38,1.54.1,1.83-.1.1-.06.14-.39.2s-1.41,1.71-2.46,2.76-4.79.23-4.79.23.22,2.18.29,4.35c.38.69.87.87,2.22,1.45,2.42.29,4.75-.06,4.84.19s-4.7.57-5.12.48-1.45-.48-2.52-.77a10,10,0,0,0,2.23,2.8c1.93.58,3.86,1.16,3.86,1.36a32.61,32.61,0,0,1-4.25-.58,24.94,24.94,0,0,1-2.23-1.69c.25.74.45,2.23,1,2.75,1.31,1.3,3,2.61,2.85,2.73a33.4,33.4,0,0,1-3.65-2.41c-.69-1.51-1.73-4.12-1.73-4.12h-1a166.83,166.83,0,0,1,3.68,39.64c-4.17-2.09-14.37-17.48-7.33-27.39,1.18-1.65,1.31-12,1.31-12a7.9,7.9,0,0,1-2.29-1,2.81,2.81,0,0,1-.67.09c4.43,10.17-26.57,24.83-26.57,24.83S88.83,32.84,99,37.28a2.82,2.82,0,0,1,.09-.68,7.9,7.9,0,0,1-1-2.29s-10.33.13-12,1.31c-9.91,7-25.3-3.16-27.39-7.33A167.45,167.45,0,0,1,98.35,32v-1s-2.61-1.05-4.12-1.74a33.4,33.4,0,0,1-2.41-3.65c.12-.15,1.43,1.54,2.73,2.85.52.52,2,.72,2.76,1a23.21,23.21,0,0,1-1.7-2.23A31,31,0,0,1,95,22.88c.19,0,.77,1.93,1.35,3.87A10.13,10.13,0,0,0,99.19,29c-.29-1.07-.68-2-.77-2.51s.23-5.21.48-5.12-.1,2.41.19,4.83c.58,1.35.77,1.84,1.45,2.22,2.17.07,4.35.29,4.35.29s-.81-3.75.24-4.79,2.7-2.13,2.75-2.46.1-.29.2-.38c.29-.29,1.45-.1,1.83.09a9.05,9.05,0,0,1,.58,1.35s.1.1.39,0A8.16,8.16,0,0,0,112,19.6c-.29-1.07-1.57-4.05-1.35-4.06s1.15,1.93,2,4A8.4,8.4,0,0,1,111.36,23,15.38,15.38,0,0,1,113.29,24.72Z"/><path class="cls-6" d="M111.53,72.48A42.54,42.54,0,0,1,76.41,5.9a42.55,42.55,0,1,0,51,63.51A42.43,42.43,0,0,1,111.53,72.48Z"/><text class="cls-7" transform="translate(62.01 58.45)">CRYPTOGRAPHY<tspan class="cls-8"><tspan x="21.92" y="8.4">BASICS</tspan></tspan></text><text></text><text class="cls-9" transform="translate(67.13 29.29)">d<tspan class="cls-10" x="5.64" y="0">R</tspan><tspan x="11.21" y="0">t7agShiI8s</tspan></text><text></text><rect class="cls-11" x="16.88" width="3" height="13"/><rect class="cls-11" y="18.75" width="15.38" height="11.38"/></g><g class="cls-12"><rect class="cls-13" x="117.51" y="36.8" width="2.74" height="9.77" transform="translate(237.75 83.38) rotate(180)"/><polygon class="cls-13" points="118.77 32.44 124 37.67 118.77 37.67 113.54 37.67 118.77 32.44"/><polygon class="cls-13" points="118.77 49.15 113.54 43.92 118.77 43.92 124 43.92 118.77 49.15"/></g><g class="cls-12"><rect class="cls-13" x="70.77" y="34.32" width="2.74" height="9.77"/><polygon class="cls-13" points="72.25 48.45 67.02 43.22 72.25 43.22 77.48 43.22 72.25 48.45"/><polygon class="cls-13" points="72.25 31.68 77.48 36.91 72.25 36.91 67.02 36.91 72.25 31.68"/></g><path class="cls-13" d="M101.05,46.76l-7-4.52a1.22,1.22,0,0,1-.36-1.68h0a1.24,1.24,0,0,1,1.69-.36l6.95,4.52c.56.37.51,1,.15,1.54h0C102.16,46.82,101.61,47.13,101.05,46.76Z"/><rect class="cls-14" x="97.97" y="45.21" width="1.18" height="1.64" transform="translate(41.01 -46.28) rotate(33.03)"/><rect class="cls-14" x="99.72" y="46.35" width="1.18" height="1.64" transform="translate(41.91 -47.05) rotate(33.03)"/><path class="cls-15" d="M94.08,36.06a3.92,3.92,0,1,0,1.15,5.42A3.92,3.92,0,0,0,94.08,36.06Zm-3.25,5.06A2,2,0,1,1,93,37.82a2,2,0,0,1-2.15,3.3Z"/><g class="cls-16"><path class="cls-17" d="M323,36.74c-4.85-3.94-1.6-7.89,3.23-4"/></g></g></g></svg>
