<svg xmlns="http://www.w3.org/2000/svg" xmlns:xlink="http://www.w3.org/1999/xlink" viewBox="0 0 87.75 100"><defs><style>.cls-1{fill:none;}.cls-2{clip-path:url(#clip-path);}.cls-3{fill:#970b27;stroke:#970b27;stroke-width:10px;}.cls-3,.cls-5,.cls-6,.cls-8{stroke-miterlimit:10;}.cls-4{fill:#6b0816;}.cls-5{fill:#c6c6c6;}.cls-5,.cls-6,.cls-8{stroke:#878787;}.cls-10,.cls-6,.cls-7,.cls-8,.cls-9{fill:#fff;}.cls-7{font-size:10.77px;font-family:HalisR-SBlack, Halis R;}.cls-8{stroke-width:0.75px;}.cls-9{opacity:0.07;}.cls-10,.cls-12{font-size:6.98px;font-family:Hind-SemiBold, Hind;font-weight:700;}.cls-11{font-size:8.73px;}.cls-12{fill:#e6332a;}</style><clipPath id="clip-path" transform="translate(0 -0.37)"><circle class="cls-1" cx="46.86" cy="41.1" r="41.1"/></clipPath></defs><title>Element 270</title><g id="Ebene_2" data-name="Ebene 2"><g id="Ebene_2-2" data-name="Ebene 2"><g class="cls-2"><circle class="cls-3" cx="46.87" cy="40.88" r="35.88"/><path class="cls-4" d="M66.56,21.36a21.42,21.42,0,0,1,1.8,2A8.82,8.82,0,0,1,72,22c2.1.9,4.11,1.88,4.1,2.1s-3.1-1.1-4.2-1.4a8.46,8.46,0,0,0-3,1.2c-.1.3,0,.4,0,.4a9,9,0,0,1,1.4.6c.2.4.4,1.6.1,1.9-.1.1-.06.14-.4.2s-1.46,1.77-2.54,2.85-5,.25-5,.25.23,2.25.3,4.5c.39.71.9.9,2.3,1.5,2.5.3,4.91-.06,5,.2s-4.86.58-5.3.5-1.5-.5-2.6-.8a10.44,10.44,0,0,0,2.3,2.9c2,.6,4,1.2,4,1.4a33.21,33.21,0,0,1-4.4-.6,26.76,26.76,0,0,1-2.31-1.75c.26.77.47,2.31,1,2.85,1.35,1.35,3.1,2.7,2.94,2.83a35.7,35.7,0,0,1-3.77-2.5c-.72-1.56-1.8-4.26-1.8-4.26H59.05a172.74,172.74,0,0,1,3.81,41C58.54,75.7,48,59.76,55.27,49.51c1.23-1.72,1.35-12.41,1.35-12.41a8.28,8.28,0,0,1-2.36-1,3.14,3.14,0,0,1-.7.1c4.59,10.52-27.5,25.7-27.5,25.7s15.18-32.09,25.7-27.5a2.59,2.59,0,0,1,.1-.7,8.19,8.19,0,0,1-1-2.37s-10.7.13-12.41,1.35c-10.26,7.29-26.19-3.27-28.35-7.58a173.16,173.16,0,0,1,41,3.8V27.78S48.39,26.7,46.83,26a34.84,34.84,0,0,1-2.5-3.78c.13-.15,1.48,1.6,2.83,2.95.54.54,2.07.75,2.85,1a24.46,24.46,0,0,1-1.75-2.31,33.21,33.21,0,0,1-.6-4.4c.2,0,.8,2,1.4,4a10.44,10.44,0,0,0,2.9,2.3c-.3-1.1-.7-2.1-.8-2.6s.24-5.39.5-5.3-.1,2.5.2,5c.6,1.4.79,1.9,1.5,2.3,2.24.07,4.5.3,4.5.3s-.84-3.88.24-5S60.9,18.3,61,18s.1-.3.2-.4c.3-.3,1.5-.1,1.9.1a9,9,0,0,1,.6,1.4s.1.1.4,0a8.65,8.65,0,0,0,1.2-3c-.3-1.1-1.62-4.2-1.4-4.2s1.2,2,2.1,4.1a8.87,8.87,0,0,1-1.4,3.6A21.42,21.42,0,0,1,66.56,21.36Z" transform="translate(0 -0.37)"/><rect class="cls-5" x="32.25" y="17.15" width="29.62" height="17.73" transform="translate(-0.14 -0.11) rotate(-0.31)"/><line class="cls-6" x1="32.22" y1="20.6" x2="61.6" y2="20.44"/><text class="cls-7" transform="translate(36.43 30.78) rotate(-0.31)">XSS</text><line class="cls-8" x1="58.62" y1="17.83" x2="60.36" y2="19.56"/><line class="cls-8" x1="60.31" y1="17.86" x2="58.59" y2="19.6"/><path class="cls-9" d="M61.65,71.59a42.43,42.43,0,0,1-35-66.4A42.44,42.44,0,1,0,77.48,68.53,42.34,42.34,0,0,1,61.65,71.59Z" transform="translate(0 -0.37)"/><text class="cls-10" transform="translate(25.81 44.66)">/CROSS/SITE/<tspan class="cls-11"><tspan x="0.72" y="10.47">SCRIPTING</tspan></tspan></text><text class="cls-12" transform="translate(36.21 65)">BASICS</text></g></g></g></svg>