<svg xmlns="http://www.w3.org/2000/svg" xmlns:xlink="http://www.w3.org/1999/xlink" viewBox="0 0 88.94 97.88"><defs><style>.cls-1,.cls-15{fill:none;}.cls-2{clip-path:url(#clip-path);}.cls-3{fill:#970b27;stroke:#706f6f;stroke-width:10px;}.cls-11,.cls-15,.cls-3,.cls-8,.cls-9{stroke-miterlimit:10;}.cls-4{fill:#6b0816;}.cls-5{fill:#dd0932;}.cls-6{fill:#c31532;}.cls-10,.cls-11,.cls-12,.cls-16,.cls-7,.cls-9{fill:#fff;}.cls-8{fill:#c6c6c6;}.cls-11,.cls-8,.cls-9{stroke:#878787;}.cls-10{font-size:7.07px;font-family:HalisR-SBlack, Halis R;}.cls-11{stroke-width:0.75px;}.cls-12,.cls-17{font-size:6.96px;}.cls-12{font-family:HalisR-Medium, Halis R;}.cls-13{letter-spacing:-0.01em;}.cls-14{font-size:8.7px;}.cls-15{stroke:#dadada;stroke-width:13px;}.cls-16{opacity:0.07;}.cls-17{fill:#e6332a;font-family:HalisR-SLight, Halis R;}.cls-18{letter-spacing:-0.04em;}.cls-19{letter-spacing:-0.15em;}</style><clipPath id="clip-path"><circle class="cls-1" cx="46.7" cy="41.95" r="41.1"/></clipPath></defs><title>Element 247</title><g id="Ebene_2" data-name="Ebene 2"><g id="Ebene_2-2" data-name="Ebene 2"><g class="cls-2"><circle class="cls-3" cx="46.7" cy="42.25" r="35.75"/><path class="cls-4" d="M66.27,22.48a18.31,18.31,0,0,1,1.79,2,8.82,8.82,0,0,1,3.57-1.39c2.09.9,4.08,1.87,4.08,2.09s-3.08-1.09-4.18-1.39a8.6,8.6,0,0,0-3,1.19c-.1.3,0,.4,0,.4a9.29,9.29,0,0,1,1.39.59c.2.4.4,1.59.1,1.89-.1.1-.05.14-.39.2s-1.46,1.77-2.53,2.84-4.93.24-4.93.24.23,2.24.3,4.47c.39.71.89.9,2.29,1.49,2.48.3,4.88-.06,5,.2s-4.83.59-5.26.5-1.49-.5-2.59-.8a10.54,10.54,0,0,0,2.29,2.89c2,.59,4,1.19,4,1.39a32.77,32.77,0,0,1-4.37-.6,24.46,24.46,0,0,1-2.29-1.74c.25.77.46,2.3,1,2.83,1.34,1.35,3.08,2.69,2.93,2.82a34.49,34.49,0,0,1-3.76-2.49c-.71-1.55-1.78-4.23-1.78-4.23H58.81a172.26,172.26,0,0,1,3.78,40.77c-4.29-2.14-14.78-18-7.54-28.17,1.22-1.7,1.34-12.33,1.34-12.33a8.26,8.26,0,0,1-2.35-1,2.58,2.58,0,0,1-.69.1C57.91,47.64,26,62.72,26,62.72S41.1,30.84,51.56,35.39a2.58,2.58,0,0,1,.1-.69,8.14,8.14,0,0,1-1-2.35S40,32.48,38.29,33.69c-10.19,7.24-26-3.25-28.17-7.54a172.26,172.26,0,0,1,40.77,3.78V28.86s-2.68-1.07-4.23-1.78a36,36,0,0,1-2.49-3.76c.13-.15,1.48,1.59,2.82,2.93.53.54,2.06.75,2.83,1A24.46,24.46,0,0,1,48.08,25a32.77,32.77,0,0,1-.6-4.37c.2,0,.8,2,1.39,4a10.54,10.54,0,0,0,2.89,2.29c-.3-1.1-.7-2.09-.8-2.59s.24-5.35.5-5.26-.1,2.48.2,5c.59,1.39.78,1.89,1.49,2.28,2.23.07,4.47.3,4.47.3s-.83-3.86.24-4.93,2.78-2.18,2.84-2.52.1-.3.2-.4c.3-.3,1.49-.1,1.89.1a8.28,8.28,0,0,1,.59,1.39s.1.1.4,0a8.6,8.6,0,0,0,1.19-3c-.29-1.1-1.6-4.17-1.39-4.18s1.2,2,2.09,4.08a8.91,8.91,0,0,1-1.39,3.58A21.16,21.16,0,0,1,66.27,22.48Z"/><polygon class="cls-5" points="34.66 22.3 34.66 22.3 34.66 22.3 29.76 28.04 35.38 35.65 42.26 35.53 42.26 35.53 42.26 35.53 45.82 29.64 42.08 20.96 34.66 22.3"/><polygon class="cls-6" points="34.66 22.3 35.5 23.77 35.5 23.76 39.35 30.47 39.35 30.47 42.26 35.53 42.26 35.53 45.82 29.64 42.08 20.96 34.66 22.3"/><path class="cls-7" d="M35.5,23.76l1.11,10.85h0l1.44-.82h0l-.34-2.38L41,29.53,42.86,31h0l1.44-.83h0l-8.8-6.43Zm4.29,4.87-2.25,1.29-.43-3.35Z"/><rect class="cls-8" x="43.7" y="22.89" width="19.45" height="11.64" transform="translate(8.84 -12.41) rotate(14.44)"/><line class="cls-9" x1="44.84" y1="23.03" x2="63.53" y2="27.84"/><text class="cls-10" transform="translate(45.75 30.15) rotate(14.44)">XSS</text><line class="cls-11" x1="62.07" y1="25.68" x2="62.89" y2="27.07"/><line class="cls-11" x1="63.14" y1="25.98" x2="61.76" y2="26.8"/><text class="cls-12" transform="translate(23.28 43.36)">/CR<tspan class="cls-13" x="12.47" y="0">O</tspan><tspan x="18.05" y="0">SS/SITE/</tspan><tspan class="cls-14"><tspan x="0.05" y="10.44">SCRIPTING</tspan></tspan></text><circle class="cls-15" cx="46.7" cy="42.25" r="35.75"/><path class="cls-16" d="M61.42,72.48A42.28,42.28,0,0,1,26.52,6.32,42.29,42.29,0,1,0,77.19,69.43,42.14,42.14,0,0,1,61.42,72.48Z"/><text class="cls-17" transform="translate(28.38 62.17)">A<tspan class="cls-18" x="4.63" y="0">D</tspan><tspan class="cls-19" x="9.51" y="0">V</tspan><tspan x="13.11" y="0">ANCED</tspan></text></g></g></g></svg>
