<?xml version="1.0" encoding="UTF-8" standalone="no"?>
<svg
   xmlns:dc="http://purl.org/dc/elements/1.1/"
   xmlns:cc="http://creativecommons.org/ns#"
   xmlns:rdf="http://www.w3.org/1999/02/22-rdf-syntax-ns#"
   xmlns:svg="http://www.w3.org/2000/svg"
   xmlns="http://www.w3.org/2000/svg"
   xmlns:sodipodi="http://sodipodi.sourceforge.net/DTD/sodipodi-0.dtd"
   xmlns:inkscape="http://www.inkscape.org/namespaces/inkscape"
   viewBox="0 0 97.509916 97.509921"
   version="1.1"
   id="svg348"
   sodipodi:docname="cross-site-scripting_advanced.svg"
   inkscape:version="0.92.3 (2405546, 2018-03-11)"
   width="97.509918"
   height="97.509918">
  <metadata
     id="metadata352">
    <rdf:RDF>
      <cc:Work
         rdf:about="">
        <dc:format>image/svg+xml</dc:format>
        <dc:type
           rdf:resource="http://purl.org/dc/dcmitype/StillImage" />
        <dc:title>Element 247</dc:title>
      </cc:Work>
    </rdf:RDF>
  </metadata>
  <sodipodi:namedview
     pagecolor="#ffffff"
     bordercolor="#666666"
     borderopacity="1"
     objecttolerance="10"
     gridtolerance="10"
     guidetolerance="10"
     inkscape:pageopacity="0"
     inkscape:pageshadow="2"
     inkscape:window-width="1841"
     inkscape:window-height="879"
     id="namedview350"
     showgrid="false"
     inkscape:zoom="4.8222314"
     inkscape:cx="4.784742"
     inkscape:cy="47.660535"
     inkscape:window-x="79"
     inkscape:window-y="27"
     inkscape:window-maximized="1"
     inkscape:current-layer="layer6"
     fit-margin-top="0"
     fit-margin-left="0"
     fit-margin-right="0"
     fit-margin-bottom="0" />
  <defs
     id="defs298">
    <style
       id="style293">.cls-1,.cls-15{fill:none;}.cls-2{clip-path:url(#clip-path);}.cls-3{fill:#970b27;stroke:#706f6f;stroke-width:10px;}.cls-11,.cls-15,.cls-3,.cls-8,.cls-9{stroke-miterlimit:10;}.cls-4{fill:#6b0816;}.cls-5{fill:#dd0932;}.cls-6{fill:#c31532;}.cls-10,.cls-11,.cls-12,.cls-16,.cls-7,.cls-9{fill:#fff;}.cls-8{fill:#c6c6c6;}.cls-11,.cls-8,.cls-9{stroke:#878787;}.cls-10{font-size:7.07px;font-family:HalisR-SBlack, Halis R;}.cls-11{stroke-width:0.75px;}.cls-12,.cls-17{font-size:6.96px;}.cls-12{font-family:HalisR-Medium, Halis R;}.cls-13{letter-spacing:-0.01em;}.cls-14{font-size:8.7px;}.cls-15{stroke:#dadada;stroke-width:13px;}.cls-16{opacity:0.07;}.cls-17{fill:#e6332a;font-family:HalisR-SLight, Halis R;}.cls-18{letter-spacing:-0.04em;}.cls-19{letter-spacing:-0.15em;}</style>
    <clipPath
       id="clip-path">
      <circle
         class="cls-1"
         cx="46.700001"
         cy="41.950001"
         r="41.099998"
         id="circle295"
         style="fill:none" />
    </clipPath>
    <clipPath
       clipPathUnits="userSpaceOnUse"
       id="clipPath5206">
      <ellipse
         style="display:inline;opacity:1;vector-effect:none;fill:none;fill-opacity:1;stroke:#000000;stroke-width:0.01134289;stroke-linecap:butt;stroke-linejoin:miter;stroke-miterlimit:4;stroke-dasharray:none;stroke-dashoffset:0;stroke-opacity:1"
         id="ellipse5208"
         cx="46.718029"
         cy="45.37402"
         rx="48.71244"
         ry="48.711475" />
    </clipPath>
  </defs>
  <title
     id="title300">Element 247</title>
  <g
     inkscape:groupmode="layer"
     id="layer2"
     inkscape:label="button"
     transform="translate(2.1111145,3.3359413)">
    <g
       inkscape:groupmode="layer"
       id="layer8"
       inkscape:label="background">
      <circle
         style="fill:#970b27;stroke:#706f6f;stroke-width:11.53963566px;stroke-miterlimit:10"
         class="cls-3"
         cx="46.643845"
         cy="45.419018"
         r="41.254196"
         id="circle302" />
      <path
         style="fill:#6b0816;stroke-width:1.15396357"
         class="cls-4"
         d="m 69.226908,22.605159 a 21.129073,21.129073 0 0 1 2.065594,2.307928 10.177959,10.177959 0 0 1 4.119649,-1.60401 c 2.411785,1.038567 4.708172,2.157912 4.708172,2.411785 0,0.253871 -3.554208,-1.257822 -4.823568,-1.60401 a 9.9240865,9.9240865 0 0 0 -3.46189,1.373217 c -0.115396,0.346189 0,0.461585 0,0.461585 a 10.720321,10.720321 0 0 1 1.604009,0.680838 c 0.230793,0.461586 0.461585,1.834803 0.115396,2.180991 -0.115396,0.115397 -0.0577,0.161556 -0.450045,0.230794 -0.392348,0.06924 -1.684786,2.042514 -2.919529,3.277256 -1.23474,1.23474 -5.689039,0.276951 -5.689039,0.276951 0,0 0.265412,2.584878 0.346189,5.158217 0.450045,0.819314 1.027027,1.038568 2.642576,1.719405 2.86183,0.34619 5.631343,-0.06924 5.769818,0.230793 0.138476,0.300031 -5.573644,0.680839 -6.069848,0.576982 -0.496205,-0.10386 -1.719406,-0.576982 -2.988767,-0.923171 a 12.162776,12.162776 0 0 0 2.642577,3.334955 c 2.307928,0.680838 4.615854,1.373216 4.615854,1.60401 a 37.815386,37.815386 0 0 1 -5.04282,-0.69238 28.225948,28.225948 0 0 1 -2.642577,-2.007896 c 0.288492,0.888552 0.530824,2.654116 1.153964,3.265718 1.54631,1.557851 3.554207,3.104161 3.381113,3.254177 a 39.800202,39.800202 0 0 1 -4.338903,-2.873371 c -0.819314,-1.788642 -2.054055,-4.881264 -2.054055,-4.881264 h -1.292439 a 198.78176,198.78176 0 0 1 4.361982,47.047094 C 60.029818,84.94227 47.924741,66.640408 56.279436,54.9046 57.687272,52.942861 57.825748,40.676229 57.825748,40.676229 a 9.5317388,9.5317388 0 0 1 -2.711815,-1.153964 2.9772259,2.9772259 0 0 1 -0.796235,0.115397 c 5.262074,12.00122 -31.560903,29.402991 -31.560903,29.402991 0,0 17.42485,-36.788358 29.495308,-31.537825 A 2.9772259,2.9772259 0 0 1 52.3675,36.706594 9.3932632,9.3932632 0 0 1 51.213537,33.99478 c 0,0 -12.301252,0.150016 -14.27453,1.546312 C 25.180118,43.895787 6.9359556,31.790709 4.4318543,26.840206 a 198.78176,198.78176 0 0 1 47.0470937,4.361982 v -1.234741 c 0,0 -3.092621,-1.234741 -4.881266,-2.054055 A 41.542687,41.542687 0 0 1 43.724313,23.57449 c 0.150015,-0.173096 1.707866,1.8348 3.254177,3.381112 0.611601,0.623141 2.377165,0.865473 3.265717,1.153964 A 28.225948,28.225948 0 0 1 48.23631,25.513148 37.815386,37.815386 0 0 1 47.543932,20.470327 c 0.230793,0 0.923171,2.307927 1.604009,4.615855 a 12.162776,12.162776 0 0 0 3.334955,2.642576 c -0.346189,-1.26936 -0.807775,-2.411784 -0.923171,-2.988766 -0.115396,-0.576982 0.276952,-6.173705 0.576982,-6.069849 0.30003,0.103861 -0.115396,2.861831 0.230793,5.769819 0.680838,1.604008 0.900092,2.18099 1.719406,2.631037 2.573338,0.08078 5.158216,0.346189 5.158216,0.346189 0,0 -0.957789,-4.4543 0.276952,-5.689041 1.23474,-1.23474 3.208019,-2.51564 3.277256,-2.907988 0.06924,-0.392348 0.115396,-0.346189 0.230793,-0.461586 0.346188,-0.346188 1.719406,-0.115396 2.180991,0.115397 a 9.5548182,9.5548182 0 0 1 0.680839,1.60401 c 0,0 0.115397,0.115396 0.461585,0 a 9.9240865,9.9240865 0 0 0 1.373216,-3.461891 c -0.334649,-1.269361 -1.846341,-4.812029 -1.604008,-4.823568 0.242332,-0.01154 1.384755,2.307927 2.411784,4.708171 a 10.281815,10.281815 0 0 1 -1.604011,4.131189 24.417868,24.417868 0 0 1 2.296389,1.973278 z"
         id="path304"
         inkscape:connector-curvature="0" />
      <circle
         style="fill:none;stroke:#dadada;stroke-width:15.00152588px;stroke-miterlimit:10"
         class="cls-15"
         cx="46.643845"
         cy="45.419018"
         r="41.254196"
         id="circle332" />
    </g>
    <g
       inkscape:groupmode="layer"
       id="layer7"
       inkscape:label="content"
       style="display:inline">
      <polygon
         style="fill:#dd0932"
         class="cls-5"
         points="45.82,29.64 42.08,20.96 34.66,22.3 29.76,28.04 35.38,35.65 42.26,35.53 "
         id="polygon306"
         transform="matrix(1.1539635,0,0,1.1539635,-7.2462569,-3.3359411)" />
      <polygon
         style="fill:#c31532"
         class="cls-6"
         points="42.26,35.53 45.82,29.64 42.08,20.96 34.66,22.3 35.5,23.77 35.5,23.76 39.35,30.47 "
         id="polygon308"
         transform="matrix(1.1539635,0,0,1.1539635,-7.2462569,-3.3359411)" />
      <path
         style="fill:#ffffff;stroke-width:1.15396357"
         class="cls-7"
         d="m 33.719448,24.082234 1.2809,12.520504 v 0 l 1.661708,-0.94625 v 0 l -0.392348,-2.746435 3.79654,-2.16945 2.146373,1.696326 v 0 l 1.661707,-0.95779 v 0 l -10.15488,-7.419985 z m 4.950504,5.619801 -2.596417,1.488614 -0.496205,-3.865779 z"
         id="path310"
         inkscape:connector-curvature="0" />
      <rect
         style="fill:#c6c6c6;stroke:#878787;stroke-width:1.15396357;stroke-miterlimit:10"
         class="cls-8"
         x="48.886684"
         y="8.5785589"
         width="22.444592"
         height="13.432136"
         transform="rotate(14.44)"
         id="rect312" />
      <line
         style="fill:#ffffff;stroke:#878787;stroke-width:1.15396357;stroke-miterlimit:10"
         class="cls-9"
         x1="44.497471"
         y1="23.23984"
         x2="66.065048"
         y2="28.790405"
         id="line314" />
      <text
         style="font-size:8.15852261px;font-family:HalisR-SBlack, 'Halis R';fill:#ffffff;stroke-width:1.15396357"
         class="cls-10"
         transform="rotate(14.44)"
         id="text316"
         x="51.95277"
         y="19.104324">XSS</text>
      <line
         style="fill:#ffffff;stroke:#878787;stroke-width:0.86547267px;stroke-miterlimit:10"
         class="cls-11"
         x1="64.380264"
         y1="26.297844"
         x2="65.326508"
         y2="27.901852"
         id="line318" />
      <line
         style="fill:#ffffff;stroke:#878787;stroke-width:0.86547267px;stroke-miterlimit:10"
         class="cls-11"
         x1="65.614998"
         y1="26.644032"
         x2="64.02253"
         y2="27.590282"
         id="line320" />
      <text
         style="font-size:8.03158569px;font-family:HalisR-Medium, 'Halis R';fill:#ffffff;stroke-width:1.15396357"
         class="cls-12"
         id="text330"
         x="19.618013"
         y="46.699917">/CR<tspan
   class="cls-13"
   x="34.007942"
   y="46.699917"
   id="tspan322"
   style="letter-spacing:-0.01em;stroke-width:1.15396357">O</tspan>
<tspan
   x="40.44706"
   y="46.699917"
   id="tspan324"
   style="stroke-width:1.15396357">SS/SITE/</tspan>
<tspan
   class="cls-14"
   id="tspan328"
   style="font-size:10.03948307px;stroke-width:1.15396357">
  <tspan
     x="19.675711"
     y="58.747295"
     id="tspan326"
     style="stroke-width:1.15396357">SCRIPTING</tspan>
</tspan>
</text>
      <text
         style="font-size:8.03158569px;font-family:HalisR-SLight, 'Halis R';fill:#e6332a;stroke-width:1.15396357"
         class="cls-17"
         id="text342"
         x="25.503227"
         y="68.405975">A<tspan
   class="cls-18"
   x="30.846077"
   y="68.405975"
   id="tspan336"
   style="letter-spacing:-0.04em;stroke-width:1.15396357">D</tspan>
<tspan
   class="cls-19"
   x="36.477421"
   y="68.405975"
   id="tspan338"
   style="letter-spacing:-0.15000001em;stroke-width:1.15396357">V</tspan>
<tspan
   x="40.631695"
   y="68.405975"
   id="tspan340"
   style="stroke-width:1.15396357">ANCED</tspan>
</text>
    </g>
    <g
       inkscape:groupmode="layer"
       id="layer6"
       inkscape:label="gleam"
       style="display:inline">
      <path
         class="cls-16"
         d="M 65.611716,82.507163 A 52.459061,52.459061 0 0 1 22.309417,0.41890724 52.471468,52.471468 0 1 0 85.178399,78.722865 52.285355,52.285355 0 0 1 65.611716,82.507163 Z"
         id="path334"
         style="opacity:0.15;fill:#ffffff;stroke-width:1.24075353"
         inkscape:connector-curvature="0"
         clip-path="url(#clipPath5206)" />
    </g>
  </g>
  <g
     id="Ebene_2"
     data-name="Ebene 2"
     transform="translate(2.1111145,3.3359413)">
    <g
       id="Ebene_2-2"
       data-name="Ebene 2">
      <g
         class="cls-2"
         clip-path="url(#clip-path)"
         id="g344" />
    </g>
  </g>
  <g
     inkscape:groupmode="layer"
     id="layer1"
     inkscape:label="edge"
     transform="translate(2.1111145,3.3359413)" />
</svg>
