<?xml version="1.0" encoding="UTF-8" standalone="no"?>
<svg
   xmlns:osb="http://www.openswatchbook.org/uri/2009/osb"
   xmlns:dc="http://purl.org/dc/elements/1.1/"
   xmlns:cc="http://creativecommons.org/ns#"
   xmlns:rdf="http://www.w3.org/1999/02/22-rdf-syntax-ns#"
   xmlns:svg="http://www.w3.org/2000/svg"
   xmlns="http://www.w3.org/2000/svg"
   xmlns:sodipodi="http://sodipodi.sourceforge.net/DTD/sodipodi-0.dtd"
   xmlns:inkscape="http://www.inkscape.org/namespaces/inkscape"
   width="25.7799mm"
   height="25.7799mm"
   viewBox="0 0 25.7799 25.779899"
   version="1.1"
   id="svg1709"
   inkscape:version="1.0 (4035a4f, 2020-05-01)"
   sodipodi:docname="cryptography-advanced_pt_II.svg">
  <defs
     id="defs1703">
    <linearGradient
       osb:paint="solid"
       id="linearGradient1106">
      <stop
         id="stop1104"
         offset="0"
         style="stop-color:#000000;stop-opacity:1;" />
    </linearGradient>
    <clipPath
       id="clipPath1706"
       clipPathUnits="userSpaceOnUse">
      <circle
         r="9.7385139"
         cy="156.39888"
         cx="99.772911"
         id="circle1708"
         style="opacity:1;fill:#993727;fill-opacity:1;stroke:none;stroke-width:0.1580953;stroke-linecap:round;stroke-linejoin:miter;stroke-miterlimit:4;stroke-dasharray:none;stroke-opacity:1" />
    </clipPath>
    <inkscape:perspective
       sodipodi:type="inkscape:persp3d"
       inkscape:vp_x="0 : 526.18109 : 1"
       inkscape:vp_y="0 : 1000 : 0"
       inkscape:vp_z="744.09448 : 526.18109 : 1"
       inkscape:persp3d-origin="372.04724 : 350.78739 : 1"
       id="perspective10" />
    <inkscape:perspective
       id="perspective2390"
       inkscape:persp3d-origin="372.04724 : 350.78739 : 1"
       inkscape:vp_z="744.09448 : 526.18109 : 1"
       inkscape:vp_y="0 : 1000 : 0"
       inkscape:vp_x="0 : 526.18109 : 1"
       sodipodi:type="inkscape:persp3d" />
  </defs>
  <sodipodi:namedview
     inkscape:document-rotation="0"
     inkscape:window-maximized="1"
     inkscape:window-y="23"
     inkscape:window-x="0"
     inkscape:window-height="949"
     inkscape:window-width="1680"
     fit-margin-bottom="0"
     fit-margin-right="0"
     fit-margin-left="0"
     fit-margin-top="0"
     showgrid="false"
     inkscape:current-layer="layer5"
     inkscape:document-units="mm"
     inkscape:cy="44.152878"
     inkscape:cx="41.219426"
     inkscape:zoom="6.3040685"
     inkscape:pageshadow="2"
     inkscape:pageopacity="0.0"
     borderopacity="1.0"
     bordercolor="#666666"
     pagecolor="#ffffff"
     id="base" />
  <metadata
     id="metadata1706">
    <rdf:RDF>
      <cc:Work
         rdf:about="">
        <dc:format>image/svg+xml</dc:format>
        <dc:type
           rdf:resource="http://purl.org/dc/dcmitype/StillImage" />
        <dc:title />
      </cc:Work>
    </rdf:RDF>
  </metadata>
  <g
     style="display:inline"
     transform="translate(-76.098697,-100.99309)"
     id="layer1"
     inkscape:groupmode="layer"
     inkscape:label="button">
    <g
       transform="translate(76.098697,100.99309)"
       inkscape:label="background"
       id="layer8"
       inkscape:groupmode="layer">
      <circle
         transform="translate(-76.098696,-100.99309)"
         style="display:inline;fill:#af0000;fill-opacity:1;stroke:#dadada;stroke-width:3.14542460000000013px;stroke-miterlimit:10;stroke-opacity:1"
         id="circle129-7"
         r="11.317238"
         cy="113.88304"
         cx="88.988647"
         class="cls-4" />
      <path
         clip-path="url(#clipPath1706)"
         style="display:inline;fill:#6c030f;fill-opacity:1;stroke-width:0.31454244"
         inkscape:connector-curvature="0"
         id="path131-3"
         d="m 106.08657,150.08769 a 4.8376628,4.8376628 0 0 1 0.53787,0.60707 2.6578838,2.6578838 0 0 1 1.09461,-0.42463 c 0.62908,0.27365 1.25817,0.56932 1.25817,0.62908 0,0.0598 -0.94363,-0.33656 -1.27704,-0.42778 a 2.5666665,2.5666665 0 0 0 -0.90903,0.36487 c -0.0315,0.0912 0,0.12267 0,0.12267 a 2.7082107,2.7082107 0 0 1 0.42463,0.18244 c 0.0598,0.11953 0.11953,0.48439 0.0314,0.57561 -0.0314,0.0315 -0.0189,0.044 -0.12267,0.0629 -0.1038,0.0189 -0.44351,0.53787 -0.77378,0.86814 -0.33027,0.33027 -1.50665,0.0723 -1.50665,0.0723 0,0 0.0692,0.6857 0.0912,1.36825 0.11952,0.21704 0.27365,0.27365 0.69828,0.45609 0.76119,0.0912 1.49408,-0.0189 1.52238,0.0598 0.0283,0.0786 -1.47834,0.1793 -1.61045,0.15098 -0.13211,-0.0283 -0.45609,-0.15098 -0.79265,-0.24219 a 3.1454246,3.1454246 0 0 0 0.70143,0.88071 c 0.60707,0.18244 1.21413,0.36488 1.21413,0.42779 a 10.25723,10.25723 0 0 1 -1.3368,-0.18244 7.8446892,7.8446892 0 0 1 -0.70143,-0.53156 c 0.0786,0.23275 0.14154,0.70143 0.31454,0.86498 0.41205,0.4089 0.94363,0.82095 0.89645,0.85871 a 10.505718,10.505718 0 0 1 -1.14808,-0.75805 c -0.21703,-0.47496 -0.54416,-1.29592 -0.54416,-1.29592 h -0.31454 a 52.475119,52.475119 0 0 1 1.15751,12.46847 c -1.31164,-0.65739 -4.51997,-5.49821 -2.30559,-8.61533 0.37116,-0.51899 0.41205,-3.7745 0.41205,-3.7745 a 2.4848854,2.4848854 0 0 1 -0.7203,-0.31454 0.88386433,0.88386433 0 0 1 -0.21075,0.0283 c 1.39343,3.1989 -8.357393,7.81009 -8.357393,7.81009 0,0 4.58288,-9.73823 7.781783,-8.34167 a 0.88700972,0.88700972 0 0 1 0.0283,-0.21388 2.4848854,2.4848854 0 0 1 -0.31454,-0.72031 c 0,0 -3.249223,0.0409 -3.774513,0.41205 -3.11712,2.20178 -7.957931,-0.99396 -8.61532,-2.3056 a 52.670136,52.670136 0 0 1 12.471613,1.16695 V 152.063 c 0,0 -0.82096,-0.33027 -1.29592,-0.5473 a 10.505718,10.505718 0 0 1 -0.758043,-1.14809 c 0.0377,-0.0472 0.44979,0.4844 0.858703,0.89645 0.16356,0.16356 0.62908,0.22647 0.86813,0.31454 a 7.3005304,7.3005304 0 0 1 -0.53472,-0.70143 9.7508163,9.7508163 0 0 1 -0.19187,-1.36826 c 0.0598,0 0.2422,0.60707 0.42463,1.21728 a 3.1863152,3.1863152 0 0 0 0.8933,0.70772 c -0.0912,-0.33656 -0.21389,-0.62908 -0.24219,-0.7895 -0.0283,-0.16041 0.0724,-1.63876 0.15098,-1.61045 0.0786,0.0283 -0.0315,0.75804 0.0598,1.51923 0.18243,0.42464 0.24219,0.57876 0.45608,0.69829 0.68256,0.022 1.36826,0.0912 1.36826,0.0912 0,0 -0.25478,-1.17954 0.0755,-1.50666 0.33027,-0.32713 0.84927,-0.66998 0.86499,-0.77378 0.0157,-0.10379 0.0314,-0.0912 0.0629,-0.11952 0.0912,-0.0912 0.45609,-0.0315 0.57562,0.0283 a 2.8466092,2.8466092 0 0 1 0.18243,0.42463 c 0,0 0.0314,0.0315 0.12267,0 a 2.5666665,2.5666665 0 0 0 0.35229,-0.91846 c -0.0912,-0.33656 -0.49383,-1.27391 -0.42463,-1.27705 0.0692,-0.003 0.36172,0.60707 0.62909,1.25817 a 2.6421567,2.6421567 0 0 1 -0.40576,1.08832 4.8376628,4.8376628 0 0 1 0.60706,0.54101 z"
         class="cls-5"
         transform="translate(-86.908836,-143.51764)" />
    </g>
    <g
       transform="translate(76.098697,100.99309)"
       inkscape:label="content"
       id="layer10"
       inkscape:groupmode="layer"
       style="display:inline">
      <text
         id="text7112"
         y="16.078516"
         x="12.988573"
         style="font-style:normal;font-weight:normal;font-size:1.88534px;line-height:1.25;font-family:sans-serif;letter-spacing:0px;word-spacing:0px;display:inline;fill:#dbdbdb;fill-opacity:1;stroke:none;stroke-width:0.17675"
         xml:space="preserve"><tspan
           id="tspan1804"
           style="font-style:normal;font-variant:normal;font-weight:bold;font-stretch:normal;font-size:2.35668px;font-family:hind;-inkscape-font-specification:'hind Bold';text-align:center;text-anchor:middle;fill:#dbdbdb;fill-opacity:1;stroke-width:0.17675"
           y="16.078516"
           x="12.988573"
           sodipodi:role="line">CRYPTOGRAPHY</tspan><tspan
           id="tspan1808"
           style="font-style:normal;font-variant:normal;font-weight:bold;font-stretch:normal;font-size:2.35668px;font-family:hind;-inkscape-font-specification:'hind Bold';text-align:center;text-anchor:middle;fill:#dbdbdb;fill-opacity:1;stroke-width:0.17675"
           y="19.024366"
           x="12.988573"
           sodipodi:role="line">ADVANCED II</tspan></text>
    </g>
    <g
       inkscape:groupmode="layer"
       id="layer5"
       inkscape:label="eliptic curve">
      <path
         style="fill:#af0000;fill-rule:evenodd;stroke:#dada3d;stroke-width:0.264583;stop-color:#000000"
         d=""
         title="y^2=x^3-x+1"
         id="path53" />
      <g
         style="fill-opacity:1;stroke:#dbdbdb;stroke-opacity:1;fill:none;fill-rule:evenodd;stroke-width:6.06110099;stroke-miterlimit:4;stroke-dasharray:none"
         inkscape:label="Layer 1"
         id="layer1-5"
         transform="matrix(0.03943178,0,0,0.03943178,88.225672,117.46323)">
        <path
           style="fill-opacity:1;fill-rule:evenodd;stroke:#dbdbdb;stroke-width:6.06110099;stroke-linecap:butt;stroke-linejoin:miter;stroke-opacity:1;fill:none;stroke-miterlimit:4;stroke-dasharray:none"
           d="m 21.715313,-81.44842 -3.030463,9.00009 -3,-9.00391 3.003906,2.99609 z"
           id="path2396" />
        <path
           style="fill-rule:evenodd;stroke:#dbdbdb;stroke-width:6.06110099;stroke-linecap:butt;stroke-linejoin:miter;stroke-opacity:1;fill-opacity:1;fill:none;stroke-miterlimit:4;stroke-dasharray:none"
           d="M 18.688756,-78.45615 V -283.46709"
           id="path3168" />
        <path
           id="path3170"
           d="m 21.715313,-280.44842 -3.030463,-9.00009 -3,9.00391 3.003906,-2.99609 z"
           style="fill-opacity:1;fill-rule:evenodd;stroke:#dbdbdb;stroke-width:6.06110099;stroke-linecap:butt;stroke-linejoin:miter;stroke-opacity:1;fill:none;stroke-miterlimit:4;stroke-dasharray:none" />
        <path
           style="fill-rule:evenodd;stroke:#dbdbdb;stroke-width:6.06110099;stroke-linecap:butt;stroke-linejoin:miter;stroke-opacity:1;fill-opacity:1;fill:none;stroke-miterlimit:4;stroke-dasharray:none"
           d="M 13.68485,-216.97568 H 23.7161"
           id="path3186" />
        <path
           id="path3192"
           d="M 13.68485,-198.97568 H 23.7161"
           style="fill-rule:evenodd;stroke:#dbdbdb;stroke-width:6.06110099;stroke-linecap:butt;stroke-linejoin:miter;stroke-opacity:1;fill-opacity:1;fill:none;stroke-miterlimit:4;stroke-dasharray:none" />
        <path
           id="path3194"
           d="M 13.68485,-234.98326 H 23.7161"
           style="fill-rule:evenodd;stroke:#dbdbdb;stroke-width:6.06110099;stroke-linecap:butt;stroke-linejoin:miter;stroke-opacity:1;fill-opacity:1;fill:none;stroke-miterlimit:4;stroke-dasharray:none" />
        <path
           id="path3198"
           d="M 13.68485,-252.99393 H 23.7161"
           style="fill-rule:evenodd;stroke:#dbdbdb;stroke-width:6.06110099;stroke-linecap:butt;stroke-linejoin:miter;stroke-opacity:1;fill-opacity:1;fill:none;stroke-miterlimit:4;stroke-dasharray:none" />
        <path
           style="fill-rule:evenodd;stroke:#dbdbdb;stroke-width:6.06110099;stroke-linecap:butt;stroke-linejoin:miter;stroke-opacity:1;fill-opacity:1;fill:none;stroke-miterlimit:4;stroke-dasharray:none"
           d="M 13.68485,-271.00151 H 23.7161"
           id="path3202" />
        <path
           id="path3204"
           d="M 13.68485,-108.96512 H 23.7161"
           style="fill-rule:evenodd;stroke:#dbdbdb;stroke-width:6.06110099;stroke-linecap:butt;stroke-linejoin:miter;stroke-opacity:1;fill-opacity:1;fill:none;stroke-miterlimit:4;stroke-dasharray:none" />
        <path
           style="fill-rule:evenodd;stroke:#dbdbdb;stroke-width:6.06110099;stroke-linecap:butt;stroke-linejoin:miter;stroke-opacity:1;fill-opacity:1;fill:none;stroke-miterlimit:4;stroke-dasharray:none"
           d="M 13.68485,-90.965122 H 23.7161"
           id="path3206" />
        <path
           style="fill-rule:evenodd;stroke:#dbdbdb;stroke-width:6.06110099;stroke-linecap:butt;stroke-linejoin:miter;stroke-opacity:1;fill-opacity:1;fill:none;stroke-miterlimit:4;stroke-dasharray:none"
           d="M 13.68485,-126.9727 H 23.7161"
           id="path3208" />
        <path
           style="fill-rule:evenodd;stroke:#dbdbdb;stroke-width:6.06110099;stroke-linecap:butt;stroke-linejoin:miter;stroke-opacity:1;fill-opacity:1;fill:none;stroke-miterlimit:4;stroke-dasharray:none"
           d="M 13.68485,-144.98337 H 23.7161"
           id="path3210" />
        <path
           id="path3212"
           d="M 13.68485,-162.99095 H 23.7161"
           style="fill-rule:evenodd;stroke:#dbdbdb;stroke-width:6.06110099;stroke-linecap:butt;stroke-linejoin:miter;stroke-opacity:1;fill-opacity:1;fill:none;stroke-miterlimit:4;stroke-dasharray:none" />
        <path
           id="path3214"
           d="m -80.79953,-177.93358 -9.00009,-3.03046 9.00391,-3 -2.99609,3.00391 z"
           style="fill-opacity:1;fill-rule:evenodd;stroke:#dbdbdb;stroke-width:6.06110099;stroke-linecap:butt;stroke-linejoin:miter;stroke-opacity:1;fill:none;stroke-miterlimit:4;stroke-dasharray:none" />
        <path
           id="path3216"
           d="M -83.7918,-180.96013 H 121.21914"
           style="fill-rule:evenodd;stroke:#dbdbdb;stroke-width:6.06110099;stroke-linecap:butt;stroke-linejoin:miter;stroke-opacity:1;fill-opacity:1;fill:none;stroke-miterlimit:4;stroke-dasharray:none" />
        <path
           style="fill-opacity:1;fill-rule:evenodd;stroke:#dbdbdb;stroke-width:6.06110099;stroke-linecap:butt;stroke-linejoin:miter;stroke-opacity:1;fill:none;stroke-miterlimit:4;stroke-dasharray:none"
           d="m 118.20047,-177.93358 9.00009,-3.03046 -9.00391,-3 2.99609,3.0039 z"
           id="path3218" />
        <path
           id="path3220"
           d="m 54.72773,-185.96404 v 10.03125"
           style="fill-rule:evenodd;stroke:#dbdbdb;stroke-width:6.06110099;stroke-linecap:butt;stroke-linejoin:miter;stroke-opacity:1;fill-opacity:1;fill:none;stroke-miterlimit:4;stroke-dasharray:none" />
        <path
           style="fill-rule:evenodd;stroke:#dbdbdb;stroke-width:6.06110099;stroke-linecap:butt;stroke-linejoin:miter;stroke-opacity:1;fill-opacity:1;fill:none;stroke-miterlimit:4;stroke-dasharray:none"
           d="m 36.72773,-185.96404 v 10.03125"
           id="path3222" />
        <path
           style="fill-rule:evenodd;stroke:#dbdbdb;stroke-width:6.06110099;stroke-linecap:butt;stroke-linejoin:miter;stroke-opacity:1;fill-opacity:1;fill:none;stroke-miterlimit:4;stroke-dasharray:none"
           d="m 72.73531,-185.96404 v 10.03125"
           id="path3224" />
        <path
           style="fill-rule:evenodd;stroke:#dbdbdb;stroke-width:6.06110099;stroke-linecap:butt;stroke-linejoin:miter;stroke-opacity:1;fill-opacity:1;fill:none;stroke-miterlimit:4;stroke-dasharray:none"
           d="m 90.74598,-185.96404 v 10.03125"
           id="path3226" />
        <path
           id="path3228"
           d="m 108.75356,-185.96404 v 10.03125"
           style="fill-rule:evenodd;stroke:#dbdbdb;stroke-width:6.06110099;stroke-linecap:butt;stroke-linejoin:miter;stroke-opacity:1;fill-opacity:1;fill:none;stroke-miterlimit:4;stroke-dasharray:none" />
        <path
           style="fill-rule:evenodd;stroke:#dbdbdb;stroke-width:6.06110099;stroke-linecap:butt;stroke-linejoin:miter;stroke-opacity:1;fill-opacity:1;fill:none;stroke-miterlimit:4;stroke-dasharray:none"
           d="m -53.28283,-185.96404 v 10.03125"
           id="path3230" />
        <path
           id="path3232"
           d="m -71.282831,-185.96404 v 10.03125"
           style="fill-rule:evenodd;stroke:#dbdbdb;stroke-width:6.06110099;stroke-linecap:butt;stroke-linejoin:miter;stroke-opacity:1;fill-opacity:1;fill:none;stroke-miterlimit:4;stroke-dasharray:none" />
        <path
           id="path3234"
           d="m -35.27525,-185.96404 v 10.03125"
           style="fill-rule:evenodd;stroke:#dbdbdb;stroke-width:6.06110099;stroke-linecap:butt;stroke-linejoin:miter;stroke-opacity:1;fill-opacity:1;fill:none;stroke-miterlimit:4;stroke-dasharray:none" />
        <path
           id="path3236"
           d="m -17.26458,-185.96404 v 10.03125"
           style="fill-rule:evenodd;stroke:#dbdbdb;stroke-width:6.06110099;stroke-linecap:butt;stroke-linejoin:miter;stroke-opacity:1;fill-opacity:1;fill:none;stroke-miterlimit:4;stroke-dasharray:none" />
        <path
           style="fill-rule:evenodd;stroke:#dbdbdb;stroke-width:6.06110099;stroke-linecap:butt;stroke-linejoin:miter;stroke-opacity:1;fill-opacity:1;fill:none;stroke-miterlimit:4;stroke-dasharray:none"
           d="m 0.743,-185.96404 v 10.03125"
           id="path3238" />
        <path
           style="fill-rule:evenodd;stroke:#dbdbdb;stroke-width:6.06110099;stroke-linecap:butt;stroke-linejoin:miter;stroke-opacity:1;fill-opacity:1;fill:none;stroke-miterlimit:4;stroke-dasharray:none"
           d="m 89.93485,-301.38974 c 0,0 -33.606525,105.88011 -46.688,105.88011 -13.081475,0 -31.543222,-40.30461 -48.791,-40.30461 -17.247778,0 -24.954639,27.48399 -25.414627,54.79587 -0.459988,27.31188 5.276174,54.45213 25.414627,54.45213 20.138452,0 34.29531,-40.30557 48.791,-40.30557 14.49569,0 46.68817,105.27052 46.68817,105.27052"
           id="path3255"
           sodipodi:nodetypes="czzzzzz" />
      </g>
    </g>
    <g
       style="display:none"
       inkscape:label="Icon"
       id="layer2"
       inkscape:groupmode="layer">
      <g
         style="fill:#dbdbdb;fill-opacity:1"
         transform="matrix(0.01702005,0,0,0.01702005,84.670504,105.92655)"
         id="XMLID_1336_">
        <g
           style="fill:#dbdbdb;fill-opacity:1"
           id="XMLID_354_">
          <path
             style="fill:#dbdbdb;fill-opacity:1"
             inkscape:connector-curvature="0"
             id="XMLID_1365_"
             d="m 420.527,200 h 29.082 c 4.21,12.761 16.238,22 30.391,22 17.645,0 32,-14.355 32,-32 0,-17.645 -14.355,-32 -32,-32 -14.153,0 -26.181,9.239 -30.391,22 h -29.082 v -34.686 c 0,-4.981 -3.665,-9.202 -8.597,-9.901 -10.476,-1.485 -20.855,-3.498 -31.098,-6.012 l 15.122,-27.9 H 480 c 5.523,0 10,-4.478 10,-10 V 62.391 C 502.761,58.181 512,46.153 512,32 512,14.355 497.645,0 480,0 c -17.645,0 -32,14.356 -32,32 0,14.153 9.239,26.182 22,30.391 V 81.5 h -80 c -3.669,0 -7.044,2.009 -8.792,5.234 l -20.13,37.14 c -35.626,-11.213 -69.214,-28.642 -98.98,-51.547 -3.595,-2.768 -8.603,-2.768 -12.197,0 -29.765,22.905 -63.353,40.334 -98.98,51.547 l -20.13,-37.14 C 129.043,83.508 125.668,81.5 121.999,81.5 H 42 V 62.391 C 54.761,58.182 64,46.153 64,32 64,14.356 49.645,0 32,0 14.355,0 0,14.356 0,32 0,46.153 9.239,58.182 22,62.391 V 91.5 c 0,5.522 4.477,10 10,10 h 84.046 l 15.122,27.9 c -10.244,2.514 -20.622,4.527 -31.098,6.012 -4.932,0.699 -8.597,4.921 -8.597,9.901 V 180 H 62.391 C 58.181,167.239 46.153,158 32,158 14.355,158 0,172.355 0,190 c 0,17.645 14.355,32 32,32 14.153,0 26.181,-9.239 30.391,-22 h 29.082 v 54.787 c 0,19.451 2.775,38.72 8.1,57.213 H 62.391 C 58.181,299.239 46.153,290 32,290 14.355,290 0,304.355 0,322 c 0,17.645 14.355,32 32,32 14.153,0 26.181,-9.239 30.391,-22 h 44.054 c 7.571,18.837 17.904,36.564 30.755,52.478 1.677,2.077 3.399,4.114 5.153,6.119 H 32 c -5.523,0 -10,4.477 -10,10 v 49.012 C 9.239,453.818 0,465.847 0,480 c 0,17.645 14.355,32 32,32 17.645,0 32,-14.355 32,-32 0,-14.153 -9.239,-26.182 -22,-30.391 v -39.012 h 120.463 c 26.007,22.52 57.505,38.423 91.415,45.786 0.699,0.151 1.411,0.228 2.122,0.228 0.711,0 1.423,-0.076 2.122,-0.228 33.91,-7.363 65.408,-23.266 91.415,-45.786 H 470 v 39.012 c -12.761,4.21 -22,16.238 -22,30.391 0,17.645 14.355,32 32,32 17.645,0 32,-14.355 32,-32 0,-14.153 -9.239,-26.182 -22,-30.391 v -49.012 c 0,-5.523 -4.477,-10 -10,-10 H 369.647 c 1.754,-2.005 3.475,-4.042 5.153,-6.119 12.851,-15.914 23.184,-33.641 30.755,-52.478 h 44.054 c 4.21,12.761 16.238,22 30.391,22 17.645,0 32,-14.355 32,-32 0,-17.645 -14.355,-32 -32,-32 -14.153,0 -26.181,9.239 -30.391,22 h -37.182 c 5.325,-18.493 8.1,-37.762 8.1,-57.213 z M 480,178 c 6.617,0 12,5.383 12,12 0,6.617 -5.383,12 -12,12 -6.617,0 -12,-5.383 -12,-12 0,-6.617 5.383,-12 12,-12 z m 0,-158 c 6.617,0 12,5.383 12,12 0,6.617 -5.383,12 -12,12 -6.617,0 -12,-5.383 -12,-12 0,-6.617 5.383,-12 12,-12 z M 32,20 c 6.617,0 12,5.383 12,12 0,6.617 -5.383,12 -12,12 -6.617,0 -12,-5.383 -12,-12 0,-6.617 5.383,-12 12,-12 z m 0,182 c -6.617,0 -12,-5.383 -12,-12 0,-6.617 5.383,-12 12,-12 6.617,0 12,5.383 12,12 0,6.617 -5.383,12 -12,12 z m 0,132 c -6.617,0 -12,-5.383 -12,-12 0,-6.617 5.383,-12 12,-12 6.617,0 12,5.383 12,12 0,6.617 -5.383,12 -12,12 z m 0,158 c -6.617,0 -12,-5.383 -12,-12 0,-6.617 5.383,-12 12,-12 6.617,0 12,5.383 12,12 0,6.617 -5.383,12 -12,12 z m 448,0 c -6.617,0 -12,-5.383 -12,-12 0,-6.617 5.383,-12 12,-12 6.617,0 12,5.383 12,12 0,6.617 -5.383,12 -12,12 z m 0,-182 c 6.617,0 12,5.383 12,12 0,6.617 -5.383,12 -12,12 -6.617,0 -12,-5.383 -12,-12 0,-6.617 5.383,-12 12,-12 z M 256,436.365 C 170.795,416.856 111.473,342.499 111.473,254.787 V 153.883 C 163.645,145.106 213.301,124.109 256,92.762 c 42.699,31.347 92.354,52.344 144.527,61.121 v 100.904 c 0,87.712 -59.322,162.069 -144.527,181.578 z" />
          <path
             style="fill:#dbdbdb;fill-opacity:1"
             inkscape:connector-curvature="0"
             id="XMLID_1378_"
             d="m 256,141.044 c -63.387,0 -114.956,51.569 -114.956,114.956 0,44.744 26.271,85.751 66.928,104.47 1.354,0.624 2.776,0.919 4.176,0.919 3.784,0 7.404,-2.158 9.09,-5.819 2.31,-5.018 0.115,-10.956 -4.901,-13.266 -33.589,-15.466 -55.292,-49.342 -55.292,-86.304 0,-52.359 42.597,-94.956 94.956,-94.956 52.359,0 94.956,42.597 94.956,94.956 0,36.865 -21.622,70.703 -55.086,86.208 -5.011,2.321 -7.191,8.266 -4.869,13.277 2.321,5.012 8.266,7.192 13.277,4.869 C 344.784,341.587 370.957,300.626 370.957,256 370.956,192.613 319.387,141.044 256,141.044 Z" />
          <path
             style="fill:#dbdbdb;fill-opacity:1"
             inkscape:connector-curvature="0"
             id="XMLID_1381_"
             d="m 256,181.044 c -21.505,0 -39,17.495 -39,39 v 5.466 c -11.037,0.059 -20,9.052 -20,20.103 v 26.343 c 0,32.533 26.467,59 59,59 32.533,0 59,-26.467 59,-59 v -26.343 c 0,-11.051 -8.963,-20.044 -20,-20.103 v -5.466 c 0,-21.505 -17.495,-39 -39,-39 z m 0,20 c 10.477,0 19,8.523 19,19 v 5.461 h -38 v -5.461 c 0,-10.477 8.523,-19 19,-19 z m 39,70.912 c 0,21.505 -17.495,39 -39,39 -21.505,0 -39,-17.495 -39,-39 v -26.343 c 0,-0.06 0.048,-0.108 0.108,-0.108 h 77.784 c 0.06,0 0.108,0.049 0.108,0.108 z" />
          <path
             style="fill:#dbdbdb;fill-opacity:1"
             inkscape:connector-curvature="0"
             id="XMLID_1383_"
             d="m 256,261.56 c -5.523,0 -10,4.478 -10,10 v 9.286 c 0,5.522 4.477,10 10,10 5.523,0 10,-4.478 10,-10 v -9.286 c 0,-5.522 -4.477,-10 -10,-10 z" />
          <path
             style="fill:#dbdbdb;fill-opacity:1"
             inkscape:connector-curvature="0"
             id="XMLID_1384_"
             d="m 256,350.918 c -5.523,0 -10,4.478 -10,10 v 0.038 c 0,5.522 4.477,9.98 10,9.98 5.523,0 10,-4.496 10,-10.018 0,-5.522 -4.477,-10 -10,-10 z" />
        </g>
      </g>
    </g>
    <g
       transform="translate(76.098697,100.99309)"
       inkscape:label="gleam"
       id="layer9"
       inkscape:groupmode="layer">
      <path
         transform="translate(-76.098696,-100.99309)"
         inkscape:connector-curvature="0"
         id="path133-3-3"
         d="m 83.291381,102.37078 a 13.383781,13.383781 0 0 0 -0.543637,0.25063 12.8895,12.889499 0 0 0 -6.648689,11.26133 12.8895,12.889499 0 0 0 12.889652,12.88966 12.8895,12.889499 0 0 0 9.406661,-4.10105 13.346037,13.346037 0 0 1 -4.057116,0.64131 13.380636,13.380636 0 0 1 -11.046871,-20.94188 z"
         style="display:inline;opacity:0.15;fill:#ffffff;stroke-width:0.31454244" />
    </g>
    <text
       id="text18"
       y="105.68349"
       x="86.577995"
       style="font-style:normal;font-weight:normal;font-size:8.86664px;line-height:1.25;font-family:sans-serif;letter-spacing:0px;word-spacing:0px;display:inline;fill:#000000;fill-opacity:1;stroke:none;stroke-width:0.221666"
       xml:space="preserve"><tspan
         style="stroke-width:0.221666"
         y="105.68349"
         x="86.577995"
         id="tspan16"
         sodipodi:role="line"> </tspan></text>
  </g>
  <g
     sodipodi:insensitive="true"
     style="display:none"
     inkscape:label="edge"
     id="layer4"
     inkscape:groupmode="layer">
    <ellipse
       ry="12.888245"
       rx="12.8885"
       cy="12.892049"
       cx="12.889828"
       id="path1859"
       style="display:inline;opacity:1;vector-effect:none;fill:none;fill-opacity:1;stroke:#000000;stroke-width:0.00300114;stroke-linecap:butt;stroke-linejoin:miter;stroke-miterlimit:4;stroke-dasharray:none;stroke-dashoffset:0;stroke-opacity:1" />
  </g>
</svg>
