<?xml version="1.0" encoding="UTF-8" standalone="no"?>
<!-- Created with Inkscape (http://www.inkscape.org/) -->

<svg
   xmlns:dc="http://purl.org/dc/elements/1.1/"
   xmlns:cc="http://creativecommons.org/ns#"
   xmlns:rdf="http://www.w3.org/1999/02/22-rdf-syntax-ns#"
   xmlns:svg="http://www.w3.org/2000/svg"
   xmlns="http://www.w3.org/2000/svg"
   xmlns:sodipodi="http://sodipodi.sourceforge.net/DTD/sodipodi-0.dtd"
   xmlns:inkscape="http://www.inkscape.org/namespaces/inkscape"
   width="25.7799mm"
   height="25.7799mm"
   viewBox="0 0 25.779899 25.779899"
   version="1.1"
   id="svg55"
   inkscape:version="0.92.3 (2405546, 2018-03-11)"
   sodipodi:docname="dependency_check_insecure_deserialization.svg">
  <defs
     id="defs49">
    <clipPath
       clipPathUnits="userSpaceOnUse"
       id="clipPath1706">
      <circle
         style="opacity:1;fill:#993727;fill-opacity:1;stroke:none;stroke-width:0.1580953;stroke-linecap:round;stroke-linejoin:miter;stroke-miterlimit:4;stroke-dasharray:none;stroke-opacity:1"
         id="circle1708"
         cx="99.772911"
         cy="156.39888"
         r="9.7385139" />
    </clipPath>
  </defs>
  <sodipodi:namedview
     id="base"
     pagecolor="#ffffff"
     bordercolor="#666666"
     borderopacity="1.0"
     inkscape:pageopacity="0.0"
     inkscape:pageshadow="2"
     inkscape:zoom="3.959798"
     inkscape:cx="36.30841"
     inkscape:cy="46.756342"
     inkscape:document-units="mm"
     inkscape:current-layer="layer1"
     showgrid="false"
     fit-margin-top="0"
     fit-margin-left="0"
     fit-margin-right="0"
     fit-margin-bottom="0"
     showguides="true"
     inkscape:guide-bbox="true"
     inkscape:window-width="1841"
     inkscape:window-height="879"
     inkscape:window-x="79"
     inkscape:window-y="27"
     inkscape:window-maximized="1"
     inkscape:snap-global="false" />
  <metadata
     id="metadata52">
    <rdf:RDF>
      <cc:Work
         rdf:about="">
        <dc:format>image/svg+xml</dc:format>
        <dc:type
           rdf:resource="http://purl.org/dc/dcmitype/StillImage" />
        <dc:title></dc:title>
      </cc:Work>
    </rdf:RDF>
  </metadata>
  <g
     inkscape:label="Layer 1"
     inkscape:groupmode="layer"
     id="layer1"
     transform="translate(-86.90884,-143.51764)">
    <circle
       class="cls-4"
       cx="99.79879"
       cy="156.40759"
       r="11.317238"
       id="circle129"
       style="display:inline;fill:#783825;fill-opacity:1;stroke:#dadada;stroke-width:3.1454246px;stroke-miterlimit:10;stroke-opacity:1" />
    <path
       class="cls-5"
       d="m 106.08657,150.08769 a 4.8376628,4.8376628 0 0 1 0.53787,0.60707 2.6578838,2.6578838 0 0 1 1.09461,-0.42463 c 0.62908,0.27365 1.25817,0.56932 1.25817,0.62908 0,0.0598 -0.94363,-0.33656 -1.27704,-0.42778 a 2.5666665,2.5666665 0 0 0 -0.90903,0.36487 c -0.0315,0.0912 0,0.12267 0,0.12267 a 2.7082107,2.7082107 0 0 1 0.42463,0.18244 c 0.0598,0.11953 0.11953,0.48439 0.0314,0.57561 -0.0314,0.0315 -0.0189,0.044 -0.12267,0.0629 -0.1038,0.0189 -0.44351,0.53787 -0.77378,0.86814 -0.33027,0.33027 -1.50665,0.0723 -1.50665,0.0723 0,0 0.0692,0.6857 0.0912,1.36825 0.11952,0.21704 0.27365,0.27365 0.69828,0.45609 0.76119,0.0912 1.49408,-0.0189 1.52238,0.0598 0.0283,0.0786 -1.47834,0.1793 -1.61045,0.15098 -0.13211,-0.0283 -0.45609,-0.15098 -0.79265,-0.24219 a 3.1454246,3.1454246 0 0 0 0.70143,0.88071 c 0.60707,0.18244 1.21413,0.36488 1.21413,0.42779 a 10.25723,10.25723 0 0 1 -1.3368,-0.18244 7.8446892,7.8446892 0 0 1 -0.70143,-0.53156 c 0.0786,0.23275 0.14154,0.70143 0.31454,0.86498 0.41205,0.4089 0.94363,0.82095 0.89645,0.85871 a 10.505718,10.505718 0 0 1 -1.14808,-0.75805 c -0.21703,-0.47496 -0.54416,-1.29592 -0.54416,-1.29592 h -0.31454 a 52.475119,52.475119 0 0 1 1.15751,12.46847 c -1.31164,-0.65739 -4.51997,-5.49821 -2.30559,-8.61533 0.37116,-0.51899 0.41205,-3.7745 0.41205,-3.7745 a 2.4848854,2.4848854 0 0 1 -0.7203,-0.31454 0.88386433,0.88386433 0 0 1 -0.21075,0.0283 c 1.39343,3.1989 -8.357393,7.81009 -8.357393,7.81009 0,0 4.58288,-9.73823 7.781783,-8.34167 a 0.88700972,0.88700972 0 0 1 0.0283,-0.21388 2.4848854,2.4848854 0 0 1 -0.31454,-0.72031 c 0,0 -3.249223,0.0409 -3.774513,0.41205 -3.11712,2.20178 -7.957931,-0.99396 -8.61532,-2.3056 a 52.670136,52.670136 0 0 1 12.471613,1.16695 V 152.063 c 0,0 -0.82096,-0.33027 -1.29592,-0.5473 a 10.505718,10.505718 0 0 1 -0.758043,-1.14809 c 0.0377,-0.0472 0.44979,0.4844 0.858703,0.89645 0.16356,0.16356 0.62908,0.22647 0.86813,0.31454 a 7.3005304,7.3005304 0 0 1 -0.53472,-0.70143 9.7508163,9.7508163 0 0 1 -0.19187,-1.36826 c 0.0598,0 0.2422,0.60707 0.42463,1.21728 a 3.1863152,3.1863152 0 0 0 0.8933,0.70772 c -0.0912,-0.33656 -0.21389,-0.62908 -0.24219,-0.7895 -0.0283,-0.16041 0.0724,-1.63876 0.15098,-1.61045 0.0786,0.0283 -0.0315,0.75804 0.0598,1.51923 0.18243,0.42464 0.24219,0.57876 0.45608,0.69829 0.68256,0.022 1.36826,0.0912 1.36826,0.0912 0,0 -0.25478,-1.17954 0.0755,-1.50666 0.33027,-0.32713 0.84927,-0.66998 0.86499,-0.77378 0.0157,-0.10379 0.0314,-0.0912 0.0629,-0.11952 0.0912,-0.0912 0.45609,-0.0315 0.57562,0.0283 a 2.8466092,2.8466092 0 0 1 0.18243,0.42463 c 0,0 0.0314,0.0315 0.12267,0 a 2.5666665,2.5666665 0 0 0 0.35229,-0.91846 c -0.0912,-0.33656 -0.49383,-1.27391 -0.42463,-1.27705 0.0692,-0.003 0.36172,0.60707 0.62909,1.25817 a 2.6421567,2.6421567 0 0 1 -0.40576,1.08832 4.8376628,4.8376628 0 0 1 0.60706,0.54101 z"
       id="path131"
       inkscape:connector-curvature="0"
       style="display:inline;fill:#5c2b1c;fill-opacity:1;stroke-width:0.31454244"
       clip-path="url(#clipPath1706)" />
    <text
       xml:space="preserve"
       style="font-style:normal;font-weight:normal;font-size:2.82222223px;line-height:1.25;font-family:sans-serif;letter-spacing:0px;word-spacing:0px;display:inline;fill:#000000;fill-opacity:1;stroke:none;stroke-width:0.26458332"
       x="94.358803"
       y="156.6676"
       id="text29"><tspan
         sodipodi:role="line"
         x="94.358803"
         y="156.6676"
         style="font-style:normal;font-variant:normal;font-weight:600;font-stretch:normal;font-size:2.46944451px;line-height:0;font-family:Hind;-inkscape-font-specification:'Hind, Semi-Bold';font-variant-ligatures:normal;font-variant-caps:normal;font-variant-numeric:normal;font-feature-settings:normal;text-align:start;writing-mode:lr-tb;text-anchor:start;fill:#ffffff;stroke-width:0.26458332"
         id="tspan26">INSECURE</tspan><tspan
         sodipodi:role="line"
         x="94.358803"
         y="160.19537"
         style="font-style:normal;font-variant:normal;font-weight:600;font-stretch:normal;font-size:2.82222223px;line-height:0;font-family:Hind;-inkscape-font-specification:'Hind, Semi-Bold';font-variant-ligatures:normal;font-variant-caps:normal;font-variant-numeric:normal;font-feature-settings:normal;text-align:start;writing-mode:lr-tb;text-anchor:start;fill:#ffffff;stroke-width:0.26458332"
         id="tspan891" /><tspan
         sodipodi:role="line"
         x="94.358803"
         y="163.72316"
         style="font-style:normal;font-variant:normal;font-weight:600;font-stretch:normal;font-size:2.82222223px;line-height:0;font-family:Hind;-inkscape-font-specification:'Hind, Semi-Bold';font-variant-ligatures:normal;font-variant-caps:normal;font-variant-numeric:normal;font-feature-settings:normal;text-align:start;letter-spacing:0px;writing-mode:lr-tb;text-anchor:start;fill:#ffffff;stroke-width:0.26458332"
         id="tspan20" /></text>
    <text
       xml:space="preserve"
       style="font-style:normal;font-weight:normal;font-size:8.86664391px;line-height:1.25;font-family:sans-serif;letter-spacing:0px;word-spacing:0px;display:inline;fill:#000000;fill-opacity:1;stroke:none;stroke-width:0.2216661"
       x="101.68317"
       y="151.06877"
       id="text18"><tspan
         sodipodi:role="line"
         id="tspan16"
         x="101.68317"
         y="151.06877"
         style="stroke-width:0.2216661"> </tspan></text>
    <text
       xml:space="preserve"
       style="font-style:normal;font-weight:normal;font-size:2.82222223px;line-height:1.25;font-family:sans-serif;letter-spacing:0px;word-spacing:0px;display:inline;fill:#000000;fill-opacity:1;stroke:none;stroke-width:0.26458332"
       x="91.301826"
       y="158.47787"
       id="text24"><tspan
         sodipodi:role="line"
         id="tspan22"
         x="91.301826"
         y="158.47787"
         style="font-style:normal;font-variant:normal;font-weight:600;font-stretch:normal;font-size:2.11666656px;font-family:hind;-inkscape-font-specification:'hind Semi-Bold';fill:#ffffff;stroke-width:0.26458332">DESERIALIZATION</tspan></text>
    <path
       style="display:inline;opacity:0.15;fill:#ffffff;stroke-width:1.18882179"
       d="M 32.998047,5.2070312 A 50.584369,50.584369 0 0 0 30.943359,6.1542969 48.716219,48.716216 0 0 0 5.8144531,48.716797 48.716219,48.716216 0 0 0 54.53125,97.433594 48.716219,48.716216 0 0 0 90.083984,81.933594 50.441715,50.441715 0 0 1 74.75,84.357422 50.572483,50.572483 0 0 1 32.998047,5.2070312 Z"
       transform="matrix(0.26458333,0,0,0.26458333,85.370786,143.51764)"
       id="path133-3"
       inkscape:connector-curvature="0" />
    <g
       style="display:inline"
       id="g1595"
       transform="matrix(0.54853678,0,0,0.54853678,25.403339,56.834679)">
      <path
         style="opacity:1;fill:#808080;stroke-width:0.07617772"
         id="path127"
         class="s0"
         d="m 134.48846,167.39571 v -1.04219 c -2.62219,0.38539 -4.70618,2.42397 -5.1567,5.02446 h 1.04882 c 0.42621,-2.03022 2.0555,-3.61769 4.10788,-3.98227 z"
         inkscape:connector-curvature="0" />
      <path
         style="opacity:1;fill:#b3b3b3;stroke-width:0.07617772"
         id="path129"
         class="s2"
         d="m 134.48846,168.34229 v -0.9465 c -2.05238,0.36458 -3.68167,1.95205 -4.10788,3.98226 h 0.95314 c 0.39429,-1.51655 1.61618,-2.69875 3.15466,-3.03576 z"
         inkscape:connector-curvature="0" />
      <path
         id="path131-5"
         d="m 137.4472,170.9542 -0.77755,0.77922 c 0.0228,0.0442 0.0488,0.0855 0.0678,0.13308 0.0716,0.17917 0.10749,0.37517 0.10749,0.5868 v 0.014 c 0,0.2165 -0.0359,0.41213 -0.10749,0.5868 -0.0712,0.17544 -0.17018,0.32688 -0.29664,0.4557 -0.12675,0.12912 -0.27987,0.22777 -0.45889,0.29663 -0.17986,0.069 -0.37799,0.10376 -0.59419,0.10376 h -0.82119 v -0.0687 l -1.02604,1.02855 h 1.84723 c 0.37746,0 0.72361,-0.0623 1.03922,-0.18641 0.31514,-0.12447 0.58695,-0.29435 0.81442,-0.51145 0.22815,-0.21604 0.40397,-0.47116 0.52829,-0.7662 0.12432,-0.29442 0.18648,-0.61201 0.18648,-0.95268 v -0.0134 c 0,-0.34067 -0.0622,-0.65711 -0.18648,-0.94971 -0.0834,-0.19608 -0.19235,-0.3738 -0.32254,-0.53591 z"
         style="fill:#f78d0a;stroke-width:0.07617772"
         inkscape:connector-curvature="0" />
      <path
         id="path133"
         style="opacity:1;fill:#f6b052;fill-opacity:1;stroke-width:0.07617772"
         d="m 134.56662,170.99671 h 0.82119 c 0.2162,0 0.41426,0.0356 0.59419,0.10702 0.17902,0.0715 0.33206,0.17163 0.4589,0.30007 0.0927,0.0946 0.1656,0.20781 0.22884,0.32962 l 0.77754,-0.77922 c -0.0637,-0.0792 -0.1308,-0.15586 -0.20583,-0.22694 -0.22747,-0.21588 -0.49927,-0.385 -0.81442,-0.50741 -0.31545,-0.12181 -0.66168,-0.18283 -1.03922,-0.18283 h -1.88463 v 4.8331 h 0.0374 l 1.02603,-1.02855 v -2.84479 z"
         inkscape:connector-curvature="0" />
      <path
         style="opacity:1;fill:#b3b3b3;stroke-width:0.07617772"
         id="path135"
         class="s2"
         d="m 136.48577,167.43486 v 0.95573 c 0.8512,0.23021 1.59318,0.723 2.13807,1.38438 l 0.65909,-0.66077 c -0.7121,-0.83422 -1.6871,-1.43717 -2.79716,-1.67934 z"
         inkscape:connector-curvature="0" />
      <path
         id="path137"
         d="m 136.48577,166.38498 v 1.04988 c 1.11013,0.24225 2.08513,0.84519 2.79709,1.67927 l 0.72803,-0.72986 c -0.89799,-1.02375 -2.12886,-1.74828 -3.52512,-1.99936 z m -6.12835,6.98999 h -1.04493 c 0.22472,1.46597 0.96921,2.75916 2.03722,3.69112 l 0.72765,-0.7294 c -0.87795,-0.74601 -1.50116,-1.78271 -1.71994,-2.96172 z"
         style="fill:#f78d0a;stroke-width:0.07617772"
         inkscape:connector-curvature="0" />
      <path
         style="opacity:1;fill:#b3b3b3;stroke-width:0.07617772"
         id="path139"
         class="s2"
         d="m 131.30606,173.37497 h -0.94864 c 0.21871,1.17901 0.84199,2.21571 1.71994,2.96172 l 0.65947,-0.66107 c -0.70525,-0.57842 -1.21991,-1.38087 -1.43077,-2.30065 z"
         inkscape:connector-curvature="0" />
    </g>
    <g
       transform="matrix(-0.09469265,0.18573444,-0.18573444,-0.09469265,102.04204,170.01207)"
       id="g1119-6-2-6-3">
      <ellipse
         ry="5.3513904"
         rx="3.7587147"
         cy="42.07835"
         cx="-23.792664"
         id="path265-7-7-1-7"
         style="opacity:1;vector-effect:none;fill:#f78d0a;fill-opacity:1;stroke:#ffffff;stroke-width:0;stroke-linecap:butt;stroke-linejoin:miter;stroke-miterlimit:4;stroke-dasharray:none;stroke-dashoffset:0;stroke-opacity:1" />
      <ellipse
         ry="1.7411242"
         rx="2.4807518"
         cy="36.672058"
         cx="-23.582708"
         id="path267-5-0-8-5"
         style="opacity:1;fill:#f78d0a;fill-opacity:1;stroke:#ffffff;stroke-width:0;stroke-miterlimit:4;stroke-dasharray:none;stroke-opacity:1" />
      <path
         sodipodi:nodetypes="cc"
         inkscape:connector-curvature="0"
         id="path1078-35-9-7-9"
         d="m -26.896392,31.70242 2.028837,3.939668"
         style="fill:none;stroke:#f78d0a;stroke-width:0.7404933px;stroke-linecap:butt;stroke-linejoin:miter;stroke-opacity:1" />
      <path
         sodipodi:nodetypes="cc"
         inkscape:connector-curvature="0"
         id="path1078-3-6-3-9-2"
         d="m -20.189675,31.762724 -2.107804,4.074939"
         style="fill:#f78d0a;fill-opacity:1;stroke:#f78d0a;stroke-width:0.75422227px;stroke-linecap:butt;stroke-linejoin:miter;stroke-opacity:1" />
      <path
         sodipodi:nodetypes="ccc"
         inkscape:connector-curvature="0"
         id="path1097-2-6-2-2"
         d="m -28.375211,37.008768 4.728235,3.877276 4.951087,-3.760737"
         style="fill:none;stroke:#f78d0a;stroke-width:1px;stroke-linecap:butt;stroke-linejoin:miter;stroke-opacity:1" />
      <path
         sodipodi:nodetypes="ccc"
         inkscape:connector-curvature="0"
         id="path1099-9-0-0-8"
         d="m -29.672979,40.892951 5.703288,1.098042 6.274651,-1.187678"
         style="fill:none;stroke:#f78d0a;stroke-width:1px;stroke-linecap:butt;stroke-linejoin:miter;stroke-opacity:1" />
      <path
         sodipodi:nodetypes="ccc"
         inkscape:connector-curvature="0"
         id="path1101-1-6-2-9"
         d="m -29.348699,44.793811 5.9933,-1.566868 5.259798,1.490129"
         style="fill:none;stroke:#f78d0a;stroke-width:1px;stroke-linecap:butt;stroke-linejoin:miter;stroke-opacity:1" />
    </g>
    <g
       transform="matrix(0.10717833,0.17882053,-0.17882053,0.10717833,111.73733,161.83293)"
       id="g1119-6-2-6-3-3">
      <ellipse
         ry="5.3513904"
         rx="3.7587147"
         cy="42.07835"
         cx="-23.792664"
         id="path265-7-7-1-7-6"
         style="opacity:1;vector-effect:none;fill:#f78d0a;fill-opacity:1;stroke:#ffffff;stroke-width:0;stroke-linecap:butt;stroke-linejoin:miter;stroke-miterlimit:4;stroke-dasharray:none;stroke-dashoffset:0;stroke-opacity:1" />
      <ellipse
         ry="1.7411242"
         rx="2.4807518"
         cy="36.672058"
         cx="-23.582708"
         id="path267-5-0-8-5-7"
         style="opacity:1;fill:#f78d0a;fill-opacity:1;stroke:#ffffff;stroke-width:0;stroke-miterlimit:4;stroke-dasharray:none;stroke-opacity:1" />
      <path
         sodipodi:nodetypes="cc"
         inkscape:connector-curvature="0"
         id="path1078-35-9-7-9-5"
         d="m -26.896392,31.70242 2.028837,3.939668"
         style="fill:none;stroke:#f78d0a;stroke-width:0.7404933px;stroke-linecap:butt;stroke-linejoin:miter;stroke-opacity:1" />
      <path
         sodipodi:nodetypes="cc"
         inkscape:connector-curvature="0"
         id="path1078-3-6-3-9-2-3"
         d="m -20.189675,31.762724 -2.107804,4.074939"
         style="fill:#f78d0a;fill-opacity:1;stroke:#f78d0a;stroke-width:0.75422227px;stroke-linecap:butt;stroke-linejoin:miter;stroke-opacity:1" />
      <path
         sodipodi:nodetypes="ccc"
         inkscape:connector-curvature="0"
         id="path1097-2-6-2-2-5"
         d="m -28.375211,37.008768 4.728235,3.877276 4.951087,-3.760737"
         style="fill:none;stroke:#f78d0a;stroke-width:1px;stroke-linecap:butt;stroke-linejoin:miter;stroke-opacity:1" />
      <path
         sodipodi:nodetypes="ccc"
         inkscape:connector-curvature="0"
         id="path1099-9-0-0-8-6"
         d="m -29.672979,40.892951 5.703288,1.098042 6.274651,-1.187678"
         style="fill:none;stroke:#f78d0a;stroke-width:1px;stroke-linecap:butt;stroke-linejoin:miter;stroke-opacity:1" />
      <path
         sodipodi:nodetypes="ccc"
         inkscape:connector-curvature="0"
         id="path1101-1-6-2-9-2"
         d="m -29.348699,44.793811 5.9933,-1.566868 5.259798,1.490129"
         style="fill:none;stroke:#f78d0a;stroke-width:1px;stroke-linecap:butt;stroke-linejoin:miter;stroke-opacity:1" />
    </g>
  </g>
</svg>
