<?xml version="1.0" encoding="UTF-8" standalone="no"?>
<!-- Created with Inkscape (http://www.inkscape.org/) -->

<svg
   xmlns:dc="http://purl.org/dc/elements/1.1/"
   xmlns:cc="http://creativecommons.org/ns#"
   xmlns:rdf="http://www.w3.org/1999/02/22-rdf-syntax-ns#"
   xmlns:svg="http://www.w3.org/2000/svg"
   xmlns="http://www.w3.org/2000/svg"
   xmlns:sodipodi="http://sodipodi.sourceforge.net/DTD/sodipodi-0.dtd"
   xmlns:inkscape="http://www.inkscape.org/namespaces/inkscape"
   width="25.777mm"
   height="25.776489mm"
   viewBox="0 0 25.777001 25.77649"
   version="1.1"
   id="svg36"
   inkscape:version="0.92.3 (2405546, 2018-03-11)"
   sodipodi:docname="dependency_check.svg">
  <defs
     id="defs30">
    <clipPath
       clipPathUnits="userSpaceOnUse"
       id="clipPath920">
      <ellipse
         style="display:inline;opacity:1;vector-effect:none;fill:none;fill-opacity:1;stroke:#000000;stroke-width:0.00300114;stroke-linecap:butt;stroke-linejoin:miter;stroke-miterlimit:4;stroke-dasharray:none;stroke-dashoffset:0;stroke-opacity:1"
         id="ellipse922"
         cx="12.870629"
         cy="12.892472"
         rx="12.8885"
         ry="12.888245" />
    </clipPath>
  </defs>
  <sodipodi:namedview
     id="base"
     pagecolor="#ffffff"
     bordercolor="#666666"
     borderopacity="1.0"
     inkscape:pageopacity="0.0"
     inkscape:pageshadow="2"
     inkscape:zoom="5.6"
     inkscape:cx="59.288432"
     inkscape:cy="59.543687"
     inkscape:document-units="mm"
     inkscape:current-layer="layer4"
     showgrid="false"
     fit-margin-top="0"
     fit-margin-left="0"
     fit-margin-right="0"
     fit-margin-bottom="0"
     inkscape:window-width="1841"
     inkscape:window-height="879"
     inkscape:window-x="79"
     inkscape:window-y="27"
     inkscape:window-maximized="1"
     inkscape:snap-global="false" />
  <metadata
     id="metadata33">
    <rdf:RDF>
      <cc:Work
         rdf:about="">
        <dc:format>image/svg+xml</dc:format>
        <dc:type
           rdf:resource="http://purl.org/dc/dcmitype/StillImage" />
        <dc:title></dc:title>
      </cc:Work>
    </rdf:RDF>
  </metadata>
  <g
     inkscape:groupmode="layer"
     id="layer4"
     inkscape:label="button"
     transform="translate(0.0178709,-0.00422764)">
    <g
       inkscape:groupmode="layer"
       id="layer7"
       inkscape:label="background" />
    <g
       inkscape:groupmode="layer"
       id="layer6"
       inkscape:label="content" />
    <g
       inkscape:groupmode="layer"
       id="layer5"
       inkscape:label="gleam">
      <g
         id="g918"
         clip-path="url(#clipPath920)">
        <circle
           style="display:inline;fill:#5a6e77;fill-opacity:1;stroke:#5a6e77;stroke-width:3.1454246px;stroke-miterlimit:10;stroke-opacity:1"
           id="circle129"
           r="11.317238"
           cy="175.29167"
           cx="135.31548"
           class="cls-4"
           transform="translate(-122.42553,-162.40172)" />
        <path
           style="display:inline;fill:#485258;fill-opacity:1;stroke-width:0.31454244"
           inkscape:connector-curvature="0"
           id="path131"
           d="m 141.60325,168.97177 a 4.8376628,4.8376628 0 0 1 0.53787,0.60707 2.6578838,2.6578838 0 0 1 1.09461,-0.42463 c 0.62908,0.27365 1.25817,0.56932 1.25817,0.62908 0,0.0598 -0.94363,-0.33656 -1.27704,-0.42778 a 2.5666665,2.5666665 0 0 0 -0.90903,0.36487 c -0.0315,0.0912 0,0.12267 0,0.12267 a 2.7082107,2.7082107 0 0 1 0.42463,0.18244 c 0.0598,0.11953 0.11953,0.48439 0.0314,0.57561 -0.0314,0.0315 -0.0189,0.044 -0.12267,0.0629 -0.1038,0.0189 -0.44351,0.53787 -0.77378,0.86814 -0.33027,0.33027 -1.50665,0.0723 -1.50665,0.0723 0,0 0.0692,0.6857 0.0912,1.36825 0.11952,0.21704 0.27365,0.27365 0.69828,0.45609 0.76119,0.0912 1.49408,-0.0189 1.52238,0.0598 0.0283,0.0786 -1.47834,0.17929 -1.61045,0.15098 -0.13211,-0.0283 -0.45609,-0.15098 -0.79265,-0.2422 a 3.1454246,3.1454246 0 0 0 0.70143,0.88072 c 0.60707,0.18243 1.21413,0.36487 1.21413,0.42778 a 10.25723,10.25723 0 0 1 -1.3368,-0.18244 7.8446892,7.8446892 0 0 1 -0.70143,-0.53156 c 0.0786,0.23275 0.14154,0.70143 0.31454,0.86498 0.41205,0.4089 0.94363,0.82095 0.89645,0.85871 a 10.505718,10.505718 0 0 1 -1.14808,-0.75805 c -0.21703,-0.47496 -0.54416,-1.29592 -0.54416,-1.29592 h -0.31454 a 52.475119,52.475119 0 0 1 1.15751,12.46847 c -1.31164,-0.65739 -4.51997,-5.49821 -2.30559,-8.61533 0.37116,-0.51899 0.41205,-3.7745 0.41205,-3.7745 a 2.4848854,2.4848854 0 0 1 -0.7203,-0.31454 0.88386433,0.88386433 0 0 1 -0.21075,0.0283 c 1.39343,3.1989 -8.35739,7.81009 -8.35739,7.81009 0,0 4.58288,-9.73823 7.78178,-8.34166 a 0.88700972,0.88700972 0 0 1 0.0283,-0.21389 2.4848854,2.4848854 0 0 1 -0.31454,-0.72031 c 0,0 -3.24922,0.0409 -3.77451,0.41205 -3.11712,2.20179 -7.95793,-0.99395 -8.61532,-2.30559 a 52.670136,52.670136 0 0 1 12.47161,1.16695 v -0.31454 c 0,0 -0.82096,-0.33027 -1.29592,-0.5473 a 10.505718,10.505718 0 0 1 -0.75804,-1.14809 c 0.0377,-0.0472 0.44979,0.4844 0.8587,0.89645 0.16356,0.16356 0.62908,0.22647 0.86813,0.31454 a 7.3005304,7.3005304 0 0 1 -0.53472,-0.70143 9.7508163,9.7508163 0 0 1 -0.19187,-1.36826 c 0.0598,0 0.2422,0.60707 0.42463,1.21728 a 3.1863152,3.1863152 0 0 0 0.8933,0.70772 c -0.0912,-0.33656 -0.21389,-0.62908 -0.24219,-0.7895 -0.0283,-0.16041 0.0724,-1.63876 0.15098,-1.61045 0.0786,0.0283 -0.0315,0.75804 0.0598,1.51923 0.18243,0.42464 0.24219,0.57876 0.45608,0.69829 0.68256,0.022 1.36826,0.0912 1.36826,0.0912 0,0 -0.25478,-1.17954 0.0755,-1.50666 0.33027,-0.32713 0.84927,-0.66998 0.86499,-0.77378 0.0157,-0.10379 0.0314,-0.0912 0.0629,-0.11952 0.0912,-0.0912 0.45609,-0.0315 0.57562,0.0283 a 2.8466092,2.8466092 0 0 1 0.18243,0.42463 c 0,0 0.0314,0.0315 0.12267,0 a 2.5666665,2.5666665 0 0 0 0.35229,-0.91846 c -0.0912,-0.33656 -0.49383,-1.27391 -0.42463,-1.27705 0.0692,-0.003 0.36172,0.60707 0.62909,1.25817 a 2.6421567,2.6421567 0 0 1 -0.40576,1.08832 4.8376628,4.8376628 0 0 1 0.60706,0.54101 z"
           class="cls-5"
           transform="translate(-122.42553,-162.40172)" />
        <text
           id="text29"
           y="180.50803"
           x="125.55138"
           style="font-style:normal;font-weight:normal;font-size:3.17499995px;line-height:1.25;font-family:sans-serif;letter-spacing:0px;word-spacing:0px;display:inline;fill:#000000;fill-opacity:1;stroke:none;stroke-width:0.26458332"
           xml:space="preserve"
           transform="translate(-122.42553,-162.40172)"><tspan
             id="tspan26"
             style="font-style:normal;font-variant:normal;font-weight:600;font-stretch:normal;font-size:3.17499995px;line-height:0;font-family:Hind;-inkscape-font-specification:'Hind, Semi-Bold';font-variant-ligatures:normal;font-variant-caps:normal;font-variant-numeric:normal;font-feature-settings:normal;text-align:start;writing-mode:lr-tb;text-anchor:start;fill:#ffffff;stroke-width:0.26458332"
             y="180.50803"
             x="125.55138"
             sodipodi:role="line">DEPENDENCY</tspan><tspan
             id="tspan891"
             style="font-style:normal;font-variant:normal;font-weight:600;font-stretch:normal;font-size:3.17499995px;line-height:0;font-family:Hind;-inkscape-font-specification:'Hind, Semi-Bold';font-variant-ligatures:normal;font-variant-caps:normal;font-variant-numeric:normal;font-feature-settings:normal;text-align:start;writing-mode:lr-tb;text-anchor:start;fill:#ffffff;stroke-width:0.26458332"
             y="184.47678"
             x="125.55138"
             sodipodi:role="line" /><tspan
             id="tspan20"
             style="font-style:normal;font-variant:normal;font-weight:600;font-stretch:normal;font-size:3.17499995px;line-height:0;font-family:Hind;-inkscape-font-specification:'Hind, Semi-Bold';font-variant-ligatures:normal;font-variant-caps:normal;font-variant-numeric:normal;font-feature-settings:normal;text-align:start;letter-spacing:0px;writing-mode:lr-tb;text-anchor:start;fill:#ffffff;stroke-width:0.26458332"
             y="188.44553"
             x="125.55138"
             sodipodi:role="line" /></text>
        <text
           id="text24"
           y="183.47516"
           x="130.44818"
           style="font-style:normal;font-weight:normal;font-size:3.17499995px;line-height:1.25;font-family:sans-serif;letter-spacing:0px;word-spacing:0px;display:inline;fill:#000000;fill-opacity:1;stroke:none;stroke-width:0.26458332"
           xml:space="preserve"
           transform="translate(-122.42553,-162.40172)"><tspan
             style="font-style:normal;font-variant:normal;font-weight:600;font-stretch:normal;font-size:3.17499995px;font-family:hind;-inkscape-font-specification:'hind Semi-Bold';fill:#ffffff;stroke-width:0.26458332"
             y="183.47516"
             x="130.44818"
             id="tspan22"
             sodipodi:role="line">CHECK</tspan></text>
        <circle
           r="5.1340337"
           cy="172.24159"
           cx="135.33517"
           id="path1597"
           style="display:inline;opacity:0.15;fill:#ffffff;fill-opacity:1;stroke:none;stroke-width:0.12862;stroke-linecap:round;stroke-linejoin:miter;stroke-miterlimit:4;stroke-dasharray:none;stroke-opacity:0"
           transform="translate(-122.42553,-162.40172)" />
        <g
           transform="translate(-122.5184,-162.61412)"
           id="g1595"
           style="display:inline">
          <path
             inkscape:connector-curvature="0"
             d="m 134.48846,167.39571 v -1.04219 c -2.62219,0.38539 -4.70618,2.42397 -5.1567,5.02446 h 1.04882 c 0.42621,-2.03022 2.0555,-3.61769 4.10788,-3.98227 z"
             class="s0"
             id="path127"
             style="opacity:1;fill:#808080;stroke-width:0.07617772" />
          <path
             inkscape:connector-curvature="0"
             d="m 134.48846,168.34229 v -0.9465 c -2.05238,0.36458 -3.68167,1.95205 -4.10788,3.98226 h 0.95314 c 0.39429,-1.51655 1.61618,-2.69875 3.15466,-3.03576 z"
             class="s2"
             id="path129"
             style="opacity:1;fill:#b3b3b3;stroke-width:0.07617772" />
          <path
             inkscape:connector-curvature="0"
             style="fill:#f78d0a;stroke-width:0.07617772"
             d="m 137.4472,170.9542 -0.77755,0.77922 c 0.0228,0.0442 0.0488,0.0855 0.0678,0.13308 0.0716,0.17917 0.10749,0.37517 0.10749,0.5868 v 0.014 c 0,0.2165 -0.0359,0.41213 -0.10749,0.5868 -0.0712,0.17544 -0.17018,0.32688 -0.29664,0.4557 -0.12675,0.12912 -0.27987,0.22777 -0.45889,0.29663 -0.17986,0.069 -0.37799,0.10376 -0.59419,0.10376 h -0.82119 v -0.0687 l -1.02604,1.02855 h 1.84723 c 0.37746,0 0.72361,-0.0623 1.03922,-0.18641 0.31514,-0.12447 0.58695,-0.29435 0.81442,-0.51145 0.22815,-0.21604 0.40397,-0.47116 0.52829,-0.7662 0.12432,-0.29442 0.18648,-0.61201 0.18648,-0.95268 v -0.0134 c 0,-0.34067 -0.0622,-0.65711 -0.18648,-0.94971 -0.0834,-0.19608 -0.19235,-0.3738 -0.32254,-0.53591 z"
             id="path131-5" />
          <path
             inkscape:connector-curvature="0"
             d="m 134.56662,170.99671 h 0.82119 c 0.2162,0 0.41426,0.0356 0.59419,0.10702 0.17902,0.0715 0.33206,0.17163 0.4589,0.30007 0.0927,0.0946 0.1656,0.20781 0.22884,0.32962 l 0.77754,-0.77922 c -0.0637,-0.0792 -0.1308,-0.15586 -0.20583,-0.22694 -0.22747,-0.21588 -0.49927,-0.385 -0.81442,-0.50741 -0.31545,-0.12181 -0.66168,-0.18283 -1.03922,-0.18283 h -1.88463 v 4.8331 h 0.0374 l 1.02603,-1.02855 v -2.84479 z"
             style="opacity:1;fill:#f6b052;fill-opacity:1;stroke-width:0.07617772"
             id="path133" />
          <path
             inkscape:connector-curvature="0"
             d="m 136.48577,167.43486 v 0.95573 c 0.8512,0.23021 1.59318,0.723 2.13807,1.38438 l 0.65909,-0.66077 c -0.7121,-0.83422 -1.6871,-1.43717 -2.79716,-1.67934 z"
             class="s2"
             id="path135"
             style="opacity:1;fill:#b3b3b3;stroke-width:0.07617772" />
          <path
             inkscape:connector-curvature="0"
             style="fill:#f78d0a;stroke-width:0.07617772"
             d="m 136.48577,166.38498 v 1.04988 c 1.11013,0.24225 2.08513,0.84519 2.79709,1.67927 l 0.72803,-0.72986 c -0.89799,-1.02375 -2.12886,-1.74828 -3.52512,-1.99936 z m -6.12835,6.98999 h -1.04493 c 0.22472,1.46597 0.96921,2.75916 2.03722,3.69112 l 0.72765,-0.7294 c -0.87795,-0.74601 -1.50116,-1.78271 -1.71994,-2.96172 z"
             id="path137" />
          <path
             inkscape:connector-curvature="0"
             d="m 131.30606,173.37497 h -0.94864 c 0.21871,1.17901 0.84199,2.21571 1.71994,2.96172 l 0.65947,-0.66107 c -0.70525,-0.57842 -1.21991,-1.38087 -1.43077,-2.30065 z"
             class="s2"
             id="path139"
             style="opacity:1;fill:#b3b3b3;stroke-width:0.07617772" />
        </g>
        <path
           style="display:inline;opacity:0.15;fill:#ffffff;stroke-width:0.31454244"
           inkscape:connector-curvature="0"
           id="path133-3"
           d="m 140.31958,184.80713 a 13.380636,13.380636 0 0 1 -11.04673,-20.94224 13.383781,13.383781 0 1 0 16.04166,19.97659 13.346037,13.346037 0 0 1 -4.99493,0.96565 z"
           class="cls-6"
           transform="translate(-122.42553,-162.40172)" />
      </g>
    </g>
  </g>
</svg>
