<?xml version="1.0" encoding="UTF-8" standalone="no"?>
<svg
   xmlns:dc="http://purl.org/dc/elements/1.1/"
   xmlns:cc="http://creativecommons.org/ns#"
   xmlns:rdf="http://www.w3.org/1999/02/22-rdf-syntax-ns#"
   xmlns:svg="http://www.w3.org/2000/svg"
   xmlns="http://www.w3.org/2000/svg"
   xmlns:sodipodi="http://sodipodi.sourceforge.net/DTD/sodipodi-0.dtd"
   xmlns:inkscape="http://www.inkscape.org/namespaces/inkscape"
   sodipodi:docname="distroless.svg"
   inkscape:version="1.0 (4035a4f, 2020-05-01)"
   id="svg1709"
   version="1.1"
   viewBox="0 0 25.7799 25.779899"
   height="25.7799mm"
   width="25.7799mm">
  <defs
     id="defs1703">
    <clipPath
       id="clipPath1706"
       clipPathUnits="userSpaceOnUse">
      <circle
         r="9.7385139"
         cy="156.39888"
         cx="99.772911"
         id="circle1708"
         style="opacity:1;fill:#993727;fill-opacity:1;stroke:none;stroke-width:0.1580953;stroke-linecap:round;stroke-linejoin:miter;stroke-miterlimit:4;stroke-dasharray:none;stroke-opacity:1" />
    </clipPath>
  </defs>
  <sodipodi:namedview
     inkscape:document-rotation="0"
     inkscape:window-maximized="1"
     inkscape:window-y="23"
     inkscape:window-x="0"
     inkscape:window-height="949"
     inkscape:window-width="1680"
     fit-margin-bottom="0"
     fit-margin-right="0"
     fit-margin-left="0"
     fit-margin-top="0"
     showgrid="false"
     inkscape:current-layer="layer10"
     inkscape:document-units="mm"
     inkscape:cy="55.529134"
     inkscape:cx="44.890723"
     inkscape:zoom="6.0644901"
     inkscape:pageshadow="2"
     inkscape:pageopacity="0.0"
     borderopacity="1.0"
     bordercolor="#666666"
     pagecolor="#ffffff"
     id="base" />
  <metadata
     id="metadata1706">
    <rdf:RDF>
      <cc:Work
         rdf:about="">
        <dc:format>image/svg+xml</dc:format>
        <dc:type
           rdf:resource="http://purl.org/dc/dcmitype/StillImage" />
        <dc:title></dc:title>
      </cc:Work>
    </rdf:RDF>
  </metadata>
  <g
     style="display:inline"
     transform="translate(-76.098697,-100.99309)"
     id="layer1"
     inkscape:groupmode="layer"
     inkscape:label="button">
    <g
       transform="translate(76.098697,100.99309)"
       inkscape:label="background"
       id="layer8"
       inkscape:groupmode="layer">
      <circle
         style="display:inline;fill:#da336d;fill-opacity:1;stroke:#dadada;stroke-width:3.14542460000000013px;stroke-miterlimit:10;stroke-opacity:1"
         id="circle129-7"
         r="11.317238"
         cy="113.88304"
         cx="88.988647"
         class="cls-4"
         transform="translate(-76.098696,-100.99309)" />
      <path
         clip-path="url(#clipPath1706)"
         style="display:inline;fill:#999999;fill-opacity:1;stroke-width:0.31454244"
         inkscape:connector-curvature="0"
         id="path131-3"
         d="m 106.08657,150.08769 a 4.8376628,4.8376628 0 0 1 0.53787,0.60707 2.6578838,2.6578838 0 0 1 1.09461,-0.42463 c 0.62908,0.27365 1.25817,0.56932 1.25817,0.62908 0,0.0598 -0.94363,-0.33656 -1.27704,-0.42778 a 2.5666665,2.5666665 0 0 0 -0.90903,0.36487 c -0.0315,0.0912 0,0.12267 0,0.12267 a 2.7082107,2.7082107 0 0 1 0.42463,0.18244 c 0.0598,0.11953 0.11953,0.48439 0.0314,0.57561 -0.0314,0.0315 -0.0189,0.044 -0.12267,0.0629 -0.1038,0.0189 -0.44351,0.53787 -0.77378,0.86814 -0.33027,0.33027 -1.50665,0.0723 -1.50665,0.0723 0,0 0.0692,0.6857 0.0912,1.36825 0.11952,0.21704 0.27365,0.27365 0.69828,0.45609 0.76119,0.0912 1.49408,-0.0189 1.52238,0.0598 0.0283,0.0786 -1.47834,0.1793 -1.61045,0.15098 -0.13211,-0.0283 -0.45609,-0.15098 -0.79265,-0.24219 a 3.1454246,3.1454246 0 0 0 0.70143,0.88071 c 0.60707,0.18244 1.21413,0.36488 1.21413,0.42779 a 10.25723,10.25723 0 0 1 -1.3368,-0.18244 7.8446892,7.8446892 0 0 1 -0.70143,-0.53156 c 0.0786,0.23275 0.14154,0.70143 0.31454,0.86498 0.41205,0.4089 0.94363,0.82095 0.89645,0.85871 a 10.505718,10.505718 0 0 1 -1.14808,-0.75805 c -0.21703,-0.47496 -0.54416,-1.29592 -0.54416,-1.29592 h -0.31454 a 52.475119,52.475119 0 0 1 1.15751,12.46847 c -1.31164,-0.65739 -4.51997,-5.49821 -2.30559,-8.61533 0.37116,-0.51899 0.41205,-3.7745 0.41205,-3.7745 a 2.4848854,2.4848854 0 0 1 -0.7203,-0.31454 0.88386433,0.88386433 0 0 1 -0.21075,0.0283 c 1.39343,3.1989 -8.357393,7.81009 -8.357393,7.81009 0,0 4.58288,-9.73823 7.781783,-8.34167 a 0.88700972,0.88700972 0 0 1 0.0283,-0.21388 2.4848854,2.4848854 0 0 1 -0.31454,-0.72031 c 0,0 -3.249223,0.0409 -3.774513,0.41205 -3.11712,2.20178 -7.957931,-0.99396 -8.61532,-2.3056 a 52.670136,52.670136 0 0 1 12.471613,1.16695 V 152.063 c 0,0 -0.82096,-0.33027 -1.29592,-0.5473 a 10.505718,10.505718 0 0 1 -0.758043,-1.14809 c 0.0377,-0.0472 0.44979,0.4844 0.858703,0.89645 0.16356,0.16356 0.62908,0.22647 0.86813,0.31454 a 7.3005304,7.3005304 0 0 1 -0.53472,-0.70143 9.7508163,9.7508163 0 0 1 -0.19187,-1.36826 c 0.0598,0 0.2422,0.60707 0.42463,1.21728 a 3.1863152,3.1863152 0 0 0 0.8933,0.70772 c -0.0912,-0.33656 -0.21389,-0.62908 -0.24219,-0.7895 -0.0283,-0.16041 0.0724,-1.63876 0.15098,-1.61045 0.0786,0.0283 -0.0315,0.75804 0.0598,1.51923 0.18243,0.42464 0.24219,0.57876 0.45608,0.69829 0.68256,0.022 1.36826,0.0912 1.36826,0.0912 0,0 -0.25478,-1.17954 0.0755,-1.50666 0.33027,-0.32713 0.84927,-0.66998 0.86499,-0.77378 0.0157,-0.10379 0.0314,-0.0912 0.0629,-0.11952 0.0912,-0.0912 0.45609,-0.0315 0.57562,0.0283 a 2.8466092,2.8466092 0 0 1 0.18243,0.42463 c 0,0 0.0314,0.0315 0.12267,0 a 2.5666665,2.5666665 0 0 0 0.35229,-0.91846 c -0.0912,-0.33656 -0.49383,-1.27391 -0.42463,-1.27705 0.0692,-0.003 0.36172,0.60707 0.62909,1.25817 a 2.6421567,2.6421567 0 0 1 -0.40576,1.08832 4.8376628,4.8376628 0 0 1 0.60706,0.54101 z"
         class="cls-5"
         transform="translate(-86.908836,-143.51764)" />
    </g>
    <g
       transform="translate(76.098697,100.99309)"
       inkscape:label="content"
       id="layer10"
       inkscape:groupmode="layer">
      <text
         id="text7112"
         y="18.650782"
         x="12.743382"
         style="font-style:normal;font-weight:normal;font-size:2.82222px;line-height:1.25;font-family:sans-serif;letter-spacing:0px;word-spacing:0px;display:inline;fill:#000000;fill-opacity:1;stroke:none;stroke-width:0.264583"
         xml:space="preserve"><tspan
           id="tspan7114"
           style="font-style:normal;font-variant:normal;font-weight:600;font-stretch:normal;font-size:3.52778px;font-family:hind;-inkscape-font-specification:'hind Semi-Bold';text-align:center;text-anchor:middle;fill:#ffffff;stroke-width:0.264583"
           y="18.650782"
           x="12.743382"
           sodipodi:role="line">Distroless</tspan></text>
    </g>
    <g
       inkscape:label="icon"
       id="layer2"
       inkscape:groupmode="layer">
      <g
         style="fill:#eff15b;fill-opacity:1"
         transform="matrix(0.171345,0,0,0.171345,83.568078,106.06147)"
         id="g1845">
        <path
           style="fill:#eff15b;fill-opacity:1"
           d="M 58,1 H 10 C 7.243,1 5,3.243 5,6 V 45 H 4 c -1.654,0 -3,1.346 -3,3 v 12 c 0,1.654 1.346,3 3,3 h 16 c 1.654,0 3,-1.346 3,-3 v -5 h 35 c 2.757,0 5,-2.243 5,-5 V 6 C 63,3.243 60.757,1 58,1 Z M 47,49 v -2.184 c 0.314,0.112 0.648,0.184 1,0.184 1.654,0 3,-1.346 3,-3 V 16 c 0,-1.654 -1.346,-3 -3,-3 -0.352,0 -0.686,0.072 -1,0.184 V 11 H 61 V 49 Z M 31,49 H 26.816 C 26.928,48.686 27,48.352 27,48 v -8 c 0,-0.352 -0.072,-0.686 -0.184,-1 H 30 c 0.352,0 0.686,-0.072 1,-0.184 z M 20,45 h -9 v -5 c 0,-0.552 0.449,-1 1,-1 h 3 v 4 h 6 v -4 h 3 c 0.551,0 1,0.448 1,1 v 8 c 0,0.552 -0.449,1 -1,1 h -1 v -1 c 0,-1.654 -1.346,-3 -3,-3 z m -9,4 v 2 H 9 v -4 h 6 v 4 H 13 V 49 Z M 24,37 h -6 c -0.551,0 -1,-0.448 -1,-1 v -8 c 0,-0.551 0.449,-1 1,-1 h 3 v 4 h 6 v -4 h 3 c 0.551,0 1,0.449 1,1 v 8 c 0,0.552 -0.449,1 -1,1 z M 17,24 v -8 c 0,-0.551 0.449,-1 1,-1 h 3 v 4 h 6 v -4 h 3 c 0.551,0 1,0.449 1,1 v 8 c 0,0.551 -0.449,1 -1,1 H 18 c -0.551,0 -1,-0.449 -1,-1 z m 6,-9 h 2 v 2 h -2 z m 0,12 h 2 v 2 h -2 z m -6,12 h 1 1 v 2 H 17 Z M 31,13.184 C 30.686,13.072 30.352,13 30,13 H 18 c -1.654,0 -3,1.346 -3,3 v 8 c 0,0.771 0.301,1.468 0.78,2 C 15.3,26.532 15,27.229 15,28 v 8 c 0,0.352 0.072,0.686 0.184,1 H 12 c -0.352,0 -0.686,0.072 -1,0.184 V 11 H 31 Z M 33,36 V 28 24 16 10.754 L 45,7.325 V 16 44 52.674 L 33,49.246 Z M 47,16 c 0,-0.551 0.449,-1 1,-1 0.551,0 1,0.449 1,1 v 28 c 0,0.552 -0.449,1 -1,1 -0.551,0 -1,-0.448 -1,-1 z M 47,9 V 7 H 61 V 9 Z M 10,3 h 48 c 1.302,0 2.402,0.839 2.816,2 H 7.184 C 7.598,3.839 8.698,3 10,3 Z M 7,7 h 31.86 l -7,2 H 9 v 31 5 H 7 Z m 14,53 c 0,0.552 -0.449,1 -1,1 H 4 C 3.449,61 3,60.552 3,60 V 48 c 0,-0.552 0.449,-1 1,-1 h 3 v 6 h 10 v -6 h 3 c 0.551,0 1,0.448 1,1 z m 2,-9 h 1 7.861 l 6.999,2 H 23 Z m 35,2 H 47 V 51 H 60.816 C 60.402,52.161 59.302,53 58,53 Z"
           id="path1841" />
        <path
           style="fill:#eff15b;fill-opacity:1"
           d="m 56,13 c -1.654,0 -3,1.346 -3,3 v 28 c 0,1.654 1.346,3 3,3 1.654,0 3,-1.346 3,-3 V 16 c 0,-1.654 -1.346,-3 -3,-3 z m 1,31 c 0,0.552 -0.449,1 -1,1 -0.551,0 -1,-0.448 -1,-1 V 16 c 0,-0.551 0.449,-1 1,-1 0.551,0 1,0.449 1,1 z"
           id="path1843" />
      </g>
    </g>
    <g
       transform="translate(76.098697,100.99309)"
       inkscape:label="gleam"
       id="layer9"
       inkscape:groupmode="layer">
      <path
         inkscape:connector-curvature="0"
         id="path133-3-3"
         d="m 83.291381,102.37078 a 13.383781,13.383781 0 0 0 -0.543637,0.25063 12.8895,12.889499 0 0 0 -6.648689,11.26133 12.8895,12.889499 0 0 0 12.889652,12.88966 12.8895,12.889499 0 0 0 9.406661,-4.10105 13.346037,13.346037 0 0 1 -4.057116,0.64131 13.380636,13.380636 0 0 1 -11.046871,-20.94188 z"
         style="display:inline;opacity:0.15;fill:#ffffff;stroke-width:0.31454244"
         transform="translate(-76.098696,-100.99309)" />
    </g>
    <text
       id="text18"
       y="105.68349"
       x="86.577995"
       style="font-style:normal;font-weight:normal;font-size:8.86664px;line-height:1.25;font-family:sans-serif;letter-spacing:0px;word-spacing:0px;display:inline;fill:#000000;fill-opacity:1;stroke:none;stroke-width:0.221666"
       xml:space="preserve"><tspan
         style="stroke-width:0.221666"
         y="105.68349"
         x="86.577995"
         id="tspan16"
         sodipodi:role="line"> </tspan></text>
    <text
       id="text18-8"
       y="108.54422"
       x="90.873032"
       style="font-style:normal;font-weight:normal;font-size:8.86664px;line-height:1.25;font-family:sans-serif;letter-spacing:0px;word-spacing:0px;display:inline;fill:#000000;fill-opacity:1;stroke:none;stroke-width:0.221666"
       xml:space="preserve"><tspan
         style="stroke-width:0.221666"
         y="108.54422"
         x="90.873032"
         id="tspan16-2"
         sodipodi:role="line"> </tspan></text>
  </g>
  <g
     sodipodi:insensitive="true"
     style="display:none"
     inkscape:label="edge"
     id="layer4"
     inkscape:groupmode="layer">
    <ellipse
       ry="12.888245"
       rx="12.8885"
       cy="12.892049"
       cx="12.889828"
       id="path1859"
       style="display:inline;opacity:1;vector-effect:none;fill:none;fill-opacity:1;stroke:#000000;stroke-width:0.00300114;stroke-linecap:butt;stroke-linejoin:miter;stroke-miterlimit:4;stroke-dasharray:none;stroke-dashoffset:0;stroke-opacity:1" />
  </g>
</svg>
