<?xml version="1.0" encoding="UTF-8" standalone="no"?>
<!-- Created with Inkscape (http://www.inkscape.org/) -->

<svg
   xmlns:dc="http://purl.org/dc/elements/1.1/"
   xmlns:cc="http://creativecommons.org/ns#"
   xmlns:rdf="http://www.w3.org/1999/02/22-rdf-syntax-ns#"
   xmlns:svg="http://www.w3.org/2000/svg"
   xmlns="http://www.w3.org/2000/svg"
   xmlns:sodipodi="http://sodipodi.sourceforge.net/DTD/sodipodi-0.dtd"
   xmlns:inkscape="http://www.inkscape.org/namespaces/inkscape"
   width="25.758575mm"
   height="25.774334mm"
   viewBox="0 0 25.758576 25.774335"
   version="1.1"
   id="svg82"
   inkscape:version="0.92.3 (2405546, 2018-03-11)"
   sodipodi:docname="find_sec_bugs.svg">
  <defs
     id="defs76">
    <clipPath
       clipPathUnits="userSpaceOnUse"
       id="clipPath873">
      <ellipse
         style="display:inline;opacity:1;vector-effect:none;fill:none;fill-opacity:1;stroke:#000000;stroke-width:0.00300114;stroke-linecap:butt;stroke-linejoin:miter;stroke-miterlimit:4;stroke-dasharray:none;stroke-dashoffset:0;stroke-opacity:1"
         id="ellipse875"
         cx="120.27302"
         cy="155.63304"
         rx="12.8885"
         ry="12.888245" />
    </clipPath>
    <clipPath
       clipPathUnits="userSpaceOnUse"
       id="clipPath2238">
      <ellipse
         style="display:inline;opacity:1;vector-effect:none;fill:none;fill-opacity:1;stroke:#000000;stroke-width:0.00300114;stroke-linecap:butt;stroke-linejoin:miter;stroke-miterlimit:4;stroke-dasharray:none;stroke-dashoffset:0;stroke-opacity:1"
         id="ellipse2240"
         cx="120.2163"
         cy="155.60152"
         rx="12.8885"
         ry="12.888245" />
    </clipPath>
  </defs>
  <sodipodi:namedview
     id="base"
     pagecolor="#ffffff"
     bordercolor="#666666"
     borderopacity="1.0"
     inkscape:pageopacity="0.0"
     inkscape:pageshadow="2"
     inkscape:zoom="5.6"
     inkscape:cx="33.084136"
     inkscape:cy="43.805654"
     inkscape:document-units="mm"
     inkscape:current-layer="layer4"
     showgrid="false"
     inkscape:window-width="1841"
     inkscape:window-height="879"
     inkscape:window-x="79"
     inkscape:window-y="27"
     inkscape:window-maximized="1"
     fit-margin-top="0"
     fit-margin-left="0"
     fit-margin-right="0"
     fit-margin-bottom="0"
     inkscape:snap-text-baseline="false"
     inkscape:snap-global="false" />
  <metadata
     id="metadata79">
    <rdf:RDF>
      <cc:Work
         rdf:about="">
        <dc:format>image/svg+xml</dc:format>
        <dc:type
           rdf:resource="http://purl.org/dc/dcmitype/StillImage" />
        <dc:title></dc:title>
      </cc:Work>
    </rdf:RDF>
  </metadata>
  <g
     inkscape:groupmode="layer"
     id="layer3"
     inkscape:label="button"
     transform="translate(-0.02132075,-1.6992569e-6)">
    <g
       inkscape:groupmode="layer"
       id="layer6"
       inkscape:label="background">
      <circle
         transform="translate(-107.30648,-142.74695)"
         class="cls-4"
         cx="120.19643"
         cy="155.6369"
         r="11.317238"
         id="circle129"
         style="fill:#63ac48;fill-opacity:1;stroke:#63ac48;stroke-width:3.1454246px;stroke-miterlimit:10;stroke-opacity:1"
         clip-path="url(#clipPath873)" />
      <path
         transform="translate(-107.30648,-142.74695)"
         class="cls-5"
         d="m 126.4842,149.317 a 4.8376628,4.8376628 0 0 1 0.53787,0.60707 2.6578838,2.6578838 0 0 1 1.09461,-0.42463 c 0.62908,0.27365 1.25817,0.56932 1.25817,0.62908 0,0.0598 -0.94363,-0.33656 -1.27704,-0.42778 a 2.5666665,2.5666665 0 0 0 -0.90903,0.36487 c -0.0315,0.0912 0,0.12267 0,0.12267 a 2.7082107,2.7082107 0 0 1 0.42463,0.18244 c 0.0598,0.11953 0.11953,0.48439 0.0314,0.57561 -0.0314,0.0315 -0.0189,0.044 -0.12267,0.0629 -0.1038,0.0189 -0.44351,0.53787 -0.77378,0.86814 -0.33027,0.33027 -1.50665,0.0723 -1.50665,0.0723 0,0 0.0692,0.6857 0.0912,1.36826 0.11952,0.21704 0.27365,0.27365 0.69828,0.45609 0.76119,0.0912 1.49408,-0.0189 1.52238,0.0598 0.0283,0.0786 -1.47834,0.17929 -1.61045,0.15098 -0.13211,-0.0283 -0.45609,-0.15098 -0.79265,-0.2422 a 3.1454246,3.1454246 0 0 0 0.70143,0.88072 c 0.60707,0.18243 1.21413,0.36487 1.21413,0.42778 a 10.25723,10.25723 0 0 1 -1.3368,-0.18244 7.8446892,7.8446892 0 0 1 -0.70143,-0.53157 c 0.0786,0.23276 0.14154,0.70143 0.31454,0.86499 0.41205,0.4089 0.94363,0.82095 0.89645,0.8587 a 10.505718,10.505718 0 0 1 -1.14808,-0.75805 c -0.21703,-0.47495 -0.54416,-1.29591 -0.54416,-1.29591 h -0.31454 a 52.475119,52.475119 0 0 1 1.15751,12.46846 c -1.31164,-0.65739 -4.51997,-5.4982 -2.30559,-8.61532 0.37116,-0.51899 0.41205,-3.7745 0.41205,-3.7745 a 2.4848854,2.4848854 0 0 1 -0.7203,-0.31455 0.88386433,0.88386433 0 0 1 -0.21075,0.0283 c 1.39343,3.1989 -8.35739,7.81009 -8.35739,7.81009 0,0 4.58288,-9.73823 7.78178,-8.34166 a 0.88700972,0.88700972 0 0 1 0.0283,-0.21389 2.4848854,2.4848854 0 0 1 -0.31454,-0.72031 c 0,0 -3.24922,0.0409 -3.77451,0.41205 -3.11712,2.2018 -7.95793,-0.99395 -8.61532,-2.30559 a 52.670136,52.670136 0 0 1 12.47161,1.16695 v -0.31454 c 0,0 -0.82096,-0.33027 -1.29592,-0.5473 a 10.505718,10.505718 0 0 1 -0.75804,-1.14809 c 0.0377,-0.0472 0.44979,0.4844 0.8587,0.89645 0.16356,0.16356 0.62908,0.22647 0.86813,0.31454 a 7.3005304,7.3005304 0 0 1 -0.53472,-0.70143 9.7508163,9.7508163 0 0 1 -0.19187,-1.36826 c 0.0598,0 0.2422,0.60707 0.42463,1.21728 a 3.1863152,3.1863152 0 0 0 0.8933,0.70772 c -0.0912,-0.33656 -0.21389,-0.62908 -0.24219,-0.7895 -0.0283,-0.16041 0.0724,-1.63876 0.15098,-1.61045 0.0786,0.0283 -0.0315,0.75804 0.0598,1.51923 0.18243,0.42464 0.24219,0.57876 0.45608,0.69829 0.68256,0.022 1.36826,0.0912 1.36826,0.0912 0,0 -0.25478,-1.17954 0.0755,-1.50666 0.33027,-0.32713 0.84927,-0.66998 0.86499,-0.77378 0.0157,-0.10379 0.0314,-0.0912 0.0629,-0.11952 0.0912,-0.0912 0.45609,-0.0315 0.57562,0.0283 a 2.8466092,2.8466092 0 0 1 0.18243,0.42463 c 0,0 0.0314,0.0315 0.12267,0 a 2.5666665,2.5666665 0 0 0 0.35229,-0.91846 c -0.0912,-0.33656 -0.49383,-1.2739 -0.42463,-1.27705 0.0692,-0.003 0.36172,0.60707 0.62909,1.25817 a 2.6421567,2.6421567 0 0 1 -0.40576,1.08832 4.8376628,4.8376628 0 0 1 0.60706,0.54101 z"
         id="path131"
         inkscape:connector-curvature="0"
         style="fill:#578f23;fill-opacity:1;stroke-width:0.31454244" />
    </g>
    <g
       inkscape:groupmode="layer"
       id="layer5"
       inkscape:label="content">
      <text
         transform="translate(-107.30648,-142.74695)"
         xml:space="preserve"
         style="font-style:normal;font-weight:normal;font-size:10.58333302px;line-height:1.25;font-family:sans-serif;letter-spacing:0px;word-spacing:0px;fill:#000000;fill-opacity:1;stroke:none;stroke-width:0.26458332"
         x="116.29369"
         y="157.52663"
         id="text29"><tspan
           sodipodi:role="line"
           x="116.29369"
           y="157.52663"
           style="font-style:normal;font-variant:normal;font-weight:600;font-stretch:normal;font-size:3.17499995px;line-height:0;font-family:Hind;-inkscape-font-specification:'Hind, Semi-Bold';font-variant-ligatures:normal;font-variant-caps:normal;font-variant-numeric:normal;font-feature-settings:normal;text-align:start;writing-mode:lr-tb;text-anchor:start;fill:#ffffff;stroke-width:0.26458332"
           id="tspan1713"><tspan
   style="font-size:3.52777767px"
   id="tspan1721">FIND</tspan> </tspan><tspan
           sodipodi:role="line"
           x="116.29369"
           y="170.7558"
           style="font-style:normal;font-variant:normal;font-weight:600;font-stretch:normal;font-size:3.17499995px;line-height:0;font-family:Hind;-inkscape-font-specification:'Hind, Semi-Bold';font-variant-ligatures:normal;font-variant-caps:normal;font-variant-numeric:normal;font-feature-settings:normal;text-align:start;letter-spacing:0px;writing-mode:lr-tb;text-anchor:start;fill:#ffffff;stroke-width:0.26458332"
           id="tspan20" /></text>
      <text
         transform="translate(-107.30648,-142.74695)"
         xml:space="preserve"
         style="font-style:normal;font-weight:normal;font-size:10.58333302px;line-height:1.25;font-family:sans-serif;letter-spacing:0px;word-spacing:0px;fill:#000000;fill-opacity:1;stroke:none;stroke-width:0.26458332"
         x="115.80371"
         y="164.32187"
         id="text24"><tspan
           sodipodi:role="line"
           id="tspan22"
           x="115.80371"
           y="164.32187"
           style="font-style:normal;font-variant:normal;font-weight:600;font-stretch:normal;font-size:3.52777767px;font-family:hind;-inkscape-font-specification:'hind Semi-Bold';fill:#ffffff;stroke-width:0.26458332">BUGS</tspan></text>
      <g
         id="g1711"
         transform="matrix(0.77038099,0,0,0.77038099,-79.603529,-109.21274)">
        <path
           id="path31"
           d="m 124.19521,152.74449 c -0.007,0.28142 -0.24567,0.50215 -0.52717,0.50215 h -0.8935 v 0.2584 c 0,0.35301 -0.0787,0.68748 -0.21957,0.9872 l 0.97242,0.97253 c 0.20183,0.20172 0.20183,0.52887 0,0.73066 -0.20174,0.20185 -0.52889,0.20178 -0.73067,0 l -0.88385,-0.88381 c -0.39957,0.32412 -0.90876,0.51843 -1.46337,0.51843 v -3.93972 c 0,-0.10698 -0.0868,-0.19374 -0.19378,-0.19374 h -0.38752 c -0.10698,0 -0.19374,0.0867 -0.19374,0.19374 v 3.93972 c -0.55465,0 -1.0638,-0.19431 -1.46344,-0.51843 l -0.88378,0.88381 c -0.20181,0.20185 -0.52896,0.20178 -0.73069,0 -0.20182,-0.20179 -0.20182,-0.52894 0,-0.73066 l 0.97244,-0.97253 c -0.14077,-0.29972 -0.21958,-0.63419 -0.21958,-0.9872 v -0.2584 h -0.89349 c -0.2815,0 -0.51952,-0.22073 -0.52719,-0.50215 -0.007,-0.29198 0.22627,-0.53121 0.51644,-0.53121 h 0.90424 v -0.94854 l -0.75286,-0.75287 c -0.20182,-0.20176 -0.20182,-0.52893 0,-0.73068 0.20174,-0.2018 0.52888,-0.2018 0.73069,0 l 0.88204,0.88203 h 3.70536 l 0.88208,-0.882 c 0.20178,-0.20183 0.52892,-0.20183 0.73067,0 0.20178,0.2018 0.20178,0.5289 0,0.73068 l -0.75285,0.75284 v 0.94854 h 0.90422 c 0.2902,0 0.5245,0.23923 0.51645,0.53121 z m -4.11711,-4.66471 c -0.99872,0 -1.80832,0.80966 -1.80832,1.80843 h 3.61676 c 0,-0.99877 -0.80968,-1.80843 -1.80844,-1.80843 z"
           style="fill:#ffffff;stroke-width:0.01614639"
           inkscape:connector-curvature="0" />
        <text
           id="text1706"
           y="154.82523"
           x="112.78714"
           style="font-style:normal;font-weight:normal;font-size:10.58333302px;line-height:1.25;font-family:sans-serif;letter-spacing:0px;word-spacing:0px;fill:#000000;fill-opacity:1;stroke:none;stroke-width:0.26458332"
           xml:space="preserve"><tspan
             style="font-style:normal;font-variant:normal;font-weight:600;font-stretch:normal;font-size:8.46666622px;font-family:hind;-inkscape-font-specification:'hind Semi-Bold';fill:#ffffff;stroke-width:0.26458332"
             y="154.82523"
             x="112.78714"
             id="tspan1704"
             sodipodi:role="line">{    }</tspan></text>
      </g>
      <text
         transform="translate(-107.30648,-142.74695)"
         xml:space="preserve"
         style="font-style:normal;font-weight:normal;font-size:10.58333302px;line-height:1.25;font-family:sans-serif;letter-spacing:0px;word-spacing:0px;fill:#000000;fill-opacity:1;stroke:none;stroke-width:0.26458332"
         x="110.97173"
         y="161.15938"
         id="text1719"><tspan
           sodipodi:role="line"
           id="tspan1717"
           x="110.97173"
           y="161.15938"
           style="font-style:normal;font-variant:normal;font-weight:600;font-stretch:normal;font-size:4.23333311px;font-family:hind;-inkscape-font-specification:'hind Semi-Bold';fill:#ffffff;stroke-width:0.26458332">SECURITY</tspan></text>
    </g>
    <g
       inkscape:groupmode="layer"
       id="layer4"
       inkscape:label="gleam">
      <path
         transform="translate(-107.30648,-142.74695)"
         class="cls-6"
         d="m 125.48313,165.07693 a 13.380636,13.380636 0 0 1 -11.04673,-20.94224 13.383781,13.383781 0 1 0 16.04166,19.97659 13.346037,13.346037 0 0 1 -4.99493,0.96565 z"
         id="path133-3"
         inkscape:connector-curvature="0"
         style="display:inline;opacity:0.15;fill:#ffffff;stroke-width:0.31454244"
         clip-path="url(#clipPath2238)" />
    </g>
  </g>
</svg>
