<?xml version="1.0" encoding="UTF-8" standalone="no"?>
<svg
   xmlns:dc="http://purl.org/dc/elements/1.1/"
   xmlns:cc="http://creativecommons.org/ns#"
   xmlns:rdf="http://www.w3.org/1999/02/22-rdf-syntax-ns#"
   xmlns:svg="http://www.w3.org/2000/svg"
   xmlns="http://www.w3.org/2000/svg"
   xmlns:sodipodi="http://sodipodi.sourceforge.net/DTD/sodipodi-0.dtd"
   xmlns:inkscape="http://www.inkscape.org/namespaces/inkscape"
   sodipodi:docname="injection-code-analysis.svg"
   inkscape:version="1.0beta2 (2b71d25, 2019-12-03)"
   id="svg1709"
   version="1.1"
   viewBox="0 0 25.7799 25.779899"
   height="25.7799mm"
   width="25.7799mm">
  <defs
     id="defs1703">
    <clipPath
       id="clip-path">
      <rect
         class="cls-1"
         x="0.02"
         y="0.02"
         width="255.98"
         height="255.98"
         id="rect48" />
    </clipPath>
    <clipPath
       id="clip-path-0">
      <rect
         class="cls-1"
         x="0.02"
         y="0.02"
         width="255.98"
         height="255.98"
         id="rect48-2" />
    </clipPath>
    <clipPath
       id="clip-path-9">
      <rect
         class="cls-1"
         x="0.02"
         y="0.02"
         width="255.98"
         height="255.98"
         id="rect48-3" />
    </clipPath>
    <clipPath
       id="clip-path-95">
      <rect
         class="cls-1"
         x="0.02"
         y="0.02"
         width="255.98"
         height="255.98"
         id="rect48-6" />
    </clipPath>
  </defs>
  <sodipodi:namedview
     inkscape:document-rotation="0"
     inkscape:window-maximized="0"
     inkscape:window-y="23"
     inkscape:window-x="70"
     inkscape:window-height="923"
     inkscape:window-width="1600"
     fit-margin-bottom="0"
     fit-margin-right="0"
     fit-margin-left="0"
     fit-margin-top="0"
     showgrid="false"
     inkscape:current-layer="layer5"
     inkscape:document-units="mm"
     inkscape:cy="50.948947"
     inkscape:cx="42.686715"
     inkscape:zoom="7.1493216"
     inkscape:pageshadow="2"
     inkscape:pageopacity="0.0"
     borderopacity="1.0"
     bordercolor="#666666"
     pagecolor="#ffffff"
     id="base" />
  <metadata
     id="metadata1706">
    <rdf:RDF>
      <cc:Work
         rdf:about="">
        <dc:format>image/svg+xml</dc:format>
        <dc:type
           rdf:resource="http://purl.org/dc/dcmitype/StillImage" />
        <dc:title></dc:title>
      </cc:Work>
    </rdf:RDF>
  </metadata>
  <g
     style="display:inline"
     transform="translate(-76.098697,-100.99309)"
     id="layer1"
     inkscape:groupmode="layer"
     inkscape:label="button">
    <g
       style="display:inline"
       transform="translate(76.098697,100.99309)"
       inkscape:label="background"
       id="layer5"
       inkscape:groupmode="layer">
      <circle
         transform="translate(-76.098696,-100.99309)"
         style="display:inline;fill:#89a8eb;fill-opacity:1;stroke:#dadada;stroke-width:0;stroke-miterlimit:10;stroke-dasharray:none;stroke-opacity:1"
         id="circle129-7"
         r="12.889999"
         cy="113.88011"
         cx="88.987877"
         class="cls-4" />
      <path
         clip-path="none"
         style="display:inline;fill:#999999;fill-opacity:1;stroke-width:0.314542"
         inkscape:connector-curvature="0"
         id="path131-3"
         d="m 106.08657,150.08769 a 4.8376628,4.8376628 0 0 1 0.53787,0.60707 2.6578838,2.6578838 0 0 1 1.09461,-0.42463 c 0.62908,0.27365 1.25817,0.56932 1.25817,0.62908 0,0.0598 -0.94363,-0.33656 -1.27704,-0.42778 a 2.5666665,2.5666665 0 0 0 -0.90903,0.36487 c -0.0315,0.0912 0,0.12267 0,0.12267 a 2.7082107,2.7082107 0 0 1 0.42463,0.18244 c 0.0598,0.11953 0.11953,0.48439 0.0314,0.57561 -0.0314,0.0315 -0.0189,0.044 -0.12267,0.0629 -0.1038,0.0189 -0.44351,0.53787 -0.77378,0.86814 -0.33027,0.33027 -1.50665,0.0723 -1.50665,0.0723 0,0 0.0692,0.6857 0.0912,1.36825 0.11952,0.21704 0.27365,0.27365 0.69828,0.45609 0.76119,0.0912 1.49408,-0.0189 1.52238,0.0598 0.0283,0.0786 -1.47834,0.1793 -1.61045,0.15098 -0.13211,-0.0283 -0.45609,-0.15098 -0.79265,-0.24219 a 3.1454246,3.1454246 0 0 0 0.70143,0.88071 c 0.60707,0.18244 1.21413,0.36488 1.21413,0.42779 a 10.25723,10.25723 0 0 1 -1.3368,-0.18244 7.8446892,7.8446892 0 0 1 -0.70143,-0.53156 c 0.0786,0.23275 0.14154,0.70143 0.31454,0.86498 0.41205,0.4089 0.94363,0.82095 0.89645,0.85871 a 10.505718,10.505718 0 0 1 -1.14808,-0.75805 c -0.21703,-0.47496 -0.54416,-1.29592 -0.54416,-1.29592 h -0.31454 a 52.475119,52.475119 0 0 1 1.15751,12.46847 c -1.31164,-0.65739 -4.51997,-5.49821 -2.30559,-8.61533 0.37116,-0.51899 0.41205,-3.7745 0.41205,-3.7745 a 2.4848854,2.4848854 0 0 1 -0.7203,-0.31454 0.88386433,0.88386433 0 0 1 -0.21075,0.0283 c 1.39343,3.1989 -8.357393,7.81009 -8.357393,7.81009 0,0 4.58288,-9.73823 7.781783,-8.34167 a 0.88700972,0.88700972 0 0 1 0.0283,-0.21388 2.4848854,2.4848854 0 0 1 -0.31454,-0.72031 c 0,0 -3.249223,0.0409 -3.774513,0.41205 -3.11712,2.20178 -7.957931,-0.99396 -8.61532,-2.3056 a 52.670136,52.670136 0 0 1 12.471613,1.16695 V 152.063 c 0,0 -0.82096,-0.33027 -1.29592,-0.5473 a 10.505718,10.505718 0 0 1 -0.758043,-1.14809 c 0.0377,-0.0472 0.44979,0.4844 0.858703,0.89645 0.16356,0.16356 0.62908,0.22647 0.86813,0.31454 a 7.3005304,7.3005304 0 0 1 -0.53472,-0.70143 9.7508163,9.7508163 0 0 1 -0.19187,-1.36826 c 0.0598,0 0.2422,0.60707 0.42463,1.21728 a 3.1863152,3.1863152 0 0 0 0.8933,0.70772 c -0.0912,-0.33656 -0.21389,-0.62908 -0.24219,-0.7895 -0.0283,-0.16041 0.0724,-1.63876 0.15098,-1.61045 0.0786,0.0283 -0.0315,0.75804 0.0598,1.51923 0.18243,0.42464 0.24219,0.57876 0.45608,0.69829 0.68256,0.022 1.36826,0.0912 1.36826,0.0912 0,0 -0.25478,-1.17954 0.0755,-1.50666 0.33027,-0.32713 0.84927,-0.66998 0.86499,-0.77378 0.0157,-0.10379 0.0314,-0.0912 0.0629,-0.11952 0.0912,-0.0912 0.45609,-0.0315 0.57562,0.0283 a 2.8466092,2.8466092 0 0 1 0.18243,0.42463 c 0,0 0.0314,0.0315 0.12267,0 a 2.5666665,2.5666665 0 0 0 0.35229,-0.91846 c -0.0912,-0.33656 -0.49383,-1.27391 -0.42463,-1.27705 0.0692,-0.003 0.36172,0.60707 0.62909,1.25817 a 2.6421567,2.6421567 0 0 1 -0.40576,1.08832 4.8376628,4.8376628 0 0 1 0.60706,0.54101 z"
         class="cls-5"
         transform="translate(-86.908836,-143.51764)" />
    </g>
    <g
       style="display:inline"
       inkscape:label="magnifier"
       id="layer7"
       inkscape:groupmode="layer">
      <g
         transform="matrix(0.11646483,0,0,0.11646483,84.521654,112.36262)"
         id="g4134"
         style="display:inline;fill:#8932eb;fill-opacity:1">
        <g
           style="fill:#8932eb;fill-opacity:1"
           id="g4132">
          <path
             style="fill:#8932eb;fill-opacity:1"
             inkscape:connector-curvature="0"
             d="m 96.27,8.912 c -2.832,-2.831 -7.423,-2.831 -10.254,0 l -20.86,20.859 c -1.785,1.785 -2.442,4.27 -1.977,6.572 l -4.854,4.854 c -10.959,-8.205 -26.608,-7.333 -36.564,2.624 -1.809,1.81 -3.311,3.809 -4.52,5.931 -0.159,-0.195 -0.391,-0.328 -0.662,-0.328 h -1.347 c -0.477,0 -0.866,0.388 -0.866,0.864 v 2.694 c 0,0.478 0.389,0.865 0.866,0.865 h 0.098 c -0.183,0.492 -0.353,0.988 -0.507,1.487 l -1.432,0.997 c -0.131,0.092 -0.163,0.271 -0.071,0.402 0.09,0.131 0.271,0.162 0.401,0.071 l 0.849,-0.591 c -0.496,1.82 -0.806,3.683 -0.929,5.555 -0.066,0.122 -0.113,0.255 -0.113,0.403 v 2.693 c 0,0.139 0.04,0.265 0.098,0.38 0.074,1.283 0.233,2.563 0.482,3.828 v 2.266 c 0,0.457 0.36,0.822 0.81,0.854 0.576,1.8 1.338,3.552 2.287,5.229 0.014,0.281 0.166,0.52 0.388,0.667 0.357,0.592 0.739,1.171 1.144,1.739 l -1.013,0.705 c -0.131,0.092 -0.163,0.271 -0.072,0.402 0.091,0.131 0.271,0.163 0.401,0.072 l 1.02,-0.71 c 0.037,0.05 0.077,0.099 0.115,0.147 v 3.355 c 0,0.158 0.129,0.288 0.289,0.288 0.159,0 0.289,-0.129 0.289,-0.288 v -2.61 c 0.62,0.768 1.284,1.512 1.998,2.226 10.917,10.917 28.681,10.917 39.599,0 0.584,-0.585 1.131,-1.192 1.654,-1.814 v 1.479 c 0,0.478 0.389,0.865 0.866,0.865 h 1.347 c 0.479,0 0.865,-0.389 0.865,-0.865 v -2.692 c 0,-0.479 -0.388,-0.866 -0.865,-0.866 h -0.623 c 0.907,-1.313 1.68,-2.69 2.336,-4.109 v 1.825 c 0,0.479 0.389,0.865 0.866,0.865 h 1.347 c 0.479,0 0.867,-0.388 0.867,-0.865 v -2.692 c 0,-0.479 -0.389,-0.866 -0.867,-0.866 h -1.351 c -0.056,0 -0.104,0.021 -0.157,0.031 0.523,-1.358 0.938,-2.745 1.242,-4.155 0.133,-0.101 0.225,-0.252 0.225,-0.433 v -0.478 l 0.654,-0.455 v 3.584 c 0,0.159 0.131,0.288 0.289,0.288 0.159,0 0.289,-0.129 0.289,-0.288 v -4.137 c 0,-0.108 -0.061,-0.207 -0.154,-0.256 -0.097,-0.052 -0.211,-0.043 -0.299,0.019 l -0.672,0.469 c 0.115,-0.758 0.199,-1.519 0.252,-2.28 0.002,0 0.004,0.002 0.006,0.002 0.158,0 0.287,-0.129 0.287,-0.288 v -4.139 c 0,-0.106 -0.06,-0.206 -0.154,-0.256 -0.067,-0.035 -0.142,-0.032 -0.211,-0.012 -0.037,-0.386 -0.097,-0.768 -0.149,-1.151 h 0.159 c 0.478,0 0.865,-0.388 0.865,-0.864 v -2.693 c 0,-0.479 -0.388,-0.866 -0.865,-0.866 h -1.137 c -0.303,-0.981 -0.67,-1.946 -1.084,-2.896 v -2.279 c 0,-0.478 -0.389,-0.865 -0.867,-0.865 H 65.591 C 65.097,48.453 64.57,47.64 63.985,46.857 l 4.854,-4.854 c 2.303,0.467 4.787,-0.19 6.571,-1.977 L 96.27,19.167 c 2.83,-2.833 2.83,-7.424 0,-10.255 z M 69.152,74.257 c 0.16,0 0.289,0.13 0.289,0.289 v 2.692 c 0,0.159 -0.129,0.288 -0.289,0.288 h -1.347 c -0.159,0 -0.289,-0.129 -0.289,-0.288 v -2.692 c 0,-0.159 0.13,-0.289 0.289,-0.289 z M 25.946,51.136 c 0.445,-0.557 0.919,-1.096 1.432,-1.61 h 1.683 c 0.303,0 0.549,0.246 0.549,0.549 v 5.128 c 0,0.304 -0.246,0.549 -0.549,0.549 h -2.564 c -0.302,0 -0.55,-0.245 -0.55,-0.549 z m -10.713,2.135 c -0.159,0 -0.289,-0.129 -0.289,-0.288 v -2.694 c 0,-0.158 0.13,-0.288 0.289,-0.288 h 1.347 c 0.159,0 0.288,0.13 0.288,0.288 v 0.134 c -0.496,0.93 -0.936,1.881 -1.32,2.85 z m 12.779,24.555 c 0,0.136 -0.055,0.255 -0.136,0.352 -0.15,-0.143 -0.311,-0.268 -0.458,-0.414 -1.222,-1.223 -2.23,-2.574 -3.069,-3.998 v -1.067 c 0,-0.303 0.248,-0.549 0.55,-0.549 h 2.564 c 0.303,0 0.549,0.246 0.549,0.549 z m 0.68,1.087 c 0.258,-0.29 0.419,-0.669 0.419,-1.087 v -5.128 c 0,-0.909 -0.738,-1.647 -1.647,-1.647 H 24.9 c -0.652,0 -1.213,0.385 -1.48,0.937 -2.849,-6.196 -2.387,-13.552 1.428,-19.352 v 2.565 c 0,0.908 0.74,1.647 1.648,1.647 h 2.564 c 0.909,0 1.647,-0.739 1.647,-1.647 v -5.128 c 0,-0.909 -0.738,-1.647 -1.647,-1.647 h -0.475 c 7.617,-6.512 18.982,-6.361 26.433,0.436 -0.212,-0.101 -0.447,-0.16 -0.697,-0.16 h -2.564 c -0.908,0 -1.648,0.739 -1.648,1.648 v 5.128 c 0,0.908 0.74,1.646 1.648,1.646 h 2.564 c 0.908,0 1.646,-0.738 1.646,-1.646 v -5.129 c 0,-0.308 -0.089,-0.591 -0.234,-0.837 3.119,3.134 4.963,7.054 5.573,11.126 C 61.013,60.367 60.625,60.2 60.196,60.2 h -2.562 c -0.909,0 -1.646,0.739 -1.646,1.648 v 5.128 c 0,0.908 0.737,1.646 1.646,1.646 h 2.562 c 0.271,0 0.521,-0.07 0.748,-0.188 -0.197,0.801 -0.437,1.592 -0.733,2.367 -0.069,0.016 -0.14,0.027 -0.199,0.069 l -3.022,2.105 c -0.248,0.174 -0.31,0.517 -0.135,0.766 0.172,0.249 0.516,0.311 0.764,0.138 l 1.783,-1.242 c -0.933,1.847 -2.156,3.583 -3.697,5.123 -7.391,7.391 -19.164,7.767 -27.013,1.153 z M 54.869,50.349 v 5.128 c 0,0.303 -0.246,0.549 -0.549,0.549 h -2.564 c -0.303,0 -0.551,-0.246 -0.551,-0.549 v -5.128 c 0,-0.303 0.248,-0.549 0.551,-0.549 h 2.564 c 0.303,0.001 0.549,0.247 0.549,0.549 z m 5.877,11.5 v 5.128 c 0,0.303 -0.247,0.549 -0.551,0.549 h -2.562 c -0.303,0 -0.549,-0.246 -0.549,-0.549 v -5.128 c 0,-0.303 0.246,-0.549 0.549,-0.549 h 2.562 c 0.304,0.001 0.551,0.247 0.551,0.549 z m 4.481,18.252 c 0.159,0 0.288,0.129 0.288,0.288 v 2.693 c 0,0.159 -0.129,0.288 -0.288,0.288 H 63.88 c -0.159,0 -0.289,-0.129 -0.289,-0.288 v -2.219 c 0.196,-0.252 0.39,-0.507 0.577,-0.764 z M 69.41,55.897 c 0.16,0 0.289,0.13 0.289,0.289 v 2.693 c 0,0.158 -0.129,0.287 -0.289,0.287 h -0.246 c -0.176,-1.1 -0.397,-2.192 -0.704,-3.271 z m -3.086,-6.041 c 0.158,0 0.289,0.13 0.289,0.288 v 0.98 c -0.215,-0.432 -0.465,-0.848 -0.703,-1.27 z"
             id="path4036" />
          <path
             style="fill:#8932eb;fill-opacity:1"
             inkscape:connector-curvature="0"
             d="m 45.267,48.426 h -2.563 c -0.909,0 -1.647,0.738 -1.647,1.647 v 5.128 c 0,0.908 0.738,1.647 1.647,1.647 h 2.563 c 0.909,0 1.648,-0.739 1.648,-1.647 v -5.128 c 0,-0.909 -0.739,-1.647 -1.648,-1.647 z m 0.55,6.775 c 0,0.304 -0.247,0.549 -0.55,0.549 h -2.563 c -0.303,0 -0.549,-0.245 -0.549,-0.549 v -5.128 c 0,-0.303 0.246,-0.549 0.549,-0.549 h 2.563 c 0.303,0 0.55,0.246 0.55,0.549 z"
             id="path4038" />
          <path
             style="fill:#8932eb;fill-opacity:1"
             inkscape:connector-curvature="0"
             d="m 36.914,47.938 c -0.183,-0.096 -0.401,-0.081 -0.568,0.036 l -3.022,2.104 c -0.249,0.175 -0.31,0.518 -0.136,0.767 0.173,0.249 0.516,0.31 0.764,0.137 l 2.159,-1.504 V 56.3 c 0,0.304 0.246,0.549 0.55,0.549 0.303,0 0.549,-0.245 0.549,-0.549 V 48.425 C 37.209,48.22 37.095,48.032 36.914,47.938 Z"
             id="path4040" />
          <path
             style="fill:#8932eb;fill-opacity:1"
             inkscape:connector-curvature="0"
             d="m 34.936,59.926 h -2.563 c -0.909,0 -1.647,0.738 -1.647,1.647 v 5.128 c 0,0.908 0.738,1.647 1.647,1.647 h 2.563 c 0.909,0 1.648,-0.739 1.648,-1.647 v -5.128 c 0,-0.909 -0.739,-1.647 -1.648,-1.647 z m 0.55,6.775 c 0,0.304 -0.247,0.549 -0.55,0.549 h -2.563 c -0.303,0 -0.549,-0.245 -0.549,-0.549 v -5.128 c 0,-0.303 0.246,-0.549 0.549,-0.549 h 2.563 c 0.303,0 0.55,0.246 0.55,0.549 z"
             id="path4042" />
          <path
             style="fill:#8932eb;fill-opacity:1"
             inkscape:connector-curvature="0"
             d="M 26.583,59.438 C 26.4,59.342 26.182,59.357 26.015,59.474 l -3.022,2.104 c -0.249,0.175 -0.31,0.518 -0.136,0.767 0.173,0.249 0.516,0.31 0.764,0.137 L 25.78,60.978 V 67.8 c 0,0.304 0.246,0.549 0.55,0.549 0.303,0 0.549,-0.245 0.549,-0.549 V 59.925 C 26.878,59.72 26.764,59.532 26.583,59.438 Z"
             id="path4044" />
          <path
             style="fill:#8932eb;fill-opacity:1"
             inkscape:connector-curvature="0"
             d="m 43.989,60.2 h -2.564 c -0.908,0 -1.648,0.739 -1.648,1.648 v 5.128 c 0,0.908 0.74,1.646 1.648,1.646 h 2.564 c 0.909,0 1.647,-0.738 1.647,-1.646 V 61.848 C 45.637,60.939 44.899,60.2 43.989,60.2 Z m 0.549,6.777 c 0,0.303 -0.246,0.549 -0.549,0.549 h -2.564 c -0.302,0 -0.55,-0.246 -0.55,-0.549 v -5.128 c 0,-0.303 0.248,-0.549 0.55,-0.549 h 2.564 c 0.303,0 0.549,0.246 0.549,0.549 z"
             id="path4046" />
          <path
             style="fill:#8932eb;fill-opacity:1"
             inkscape:connector-curvature="0"
             d="m 51.04,61.254 v 6.821 c 0,0.305 0.245,0.549 0.55,0.549 0.303,0 0.549,-0.244 0.549,-0.549 V 60.2 c 0,-0.205 -0.113,-0.393 -0.295,-0.486 -0.184,-0.097 -0.4,-0.081 -0.568,0.035 l -3.021,2.105 c -0.249,0.174 -0.31,0.517 -0.136,0.766 0.173,0.249 0.516,0.311 0.764,0.138 z"
             id="path4048" />
          <path
             style="fill:#8932eb;fill-opacity:1"
             inkscape:connector-curvature="0"
             d="m 43.671,71.051 h -2.563 c -0.909,0 -1.647,0.738 -1.647,1.647 v 5.128 c 0,0.908 0.738,1.647 1.647,1.647 h 2.563 c 0.909,0 1.648,-0.739 1.648,-1.647 v -5.128 c 0,-0.909 -0.739,-1.647 -1.648,-1.647 z m 0.549,6.775 c 0,0.304 -0.247,0.549 -0.55,0.549 h -2.563 c -0.303,0 -0.549,-0.245 -0.549,-0.549 v -5.128 c 0,-0.303 0.246,-0.549 0.549,-0.549 h 2.563 c 0.303,0 0.55,0.246 0.55,0.549 z"
             id="path4050" />
          <path
             style="fill:#8932eb;fill-opacity:1"
             inkscape:connector-curvature="0"
             d="m 35.318,70.562 c -0.183,-0.096 -0.401,-0.081 -0.568,0.036 l -3.022,2.104 c -0.249,0.175 -0.31,0.518 -0.136,0.767 0.173,0.249 0.516,0.31 0.764,0.137 l 2.159,-1.504 v 6.822 c 0,0.304 0.246,0.549 0.55,0.549 0.303,0 0.549,-0.245 0.549,-0.549 V 71.05 c -10e-4,-0.205 -0.115,-0.393 -0.296,-0.488 z"
             id="path4052" />
          <path
             style="fill:#8932eb;fill-opacity:1"
             inkscape:connector-curvature="0"
             d="M 52.724,71.325 H 50.16 c -0.908,0 -1.648,0.739 -1.648,1.648 v 5.128 c 0,0.908 0.74,1.646 1.648,1.646 h 2.564 c 0.909,0 1.647,-0.738 1.647,-1.646 v -5.128 c 0,-0.909 -0.737,-1.648 -1.647,-1.648 z m 0.549,6.777 c 0,0.303 -0.246,0.549 -0.55,0.549 H 50.16 c -0.302,0 -0.55,-0.246 -0.55,-0.549 v -5.128 c 0,-0.303 0.248,-0.549 0.55,-0.549 h 2.564 c 0.304,0 0.55,0.246 0.55,0.549 v 5.128 z"
             id="path4054" />
          <path
             style="fill:#8932eb;fill-opacity:1"
             inkscape:connector-curvature="0"
             d="M 74.838,49.279 H 73.49 c -0.478,0 -0.864,0.388 -0.864,0.865 v 2.694 c 0,0.477 0.388,0.864 0.864,0.864 h 1.348 c 0.479,0 0.865,-0.389 0.865,-0.864 v -2.694 c 0,-0.477 -0.387,-0.865 -0.865,-0.865 z m 0.289,3.561 c 0,0.158 -0.129,0.288 -0.289,0.288 H 73.49 c -0.158,0 -0.287,-0.13 -0.287,-0.288 v -2.694 c 0,-0.158 0.129,-0.288 0.287,-0.288 h 1.348 c 0.158,0 0.289,0.13 0.289,0.288 z"
             id="path4056" />
          <path
             style="fill:#8932eb;fill-opacity:1"
             inkscape:connector-curvature="0"
             d="m 70.449,49.023 c -0.096,-0.051 -0.211,-0.043 -0.297,0.019 l -1.588,1.106 c -0.132,0.091 -0.164,0.271 -0.072,0.401 0.092,0.131 0.271,0.163 0.402,0.071 l 1.133,-0.79 v 3.584 c 0,0.159 0.131,0.288 0.289,0.288 0.159,0 0.289,-0.129 0.289,-0.288 v -4.137 c 0,-0.105 -0.06,-0.205 -0.156,-0.254 z"
             id="path4058" />
          <path
             style="fill:#8932eb;fill-opacity:1"
             inkscape:connector-curvature="0"
             d="m 80.46,50.289 c 0,-0.478 -0.388,-0.864 -0.865,-0.864 h -1.347 c -0.477,0 -0.866,0.388 -0.866,0.864 v 2.694 c 0,0.478 0.39,0.865 0.866,0.865 h 1.347 c 0.478,0 0.865,-0.39 0.865,-0.865 z m -0.577,2.694 c 0,0.159 -0.129,0.288 -0.288,0.288 h -1.347 c -0.159,0 -0.289,-0.129 -0.289,-0.288 v -2.694 c 0,-0.158 0.13,-0.288 0.289,-0.288 h 1.347 c 0.159,0 0.288,0.13 0.288,0.288 z"
             id="path4060" />
          <path
             style="fill:#8932eb;fill-opacity:1"
             inkscape:connector-curvature="0"
             d="m 83.72,49.168 c -0.096,-0.051 -0.211,-0.043 -0.299,0.02 l -1.587,1.105 c -0.131,0.092 -0.163,0.271 -0.072,0.402 0.092,0.13 0.271,0.162 0.402,0.071 l 1.134,-0.79 v 3.584 c 0,0.159 0.129,0.288 0.289,0.288 0.159,0 0.289,-0.129 0.289,-0.288 V 49.423 C 83.875,49.315 83.814,49.218 83.72,49.168 Z"
             id="path4062" />
          <path
             style="fill:#8932eb;fill-opacity:1"
             inkscape:connector-curvature="0"
             d="m 72.82,59.891 h 1.347 c 0.478,0 0.864,-0.39 0.864,-0.866 v -2.693 c 0,-0.478 -0.387,-0.865 -0.864,-0.865 H 72.82 c -0.478,0 -0.867,0.389 -0.867,0.865 v 2.693 c 0,0.478 0.39,0.866 0.867,0.866 z m -0.289,-3.56 c 0,-0.158 0.129,-0.288 0.289,-0.288 h 1.347 c 0.159,0 0.288,0.13 0.288,0.288 v 2.693 c 0,0.159 -0.129,0.289 -0.288,0.289 H 72.82 c -0.16,0 -0.289,-0.13 -0.289,-0.289 z"
             id="path4064" />
          <path
             style="fill:#8932eb;fill-opacity:1"
             inkscape:connector-curvature="0"
             d="m 83.547,59.024 v -2.693 c 0,-0.478 -0.389,-0.865 -0.866,-0.865 h -1.347 c -0.479,0 -0.865,0.389 -0.865,0.865 v 2.693 c 0,0.479 0.389,0.866 0.865,0.866 h 1.347 c 0.477,10e-4 0.866,-0.387 0.866,-0.866 z m -0.577,0 c 0,0.159 -0.13,0.289 -0.289,0.289 h -1.347 c -0.159,0 -0.288,-0.13 -0.288,-0.289 v -2.693 c 0,-0.158 0.129,-0.288 0.288,-0.288 h 1.347 c 0.159,0 0.289,0.13 0.289,0.288 z"
             id="path4066" />
          <path
             style="fill:#8932eb;fill-opacity:1"
             inkscape:connector-curvature="0"
             d="m 78.293,55.209 c -0.096,-0.051 -0.211,-0.043 -0.299,0.02 l -1.588,1.105 c -0.131,0.092 -0.162,0.271 -0.07,0.402 0.09,0.131 0.271,0.162 0.4,0.071 l 1.135,-0.79 v 3.584 c 0,0.16 0.129,0.289 0.289,0.289 0.158,0 0.287,-0.129 0.287,-0.289 v -4.137 c 0,-0.107 -0.059,-0.204 -0.154,-0.255 z"
             id="path4068" />
          <path
             style="fill:#8932eb;fill-opacity:1"
             inkscape:connector-curvature="0"
             d="m 71.787,64.725 c 0,0.477 0.388,0.865 0.865,0.865 h 1.347 c 0.478,0 0.866,-0.39 0.866,-0.865 V 62.03 c 0,-0.478 -0.389,-0.866 -0.866,-0.866 h -1.347 c -0.479,0 -0.865,0.39 -0.865,0.866 z m 0.576,-2.695 c 0,-0.159 0.129,-0.288 0.289,-0.288 h 1.347 c 0.159,0 0.288,0.129 0.288,0.288 v 2.694 c 0,0.159 -0.129,0.288 -0.288,0.288 h -1.347 c -0.16,0 -0.289,-0.129 -0.289,-0.288 z"
             id="path4070" />
          <path
             style="fill:#8932eb;fill-opacity:1"
             inkscape:connector-curvature="0"
             d="m 76.543,62.176 v 2.693 c 0,0.478 0.389,0.865 0.865,0.865 h 1.348 c 0.479,0 0.865,-0.389 0.865,-0.865 v -2.693 c 0,-0.479 -0.389,-0.866 -0.865,-0.866 h -1.348 c -0.477,-0.001 -0.865,0.387 -0.865,0.866 z m 2.501,0 v 2.693 c 0,0.158 -0.129,0.288 -0.289,0.288 h -1.347 c -0.159,0 -0.289,-0.13 -0.289,-0.288 v -2.693 c 0,-0.159 0.13,-0.288 0.289,-0.288 h 1.347 c 0.16,-10e-4 0.289,0.128 0.289,0.288 z"
             id="path4072" />
          <path
             style="fill:#8932eb;fill-opacity:1"
             inkscape:connector-curvature="0"
             d="m 82.748,65.734 c 0.158,0 0.289,-0.129 0.289,-0.288 v -4.138 c 0,-0.107 -0.061,-0.205 -0.155,-0.256 -0.097,-0.05 -0.21,-0.042 -0.298,0.02 l -1.588,1.105 c -0.131,0.092 -0.163,0.271 -0.072,0.401 0.091,0.13 0.271,0.163 0.4,0.072 l 1.135,-0.79 v 3.584 c 10e-4,0.161 0.13,0.29 0.289,0.29 z"
             id="path4074" />
          <path
             style="fill:#8932eb;fill-opacity:1"
             inkscape:connector-curvature="0"
             d="m 74.58,67.638 h -1.348 c -0.478,0 -0.865,0.388 -0.865,0.865 v 2.693 c 0,0.478 0.389,0.865 0.865,0.865 h 1.348 c 0.478,0 0.865,-0.389 0.865,-0.865 v -2.693 c 0,-0.478 -0.388,-0.865 -0.865,-0.865 z m 0.287,3.559 c 0,0.159 -0.129,0.288 -0.289,0.288 h -1.346 c -0.16,0 -0.289,-0.129 -0.289,-0.288 v -2.693 c 0,-0.158 0.129,-0.288 0.289,-0.288 h 1.346 c 0.16,0 0.289,0.13 0.289,0.288 z"
             id="path4076" />
          <path
             style="fill:#8932eb;fill-opacity:1"
             inkscape:connector-curvature="0"
             d="m 79.336,67.782 h -1.348 c -0.477,0 -0.865,0.389 -0.865,0.865 v 2.694 c 0,0.477 0.389,0.864 0.865,0.864 h 1.348 c 0.477,0 0.865,-0.389 0.865,-0.864 v -2.694 c 0,-0.476 -0.389,-0.865 -0.865,-0.865 z m 0.288,3.561 c 0,0.158 -0.13,0.288 -0.288,0.288 h -1.348 c -0.158,0 -0.289,-0.13 -0.289,-0.288 v -2.694 c 0,-0.159 0.131,-0.288 0.289,-0.288 h 1.348 c 0.158,0 0.288,0.129 0.288,0.288 z"
             id="path4078" />
          <path
             style="fill:#8932eb;fill-opacity:1"
             inkscape:connector-curvature="0"
             d="m 83.462,67.526 c -0.097,-0.051 -0.211,-0.043 -0.3,0.02 l -1.586,1.105 c -0.131,0.091 -0.164,0.271 -0.072,0.402 0.091,0.13 0.271,0.162 0.402,0.07 l 1.134,-0.79 v 3.584 c 0,0.159 0.129,0.288 0.288,0.288 0.16,0 0.289,-0.129 0.289,-0.288 V 67.78 c 0,-0.105 -0.06,-0.205 -0.155,-0.254 z"
             id="path4080" />
          <path
             style="fill:#8932eb;fill-opacity:1"
             inkscape:connector-curvature="0"
             d="m 73.908,73.823 h -1.346 c -0.478,0 -0.867,0.39 -0.867,0.866 v 2.693 c 0,0.478 0.39,0.865 0.867,0.865 h 1.346 c 0.478,0 0.865,-0.389 0.865,-0.865 v -2.693 c 0,-0.476 -0.387,-0.866 -0.865,-0.866 z m 0.289,3.561 c 0,0.158 -0.129,0.289 -0.289,0.289 h -1.346 c -0.16,0 -0.289,-0.131 -0.289,-0.289 V 74.69 c 0,-0.159 0.129,-0.288 0.289,-0.288 h 1.346 c 0.16,0 0.289,0.129 0.289,0.288 z"
             id="path4082" />
          <path
             style="fill:#8932eb;fill-opacity:1"
             inkscape:connector-curvature="0"
             d="m 82.423,73.823 h -1.347 c -0.479,0 -0.865,0.39 -0.865,0.866 v 2.693 c 0,0.478 0.388,0.865 0.865,0.865 h 1.347 c 0.478,0 0.866,-0.389 0.866,-0.865 v -2.693 c 0,-0.476 -0.389,-0.866 -0.866,-0.866 z m 0.289,3.561 c 0,0.158 -0.13,0.289 -0.289,0.289 h -1.347 c -0.159,0 -0.289,-0.131 -0.289,-0.289 V 74.69 c 0,-0.159 0.13,-0.288 0.289,-0.288 h 1.347 c 0.159,0 0.289,0.129 0.289,0.288 z"
             id="path4084" />
          <path
             style="fill:#8932eb;fill-opacity:1"
             inkscape:connector-curvature="0"
             d="m 77.613,74.376 v 3.585 c 0,0.159 0.129,0.288 0.289,0.288 0.158,0 0.287,-0.129 0.287,-0.288 v -4.138 c 0,-0.106 -0.06,-0.206 -0.154,-0.256 -0.096,-0.051 -0.211,-0.043 -0.299,0.02 l -1.588,1.105 c -0.131,0.091 -0.162,0.271 -0.07,0.402 0.09,0.131 0.271,0.162 0.4,0.07 z"
             id="path4086" />
          <path
             style="fill:#8932eb;fill-opacity:1"
             inkscape:connector-curvature="0"
             d="m 73.74,79.522 h -1.346 c -0.479,0 -0.865,0.389 -0.865,0.866 v 2.693 c 0,0.478 0.388,0.865 0.865,0.865 h 1.346 c 0.479,0 0.867,-0.389 0.867,-0.865 v -2.693 c 0,-0.477 -0.388,-0.866 -0.867,-0.866 z m 0.289,3.561 c 0,0.159 -0.129,0.288 -0.289,0.288 h -1.346 c -0.16,0 -0.289,-0.129 -0.289,-0.288 v -2.694 c 0,-0.159 0.129,-0.288 0.289,-0.288 h 1.346 c 0.16,0 0.289,0.129 0.289,0.288 z"
             id="path4088" />
          <path
             style="fill:#8932eb;fill-opacity:1"
             inkscape:connector-curvature="0"
             d="m 69.354,79.267 c -0.097,-0.05 -0.212,-0.043 -0.3,0.02 l -1.587,1.105 c -0.131,0.092 -0.163,0.271 -0.07,0.401 0.09,0.132 0.271,0.162 0.4,0.072 l 1.134,-0.79 v 3.584 c 0,0.159 0.129,0.288 0.289,0.288 0.159,0 0.288,-0.129 0.288,-0.288 v -4.138 c 0,-0.106 -0.061,-0.205 -0.154,-0.254 z"
             id="path4090" />
          <path
             style="fill:#8932eb;fill-opacity:1"
             inkscape:connector-curvature="0"
             d="M 78.496,79.667 H 77.15 c -0.478,0 -0.867,0.39 -0.867,0.866 v 2.694 c 0,0.477 0.39,0.865 0.867,0.865 h 1.346 c 0.479,0 0.865,-0.39 0.865,-0.865 v -2.694 c 0.002,-0.477 -0.386,-0.866 -0.865,-0.866 z m 0.289,3.561 c 0,0.158 -0.129,0.288 -0.289,0.288 H 77.15 c -0.16,0 -0.289,-0.13 -0.289,-0.288 v -2.694 c 0,-0.159 0.129,-0.288 0.289,-0.288 h 1.346 c 0.16,0 0.289,0.129 0.289,0.288 z"
             id="path4092" />
          <path
             style="fill:#8932eb;fill-opacity:1"
             inkscape:connector-curvature="0"
             d="m 82.623,79.411 c -0.096,-0.05 -0.211,-0.042 -0.299,0.021 l -1.586,1.104 c -0.131,0.093 -0.164,0.271 -0.072,0.402 0.091,0.131 0.271,0.163 0.4,0.072 l 1.135,-0.79 v 3.584 c 0,0.159 0.129,0.288 0.289,0.288 0.158,0 0.289,-0.129 0.289,-0.288 v -4.139 c 0,-0.105 -0.061,-0.202 -0.156,-0.254 z"
             id="path4094" />
          <path
             style="fill:#8932eb;fill-opacity:1"
             inkscape:connector-curvature="0"
             d="M 4.175,50.145 C 4.175,49.666 3.787,49.28 3.309,49.28 H 1.962 c -0.477,0 -0.866,0.388 -0.866,0.865 v 2.694 c 0,0.477 0.389,0.864 0.866,0.864 h 1.347 c 0.478,0 0.866,-0.389 0.866,-0.864 z M 3.598,52.84 c 0,0.158 -0.13,0.288 -0.289,0.288 H 1.962 c -0.159,0 -0.289,-0.13 -0.289,-0.288 v -2.694 c 0,-0.158 0.13,-0.288 0.289,-0.288 h 1.347 c 0.159,0 0.289,0.13 0.289,0.288 z"
             id="path4096" />
          <path
             style="fill:#8932eb;fill-opacity:1"
             inkscape:connector-curvature="0"
             d="m 11.823,49.279 h -1.347 c -0.478,0 -0.865,0.388 -0.865,0.865 v 2.694 c 0,0.477 0.388,0.864 0.865,0.864 h 1.347 c 0.478,0 0.866,-0.389 0.866,-0.864 v -2.694 c 0,-0.477 -0.388,-0.865 -0.866,-0.865 z m 0.289,3.561 c 0,0.158 -0.129,0.288 -0.289,0.288 h -1.347 c -0.159,0 -0.288,-0.13 -0.288,-0.288 v -2.694 c 0,-0.158 0.129,-0.288 0.288,-0.288 h 1.347 c 0.159,0 0.289,0.13 0.289,0.288 z"
             id="path4098" />
          <path
             style="fill:#8932eb;fill-opacity:1"
             inkscape:connector-curvature="0"
             d="M 7.435,49.023 C 7.339,48.972 7.224,48.98 7.137,49.042 l -1.588,1.106 c -0.131,0.091 -0.163,0.271 -0.071,0.401 0.091,0.131 0.271,0.163 0.401,0.071 l 1.134,-0.79 v 3.584 c 0,0.159 0.13,0.288 0.289,0.288 0.159,0 0.289,-0.129 0.289,-0.288 v -4.137 c 0,-0.105 -0.061,-0.205 -0.156,-0.254 z"
             id="path4100" />
          <path
             style="fill:#8932eb;fill-opacity:1"
             inkscape:connector-curvature="0"
             d="m 5.05,59.745 h 1.346 c 0.478,0 0.866,-0.388 0.866,-0.864 v -2.693 c 0,-0.479 -0.388,-0.866 -0.866,-0.866 H 5.049 c -0.478,0 -0.866,0.388 -0.866,0.866 v 2.693 c 0.001,0.476 0.388,0.864 0.867,0.864 z M 4.761,56.187 c 0,-0.159 0.129,-0.289 0.289,-0.289 h 1.346 c 0.159,0 0.289,0.13 0.289,0.289 v 2.693 c 0,0.158 -0.129,0.287 -0.289,0.287 H 5.049 C 4.89,59.167 4.76,59.038 4.76,58.88 Z"
             id="path4102" />
          <path
             style="fill:#8932eb;fill-opacity:1"
             inkscape:connector-curvature="0"
             d="m 9.805,59.891 h 1.347 c 0.477,0 0.865,-0.39 0.865,-0.866 v -2.693 c 0,-0.478 -0.388,-0.865 -0.865,-0.865 H 9.805 c -0.477,0 -0.866,0.389 -0.866,0.865 v 2.693 c 0,0.478 0.389,0.866 0.866,0.866 z m -0.289,-3.56 c 0,-0.158 0.13,-0.288 0.289,-0.288 h 1.347 c 0.159,0 0.288,0.13 0.288,0.288 v 2.693 c 0,0.159 -0.129,0.289 -0.288,0.289 H 9.805 c -0.159,0 -0.289,-0.13 -0.289,-0.289 z"
             id="path4104" />
          <path
             style="fill:#8932eb;fill-opacity:1"
             inkscape:connector-curvature="0"
             d="m 1.124,65.591 h 1.347 c 0.478,0 0.865,-0.39 0.865,-0.865 v -2.694 c 0,-0.478 -0.388,-0.866 -0.865,-0.866 H 1.124 c -0.477,0 -0.866,0.39 -0.866,0.866 v 2.694 c 0,0.475 0.389,0.865 0.866,0.865 z M 0.835,62.03 c 0,-0.159 0.13,-0.288 0.289,-0.288 h 1.347 c 0.159,0 0.288,0.129 0.288,0.288 v 2.694 c 0,0.159 -0.129,0.288 -0.288,0.288 H 1.124 c -0.159,0 -0.289,-0.129 -0.289,-0.288 V 62.03 Z"
             id="path4106" />
          <path
             style="fill:#8932eb;fill-opacity:1"
             inkscape:connector-curvature="0"
             d="m 9.638,65.591 h 1.347 c 0.478,0 0.866,-0.39 0.866,-0.865 v -2.694 c 0,-0.478 -0.388,-0.866 -0.866,-0.866 H 9.638 c -0.478,0 -0.865,0.39 -0.865,0.866 v 2.694 c 0,0.475 0.387,0.865 0.865,0.865 z M 9.35,62.03 c 0,-0.159 0.129,-0.288 0.288,-0.288 h 1.347 c 0.159,0 0.289,0.129 0.289,0.288 v 2.694 c 0,0.159 -0.13,0.288 -0.289,0.288 H 9.638 c -0.159,0 -0.288,-0.129 -0.288,-0.288 z"
             id="path4108" />
          <path
             style="fill:#8932eb;fill-opacity:1"
             inkscape:connector-curvature="0"
             d="m 6.464,65.591 c 0.159,0 0.288,-0.129 0.288,-0.288 v -4.139 c 0,-0.106 -0.06,-0.206 -0.155,-0.256 -0.096,-0.05 -0.211,-0.043 -0.299,0.021 l -1.587,1.104 c -0.131,0.092 -0.163,0.271 -0.071,0.402 0.09,0.131 0.271,0.162 0.401,0.072 l 1.134,-0.79 v 3.584 c 0,0.161 0.129,0.29 0.289,0.29 z"
             id="path4110" />
          <path
             style="fill:#8932eb;fill-opacity:1"
             inkscape:connector-curvature="0"
             d="M 3.051,67.638 H 1.704 c -0.477,0 -0.866,0.388 -0.866,0.865 v 2.693 c 0,0.478 0.389,0.865 0.866,0.865 h 1.347 c 0.478,0 0.866,-0.389 0.866,-0.865 v -2.693 c 0,-0.478 -0.388,-0.865 -0.866,-0.865 z m 0.289,3.559 c 0,0.159 -0.13,0.288 -0.289,0.288 H 1.704 c -0.159,0 -0.289,-0.129 -0.289,-0.288 v -2.693 c 0,-0.158 0.13,-0.288 0.289,-0.288 h 1.347 c 0.159,0 0.289,0.13 0.289,0.288 z"
             id="path4112" />
          <path
             style="fill:#8932eb;fill-opacity:1"
             inkscape:connector-curvature="0"
             d="m 11.565,67.638 h -1.347 c -0.478,0 -0.865,0.388 -0.865,0.865 v 2.693 c 0,0.478 0.388,0.865 0.865,0.865 h 1.347 c 0.478,0 0.866,-0.389 0.866,-0.865 v -2.693 c 0,-0.478 -0.388,-0.865 -0.866,-0.865 z m 0.289,3.559 c 0,0.159 -0.129,0.288 -0.289,0.288 h -1.347 c -0.159,0 -0.288,-0.129 -0.288,-0.288 v -2.693 c 0,-0.158 0.129,-0.288 0.288,-0.288 h 1.347 c 0.159,0 0.289,0.13 0.289,0.288 z"
             id="path4114" />
          <path
             style="fill:#8932eb;fill-opacity:1"
             inkscape:connector-curvature="0"
             d="M 7.177,67.383 C 7.081,67.331 6.966,67.34 6.879,67.402 l -1.588,1.106 c -0.131,0.091 -0.163,0.271 -0.071,0.4 0.091,0.131 0.271,0.163 0.401,0.072 l 1.134,-0.79 v 3.584 c 0,0.159 0.13,0.288 0.289,0.288 0.159,0 0.289,-0.129 0.289,-0.288 V 67.637 C 7.332,67.529 7.272,67.431 7.177,67.383 Z"
             id="path4116" />
          <path
             style="fill:#8932eb;fill-opacity:1"
             inkscape:connector-curvature="0"
             d="M 6.138,73.679 H 4.791 c -0.478,0 -0.866,0.388 -0.866,0.866 v 2.692 c 0,0.479 0.388,0.865 0.866,0.865 h 1.347 c 0.478,0 0.866,-0.388 0.866,-0.865 v -2.692 c 0,-0.479 -0.389,-0.866 -0.866,-0.866 z m 0.288,3.559 c 0,0.159 -0.129,0.288 -0.289,0.288 H 4.79 c -0.159,0 -0.289,-0.129 -0.289,-0.288 v -2.692 c 0,-0.159 0.129,-0.289 0.289,-0.289 h 1.347 c 0.159,0 0.289,0.13 0.289,0.289 z"
             id="path4118" />
          <path
             style="fill:#8932eb;fill-opacity:1"
             inkscape:connector-curvature="0"
             d="M 10.894,73.823 H 9.547 c -0.477,0 -0.866,0.39 -0.866,0.866 v 2.693 c 0,0.478 0.389,0.865 0.866,0.865 h 1.347 c 0.477,0 0.865,-0.389 0.865,-0.865 v -2.693 c 0,-0.476 -0.388,-0.866 -0.865,-0.866 z m 0.288,3.561 c 0,0.158 -0.129,0.289 -0.288,0.289 H 9.547 c -0.159,0 -0.289,-0.131 -0.289,-0.289 V 74.69 c 0,-0.159 0.13,-0.288 0.289,-0.288 h 1.347 c 0.159,0 0.288,0.129 0.288,0.288 z"
             id="path4120" />
          <path
             style="fill:#8932eb;fill-opacity:1"
             inkscape:connector-curvature="0"
             d="m 14.598,74.376 v 3.585 c 0,0.159 0.129,0.288 0.289,0.288 0.159,0 0.288,-0.129 0.288,-0.288 v -4.138 c 0,-0.106 -0.06,-0.206 -0.155,-0.256 -0.096,-0.051 -0.211,-0.043 -0.299,0.02 l -1.587,1.105 c -0.131,0.091 -0.163,0.271 -0.071,0.402 0.09,0.131 0.271,0.162 0.401,0.07 z"
             id="path4122" />
          <path
             style="fill:#8932eb;fill-opacity:1"
             inkscape:connector-curvature="0"
             d="M 2.213,79.522 H 0.866 C 0.389,79.522 0,79.911 0,80.389 v 2.693 c 0,0.478 0.389,0.865 0.866,0.865 h 1.347 c 0.478,0 0.865,-0.389 0.865,-0.865 v -2.693 c 0,-0.478 -0.388,-0.867 -0.865,-0.867 z m 0.288,3.561 c 0,0.159 -0.129,0.288 -0.288,0.288 H 0.866 c -0.159,0 -0.289,-0.129 -0.289,-0.288 v -2.694 c 0,-0.159 0.13,-0.288 0.289,-0.288 h 1.347 c 0.159,0 0.288,0.129 0.288,0.288 z"
             id="path4124" />
          <path
             style="fill:#8932eb;fill-opacity:1"
             inkscape:connector-curvature="0"
             d="M 10.726,79.522 H 9.379 c -0.478,0 -0.865,0.389 -0.865,0.866 v 2.693 c 0,0.478 0.388,0.865 0.865,0.865 h 1.347 c 0.478,0 0.866,-0.389 0.866,-0.865 v -2.693 c 0,-0.477 -0.388,-0.866 -0.866,-0.866 z m 0.289,3.561 c 0,0.159 -0.13,0.288 -0.289,0.288 H 9.379 c -0.159,0 -0.288,-0.129 -0.288,-0.288 v -2.694 c 0,-0.159 0.129,-0.288 0.288,-0.288 h 1.347 c 0.159,0 0.289,0.129 0.289,0.288 z"
             id="path4126" />
          <path
             style="fill:#8932eb;fill-opacity:1"
             inkscape:connector-curvature="0"
             d="M 6.339,79.267 C 6.243,79.217 6.128,79.224 6.04,79.287 l -1.587,1.105 c -0.131,0.092 -0.163,0.271 -0.071,0.401 0.09,0.132 0.271,0.162 0.401,0.072 l 1.134,-0.79 v 3.584 c 0,0.159 0.129,0.288 0.289,0.288 0.159,0 0.288,-0.129 0.288,-0.288 V 79.521 C 6.493,79.415 6.433,79.316 6.339,79.267 Z"
             id="path4128" />
          <path
             style="fill:#8932eb;fill-opacity:1"
             inkscape:connector-curvature="0"
             d="m 15.483,79.667 h -1.347 c -0.477,0 -0.866,0.39 -0.866,0.866 v 2.694 c 0,0.477 0.389,0.865 0.866,0.865 h 1.347 c 0.478,0 0.865,-0.39 0.865,-0.865 v -2.694 c 0,-0.477 -0.388,-0.866 -0.865,-0.866 z m 0.288,3.561 c 0,0.158 -0.129,0.288 -0.289,0.288 h -1.347 c -0.159,0 -0.289,-0.13 -0.289,-0.288 v -2.694 c 0,-0.159 0.13,-0.288 0.289,-0.288 h 1.347 c 0.159,0 0.289,0.129 0.289,0.288 z"
             id="path4130" />
        </g>
      </g>
    </g>
    <g
       transform="translate(76.098697,100.99309)"
       inkscape:label="syringe"
       id="layer9"
       inkscape:groupmode="layer">
      <path
         style="display:inline;stroke-width:0.023457;fill:#8923eb;fill-opacity:1"
         inkscape:connector-curvature="0"
         d="m 3.6035675,10.519421 a 0.26506499,0.26506499 0 0 0 0.374375,0 l 0.06416,-0.06415 1.146746,1.14677 -0.78023,0.788298 a 0.25863775,0.25863775 0 0 0 9.44e-4,0.36396 l 0.307522,0.307523 a 0.25835627,0.25835627 0 0 0 0.364898,0 l 0.423705,-0.423706 4.2789478,4.278949 a 0.67556386,0.67556386 0 0 0 0.7499227,0.138561 l 0.221083,0.221106 a 0.59860119,0.59860119 0 0 0 0.711172,0.09979 l 1.380965,1.380941 A 0.16420825,0.16420825 0 0 0 13.08,18.525238 l -1.381035,-1.381012 a 0.59742835,0.59742835 0 0 0 -0.09972,-0.711078 l -0.221103,-0.221106 a 0.6732182,0.6732182 0 0 0 0.05792,-0.27419 0.66618103,0.66618103 0 0 0 -0.194436,-0.475733 l -0.435785,-0.43785 v 0.0047 h -0.002 l -1.0618077,-1.063146 -5.86e-4,-0.0013 -3.36e-4,-6.29e-4 -2.1217181,-2.121882 -2.31e-4,-3.55e-4 -2.3e-4,-2.3e-4 -0.6582057,-0.658229 0.423706,-0.423729 a 0.25835627,0.25835627 0 0 0 0,-0.364922 l -0.319392,-0.314629 a 0.25197594,0.25197594 0 0 0 -0.182449,-0.07079 h -6.73e-4 a 0.25117839,0.25117839 0 0 0 -0.182731,0.07173 l -0.778353,0.784053 -1.142969,-1.1441432 0.06413,-0.06474 a 0.26525264,0.26525264 0 0 0 0,-0.374868 l -0.109153,-0.109242 a 0.26506499,0.26506499 0 0 0 -0.374398,0 l -0.863994,0.8639482 a 0.26468968,0.26468968 0 0 0 0,0.374375 z m 7.7634495,6.525104 a 0.26940455,0.26940455 0 0 1 -0.37916,0 l -0.18958,-0.189603 0.379184,-0.37916 0.189556,0.18958 a 0.26844281,0.26844281 0 0 1 0,0.379183 z m -4.0963095,-5.08688 -0.2615,0.261499 a 0.16420794,0.16420794 0 0 0 0.232225,0.232225 l 0.261523,-0.261499 0.3072877,0.307288 -0.4952487,0.495274 a 0.16420793,0.16420793 0 0 0 0.2322247,0.232225 l 0.4952487,-0.495274 0.2891804,0.289297 -0.2615244,0.2615 a 0.16420837,0.16420837 0 1 0 0.2322264,0.232225 l 0.2615236,-0.2615 0.307288,0.307288 -0.4952732,0.495249 a 0.16420794,0.16420794 0 0 0 0.2322252,0.232225 l 0.4952727,-0.495272 0.289249,0.289248 -0.26164,0.261359 a 0.16420823,0.16420823 0 1 0 0.232225,0.232226 l 0.2615227,-0.2615 0.307288,0.307289 -0.4952727,0.495273 a 0.16420799,0.16420799 0 0 0 0.2322247,0.232225 l 0.4952957,-0.495273 0.28925,0.289249 -0.261547,0.26143 a 0.16420793,0.16420793 0 0 0 0.232225,0.232225 l 0.2615,-0.261524 0.321714,0.321691 a 0.34589808,0.34589808 0 0 1 0,0.487063 l -0.503483,0.503482 a 0.34589808,0.34589808 0 0 1 -0.487063,0 L 5.7379045,12.40591 6.7284265,11.415364 Z m -0.387934,-1.600265 0.219629,0.219605 -0.464591,0.464591 a 0.16084519,0.16084519 0 0 0 -0.05095,0.05097 l -1.171845,1.171798 a 0.16495018,0.16495018 0 0 0 -0.02831,0.02257 0.1628625,0.1628625 0 0 0 -0.02257,0.02833 l -0.464591,0.464592 -0.208276,-0.208253 z m -1.192932,0.738546 -0.269992,0.272688 -1.145526,-1.145549 0.271281,-0.2712822 z m -1.144237,-1.6468512 0.01912,0.01914 -0.13523,0.135253 -0.503483,0.5034832 -0.135254,0.13523 -0.01914,-0.01912 z"
         id="path4947" />
    </g>
    <g
       inkscape:label="reporting"
       id="layer8"
       inkscape:groupmode="layer"
       style="display:inline" />
    <g
       style="display:inline"
       transform="translate(76.098697,100.99309)"
       inkscape:label="content"
       id="layer2"
       inkscape:groupmode="layer">
      <text
         id="text7112"
         y="7.0124412"
         x="12.930437"
         style="font-style:normal;font-weight:normal;font-size:2.66014px;line-height:1.25;font-family:sans-serif;letter-spacing:0px;word-spacing:0px;display:inline;fill:#000000;fill-opacity:1;stroke:none;stroke-width:0.249388"
         xml:space="preserve"><tspan
           id="tspan1084"
           style="font-style:normal;font-variant:normal;font-weight:600;font-stretch:normal;font-size:3.32518px;font-family:hind;-inkscape-font-specification:'hind, Semi-Bold';font-variant-ligatures:normal;font-variant-caps:normal;font-variant-numeric:normal;font-feature-settings:normal;text-align:center;writing-mode:lr-tb;text-anchor:middle;fill:#ffffff;stroke-width:0.249388"
           y="7.0124412"
           x="12.930437"
           sodipodi:role="line">Injection</tspan><tspan
           id="tspan5534"
           style="font-style:normal;font-variant:normal;font-weight:600;font-stretch:normal;font-size:3.32518px;font-family:hind;-inkscape-font-specification:'hind, Semi-Bold';font-variant-ligatures:normal;font-variant-caps:normal;font-variant-numeric:normal;font-feature-settings:normal;text-align:center;writing-mode:lr-tb;text-anchor:middle;fill:#ffffff;stroke-width:0.249388"
           y="11.168917"
           x="12.930437"
           sodipodi:role="line">Code</tspan><tspan
           id="tspan5538"
           style="font-style:normal;font-variant:normal;font-weight:600;font-stretch:normal;font-size:3.32518px;font-family:hind;-inkscape-font-specification:'hind, Semi-Bold';font-variant-ligatures:normal;font-variant-caps:normal;font-variant-numeric:normal;font-feature-settings:normal;text-align:center;writing-mode:lr-tb;text-anchor:middle;fill:#ffffff;stroke-width:0.249388"
           y="15.325392"
           x="12.930437"
           sodipodi:role="line">Analysis</tspan></text>
    </g>
    <g
       style="display:inline"
       transform="translate(76.098697,100.99309)"
       inkscape:label="gleam"
       id="layer4"
       inkscape:groupmode="layer">
      <path
         transform="translate(-76.098696,-100.99309)"
         inkscape:connector-curvature="0"
         id="path133-3-3"
         d="m 83.291381,102.37078 a 13.383781,13.383781 0 0 0 -0.543637,0.25063 12.8895,12.889499 0 0 0 -6.648689,11.26133 12.8895,12.889499 0 0 0 12.889652,12.88966 12.8895,12.889499 0 0 0 9.406661,-4.10105 13.346037,13.346037 0 0 1 -4.057116,0.64131 13.380636,13.380636 0 0 1 -11.046871,-20.94188 z"
         style="display:inline;opacity:0.15;fill:#ffffff;stroke-width:0.314542" />
    </g>
  </g>
  <g
     style="display:inline"
     inkscape:label="edge"
     id="layer3"
     inkscape:groupmode="layer">
    <ellipse
       ry="12.888245"
       rx="12.888499"
       cy="12.885541"
       cx="12.888689"
       id="path1859"
       style="opacity:1;vector-effect:none;fill:none;fill-opacity:1;stroke:#000000;stroke-width:0.00300114;stroke-linecap:butt;stroke-linejoin:miter;stroke-miterlimit:4;stroke-dasharray:none;stroke-dashoffset:0;stroke-opacity:1" />
  </g>
  <g
     inkscape:label="contentscope"
     id="layer6"
     inkscape:groupmode="layer"
     style="display:none">
    <ellipse
       ry="10.409657"
       rx="10.409864"
       cy="12.893641"
       cx="12.825768"
       id="path1859-3"
       style="display:inline;opacity:1;vector-effect:none;fill:none;fill-opacity:1;stroke:#ff0000;stroke-width:0.102;stroke-linecap:butt;stroke-linejoin:miter;stroke-miterlimit:4;stroke-dasharray:none;stroke-dashoffset:0;stroke-opacity:1" />
  </g>
</svg>
