<?xml version="1.0" encoding="UTF-8" standalone="no"?>
<svg
   xmlns:osb="http://www.openswatchbook.org/uri/2009/osb"
   xmlns:dc="http://purl.org/dc/elements/1.1/"
   xmlns:cc="http://creativecommons.org/ns#"
   xmlns:rdf="http://www.w3.org/1999/02/22-rdf-syntax-ns#"
   xmlns:svg="http://www.w3.org/2000/svg"
   xmlns="http://www.w3.org/2000/svg"
   xmlns:sodipodi="http://sodipodi.sourceforge.net/DTD/sodipodi-0.dtd"
   xmlns:inkscape="http://www.inkscape.org/namespaces/inkscape"
   viewBox="0 0 83.149607 83.149603"
   version="1.1"
   id="svg4446"
   sodipodi:docname="insecure-deserialization.svg"
   inkscape:version="0.92.3 (2405546, 2018-03-11)"
   width="2.2cm"
   height="2.2cm">
  <metadata
     id="metadata4450">
    <rdf:RDF>
      <cc:Work
         rdf:about="">
        <dc:format>image/svg+xml</dc:format>
        <dc:type
           rdf:resource="http://purl.org/dc/dcmitype/StillImage" />
        <dc:title>Element 268</dc:title>
      </cc:Work>
    </rdf:RDF>
  </metadata>
  <sodipodi:namedview
     pagecolor="#ffffff"
     bordercolor="#666666"
     borderopacity="1"
     objecttolerance="10"
     gridtolerance="10"
     guidetolerance="10"
     inkscape:pageopacity="0"
     inkscape:pageshadow="2"
     inkscape:window-width="1841"
     inkscape:window-height="879"
     id="namedview4448"
     showgrid="false"
     inkscape:zoom="2.3515579"
     inkscape:cx="-24.760729"
     inkscape:cy="90.618255"
     inkscape:window-x="79"
     inkscape:window-y="27"
     inkscape:window-maximized="1"
     inkscape:current-layer="g644"
     units="cm"
     inkscape:snap-global="false" />
  <defs
     id="defs4342">
    <linearGradient
       id="linearGradient2715"
       osb:paint="solid">
      <stop
         style="stop-color:#ffffff;stop-opacity:1;"
         offset="0"
         id="stop2713" />
    </linearGradient>
    <style
       id="style4337">.cls-1{fill:none;}.cls-2{clip-path:url(#clip-path);}.cls-3{fill:#a90a2d;stroke:#a90a2d;stroke-miterlimit:10;stroke-width:10px;}.cls-4{fill:#840b20;}.cls-5,.cls-7,.cls-8{fill:#fff;}.cls-5{opacity:0.15;}.cls-6{fill:#1d1d1b;}.cls-7{font-size:7px;font-family:Hind-Bold, Hind;font-weight:700;}.cls-9{fill:#dadada;}.cls-10{fill:#95c11f;}.cls-11{fill:#928d17;}.cls-12{fill:#e6332a;}.cls-13{fill:#cf3025;}</style>
    <clipPath
       id="clip-path">
      <circle
         class="cls-1"
         cx="94.949997"
         cy="42.689999"
         r="41.099998"
         id="circle4339"
         style="fill:none" />
    </clipPath>
  </defs>
  <title
     id="title4344">Element 268</title>
  <g
     id="Ebene_2"
     data-name="Ebene 2"
     transform="translate(0,-4.7904029)">
    <g
       id="Ebene_2-2"
       data-name="Ebene 2">
      <text
         id="text4352"
         x="-50.762829"
         y="4.7974005"
         style="font-size:11.70802879px;stroke-width:0.97566909" />
      <text
         id="text4354"
         x="-50.762829"
         y="4.7974005"
         style="font-size:11.70802879px;stroke-width:0.97566909" />
      <g
         id="g644"
         transform="translate(-0.75174273,-1.0524401)">
        <circle
           class="cls-3"
           cx="51.389172"
           cy="37.615368"
           r="42.5261"
           id="circle4346"
           style="fill:#a90a2d;stroke:#a90a2d;stroke-width:11.81937313px;stroke-miterlimit:10" />
        <path
           class="cls-4"
           d="m 72.87679,15.879538 a 18.178195,18.178195 0 0 1 2.021114,2.281139 9.9873701,9.9873701 0 0 1 4.113142,-1.595615 c 2.363874,1.028285 4.727749,2.139306 4.727749,2.363874 0,0.224569 -3.545812,-1.264673 -4.798665,-1.607434 a 9.6446084,9.6446084 0 0 0 -3.415799,1.371047 c -0.118198,0.342761 0,0.460956 0,0.460956 a 10.17648,10.17648 0 0 1 1.595614,0.685523 c 0.22457,0.449135 0.449138,1.820183 0.118198,2.162945 -0.118198,0.118198 -0.07091,0.165471 -0.460955,0.236389 -0.390039,0.07091 -1.666532,2.021112 -2.907566,3.262145 -1.241034,1.241035 -5.661479,0.271846 -5.661479,0.271846 0,0 0.260026,2.576624 0.342761,5.141427 0.449137,0.815536 1.028287,1.028286 2.623901,1.713809 2.860289,0.342762 5.614202,-0.07091 5.720576,0.224569 0.106369,0.295484 -5.555104,0.673703 -6.051519,0.567329 -0.496413,-0.106369 -1.713809,-0.567329 -2.978481,-0.910091 A 11.819373,11.819373 0 0 0 70.5011,35.81882 c 2.28114,0.685524 4.562279,1.371048 4.562279,1.607434 a 38.542975,38.542975 0 0 1 -5.023238,-0.685524 29.477515,29.477515 0 0 1 -2.63572,-1.997473 c 0.295485,0.874634 0.531873,2.635721 1.181939,3.250329 1.548336,1.536517 3.545811,3.084855 3.36852,3.226688 a 39.476705,39.476705 0 0 1 -4.314071,-2.848469 c -0.815536,-1.784726 -2.044751,-4.869582 -2.044751,-4.869582 h -1.181937 a 197.1826,197.1826 0 0 1 4.349528,46.851994 C 63.834971,77.883969 51.77921,59.693954 60.100049,47.980956 61.494735,46.030758 61.648387,33.797707 61.648387,33.797707 a 9.3373046,9.3373046 0 0 1 -2.706636,-1.181937 3.3212438,3.3212438 0 0 1 -0.791899,0.106369 c 5.235982,12.020302 -31.404074,29.347503 -31.404074,29.347503 0,0 17.220826,-36.592778 29.24113,-31.344976 A 3.3330633,3.3330633 0 0 1 56.093277,29.920948 9.3373046,9.3373046 0 0 1 54.91134,27.21431 c 0,0 -12.209412,0.153652 -14.183247,1.548339 -11.712995,8.273567 -29.90301,-3.734916 -32.3732589,-8.663596 a 197.91539,197.91539 0 0 1 46.8638139,4.384988 v -1.181937 c 0,0 -3.084855,-1.241034 -4.869582,-2.056571 a 39.476705,39.476705 0 0 1 -2.848468,-4.314071 c 0.141832,-0.17729 1.690171,1.820184 3.226688,3.368521 0.614607,0.614607 2.363876,0.850996 3.262147,1.181938 A 27.432765,27.432765 0 0 1 51.98014,18.8462 36.640056,36.640056 0 0 1 51.259158,13.704774 c 0.224569,0 0.910092,2.281138 1.595616,4.574097 a 11.973025,11.973025 0 0 0 3.356701,2.659358 c -0.342762,-1.264672 -0.803717,-2.363875 -0.910091,-2.966662 -0.106369,-0.602787 0.271846,-6.157894 0.567329,-6.051519 0.295484,0.106369 -0.118197,2.84847 0.224568,5.708757 0.685524,1.595616 0.910092,2.174764 1.713809,2.623901 2.564805,0.08274 5.141428,0.342762 5.141428,0.342762 0,0 -0.95737,-4.432265 0.283664,-5.66148 1.241035,-1.229214 3.191231,-2.517527 3.250329,-2.907567 0.0591,-0.390037 0.118197,-0.342762 0.236386,-0.449135 0.342762,-0.342762 1.713811,-0.118197 2.162946,0.106369 a 10.696533,10.696533 0 0 1 0.685524,1.595617 c 0,0 0.118197,0.118197 0.460956,0 A 9.6446084,9.6446084 0 0 0 71.352092,9.8280142 C 71.00933,8.5633417 69.496451,5.0411679 69.756477,5.0293484 c 0.260026,-0.011869 1.359228,2.2811404 2.363874,4.7277498 a 9.9282733,9.9282733 0 0 1 -1.524699,4.0895028 18.178195,18.178195 0 0 1 2.281138,2.032933 z"
           id="path4348"
           inkscape:connector-curvature="0"
           style="fill:#840b20;stroke-width:1.18193734" />
        <path
           class="cls-5"
           d="M 70.796582,72.328863 A 50.279613,50.279613 0 0 1 29.286944,-6.3645224 50.291431,50.291431 0 1 0 89.565746,68.700316 50.149599,50.149599 0 0 1 70.796582,72.328863 Z"
           id="path4350"
           inkscape:connector-curvature="0"
           style="opacity:0.15;fill:#ffffff;stroke-width:1.18193734" />
        <text
           class="cls-7"
           id="text4362"
           style="font-weight:700;font-size:7.87958241px;font-family:Hind-Bold, Hind;fill:#ffffff;stroke-width:1.18193734"
           x="27.626415"
           y="25.171185">INSECURE<tspan
   x="11.98939"
   y="33.444752"
   id="tspan4360"
   style="font-size:7.87958241px;stroke-width:1.18193734">DESERIALIZATION</tspan>
</text>
        <g
           id="g263"
           transform="matrix(0.82610581,0,0,1.2114121,19.744244,-15.324765)">
          <rect
             style="fill:#ffffff;stroke-width:1.84508634"
             class="cls-8"
             x="-57.12455"
             y="32.309734"
             width="1.7875342"
             height="7.8455524"
             transform="matrix(-0.00407914,-0.99999168,0.99994774,-0.01022293,0,0)"
             id="rect4366" />
          <polygon
             style="fill:#ffffff"
             class="cls-8"
             points="83.22,36.62 83.21,35.15 86.08,36.6 83.23,38.09 "
             id="polygon4368"
             transform="matrix(1.4664124,0,0,2.3215022,-82.350217,-29.246172)" />
        </g>
        <g
           id="g245"
           transform="matrix(1.9164872,0,0,1.9164872,-3.1315383,-60.363421)">
          <rect
             style="fill:#dadada"
             class="cls-9"
             x="13.894858"
             y="53.929848"
             width="8.0299997"
             height="8.0299997"
             id="rect4374" />
          <path
             style="fill:#ffffff"
             inkscape:connector-curvature="0"
             class="cls-8"
             d="m 22.174859,62.209847 h -8.53 v -8.54 h 8.53 z m -8,-0.51 h 7.5 v -7.52 h -7.53 z"
             id="path4376" />
          <rect
             style="fill:#95c11f"
             class="cls-10"
             x="12.034858"
             y="55.869846"
             width="8.0299997"
             height="8.0299997"
             id="rect4378" />
          <path
             style="fill:#ffffff"
             inkscape:connector-curvature="0"
             class="cls-8"
             d="m 20.314859,64.149847 h -8.53 v -8.53 h 8.53 z m -8,-0.51 h 7.52 v -7.55 h -7.54 z"
             id="path4380" />
          <path
             style="fill:#dadada"
             inkscape:connector-curvature="0"
             class="cls-9"
             d="m 21.924859,53.929847 -1.95,2"
             id="path4382" />
          <path
             style="fill:#ffffff"
             inkscape:connector-curvature="0"
             class="cls-8"
             d="m 20.154859,56.089847 -0.36,-0.36 1,-1 1,-1 0.36,0.36 c -0.24,0.23 -0.61,0.61 -1,1 z"
             id="path4384" />
          <path
             style="fill:#dadada"
             inkscape:connector-curvature="0"
             class="cls-9"
             d="m 13.794859,53.859847 c -0.48,0.48 -1.34,1.47 -1.81,1.95"
             id="path4386" />
          <path
             style="fill:#ffffff"
             inkscape:connector-curvature="0"
             class="cls-8"
             d="m 12.164859,55.989847 -0.36,-0.36 0.89,-1 c 0.34,-0.38 0.68,-0.75 0.92,-1 l 0.35,0.36 c -0.23,0.24 -0.56,0.6 -0.89,1 -0.33,0.4 -0.67,0.76 -0.91,1 z"
             id="path4388" />
          <path
             style="fill:#dadada"
             inkscape:connector-curvature="0"
             class="cls-9"
             d="m 21.984859,62.029847 c -0.47,0.47 -1.37,1.46 -1.85,1.93"
             id="path4390" />
          <path
             style="fill:#ffffff"
             inkscape:connector-curvature="0"
             class="cls-8"
             d="m 20.314859,64.139847 -0.36,-0.36 c 0.24,-0.23 0.58,-0.6 0.92,-1 0.34,-0.4 0.69,-0.73 0.93,-1 l 0.36,0.36 c -0.24,0.23 -0.58,0.6 -0.92,1 -0.34,0.4 -0.67,0.76 -0.93,1 z"
             id="path4392" />
          <polygon
             style="fill:#928d17"
             class="cls-11"
             points="72.33,34.54 64.95,34.52 66.28,33.07 73.72,33.09 "
             id="polygon4394"
             transform="translate(-52.425141,21.089847)" />
          <polygon
             style="fill:#928d17"
             class="cls-11"
             points="74.09,40.9 72.74,42.32 72.74,34.85 74.09,33.46 "
             id="polygon4396"
             transform="translate(-52.425141,21.089847)" />
        </g>
        <g
           id="g259"
           transform="matrix(1.9164872,0,0,1.9164872,-53.825946,-60.363421)">
          <rect
             style="fill:#dadada"
             class="cls-9"
             x="63.00486"
             y="53.929848"
             width="8.0299997"
             height="8.0299997"
             id="rect4398" />
          <path
             style="fill:#ffffff"
             inkscape:connector-curvature="0"
             class="cls-8"
             d="m 71.284859,62.209847 h -8.54 v -8.54 h 8.54 z m -8,-0.51 h 7.52 v -7.52 h -7.52 z"
             id="path4400" />
          <rect
             style="fill:#e6332a"
             class="cls-12"
             x="61.144859"
             y="55.869846"
             width="8.0299997"
             height="8.0299997"
             id="rect4402" />
          <path
             style="fill:#ffffff"
             inkscape:connector-curvature="0"
             class="cls-8"
             d="m 69.424859,64.149847 h -8.54 v -8.53 h 8.54 z m -8,-0.51 h 7.52 v -7.55 h -7.52 z"
             id="path4404" />
          <path
             style="fill:#dadada"
             inkscape:connector-curvature="0"
             class="cls-9"
             d="m 71.024859,53.929847 c -0.47,0.47 -1.47,1.51 -1.94,2"
             id="path4406" />
          <path
             style="fill:#ffffff"
             inkscape:connector-curvature="0"
             class="cls-8"
             d="m 69.264859,56.089847 -0.36,-0.36 1,-1 1,-1 0.35,0.36 -1,1 z"
             id="path4408" />
          <path
             style="fill:#dadada"
             inkscape:connector-curvature="0"
             class="cls-9"
             d="m 62.894859,53.859847 c -0.47,0.48 -1.33,1.47 -1.8,1.95"
             id="path4410" />
          <path
             style="fill:#ffffff"
             inkscape:connector-curvature="0"
             class="cls-8"
             d="m 61.264859,55.989847 -0.385638,-0.36594 0.925638,-0.99406 c 0.34,-0.38 0.687819,-0.708422 0.927819,-0.958422 l 0.342181,0.318422 c -0.23,0.24 -0.56,0.6 -0.89,1 -0.33,0.4 -0.68,0.76 -0.92,1 z"
             id="path4412"
             sodipodi:nodetypes="cccccsc" />
          <path
             style="fill:#dadada"
             inkscape:connector-curvature="0"
             class="cls-9"
             d="m 71.094859,62.029847 c -0.48,0.47 -1.38,1.46 -1.85,1.93"
             id="path4414" />
          <path
             style="fill:#ffffff"
             inkscape:connector-curvature="0"
             class="cls-8"
             d="m 69.424859,64.139847 -0.36,-0.36 c 0.24,-0.23 0.58,-0.6 0.92,-1 0.34,-0.4 0.69,-0.73 0.93,-1 l 0.3626,0.4272 c -0.23,0.23 -0.5406,0.5874 -0.9058,0.9622 -0.366368,0.375998 -0.7068,0.7306 -0.9468,0.9706 z"
             id="path4416"
             sodipodi:nodetypes="ccsccsc" />
          <path
             transform="translate(-52.425141,21.089847)"
             style="fill:#cf3025"
             d="m 121.44,34.54 -7.40782,-0.0081 1.28654,-1.479698 7.56168,0.042 z"
             id="polygon4418"
             inkscape:connector-curvature="0"
             sodipodi:nodetypes="ccccc" />
          <path
             transform="translate(-52.425141,21.089847)"
             style="fill:#cf3025"
             d="M 123.2294,40.8706 121.85,42.32 v -7.47 l 1.3878,-1.4068 z"
             id="polygon4420"
             inkscape:connector-curvature="0"
             sodipodi:nodetypes="ccccc" />
        </g>
        <g
           transform="matrix(0.78795652,0,0,0.78795652,46.623277,23.086254)"
           id="g1119"
           style="fill:#445500">
          <ellipse
             ry="5.3513904"
             rx="3.7587147"
             cy="42.07835"
             cx="-23.792664"
             id="path265"
             style="opacity:1;fill:#445500;stroke:#ffffff;stroke-width:0;stroke-miterlimit:4;stroke-dasharray:none;stroke-opacity:1" />
          <ellipse
             ry="1.7411242"
             rx="2.4807518"
             cy="36.672058"
             cx="-23.582708"
             id="path267"
             style="opacity:1;fill:#445500;stroke:#ffffff;stroke-width:0;stroke-miterlimit:4;stroke-dasharray:none;stroke-opacity:1" />
          <path
             sodipodi:nodetypes="cc"
             inkscape:connector-curvature="0"
             id="path1078"
             d="m -26.896392,31.70242 2.028837,3.939668"
             style="fill:#445500;stroke:#445500;stroke-width:0.7404933px;stroke-linecap:butt;stroke-linejoin:miter;stroke-opacity:1" />
          <path
             sodipodi:nodetypes="cc"
             inkscape:connector-curvature="0"
             id="path1078-3"
             d="m -20.189675,31.762724 -2.107804,4.074939"
             style="fill:#445500;stroke:#445500;stroke-width:0.75422227px;stroke-linecap:butt;stroke-linejoin:miter;stroke-opacity:1" />
          <path
             sodipodi:nodetypes="ccc"
             inkscape:connector-curvature="0"
             id="path1097"
             d="m -28.375211,37.008768 4.728235,3.877276 4.951087,-3.760737"
             style="fill:none;stroke:#445500;stroke-width:1px;stroke-linecap:butt;stroke-linejoin:miter;stroke-opacity:1" />
          <path
             sodipodi:nodetypes="ccc"
             inkscape:connector-curvature="0"
             id="path1099"
             d="m -29.672979,40.892951 5.703288,1.098042 6.274651,-1.187678"
             style="fill:#445500;stroke:#445500;stroke-width:1px;stroke-linecap:butt;stroke-linejoin:miter;stroke-opacity:1" />
          <path
             sodipodi:nodetypes="ccc"
             inkscape:connector-curvature="0"
             id="path1101"
             d="m -29.348699,44.793811 5.9933,-1.566868 5.259798,1.490129"
             style="fill:#445500;stroke:#445500;stroke-width:1px;stroke-linecap:butt;stroke-linejoin:miter;stroke-opacity:1" />
        </g>
        <path
           style="fill:none;stroke:#000000;stroke-width:0;stroke-linecap:butt;stroke-linejoin:miter;stroke-miterlimit:4;stroke-dasharray:none;stroke-opacity:1"
           d="m 62.714141,46.219705 15.003295,0.04553 1.844109,-5.304656 -6.397461,-3.43778 -4.507819,0.318735 -4.006948,1.912408 -0.455337,4.576118 z"
           id="path1181"
           inkscape:connector-curvature="0" />
        <g
           transform="matrix(0.75542144,-0.22408464,0.22408464,0.75542144,80.428511,18.593996)"
           id="g1119-6-2">
          <ellipse
             ry="5.3513904"
             rx="3.7587147"
             cy="42.07835"
             cx="-23.792664"
             id="path265-7-7"
             style="opacity:1;vector-effect:none;fill:#000000;fill-opacity:1;stroke:#ffffff;stroke-width:0;stroke-linecap:butt;stroke-linejoin:miter;stroke-miterlimit:4;stroke-dasharray:none;stroke-dashoffset:0;stroke-opacity:1" />
          <ellipse
             ry="1.7411242"
             rx="2.4807518"
             cy="36.672058"
             cx="-23.582708"
             id="path267-5-0"
             style="opacity:1;stroke:#ffffff;stroke-width:0;stroke-miterlimit:4;stroke-dasharray:none;stroke-opacity:1" />
          <path
             sodipodi:nodetypes="cc"
             inkscape:connector-curvature="0"
             id="path1078-35-9"
             d="m -26.896392,31.70242 2.028837,3.939668"
             style="fill:none;stroke:#000000;stroke-width:0.7404933px;stroke-linecap:butt;stroke-linejoin:miter;stroke-opacity:1" />
          <path
             sodipodi:nodetypes="cc"
             inkscape:connector-curvature="0"
             id="path1078-3-6-3"
             d="m -20.189675,31.762724 -2.107804,4.074939"
             style="fill:none;stroke:#000000;stroke-width:0.75422227px;stroke-linecap:butt;stroke-linejoin:miter;stroke-opacity:1" />
          <path
             sodipodi:nodetypes="ccc"
             inkscape:connector-curvature="0"
             id="path1097-2-6"
             d="m -28.375211,37.008768 4.728235,3.877276 4.951087,-3.760737"
             style="fill:none;stroke:#000000;stroke-width:1px;stroke-linecap:butt;stroke-linejoin:miter;stroke-opacity:1" />
          <path
             sodipodi:nodetypes="ccc"
             inkscape:connector-curvature="0"
             id="path1099-9-0"
             d="m -29.672979,40.892951 5.703288,1.098042 6.274651,-1.187678"
             style="fill:none;stroke:#000000;stroke-width:1px;stroke-linecap:butt;stroke-linejoin:miter;stroke-opacity:1" />
          <path
             sodipodi:nodetypes="ccc"
             inkscape:connector-curvature="0"
             id="path1101-1-6"
             d="m -29.348699,44.793811 5.9933,-1.566868 5.259798,1.490129"
             style="fill:none;stroke:#000000;stroke-width:1px;stroke-linecap:butt;stroke-linejoin:miter;stroke-opacity:1" />
        </g>
        <g
           transform="matrix(0.72176508,0.31611813,-0.31611813,0.72176508,107.06616,17.625527)"
           id="g1119-6-2-6">
          <ellipse
             ry="5.3513904"
             rx="3.7587147"
             cy="42.07835"
             cx="-23.792664"
             id="path265-7-7-1"
             style="opacity:1;vector-effect:none;fill:#000000;fill-opacity:1;stroke:#ffffff;stroke-width:0;stroke-linecap:butt;stroke-linejoin:miter;stroke-miterlimit:4;stroke-dasharray:none;stroke-dashoffset:0;stroke-opacity:1" />
          <ellipse
             ry="1.7411242"
             rx="2.4807518"
             cy="36.672058"
             cx="-23.582708"
             id="path267-5-0-8"
             style="opacity:1;stroke:#ffffff;stroke-width:0;stroke-miterlimit:4;stroke-dasharray:none;stroke-opacity:1" />
          <path
             sodipodi:nodetypes="cc"
             inkscape:connector-curvature="0"
             id="path1078-35-9-7"
             d="m -26.896392,31.70242 2.028837,3.939668"
             style="fill:none;stroke:#000000;stroke-width:0.7404933px;stroke-linecap:butt;stroke-linejoin:miter;stroke-opacity:1" />
          <path
             sodipodi:nodetypes="cc"
             inkscape:connector-curvature="0"
             id="path1078-3-6-3-9"
             d="m -20.189675,31.762724 -2.107804,4.074939"
             style="fill:none;stroke:#000000;stroke-width:0.75422227px;stroke-linecap:butt;stroke-linejoin:miter;stroke-opacity:1" />
          <path
             sodipodi:nodetypes="ccc"
             inkscape:connector-curvature="0"
             id="path1097-2-6-2"
             d="m -28.375211,37.008768 4.728235,3.877276 4.951087,-3.760737"
             style="fill:none;stroke:#000000;stroke-width:1px;stroke-linecap:butt;stroke-linejoin:miter;stroke-opacity:1" />
          <path
             sodipodi:nodetypes="ccc"
             inkscape:connector-curvature="0"
             id="path1099-9-0-0"
             d="m -29.672979,40.892951 5.703288,1.098042 6.274651,-1.187678"
             style="fill:none;stroke:#000000;stroke-width:1px;stroke-linecap:butt;stroke-linejoin:miter;stroke-opacity:1" />
          <path
             sodipodi:nodetypes="ccc"
             inkscape:connector-curvature="0"
             id="path1101-1-6-2"
             d="m -29.348699,44.793811 5.9933,-1.566868 5.259798,1.490129"
             style="fill:none;stroke:#000000;stroke-width:1px;stroke-linecap:butt;stroke-linejoin:miter;stroke-opacity:1" />
        </g>
        <g
           transform="matrix(0.73158165,-0.29268376,0.29268376,0.73158165,85.480195,-17.755115)"
           id="g1119-6-2-6-3">
          <ellipse
             ry="5.3513904"
             rx="3.7587147"
             cy="42.07835"
             cx="-23.792664"
             id="path265-7-7-1-7"
             style="opacity:1;vector-effect:none;fill:#000000;fill-opacity:1;stroke:#ffffff;stroke-width:0;stroke-linecap:butt;stroke-linejoin:miter;stroke-miterlimit:4;stroke-dasharray:none;stroke-dashoffset:0;stroke-opacity:1" />
          <ellipse
             ry="1.7411242"
             rx="2.4807518"
             cy="36.672058"
             cx="-23.582708"
             id="path267-5-0-8-5"
             style="opacity:1;stroke:#ffffff;stroke-width:0;stroke-miterlimit:4;stroke-dasharray:none;stroke-opacity:1" />
          <path
             sodipodi:nodetypes="cc"
             inkscape:connector-curvature="0"
             id="path1078-35-9-7-9"
             d="m -26.896392,31.70242 2.028837,3.939668"
             style="fill:none;stroke:#000000;stroke-width:0.7404933px;stroke-linecap:butt;stroke-linejoin:miter;stroke-opacity:1" />
          <path
             sodipodi:nodetypes="cc"
             inkscape:connector-curvature="0"
             id="path1078-3-6-3-9-2"
             d="m -20.189675,31.762724 -2.107804,4.074939"
             style="fill:none;stroke:#000000;stroke-width:0.75422227px;stroke-linecap:butt;stroke-linejoin:miter;stroke-opacity:1" />
          <path
             sodipodi:nodetypes="ccc"
             inkscape:connector-curvature="0"
             id="path1097-2-6-2-2"
             d="m -28.375211,37.008768 4.728235,3.877276 4.951087,-3.760737"
             style="fill:none;stroke:#000000;stroke-width:1px;stroke-linecap:butt;stroke-linejoin:miter;stroke-opacity:1" />
          <path
             sodipodi:nodetypes="ccc"
             inkscape:connector-curvature="0"
             id="path1099-9-0-0-8"
             d="m -29.672979,40.892951 5.703288,1.098042 6.274651,-1.187678"
             style="fill:none;stroke:#000000;stroke-width:1px;stroke-linecap:butt;stroke-linejoin:miter;stroke-opacity:1" />
          <path
             sodipodi:nodetypes="ccc"
             inkscape:connector-curvature="0"
             id="path1101-1-6-2-9"
             d="m -29.348699,44.793811 5.9933,-1.566868 5.259798,1.490129"
             style="fill:none;stroke:#000000;stroke-width:1px;stroke-linecap:butt;stroke-linejoin:miter;stroke-opacity:1" />
        </g>
      </g>
    </g>
  </g>
</svg>
