<?xml version="1.0" encoding="UTF-8" standalone="no"?>
<svg
   xmlns:dc="http://purl.org/dc/elements/1.1/"
   xmlns:cc="http://creativecommons.org/ns#"
   xmlns:rdf="http://www.w3.org/1999/02/22-rdf-syntax-ns#"
   xmlns:svg="http://www.w3.org/2000/svg"
   xmlns="http://www.w3.org/2000/svg"
   xmlns:sodipodi="http://sodipodi.sourceforge.net/DTD/sodipodi-0.dtd"
   xmlns:inkscape="http://www.inkscape.org/namespaces/inkscape"
   viewBox="0 0 83.149607 83.149603"
   version="1.1"
   id="svg4446"
   sodipodi:docname="insecure-deserialization.svg"
   inkscape:version="0.92.3 (2405546, 2018-03-11)"
   width="2.2cm"
   height="2.2cm">
  <metadata
     id="metadata4450">
    <rdf:RDF>
      <cc:Work
         rdf:about="">
        <dc:format>image/svg+xml</dc:format>
        <dc:type
           rdf:resource="http://purl.org/dc/dcmitype/StillImage" />
        <dc:title>Element 268</dc:title>
      </cc:Work>
    </rdf:RDF>
  </metadata>
  <sodipodi:namedview
     pagecolor="#ffffff"
     bordercolor="#666666"
     borderopacity="1"
     objecttolerance="10"
     gridtolerance="10"
     guidetolerance="10"
     inkscape:pageopacity="0"
     inkscape:pageshadow="2"
     inkscape:window-width="1841"
     inkscape:window-height="879"
     id="namedview4448"
     showgrid="false"
     inkscape:zoom="6.6512101"
     inkscape:cx="30.710632"
     inkscape:cy="41.171069"
     inkscape:window-x="79"
     inkscape:window-y="27"
     inkscape:window-maximized="1"
     inkscape:current-layer="Ebene_2-2"
     units="cm" />
  <defs
     id="defs4342">
    <style
       id="style4337">.cls-1{fill:none;}.cls-2{clip-path:url(#clip-path);}.cls-3{fill:#a90a2d;stroke:#a90a2d;stroke-miterlimit:10;stroke-width:10px;}.cls-4{fill:#840b20;}.cls-5,.cls-7,.cls-8{fill:#fff;}.cls-5{opacity:0.15;}.cls-6{fill:#1d1d1b;}.cls-7{font-size:7px;font-family:Hind-Bold, Hind;font-weight:700;}.cls-9{fill:#dadada;}.cls-10{fill:#95c11f;}.cls-11{fill:#928d17;}.cls-12{fill:#e6332a;}.cls-13{fill:#cf3025;}</style>
    <clipPath
       id="clip-path">
      <circle
         class="cls-1"
         cx="94.949997"
         cy="42.689999"
         r="41.099998"
         id="circle4339"
         style="fill:none" />
    </clipPath>
  </defs>
  <title
     id="title4344">Element 268</title>
  <g
     id="Ebene_2"
     data-name="Ebene 2"
     transform="translate(0,-4.7904029)">
    <g
       id="Ebene_2-2"
       data-name="Ebene 2">
      <text
         id="text4352"
         x="-50.762829"
         y="4.7974005"
         style="font-size:11.70802879px;stroke-width:0.97566909" />
      <text
         id="text4354"
         x="-50.762829"
         y="4.7974005"
         style="font-size:11.70802879px;stroke-width:0.97566909" />
      <g
         id="g644"
         transform="translate(-0.75174273,-1.0524401)">
        <circle
           class="cls-3"
           cx="42.033058"
           cy="46.858498"
           r="35.104572"
           id="circle4346"
           style="fill:#a90a2d;stroke:#a90a2d;stroke-width:9.75669098px;stroke-miterlimit:10" />
        <path
           class="cls-4"
           d="m 59.770722,28.915941 a 15.005791,15.005791 0 0 1 1.668394,1.883041 8.2444039,8.2444039 0 0 1 3.395329,-1.317153 c 1.951338,0.848832 3.902676,1.765961 3.902676,1.951338 0,0.185377 -2.927007,-1.043966 -3.961216,-1.32691 a 7.9614599,7.9614599 0 0 0 -2.819684,1.131776 c -0.09757,0.282944 0,0.380511 0,0.380511 a 8.400511,8.400511 0 0 1 1.317153,0.565888 c 0.185378,0.370754 0.370755,1.502531 0.09757,1.785475 -0.09757,0.09757 -0.05854,0.136593 -0.380511,0.195134 -0.32197,0.05854 -1.375693,1.668394 -2.400146,2.692846 -1.024452,1.024453 -4.673455,0.224404 -4.673455,0.224404 0,0 0.214648,2.126959 0.282944,4.244161 0.370755,0.673211 0.848833,0.848832 2.165986,1.41472 2.361119,0.282944 4.634428,-0.05854 4.722238,0.185377 0.08781,0.243917 -4.585644,0.556131 -4.995426,0.468321 -0.409781,-0.08781 -1.41472,-0.468321 -2.458686,-0.751265 a 9.756691,9.756691 0 0 0 2.175742,2.731873 c 1.883042,0.565889 3.766083,1.131777 3.766083,1.32691 A 31.816569,31.816569 0 0 1 57.429116,46.1365 24.333187,24.333187 0 0 1 55.253374,44.48762 c 0.243918,0.721995 0.439052,2.175742 0.97567,2.68309 1.278126,1.268369 2.927007,2.546496 2.780656,2.663576 a 32.587348,32.587348 0 0 1 -3.561192,-2.351362 c -0.673211,-1.473261 -1.687907,-4.019757 -1.687907,-4.019757 h -0.975669 a 162.77088,162.77088 0 0 1 3.590462,38.675523 c -4.06854,-2.039148 -14.020365,-17.054696 -7.151655,-26.723576 1.15129,-1.609855 1.278127,-11.70803 1.278127,-11.70803 a 7.7077859,7.7077859 0 0 1 -2.234282,-0.975669 2.7416302,2.7416302 0 0 1 -0.653699,0.08781 c 4.322214,9.922555 -25.923528,24.225864 -25.923528,24.225864 0,0 14.215499,-30.206715 24.138054,-25.874744 a 2.7513869,2.7513869 0 0 1 0.08781,-0.663455 7.7077859,7.7077859 0 0 1 -0.975669,-2.234283 c 0,0 -10.078662,0.126837 -11.708029,1.278127 C 23.563642,46.380418 8.5480946,36.46762 6.5089462,32.399079 a 163.37579,163.37579 0 0 1 38.6852798,3.619733 v -0.975669 c 0,0 -2.546496,-1.024453 -4.019757,-1.697665 a 32.587348,32.587348 0 0 1 -2.351362,-3.561192 c 0.11708,-0.14635 1.395207,1.502531 2.663576,2.780657 0.507348,0.507348 1.951339,0.702482 2.692847,0.975669 A 22.64528,22.64528 0 0 1 42.520893,31.36487 30.245742,30.245742 0 0 1 41.925734,27.12071 c 0.185378,0 0.751266,1.883041 1.317154,3.775839 a 9.883528,9.883528 0 0 0 2.7709,2.195255 c -0.282944,-1.043965 -0.663455,-1.951338 -0.751265,-2.448929 -0.08781,-0.497591 0.224404,-5.083236 0.468321,-4.995426 0.243917,0.08781 -0.09757,2.351363 0.185377,4.712482 0.565888,1.317153 0.751265,1.795231 1.41472,2.165985 2.117202,0.0683 4.244161,0.282944 4.244161,0.282944 0,0 -0.790292,-3.658759 0.23416,-4.673455 1.024453,-1.014695 2.634307,-2.078175 2.683091,-2.400146 0.04878,-0.32197 0.09757,-0.282944 0.195133,-0.370754 0.282944,-0.282944 1.414721,-0.09757 1.785475,0.08781 a 8.8298054,8.8298054 0 0 1 0.565888,1.317154 c 0,0 0.09757,0.09757 0.380511,0 a 7.9614599,7.9614599 0 0 0 1.092749,-2.848954 c -0.282944,-1.043966 -1.5318,-3.95146 -1.317153,-3.961217 0.214647,-0.0098 1.122019,1.883042 1.951338,3.902677 a 8.1956204,8.1956204 0 0 1 -1.258613,3.375815 15.005791,15.005791 0 0 1 1.883041,1.678151 z"
           id="path4348"
           inkscape:connector-curvature="0"
           style="fill:#840b20;stroke-width:0.97566909" />
        <path
           class="cls-5"
           d="M 58.053545,75.513897 A 41.504964,41.504964 0 0 1 23.788046,10.553848 41.51472,41.51472 0 1 0 73.54717,72.518593 41.39764,41.39764 0 0 1 58.053545,75.513897 Z"
           id="path4350"
           inkscape:connector-curvature="0"
           style="opacity:0.15;fill:#ffffff;stroke-width:0.97566909" />
        <text
           class="cls-7"
           id="text4362"
           style="font-weight:700;font-size:6.50446081px;font-family:Hind-Bold, Hind;fill:#ffffff;stroke-width:0.97566909"
           x="21.966263"
           y="35.08255">INSECURE<tspan
   x="9.0581646"
   y="41.912239"
   id="tspan4360"
   style="font-size:6.50446081px;stroke-width:0.97566909">DESERIALIZATION</tspan>
</text>
        <rect
           id="rect4366"
           transform="rotate(-90.37)"
           height="5.3499999"
           width="0.76999998"
           y="25.547338"
           x="-58.318226"
           class="cls-8"
           style="fill:#ffffff" />
        <polygon
           transform="translate(-52.425141,21.089847)"
           id="polygon4368"
           points="86.08,36.6 83.23,38.09 83.22,36.62 83.21,35.15 "
           class="cls-8"
           style="fill:#ffffff" />
        <rect
           id="rect4370"
           transform="rotate(-90.37)"
           height="5.3499999"
           width="0.76999998"
           y="49.800232"
           x="-58.475353"
           class="cls-8"
           style="fill:#ffffff" />
        <polygon
           transform="translate(-52.425141,21.089847)"
           id="polygon4372"
           points="110.33,36.6 107.48,38.09 107.47,36.62 107.46,35.15 "
           class="cls-8"
           style="fill:#ffffff" />
        <rect
           id="rect4374"
           height="8.0299997"
           width="8.0299997"
           y="53.929848"
           x="13.894858"
           class="cls-9"
           style="fill:#dadada" />
        <path
           id="path4376"
           d="m 22.174859,62.209847 h -8.53 v -8.54 h 8.53 z m -8,-0.51 h 7.5 v -7.52 h -7.53 z"
           class="cls-8"
           inkscape:connector-curvature="0"
           style="fill:#ffffff" />
        <rect
           id="rect4378"
           height="8.0299997"
           width="8.0299997"
           y="55.869846"
           x="12.034858"
           class="cls-10"
           style="fill:#95c11f" />
        <path
           id="path4380"
           d="m 20.314859,64.149847 h -8.53 v -8.53 h 8.53 z m -8,-0.51 h 7.52 v -7.55 h -7.54 z"
           class="cls-8"
           inkscape:connector-curvature="0"
           style="fill:#ffffff" />
        <path
           id="path4382"
           d="m 21.924859,53.929847 -1.95,2"
           class="cls-9"
           inkscape:connector-curvature="0"
           style="fill:#dadada" />
        <path
           id="path4384"
           d="m 20.154859,56.089847 -0.36,-0.36 1,-1 1,-1 0.36,0.36 c -0.24,0.23 -0.61,0.61 -1,1 z"
           class="cls-8"
           inkscape:connector-curvature="0"
           style="fill:#ffffff" />
        <path
           id="path4386"
           d="m 13.794859,53.859847 c -0.48,0.48 -1.34,1.47 -1.81,1.95"
           class="cls-9"
           inkscape:connector-curvature="0"
           style="fill:#dadada" />
        <path
           id="path4388"
           d="m 12.164859,55.989847 -0.36,-0.36 0.89,-1 c 0.34,-0.38 0.68,-0.75 0.92,-1 l 0.35,0.36 c -0.23,0.24 -0.56,0.6 -0.89,1 -0.33,0.4 -0.67,0.76 -0.91,1 z"
           class="cls-8"
           inkscape:connector-curvature="0"
           style="fill:#ffffff" />
        <path
           id="path4390"
           d="m 21.984859,62.029847 c -0.47,0.47 -1.37,1.46 -1.85,1.93"
           class="cls-9"
           inkscape:connector-curvature="0"
           style="fill:#dadada" />
        <path
           id="path4392"
           d="m 20.314859,64.139847 -0.36,-0.36 c 0.24,-0.23 0.58,-0.6 0.92,-1 0.34,-0.4 0.69,-0.73 0.93,-1 l 0.36,0.36 c -0.24,0.23 -0.58,0.6 -0.92,1 -0.34,0.4 -0.67,0.76 -0.93,1 z"
           class="cls-8"
           inkscape:connector-curvature="0"
           style="fill:#ffffff" />
        <polygon
           transform="translate(-52.425141,21.089847)"
           id="polygon4394"
           points="64.95,34.52 66.28,33.07 73.72,33.09 72.33,34.54 "
           class="cls-11"
           style="fill:#928d17" />
        <polygon
           transform="translate(-52.425141,21.089847)"
           id="polygon4396"
           points="72.74,42.32 72.74,34.85 74.09,33.46 74.09,40.9 "
           class="cls-11"
           style="fill:#928d17" />
        <rect
           id="rect4398"
           height="8.0299997"
           width="8.0299997"
           y="53.929848"
           x="63.00486"
           class="cls-9"
           style="fill:#dadada" />
        <path
           id="path4400"
           d="m 71.284859,62.209847 h -8.54 v -8.54 h 8.54 z m -8,-0.51 h 7.52 v -7.52 h -7.52 z"
           class="cls-8"
           inkscape:connector-curvature="0"
           style="fill:#ffffff" />
        <rect
           id="rect4402"
           height="8.0299997"
           width="8.0299997"
           y="55.869846"
           x="61.144859"
           class="cls-12"
           style="fill:#e6332a" />
        <path
           id="path4404"
           d="m 69.424859,64.149847 h -8.54 v -8.53 h 8.54 z m -8,-0.51 h 7.52 v -7.55 h -7.52 z"
           class="cls-8"
           inkscape:connector-curvature="0"
           style="fill:#ffffff" />
        <path
           id="path4406"
           d="m 71.024859,53.929847 c -0.47,0.47 -1.47,1.51 -1.94,2"
           class="cls-9"
           inkscape:connector-curvature="0"
           style="fill:#dadada" />
        <path
           id="path4408"
           d="m 69.264859,56.089847 -0.36,-0.36 1,-1 1,-1 0.35,0.36 -1,1 z"
           class="cls-8"
           inkscape:connector-curvature="0"
           style="fill:#ffffff" />
        <path
           id="path4410"
           d="m 62.894859,53.859847 c -0.47,0.48 -1.33,1.47 -1.8,1.95"
           class="cls-9"
           inkscape:connector-curvature="0"
           style="fill:#dadada" />
        <path
           id="path4412"
           d="m 61.264859,55.989847 -0.35,-0.36 0.89,-1 c 0.34,-0.38 0.67,-0.75 0.91,-1 l 0.36,0.36 c -0.23,0.24 -0.56,0.6 -0.89,1 -0.33,0.4 -0.68,0.76 -0.92,1 z"
           class="cls-8"
           inkscape:connector-curvature="0"
           style="fill:#ffffff" />
        <path
           id="path4414"
           d="m 71.094859,62.029847 c -0.48,0.47 -1.38,1.46 -1.85,1.93"
           class="cls-9"
           inkscape:connector-curvature="0"
           style="fill:#dadada" />
        <path
           id="path4416"
           d="m 69.424859,64.139847 -0.36,-0.36 c 0.24,-0.23 0.58,-0.6 0.92,-1 0.34,-0.4 0.69,-0.73 0.93,-1 l 0.35,0.36 c -0.23,0.23 -0.57,0.6 -0.91,1 -0.34,0.4 -0.69,0.76 -0.93,1 z"
           class="cls-8"
           inkscape:connector-curvature="0"
           style="fill:#ffffff" />
        <polygon
           transform="translate(-52.425141,21.089847)"
           id="polygon4418"
           points="114.05,34.52 115.39,33.07 122.83,33.09 121.44,34.54 "
           class="cls-13"
           style="fill:#cf3025" />
        <polygon
           transform="translate(-52.425141,21.089847)"
           id="polygon4420"
           points="121.85,42.32 121.85,34.85 123.2,33.46 123.2,40.9 "
           class="cls-13"
           style="fill:#cf3025" />
        <rect
           id="rect4422"
           height="3.21"
           width="10.35"
           y="47.789848"
           x="36.614861"
           class="cls-9"
           style="fill:#dadada" />
        <path
           id="path4424"
           d="m 47.334859,64.429847 a 10.49,10.49 0 0 1 -5.42,1.3 9.38,9.38 0 0 1 -5.43,-1.3 v -15.45 a 14.59,14.59 0 0 0 5.43,1.31 15,15 0 0 0 5.42,-1.31 z"
           class="cls-9"
           inkscape:connector-curvature="0"
           style="fill:#dadada" />
        <path
           id="path4426"
           d="m 41.704859,66.389847 a 9.83,9.83 0 0 1 -5.6,-1.44 l -0.27,-0.19 v -16.81 l 0.93,0.44 a 13.85,13.85 0 0 0 5.11,1.25 v 0 a 14.48,14.48 0 0 0 5.14,-1.25 l 0.93,-0.43 v 16.81 l -0.29,0.2 a 11.05,11.05 0 0 1 -5.77,1.41 z m -4.57,-2.3 a 9.73,9.73 0 0 0 4.77,1 11.08,11.08 0 0 0 4.77,-1 v -14.13 a 14.59,14.59 0 0 1 -4.75,1 14.59,14.59 0 0 1 -4.79,-1 z"
           class="cls-8"
           inkscape:connector-curvature="0"
           style="fill:#ffffff" />
        <path
           id="path4428"
           d="m 36.444859,52.699847 a 14.68,14.68 0 0 0 5.43,1.3 15,15 0 0 0 5.41,-1.3"
           class="cls-9"
           inkscape:connector-curvature="0"
           style="fill:#dadada" />
        <path
           id="path4430"
           d="m 41.824859,54.649847 a 14.94,14.94 0 0 1 -5.66,-1.37 l 0.56,-1.19 a 14,14 0 0 0 5.1,1.24 v 0 a 14.11,14.11 0 0 0 5.18,-1.24 l 0.57,1.2 a 15.68,15.68 0 0 1 -5.69,1.36 z"
           class="cls-8"
           inkscape:connector-curvature="0"
           style="fill:#ffffff" />
        <path
           id="path4432"
           d="m 36.444859,56.279847 a 14.59,14.59 0 0 0 5.43,1.31 14.94,14.94 0 0 0 5.41,-1.31"
           class="cls-9"
           inkscape:connector-curvature="0"
           style="fill:#dadada" />
        <path
           id="path4434"
           d="m 41.824859,58.239847 a 14.94,14.94 0 0 1 -5.66,-1.37 l 0.56,-1.18 a 13.71,13.71 0 0 0 5.1,1.25 v 0 a 14.34,14.34 0 0 0 5.14,-1.25 l 0.56,1.19 a 15.68,15.68 0 0 1 -5.69,1.36 z"
           class="cls-8"
           inkscape:connector-curvature="0"
           style="fill:#ffffff" />
        <path
           id="path4436"
           d="m 36.444859,59.789847 a 14.59,14.59 0 0 0 5.43,1.3 15.17,15.17 0 0 0 5.41,-1.31"
           class="cls-9"
           inkscape:connector-curvature="0"
           style="fill:#dadada" />
        <path
           id="path4438"
           d="m 41.824859,61.749847 a 14.94,14.94 0 0 1 -5.66,-1.37 l 0.56,-1.18 a 14,14 0 0 0 5.1,1.24 v 0 a 14.43,14.43 0 0 0 5.14,-1.24 l 0.56,1.18 a 15.6,15.6 0 0 1 -5.69,1.37 z"
           class="cls-8"
           inkscape:connector-curvature="0"
           style="fill:#ffffff" />
        <path
           id="path4440"
           d="m 47.724859,48.479847 a 16.54,16.54 0 0 0 -5.82,-1.31 17.14,17.14 0 0 0 -5.81,1.31"
           class="cls-9"
           inkscape:connector-curvature="0"
           style="fill:#dadada" />
        <path
           id="path4442"
           d="m 36.354859,49.089847 -0.53,-1.2 a 17.68,17.68 0 0 1 6.07,-1.36 17.86,17.86 0 0 1 6.1,1.36 l -0.53,1.2 a 15.88,15.88 0 0 0 -5.52,-1.25 v 0 a 16.18,16.18 0 0 0 -5.59,1.25 z"
           class="cls-8"
           inkscape:connector-curvature="0"
           style="fill:#ffffff" />
      </g>
    </g>
  </g>
</svg>
