<svg xmlns="http://www.w3.org/2000/svg" xmlns:xlink="http://www.w3.org/1999/xlink" viewBox="0 0 136.08 87.94"><defs><style>.cls-1{fill:none;}.cls-2{clip-path:url(#clip-path);}.cls-3{fill:#a90a2d;stroke:#a90a2d;stroke-miterlimit:10;stroke-width:10px;}.cls-4{fill:#840b20;}.cls-5,.cls-7,.cls-8{fill:#fff;}.cls-5{opacity:0.15;}.cls-6{fill:#1d1d1b;}.cls-7{font-size:7px;font-family:Hind-Bold, Hind;font-weight:700;}.cls-9{fill:#dadada;}.cls-10{fill:#95c11f;}.cls-11{fill:#928d17;}.cls-12{fill:#e6332a;}.cls-13{fill:#cf3025;}</style><clipPath id="clip-path"><circle class="cls-1" cx="94.95" cy="42.69" r="41.1"/></clipPath></defs><title>Element 268</title><g id="Ebene_2" data-name="Ebene 2"><g id="Ebene_2-2" data-name="Ebene 2"><g class="cls-2"><circle class="cls-3" cx="95.11" cy="43.11" r="35.98"/><path class="cls-4" d="M113.29,24.72A15.38,15.38,0,0,1,115,26.65a8.45,8.45,0,0,1,3.48-1.35c2,.87,4,1.81,4,2s-3-1.07-4.06-1.36a8.16,8.16,0,0,0-2.89,1.16c-.1.29,0,.39,0,.39a8.61,8.61,0,0,1,1.35.58c.19.38.38,1.54.1,1.83-.1.1-.06.14-.39.2s-1.41,1.71-2.46,2.76-4.79.23-4.79.23.22,2.18.29,4.35c.38.69.87.87,2.22,1.45,2.42.29,4.75-.06,4.84.19s-4.7.57-5.12.48-1.45-.48-2.52-.77a10,10,0,0,0,2.23,2.8c1.93.58,3.86,1.16,3.86,1.36a32.61,32.61,0,0,1-4.25-.58,24.94,24.94,0,0,1-2.23-1.69c.25.74.45,2.23,1,2.75,1.31,1.3,3,2.61,2.85,2.73a33.4,33.4,0,0,1-3.65-2.41c-.69-1.51-1.73-4.12-1.73-4.12h-1a166.83,166.83,0,0,1,3.68,39.64c-4.17-2.09-14.37-17.48-7.33-27.39,1.18-1.65,1.31-12,1.31-12a7.9,7.9,0,0,1-2.29-1,2.81,2.81,0,0,1-.67.09c4.43,10.17-26.57,24.83-26.57,24.83S88.83,32.84,99,37.28a2.82,2.82,0,0,1,.09-.68,7.9,7.9,0,0,1-1-2.29s-10.33.13-12,1.31c-9.91,7-25.3-3.16-27.39-7.33A167.45,167.45,0,0,1,98.35,32v-1s-2.61-1.05-4.12-1.74a33.4,33.4,0,0,1-2.41-3.65c.12-.15,1.43,1.54,2.73,2.85.52.52,2,.72,2.76,1a23.21,23.21,0,0,1-1.7-2.23A31,31,0,0,1,95,22.88c.19,0,.77,1.93,1.35,3.87A10.13,10.13,0,0,0,99.19,29c-.29-1.07-.68-2-.77-2.51s.23-5.21.48-5.12-.1,2.41.19,4.83c.58,1.35.77,1.84,1.45,2.22,2.17.07,4.35.29,4.35.29s-.81-3.75.24-4.79,2.7-2.13,2.75-2.46.1-.29.2-.38c.29-.29,1.45-.1,1.83.09a9.05,9.05,0,0,1,.58,1.35s.1.1.39,0A8.16,8.16,0,0,0,112,19.6c-.29-1.07-1.57-4.05-1.35-4.06s1.15,1.93,2,4A8.4,8.4,0,0,1,111.36,23,15.38,15.38,0,0,1,113.29,24.72Z"/><path class="cls-5" d="M111.53,72.48A42.54,42.54,0,0,1,76.41,5.9a42.55,42.55,0,1,0,51,63.51A42.43,42.43,0,0,1,111.53,72.48Z"/><text></text><text></text><rect class="cls-6" x="16.88" width="3" height="13"/><rect class="cls-6" y="18.75" width="15.38" height="11.38"/><text class="cls-7" transform="translate(79.34 56.75)">INSECURE<tspan x="-13.23" y="7">DESERIALIZATION</tspan></text></g><rect class="cls-8" x="80.64" y="33.99" width="0.77" height="5.35" transform="translate(44.88 117.92) rotate(-90.37)"/><polygon class="cls-8" points="86.08 36.6 83.23 38.09 83.22 36.62 83.21 35.15 86.08 36.6"/><rect class="cls-8" x="104.89" y="33.99" width="0.77" height="5.35" transform="translate(69.29 142.17) rotate(-90.37)"/><polygon class="cls-8" points="110.33 36.6 107.48 38.09 107.47 36.62 107.46 35.15 110.33 36.6"/><rect class="cls-9" x="66.32" y="32.84" width="8.03" height="8.03"/><path class="cls-8" d="M74.6,41.12H66.07V32.58H74.6Zm-8-.51H74.1V33.09H66.57Z"/><rect class="cls-10" x="64.46" y="34.78" width="8.03" height="8.03"/><path class="cls-8" d="M72.74,43.06H64.21V34.53h8.53Zm-8-.51h7.52V35H64.72Z"/><path class="cls-9" d="M74.35,32.84l-1.95,2"/><path class="cls-8" d="M72.58,35l-.36-.36,1-1,1-1,.36.36c-.24.23-.61.61-1,1Z"/><path class="cls-9" d="M66.22,32.77c-.48.48-1.34,1.47-1.81,1.95"/><path class="cls-8" d="M64.59,34.9l-.36-.36.89-1c.34-.38.68-.75.92-1l.35.36c-.23.24-.56.6-.89,1S64.83,34.66,64.59,34.9Z"/><path class="cls-9" d="M74.41,40.94c-.47.47-1.37,1.46-1.85,1.93"/><path class="cls-8" d="M72.74,43.05l-.36-.36c.24-.23.58-.6.92-1s.69-.73.93-1l.36.36c-.24.23-.58.6-.92,1S73,42.81,72.74,43.05Z"/><polygon class="cls-11" points="64.95 34.52 66.28 33.07 73.72 33.09 72.33 34.54 64.95 34.52"/><polygon class="cls-11" points="72.74 42.32 72.74 34.85 74.09 33.46 74.09 40.9 72.74 42.32"/><rect class="cls-9" x="115.43" y="32.84" width="8.03" height="8.03"/><path class="cls-8" d="M123.71,41.12h-8.54V32.58h8.54Zm-8-.51h7.52V33.09h-7.52Z"/><rect class="cls-12" x="113.57" y="34.78" width="8.03" height="8.03"/><path class="cls-8" d="M121.85,43.06h-8.54V34.53h8.54Zm-8-.51h7.52V35h-7.52Z"/><path class="cls-9" d="M123.45,32.84c-.47.47-1.47,1.51-1.94,2"/><path class="cls-8" d="M121.69,35l-.36-.36,1-1,1-1,.35.36-1,1Z"/><path class="cls-9" d="M115.32,32.77c-.47.48-1.33,1.47-1.8,1.95"/><path class="cls-8" d="M113.69,34.9l-.35-.36.89-1c.34-.38.67-.75.91-1l.36.36c-.23.24-.56.6-.89,1S113.93,34.66,113.69,34.9Z"/><path class="cls-9" d="M123.52,40.94c-.48.47-1.38,1.46-1.85,1.93"/><path class="cls-8" d="M121.85,43.05l-.36-.36c.24-.23.58-.6.92-1s.69-.73.93-1l.35.36c-.23.23-.57.6-.91,1S122.09,42.81,121.85,43.05Z"/><polygon class="cls-13" points="114.05 34.52 115.39 33.07 122.83 33.09 121.44 34.54 114.05 34.52"/><polygon class="cls-13" points="121.85 42.32 121.85 34.85 123.2 33.46 123.2 40.9 121.85 42.32"/><rect class="cls-9" x="89.04" y="26.7" width="10.35" height="3.21"/><path class="cls-9" d="M99.76,43.34a10.49,10.49,0,0,1-5.42,1.3,9.38,9.38,0,0,1-5.43-1.3V27.89a14.59,14.59,0,0,0,5.43,1.31,15,15,0,0,0,5.42-1.31Z"/><path class="cls-8" d="M94.13,45.3a9.83,9.83,0,0,1-5.6-1.44l-.27-.19V26.86l.93.44a13.85,13.85,0,0,0,5.11,1.25h0a14.48,14.48,0,0,0,5.14-1.25l.93-.43V43.68l-.29.2a11.05,11.05,0,0,1-5.77,1.41ZM89.56,43a9.73,9.73,0,0,0,4.77,1,11.08,11.08,0,0,0,4.77-1V28.87a14.59,14.59,0,0,1-4.75,1,14.59,14.59,0,0,1-4.79-1Z"/><path class="cls-9" d="M88.87,31.61a14.68,14.68,0,0,0,5.43,1.3,15,15,0,0,0,5.41-1.3"/><path class="cls-8" d="M94.25,33.56a14.94,14.94,0,0,1-5.66-1.37L89.15,31a14,14,0,0,0,5.1,1.24h0A14.11,14.11,0,0,0,99.43,31L100,32.2a15.68,15.68,0,0,1-5.69,1.36Z"/><path class="cls-9" d="M88.87,35.19A14.59,14.59,0,0,0,94.3,36.5a14.94,14.94,0,0,0,5.41-1.31"/><path class="cls-8" d="M94.25,37.15a14.94,14.94,0,0,1-5.66-1.37l.56-1.18a13.71,13.71,0,0,0,5.1,1.25h0a14.34,14.34,0,0,0,5.14-1.25l.56,1.19a15.68,15.68,0,0,1-5.69,1.36Z"/><path class="cls-9" d="M88.87,38.7A14.59,14.59,0,0,0,94.3,40a15.17,15.17,0,0,0,5.41-1.31"/><path class="cls-8" d="M94.25,40.66a14.94,14.94,0,0,1-5.66-1.37l.56-1.18a14,14,0,0,0,5.1,1.24h0a14.43,14.43,0,0,0,5.14-1.24l.56,1.18a15.6,15.6,0,0,1-5.69,1.37Z"/><path class="cls-9" d="M100.15,27.39a16.54,16.54,0,0,0-5.82-1.31,17.14,17.14,0,0,0-5.81,1.31"/><path class="cls-8" d="M88.78,28l-.53-1.2a17.68,17.68,0,0,1,6.07-1.36,17.86,17.86,0,0,1,6.1,1.36L99.89,28a15.88,15.88,0,0,0-5.52-1.25h0A16.18,16.18,0,0,0,88.78,28Z"/></g></g></svg>
