<?xml version="1.0" encoding="UTF-8" standalone="no"?>
<svg
   xmlns:dc="http://purl.org/dc/elements/1.1/"
   xmlns:cc="http://creativecommons.org/ns#"
   xmlns:rdf="http://www.w3.org/1999/02/22-rdf-syntax-ns#"
   xmlns:svg="http://www.w3.org/2000/svg"
   xmlns="http://www.w3.org/2000/svg"
   xmlns:sodipodi="http://sodipodi.sourceforge.net/DTD/sodipodi-0.dtd"
   xmlns:inkscape="http://www.inkscape.org/namespaces/inkscape"
   width="25.7799mm"
   height="25.7799mm"
   viewBox="0 0 25.7799 25.779899"
   version="1.1"
   id="svg1709"
   inkscape:version="1.0.1 (3bc2e813f5, 2020-09-07)"
   sodipodi:docname="insufficient-logging-monitoring.svg">
  <defs
     id="defs1703" />
  <sodipodi:namedview
     id="base"
     pagecolor="#ffffff"
     bordercolor="#666666"
     borderopacity="1.0"
     inkscape:pageopacity="0.0"
     inkscape:pageshadow="2"
     inkscape:zoom="8.0000001"
     inkscape:cx="50.376379"
     inkscape:cy="47.724966"
     inkscape:document-units="mm"
     inkscape:current-layer="layer2"
     showgrid="false"
     fit-margin-top="0"
     fit-margin-left="0"
     fit-margin-right="0"
     fit-margin-bottom="0"
     inkscape:window-width="3387"
     inkscape:window-height="1370"
     inkscape:window-x="53"
     inkscape:window-y="33"
     inkscape:window-maximized="1"
     inkscape:document-rotation="0" />
  <metadata
     id="metadata1706">
    <rdf:RDF>
      <cc:Work
         rdf:about="">
        <dc:format>image/svg+xml</dc:format>
        <dc:type
           rdf:resource="http://purl.org/dc/dcmitype/StillImage" />
        <dc:title></dc:title>
      </cc:Work>
    </rdf:RDF>
  </metadata>
  <g
     inkscape:label="button"
     inkscape:groupmode="layer"
     id="layer1"
     transform="translate(-76.098697,-100.99309)"
     style="display:inline">
    <g
       inkscape:groupmode="layer"
       id="layer5"
       inkscape:label="background"
       transform="translate(76.098697,100.99309)"
       style="display:inline">
      <circle
         class="cls-4"
         cx="88.987877"
         cy="113.88011"
         r="12.889999"
         id="circle129-7"
         style="display:inline;fill:#89c3dd;fill-opacity:1;stroke:#dadada;stroke-width:0;stroke-miterlimit:10;stroke-dasharray:none;stroke-opacity:1"
         transform="translate(-76.098696,-100.99309)" />
      <path
         class="cls-5"
         d="m 106.08657,150.08769 a 4.8376628,4.8376628 0 0 1 0.53787,0.60707 2.6578838,2.6578838 0 0 1 1.09461,-0.42463 c 0.62908,0.27365 1.25817,0.56932 1.25817,0.62908 0,0.0598 -0.94363,-0.33656 -1.27704,-0.42778 a 2.5666665,2.5666665 0 0 0 -0.90903,0.36487 c -0.0315,0.0912 0,0.12267 0,0.12267 a 2.7082107,2.7082107 0 0 1 0.42463,0.18244 c 0.0598,0.11953 0.11953,0.48439 0.0314,0.57561 -0.0314,0.0315 -0.0189,0.044 -0.12267,0.0629 -0.1038,0.0189 -0.44351,0.53787 -0.77378,0.86814 -0.33027,0.33027 -1.50665,0.0723 -1.50665,0.0723 0,0 0.0692,0.6857 0.0912,1.36825 0.11952,0.21704 0.27365,0.27365 0.69828,0.45609 0.76119,0.0912 1.49408,-0.0189 1.52238,0.0598 0.0283,0.0786 -1.47834,0.1793 -1.61045,0.15098 -0.13211,-0.0283 -0.45609,-0.15098 -0.79265,-0.24219 a 3.1454246,3.1454246 0 0 0 0.70143,0.88071 c 0.60707,0.18244 1.21413,0.36488 1.21413,0.42779 a 10.25723,10.25723 0 0 1 -1.3368,-0.18244 7.8446892,7.8446892 0 0 1 -0.70143,-0.53156 c 0.0786,0.23275 0.14154,0.70143 0.31454,0.86498 0.41205,0.4089 0.94363,0.82095 0.89645,0.85871 a 10.505718,10.505718 0 0 1 -1.14808,-0.75805 c -0.21703,-0.47496 -0.54416,-1.29592 -0.54416,-1.29592 h -0.31454 a 52.475119,52.475119 0 0 1 1.15751,12.46847 c -1.31164,-0.65739 -4.51997,-5.49821 -2.30559,-8.61533 0.37116,-0.51899 0.41205,-3.7745 0.41205,-3.7745 a 2.4848854,2.4848854 0 0 1 -0.7203,-0.31454 0.88386433,0.88386433 0 0 1 -0.21075,0.0283 c 1.39343,3.1989 -8.357393,7.81009 -8.357393,7.81009 0,0 4.58288,-9.73823 7.781783,-8.34167 a 0.88700972,0.88700972 0 0 1 0.0283,-0.21388 2.4848854,2.4848854 0 0 1 -0.31454,-0.72031 c 0,0 -3.249223,0.0409 -3.774513,0.41205 -3.11712,2.20178 -7.957931,-0.99396 -8.61532,-2.3056 a 52.670136,52.670136 0 0 1 12.471613,1.16695 V 152.063 c 0,0 -0.82096,-0.33027 -1.29592,-0.5473 a 10.505718,10.505718 0 0 1 -0.758043,-1.14809 c 0.0377,-0.0472 0.44979,0.4844 0.858703,0.89645 0.16356,0.16356 0.62908,0.22647 0.86813,0.31454 a 7.3005304,7.3005304 0 0 1 -0.53472,-0.70143 9.7508163,9.7508163 0 0 1 -0.19187,-1.36826 c 0.0598,0 0.2422,0.60707 0.42463,1.21728 a 3.1863152,3.1863152 0 0 0 0.8933,0.70772 c -0.0912,-0.33656 -0.21389,-0.62908 -0.24219,-0.7895 -0.0283,-0.16041 0.0724,-1.63876 0.15098,-1.61045 0.0786,0.0283 -0.0315,0.75804 0.0598,1.51923 0.18243,0.42464 0.24219,0.57876 0.45608,0.69829 0.68256,0.022 1.36826,0.0912 1.36826,0.0912 0,0 -0.25478,-1.17954 0.0755,-1.50666 0.33027,-0.32713 0.84927,-0.66998 0.86499,-0.77378 0.0157,-0.10379 0.0314,-0.0912 0.0629,-0.11952 0.0912,-0.0912 0.45609,-0.0315 0.57562,0.0283 a 2.8466092,2.8466092 0 0 1 0.18243,0.42463 c 0,0 0.0314,0.0315 0.12267,0 a 2.5666665,2.5666665 0 0 0 0.35229,-0.91846 c -0.0912,-0.33656 -0.49383,-1.27391 -0.42463,-1.27705 0.0692,-0.003 0.36172,0.60707 0.62909,1.25817 a 2.6421567,2.6421567 0 0 1 -0.40576,1.08832 4.8376628,4.8376628 0 0 1 0.60706,0.54101 z"
         id="path131-3"
         inkscape:connector-curvature="0"
         style="display:inline;fill:#acc5d6;fill-opacity:1;stroke-width:0.314542"
         clip-path="none"
         transform="translate(-86.908836,-143.51764)" />
      <g
         style="fill:none;stroke:#24552a;stroke-width:2;stroke-linecap:round;stroke-linejoin:round;stroke-opacity:1"
         id="g969"
         transform="matrix(0.75966605,0,0,0.72632533,3.7731883,4.573514)">
        <rect
           x="2"
           y="3"
           width="20"
           height="14"
           rx="2"
           ry="2"
           id="rect952"
           style="stroke:#24552a;stroke-opacity:1" />
        <line
           x1="8"
           y1="21"
           x2="16"
           y2="21"
           id="line954"
           style="stroke:#24552a;stroke-opacity:1" />
        <line
           x1="12"
           y1="17"
           x2="12"
           y2="21"
           id="line956"
           style="stroke:#24552a;stroke-opacity:1" />
      </g>
      <g
         style="fill:none;stroke:#eb484e;stroke-width:1.99895;stroke-linecap:round;stroke-linejoin:round;stroke-miterlimit:4;stroke-dasharray:none;stroke-opacity:1"
         id="g997"
         transform="matrix(0.47274866,0,0,0.47274866,7.216197,6.2033761)">
        <polyline
           points="23 18 13.5 8.5 8.5 13.5 1 6"
           id="polyline983"
           style="stroke:#eb484e;stroke-width:1.99895;stroke-miterlimit:4;stroke-dasharray:none;stroke-opacity:1" />
        <polyline
           points="17 18 23 18 23 12"
           id="polyline985"
           style="stroke:#eb484e;stroke-width:1.99895;stroke-miterlimit:4;stroke-dasharray:none;stroke-opacity:1" />
      </g>
    </g>
    <g
       inkscape:groupmode="layer"
       id="layer2"
       inkscape:label="content"
       transform="translate(76.098697,100.99309)"
       style="display:inline">
      <text
         xml:space="preserve"
         style="font-style:normal;font-weight:normal;font-size:2.82222px;line-height:1.25;font-family:sans-serif;letter-spacing:0px;word-spacing:0px;display:inline;fill:#000000;fill-opacity:1;stroke:none;stroke-width:0.264583"
         x="13.152705"
         y="12.295408"
         id="text7112"><tspan
           sodipodi:role="line"
           x="13.152705"
           y="12.295408"
           style="font-style:normal;font-variant:normal;font-weight:normal;font-stretch:normal;font-size:3.175px;font-family:hind;-inkscape-font-specification:'hind, Normal';font-variant-ligatures:normal;font-variant-caps:normal;font-variant-numeric:normal;font-variant-east-asian:normal;text-align:center;text-anchor:middle;fill:#0a0a0a;fill-opacity:1;stroke-width:0.264583"
           id="tspan7114"><tspan
   style="font-style:normal;font-variant:normal;font-weight:600;font-stretch:normal;font-size:3.175px;font-family:hind;-inkscape-font-specification:'hind, Semi-Bold';font-variant-ligatures:normal;font-variant-caps:normal;font-variant-numeric:normal;font-variant-east-asian:normal"
   id="tspan999">INSUFFICIENT</tspan> </tspan><tspan
           sodipodi:role="line"
           x="13.152705"
           y="16.272079"
           style="font-style:normal;font-variant:normal;font-weight:normal;font-stretch:normal;font-size:3.175px;font-family:hind;-inkscape-font-specification:'hind, Normal';font-variant-ligatures:normal;font-variant-caps:normal;font-variant-numeric:normal;font-variant-east-asian:normal;text-align:center;text-anchor:middle;fill:#0a0a0a;fill-opacity:1;stroke-width:0.264583"
           id="tspan845">LOGGING &amp;</tspan><tspan
           sodipodi:role="line"
           x="13.152705"
           y="20.248749"
           style="font-style:normal;font-variant:normal;font-weight:normal;font-stretch:normal;font-size:3.175px;font-family:hind;-inkscape-font-specification:'hind, Normal';font-variant-ligatures:normal;font-variant-caps:normal;font-variant-numeric:normal;font-variant-east-asian:normal;text-align:center;text-anchor:middle;fill:#0a0a0a;fill-opacity:1;stroke-width:0.264583"
           id="tspan847">MONITORING</tspan></text>
    </g>
    <g
       inkscape:groupmode="layer"
       id="layer4"
       inkscape:label="gleam"
       transform="translate(76.098697,100.99309)"
       style="display:inline">
      <path
         style="display:inline;opacity:0.15;fill:#ffffff;stroke-width:0.314542"
         d="M 7.192685,1.37769 A 13.383781,13.383781 0 0 0 6.649048,1.62832 12.8895,12.889499 0 0 0 3.59e-4,12.88965 12.8895,12.889499 0 0 0 12.890011,25.77931 12.8895,12.889499 0 0 0 22.296672,21.67826 13.346037,13.346037 0 0 1 18.239556,22.31957 13.380636,13.380636 0 0 1 7.192685,1.37769 Z"
         id="path133-3-3"
         inkscape:connector-curvature="0" />
    </g>
  </g>
  <g
     inkscape:groupmode="layer"
     id="layer3"
     inkscape:label="edge"
     style="display:inline">
    <ellipse
       style="opacity:1;vector-effect:none;fill:none;fill-opacity:1;stroke:#000000;stroke-width:0.00300114;stroke-linecap:butt;stroke-linejoin:miter;stroke-miterlimit:4;stroke-dasharray:none;stroke-dashoffset:0;stroke-opacity:1"
       id="path1859"
       cx="12.888689"
       cy="12.885541"
       rx="12.888499"
       ry="12.888245" />
  </g>
  <g
     inkscape:groupmode="layer"
     id="layer6"
     inkscape:label="contentscope"
     style="display:inline" />
</svg>
