<?xml version="1.0" encoding="UTF-8" standalone="no"?>
<!-- Created with Inkscape (http://www.inkscape.org/) -->

<svg
   width="25.7799mm"
   height="25.7799mm"
   viewBox="0 0 25.7799 25.779899"
   version="1.1"
   id="svg1709"
   inkscape:version="1.1 (c4e8f9e, 2021-05-24)"
   sodipodi:docname="loggging.svg"
   xmlns:inkscape="http://www.inkscape.org/namespaces/inkscape"
   xmlns:sodipodi="http://sodipodi.sourceforge.net/DTD/sodipodi-0.dtd"
   xmlns="http://www.w3.org/2000/svg"
   xmlns:svg="http://www.w3.org/2000/svg"
   xmlns:rdf="http://www.w3.org/1999/02/22-rdf-syntax-ns#"
   xmlns:cc="http://creativecommons.org/ns#"
   xmlns:dc="http://purl.org/dc/elements/1.1/">
  <defs
     id="defs1703"><clipPath
   clipPathUnits="userSpaceOnUse"
   id="clipPath1706">
  <circle
     style="opacity:1;fill:#993727;fill-opacity:1;stroke:none;stroke-width:0.1580953;stroke-linecap:round;stroke-linejoin:miter;stroke-miterlimit:4;stroke-dasharray:none;stroke-opacity:1"
     id="circle1708"
     cx="99.772911"
     cy="156.39888"
     r="9.7385139" />
</clipPath>

        
    
            
        
                
                
                
                
                
                
                
                
                
                
                
                
                
                
                
                
                
                
                
                
            </defs>
  <sodipodi:namedview
     id="base"
     pagecolor="#ffffff"
     bordercolor="#666666"
     borderopacity="1.0"
     inkscape:pageopacity="0.0"
     inkscape:pageshadow="2"
     inkscape:zoom="4"
     inkscape:cx="51.875"
     inkscape:cy="63.375"
     inkscape:document-units="mm"
     inkscape:current-layer="g72001"
     showgrid="false"
     fit-margin-top="0"
     fit-margin-left="0"
     fit-margin-right="0"
     fit-margin-bottom="0"
     inkscape:window-width="1287"
     inkscape:window-height="723"
     inkscape:window-x="36"
     inkscape:window-y="23"
     inkscape:window-maximized="0"
     inkscape:pagecheckerboard="0" />
  <metadata
     id="metadata1706">
    <rdf:RDF>
      <cc:Work
         rdf:about="">
        <dc:format>image/svg+xml</dc:format>
        <dc:type
           rdf:resource="http://purl.org/dc/dcmitype/StillImage" />
        <dc:title />
      </cc:Work>
    </rdf:RDF>
  </metadata>
  <g
     inkscape:label="button"
     inkscape:groupmode="layer"
     id="layer1"
     transform="translate(-76.098697,-100.99309)"
     style="display:inline">
    <g
       inkscape:groupmode="layer"
       id="layer8"
       inkscape:label="background"
       transform="translate(76.098697,100.99309)"
       style="display:inline">
      <ellipse
         class="cls-4"
         cx="88.988647"
         cy="113.88304"
         id="circle129-7"
         style="display:inline;fill:#ac0005;fill-opacity:1;stroke:#e71d43;stroke-width:3.145;stroke-miterlimit:10;stroke-opacity:1;stroke-dasharray:none"
         transform="translate(-76.098696,-100.99309)"
         rx="11.317"
         ry="11.317238" />
      <path
         transform="translate(-86.908836,-143.51764)"
         class="cls-5"
         d="m 106.08657,150.08769 a 4.8376628,4.8376628 0 0 1 0.53787,0.60707 2.6578838,2.6578838 0 0 1 1.09461,-0.42463 c 0.62908,0.27365 1.25817,0.56932 1.25817,0.62908 0,0.0598 -0.94363,-0.33656 -1.27704,-0.42778 a 2.5666665,2.5666665 0 0 0 -0.90903,0.36487 c -0.0315,0.0912 0,0.12267 0,0.12267 a 2.7082107,2.7082107 0 0 1 0.42463,0.18244 c 0.0598,0.11953 0.11953,0.48439 0.0314,0.57561 -0.0314,0.0315 -0.0189,0.044 -0.12267,0.0629 -0.1038,0.0189 -0.44351,0.53787 -0.77378,0.86814 -0.33027,0.33027 -1.50665,0.0723 -1.50665,0.0723 0,0 0.0692,0.6857 0.0912,1.36825 0.11952,0.21704 0.27365,0.27365 0.69828,0.45609 0.76119,0.0912 1.49408,-0.0189 1.52238,0.0598 0.0283,0.0786 -1.47834,0.1793 -1.61045,0.15098 -0.13211,-0.0283 -0.45609,-0.15098 -0.79265,-0.24219 a 3.1454246,3.1454246 0 0 0 0.70143,0.88071 c 0.60707,0.18244 1.21413,0.36488 1.21413,0.42779 a 10.25723,10.25723 0 0 1 -1.3368,-0.18244 7.8446892,7.8446892 0 0 1 -0.70143,-0.53156 c 0.0786,0.23275 0.14154,0.70143 0.31454,0.86498 0.41205,0.4089 0.94363,0.82095 0.89645,0.85871 a 10.505718,10.505718 0 0 1 -1.14808,-0.75805 c -0.21703,-0.47496 -0.54416,-1.29592 -0.54416,-1.29592 h -0.31454 a 52.475119,52.475119 0 0 1 1.15751,12.46847 c -1.31164,-0.65739 -4.51997,-5.49821 -2.30559,-8.61533 0.37116,-0.51899 0.41205,-3.7745 0.41205,-3.7745 a 2.4848854,2.4848854 0 0 1 -0.7203,-0.31454 0.88386433,0.88386433 0 0 1 -0.21075,0.0283 c 1.39343,3.1989 -8.357393,7.81009 -8.357393,7.81009 0,0 4.58288,-9.73823 7.781783,-8.34167 a 0.88700972,0.88700972 0 0 1 0.0283,-0.21388 2.4848854,2.4848854 0 0 1 -0.31454,-0.72031 c 0,0 -3.249223,0.0409 -3.774513,0.41205 -3.11712,2.20178 -7.957931,-0.99396 -8.61532,-2.3056 a 52.670136,52.670136 0 0 1 12.471613,1.16695 V 152.063 c 0,0 -0.82096,-0.33027 -1.29592,-0.5473 a 10.505718,10.505718 0 0 1 -0.758043,-1.14809 c 0.0377,-0.0472 0.44979,0.4844 0.858703,0.89645 0.16356,0.16356 0.62908,0.22647 0.86813,0.31454 a 7.3005304,7.3005304 0 0 1 -0.53472,-0.70143 9.7508163,9.7508163 0 0 1 -0.19187,-1.36826 c 0.0598,0 0.2422,0.60707 0.42463,1.21728 a 3.1863152,3.1863152 0 0 0 0.8933,0.70772 c -0.0912,-0.33656 -0.21389,-0.62908 -0.24219,-0.7895 -0.0283,-0.16041 0.0724,-1.63876 0.15098,-1.61045 0.0786,0.0283 -0.0315,0.75804 0.0598,1.51923 0.18243,0.42464 0.24219,0.57876 0.45608,0.69829 0.68256,0.022 1.36826,0.0912 1.36826,0.0912 0,0 -0.25478,-1.17954 0.0755,-1.50666 0.33027,-0.32713 0.84927,-0.66998 0.86499,-0.77378 0.0157,-0.10379 0.0314,-0.0912 0.0629,-0.11952 0.0912,-0.0912 0.45609,-0.0315 0.57562,0.0283 a 2.8466092,2.8466092 0 0 1 0.18243,0.42463 c 0,0 0.0314,0.0315 0.12267,0 a 2.5666665,2.5666665 0 0 0 0.35229,-0.91846 c -0.0912,-0.33656 -0.49383,-1.27391 -0.42463,-1.27705 0.0692,-0.003 0.36172,0.60707 0.62909,1.25817 a 2.6421567,2.6421567 0 0 1 -0.40576,1.08832 4.8376628,4.8376628 0 0 1 0.60706,0.54101 z"
         id="path131-3"
         inkscape:connector-curvature="0"
         style="display:inline;fill:#ffffff;fill-opacity:1;stroke-width:0.314542;opacity:0.49230769"
         clip-path="url(#clipPath1706)" />
    </g>
    <g
       inkscape:groupmode="layer"
       id="layer10"
       inkscape:label="content"
       transform="translate(76.098697,100.99309)"
       style="display:inline">
      <text
         xml:space="preserve"
         style="font-style:normal;font-weight:normal;font-size:1.90855px;line-height:1.25;font-family:sans-serif;letter-spacing:0px;word-spacing:0px;display:inline;fill:#000000;fill-opacity:1;stroke:none;stroke-width:0.178927"
         x="12.877928"
         y="20.963646"
         id="text7112"><tspan
           sodipodi:role="line"
           x="12.877928"
           y="20.963646"
           style="font-style:normal;font-variant:normal;font-weight:normal;font-stretch:normal;font-size:2.38569px;font-family:hind;-inkscape-font-specification:hind;text-align:center;text-anchor:middle;fill:#ffffff;stroke-width:0.178927"
           id="tspan7114">LOGGING</tspan></text>
    </g>
    <g
       inkscape:groupmode="layer"
       id="layer9"
       inkscape:label="gleam"
       transform="translate(76.098697,100.99309)"
       style="display:inline">
      <path
         style="display:inline;opacity:0.12692308;fill:#0b0b28;stroke-width:0.314542"
         d="m 83.291381,102.37078 a 13.383781,13.383781 0 0 0 -0.543637,0.25063 12.8895,12.889499 0 0 0 -6.648689,11.26133 12.8895,12.889499 0 0 0 12.889652,12.88966 12.8895,12.889499 0 0 0 9.406661,-4.10105 13.346037,13.346037 0 0 1 -4.057116,0.64131 13.380636,13.380636 0 0 1 -11.046871,-20.94188 z"
         id="path133-3-3"
         inkscape:connector-curvature="0"
         transform="translate(-76.098696,-100.99309)" />
    </g>
    <g
       id="g72001"
       transform="matrix(0.89980862,0,0,0.89980862,8.1262001,10.66055)"
       style="opacity:0.884615;fill:#ffffff">
      <g
         transform="matrix(0.00487307,0,0,0.00899131,81.574086,100.96848)"
         id="g71945"
         style="clip-rule:evenodd;display:inline;fill:#ffffff;fill-opacity:1;fill-rule:evenodd;stroke-linecap:round;stroke-linejoin:round;stroke-miterlimit:1.5">
                    <path
   d="m 2853.35,869.59 c 0,-88.739 -132.73,-160.676 -296.46,-160.676 -0.01,0 -0.01,0 -0.01,0 v 317.336 h 296.47 c 0,0 0,-78.003 0,-156.66 z"
   style="fill:#ffffff;fill-opacity:1"
   id="path71943" />

                </g>
      <g
         transform="matrix(0.03261893,0,0,0.03879454,0.96056517,79.840397)"
         id="g71949"
         style="clip-rule:evenodd;display:inline;fill:#ffffff;fill-rule:evenodd;stroke:#000000;stroke-linecap:round;stroke-linejoin:round;stroke-miterlimit:1.5">
                    <path
   d="M 2853.35,708.914 H 2600.6 c -11.59,0 -22.71,3.873 -30.91,10.767 -8.2,6.895 -12.81,16.246 -12.81,25.996 0,83.56 0,280.573 0,280.573 h 296.47 z"
   style="fill:#ffffff;stroke:#000000"
   id="path71947" />

                </g>
      <g
         transform="matrix(0.03261893,0,0,0.03879454,0.96056517,79.840397)"
         id="g71953"
         style="clip-rule:evenodd;display:inline;fill:#ffffff;fill-rule:evenodd;stroke-linecap:round;stroke-linejoin:round;stroke-miterlimit:1.5">
                    <path
   d="m 2857.4333,709.75242 h -252.75 c -11.59,0 -22.71,3.873 -30.91,10.767 -8.2,6.895 -12.81,16.246 -12.81,25.996 0,83.56 0,280.57298 0,280.57298 h 296.47 z"
   style="fill:#ffffff;stroke:#5f0c0c;stroke-width:12.7465;stroke-miterlimit:1.5;stroke-dasharray:none;stroke-opacity:1"
   id="path71951" />

                </g>
      <g
         transform="matrix(0.00487307,0,0,0.00899131,81.707128,101.00085)"
         id="g71957"
         style="clip-rule:evenodd;display:inline;fill:#ffffff;fill-opacity:1;fill-rule:evenodd;stroke:#3150e1;stroke-linecap:round;stroke-linejoin:round;stroke-miterlimit:1.5;stroke-opacity:1">
                    <path
   d="m 2853.35,869.59 c 0,-88.739 -132.73,-160.676 -296.46,-160.676 -0.01,0 -0.01,0 -0.01,0 v 317.336 h 296.47 c 0,0 0,-78.003 0,-156.66 z"
   style="fill:#df4040;fill-opacity:1;stroke:#6c191a;stroke-width:63.15px;stroke-opacity:1"
   id="path71955" />

                </g>
      <g
         id="g71995"
         style="display:inline;fill:#a5a5a5;fill-opacity:1;stroke:#b33440;stroke-width:0.444539;stroke-miterlimit:4;stroke-dasharray:none;stroke-opacity:1"
         transform="translate(76.098697,100.99309)">
        <g
           id="g71963"
           transform="matrix(0.66612146,0,0,0.94540124,-15.023614,1.7168656)"
           style="fill:#a5a5a5;fill-opacity:1;stroke:#b33440;stroke-width:0.560177;stroke-miterlimit:4;stroke-dasharray:none;stroke-opacity:1">
          <path
             style="fill:#a5a5a5;fill-opacity:1;stroke:#b33440;stroke-width:0.560177;stroke-linecap:round;stroke-linejoin:miter;stroke-miterlimit:4;stroke-dasharray:none;stroke-opacity:1"
             d="m 37.078292,7.1944857 h 2.44585"
             id="path71959" />
          <path
             style="fill:#a5a5a5;fill-opacity:1;stroke:#b33440;stroke-width:0.560177;stroke-linecap:round;stroke-linejoin:miter;stroke-miterlimit:4;stroke-dasharray:none;stroke-opacity:1"
             d="m 41.320521,7.1944857 h 6.204818"
             id="path71961" />
        </g>
        <g
           id="g71969"
           transform="matrix(0.66612146,0,0,0.94540124,-15.023614,3.2821989)"
           style="fill:#a5a5a5;fill-opacity:1;stroke:#b33440;stroke-width:0.560177;stroke-miterlimit:4;stroke-dasharray:none;stroke-opacity:1">
          <path
             style="fill:#a5a5a5;fill-opacity:1;stroke:#b33440;stroke-width:0.560177;stroke-linecap:round;stroke-linejoin:miter;stroke-miterlimit:4;stroke-dasharray:none;stroke-opacity:1"
             d="m 37.078292,7.1944857 h 2.44585"
             id="path71965" />
          <path
             style="fill:#a5a5a5;fill-opacity:1;stroke:#b33440;stroke-width:0.560177;stroke-linecap:round;stroke-linejoin:miter;stroke-miterlimit:4;stroke-dasharray:none;stroke-opacity:1"
             d="m 41.320521,7.1944857 h 6.204818"
             id="path71967" />
        </g>
        <g
           id="g71975"
           transform="matrix(0.66612146,0,0,0.94540124,-15.023614,4.8475319)"
           style="fill:#a5a5a5;fill-opacity:1;stroke:#b33440;stroke-width:0.560177;stroke-miterlimit:4;stroke-dasharray:none;stroke-opacity:1">
          <path
             style="fill:#a5a5a5;fill-opacity:1;stroke:#b33440;stroke-width:0.560177;stroke-linecap:round;stroke-linejoin:miter;stroke-miterlimit:4;stroke-dasharray:none;stroke-opacity:1"
             d="m 37.078292,7.1944857 h 2.44585"
             id="path71971" />
          <path
             style="fill:#a5a5a5;fill-opacity:1;stroke:#b33440;stroke-width:0.560177;stroke-linecap:round;stroke-linejoin:miter;stroke-miterlimit:4;stroke-dasharray:none;stroke-opacity:1"
             d="m 41.320521,7.1944857 h 6.204818"
             id="path71973" />
        </g>
        <g
           id="g71981"
           transform="matrix(0.66612146,0,0,0.94540124,-15.023614,6.4128648)"
           style="fill:#a5a5a5;fill-opacity:1;stroke:#b33440;stroke-width:0.560177;stroke-miterlimit:4;stroke-dasharray:none;stroke-opacity:1">
          <path
             style="fill:#a5a5a5;fill-opacity:1;stroke:#b33440;stroke-width:0.560177;stroke-linecap:round;stroke-linejoin:miter;stroke-miterlimit:4;stroke-dasharray:none;stroke-opacity:1"
             d="m 37.078292,7.1944857 h 2.44585"
             id="path71977" />
          <path
             style="fill:#a5a5a5;fill-opacity:1;stroke:#b33440;stroke-width:0.560177;stroke-linecap:round;stroke-linejoin:miter;stroke-miterlimit:4;stroke-dasharray:none;stroke-opacity:1"
             d="m 41.320521,7.1944857 h 6.204818"
             id="path71979" />
        </g>
        <g
           id="g71987"
           transform="matrix(0.66612146,0,0,0.94540124,-15.023614,7.9781977)"
           style="fill:#a5a5a5;fill-opacity:1;stroke:#b33440;stroke-width:0.560177;stroke-miterlimit:4;stroke-dasharray:none;stroke-opacity:1">
          <path
             style="fill:#a5a5a5;fill-opacity:1;stroke:#b33440;stroke-width:0.560177;stroke-linecap:round;stroke-linejoin:miter;stroke-miterlimit:4;stroke-dasharray:none;stroke-opacity:1"
             d="m 37.078292,7.1944857 h 2.44585"
             id="path71983" />
          <path
             style="fill:#a5a5a5;fill-opacity:1;stroke:#b33440;stroke-width:0.560177;stroke-linecap:round;stroke-linejoin:miter;stroke-miterlimit:4;stroke-dasharray:none;stroke-opacity:1"
             d="m 41.320521,7.1944857 h 6.204818"
             id="path71985" />
        </g>
        <g
           id="g71993"
           transform="matrix(0.66612146,0,0,0.94540124,-15.023614,9.5435305)"
           style="fill:#a5a5a5;fill-opacity:1;stroke:#b33440;stroke-width:0.560177;stroke-miterlimit:4;stroke-dasharray:none;stroke-opacity:1">
          <path
             style="fill:#a5a5a5;fill-opacity:1;stroke:#b33440;stroke-width:0.560177;stroke-linecap:round;stroke-linejoin:miter;stroke-miterlimit:4;stroke-dasharray:none;stroke-opacity:1"
             d="m 37.078292,7.1944857 h 2.44585"
             id="path71989" />
          <path
             style="fill:#a5a5a5;fill-opacity:1;stroke:#b33440;stroke-width:0.560177;stroke-linecap:round;stroke-linejoin:miter;stroke-miterlimit:4;stroke-dasharray:none;stroke-opacity:1"
             d="m 41.320521,7.1944857 h 6.204818"
             id="path71991" />
        </g>
      </g>
      <text
         xml:space="preserve"
         style="font-style:normal;font-weight:normal;font-size:8.86664px;line-height:1.25;font-family:sans-serif;letter-spacing:0px;word-spacing:0px;display:inline;fill:#ffffff;fill-opacity:1;stroke:none;stroke-width:0.221666"
         x="86.075645"
         y="106.03632"
         id="text71999"><tspan
           sodipodi:role="line"
           id="tspan71997"
           x="86.075645"
           y="106.03632"
           style="fill:#ffffff;stroke-width:0.221666"> </tspan></text>
    </g>
  </g>
  <g
     inkscape:groupmode="layer"
     id="layer4"
     inkscape:label="edge"
     style="display:none"
     sodipodi:insensitive="true">
    <ellipse
       style="display:inline;opacity:1;vector-effect:none;fill:none;fill-opacity:1;stroke:#000000;stroke-width:0.00300114;stroke-linecap:butt;stroke-linejoin:miter;stroke-miterlimit:4;stroke-dasharray:none;stroke-dashoffset:0;stroke-opacity:1"
       id="path1859"
       cx="12.889828"
       cy="12.892049"
       rx="12.8885"
       ry="12.888245" />
  </g>
</svg>
