<?xml version="1.0" encoding="UTF-8" standalone="no"?>
<!-- Created with Inkscape (http://www.inkscape.org/) -->

<svg
   xmlns:dc="http://purl.org/dc/elements/1.1/"
   xmlns:cc="http://creativecommons.org/ns#"
   xmlns:rdf="http://www.w3.org/1999/02/22-rdf-syntax-ns#"
   xmlns:svg="http://www.w3.org/2000/svg"
   xmlns="http://www.w3.org/2000/svg"
   xmlns:sodipodi="http://sodipodi.sourceforge.net/DTD/sodipodi-0.dtd"
   xmlns:inkscape="http://www.inkscape.org/namespaces/inkscape"
   width="25.7799mm"
   height="25.7799mm"
   viewBox="0 0 25.7799 25.779899"
   version="1.1"
   id="svg1709"
   inkscape:version="0.92.3 (2405546, 2018-03-11)"
   sodipodi:docname="mobile-storage-security.svg">
  <defs
     id="defs1703" />
  <sodipodi:namedview
     id="base"
     pagecolor="#ffffff"
     bordercolor="#666666"
     borderopacity="1.0"
     inkscape:pageopacity="0.0"
     inkscape:pageshadow="2"
     inkscape:zoom="5.6568545"
     inkscape:cx="27.001387"
     inkscape:cy="46.80329"
     inkscape:document-units="mm"
     inkscape:current-layer="layer2"
     showgrid="false"
     fit-margin-top="0"
     fit-margin-left="0"
     fit-margin-right="0"
     fit-margin-bottom="0"
     inkscape:window-width="1841"
     inkscape:window-height="879"
     inkscape:window-x="79"
     inkscape:window-y="27"
     inkscape:window-maximized="1"
     inkscape:snap-global="false" />
  <metadata
     id="metadata1706">
    <rdf:RDF>
      <cc:Work
         rdf:about="">
        <dc:format>image/svg+xml</dc:format>
        <dc:type
           rdf:resource="http://purl.org/dc/dcmitype/StillImage" />
        <dc:title />
      </cc:Work>
    </rdf:RDF>
  </metadata>
  <g
     inkscape:label="Layer 1"
     inkscape:groupmode="layer"
     id="layer1"
     transform="translate(-76.098697,-100.99309)"
     style="display:inline"
     sodipodi:insensitive="true">
    <circle
       class="cls-4"
       cx="88.987877"
       cy="113.88011"
       r="12.889999"
       id="circle129-7"
       style="display:inline;fill:#00dae3;fill-opacity:1;stroke:#dadada;stroke-width:0;stroke-miterlimit:10;stroke-dasharray:none;stroke-opacity:1" />
    <path
       class="cls-5"
       d="m 106.08657,150.08769 a 4.8376628,4.8376628 0 0 1 0.53787,0.60707 2.6578838,2.6578838 0 0 1 1.09461,-0.42463 c 0.62908,0.27365 1.25817,0.56932 1.25817,0.62908 0,0.0598 -0.94363,-0.33656 -1.27704,-0.42778 a 2.5666665,2.5666665 0 0 0 -0.90903,0.36487 c -0.0315,0.0912 0,0.12267 0,0.12267 a 2.7082107,2.7082107 0 0 1 0.42463,0.18244 c 0.0598,0.11953 0.11953,0.48439 0.0314,0.57561 -0.0314,0.0315 -0.0189,0.044 -0.12267,0.0629 -0.1038,0.0189 -0.44351,0.53787 -0.77378,0.86814 -0.33027,0.33027 -1.50665,0.0723 -1.50665,0.0723 0,0 0.0692,0.6857 0.0912,1.36825 0.11952,0.21704 0.27365,0.27365 0.69828,0.45609 0.76119,0.0912 1.49408,-0.0189 1.52238,0.0598 0.0283,0.0786 -1.47834,0.1793 -1.61045,0.15098 -0.13211,-0.0283 -0.45609,-0.15098 -0.79265,-0.24219 a 3.1454246,3.1454246 0 0 0 0.70143,0.88071 c 0.60707,0.18244 1.21413,0.36488 1.21413,0.42779 a 10.25723,10.25723 0 0 1 -1.3368,-0.18244 7.8446892,7.8446892 0 0 1 -0.70143,-0.53156 c 0.0786,0.23275 0.14154,0.70143 0.31454,0.86498 0.41205,0.4089 0.94363,0.82095 0.89645,0.85871 a 10.505718,10.505718 0 0 1 -1.14808,-0.75805 c -0.21703,-0.47496 -0.54416,-1.29592 -0.54416,-1.29592 h -0.31454 a 52.475119,52.475119 0 0 1 1.15751,12.46847 c -1.31164,-0.65739 -4.51997,-5.49821 -2.30559,-8.61533 0.37116,-0.51899 0.41205,-3.7745 0.41205,-3.7745 a 2.4848854,2.4848854 0 0 1 -0.7203,-0.31454 0.88386433,0.88386433 0 0 1 -0.21075,0.0283 c 1.39343,3.1989 -8.357393,7.81009 -8.357393,7.81009 0,0 4.58288,-9.73823 7.781783,-8.34167 a 0.88700972,0.88700972 0 0 1 0.0283,-0.21388 2.4848854,2.4848854 0 0 1 -0.31454,-0.72031 c 0,0 -3.249223,0.0409 -3.774513,0.41205 -3.11712,2.20178 -7.957931,-0.99396 -8.61532,-2.3056 a 52.670136,52.670136 0 0 1 12.471613,1.16695 V 152.063 c 0,0 -0.82096,-0.33027 -1.29592,-0.5473 a 10.505718,10.505718 0 0 1 -0.758043,-1.14809 c 0.0377,-0.0472 0.44979,0.4844 0.858703,0.89645 0.16356,0.16356 0.62908,0.22647 0.86813,0.31454 a 7.3005304,7.3005304 0 0 1 -0.53472,-0.70143 9.7508163,9.7508163 0 0 1 -0.19187,-1.36826 c 0.0598,0 0.2422,0.60707 0.42463,1.21728 a 3.1863152,3.1863152 0 0 0 0.8933,0.70772 c -0.0912,-0.33656 -0.21389,-0.62908 -0.24219,-0.7895 -0.0283,-0.16041 0.0724,-1.63876 0.15098,-1.61045 0.0786,0.0283 -0.0315,0.75804 0.0598,1.51923 0.18243,0.42464 0.24219,0.57876 0.45608,0.69829 0.68256,0.022 1.36826,0.0912 1.36826,0.0912 0,0 -0.25478,-1.17954 0.0755,-1.50666 0.33027,-0.32713 0.84927,-0.66998 0.86499,-0.77378 0.0157,-0.10379 0.0314,-0.0912 0.0629,-0.11952 0.0912,-0.0912 0.45609,-0.0315 0.57562,0.0283 a 2.8466092,2.8466092 0 0 1 0.18243,0.42463 c 0,0 0.0314,0.0315 0.12267,0 a 2.5666665,2.5666665 0 0 0 0.35229,-0.91846 c -0.0912,-0.33656 -0.49383,-1.27391 -0.42463,-1.27705 0.0692,-0.003 0.36172,0.60707 0.62909,1.25817 a 2.6421567,2.6421567 0 0 1 -0.40576,1.08832 4.8376628,4.8376628 0 0 1 0.60706,0.54101 z"
       id="path131-3"
       inkscape:connector-curvature="0"
       style="display:inline;fill:#0098a9;fill-opacity:1;stroke-width:0.31454244"
       clip-path="none"
       transform="translate(-10.81014,-42.524551)" />
    <path
       style="display:inline;opacity:0.15;fill:#ffffff;stroke-width:0.31454244"
       d="m 83.291381,102.37078 a 13.383781,13.383781 0 0 0 -0.543637,0.25063 12.8895,12.889499 0 0 0 -6.648689,11.26133 12.8895,12.889499 0 0 0 12.889652,12.88966 12.8895,12.889499 0 0 0 9.406661,-4.10105 13.346037,13.346037 0 0 1 -4.057116,0.64131 13.380636,13.380636 0 0 1 -11.046871,-20.94188 z"
       id="path133-3-3"
       inkscape:connector-curvature="0" />
  </g>
  <g
     inkscape:groupmode="layer"
     id="layer2"
     inkscape:label="content">
    <g
       id="g885"
       transform="translate(-1.9102042,4.7572286)">
      <text
         id="text819"
         y="11.593869"
         x="8.7172527"
         style="font-style:normal;font-weight:normal;font-size:2.82222223px;line-height:1.25;font-family:sans-serif;letter-spacing:0px;word-spacing:0px;display:inline;fill:#000000;fill-opacity:1;stroke:none;stroke-width:0.26458332"
         xml:space="preserve"><tspan
           style="font-style:normal;font-variant:normal;font-weight:600;font-stretch:normal;font-size:3.42194629px;font-family:hind;-inkscape-font-specification:'hind Semi-Bold';fill:#ffffff;stroke-width:0.26458332"
           y="11.593869"
           x="8.7172527"
           id="tspan817"
           sodipodi:role="line">MOBILE</tspan></text>
      <text
         id="text819-5"
         y="13.993509"
         x="8.7101507"
         style="font-style:normal;font-weight:normal;font-size:2.82222223px;line-height:1.25;font-family:sans-serif;letter-spacing:0px;word-spacing:0px;display:inline;fill:#000000;fill-opacity:1;stroke:none;stroke-width:0.26458332"
         xml:space="preserve"><tspan
           style="font-style:normal;font-variant:normal;font-weight:600;font-stretch:normal;font-family:hind;-inkscape-font-specification:'hind Semi-Bold';fill:#ffffff;stroke-width:0.26458332"
           y="13.993509"
           x="8.7101507"
           id="tspan817-2"
           sodipodi:role="line">STORAGE</tspan></text>
      <text
         id="text819-0"
         y="16.38895"
         x="8.5403547"
         style="font-style:normal;font-weight:normal;font-size:2.82222223px;line-height:1.25;font-family:sans-serif;letter-spacing:0px;word-spacing:0px;display:inline;fill:#000000;fill-opacity:1;stroke:none;stroke-width:0.26458332"
         xml:space="preserve"><tspan
           style="font-style:normal;font-variant:normal;font-weight:600;font-stretch:normal;font-family:hind;-inkscape-font-specification:'hind Semi-Bold';fill:#ffffff;stroke-width:0.26458332"
           y="16.38895"
           x="8.5403547"
           id="tspan817-6"
           sodipodi:role="line">SECURITY</tspan></text>
    </g>
    <g
       id="g111"
       transform="matrix(0.52403644,0,0,0.71856034,-34.963298,-111.96786)">
      <rect
         class="cls-8"
         x="93.279587"
         y="164.04756"
         width="9.4097729"
         height="1.538587"
         id="rect417"
         style="fill:#dadada;stroke-width:0.31272089" />
      <path
         class="cls-9"
         d="m 103.0271,172.02194 c 0,0 -1.6668,0.60042 -4.922228,0.62544 -3.255424,0.025 -4.934735,-0.62544 -4.934735,-0.62544 v -7.40211 a 23.232036,23.232036 0 0 0 4.934735,0.62545 23.951294,23.951294 0 0 0 4.922228,-0.62545 z"
         id="path419"
         inkscape:connector-curvature="0"
         style="fill:#dadada;stroke:#ffffff;stroke-width:0.62544179px;stroke-miterlimit:10" />
      <path
         class="cls-9"
         d="m 93.126355,166.39922 a 23.241418,23.241418 0 0 0 4.937863,0.62544 23.991948,23.991948 0 0 0 4.922232,-0.62544"
         id="path421"
         inkscape:connector-curvature="0"
         style="fill:#dadada;stroke:#ffffff;stroke-width:0.62544179px;stroke-miterlimit:10" />
      <path
         class="cls-9"
         d="m 93.126355,168.11918 a 23.241418,23.241418 0 0 0 4.937863,0.62544 23.991948,23.991948 0 0 0 4.922232,-0.62544"
         id="path423"
         inkscape:connector-curvature="0"
         style="fill:#dadada;stroke:#ffffff;stroke-width:0.62544179px;stroke-miterlimit:10" />
      <path
         class="cls-9"
         d="m 93.126355,169.80162 a 23.241418,23.241418 0 0 0 4.937863,0.62544 23.991948,23.991948 0 0 0 4.922232,-0.62544"
         id="path425"
         inkscape:connector-curvature="0"
         style="fill:#dadada;stroke:#ffffff;stroke-width:0.62544179px;stroke-miterlimit:10" />
      <path
         sodipodi:nodetypes="csscsssc"
         class="cls-9"
         d="m 103.33857,164.37595 c -0.28671,5.4e-4 -0.32564,-0.0782 -0.51466,-0.11572 -0.19979,-0.0397 -0.39999,-0.0771 -0.60056,-0.11214 -1.36406,-0.23856 -2.745229,-0.37056 -4.130987,-0.39449 -0.888861,0.0187 -1.775772,0.0804 -2.657635,0.18475 -0.489693,0.058 -0.977829,0.12906 -1.463877,0.21325 -0.244838,0.0424 -0.488921,0.0893 -0.732856,0.13719 -0.147267,0.0289 -0.18357,0.0924 -0.377874,0.0955"
         id="path427"
         inkscape:connector-curvature="0"
         style="fill:#dadada;stroke:#ffffff;stroke-width:0.62544179px;stroke-miterlimit:10" />
    </g>
    <g
       id="g937"
       transform="translate(0.77453169,-0.33511328)">
      <rect
         class="cls-10"
         x="5.5464072"
         y="7.8796988"
         width="4.8292861"
         height="4.6340322"
         rx="1.6531519"
         ry="1.6531519"
         id="rect429"
         style="display:inline;fill:#dadada;fill-opacity:1;stroke:#ffffff;stroke-width:0.45100001;stroke-miterlimit:10;stroke-dasharray:none;stroke-opacity:1" />
      <path
         class="cls-11"
         d="m 6.7634915,7.9317646 c 0,-2.915796 2.3886094,-2.9027789 2.3886094,0"
         id="path431"
         inkscape:connector-curvature="0"
         style="display:inline;fill:none;stroke:#ffffff;stroke-width:0.45100001;stroke-miterlimit:10;stroke-dasharray:none;stroke-opacity:1" />
      <circle
         class="cls-12"
         cx="7.9350157"
         cy="9.7020693"
         r="0.39701685"
         id="circle435"
         style="display:inline;fill:#ffffff;stroke:#ffffff;stroke-width:0.4881354px;stroke-miterlimit:10" />
      <rect
         class="cls-13"
         x="7.6942043"
         y="10.073052"
         width="0.50115234"
         height="0.95674551"
         rx="0.24732196"
         ry="0.24732196"
         id="rect437"
         style="display:inline;fill:#ffffff;stroke:#ffffff;stroke-width:0.32542363px;stroke-miterlimit:10" />
    </g>
    <g
       id="g943"
       transform="matrix(1.1361748,0,0,1.1361748,-1.908559,-0.96892268)">
      <rect
         transform="scale(-1)"
         y="-12.513731"
         x="-15.56271"
         height="8.1284132"
         width="5.1870165"
         id="rect887"
         style="opacity:1;vector-effect:none;fill:#dadada;fill-opacity:1;stroke:#ffffff;stroke-width:0.65200001;stroke-linecap:round;stroke-linejoin:round;stroke-miterlimit:4;stroke-dasharray:none;stroke-dashoffset:0;stroke-opacity:1;paint-order:normal" />
      <rect
         transform="scale(1,-1)"
         y="-4.4050446"
         x="12.805499"
         height="0.023410428"
         width="0.32740515"
         id="rect923"
         style="opacity:1;vector-effect:none;fill:#dadada;fill-opacity:1;stroke:#dadada;stroke-width:0.31907111;stroke-linecap:round;stroke-linejoin:miter;stroke-miterlimit:10;stroke-dasharray:none;stroke-dashoffset:0;stroke-opacity:1;paint-order:normal" />
      <rect
         y="11.161671"
         x="10.380294"
         height="1.35206"
         width="5.1778145"
         id="rect925"
         style="opacity:1;vector-effect:none;fill:#ffffff;fill-opacity:1;stroke:none;stroke-width:0.59025675;stroke-linecap:round;stroke-linejoin:miter;stroke-miterlimit:4;stroke-dasharray:none;stroke-dashoffset:0;stroke-opacity:1;paint-order:normal" />
      <circle
         r="0.4630208"
         cy="11.988494"
         cx="12.969201"
         id="path931"
         style="opacity:1;vector-effect:none;fill:#dadada;fill-opacity:1;stroke:none;stroke-width:0.65200001;stroke-linecap:round;stroke-linejoin:miter;stroke-miterlimit:4;stroke-dasharray:none;stroke-dashoffset:0;stroke-opacity:1;paint-order:normal" />
    </g>
  </g>
  <g
     inkscape:groupmode="layer"
     id="layer3"
     inkscape:label="edge"
     style="display:inline"
     sodipodi:insensitive="true">
    <ellipse
       style="opacity:1;vector-effect:none;fill:none;fill-opacity:1;stroke:#000000;stroke-width:0.00300114;stroke-linecap:butt;stroke-linejoin:miter;stroke-miterlimit:4;stroke-dasharray:none;stroke-dashoffset:0;stroke-opacity:1"
       id="path1859"
       cx="12.888689"
       cy="12.885541"
       rx="12.888499"
       ry="12.888245" />
  </g>
</svg>
