<?xml version="1.0" encoding="UTF-8" standalone="no"?>
<svg
   xmlns:dc="http://purl.org/dc/elements/1.1/"
   xmlns:cc="http://creativecommons.org/ns#"
   xmlns:rdf="http://www.w3.org/1999/02/22-rdf-syntax-ns#"
   xmlns:svg="http://www.w3.org/2000/svg"
   xmlns="http://www.w3.org/2000/svg"
   xmlns:sodipodi="http://sodipodi.sourceforge.net/DTD/sodipodi-0.dtd"
   xmlns:inkscape="http://www.inkscape.org/namespaces/inkscape"
   viewBox="0 0 100.15748 100.15748"
   version="1.1"
   id="svg39"
   sodipodi:docname="no_warnings.svg"
   width="26.5mm"
   height="26.5mm"
   inkscape:version="0.92.2 5c3e80d, 2017-08-06"
   inkscape:export-filename="/Users/plaguna/nowarning.png"
   inkscape:export-xdpi="300.00757"
   inkscape:export-ydpi="300.00757">
  <metadata
     id="metadata43">
    <rdf:RDF>
      <cc:Work
         rdf:about="">
        <dc:format>image/svg+xml</dc:format>
        <dc:type
           rdf:resource="http://purl.org/dc/dcmitype/StillImage" />
        <dc:title>Element 270</dc:title>
      </cc:Work>
    </rdf:RDF>
  </metadata>
  <sodipodi:namedview
     pagecolor="#ffffff"
     bordercolor="#666666"
     borderopacity="1"
     objecttolerance="10"
     gridtolerance="10"
     guidetolerance="10"
     inkscape:pageopacity="0"
     inkscape:pageshadow="2"
     inkscape:window-width="1624"
     inkscape:window-height="1006"
     id="namedview41"
     showgrid="false"
     units="mm"
     inkscape:document-units="mm"
     inkscape:zoom="5.6568545"
     inkscape:cx="36.452437"
     inkscape:cy="49.717484"
     inkscape:window-x="56"
     inkscape:window-y="0"
     inkscape:window-maximized="1"
     inkscape:current-layer="layer3"
     showguides="true"
     inkscape:guide-bbox="true">
    <sodipodi:guide
       position="122.8598,-1.9445436"
       orientation="0,1"
       id="guide996"
       inkscape:locked="false" />
    <sodipodi:guide
       position="-116.40745,93.514869"
       orientation="-0.70710678,0.70710678"
       id="guide998"
       inkscape:locked="false" />
    <sodipodi:guide
       position="-16.617009,116.49584"
       orientation="1,0"
       id="guide1000"
       inkscape:locked="false" />
  </sodipodi:namedview>
  <defs
     id="defs7">
    <style
       id="style2">.cls-1{fill:none;}.cls-2{clip-path:url(#clip-path);}.cls-3{fill:#970b27;stroke:#970b27;stroke-width:10px;}.cls-3,.cls-5,.cls-6,.cls-8{stroke-miterlimit:10;}.cls-4{fill:#6b0816;}.cls-5{fill:#c6c6c6;}.cls-5,.cls-6,.cls-8{stroke:#878787;}.cls-10,.cls-6,.cls-7,.cls-8,.cls-9{fill:#fff;}.cls-7{font-size:10.77px;font-family:HalisR-SBlack, Halis R;}.cls-8{stroke-width:0.75px;}.cls-9{opacity:0.07;}.cls-10,.cls-12{font-size:6.98px;font-family:Hind-SemiBold, Hind;font-weight:700;}.cls-11{font-size:8.73px;}.cls-12{fill:#e6332a;}</style>
  </defs>
  <title
     id="title9">Element 270</title>
  <g
     inkscape:groupmode="layer"
     id="layer4"
     inkscape:label="Background"
     transform="translate(0,0.15747546)">
    <ellipse
       style="fill:#ff9e00;fill-opacity:1;stroke:#f7d663;stroke-width:12.22218513px;stroke-miterlimit:10;stroke-opacity:1"
       id="circle11"
       cy="49.725216"
       cx="50.197144"
       class="cls-3"
       rx="43.891895"
       ry="43.814545" />
    <path
       style="opacity:0.59;fill:#ffffff;stroke-width:1.22221851"
       inkscape:connector-curvature="0"
       id="path25"
       d="M 70.724064,86.774634 C 28.983302,86.764202 4.7350536,39.209024 28.315687,4.8278073 -4.0354411,17.774012 -15.078139,59.095873 6.7360927,86.230997 28.550324,113.3661 70.421983,111.76234 90.088854,83.037942 c -6.155577,2.472244 -12.729678,3.740803 -19.36479,3.736692 z"
       class="cls-9"
       sodipodi:nodetypes="ccscc" />
    <path
       style="opacity:1;fill:#f97720;fill-opacity:1;stroke-width:1.22221851"
       inkscape:connector-curvature="0"
       id="path13"
       d="m 78.895667,20.997873 a 26.203021,26.156846 0 0 1 2.201932,2.44228 10.789482,10.770465 0 0 1 4.452803,-1.660752 c 2.568924,1.099028 5.02775,2.295747 5.015517,2.564396 -0.01226,0.268651 -3.792222,-1.343254 -5.137847,-1.709595 a 10.349092,10.330852 0 0 0 -3.669891,1.465367 c -0.122329,0.36634 0,0.488457 0,0.488457 a 11.009671,10.990268 0 0 1 1.712615,0.732684 c 0.24466,0.488457 0.489317,1.953823 0.12233,2.320169 -0.12233,0.122113 -0.07341,0.17096 -0.489318,0.244228 -0.415923,0.07329 -1.786013,2.161419 -3.107175,3.480252 -1.321159,1.318833 -6.116485,0.305286 -6.116485,0.305286 0,0 0.281359,2.747565 0.366991,5.495134 0.477084,0.867011 1.100966,1.099025 2.813581,1.831714 3.058243,0.366339 6.006388,-0.07329 6.116484,0.244227 0.110098,0.317498 -5.945221,0.708262 -6.483474,0.610569 -0.538247,-0.09768 -1.834946,-0.610569 -3.18057,-0.976912 a 12.771221,12.748714 0 0 0 2.813584,3.541308 c 2.44659,0.732687 4.893187,1.46537 4.893187,1.7096 A 40.625692,40.554096 0 0 1 75.837424,43.3936 32.735426,32.677737 0 0 1 73.011607,41.256603 c 0.318057,0.940279 0.574951,2.820836 1.223298,3.480252 1.651451,1.648541 3.792222,3.29708 3.596492,3.455831 A 43.6717,43.594739 0 0 1 73.219568,45.139829 C 72.338794,43.234851 71.017634,39.93777 71.017634,39.93777 h -1.30893 a 211.31231,210.93993 0 0 1 4.660763,50.066786 c -5.284643,-2.649875 -18.17819,-22.114865 -9.284822,-34.631562 1.504654,-2.100364 1.65145,-15.154363 1.65145,-15.154363 a 10.128899,10.111047 0 0 1 -2.886983,-1.221138 3.8411523,3.8343833 0 0 1 -0.856306,0.12211 c 5.614934,12.846408 -33.640665,31.383329 -33.640665,31.383329 0,0 18.569649,-39.186417 31.438732,-33.581385 a 3.1683392,3.1627553 0 0 1 0.122331,-0.854795 10.018801,10.001147 0 0 1 -1.223298,-2.894103 c 0,0 -13.089277,0.158746 -15.181113,1.648538 -12.55103,8.902119 -32.038149,-3.993129 -34.6804705,-9.256248 a 211.82609,211.45278 0 0 1 50.1551735,4.640336 v -1.367679 c 0,0 -3.315131,-1.318831 -5.223476,-2.173629 a 42.619666,42.544556 0 0 1 -3.058243,-4.615916 c 0.159029,-0.183169 1.810479,1.953825 3.461931,3.602366 0.66058,0.659417 2.532226,0.915857 3.486396,1.221143 a 29.921843,29.869112 0 0 1 -2.140769,-2.820837 40.625692,40.554096 0 0 1 -0.733977,-5.373022 c 0.244658,0 0.978634,2.442284 1.712614,4.884567 a 12.771221,12.748714 0 0 0 3.54756,2.808623 c -0.366987,-1.343254 -0.856308,-2.564398 -0.978636,-3.174964 -0.12233,-0.610573 0.293591,-6.581953 0.611649,-6.472052 0.318055,0.109904 -0.122332,3.052856 0.244659,6.105707 0.733975,1.709596 0.9664,2.32017 1.834942,2.808624 2.740186,0.08548 5.504835,0.366342 5.504835,0.366342 0,0 -1.027568,-4.738027 0.293593,-6.105707 1.32116,-1.367676 3.425232,-2.637663 3.54756,-3.004005 0.122332,-0.366341 0.122332,-0.366341 0.24466,-0.488456 0.366988,-0.366345 1.834947,-0.122114 2.324265,0.122115 a 11.009671,10.990268 0 0 1 0.733979,1.709598 c 0,0 0.122327,0.122111 0.489318,0 a 10.581519,10.56287 0 0 0 1.467955,-3.663426 C 76.987323,13.231413 75.37257,9.4458754 75.641696,9.4458754 c 0.269125,0 1.467957,2.4422826 2.568924,5.0066776 a 10.850644,10.831522 0 0 1 -1.712615,4.39611 26.203021,26.156846 0 0 1 2.397662,2.14921 z"
       class="cls-4" />
  </g>
  <g
     inkscape:groupmode="layer"
     id="layer1"
     inkscape:label="Layer 1"
     transform="translate(0,0.15747546)" />
  <g
     inkscape:groupmode="layer"
     id="layer2"
     inkscape:label="Layer 2"
     transform="translate(0,0.15747546)" />
  <g
     inkscape:groupmode="layer"
     id="layer3"
     inkscape:label="Layer 3"
     transform="translate(0,0.15747546)">
    <text
       style="font-weight:700;font-size:7.74067736px;font-family:Hind-SemiBold, Hind;fill:#994c95;fill-opacity:1;stroke-width:1.10897958;"
       id="text31"
       class="cls-10"
       x="4.7415376"
       y="72.994774"
       transform="scale(1.0005618,0.99943852)">
      <tspan
         style="font-style:normal;font-variant:normal;font-weight:bold;font-stretch:normal;font-size:12.8575592px;font-family:Hind-SemiBold, Hind;-inkscape-font-specification:'Hind-SemiBold, Hind, Bold';font-variant-ligatures:normal;font-variant-caps:normal;font-variant-numeric:normal;font-feature-settings:normal;text-align:start;writing-mode:lr-tb;text-anchor:start;fill:#994c95;fill-opacity:1;stroke-width:1.10897958;"
         id="tspan1002">My code has</tspan>
    </text>
    <text
       style="font-weight:700;font-size:8.06812763px;font-family:Hind-SemiBold, Hind;fill:#994c95;fill-opacity:1;stroke-width:1.15589225"
       id="text33"
       class="cls-12"
       x="12.69373"
       y="82.684494"
       transform="scale(1.0005618,0.99943852)">
      <tspan
         style="font-style:normal;font-variant:normal;font-weight:bold;font-stretch:normal;font-size:10.73479939px;font-family:Hind-SemiBold, Hind;-inkscape-font-specification:'Hind-SemiBold, Hind, Bold';font-variant-ligatures:normal;font-variant-caps:normal;font-variant-numeric:normal;font-feature-settings:normal;text-align:start;writing-mode:lr-tb;text-anchor:start;fill:#994c95;fill-opacity:1;stroke-width:1.15589225"
         id="tspan889">no warnings</tspan>
    </text>
    <text
       xml:space="preserve"
       style="font-style:normal;font-variant:normal;font-weight:normal;font-stretch:normal;font-size:60.39654541px;line-height:1.25;font-family:'Arial Black';-inkscape-font-specification:'Arial Black, ';letter-spacing:0px;word-spacing:0px;fill:#994c95;fill-opacity:1;stroke:none;stroke-width:1.50991356px;stroke-linecap:butt;stroke-linejoin:miter;stroke-opacity:1"
       x="24.794674"
       y="61.906433"
       id="text1022"><tspan
         sodipodi:role="line"
         id="tspan1020"
         x="24.794674"
         y="61.906433"
         style="stroke-width:1.50991356px">!?</tspan></text>
  </g>
</svg>
