<svg xmlns="http://www.w3.org/2000/svg" xmlns:xlink="http://www.w3.org/1999/xlink" viewBox="0 0 87.55 85.73"><defs><style>.cls-1,.cls-10,.cls-6{fill:none;}.cls-2{clip-path:url(#clip-path);}.cls-3{fill:#f9b233;stroke:#706f6f;stroke-width:10px;}.cls-10,.cls-3,.cls-6,.cls-7{stroke-miterlimit:10;}.cls-4{fill:#d59a2c;}.cls-5{font-size:8.71px;letter-spacing:-0.02em;}.cls-11,.cls-5,.cls-7,.cls-9{fill:#fff;}.cls-5,.cls-8{font-family:Hind-SemiBold, Hind;font-weight:700;}.cls-6,.cls-7{stroke:#fff;stroke-width:0.75px;}.cls-8{font-size:13.06px;fill:#1d1d1b;}.cls-10{stroke:#dadada;stroke-width:13px;}.cls-11{opacity:0.07;}</style><clipPath id="clip-path"><circle class="cls-1" cx="45.36" cy="42.21" r="41.1"/></clipPath></defs><title>Element 272</title><g id="Ebene_2" data-name="Ebene 2"><g id="Ebene_2-2" data-name="Ebene 2"><g class="cls-2"><circle class="cls-3" cx="45.09" cy="42.29" r="35.79"/><path class="cls-4" d="M63.55,23.62a24.14,24.14,0,0,1,1.77,2,8.7,8.7,0,0,1,3.53-1.37c2.06.88,4,1.85,4,2.06s-3-1.08-4.12-1.37a8.41,8.41,0,0,0-2.94,1.17c-.1.3,0,.4,0,.4a8.94,8.94,0,0,1,1.37.58c.2.4.39,1.57.1,1.87-.1.1-.06.14-.39.2s-1.44,1.74-2.5,2.8-4.86.24-4.86.24.22,2.21.29,4.41c.39.7.89.88,2.26,1.47,2.45.3,4.82-.06,4.9.2s-4.77.58-5.2.49-1.47-.49-2.55-.78a10.24,10.24,0,0,0,2.26,2.84c2,.59,3.92,1.18,3.92,1.37a31.84,31.84,0,0,1-4.31-.58,27.43,27.43,0,0,1-2.27-1.72c.26.76.46,2.27,1,2.79,1.33,1.33,3,2.65,2.89,2.78A34.36,34.36,0,0,1,59,43c-.71-1.53-1.77-4.18-1.77-4.18H56.19a169.6,169.6,0,0,1,3.73,40.26c-4.24-2.12-14.59-17.76-7.44-27.82,1.2-1.68,1.32-12.18,1.32-12.18a7.85,7.85,0,0,1-2.32-1,2.46,2.46,0,0,1-.68.1c4.5,10.33-27,25.22-27,25.22S38.7,31.87,49,36.38a2.53,2.53,0,0,1,.1-.69,7.85,7.85,0,0,1-1-2.32s-10.5.12-12.18,1.32c-10.06,7.15-25.7-3.2-27.81-7.44A169.23,169.23,0,0,1,48.37,31V29.93s-2.65-1.06-4.18-1.76a34.5,34.5,0,0,1-2.45-3.71c.13-.15,1.45,1.57,2.78,2.89.53.53,2,.73,2.79,1a24,24,0,0,1-1.71-2.27A31.87,31.87,0,0,1,45,21.76c.19,0,.78,2,1.37,3.92a10.26,10.26,0,0,0,2.85,2.26c-.3-1.08-.69-2.06-.79-2.55s.24-5.29.49-5.2-.1,2.45.2,4.9c.59,1.38.77,1.87,1.47,2.26,2.2.07,4.41.29,4.41.29s-.81-3.8.24-4.86,2.75-2.16,2.81-2.5.09-.29.19-.39c.3-.29,1.47-.1,1.87.1a9.42,9.42,0,0,1,.59,1.37s.09.1.39,0a8.44,8.44,0,0,0,1.18-2.94c-.3-1.08-1.59-4.11-1.38-4.12s1.18,2,2.06,4a8.55,8.55,0,0,1-1.37,3.53A20.59,20.59,0,0,1,63.55,23.62Z"/><text class="cls-5" transform="translate(25.28 59.09)">INJECTION</text><polygon class="cls-6" points="54.61 32.03 51.46 36.65 39.2 28.34 42.35 23.72 54.61 32.03"/><polygon class="cls-7" points="55.2 34.08 53.57 36.45 52.27 35.57 53.89 33.19 55.2 34.08"/><polygon class="cls-7" points="56.66 35.72 55.63 37.22 53.91 36.06 54.94 34.55 56.66 35.72"/><polygon class="cls-7" points="41.57 24.34 39.53 27.32 34.18 23.7 36.22 20.71 41.57 24.34"/><polygon class="cls-7" points="42.9 23.04 38.76 29.1 38.22 28.74 42.36 22.67 42.9 23.04"/><polygon class="cls-7" points="36.78 19.8 33.54 24.56 33 24.19 36.24 19.44 36.78 19.8"/><line class="cls-7" x1="56.22" y1="36.46" x2="63.42" y2="41.39"/><line class="cls-7" x1="43.38" y1="31.13" x2="45.2" y2="28.48"/><line class="cls-7" x1="44.1" y1="31.63" x2="45.92" y2="28.97"/><line class="cls-7" x1="44.91" y1="32.18" x2="46.73" y2="29.53"/><line class="cls-7" x1="45.63" y1="32.68" x2="47.45" y2="30.02"/><text class="cls-8" transform="translate(25.56 51.7)">No<tspan class="cls-9" x="16.36" y="0">SQL</tspan></text><circle class="cls-10" cx="45.09" cy="42.29" r="35.79"/><path class="cls-11" d="M61.49,70.35A42.33,42.33,0,0,1,26.55,4.11,42.34,42.34,0,1,0,77.28,67.29,42.09,42.09,0,0,1,61.49,70.35Z"/></g></g></g></svg>