<?xml version="1.0" encoding="UTF-8" standalone="no"?>
<svg
   xmlns:dc="http://purl.org/dc/elements/1.1/"
   xmlns:cc="http://creativecommons.org/ns#"
   xmlns:rdf="http://www.w3.org/1999/02/22-rdf-syntax-ns#"
   xmlns:svg="http://www.w3.org/2000/svg"
   xmlns="http://www.w3.org/2000/svg"
   xmlns:sodipodi="http://sodipodi.sourceforge.net/DTD/sodipodi-0.dtd"
   xmlns:inkscape="http://www.inkscape.org/namespaces/inkscape"
   viewBox="0 0 87.55 85.73"
   version="1.1"
   id="svg51"
   sodipodi:docname="nosql_injection.svg"
   inkscape:version="0.92.2 (5c3e80d, 2017-08-06)">
  <metadata
     id="metadata55">
    <rdf:RDF>
      <cc:Work
         rdf:about="">
        <dc:format>image/svg+xml</dc:format>
        <dc:type
           rdf:resource="http://purl.org/dc/dcmitype/StillImage" />
      </cc:Work>
    </rdf:RDF>
  </metadata>
  <sodipodi:namedview
     pagecolor="#ffffff"
     bordercolor="#666666"
     borderopacity="1"
     objecttolerance="10"
     gridtolerance="10"
     guidetolerance="10"
     inkscape:pageopacity="0"
     inkscape:pageshadow="2"
     inkscape:window-width="3373"
     inkscape:window-height="1385"
     id="namedview53"
     showgrid="false"
     inkscape:zoom="11.011314"
     inkscape:cx="60.49697"
     inkscape:cy="47.561601"
     inkscape:window-x="1987"
     inkscape:window-y="27"
     inkscape:window-maximized="1"
     inkscape:current-layer="svg51" />
  <defs
     id="defs7">
    <style
       id="style2">.cls-1,.cls-10,.cls-6{fill:none;}.cls-2{clip-path:url(#clip-path);}.cls-3{fill:#f9b233;stroke:#706f6f;stroke-width:10px;}.cls-10,.cls-3,.cls-6,.cls-7{stroke-miterlimit:10;}.cls-4{fill:#d59a2c;}.cls-5{font-size:8.71px;letter-spacing:-0.02em;}.cls-11,.cls-5,.cls-7,.cls-9{fill:#fff;}.cls-5,.cls-8{font-family:Hind-SemiBold, Hind;font-weight:700;}.cls-6,.cls-7{stroke:#fff;stroke-width:0.75px;}.cls-8{font-size:13.06px;fill:#1d1d1b;}.cls-10{stroke:#dadada;stroke-width:13px;}.cls-11{opacity:0.07;}</style>
    <clipPath
       id="clip-path">
      <circle
         class="cls-1"
         cx="45.36"
         cy="42.21"
         r="41.1"
         id="circle4" />
    </clipPath>
  </defs>
  <title
     id="title9">Element 272</title>
  <circle
     style="fill:#f9b233;stroke:#706f6f;stroke-width:10px;stroke-miterlimit:10"
     id="circle11"
     r="35.790001"
     cy="42.290001"
     cx="45.09"
     class="cls-3" />
  <path
     style="fill:#d59a2c"
     inkscape:connector-curvature="0"
     id="path13"
     d="m 63.55,23.62 a 24.14,24.14 0 0 1 1.77,2 8.7,8.7 0 0 1 3.53,-1.37 c 2.06,0.88 4,1.85 4,2.06 0,0.21 -3,-1.08 -4.12,-1.37 a 8.41,8.41 0 0 0 -2.94,1.17 c -0.1,0.3 0,0.4 0,0.4 a 8.94,8.94 0 0 1 1.37,0.58 c 0.2,0.4 0.39,1.57 0.1,1.87 -0.1,0.1 -0.06,0.14 -0.39,0.2 -0.33,0.06 -1.44,1.74 -2.5,2.8 -1.06,1.06 -4.86,0.24 -4.86,0.24 0,0 0.22,2.21 0.29,4.41 0.39,0.7 0.89,0.88 2.26,1.47 2.45,0.3 4.82,-0.06 4.9,0.2 0.08,0.26 -4.77,0.58 -5.2,0.49 -0.43,-0.09 -1.47,-0.49 -2.55,-0.78 a 10.24,10.24 0 0 0 2.26,2.84 c 2,0.59 3.92,1.18 3.92,1.37 A 31.84,31.84 0 0 1 61.08,41.62 27.43,27.43 0 0 1 58.81,39.9 c 0.26,0.76 0.46,2.27 1,2.79 1.33,1.33 3,2.65 2.89,2.78 A 34.36,34.36 0 0 1 59,43 c -0.71,-1.53 -1.77,-4.18 -1.77,-4.18 h -1.04 a 169.6,169.6 0 0 1 3.73,40.26 C 55.68,76.96 45.33,61.32 52.48,51.26 53.68,49.58 53.8,39.08 53.8,39.08 a 7.85,7.85 0 0 1 -2.32,-1 2.46,2.46 0 0 1 -0.68,0.1 c 4.5,10.33 -27,25.22 -27,25.22 0,0 14.9,-31.53 25.2,-27.02 a 2.53,2.53 0 0 1 0.1,-0.69 7.85,7.85 0 0 1 -1,-2.32 c 0,0 -10.5,0.12 -12.18,1.32 -10.06,7.15 -25.7,-3.2 -27.81,-7.44 A 169.23,169.23 0 0 1 48.37,31 v -1.07 c 0,0 -2.65,-1.06 -4.18,-1.76 a 34.5,34.5 0 0 1 -2.45,-3.71 c 0.13,-0.15 1.45,1.57 2.78,2.89 0.53,0.53 2,0.73 2.79,1 A 24,24 0 0 1 45.6,26.08 31.87,31.87 0 0 1 45,21.76 c 0.19,0 0.78,2 1.37,3.92 a 10.26,10.26 0 0 0 2.85,2.26 c -0.3,-1.08 -0.69,-2.06 -0.79,-2.55 -0.1,-0.49 0.24,-5.29 0.49,-5.2 0.25,0.09 -0.1,2.45 0.2,4.9 0.59,1.38 0.77,1.87 1.47,2.26 2.2,0.07 4.41,0.29 4.41,0.29 0,0 -0.81,-3.8 0.24,-4.86 1.05,-1.06 2.75,-2.16 2.81,-2.5 0.06,-0.34 0.09,-0.29 0.19,-0.39 0.3,-0.29 1.47,-0.1 1.87,0.1 a 9.42,9.42 0 0 1 0.59,1.37 c 0,0 0.09,0.1 0.39,0 a 8.44,8.44 0 0 0 1.18,-2.94 c -0.3,-1.08 -1.59,-4.11 -1.38,-4.12 0.21,-0.01 1.18,2 2.06,4 a 8.55,8.55 0 0 1 -1.37,3.53 20.59,20.59 0 0 1 1.97,1.79 z"
     class="cls-4" />
  <text
     style="font-weight:700;font-size:8.71000004px;font-family:Hind-SemiBold, Hind;letter-spacing:-0.02em;fill:#ffffff"
     id="text15"
     class="cls-5"
     x="25.280001"
     y="59.09">INJECTION</text>
  <polygon
     style="fill:none;stroke:#ffffff;stroke-width:0.75px;stroke-miterlimit:10"
     id="polygon17"
     points="42.35,23.72 54.61,32.03 51.46,36.65 39.2,28.34 "
     class="cls-6"
     transform="translate(-3.0691393,1.8049617)" />
  <polygon
     style="fill:#ffffff;stroke:#ffffff;stroke-width:0.75px;stroke-miterlimit:10"
     id="polygon19"
     points="53.89,33.19 55.2,34.08 53.57,36.45 52.27,35.57 "
     class="cls-7"
     transform="translate(-3.0691393,1.8049617)" />
  <polygon
     style="fill:#ffffff;stroke:#ffffff;stroke-width:0.75px;stroke-miterlimit:10"
     id="polygon21"
     points="54.94,34.55 56.66,35.72 55.63,37.22 53.91,36.06 "
     class="cls-7"
     transform="translate(-3.0691393,1.8049617)" />
  <polygon
     style="fill:#ffffff;stroke:#ffffff;stroke-width:0.75px;stroke-miterlimit:10"
     id="polygon23"
     points="36.22,20.71 41.57,24.34 39.53,27.32 34.18,23.7 "
     class="cls-7"
     transform="translate(-3.0691393,1.8049617)" />
  <polygon
     style="fill:#ffffff;stroke:#ffffff;stroke-width:0.75px;stroke-miterlimit:10"
     id="polygon25"
     points="42.36,22.67 42.9,23.04 38.76,29.1 38.22,28.74 "
     class="cls-7"
     transform="translate(-3.0691393,1.8049617)" />
  <polygon
     style="fill:#ffffff;stroke:#ffffff;stroke-width:0.75px;stroke-miterlimit:10"
     id="polygon27"
     points="36.24,19.44 36.78,19.8 33.54,24.56 33,24.19 "
     class="cls-7"
     transform="translate(-3.0691393,1.8049617)" />
  <line
     style="fill:#ffffff;stroke:#ffffff;stroke-width:0.75px;stroke-miterlimit:10"
     id="line29"
     y2="43.194962"
     x2="60.350861"
     y1="38.264961"
     x1="53.150864"
     class="cls-7" />
  <line
     style="fill:#ffffff;stroke:#ffffff;stroke-width:0.75px;stroke-miterlimit:10"
     id="line31"
     y2="30.284962"
     x2="42.130863"
     y1="32.934959"
     x1="40.310863"
     class="cls-7" />
  <line
     style="fill:#ffffff;stroke:#ffffff;stroke-width:0.75px;stroke-miterlimit:10"
     id="line33"
     y2="30.774961"
     x2="42.850861"
     y1="33.434959"
     x1="41.030861"
     class="cls-7" />
  <line
     style="fill:#ffffff;stroke:#ffffff;stroke-width:0.75px;stroke-miterlimit:10"
     id="line35"
     y2="31.334963"
     x2="43.660862"
     y1="33.984962"
     x1="41.840862"
     class="cls-7" />
  <line
     style="fill:#ffffff;stroke:#ffffff;stroke-width:0.75px;stroke-miterlimit:10"
     id="line37"
     y2="31.824963"
     x2="44.380863"
     y1="34.484962"
     x1="42.560863"
     class="cls-7" />
  <text
     style="font-weight:700;font-size:13.06000042px;font-family:Hind-SemiBold, Hind;fill:#1d1d1b"
     id="text41"
     class="cls-8"
     x="25.559999"
     y="51.700001">No<tspan
   style="fill:#ffffff"
   id="tspan39"
   y="51.700001"
   x="41.920002"
   class="cls-9">SQL</tspan>
</text>
  <circle
     style="fill:none;stroke:#dadada;stroke-width:13px;stroke-miterlimit:10"
     id="circle43"
     r="35.790001"
     cy="42.290001"
     cx="45.09"
     class="cls-10" />
  <path
     style="opacity:0.07000002;fill:#ffffff"
     inkscape:connector-curvature="0"
     id="path45"
     d="M 61.49,70.35 A 42.33,42.33 0 0 1 26.55,4.11 42.34,42.34 0 1 0 77.28,67.29 42.09,42.09 0 0 1 61.49,70.35 Z"
     class="cls-11" />
</svg>
