<?xml version="1.0" encoding="UTF-8" standalone="no"?>
<svg
   xmlns:dc="http://purl.org/dc/elements/1.1/"
   xmlns:cc="http://creativecommons.org/ns#"
   xmlns:rdf="http://www.w3.org/1999/02/22-rdf-syntax-ns#"
   xmlns:svg="http://www.w3.org/2000/svg"
   xmlns="http://www.w3.org/2000/svg"
   xmlns:sodipodi="http://sodipodi.sourceforge.net/DTD/sodipodi-0.dtd"
   xmlns:inkscape="http://www.inkscape.org/namespaces/inkscape"
   viewBox="0 0 97.861203 97.902325"
   version="1.1"
   id="svg51"
   sodipodi:docname="nosql_injection.svg"
   inkscape:version="0.92.3 (2405546, 2018-03-11)"
   width="97.861206"
   height="97.902328">
  <metadata
     id="metadata55">
    <rdf:RDF>
      <cc:Work
         rdf:about="">
        <dc:format>image/svg+xml</dc:format>
        <dc:type
           rdf:resource="http://purl.org/dc/dcmitype/StillImage" />
        <dc:title>Element 272</dc:title>
      </cc:Work>
    </rdf:RDF>
  </metadata>
  <sodipodi:namedview
     pagecolor="#ffffff"
     bordercolor="#666666"
     borderopacity="1"
     objecttolerance="10"
     gridtolerance="10"
     guidetolerance="10"
     inkscape:pageopacity="0"
     inkscape:pageshadow="2"
     inkscape:window-width="1841"
     inkscape:window-height="879"
     id="namedview53"
     showgrid="false"
     inkscape:zoom="3.8930874"
     inkscape:cx="-9.5743955"
     inkscape:cy="38.668825"
     inkscape:window-x="79"
     inkscape:window-y="27"
     inkscape:window-maximized="1"
     inkscape:current-layer="layer2"
     fit-margin-top="0"
     fit-margin-left="0"
     fit-margin-right="0"
     fit-margin-bottom="0" />
  <defs
     id="defs7">
    <style
       id="style2">.cls-1,.cls-10,.cls-6{fill:none;}.cls-2{clip-path:url(#clip-path);}.cls-3{fill:#f9b233;stroke:#706f6f;stroke-width:10px;}.cls-10,.cls-3,.cls-6,.cls-7{stroke-miterlimit:10;}.cls-4{fill:#d59a2c;}.cls-5{font-size:8.71px;letter-spacing:-0.02em;}.cls-11,.cls-5,.cls-7,.cls-9{fill:#fff;}.cls-5,.cls-8{font-family:Hind-SemiBold, Hind;font-weight:700;}.cls-6,.cls-7{stroke:#fff;stroke-width:0.75px;}.cls-8{font-size:13.06px;fill:#1d1d1b;}.cls-10{stroke:#dadada;stroke-width:13px;}.cls-11{opacity:0.07;}</style>
    <clipPath
       id="clip-path">
      <circle
         class="cls-1"
         cx="45.360001"
         cy="42.209999"
         r="41.099998"
         id="circle4"
         style="fill:none" />
    </clipPath>
    <clipPath
       clipPathUnits="userSpaceOnUse"
       id="clipPath7089">
      <ellipse
         style="display:inline;opacity:1;vector-effect:none;fill:none;fill-opacity:1;stroke:#000000;stroke-width:0.01134289;stroke-linecap:butt;stroke-linejoin:miter;stroke-miterlimit:4;stroke-dasharray:none;stroke-dashoffset:0;stroke-opacity:1"
         id="ellipse7091"
         cx="44.986301"
         cy="42.407219"
         rx="48.71244"
         ry="48.711475" />
    </clipPath>
  </defs>
  <title
     id="title9">Element 272</title>
  <g
     inkscape:groupmode="layer"
     id="layer2"
     inkscape:label="button"
     transform="translate(3.8612909,6.7836351)">
    <g
       inkscape:groupmode="layer"
       id="layer4"
       inkscape:label="background">
      <circle
         style="fill:#f9b233;stroke:#706f6f;stroke-width:11.57025337px;stroke-miterlimit:10"
         id="circle11"
         r="41.409939"
         cy="42.146969"
         cx="45.069313"
         class="cls-3" />
      <path
         style="fill:#d59a2c;stroke-width:1.15702546"
         inkscape:connector-curvature="0"
         id="path13"
         d="m 66.427999,20.545305 a 27.930594,27.930594 0 0 1 2.047935,2.31405 10.066121,10.066121 0 0 1 4.0843,-1.585124 c 2.383472,1.018181 4.628101,2.140496 4.628101,2.383472 0,0.242975 -3.471077,-1.249588 -4.766945,-1.585125 a 9.7305838,9.7305838 0 0 0 -3.401655,1.35372 c -0.115702,0.347107 0,0.46281 0,0.46281 a 10.343808,10.343808 0 0 1 1.585125,0.671074 c 0.231405,0.462811 0.45124,1.81653 0.115703,2.163638 -0.115703,0.115704 -0.06942,0.161983 -0.451241,0.231405 -0.381818,0.06942 -1.666115,2.013224 -2.892562,3.239671 -1.226448,1.226447 -5.623144,0.277687 -5.623144,0.277687 0,0 0.254546,2.557026 0.335537,5.102481 0.45124,0.809919 1.029753,1.018183 2.614878,1.700828 2.834711,0.347108 5.576862,-0.06942 5.669424,0.231405 0.09256,0.300827 -5.519011,0.671075 -6.016532,0.566943 -0.497521,-0.104133 -1.700827,-0.566943 -2.950414,-0.902481 a 11.847941,11.847941 0 0 0 2.614876,3.285954 c 2.314052,0.682644 4.535541,1.365289 4.535541,1.585124 a 36.839689,36.839689 0 0 1 -4.98678,-0.671074 31.737207,31.737207 0 0 1 -2.626449,-1.990085 c 0.300827,0.87934 0.532233,2.626448 1.157027,3.228101 1.538843,1.538845 3.471076,3.066117 3.343803,3.21653 a 39.755394,39.755394 0 0 1 -4.280994,-2.857852 c -0.821489,-1.770248 -2.047936,-4.836366 -2.047936,-4.836366 h -1.203305 a 196.23152,196.23152 0 0 1 4.315704,46.581842 c -4.905787,-2.452893 -16.881,-20.548771 -8.608269,-32.188446 1.388431,-1.943803 1.527274,-14.09257 1.527274,-14.09257 a 9.0826495,9.0826495 0 0 1 -2.684299,-1.157025 2.8462825,2.8462825 0 0 1 -0.786778,0.115702 c 5.206615,11.952074 -31.239686,29.180181 -31.239686,29.180181 0,0 17.23968,-36.48101 29.15704,-31.262827 a 2.9272743,2.9272743 0 0 1 0.115703,-0.798346 9.0826495,9.0826495 0 0 1 -1.157025,-2.684299 c 0,0 -12.148767,0.138842 -14.09257,1.527272 C 22.81971,41.626308 4.7238334,29.651095 2.2825097,24.745307 a 195.80342,195.80342 0 0 1 46.5818433,4.338845 v -1.238018 c 0,0 -3.066118,-1.226446 -4.836367,-2.036364 a 39.917377,39.917377 0 0 1 -2.834711,-4.292564 c 0.150412,-0.173554 1.677686,1.81653 3.216529,3.343803 0.613224,0.613224 2.314051,0.844629 3.228101,1.157025 a 27.76861,27.76861 0 0 1 -1.978512,-2.626447 36.8744,36.8744 0 0 1 -0.694216,-4.99835 c 0.219835,0 0.90248,2.314051 1.585124,4.53554 a 11.87108,11.87108 0 0 0 3.297523,2.614877 c -0.347107,-1.249588 -0.798348,-2.383472 -0.91405,-2.950415 -0.115703,-0.566943 0.277686,-6.120663 0.566943,-6.016532 0.289255,0.104133 -0.115703,2.834713 0.231404,5.669425 0.682646,1.596695 0.89091,2.163638 1.700829,2.614877 2.545455,0.08099 5.102481,0.335537 5.102481,0.335537 0,0 -0.93719,-4.396696 0.277687,-5.623142 1.214876,-1.226448 3.181819,-2.499175 3.251241,-2.892564 0.06942,-0.393389 0.104131,-0.335538 0.219835,-0.45124 0.347108,-0.335537 1.700826,-0.115703 2.163638,0.115702 a 10.89918,10.89918 0 0 1 0.682644,1.585125 c 0,0 0.104132,0.115702 0.451239,0 a 9.7652945,9.7652945 0 0 0 1.365291,-3.401655 c -0.347108,-1.249588 -1.839671,-4.7553746 -1.596695,-4.7669446 0.242975,-0.011567 1.36529,2.3140516 2.383472,4.6281026 a 9.8925674,9.8925674 0 0 1 -1.585125,4.084299 23.823153,23.823153 0 0 1 2.279341,2.071076 z"
         class="cls-4" />
      <circle
         style="fill:none;stroke:#dadada;stroke-width:15.04133034px;stroke-miterlimit:10"
         id="circle43"
         r="41.409939"
         cy="42.146969"
         cx="45.069313"
         class="cls-10" />
    </g>
    <g
       inkscape:groupmode="layer"
       id="layer1"
       inkscape:label="content"
       style="display:inline">
      <text
         style="font-weight:700;font-size:10.07769203px;font-family:Hind-SemiBold, Hind;letter-spacing:-0.02em;fill:#ffffff;stroke-width:1.15702546"
         id="text15"
         class="cls-5"
         x="22.148638"
         y="61.584991">INJECTION</text>
      <polygon
         style="fill:none;stroke:#ffffff;stroke-width:0.75px;stroke-miterlimit:10"
         id="polygon17"
         points="42.35,23.72 54.61,32.03 51.46,36.65 39.2,28.34 "
         class="cls-6"
         transform="matrix(1.1570253,0,0,1.1570253,-10.652039,-4.6952497)" />
      <polygon
         style="fill:#ffffff;stroke:#ffffff;stroke-width:0.75px;stroke-miterlimit:10"
         id="polygon19"
         points="53.89,33.19 55.2,34.08 53.57,36.45 52.27,35.57 "
         class="cls-7"
         transform="matrix(1.1570253,0,0,1.1570253,-10.652039,-4.6952497)" />
      <polygon
         style="fill:#ffffff;stroke:#ffffff;stroke-width:0.75px;stroke-miterlimit:10"
         id="polygon21"
         points="54.94,34.55 56.66,35.72 55.63,37.22 53.91,36.06 "
         class="cls-7"
         transform="matrix(1.1570253,0,0,1.1570253,-10.652039,-4.6952497)" />
      <polygon
         style="fill:#ffffff;stroke:#ffffff;stroke-width:0.75px;stroke-miterlimit:10"
         id="polygon23"
         points="36.22,20.71 41.57,24.34 39.53,27.32 34.18,23.7 "
         class="cls-7"
         transform="matrix(1.1570253,0,0,1.1570253,-10.652039,-4.6952497)" />
      <polygon
         style="fill:#ffffff;stroke:#ffffff;stroke-width:0.75px;stroke-miterlimit:10"
         id="polygon25"
         points="42.36,22.67 42.9,23.04 38.76,29.1 38.22,28.74 "
         class="cls-7"
         transform="matrix(1.1570253,0,0,1.1570253,-10.652039,-4.6952497)" />
      <polygon
         style="fill:#ffffff;stroke:#ffffff;stroke-width:0.75px;stroke-miterlimit:10"
         id="polygon27"
         points="36.24,19.44 36.78,19.8 33.54,24.56 33,24.19 "
         class="cls-7"
         transform="matrix(1.1570253,0,0,1.1570253,-10.652039,-4.6952497)" />
      <line
         style="fill:#ffffff;stroke:#ffffff;stroke-width:0.86776906px;stroke-miterlimit:10"
         id="line29"
         y2="43.194031"
         x2="62.726513"
         y1="37.489895"
         x1="54.395935"
         class="cls-7" />
      <line
         style="fill:#ffffff;stroke:#ffffff;stroke-width:0.86776906px;stroke-miterlimit:10"
         id="line31"
         y2="28.256834"
         x2="41.645515"
         y1="31.322948"
         x1="39.53973"
         class="cls-7" />
      <line
         style="fill:#ffffff;stroke:#ffffff;stroke-width:0.86776906px;stroke-miterlimit:10"
         id="line33"
         y2="28.823776"
         x2="42.478573"
         y1="31.901461"
         x1="40.372787"
         class="cls-7" />
      <line
         style="fill:#ffffff;stroke:#ffffff;stroke-width:0.86776906px;stroke-miterlimit:10"
         id="line35"
         y2="29.471712"
         x2="43.415764"
         y1="32.537827"
         x1="41.309978"
         class="cls-7" />
      <line
         style="fill:#ffffff;stroke:#ffffff;stroke-width:0.86776906px;stroke-miterlimit:10"
         id="line37"
         y2="30.038654"
         x2="44.248821"
         y1="33.116337"
         x1="42.143036"
         class="cls-7" />
      <text
         style="font-weight:700;font-size:15.11075211px;font-family:Hind-SemiBold, Hind;fill:#1d1d1b;stroke-width:1.15702546"
         id="text41"
         class="cls-8"
         x="22.472605"
         y="53.034576">No<tspan
   style="fill:#ffffff;stroke-width:1.15702546"
   id="tspan39"
   y="53.034576"
   x="41.401543"
   class="cls-9">SQL</tspan>
</text>
    </g>
    <g
       inkscape:groupmode="layer"
       id="layer3"
       inkscape:label="gleam">
      <path
         style="opacity:0.15;fill:#ffffff;stroke-width:1.21019423"
         inkscape:connector-curvature="0"
         id="path45"
         d="M 65.259916,75.964841 A 51.227517,51.227517 0 0 1 22.975735,-4.1984185 51.23962,51.23962 0 1 0 84.368882,72.261648 50.93707,50.93707 0 0 1 65.259916,75.964841 Z"
         class="cls-11"
         clip-path="url(#clipPath7089)" />
    </g>
  </g>
</svg>
