<?xml version="1.0" encoding="UTF-8" standalone="no"?>
<svg
   xmlns:dc="http://purl.org/dc/elements/1.1/"
   xmlns:cc="http://creativecommons.org/ns#"
   xmlns:rdf="http://www.w3.org/1999/02/22-rdf-syntax-ns#"
   xmlns:svg="http://www.w3.org/2000/svg"
   xmlns="http://www.w3.org/2000/svg"
   xmlns:sodipodi="http://sodipodi.sourceforge.net/DTD/sodipodi-0.dtd"
   xmlns:inkscape="http://www.inkscape.org/namespaces/inkscape"
   inkscape:version="1.0beta2 (2b71d25, 2019-12-03)"
   sodipodi:docname="oauth2_1.svg"
   id="svg22"
   version="1.1"
   viewBox="0 0 81.44 81.44">
  <metadata
     id="metadata26">
    <rdf:RDF>
      <cc:Work
         rdf:about="">
        <dc:format>image/svg+xml</dc:format>
        <dc:type
           rdf:resource="http://purl.org/dc/dcmitype/StillImage" />
        <dc:title>Element 280</dc:title>
      </cc:Work>
    </rdf:RDF>
  </metadata>
  <sodipodi:namedview
     inkscape:document-rotation="0"
     inkscape:current-layer="layer2"
     inkscape:window-maximized="1"
     inkscape:window-y="23"
     inkscape:window-x="0"
     inkscape:cy="45.365279"
     inkscape:cx="41.942451"
     inkscape:zoom="7.0316759"
     showgrid="false"
     id="namedview24"
     inkscape:window-height="949"
     inkscape:window-width="1680"
     inkscape:pageshadow="2"
     inkscape:pageopacity="0"
     guidetolerance="10"
     gridtolerance="10"
     objecttolerance="10"
     borderopacity="1"
     bordercolor="#666666"
     pagecolor="#ffffff" />
  <defs
     id="defs4">
    <style
       id="style2">.cls-1{fill:#374370;stroke:#374370;stroke-miterlimit:10;stroke-width:10px;}.cls-2{fill:#222948;}.cls-3,.cls-4{fill:#fff;}.cls-4{font-size:12.17px;font-family:Hind-SemiBold, Hind;font-weight:700;letter-spacing:-0.01em;}</style>
  </defs>
  <title
     id="title6">Element 280</title>
  <g
     inkscape:label="background"
     id="layer2"
     inkscape:groupmode="layer">
    <circle
       style="fill:#3743b8;stroke:#374370;stroke-width:10px;stroke-miterlimit:10;fill-opacity:1"
       id="circle8"
       r="35.720001"
       cy="40.720001"
       cx="40.720001"
       class="cls-1" />
    <path
       class="cls-9"
       d="m 61.283146,67.28628 a 42.43,42.43 0 0 1 -35,-66.3999999 42.44,42.44 0 1 0 50.830004,63.3399999 42.34,42.34 0 0 1 -15.830004,3.06 z"
       id="path1082"
       inkscape:connector-curvature="0"
       style="opacity:0.12999998;fill:#ffffff" />
  </g>
  <path
     style="fill:#222948"
     inkscape:connector-curvature="0"
     id="path10"
     d="M 58.77,22.46 A 19.71,19.71 0 0 1 60.5,24.38 8.4,8.4 0 0 1 64,23 c 2,0.86 3.94,1.8 3.94,2 0,0.2 -3,-1.05 -4,-1.34 A 8.08,8.08 0 0 0 61,24.86 c -0.1,0.29 0,0.38 0,0.38 a 8.67,8.67 0 0 1 1.34,0.58 c 0.2,0.38 0.39,1.53 0.1,1.82 -0.1,0.1 -0.06,0.14 -0.38,0.19 -0.32,0.05 -1.41,1.71 -2.44,2.74 -1.03,1.03 -4.76,0.24 -4.76,0.24 0,0 0.22,2.16 0.29,4.31 0.38,0.68 0.86,0.86 2.21,1.44 2.39,0.29 4.71,-0.06 4.79,0.19 0.08,0.25 -4.66,0.57 -5.08,0.48 -0.42,-0.09 -1.44,-0.48 -2.5,-0.77 a 10.19,10.19 0 0 0 2.21,2.79 17.63,17.63 0 0 1 3.84,1.34 A 32.17,32.17 0 0 1 56.38,40 21.45,21.45 0 0 1 54.16,38.32 c 0.25,0.75 0.45,2.22 1,2.74 1.29,1.29 3,2.59 2.82,2.71 a 33.82,33.82 0 0 1 -3.62,-2.39 c -0.68,-1.5 -1.72,-4.09 -1.72,-4.09 h -1 A 165.72,165.72 0 0 1 55.3,76.64 C 51.08,74.58 41,59.3 48,49.46 c 1.17,-1.64 1.3,-11.9 1.3,-11.9 a 7.75,7.75 0 0 1 -2.27,-1 2.92,2.92 0 0 1 -0.67,0.1 c 4.4,10.09 -26.38,24.65 -26.38,24.65 0,0 14.5,-30.78 24.6,-26.38 a 2.75,2.75 0 0 1 0.09,-0.67 8,8 0 0 1 -1,-2.27 c 0,0 -10.26,0.12 -11.91,1.29 -9.83,7 -25.12,-3.13 -27.19,-7.27 a 166.08,166.08 0 0 1 39.36,3.65 v -1 c 0,0 -2.59,-1 -4.09,-1.72 a 34.41,34.41 0 0 1 -2.4,-3.62 c 0.13,-0.15 1.42,1.53 2.72,2.83 0.51,0.51 2,0.71 2.73,1 a 26,26 0 0 1 -1.68,-2.21 30.53,30.53 0 0 1 -0.57,-4.22 c 0.19,0 0.76,1.92 1.34,3.83 a 9.84,9.84 0 0 0 2.78,2.21 c -0.29,-1.05 -0.67,-2 -0.77,-2.49 -0.1,-0.49 0.23,-5.17 0.48,-5.09 0.25,0.08 -0.09,2.4 0.19,4.8 0.58,1.34 0.76,1.83 1.44,2.21 2.15,0.06 4.32,0.28 4.32,0.28 0,0 -0.8,-3.72 0.23,-4.75 1.03,-1.03 2.69,-2.11 2.74,-2.44 0.05,-0.33 0.1,-0.29 0.19,-0.38 0.29,-0.29 1.44,-0.1 1.83,0.09 A 9.33,9.33 0 0 1 56,20.25 c 0,0 0.1,0.1 0.39,0 a 8.3,8.3 0 0 0 1.15,-2.87 c -0.29,-1.06 -1.56,-4 -1.35,-4 0.21,0 1.16,1.92 2,3.93 a 8.4,8.4 0 0 1 -1.34,3.45 17,17 0 0 1 1.92,1.7 z"
     class="cls-2" />
  <path
     style="fill:#ffffff"
     inkscape:connector-curvature="0"
     id="path12"
     d="M 39.4,33.68 A 5.69,5.69 0 1 1 45.09,28 5.69,5.69 0 0 1 39.4,33.68 m 0,-8.53 A 2.85,2.85 0 1 0 42.25,28 2.85,2.85 0 0 0 39.4,25.15"
     class="cls-3" />
  <path
     style="fill:#ffffff"
     inkscape:connector-curvature="0"
     id="path14"
     d="M 50.77,45 H 28 v -1.38 c 0,-5 4.67,-8.52 11.36,-8.52 6.69,0 11.37,3.5 11.37,8.52 z M 31.11,42.2 H 47.7 c -0.85,-2.57 -4,-4.26 -8.29,-4.26 -4.29,0 -7.41,1.69 -8.3,4.26"
     class="cls-3" />
  <polygon
     style="fill:#ffffff"
     id="polygon16"
     points="58.28,18.47 60.29,20.48 52.19,28.58 46.92,23.32 48.93,21.31 52.19,24.57 "
     class="cls-3" />
  <text
     y="56.758995"
     x="15.352468"
     style="font-weight:700;font-size:10.9423px;font-family:Hind-SemiBold, Hind;letter-spacing:-0.01em;fill:#ffffff;stroke-width:0.899117"
     id="text18"
     class="cls-4">OAUTH 2.1</text>
  <g
     inkscape:label="topincs"
     id="layer1"
     inkscape:groupmode="layer" />
</svg>
