<?xml version="1.0" encoding="UTF-8" standalone="no"?>
<!-- Created with Inkscape (http://www.inkscape.org/) -->

<svg
   xmlns:dc="http://purl.org/dc/elements/1.1/"
   xmlns:cc="http://creativecommons.org/ns#"
   xmlns:rdf="http://www.w3.org/1999/02/22-rdf-syntax-ns#"
   xmlns:svg="http://www.w3.org/2000/svg"
   xmlns="http://www.w3.org/2000/svg"
   xmlns:sodipodi="http://sodipodi.sourceforge.net/DTD/sodipodi-0.dtd"
   xmlns:inkscape="http://www.inkscape.org/namespaces/inkscape"
   width="25.780001mm"
   height="25.782288mm"
   viewBox="0 0 25.780001 25.782287"
   version="1.1"
   id="svg1709"
   inkscape:version="0.92.3 (2405546, 2018-03-11)"
   sodipodi:docname="opensource_security.svg">
  <defs
     id="defs1703" />
  <sodipodi:namedview
     id="base"
     pagecolor="#ffffff"
     bordercolor="#666666"
     borderopacity="1.0"
     inkscape:pageopacity="0.0"
     inkscape:pageshadow="2"
     inkscape:zoom="5.6568542"
     inkscape:cx="-5.5460905"
     inkscape:cy="67.627498"
     inkscape:document-units="mm"
     inkscape:current-layer="layer1"
     showgrid="false"
     fit-margin-top="0"
     fit-margin-left="0"
     fit-margin-right="0"
     fit-margin-bottom="0"
     inkscape:window-width="1841"
     inkscape:window-height="983"
     inkscape:window-x="79"
     inkscape:window-y="27"
     inkscape:window-maximized="1"
     inkscape:snap-text-baseline="true" />
  <metadata
     id="metadata1706">
    <rdf:RDF>
      <cc:Work
         rdf:about="">
        <dc:format>image/svg+xml</dc:format>
        <dc:type
           rdf:resource="http://purl.org/dc/dcmitype/StillImage" />
        <dc:title></dc:title>
      </cc:Work>
    </rdf:RDF>
  </metadata>
  <g
     inkscape:label="Layer 1"
     inkscape:groupmode="layer"
     id="layer1"
     transform="translate(-76.097877,-100.99011)">
    <circle
       class="cls-4"
       cx="88.987877"
       cy="113.88011"
       r="12.889999"
       id="circle129-7"
       style="display:inline;fill:#2ca02c;fill-opacity:1;stroke:#dadada;stroke-width:0;stroke-miterlimit:10;stroke-dasharray:none;stroke-opacity:1" />
    <flowRoot
       xml:space="preserve"
       id="flowRoot7071"
       style="font-style:normal;font-weight:normal;font-size:40px;line-height:1.25;font-family:sans-serif;letter-spacing:0px;word-spacing:0px;fill:#000000;fill-opacity:1;stroke:none"
       transform="matrix(0.26458333,0,0,0.26458333,76.098697,100.99309)"><flowRegion
         id="flowRegion7073"><rect
           id="rect7075"
           width="135.5"
           height="60"
           x="86"
           y="-64.564156" /></flowRegion><flowPara
         id="flowPara7077" /></flowRoot>    <flowRoot
       xml:space="preserve"
       id="flowRoot7091"
       style="font-style:normal;font-weight:normal;font-size:10.66666698px;line-height:1.25;font-family:sans-serif;letter-spacing:0px;word-spacing:0px;fill:#000000;fill-opacity:1;stroke:none"><flowRegion
         id="flowRegion7093"><rect
           id="rect7095"
           width="19.26866"
           height="18.031223"
           x="53.209785"
           y="86.122139" /></flowRegion><flowPara
         id="flowPara7097" /></flowRoot>    <path
       class="cls-5"
       d="m 106.08657,150.08769 a 4.8376628,4.8376628 0 0 1 0.53787,0.60707 2.6578838,2.6578838 0 0 1 1.09461,-0.42463 c 0.62908,0.27365 1.25817,0.56932 1.25817,0.62908 0,0.0598 -0.94363,-0.33656 -1.27704,-0.42778 a 2.5666665,2.5666665 0 0 0 -0.90903,0.36487 c -0.0315,0.0912 0,0.12267 0,0.12267 a 2.7082107,2.7082107 0 0 1 0.42463,0.18244 c 0.0598,0.11953 0.11953,0.48439 0.0314,0.57561 -0.0314,0.0315 -0.0189,0.044 -0.12267,0.0629 -0.1038,0.0189 -0.44351,0.53787 -0.77378,0.86814 -0.33027,0.33027 -1.50665,0.0723 -1.50665,0.0723 0,0 0.0692,0.6857 0.0912,1.36825 0.11952,0.21704 0.27365,0.27365 0.69828,0.45609 0.76119,0.0912 1.49408,-0.0189 1.52238,0.0598 0.0283,0.0786 -1.47834,0.1793 -1.61045,0.15098 -0.13211,-0.0283 -0.45609,-0.15098 -0.79265,-0.24219 a 3.1454246,3.1454246 0 0 0 0.70143,0.88071 c 0.60707,0.18244 1.21413,0.36488 1.21413,0.42779 a 10.25723,10.25723 0 0 1 -1.3368,-0.18244 7.8446892,7.8446892 0 0 1 -0.70143,-0.53156 c 0.0786,0.23275 0.14154,0.70143 0.31454,0.86498 0.41205,0.4089 0.94363,0.82095 0.89645,0.85871 a 10.505718,10.505718 0 0 1 -1.14808,-0.75805 c -0.21703,-0.47496 -0.54416,-1.29592 -0.54416,-1.29592 h -0.31454 a 52.475119,52.475119 0 0 1 1.15751,12.46847 c -1.31164,-0.65739 -4.51997,-5.49821 -2.30559,-8.61533 0.37116,-0.51899 0.41205,-3.7745 0.41205,-3.7745 a 2.4848854,2.4848854 0 0 1 -0.7203,-0.31454 0.88386433,0.88386433 0 0 1 -0.21075,0.0283 c 1.39343,3.1989 -8.357393,7.81009 -8.357393,7.81009 0,0 4.58288,-9.73823 7.781783,-8.34167 a 0.88700972,0.88700972 0 0 1 0.0283,-0.21388 2.4848854,2.4848854 0 0 1 -0.31454,-0.72031 c 0,0 -3.249223,0.0409 -3.774513,0.41205 -3.11712,2.20178 -7.957931,-0.99396 -8.61532,-2.3056 a 52.670136,52.670136 0 0 1 12.471613,1.16695 V 152.063 c 0,0 -0.82096,-0.33027 -1.29592,-0.5473 a 10.505718,10.505718 0 0 1 -0.758043,-1.14809 c 0.0377,-0.0472 0.44979,0.4844 0.858703,0.89645 0.16356,0.16356 0.62908,0.22647 0.86813,0.31454 a 7.3005304,7.3005304 0 0 1 -0.53472,-0.70143 9.7508163,9.7508163 0 0 1 -0.19187,-1.36826 c 0.0598,0 0.2422,0.60707 0.42463,1.21728 a 3.1863152,3.1863152 0 0 0 0.8933,0.70772 c -0.0912,-0.33656 -0.21389,-0.62908 -0.24219,-0.7895 -0.0283,-0.16041 0.0724,-1.63876 0.15098,-1.61045 0.0786,0.0283 -0.0315,0.75804 0.0598,1.51923 0.18243,0.42464 0.24219,0.57876 0.45608,0.69829 0.68256,0.022 1.36826,0.0912 1.36826,0.0912 0,0 -0.25478,-1.17954 0.0755,-1.50666 0.33027,-0.32713 0.84927,-0.66998 0.86499,-0.77378 0.0157,-0.10379 0.0314,-0.0912 0.0629,-0.11952 0.0912,-0.0912 0.45609,-0.0315 0.57562,0.0283 a 2.8466092,2.8466092 0 0 1 0.18243,0.42463 c 0,0 0.0314,0.0315 0.12267,0 a 2.5666665,2.5666665 0 0 0 0.35229,-0.91846 c -0.0912,-0.33656 -0.49383,-1.27391 -0.42463,-1.27705 0.0692,-0.003 0.36172,0.60707 0.62909,1.25817 a 2.6421567,2.6421567 0 0 1 -0.40576,1.08832 4.8376628,4.8376628 0 0 1 0.60706,0.54101 z"
       id="path131-3"
       inkscape:connector-curvature="0"
       style="display:inline;fill:#217821;fill-opacity:1;stroke-width:0.31454244"
       clip-path="none"
       transform="translate(-10.810139,-42.524551)" />
    <path
       style="display:inline;opacity:0.15;fill:#ffffff;stroke-width:0.31454244"
       d="m 83.291381,102.37078 a 13.383781,13.383781 0 0 0 -0.543637,0.25063 12.8895,12.889499 0 0 0 -6.648689,11.26133 12.8895,12.889499 0 0 0 12.889652,12.88966 12.8895,12.889499 0 0 0 9.406661,-4.10105 13.346037,13.346037 0 0 1 -4.057116,0.64131 13.380636,13.380636 0 0 1 -11.046871,-20.94188 z"
       id="path133-3-3"
       inkscape:connector-curvature="0" />
    <flowRoot
       xml:space="preserve"
       id="flowRoot7081"
       style="font-style:normal;font-weight:normal;font-size:10.66666698px;line-height:1.25;font-family:sans-serif;text-align:center;letter-spacing:0px;word-spacing:0px;text-anchor:middle;opacity:0.99199997;fill:#000000;fill-opacity:1;stroke:none"
       transform="matrix(0.26458333,0,0,0.26458333,72.493535,99.075431)"><flowRegion
         id="flowRegion7083"
         style="text-align:center;text-anchor:middle"><rect
           id="rect7085"
           width="88.741898"
           height="43.663849"
           x="18.031223"
           y="62.96439"
           style="text-align:center;text-anchor:middle" /></flowRegion><flowPara
         id="flowPara7087"
         style="font-size:12px;line-height:0px;opacity:0.98999999;fill:#ffffff;fill-opacity:1"><flowSpan
   style="font-style:normal;font-variant:normal;font-weight:bold;font-stretch:normal;font-size:12px;line-height:0px;font-family:sans-serif;-inkscape-font-specification:'sans-serif Bold';fill:#ffffff;fill-opacity:1"
   id="flowSpan7099">open</flowSpan> source</flowPara><flowPara
         id="flowPara7089"
         style="font-size:12px;line-height:0px;opacity:0.98999999;fill:#ffffff;fill-opacity:1">security</flowPara></flowRoot>  </g>
  <g
     inkscape:groupmode="layer"
     id="layer2"
     inkscape:label="Layer 2"
     transform="translate(8.1999512e-4,0.0029764)">
    <g
       id="g7148"
       transform="translate(-0.65767991)">
      <path
         sodipodi:nodetypes="ccsssssscssssccccscccccccccc"
         inkscape:connector-curvature="0"
         id="path7109"
         d="m 11.291267,14.084552 c -0.128998,-0.0362 -0.324999,-0.12135 -0.588551,-0.25576 -1.7117684,-0.87298 -2.9121684,-2.50478 -3.2401494,-4.4046104 -0.387602,-2.24516 0.516653,-4.52754 2.339005,-5.90374 0.8591934,-0.64886 1.8460244,-1.04689 2.9514224,-1.19044 0.371416,-0.0482 1.099309,-0.0477 1.465228,7.3e-4 1.991381,0.26523 3.668072,1.40272 4.615459,3.13119 0.34825,0.63538 0.570823,1.30467 0.693155,2.08439 0.05373,0.34228 0.0652,1.11417 0.02222,1.4897 -0.198421,1.7326504 -1.054178,3.2289904 -2.435992,4.2594404 -0.516373,0.38507 -1.308731,0.79717 -1.532772,0.79717 -0.17973,0 -0.145665,0.072 -0.910421,-1.92244 -0.387733,-1.01115 -0.692914,-1.83653 -0.692914,-1.874 0,-0.13227 0.03875,-0.17245 0.283252,-0.29352 0.473499,-0.2344504 0.822752,-0.6633404 0.95803,-1.1764604 0.06433,-0.24403 0.06382,-0.62785 -0.0015,-0.87075 -0.187097,-0.69966 -0.756007,-1.22063 -1.455682,-1.33302 -0.197361,-0.0317 -0.559911,-0.0159 -0.739164,0.0322 -0.19524,0.0524 -0.530956,0.2258 -0.685406,0.35398 -0.270716,0.22466 -0.487996,0.55951 -0.588097,0.90628 -0.06302,0.21828 -0.06886,0.69834 -0.01112,0.90875 0.08899,0.32416 0.207769,0.54135 0.422388,0.77233 0.169598,0.18252 0.333961,0.30401 0.573259,0.4237204 0.192016,0.0961 0.24717,0.15862 0.244071,0.27685 -0.0022,0.0767 -1.339696,3.60461 -1.406238,3.70863 -0.02478,0.0387 -0.15084,0.11384 -0.179502,0.10698 -0.0029,-7.3e-4 -0.04839,-0.0133 -0.100336,-0.0279 z"
         style="opacity:1;fill:#3da639;fill-opacity:1;stroke-width:0.02098174" />
      <g
         transform="matrix(0.46754169,0,0,0.46754169,-20.802243,-51.54781)"
         id="g7038">
        <path
           inkscape:connector-curvature="0"
           id="path7042"
           d="m 85.053815,140.59287 c -0.573715,-0.15642 -0.986868,-0.84767 -0.860057,-1.43897 0.06309,-0.29419 0.137623,-0.43244 0.34404,-0.63818 0.25739,-0.25653 0.515985,-0.36341 0.879342,-0.36341 0.673,0 1.18696,0.47041 1.24787,1.14214 0.0785,0.86541 -0.75017,1.53319 -1.611195,1.29842 z m 0.788975,-0.28408 c 0.36097,-0.14899 0.65095,-0.67046 0.5825,-1.0475 -0.17277,-0.9516 -1.365115,-1.19211 -1.856132,-0.3744 -0.507042,0.84439 0.351263,1.80262 1.273632,1.4219 z m -0.859475,-0.3987 c -0.01242,-0.0324 -0.01686,-0.31133 -0.0099,-0.61991 l 0.01273,-0.56105 0.278295,-0.0133 c 0.173533,-0.008 0.339002,0.012 0.439572,0.054 0.146179,0.0611 0.161279,0.084 0.161279,0.24451 0,0.10243 -0.0285,0.20078 -0.0676,0.23324 -0.07726,0.0641 -0.0898,0.20639 -0.0219,0.24836 0.08917,0.0551 0.23373,0.39191 0.187889,0.43775 -0.0722,0.0722 -0.220014,-0.003 -0.27736,-0.14186 -0.07916,-0.19112 -0.215848,-0.31883 -0.34123,-0.31883 -0.100681,0 -0.110956,0.018 -0.110956,0.19386 0,0.19632 -0.0589,0.30207 -0.168225,0.30207 -0.03301,0 -0.07019,-0.0265 -0.08261,-0.0589 z m 0.58575,-0.68825 c 0.03897,-0.039 0.07085,-0.0984 0.07085,-0.13204 0,-0.10504 -0.141109,-0.20841 -0.264903,-0.19405 -0.09233,0.0107 -0.121528,0.0418 -0.132947,0.14151 -0.008,0.0703 -0.0036,0.15651 0.0099,0.19161 0.03282,0.0855 0.228943,0.0812 0.317148,-0.007 z m -16.925961,1.15574 c -0.584499,-0.19571 -1.728007,-0.78772 -2.47964,-1.28375 -4.600815,-3.03627 -6.788919,-8.6255 -5.475766,-13.98714 0.569806,-2.32653 1.703269,-4.34578 3.401885,-6.06041 2.987049,-3.01522 7.17831,-4.37402 11.378265,-3.68881 2.450521,0.39979 4.854944,1.56885 6.686658,3.25114 2.328102,2.13819 3.774974,4.99394 4.144274,8.17973 0.10047,0.86668 0.0659,2.59034 -0.0686,3.41644 -0.37378,2.29653 -1.274615,4.34544 -2.707216,6.15742 -0.436848,0.55253 -1.436951,1.55951 -1.985737,1.9994 -1.002258,0.80336 -2.446774,1.63707 -3.45358,1.99325 -0.196559,0.0695 -0.250385,0.073 -0.369748,0.0235 -0.07684,-0.0318 -0.168222,-0.10146 -0.203082,-0.15474 -0.143132,-0.21879 -3.006752,-7.76751 -3.006752,-7.92604 0,-0.22174 0.09846,-0.32408 0.495929,-0.51549 0.451712,-0.21753 0.817157,-0.48464 1.174959,-0.85881 0.482352,-0.50442 0.710976,-0.88909 0.917113,-1.54309 0.295984,-0.93905 0.225738,-1.94596 -0.197821,-2.83555 -0.331415,-0.69605 -0.739268,-1.17326 -1.354403,-1.58472 -1.594676,-1.06666 -3.697933,-0.84797 -5.005967,0.5205 -0.801502,0.83854 -1.177092,1.84027 -1.110196,2.96098 0.08446,1.41497 0.878387,2.62177 2.156841,3.27846 0.458173,0.23535 0.624243,0.38732 0.624243,0.57125 0,0.1778 -2.966765,7.86702 -3.079364,7.98106 -0.113862,0.11531 -0.318882,0.16012 -0.482302,0.1054 z m 1.213237,-4.40002 c 0.699857,-1.82332 1.266031,-3.34777 1.258165,-3.38767 -0.0079,-0.0399 -0.145732,-0.15242 -0.306367,-0.25004 -0.564165,-0.34287 -1.136628,-0.89698 -1.517964,-1.46931 -0.763796,-1.14634 -0.988284,-2.7528 -0.571217,-4.0877 0.529282,-1.69407 1.836975,-2.87911 3.666149,-3.32232 0.159439,-0.0386 0.51354,-0.0587 0.991856,-0.0563 0.662097,0.003 0.793291,0.0173 1.19315,0.12635 1.375026,0.37511 2.478012,1.27185 3.103002,2.52279 1.094237,2.19014 0.369559,4.86757 -1.680951,6.21052 -0.392021,0.25675 -0.451954,0.30305 -0.448958,0.3468 0.0012,0.0176 0.575276,1.52321 1.27571,3.34574 1.105558,2.87667 1.286314,3.31556 1.37054,3.3278 0.134922,0.0196 1.142884,-0.50204 1.792367,-0.9276 0.752482,-0.49305 1.346904,-0.98495 2.009239,-1.66269 0.992269,-1.01534 1.610692,-1.88853 2.230623,-3.14952 0.55752,-1.13405 0.920809,-2.28302 1.126978,-3.56427 0.09917,-0.61629 0.136261,-2.16984 0.06904,-2.89135 -0.293078,-3.14553 -1.846244,-6.11874 -4.247378,-8.13072 -3.541809,-2.96778 -8.345341,-3.69005 -12.594843,-1.89378 -2.809345,1.18752 -5.193972,3.57636 -6.392463,6.40376 -0.412461,0.97305 -0.711481,2.06302 -0.871969,3.17845 -0.09526,0.66206 -0.107452,2.30715 -0.02206,2.97557 0.353614,2.76783 1.56279,5.24797 3.495346,7.1693 0.644681,0.64094 1.108216,1.0199 1.878059,1.5354 0.631978,0.42319 1.651877,0.96589 1.815186,0.96589 0.09917,0 0.191601,-0.22225 1.37876,-3.31512 z"
           style="fill:#ffffff;fill-opacity:1;stroke:none;stroke-width:0.04508437;stroke-opacity:1" />
      </g>
    </g>
  </g>
</svg>
