<svg xmlns="http://www.w3.org/2000/svg" xmlns:xlink="http://www.w3.org/1999/xlink" viewBox="0 0 101.3 88.29"><defs><style>.cls-1{fill:none;}.cls-2{clip-path:url(#clip-path);}.cls-3{fill:#5469af;stroke:#5469af;stroke-miterlimit:10;stroke-width:10px;}.cls-4{fill:#304871;}.cls-5,.cls-7{font-size:8.63px;}.cls-5,.cls-6,.cls-7,.cls-8{fill:#fff;}.cls-5,.cls-7,.cls-8{font-family:Hind-SemiBold, Hind;font-weight:700;}.cls-6{opacity:0.07;}.cls-7{letter-spacing:-0.07em;}.cls-8{font-size:56.68px;letter-spacing:-0.1em;}</style><clipPath id="clip-path"><circle class="cls-1" cx="59.52" cy="41.95" r="41.1"/></clipPath></defs><title>Element 281</title><g id="Ebene_2" data-name="Ebene 2"><g id="Ebene_2-2" data-name="Ebene 2"><g class="cls-2"><circle class="cls-3" cx="59.45" cy="41.85" r="36.85"/><path class="cls-4" d="M77.38,23.73a22.69,22.69,0,0,1,1.71,1.9,8.39,8.39,0,0,1,3.43-1.33c2,.86,3.91,1.79,3.9,2s-3-1.05-4-1.33a8.22,8.22,0,0,0-2.86,1.14c-.09.28,0,.38,0,.38a9.33,9.33,0,0,1,1.34.57c.19.38.38,1.52.09,1.81-.09.09,0,.14-.38.19s-1.39,1.69-2.42,2.72-4.72.23-4.72.23.22,2.15.29,4.29c.37.67.85.85,2.19,1.42,2.38.29,4.67-.06,4.76.19s-4.63.56-5,.48-1.43-.48-2.47-.76a9.81,9.81,0,0,0,2.19,2.76,17.58,17.58,0,0,1,3.8,1.33A31.55,31.55,0,0,1,75,41.15a21.08,21.08,0,0,1-2.2-1.67c.24.74.44,2.2,1,2.72,1.28,1.28,2.95,2.57,2.8,2.69A33.84,33.84,0,0,1,73,42.51c-.69-1.48-1.71-4-1.71-4h-1a164.55,164.55,0,0,1,3.62,39.06c-4.11-2.06-14.15-17.23-7.22-27,1.16-1.63,1.29-11.82,1.29-11.82a7.88,7.88,0,0,1-2.25-1,2.92,2.92,0,0,1-.67.1c4.37,10-26.18,24.46-26.18,24.46S53.27,31.74,63.29,36.1a2.68,2.68,0,0,1,.09-.66,8,8,0,0,1-1-2.25s-10.18.12-11.82,1.28c-9.76,6.94-24.93-3.11-27-7.22a164.64,164.64,0,0,1,39.06,3.62v-1s-2.57-1-4.06-1.71a34,34,0,0,1-2.38-3.6c.13-.14,1.41,1.52,2.7,2.81.51.51,2,.71,2.71,1A23.85,23.85,0,0,1,60,26.11a31.69,31.69,0,0,1-.57-4.19c.19,0,.76,1.9,1.33,3.81a9.88,9.88,0,0,0,2.77,2.19c-.29-1.05-.67-2-.77-2.48s.23-5.13.48-5-.1,2.38.19,4.76c.57,1.33.75,1.81,1.43,2.19,2.13.06,4.28.28,4.28.28s-.79-3.69.24-4.72S72,20.82,72,20.49s.1-.28.19-.38c.29-.28,1.43-.09,1.81.1a7.9,7.9,0,0,1,.57,1.33s.1.09.38,0a8.07,8.07,0,0,0,1.15-2.86c-.29-1-1.54-4-1.34-4s1.15,1.91,2,3.91A8.41,8.41,0,0,1,75.47,22,19.5,19.5,0,0,1,77.38,23.73Z"/><text class="cls-5" transform="translate(27.33 52.3)">OWASP</text><path class="cls-6" d="M75.64,70.8A41.95,41.95,0,0,1,41,5.18,41.94,41.94,0,1,0,91.28,67.77,41.69,41.69,0,0,1,75.64,70.8Z"/><text class="cls-7" transform="translate(43.14 60.62)">TOP </text><text class="cls-8" transform="translate(56.73 60.63) scale(0.93 1)">10</text></g></g></g></svg>