<?xml version="1.0" encoding="UTF-8" standalone="no"?>
<svg
   xmlns:dc="http://purl.org/dc/elements/1.1/"
   xmlns:cc="http://creativecommons.org/ns#"
   xmlns:rdf="http://www.w3.org/1999/02/22-rdf-syntax-ns#"
   xmlns:svg="http://www.w3.org/2000/svg"
   xmlns="http://www.w3.org/2000/svg"
   xmlns:sodipodi="http://sodipodi.sourceforge.net/DTD/sodipodi-0.dtd"
   xmlns:inkscape="http://www.inkscape.org/namespaces/inkscape"
   viewBox="0 0 97.402806 97.42295"
   version="1.1"
   id="svg27"
   sodipodi:docname="owasp_top10.svg"
   inkscape:version="0.92.3 (2405546, 2018-03-11)"
   width="97.402809"
   height="97.422951">
  <metadata
     id="metadata31">
    <rdf:RDF>
      <cc:Work
         rdf:about="">
        <dc:format>image/svg+xml</dc:format>
        <dc:type
           rdf:resource="http://purl.org/dc/dcmitype/StillImage" />
        <dc:title>Element 281</dc:title>
      </cc:Work>
    </rdf:RDF>
  </metadata>
  <sodipodi:namedview
     pagecolor="#ffffff"
     bordercolor="#666666"
     borderopacity="1"
     objecttolerance="10"
     gridtolerance="10"
     guidetolerance="10"
     inkscape:pageopacity="0"
     inkscape:pageshadow="2"
     inkscape:window-width="1841"
     inkscape:window-height="879"
     id="namedview29"
     showgrid="false"
     inkscape:zoom="5.3460188"
     inkscape:cx="16.854069"
     inkscape:cy="42.677589"
     inkscape:window-x="79"
     inkscape:window-y="27"
     inkscape:window-maximized="1"
     inkscape:current-layer="layer2"
     fit-margin-top="0"
     fit-margin-left="0"
     fit-margin-right="0"
     fit-margin-bottom="0" />
  <defs
     id="defs7">
    <style
       id="style2">.cls-1{fill:none;}.cls-2{clip-path:url(#clip-path);}.cls-3{fill:#5469af;stroke:#5469af;stroke-miterlimit:10;stroke-width:10px;}.cls-4{fill:#304871;}.cls-5,.cls-7{font-size:8.63px;}.cls-5,.cls-6,.cls-7,.cls-8{fill:#fff;}.cls-5,.cls-7,.cls-8{font-family:Hind-SemiBold, Hind;font-weight:700;}.cls-6{opacity:0.07;}.cls-7{letter-spacing:-0.07em;}.cls-8{font-size:56.68px;letter-spacing:-0.1em;}</style>
    <clipPath
       id="clip-path">
      <circle
         class="cls-1"
         cx="59.52"
         cy="41.950001"
         r="41.099998"
         id="circle4"
         style="fill:none" />
    </clipPath>
    <clipPath
       clipPathUnits="userSpaceOnUse"
       id="clipPath881">
      <ellipse
         style="display:inline;opacity:1;vector-effect:none;fill:none;fill-opacity:1;stroke:#000000;stroke-width:0.00973665;stroke-linecap:butt;stroke-linejoin:miter;stroke-miterlimit:4;stroke-dasharray:none;stroke-dashoffset:0;stroke-opacity:1"
         id="ellipse883"
         cx="59.504574"
         cy="41.815823"
         rx="41.814373"
         ry="41.813545" />
    </clipPath>
  </defs>
  <title
     id="title9">Element 281</title>
  <g
     inkscape:groupmode="layer"
     id="layer2"
     inkscape:label="button"
     transform="translate(-10.550557,6.9083252)">
    <g
       inkscape:groupmode="layer"
       id="layer3"
       inkscape:label="background" />
    <g
       inkscape:groupmode="layer"
       id="layer5"
       inkscape:label="content" />
    <g
       inkscape:groupmode="layer"
       id="layer4"
       inkscape:label="gleam">
      <g
         id="g879"
         transform="matrix(1.1649688,0,0,1.1649688,-10.057975,-6.9109783)"
         clip-path="url(#clipPath881)">
        <circle
           class="cls-3"
           cx="59.450001"
           cy="41.849998"
           r="36.849998"
           id="circle11"
           style="fill:#5469af;stroke:#5469af;stroke-width:10px;stroke-miterlimit:10" />
        <path
           class="cls-4"
           d="m 77.38,23.73 a 22.69,22.69 0 0 1 1.71,1.9 8.39,8.39 0 0 1 3.43,-1.33 c 2,0.86 3.91,1.79 3.9,2 -0.01,0.21 -3,-1.05 -4,-1.33 a 8.22,8.22 0 0 0 -2.86,1.14 c -0.09,0.28 0,0.38 0,0.38 a 9.33,9.33 0 0 1 1.34,0.57 c 0.19,0.38 0.38,1.52 0.09,1.81 -0.09,0.09 0,0.14 -0.38,0.19 -0.38,0.05 -1.39,1.69 -2.42,2.72 -1.03,1.03 -4.72,0.23 -4.72,0.23 0,0 0.22,2.15 0.29,4.29 0.37,0.67 0.85,0.85 2.19,1.42 2.38,0.29 4.67,-0.06 4.76,0.19 0.09,0.25 -4.63,0.56 -5,0.48 -0.37,-0.08 -1.43,-0.48 -2.47,-0.76 a 9.81,9.81 0 0 0 2.19,2.76 17.58,17.58 0 0 1 3.8,1.33 A 31.55,31.55 0 0 1 75,41.15 21.08,21.08 0 0 1 72.8,39.48 c 0.24,0.74 0.44,2.2 1,2.72 1.28,1.28 2.95,2.57 2.8,2.69 A 33.84,33.84 0 0 1 73,42.51 c -0.69,-1.48 -1.71,-4 -1.71,-4 h -1 a 164.55,164.55 0 0 1 3.62,39.06 c -4.11,-2.06 -14.15,-17.23 -7.22,-27 1.16,-1.63 1.29,-11.82 1.29,-11.82 a 7.88,7.88 0 0 1 -2.25,-1 2.92,2.92 0 0 1 -0.67,0.1 c 4.37,10 -26.18,24.46 -26.18,24.46 0,0 14.39,-30.57 24.41,-26.21 a 2.68,2.68 0 0 1 0.09,-0.66 8,8 0 0 1 -1,-2.25 c 0,0 -10.18,0.12 -11.82,1.28 -9.76,6.94 -24.93,-3.11 -27,-7.22 a 164.64,164.64 0 0 1 39.06,3.62 v -1 c 0,0 -2.57,-1 -4.06,-1.71 a 34,34 0 0 1 -2.38,-3.6 c 0.13,-0.14 1.41,1.52 2.7,2.81 0.51,0.51 2,0.71 2.71,1 A 23.85,23.85 0 0 1 60,26.11 31.69,31.69 0 0 1 59.43,21.92 c 0.19,0 0.76,1.9 1.33,3.81 a 9.88,9.88 0 0 0 2.77,2.19 c -0.29,-1.05 -0.67,-2 -0.77,-2.48 -0.1,-0.48 0.23,-5.13 0.48,-5 0.25,0.13 -0.1,2.38 0.19,4.76 0.57,1.33 0.75,1.81 1.43,2.19 2.13,0.06 4.28,0.28 4.28,0.28 0,0 -0.79,-3.69 0.24,-4.72 1.03,-1.03 2.62,-2.13 2.62,-2.46 0,-0.33 0.1,-0.28 0.19,-0.38 0.29,-0.28 1.43,-0.09 1.81,0.1 a 7.9,7.9 0 0 1 0.57,1.33 c 0,0 0.1,0.09 0.38,0 a 8.07,8.07 0 0 0 1.15,-2.86 c -0.29,-1 -1.54,-4 -1.34,-4 0.2,0 1.15,1.91 2,3.91 a 8.41,8.41 0 0 1 -1.29,3.41 19.5,19.5 0 0 1 1.91,1.73 z"
           id="path13"
           inkscape:connector-curvature="0"
           style="fill:#304871" />
        <text
           y="52.299999"
           x="27.33"
           class="cls-5"
           id="text15"
           style="font-weight:700;font-size:8.63000011px;font-family:Hind-SemiBold, Hind;fill:#ffffff">OWASP</text>
        <text
           y="60.619999"
           x="43.139999"
           class="cls-7"
           id="text19"
           style="font-weight:700;font-size:8.63000011px;font-family:Hind-SemiBold, Hind;letter-spacing:-0.07em;fill:#ffffff">TOP</text>
        <text
           y="58.469456"
           x="54.678467"
           class="cls-8"
           transform="scale(0.96436508,1.0369517)"
           id="text21"
           style="font-style:normal;font-variant:normal;font-weight:bold;font-stretch:normal;font-size:49.32666397px;font-family:Hind-SemiBold, Hind;-inkscape-font-specification:'Hind-SemiBold, Hind, Bold';font-variant-ligatures:normal;font-variant-caps:normal;font-variant-numeric:normal;font-feature-settings:normal;text-align:start;letter-spacing:-0.1em;writing-mode:lr-tb;text-anchor:start;fill:#ffffff;stroke-width:0.96436507">
          <tspan
             y="58.469456"
             x="54.678467"
             id="tspan863"
             sodipodi:role="line">1</tspan>
        </text>
        <text
           y="58.020916"
           x="71.383987"
           class="cls-8"
           transform="scale(0.96436508,1.0369517)"
           id="text21-8"
           style="font-style:normal;font-variant:normal;font-weight:bold;font-stretch:normal;font-size:49.32666397px;font-family:Hind-SemiBold, Hind;-inkscape-font-specification:'Hind-SemiBold, Hind, Bold';font-variant-ligatures:normal;font-variant-caps:normal;font-variant-numeric:normal;font-feature-settings:normal;text-align:start;letter-spacing:-0.1em;writing-mode:lr-tb;text-anchor:start;fill:#ffffff;stroke-width:0.96436507">
          <tspan
             y="58.020916"
             x="71.383987"
             id="tspan883"
             sodipodi:role="line">0</tspan>
        </text>
        <path
           class="cls-6"
           d="M 78.66277,70.960377 A 44.085418,44.085418 0 0 1 42.259459,2.0000636 44.074909,44.074909 0 1 0 95.098906,67.776138 43.812183,43.812183 0 0 1 78.66277,70.960377 Z"
           id="path17"
           inkscape:connector-curvature="0"
           style="opacity:0.15;fill:#ffffff;stroke-width:1.05090392" />
      </g>
    </g>
  </g>
</svg>
