<?xml version="1.0" encoding="UTF-8" standalone="no"?>
<!-- Generator: Adobe Illustrator 23.0.5, SVG Export Plug-In . SVG Version: 6.00 Build 0)  -->

<svg
   xmlns:dc="http://purl.org/dc/elements/1.1/"
   xmlns:cc="http://creativecommons.org/ns#"
   xmlns:rdf="http://www.w3.org/1999/02/22-rdf-syntax-ns#"
   xmlns:svg="http://www.w3.org/2000/svg"
   xmlns="http://www.w3.org/2000/svg"
   xmlns:sodipodi="http://sodipodi.sourceforge.net/DTD/sodipodi-0.dtd"
   xmlns:inkscape="http://www.inkscape.org/namespaces/inkscape"
   version="1.1"
   x="0px"
   y="0px"
   viewBox="0 0 1000 1000"
   style="enable-background:new 0 0 1000 1000;"
   xml:space="preserve"
   id="svg84"
   sodipodi:docname="sec-journey.svg"
   inkscape:version="0.92.4 (5da689c313, 2019-01-14)"><metadata
   id="metadata90"><rdf:RDF><cc:Work
       rdf:about=""><dc:format>image/svg+xml</dc:format><dc:type
         rdf:resource="http://purl.org/dc/dcmitype/StillImage" /><dc:title></dc:title></cc:Work></rdf:RDF></metadata><defs
   id="defs88" /><sodipodi:namedview
   pagecolor="#ffffff"
   bordercolor="#666666"
   borderopacity="1"
   objecttolerance="10"
   gridtolerance="10"
   guidetolerance="10"
   inkscape:pageopacity="0"
   inkscape:pageshadow="2"
   inkscape:window-width="3370"
   inkscape:window-height="1370"
   id="namedview86"
   showgrid="false"
   inkscape:zoom="1"
   inkscape:cx="296"
   inkscape:cy="453.62712"
   inkscape:window-x="2630"
   inkscape:window-y="33"
   inkscape:window-maximized="1"
   inkscape:current-layer="Object" />
<style
   type="text/css"
   id="style2">
	.st0{fill:#082C42;}
	.st1{display:none;opacity:0.2;}
	.st2{display:none;opacity:0.17;fill-rule:evenodd;clip-rule:evenodd;}
	.st3{display:none;opacity:0.15;}
	.st4{opacity:0.17;fill-rule:evenodd;clip-rule:evenodd;}
	.st5{opacity:0.34;}
	.st6{opacity:0.43;}
	.st7{fill-rule:evenodd;clip-rule:evenodd;}
	.st8{fill:#FFFFFF;}
	.st9{font-family:'Hind-Bold';}
	.st10{font-size:111.8055px;}
	.st11{font-family:'Hind-Regular';}
</style>
<g
   id="Bg">
</g>
<g
   id="Object">
	<circle
   class="st0"
   cx="500"
   cy="500"
   r="488.9"
   id="circle5"
   style="fill:#c5281c;fill-opacity:0.98039216" />
	<circle
   class="st0"
   cx="500"
   cy="500"
   r="423.3"
   id="circle7"
   style="fill:#c5281c;fill-opacity:0.94901961" />
	<path
   class="st1"
   d="M767.2,434.5c-11.7,2-23.4,4.1-35.1,6.1c-3.1,0.5-6.3,0.6-9.4,1.4c-10.9,2.8-20.8-0.3-30.6-4.9   c-5.9-2.7-12.1-4.7-20.2-7.7c5.2,9.9,9.3,18.3,14,26.3c0.9,1.6,3.7,2.4,5.8,3c15.4,5.1,30.9,10,46.3,15.1c3.4,1.1,6.5,2.9,9.7,4.4   c-0.1,0.7-0.3,1.4-0.4,2.1c-5.7-0.7-11.6-1-17.2-2.3c-14.8-3.3-29.5-6.7-44.1-10.6c-3.2-0.8-6.1-3.5-8.8-5.6   c-2.2-1.8-3.9-4.1-6.4-5.8c3.8,12.3,5.3,25.1,17.1,34c10.5,7.9,19.2,18.2,28.7,27.4c-0.5,0.7-1,1.5-1.6,2.2c-2.2-1-4.7-1.5-6.5-2.9   c-12-9.3-23.8-18.7-35.6-28.2c-1.8-1.5-2.9-3.9-4-6.1c-6.6-13.6-13.2-27.2-19.8-41c-6.4,0.1-7.8,2.3-6.7,8.7   c10.3,61.4,21.2,122.7,29.8,184.4c8.3,59.6,11.1,119.7,9.7,179.9c-0.6,24.8-3.6,49.5-6.4,74.1c-1.1,9.8-6.1,11.3-12.6,4   c-9.3-10.4-18.1-21.4-25.8-33.1c-20.5-30.9-39.5-62.9-52.5-97.7c-13.4-36.2-19.8-74.1-18.4-112.9c0.5-13.5,6-25.3,13.4-36.4   c8.7-13,17-26.3,18.9-42.3c1.8-14.8,2.7-29.7,4.1-44.5c2.4-25,4.7-49.9,7.4-74.8c0.6-5-0.9-6.4-5.3-7.9c-8.7-3-17-7.1-25.5-10.7   c0-0.1-0.3,0.6-0.1,1c10.6,18,8.1,36-0.5,53.8c-11.6,23.9-29.7,43-46.8,62.8c-50.9,59.2-114.7,101-183.5,135.9   c-24.8,12.5-50,24-75.1,36c-1.6,0.7-3.3,1.2-6.2,2.2c2.7-6.2,4.9-11.3,7.2-16.3c26.2-57.7,54.8-114.1,91.7-165.7   c32.7-45.8,73.5-83.9,118.3-117.7c12.7-9.5,26.7-16.9,43-18.8c11.4-1.3,21.8,1.2,32.2,7.3c-4.8-10.9-9.2-20.8-14.2-31.9   c-5.7,0.5-12.6,1-19.5,1.6c-33.5,3.1-67,6.2-100.5,9.4c-13,1.3-24.9,6-36,13c-1,0.6-2,1.1-2.9,1.8c-24.5,20-52.8,19.9-82.3,17   c-73.7-7.2-134.5-43.1-193.1-84.4c-5.1-3.6-9.7-8.2-13.8-12.9c-5-5.6-4.1-8.8,3.2-10.3c10.6-2.2,21.3-4.6,32.1-4.8   c40.9-0.7,81.8-1.6,122.7-0.5c31.1,0.8,62.2,3.7,93.2,7.1c33,3.7,65.8,8.7,98.5,13.9c31.6,5.1,63.1,11.2,94.6,16.9   c3.2,0.6,6.7,1.8,8.1-3.1c1.5-5-2.7-5-5.2-6.3c-7.2-3.7-14.4-7.7-22-10.5c-24.9-9.1-36.5-31.1-50.5-50.8c-0.3-0.4-0.2-1.2-0.5-3.4   c3,2,5.4,3.1,7.1,4.9c8.1,8.2,16.6,16.1,24,24.9c5.2,6.2,11,10.3,18.8,12.1c4.3,1,8.5,2.7,12.8,4.1c0.1-1.1,0.3-1.8,0.2-1.9   c-9.3-5.9-11.7-15.4-13.7-25.2c-2.9-14.4-6-28.7-9-43c-0.4-2-0.1-4.1,1.5-6.6c1.6,3.5,3.6,7,4.8,10.7c5,15,9.7,30.1,14.7,45   c0.8,2.4,2.2,5.3,4.2,6.4c7.4,4.3,15.1,7.9,23.8,12.4c-0.4-2.4-0.6-3.7-0.9-5.1c-0.1-0.7-0.3-1.3-0.7-1.9   c-13.2-22.2-11-45.7-5.8-69.5c1.4-6.2,2.7-12.5,4.1-18.7c0.8,0.1,1.6,0.2,2.5,0.3c0,8.4,0.4,16.8-0.1,25.1c-0.5,9-2,18-2.7,26.9   c-0.2,1.9,0.3,4.1,1.3,5.7c6.4,10.1,12.9,20.2,19.6,30.1c0.9,1.4,3.1,2.9,4.6,2.7c7.4-0.7,14.7-2.7,22.1-2.6   c7.1,0.1,14.2,2.2,21.9,3.5c-1.7-6.4-3.7-12.7-4.9-19.1c-4.5-23.4,3.2-39,24.1-50.3c1.4-0.8,2.7-2.3,3.3-3.8   c4.8-10.3,11.8-15.5,21.2-14.7c10.5,0.8,17.6,6.4,20.9,16.5c0.4,1.2,0.9,2.3,3.2,3.9c4.3-11.8,9.2-23.4,12.5-35.4   c1.2-4.4-0.9-10.3-3-14.9c-3.8-8.7-8.7-16.8-12.9-25.3c-0.9-1.9-0.5-4.5-0.7-6.7c2.1,1.2,4.2,2.3,6.2,3.5c0.5,0.3,0.7,1.1,1.1,1.7   c21.6,37.9,19.5,39.4,4.5,74.3c-1.1,2.4-2.2,4.9-3.3,7.5c4.7,3.3,9.6,5.8,13.4,9.6c8.3,8.5,16.3,17.4,23.9,26.6   c2.6,3.3,4.2,4.2,8.2,2.4c9.1-4,18.1-8.5,27.7-10.8c6.6-1.6,14.7-1.8,21,0.4c10.6,3.6,20.4,9.5,30.3,14.9c1.6,0.9,2.2,3.8,3.2,5.7   c-2.2-0.1-4.7,0.5-6.4-0.3c-8.7-4.2-17.2-9-25.9-13.3c-7.7-3.8-15.6-3.9-23.6-0.6c-8.6,3.6-17.3,7.1-27.8,11.5   c3.5,1.3,4.9,1.8,6.2,2.3c9.2,3.4,14.9,11.1,15.3,20.4c0.4,10.2-3.9,16.6-13.6,21.2c-1.7,0.8-3.8,2.1-4.4,3.6   c-7.9,21.3-30.5,29.3-54.4,23.5c-5-1.2-9.9-2.9-14.6-4.3c0.9,9.3,2.1,18.6,2.6,27.9c0.2,3.8-0.1,7.9-1.5,11.3   c-2.4,6,0,8.9,4.9,11.8c8.2,4.8,15.7,10.7,24,15.3c3.8,2.1,8.8,2.8,13.2,2.7c13.3-0.5,26.6-1.8,39.9-2.7c2.3-0.1,4.7,0.5,7,0.8   C767.1,432.7,767.2,433.6,767.2,434.5z"
   id="path9" />
	<g
   id="g69"
   style="fill:#008dbb;fill-opacity:1"
   transform="matrix(0.99047887,0,0,0.94375695,18.165311,6.5231284)">
		<path
   class="st2"
   d="m 499.4,283.9 c 0,0 42.1,207.8 133.1,270.7 99.5,68.9 102.2,73 102.2,73 0,0 -80.4,-31.7 -78.7,13.6 2.1,56.9 45.5,97.8 -33.4,91.6 -87.9,-6.9 -21,63.1 -104.1,55.7 -68.6,-6.1 -16.5,-92.5 -84.4,-39.4 -23.2,18.1 -28.3,46.8 -28.3,46.8 0,0 -42.6,-459.6 -20.4,-500.8 0,0.1 47.5,-33.5 114,-11.2 z"
   id="path11"
   style="clip-rule:evenodd;display:none;opacity:0.17000002;fill:#008dbb;fill-opacity:1;fill-rule:evenodd"
   inkscape:connector-curvature="0" />
		<path
   class="st3"
   d="m 332.6,467.4 -5.2,16.7 24.9,18.8 14.3,-15.7 c 0,0 7.2,-22.6 -2.7,-30.9 -9.9,-8.1 -31.3,11.1 -31.3,11.1 z"
   id="path13"
   style="display:none;opacity:0.15;fill:#008dbb;fill-opacity:1"
   inkscape:connector-curvature="0" />
		<g
   id="g25"
   style="fill:#008dbb;fill-opacity:1">
			<path
   class="st4"
   d="m 381,448.1 c 0.7,16.1 1.5,32.8 2.4,49.8 0,-1.8 -0.1,-3.6 -0.1,-5.4 0,-15.1 0,-30.2 0,-45.1 -0.8,0.2 -1.6,0.4 -2.3,0.7 z"
   id="path15"
   style="clip-rule:evenodd;opacity:0.17000002;fill:#008dbb;fill-opacity:1;fill-rule:evenodd"
   inkscape:connector-curvature="0" />
			<path
   class="st4"
   d="m 403.1,587.8 c -10,-24.7 -16.7,-49.9 -18.9,-76.1 7.8,135.8 21.6,284.3 21.6,284.3 0,0 3.9,-21.6 20,-39.2 -0.2,-3.2 -0.3,-6.4 -0.5,-9.6 -1.1,-19.9 -2.5,-39.8 -4.5,-59.6 -1.5,-15.5 -6.8,-30.7 -10.3,-46 -0.7,-3.2 -1.9,-6.8 -1,-9.7 4.6,-15.8 -0.8,-30.2 -6.4,-44.1 z"
   id="path17"
   style="clip-rule:evenodd;opacity:0.17000002;fill:#008dbb;fill-opacity:1;fill-rule:evenodd"
   inkscape:connector-curvature="0" />
			<path
   class="st4"
   d="m 519.1,453 c 2.1,5.6 3.8,1.3 5.8,6.9 2.8,-1.8 5,-4.1 6.2,-7.2 4.8,-11.3 4.8,-26.9 6.6,-41.5 -9.4,-23.9 -17,-47.2 -22.9,-67.1 -6.5,5 -13.4,10.2 -20.2,15.4 -1.4,1.1 -2.9,2.8 -3.2,4.4 -3.1,14.2 -1.5,31.4 6.3,46.2 9.9,18.7 16.3,29.1 21.4,42.9 z"
   id="path19"
   style="clip-rule:evenodd;opacity:0.17000002;fill:#008dbb;fill-opacity:1;fill-rule:evenodd"
   inkscape:connector-curvature="0" />
			<path
   class="st4"
   d="m 564.1,719.2 c -24.3,-27.8 -15.5,-41.1 -22.3,-64.1 -5.9,-19.8 -6.8,-27.3 -13,-36.9 -21.9,-33.6 -37.2,-47.4 -59,-81 -1.8,-2.8 -6.5,-10.9 -9.7,-15.4 0,5.3 0.9,13.4 1.4,15.9 4,21.2 4.3,41.8 -6,61.8 -6.4,12.4 -6.2,25.6 -0.4,38.3 5.4,12 11.6,23.7 17.6,35.5 6.3,12.6 8.2,24.7 3,38.9 -2.5,6.8 -4.9,13.6 -7.2,20.4 13.8,6 1,51.6 50.1,56 60.8,5.4 41.2,-30.7 60.9,-47.7 -4.4,-7.6 -9.5,-14.9 -15.4,-21.7 z"
   id="path21"
   style="clip-rule:evenodd;opacity:0.17000002;fill:#008dbb;fill-opacity:1;fill-rule:evenodd"
   inkscape:connector-curvature="0" />
			<path
   class="st4"
   d="m 734.7,627.7 c 0,0 -2.7,-4.1 -102.2,-73 -32.5,-22.5 -58.8,-63.6 -79.2,-107 -1.5,1.9 -2.9,3.9 -4.2,5.9 -6,9.1 -11.4,18.6 -16.2,28.5 7.3,20.8 14.3,41.6 21,62.6 8.1,25.6 9.6,39.2 17.8,64.8 3.3,10.4 8.8,21.3 16.3,29.1 26.3,30.6 29.7,50.9 27.9,84.7 -0.2,3.1 -0.3,6.2 -0.3,9.2 2.2,0.1 4.6,0.2 7.1,0.4 78.9,6.2 35.5,-34.7 33.4,-91.6 -1.8,-45.3 78.6,-13.6 78.6,-13.6 z"
   id="path23"
   style="clip-rule:evenodd;opacity:0.17000002;fill:#008dbb;fill-opacity:1;fill-rule:evenodd"
   inkscape:connector-curvature="0" />
		</g>
		<g
   class="st5"
   id="g39"
   style="opacity:0.34000017;fill:#008dbb;fill-opacity:1">
			<g
   id="g37"
   style="fill:#008dbb;fill-opacity:1">
				<path
   d="m 438.4,830.4 c -4,4 -8.1,12.1 -1.3,17.5 2.7,1.3 6.7,1.3 8.1,2.7 4.7,9.4 0.2,18.2 -7.2,24.5 5.6,-0.8 11.1,-2.1 16.4,-3.7 1.4,-0.4 3,-4 2.6,-5.6 -3.8,-14.5 -5.6,-28.8 -5.7,-42.9 -4.9,0.9 -9.6,3.7 -12.9,7.5 z"
   id="path27"
   style="fill:#008dbb;fill-opacity:1"
   inkscape:connector-curvature="0" />
				<path
   d="m 428.8,145.1 c 0,-2.7 -10.7,-5.4 -17.5,-8.1 2.7,-2.7 5.4,-4 8.1,-5.4 -2.7,0 -4,-1.3 -1.3,-4 -3.9,-0.8 -7.4,-0.2 -10.7,1.2 1.9,0.5 3.9,1.1 6,1.6 -5.5,2.8 -9.9,5 -16.6,8.4 12.8,3.5 12.5,3.9 22,6.6 10.1,2.9 5.4,2.8 6.4,11.3 2.4,20.8 4.4,38.5 6.2,54.1 0.2,1.6 0.8,3.1 1.4,5.1 0.6,0 1.1,0 1.7,-0.1 -8.4,-51.5 -1.9,-46.7 -5.7,-70.7 z"
   id="path29"
   style="fill:#008dbb;fill-opacity:1"
   inkscape:connector-curvature="0" />
				<path
   d="m 641.6,859.8 c -3.2,-7.2 -6.6,-14.4 -9.4,-21.8 -3.9,-10.1 -9.4,-20.1 -10.6,-30.6 -3.2,-27.9 -7.3,-56.2 -5.8,-84.2 1.8,-33.8 -1.6,-54.1 -27.9,-84.7 -7.5,-7.7 -13,-18.6 -16.3,-29.1 -8.1,-25.6 -9.6,-39.2 -17.8,-64.8 -6.7,-21 -13.7,-41.9 -21,-62.6 4.8,-9.8 10.2,-19.4 16.2,-28.5 7.9,-12.1 18.7,-22.3 26.8,-34.3 4.4,-6.5 8.5,-15 8.3,-22.6 -0.3,-16.1 -6.6,-18.8 -3.4,-34.3 2.3,-11.5 0.5,-54.9 -16,-79.7 0,0 -13.8,-20.3 -32.6,-34 -19.6,-14.3 -34.6,-23.6 -41.1,-46.8 -0.6,-2.1 -1.2,-4.9 -1.1,-6.4 2.3,-34.5 -0.4,-53.1 -0.6,-64 -0.2,-7.4 -3.1,-9.4 -10.7,-10.9 -54.5,-11 -66.3,1.2 -87.1,3.9 5.3,1.4 10.3,2.8 15.8,4.3 l 9.3,-1.2 c -2.7,2.7 -1.3,4 1.3,4 -2.7,1.3 -6.2,3.2 -8.9,5.9 6.7,2.7 19.6,4.9 19.6,7.5 -1.1,23.2 -0.1,41.5 5.8,70.9 2.9,-0.1 5.9,-0.5 8.5,-0.5 0.6,1 3.1,9.3 1.7,13.8 -6,5.6 -32.3,13.6 -45.8,21.3 -12.8,7.3 -30.3,23.9 -33.9,39.8 -2.2,9.8 4.6,37.4 4.6,45.1 -0.1,9.4 2.4,18.9 3.1,28.4 0.3,4.1 0.3,8.9 -1.6,12.2 -7.8,14.3 -10.7,29.6 -11.9,45.6 -1.1,14.1 -6.4,26 -19.6,33.5 -4.7,2.7 -8.2,7.5 -12.3,11.4 0,2.7 0,5.3 0,8 3.6,4.8 7.8,8.9 12.1,12.2 5.3,0.7 8.9,4.8 14.6,4.8 -2.5,-8.7 -19.2,-17.5 -10.5,-22.4 6.3,-4.2 15.9,-4.9 23.8,-9.6 4.5,-5.2 8.9,-10.4 16,-12.2 0,14.9 0,30 0,45.1 0.1,33.1 7.4,64.6 19.8,95.3 5.6,13.9 11,28.3 6.4,44.1 -0.8,2.9 0.3,6.5 1,9.7 3.5,15.3 8.7,30.5 10.3,46 2,19.8 3.3,39.7 4.5,59.6 8.2,51.9 8.6,104.2 -52.7,119.6 -6.7,2.7 -14.8,10.7 -9.4,14.8 1.7,1 3.4,1.8 5.2,2.6 5.8,0 11.7,-0.2 17.5,-0.7 11.3,-0.9 22.4,-5.3 33.7,-7.4 5.3,-1 11,0.1 16.4,-0.6 0.7,-0.1 1.4,-0.2 2.1,-0.3 7.3,-6.3 11.9,-15 7.2,-24.5 -1.3,-1.3 -5.4,-1.3 -8.1,-2.7 -6.7,-5.4 -2.7,-13.4 1.3,-17.5 3.3,-3.9 8,-6.6 12.9,-7.5 -0.4,-38 11,-74.5 24.3,-110.7 5.2,-14.2 3.3,-26.3 -3,-38.9 -5.9,-11.8 -12.1,-23.5 -17.6,-35.5 -5.7,-12.7 -5.9,-25.9 0.4,-38.3 10.3,-20 10,-40.6 6,-61.8 -0.5,-2.6 -1.4,-10.7 -1.4,-15.9 3.2,4.5 7.9,12.6 9.7,15.4 21.9,33.6 37.2,47.4 59,81 6.2,9.6 7.2,17.1 13,36.9 6.8,23 -2,36.3 22.3,64.1 16,18.3 25.6,40.3 31.3,63 7.8,20.9 12.2,43.6 9.5,65.7 12.1,-1.3 24.2,0 32.2,9.4 -9.4,-1.3 -20.2,-5.4 -28.2,-1.3 -13.4,5.4 -8.1,24.2 4,30.9 11.3,6.8 23.5,-4.4 32.7,-3.5 4.1,-4.9 2,-10.4 -3.9,-23.5 z M 524.9,459.9 c -2,-5.6 -3.7,-1.3 -5.8,-6.9 -5.1,-13.8 -11.5,-24.2 -21.4,-42.8 -7.9,-14.9 -9.5,-32.1 -6.3,-46.2 0.4,-1.6 1.8,-3.3 3.2,-4.4 13.5,-10.4 27.1,-20.7 38.3,-29.2 0.3,0.4 -0.3,-0.4 0,0 -0.8,-1.2 -7.1,5.5 -7.1,5.4 3.9,19.4 18.4,32.6 40.2,35.1 -37.6,9.4 -24.2,56.4 -34.9,82 -1.2,2.9 -3.4,5.2 -6.2,7 z"
   id="path31"
   style="fill:#008dbb;fill-opacity:1"
   inkscape:connector-curvature="0" />
				<path
   d="m 372.5,866.7 c 61.4,-15.4 60.9,-67.7 52.7,-119.6 0.7,12.6 1.3,25.1 1.9,37.7 1.7,36 -23.9,70.3 -52.6,78.6 -13.8,4 -26.5,11.5 -39.8,17.4 0.1,1 0.1,2 0.2,3 11.1,0 22.2,0.4 33.2,0.3 -1.8,-0.7 -3.5,-1.6 -5.2,-2.6 -5.1,-4 2.9,-12.1 9.6,-14.8 z"
   id="path33"
   style="fill:#008dbb;fill-opacity:1"
   inkscape:connector-curvature="0" />
				<path
   d="m 613,886.9 c -12.1,-6.7 -17.5,-25.5 -4,-30.9 8.1,-4 18.8,0 28.2,1.3 -8.1,-9.4 -20.2,-10.7 -32.2,-9.4 2.6,-22.1 -1.7,-44.7 -9.5,-65.7 1.9,7.5 3.4,15.1 4.5,22.7 3.7,24.5 -3.3,45 -13.5,65.4 -4.2,8.5 -2.7,12.9 5.5,16.9 6.1,3 11.5,7.4 17.2,11.1 4.7,0 9.3,0 14,0 2.4,-1.5 4.8,-3 7.3,-4.4 7.9,-4.4 12.8,-7.3 15.2,-10.5 -9.2,-1 -21.4,10.2 -32.7,3.5 z"
   id="path35"
   style="fill:#008dbb;fill-opacity:1"
   inkscape:connector-curvature="0" />
			</g>
		</g>
		<path
   class="st5"
   d="m 367.3,484.9 c 2.5,-6.5 4.8,-15.2 -0.6,-25 -7.8,4.4 -17,5.2 -23.2,9.3 -8.7,4.9 8,13.8 10.5,22.4 -5.7,0 -9.3,-4.1 -14.6,-4.8 -3.4,-2.7 -6.9,-5.8 -9.9,-9.5 l -2.1,-2.7 c 0,0 6.9,22.4 24.9,28.4 10.4,3.4 12.8,-12.6 15,-18.1 z"
   id="path41"
   style="opacity:0.34000017;fill:#008dbb;fill-opacity:1"
   inkscape:connector-curvature="0" />
		<g
   class="st6"
   id="g67"
   style="opacity:0.43000004;fill:#008dbb;fill-opacity:1">
			<path
   class="st7"
   d="m 354,491.6 c -5.7,0 -9.3,-4.1 -14.6,-4.8 5.8,4.5 11.6,7.6 15.5,9.2 0.9,-0.7 1.8,-1.3 2.7,-2 -0.6,-6 -11,-15.7 -11.6,-22.3 10.3,0.5 15.8,-5.7 21.3,-12.1 -7.9,4.7 -17.5,5.4 -23.8,9.6 -8.7,4.9 8,13.7 10.5,22.4 z"
   id="path43"
   style="clip-rule:evenodd;fill:#008dbb;fill-opacity:1;fill-rule:evenodd"
   inkscape:connector-curvature="0" />
			<path
   class="st7"
   d="m 537.2,365.7 c 3.7,8.1 4.2,14.8 0.9,22.4 -2,4.5 -4.9,9 -5.5,13.7 -1.6,13.7 -2.2,27.5 -3.1,41.2 -0.7,11.7 -4.7,14.8 -16.6,15.4 -5.9,0.3 -11.7,3.3 -17.5,5.1 -10.1,3.1 -5.6,9.9 -4.3,16 0.3,1.2 -0.3,2.6 -0.5,3.9 -0.9,5.7 2.7,12.9 7.8,17.8 -5,-11.2 -5.2,-23.8 3.2,-31.1 8.1,-5.4 25.5,-6.7 29.6,-17.5 10.7,-25.5 -2.7,-72.5 34.9,-82 -32.7,-3.8 -31.3,-41.8 -37.6,-68.7 -3.4,5.3 -5.9,11.4 -7.8,17.9 5,15 9.6,30.9 16.5,45.9 z"
   id="path45"
   style="clip-rule:evenodd;fill:#008dbb;fill-opacity:1;fill-rule:evenodd"
   inkscape:connector-curvature="0" />
			<path
   class="st7"
   d="m 395.5,272.5 -21.6,25 -4.8,11.5 6.8,12.2 c 0,0 1.9,17.6 6.4,31.1 4.4,13.5 7.1,25.7 9.8,33.8 2.7,8.1 -3.4,53.4 -3.4,53.4 0,0 7.4,-44 6.8,-51.4 -0.7,-7.4 -17.6,-62.9 -13.2,-64.9 4.4,-2 70,6.1 85.6,15.6 15.6,9.5 55.5,-39.2 55.5,-39.2 0,0 -41.2,29.4 -56.8,29.4 -15.6,0 -81.2,-11.2 -87.9,-14.5 -6.8,-3.5 16.8,-42 16.8,-42 z"
   id="path47"
   style="clip-rule:evenodd;fill:#008dbb;fill-opacity:1;fill-rule:evenodd"
   inkscape:connector-curvature="0" />
			<path
   class="st7"
   d="m 412.9,347.1 c 0,0 -6.4,23.8 0,34.9 0,0 -2.6,36.2 2.1,43.8 4.7,7.7 9.4,28.5 9.4,28.5 0,0 -4.1,-26.8 -7.2,-35.3 -3,-8.5 -3.3,-36.6 0,-37 3.3,-0.4 9.3,12.8 31.4,10.2 0.1,0 -41.6,-0.8 -35.7,-45.1 z"
   id="path49"
   style="clip-rule:evenodd;fill:#008dbb;fill-opacity:1;fill-rule:evenodd"
   inkscape:connector-curvature="0" />
			<path
   class="st7"
   d="m 443.6,423.3 c -8.1,0.3 -15.7,0.8 -21.6,-5.6 -0.1,-0.1 -0.2,0 -0.2,0.1 2.2,8.2 15.6,8.1 21.9,6.3 0.4,-0.1 0.3,-0.8 -0.1,-0.8 z"
   id="path51"
   style="clip-rule:evenodd;fill:#008dbb;fill-opacity:1;fill-rule:evenodd"
   inkscape:connector-curvature="0" />
			<path
   class="st7"
   d="m 504.6,257 c -7.2,-3.7 -16.2,-4.8 -24.2,-5.5 -4.4,-0.4 -8.7,-0.4 -13.1,-0.2 -4.2,0.1 -8.6,1 -7.8,0.4 4.5,-3.5 15.4,-22.1 17.6,-26.8 2.5,-5.2 4.8,-11.9 2.5,-17.5 -0.2,-0.4 -0.7,-0.2 -0.6,0.2 2.6,10.3 -5.1,20.8 -10.9,28.6 -5.3,7.2 -12.5,16.5 -22.2,17.1 -0.5,0 -0.5,0.6 -0.1,0.8 2.4,1 7.5,-0.3 7.9,-0.3 4.1,0 8.3,-0.6 12.5,-0.8 4,-0.2 8,-0.1 12,0.1 4.3,0.2 8.5,0.8 12.7,1.6 4.5,0.9 8.8,2.2 13.2,3.3 13.5,3.2 1.1,-0.8 0.5,-1 z"
   id="path53"
   style="clip-rule:evenodd;fill:#008dbb;fill-opacity:1;fill-rule:evenodd"
   inkscape:connector-curvature="0" />
			<path
   class="st7"
   d="m 430.1,247.6 c -4,-0.5 -10.1,-0.7 -13.9,1.1 -0.2,0.1 -0.1,0.4 0.1,0.5 3.4,0.6 7.3,-0.4 10.8,-0.4 4.6,0 9,1.1 12.3,4.5 0,0 0.1,0 0.1,0 -1.6,-4.1 -5.7,-5.2 -9.4,-5.7 z"
   id="path55"
   style="clip-rule:evenodd;fill:#008dbb;fill-opacity:1;fill-rule:evenodd"
   inkscape:connector-curvature="0" />
			<path
   class="st7"
   d="m 488.8,167.3 c 2.7,-6.4 -3.7,-12.9 -10,-10.3 -0.5,0.2 -0.3,1.1 0.2,0.9 4.7,-1.7 8.3,1.7 8.4,6.5 0,3.3 -2.9,5.9 -4.8,8.3 -3.9,4.8 -3,9.6 -2,15.3 0.6,3.8 0.8,9.7 -2.7,12.2 -2.8,2 -17.7,5.7 -21.9,6.9 -4.1,1.2 -8.3,0.9 -12.2,2.6 -0.3,0.1 -0.1,0.5 0.2,0.4 5.3,-1 10.6,-2.3 15.8,-3.8 4.7,-1.3 21.7,-4 23.5,-7.2 1.7,-2.9 -0.1,-8.7 -0.6,-11.7 -0.7,-4.1 -1.2,-10.6 1,-14.4 1.7,-2.9 3.8,-2.5 5.1,-5.7 z"
   id="path57"
   style="clip-rule:evenodd;fill:#008dbb;fill-opacity:1;fill-rule:evenodd"
   inkscape:connector-curvature="0" />
			<g
   id="g63"
   style="fill:#008dbb;fill-opacity:1">
				<path
   d="m 536.5,616.8 c -10.5,-13 -66.4,-84.6 -75.1,-119.5 5.7,-13.2 14,-31 27.7,-34.2 0,0 -2.9,-7.4 -28.9,26 v 0 0 c -2.4,3.1 -5,6.5 -7.8,10.3 -7.6,10.4 -39.6,-6.7 -58.7,-45.1 0,0 16.3,48.6 58.8,57.5 0,0 24,36.6 48.1,68.5 24.1,31.9 42.2,73.4 41.5,83.1 -0.6,9.8 -3.1,30.7 14.5,48 5.7,5.6 18.5,22.6 34.2,55.8 -9.6,-23.8 -31.1,-57.8 -39.1,-98.7 -3.6,-19.3 -3.8,-37.6 -15.2,-51.7 z"
   id="path59"
   style="fill:#008dbb;fill-opacity:1"
   inkscape:connector-curvature="0" />
				<path
   d="M 572.3,727.3"
   id="path61"
   style="fill:#008dbb;fill-opacity:1"
   inkscape:connector-curvature="0" />
			</g>
			<path
   d="m 556.8,608.1 c 0,0 8.5,20.2 6.5,25.5 -2,5.4 -3.1,11.4 -3.1,11.4 0,0 2.2,-25.5 -3.4,-36.9 z"
   id="path65"
   style="fill:#008dbb;fill-opacity:1"
   inkscape:connector-curvature="0" />
		</g>
	</g>
	
<text
   xml:space="preserve"
   style="font-style:normal;font-weight:normal;font-size:40px;line-height:1.25;font-family:sans-serif;letter-spacing:0px;word-spacing:0px;fill:#000000;fill-opacity:1;stroke:none"
   x="498.46625"
   y="664"
   id="text929"><tspan
     sodipodi:role="line"
     x="498.46625"
     y="664"
     id="tspan931"
     style="font-style:normal;font-variant:normal;font-weight:600;font-stretch:normal;font-size:96px;font-family:Hind;-inkscape-font-specification:'Hind, Semi-Bold';font-variant-ligatures:normal;font-variant-caps:normal;font-variant-numeric:normal;font-feature-settings:normal;text-align:center;writing-mode:lr-tb;text-anchor:middle;fill:#ffffff;fill-opacity:1">Security</tspan><tspan
     sodipodi:role="line"
     x="498.46625"
     y="784"
     style="font-style:normal;font-variant:normal;font-weight:600;font-stretch:normal;font-size:96px;font-family:Hind;-inkscape-font-specification:'Hind, Semi-Bold';font-variant-ligatures:normal;font-variant-caps:normal;font-variant-numeric:normal;font-feature-settings:normal;text-align:center;writing-mode:lr-tb;text-anchor:middle;fill:#ffffff;fill-opacity:1"
     id="tspan935">Journey</tspan></text>


<path
   style="display:inline;opacity:0.15;fill:#ffffff;stroke-width:13.32094097"
   d="M 301.88623,-0.1133 A 562.01339,571.63959 0 0 0 279.05777,10.591417 541.25748,550.52812 0 0 0 -0.13475996,491.57825 541.25748,550.52812 0 0 0 541.12904,1042.1133 541.25748,550.52812 0 0 0 936.13477,866.95186 560.42844,570.02748 0 0 1 765.76777,894.34299 561.88132,571.50526 0 0 1 301.88623,-0.1133 Z"
   id="path133-3-3"
   inkscape:connector-curvature="0" /></g>
</svg>