<svg xmlns="http://www.w3.org/2000/svg" xmlns:xlink="http://www.w3.org/1999/xlink" viewBox="0 0 87.95 85.81"><defs><style>.cls-1,.cls-6{fill:none;}.cls-2{clip-path:url(#clip-path);}.cls-3{fill:#afa81c;stroke:#afa81c;stroke-width:10px;}.cls-3,.cls-6{stroke-miterlimit:10;}.cls-4{fill:#928d17;}.cls-5,.cls-8{fill:#fff;}.cls-5{opacity:0.07;}.cls-6{stroke:#fff;}.cls-7{fill:#a90a2d;}.cls-8{font-size:7px;font-family:Hind-SemiBold, Hind;font-weight:700;letter-spacing:-0.01em;}</style><clipPath id="clip-path" transform="translate(0 -0.54)"><circle class="cls-1" cx="45.23" cy="41.1" r="41.1"/></clipPath></defs><title>Element 276</title><g id="Ebene_2" data-name="Ebene 2"><g id="Ebene_2-2" data-name="Ebene 2"><g class="cls-2"><circle class="cls-3" cx="45.39" cy="40.98" r="35.98"/><path class="cls-4" d="M63.58,23.13a19.91,19.91,0,0,1,1.73,1.93,8.5,8.5,0,0,1,3.48-1.35c2,.87,4,1.81,4,2s-3-1.07-4-1.36a8.2,8.2,0,0,0-2.9,1.16c-.1.29,0,.39,0,.39a8.61,8.61,0,0,1,1.35.58c.19.38.39,1.54.1,1.83-.1.1-.06.14-.39.2s-1.41,1.71-2.45,2.75-4.8.24-4.8.24.23,2.18.29,4.35c.39.68.87.87,2.23,1.45,2.41.29,4.74-.06,4.83.19s-4.7.57-5.12.48-1.45-.48-2.51-.77A9.77,9.77,0,0,0,61.55,40c1.93.58,3.86,1.16,3.86,1.36a32.61,32.61,0,0,1-4.25-.58,24.94,24.94,0,0,1-2.23-1.69c.25.74.45,2.23,1,2.75,1.31,1.3,3,2.61,2.85,2.73a33.4,33.4,0,0,1-3.65-2.41c-.69-1.51-1.73-4.12-1.73-4.12h-1A166.83,166.83,0,0,1,60,77.71c-4.17-2.09-14.36-17.48-7.33-27.39,1.18-1.66,1.31-12,1.31-12a7.9,7.9,0,0,1-2.29-1,2.81,2.81,0,0,1-.67.09c4.43,10.17-26.57,24.83-26.57,24.83s14.66-31,24.83-26.56a2.82,2.82,0,0,1,.09-.68,7.9,7.9,0,0,1-1-2.29S38,32.85,36.38,34c-9.91,7-25.3-3.16-27.39-7.33a167.36,167.36,0,0,1,39.64,3.68v-1S46,28.29,44.51,27.6A34.92,34.92,0,0,1,42.1,24c.13-.15,1.43,1.54,2.73,2.85.53.52,2,.72,2.76,1a21.65,21.65,0,0,1-1.69-2.23,31,31,0,0,1-.58-4.25c.19,0,.77,1.93,1.35,3.87a10.28,10.28,0,0,0,2.8,2.22c-.29-1.07-.68-2-.77-2.51s.23-5.21.48-5.12-.1,2.41.19,4.83c.58,1.35.77,1.84,1.45,2.22,2.17.07,4.35.29,4.35.29s-.81-3.75.24-4.79,2.7-2.13,2.76-2.46.09-.29.19-.38c.29-.29,1.45-.1,1.83.09a9.05,9.05,0,0,1,.58,1.35s.1.1.39,0A8.16,8.16,0,0,0,62.32,18C62,16.94,60.76,14,61,14s1.16,1.93,2,4a8.59,8.59,0,0,1-1.36,3.48A20.06,20.06,0,0,1,63.58,23.13Z" transform="translate(0 -0.54)"/><path class="cls-5" d="M61.82,70.89A42.56,42.56,0,0,1,26.69,4.31a42.56,42.56,0,1,0,51,63.51A42.51,42.51,0,0,1,61.82,70.89Z" transform="translate(0 -0.54)"/><path class="cls-6" d="M52.84,22.54H37.59a1.52,1.52,0,0,0-1.52,1.53V34a1.52,1.52,0,0,0,1.52,1.53h6.86V37H41.4v1.53H49V37H46V35.5h6.86A1.52,1.52,0,0,0,54.36,34v-9.9a1.52,1.52,0,0,0-1.52-1.53m0,1.53V33.9H37.59V24.07Z" transform="translate(0 -0.54)"/><path class="cls-7" d="M66.91,28.74H63.2A18.11,18.11,0,0,0,47,12.56V8.85H43.41v3.71A18.11,18.11,0,0,0,27.23,28.74H23.52v3.61h3.71A18.11,18.11,0,0,0,43.41,48.53v3.71H47V48.53A18.11,18.11,0,0,0,63.2,32.35h3.71ZM47,44.88V43.2H43.41v1.68A14.5,14.5,0,0,1,30.87,32.35h1.69V28.74H30.87A14.49,14.49,0,0,1,43.41,16.21v1.68H47V16.21A14.46,14.46,0,0,1,59.55,28.74H57.87v3.61h1.68A14.47,14.47,0,0,1,47,44.88" transform="translate(0 -0.54)"/><text class="cls-8" transform="translate(29.69 50.04)">SENSITIVE<tspan x="-7.05" y="8.4">INFORMATION</tspan><tspan x="-0.84" y="16.81">EXPOSURE</tspan></text><text y="-0.54"></text></g></g></g></svg>