<?xml version="1.0" encoding="UTF-8" standalone="no"?>
<svg
   xmlns:dc="http://purl.org/dc/elements/1.1/"
   xmlns:cc="http://creativecommons.org/ns#"
   xmlns:rdf="http://www.w3.org/1999/02/22-rdf-syntax-ns#"
   xmlns:svg="http://www.w3.org/2000/svg"
   xmlns="http://www.w3.org/2000/svg"
   xmlns:sodipodi="http://sodipodi.sourceforge.net/DTD/sodipodi-0.dtd"
   xmlns:inkscape="http://www.inkscape.org/namespaces/inkscape"
   viewBox="0 0 97.394359 97.422954"
   version="1.1"
   id="svg33"
   sodipodi:docname="sensitive_information_exposure.svg"
   width="97.394356"
   height="97.422951"
   inkscape:version="0.92.3 (2405546, 2018-03-11)">
  <metadata
     id="metadata37">
    <rdf:RDF>
      <cc:Work
         rdf:about="">
        <dc:format>image/svg+xml</dc:format>
        <dc:type
           rdf:resource="http://purl.org/dc/dcmitype/StillImage" />
        <dc:title>Element 276</dc:title>
      </cc:Work>
    </rdf:RDF>
  </metadata>
  <sodipodi:namedview
     pagecolor="#ffffff"
     bordercolor="#666666"
     borderopacity="1"
     objecttolerance="10"
     gridtolerance="10"
     guidetolerance="10"
     inkscape:pageopacity="0"
     inkscape:pageshadow="2"
     inkscape:window-width="1841"
     inkscape:window-height="879"
     id="namedview35"
     showgrid="false"
     fit-margin-top="0"
     fit-margin-left="0"
     fit-margin-right="0"
     fit-margin-bottom="0"
     inkscape:zoom="5.5005246"
     inkscape:cx="13.11199"
     inkscape:cy="38.028266"
     inkscape:window-x="79"
     inkscape:window-y="27"
     inkscape:window-maximized="1"
     inkscape:current-layer="layer1" />
  <defs
     id="defs7">
    <style
       id="style2">.cls-1,.cls-6{fill:none;}.cls-2{clip-path:url(#clip-path);}.cls-3{fill:#afa81c;stroke:#afa81c;stroke-width:10px;}.cls-3,.cls-6{stroke-miterlimit:10;}.cls-4{fill:#928d17;}.cls-5,.cls-8{fill:#fff;}.cls-5{opacity:0.07;}.cls-6{stroke:#fff;}.cls-7{fill:#a90a2d;}.cls-8{font-size:7px;font-family:Hind-SemiBold, Hind;font-weight:700;letter-spacing:-0.01em;}</style>
    <clipPath
       id="clip-path"
       transform="translate(0 -0.54)">
      <circle
         class="cls-1"
         cx="45.23"
         cy="41.099998"
         r="41.099998"
         id="circle4"
         style="fill:none" />
    </clipPath>
    <clipPath
       clipPathUnits="userSpaceOnUse"
       id="clipPath898">
      <ellipse
         style="display:inline;opacity:1;vector-effect:none;fill:none;fill-opacity:1;stroke:#000000;stroke-width:0.01132705;stroke-linecap:butt;stroke-linejoin:miter;stroke-miterlimit:4;stroke-dasharray:none;stroke-dashoffset:0;stroke-opacity:1"
         id="ellipse900"
         cx="43.391712"
         cy="41.200218"
         rx="48.644405"
         ry="48.643444" />
    </clipPath>
  </defs>
  <title
     id="title9">Element 276</title>
  <g
     inkscape:groupmode="layer"
     id="layer1"
     inkscape:label="button"
     style="display:inline"
     transform="translate(5.0759766,6.839557)">
    <g
       inkscape:groupmode="layer"
       id="layer3"
       inkscape:label="background" />
    <g
       inkscape:groupmode="layer"
       id="layer5"
       inkscape:label="content" />
    <g
       inkscape:groupmode="layer"
       id="layer4"
       inkscape:label="gleam">
      <g
         id="g896"
         transform="matrix(1.0013986,0,0,1.0013986,0.18406298,0.61407895)"
         clip-path="url(#clipPath898)">
        <circle
           id="circle11"
           r="42.661182"
           cy="41.139519"
           cx="43.415997"
           class="cls-3"
           style="display:inline;fill:#afa81c;stroke:#afa81c;stroke-width:11.85691547px;stroke-miterlimit:10" />
        <path
           inkscape:connector-curvature="0"
           id="path13"
           d="m 64.983726,19.334651 a 23.607118,23.607118 0 0 1 2.051246,2.288385 10.078378,10.078378 0 0 1 4.126207,-1.600684 c 2.371383,1.031552 4.742766,2.146102 4.742766,2.371383 0,0.225282 -3.557075,-1.26869 -4.742766,-1.61254 a 9.7226705,9.7226705 0 0 0 -3.438506,1.375402 c -0.118569,0.343851 0,0.46242 0,0.46242 a 10.208804,10.208804 0 0 1 1.600684,0.687701 c 0.225281,0.450563 0.462419,1.825965 0.118569,2.169815 -0.118569,0.118569 -0.07114,0.165997 -0.46242,0.237139 -0.391278,0.07114 -1.671825,2.027532 -2.904944,3.260651 -1.233119,1.233119 -5.691319,0.284566 -5.691319,0.284566 0,0 0.272709,2.584808 0.34385,5.157758 0.46242,0.806271 1.031552,1.031552 2.644092,1.719253 2.857517,0.343851 5.620178,-0.07114 5.72689,0.225281 0.106713,0.296423 -5.57275,0.675845 -6.07074,0.569132 -0.497991,-0.106712 -1.719253,-0.569132 -2.976086,-0.912982 a 11.584206,11.584206 0 0 0 2.525523,3.319936 c 2.288385,0.687701 4.576769,1.375402 4.576769,1.612541 A 38.665401,38.665401 0 0 1 62.114352,40.262107 29.571147,29.571147 0 0 1 59.47026,38.258288 c 0.296423,0.877412 0.533561,2.644092 1.185692,3.260652 1.553256,1.541399 3.557074,3.094654 3.37922,3.236937 A 39.602097,39.602097 0 0 1 59.707398,41.898361 C 58.889271,40.107967 57.656152,37.013312 57.656152,37.013312 H 56.470461 A 197.80892,197.80892 0 0 1 60.73895,84.049695 C 55.794616,81.571599 43.71242,63.323807 52.047831,51.573604 53.446947,49.605356 53.601087,37.345305 53.601087,37.345305 a 9.3669631,9.3669631 0 0 1 -2.715234,-1.185691 3.3317932,3.3317932 0 0 1 -0.794413,0.106712 c 5.252614,12.058483 -31.503824,29.440721 -31.503824,29.440721 0,0 17.382238,-36.756438 29.440721,-31.491967 a 3.3436501,3.3436501 0 0 1 0.106712,-0.80627 9.3669631,9.3669631 0 0 1 -1.185691,-2.715234 c 0,0 -12.295622,0.165997 -14.216442,1.529542 C 20.982713,40.522959 2.7349205,28.476333 0.2568252,23.531999 a 198.43733,198.43733 0 0 1 47.0008118,4.363345 v -1.185692 c 0,0 -3.118368,-1.256833 -4.885049,-2.07496 a 41.404348,41.404348 0 0 1 -2.857516,-4.268489 c 0.15414,-0.177854 1.695539,1.825965 3.236938,3.379221 0.628416,0.616559 2.371383,0.853698 3.272508,1.185691 a 25.670222,25.670222 0 0 1 -2.003819,-2.644092 36.756437,36.756437 0 0 1 -0.687701,-5.039189 c 0.225282,0 0.912983,2.288385 1.600684,4.588626 a 12.188909,12.188909 0 0 0 3.319936,2.632235 c -0.34385,-1.268689 -0.80627,-2.371383 -0.912982,-2.976085 -0.106712,-0.604703 0.272709,-6.177453 0.569132,-6.070741 0.296423,0.106712 -0.118569,2.857517 0.225281,5.72689 0.687701,1.600684 0.912983,2.181673 1.719253,2.632235 2.57295,0.083 5.157758,0.343851 5.157758,0.343851 0,0 -0.96041,-4.446343 0.284566,-5.679463 1.244976,-1.233119 3.201367,-2.525522 3.272509,-2.916801 0.07114,-0.391278 0.106712,-0.34385 0.225281,-0.450562 0.34385,-0.343851 1.719253,-0.11857 2.169815,0.106712 a 10.730508,10.730508 0 0 1 0.687701,1.600683 c 0,0 0.11857,0.118569 0.46242,0 a 9.6752429,9.6752429 0 0 0 1.375402,-3.53336 c -0.379421,-1.256833 -1.849678,-4.7427672 -1.565112,-4.7427672 0.284566,0 1.375402,2.2883852 2.371383,4.7427672 a 10.18509,10.18509 0 0 1 -1.612541,4.126206 23.784972,23.784972 0 0 1 2.300242,1.956391 z"
           class="cls-4"
           style="display:inline;fill:#928d17;stroke-width:1.18569148" />
        <path
           inkscape:connector-curvature="0"
           id="path17"
           d="M 52.249399,18.635093 H 34.167603 a 1.8022511,1.8022511 0 0 0 -1.802251,1.814108 v 11.773917 a 1.8022511,1.8022511 0 0 0 1.802251,1.814108 h 8.133844 v 1.742967 h -3.616359 v 1.814108 h 9.011255 v -1.814108 h -3.557074 v -1.778538 h 8.133844 A 1.8022511,1.8022511 0 0 0 54.05165,32.223118 V 20.484772 a 1.8022511,1.8022511 0 0 0 -1.802251,-1.814108 m 0,1.814108 V 32.104549 H 34.167603 V 20.449201 Z"
           class="cls-6"
           style="display:inline;fill:none;stroke:#ffffff;stroke-width:1.18569148;stroke-miterlimit:10" />
        <path
           inkscape:connector-curvature="0"
           id="path19"
           d="M 68.932078,25.986381 H 64.533163 A 21.472874,21.472874 0 0 0 45.32496,6.8018915 V 2.4029759 H 41.068328 V 6.8018915 A 21.472874,21.472874 0 0 0 21.883839,25.986381 h -4.398916 v 4.280346 h 4.398916 a 21.472874,21.472874 0 0 0 19.184489,19.184489 v 4.398915 H 45.32496 V 49.451216 A 21.472874,21.472874 0 0 0 64.533163,30.266727 h 4.398915 z M 45.32496,45.123442 V 43.13148 h -4.256632 v 1.991962 A 17.192527,17.192527 0 0 1 26.199756,30.266727 h 2.003819 V 25.986381 H 26.199756 A 17.18067,17.18067 0 0 1 41.068328,11.129666 v 1.991962 h 4.256632 v -1.991962 a 17.145099,17.145099 0 0 1 14.880429,14.856715 h -1.991962 v 4.280346 h 1.991962 A 17.156956,17.156956 0 0 1 45.32496,45.123442"
           class="cls-7"
           style="display:inline;fill:#a90a2d;stroke-width:1.18569148" />
        <text
           y="51.881882"
           x="24.80064"
           id="text25"
           class="cls-8"
           style="font-weight:700;font-size:8.29984093px;font-family:Hind-SemiBold, Hind;letter-spacing:-0.01em;display:inline;fill:#ffffff;stroke-width:1.18569148">SENSITIVE<tspan
   style="stroke-width:1.18569148"
   id="tspan21"
   y="61.84169"
   x="16.441515">INFORMATION</tspan>
<tspan
   style="stroke-width:1.18569148"
   id="tspan23"
   y="71.813354"
   x="23.804659">EXPOSURE</tspan>
</text>
        <g
           transform="matrix(1.1856915,0,0,1.1856915,-10.402542,-7.4501207)"
           data-name="Ebene 2"
           id="Ebene_2">
          <g
             data-name="Ebene 2"
             id="Ebene_2-2">
            <g
               id="g29"
               clip-path="url(#clip-path)"
               class="cls-2">
              <path
                 style="opacity:0.07000002;fill:#ffffff"
                 inkscape:connector-curvature="0"
                 id="path15"
                 transform="translate(0,-0.54)"
                 d="M 61.82,70.89 A 42.56,42.56 0 0 1 26.69,4.31 a 42.56,42.56 0 1 0 51,63.51 42.51,42.51 0 0 1 -15.87,3.07 z"
                 class="cls-5" />
              <text
                 id="text27"
                 y="-0.54000002" />
            </g>
          </g>
        </g>
      </g>
    </g>
  </g>
</svg>
