<?xml version="1.0" encoding="UTF-8" standalone="no"?>
<svg
   xmlns:dc="http://purl.org/dc/elements/1.1/"
   xmlns:cc="http://creativecommons.org/ns#"
   xmlns:rdf="http://www.w3.org/1999/02/22-rdf-syntax-ns#"
   xmlns:svg="http://www.w3.org/2000/svg"
   xmlns="http://www.w3.org/2000/svg"
   xmlns:sodipodi="http://sodipodi.sourceforge.net/DTD/sodipodi-0.dtd"
   xmlns:inkscape="http://www.inkscape.org/namespaces/inkscape"
   viewBox="0 0 96.86 84.77"
   version="1.1"
   id="svg47"
   sodipodi:docname="sql_injection.svg"
   inkscape:version="0.92.2 (5c3e80d, 2017-08-06)">
  <metadata
     id="metadata51">
    <rdf:RDF>
      <cc:Work
         rdf:about="">
        <dc:format>image/svg+xml</dc:format>
        <dc:type
           rdf:resource="http://purl.org/dc/dcmitype/StillImage" />
      </cc:Work>
    </rdf:RDF>
  </metadata>
  <sodipodi:namedview
     pagecolor="#ffffff"
     bordercolor="#666666"
     borderopacity="1"
     objecttolerance="10"
     gridtolerance="10"
     guidetolerance="10"
     inkscape:pageopacity="0"
     inkscape:pageshadow="2"
     inkscape:window-width="3373"
     inkscape:window-height="1385"
     id="namedview49"
     showgrid="false"
     inkscape:zoom="11.136016"
     inkscape:cx="48.43"
     inkscape:cy="52.020221"
     inkscape:window-x="1987"
     inkscape:window-y="27"
     inkscape:window-maximized="1"
     inkscape:current-layer="layer2" />
  <defs
     id="defs7">
    <style
       id="style2">.cls-1,.cls-7{fill:none;}.cls-2{clip-path:url(#clip-path);}.cls-3{fill:#f9b233;stroke:#f9b233;stroke-width:10px;}.cls-3,.cls-7,.cls-8{stroke-miterlimit:10;}.cls-4{fill:#d59a2c;}.cls-5{font-size:12.96px;}.cls-5,.cls-6,.cls-8,.cls-9{fill:#fff;}.cls-5,.cls-6{font-family:Hind-SemiBold, Hind;font-weight:700;}.cls-6{font-size:8.64px;letter-spacing:-0.02em;}.cls-7,.cls-8{stroke:#fff;stroke-width:0.75px;}.cls-9{opacity:0.07;}</style>
    <clipPath
       id="clip-path"
       transform="translate(0 -0.56)">
      <circle
         class="cls-1"
         cx="44.53"
         cy="41.1"
         r="41.1"
         id="circle4" />
    </clipPath>
  </defs>
  <title
     id="title9">Element 273</title>
  <g
     inkscape:groupmode="layer"
     id="layer2"
     inkscape:label="background">
    <circle
       style="fill:#f9b233;stroke:#f9b233;stroke-width:10px;stroke-miterlimit:10"
       id="circle11"
       r="35.509998"
       cy="40.509998"
       cx="44.799999"
       class="cls-3" />
    <path
       style="opacity:0.15;fill:#ffffff"
       inkscape:connector-curvature="0"
       id="path41"
       d="M 61,69.5 A 42,42 0 0 1 26.34,3.78 42,42 0 1 0 76.68,66.44 41.79,41.79 0 0 1 61,69.5 Z"
       class="cls-9" />
  </g>
  <g
     inkscape:groupmode="layer"
     id="layer1"
     inkscape:label="all">
    <path
       style="fill:#d59a2c"
       inkscape:connector-curvature="0"
       id="path13"
       d="m 63.31,21.8 a 24.32,24.32 0 0 1 1.77,2 8.77,8.77 0 0 1 3.54,-1.36 c 2.06,0.89 4,1.85 4,2.07 0,0.22 -3.05,-1.08 -4.13,-1.38 a 8.56,8.56 0 0 0 -3,1.18 c -0.1,0.3 0,0.4 0,0.4 a 8.7,8.7 0 0 1 1.38,0.59 c 0.19,0.39 0.39,1.57 0.09,1.86 -0.09,0.1 -0.05,0.14 -0.39,0.2 -0.34,0.06 -1.44,1.75 -2.5,2.81 -1.06,1.06 -4.87,0.24 -4.87,0.24 0,0 0.22,2.22 0.29,4.42 0.39,0.7 0.89,0.89 2.26,1.48 2.46,0.29 4.83,-0.06 4.92,0.2 0.09,0.26 -4.78,0.57 -5.21,0.49 -0.43,-0.08 -1.4,-0.56 -2.46,-0.84 a 10.26,10.26 0 0 0 2.26,2.85 c 2,0.59 3.94,1.18 3.94,1.38 A 32.16,32.16 0 0 1 60.87,39.8 25.84,25.84 0 0 1 58.6,38.08 c 0.25,0.76 0.46,2.27 1,2.8 1.33,1.33 3,2.66 2.9,2.78 a 34.65,34.65 0 0 1 -3.72,-2.45 c -0.7,-1.54 -1.76,-4.19 -1.76,-4.19 h -1.09 a 170,170 0 0 1 3.74,40.34 C 55.42,75.24 45.05,59.57 52.21,49.49 53.41,47.8 53.54,37.28 53.54,37.28 a 7.77,7.77 0 0 1 -2.33,-1 3,3 0 0 1 -0.69,0.1 c 4.51,10.35 -27,25.27 -27,25.27 0,0 14.92,-31.55 25.27,-27 a 3,3 0 0 1 0.1,-0.69 7.77,7.77 0 0 1 -1,-2.33 c 0,0 -10.52,0.13 -12.21,1.33 C 25.54,40.06 9.87,29.69 7.75,25.44 a 169.64,169.64 0 0 1 40.34,3.75 v -1.07 c 0,0 -2.65,-1.06 -4.19,-1.76 a 33.68,33.68 0 0 1 -2.45,-3.72 c 0.12,-0.15 1.45,1.57 2.78,2.9 0.53,0.53 2,0.74 2.8,1 a 24.43,24.43 0 0 1 -1.72,-2.27 32,32 0 0 1 -0.59,-4.32 c 0.2,0 0.79,2 1.38,3.93 a 10.26,10.26 0 0 0 2.9,2.25 c -0.3,-1.08 -0.69,-2.06 -0.79,-2.56 -0.1,-0.5 0.24,-5.29 0.49,-5.21 0.25,0.08 -0.09,2.46 0.2,4.92 0.59,1.38 0.78,1.87 1.48,2.26 2.2,0.07 4.42,0.3 4.42,0.3 0,0 -0.82,-3.82 0.24,-4.88 1.06,-1.06 2.75,-2.16 2.81,-2.5 0.06,-0.34 0.1,-0.29 0.2,-0.39 0.29,-0.3 1.47,-0.1 1.87,0.1 a 9.42,9.42 0 0 1 0.59,1.37 c 0,0 0.09,0.1 0.39,0 a 8.36,8.36 0 0 0 1.18,-3 c -0.3,-1.08 -1.59,-4.12 -1.38,-4.13 0.21,-0.01 1.18,2 2.07,4 a 8.72,8.72 0 0 1 -1.38,3.54 c 2.07,1.94 1.82,1.76 1.92,1.85 z"
       class="cls-4" />
    <text
       style="font-weight:700;font-size:12.96000004px;font-family:Hind-SemiBold, Hind;fill:#ffffff"
       id="text15"
       class="cls-5"
       x="43.459999"
       y="49.849998">SQL</text>
    <text
       style="font-weight:700;font-size:8.64000034px;font-family:Hind-SemiBold, Hind;letter-spacing:-0.02em;fill:#ffffff"
       id="text17"
       class="cls-6"
       x="25.15"
       y="58.91">INJECTION</text>
    <polygon
       style="fill:none;stroke:#ffffff;stroke-width:0.75px;stroke-miterlimit:10"
       id="polygon19"
       points="34.07,24.33 37.75,18.94 52.04,28.63 48.36,34.01 "
       class="cls-7"
       transform="translate(-0.51,1.9)" />
    <polygon
       style="fill:#ffffff;stroke:#ffffff;stroke-width:0.75px;stroke-miterlimit:10"
       id="polygon21"
       points="52.72,31.01 50.83,33.78 49.3,32.75 51.2,29.98 "
       class="cls-8"
       transform="translate(-0.51,1.9)" />
    <polygon
       style="fill:#ffffff;stroke:#ffffff;stroke-width:0.75px;stroke-miterlimit:10"
       id="polygon23"
       points="51.22,33.33 52.42,31.57 54.42,32.92 53.22,34.68 "
       class="cls-8"
       transform="translate(-0.51,1.9)" />
    <polygon
       style="fill:#ffffff;stroke:#ffffff;stroke-width:0.75px;stroke-miterlimit:10"
       id="polygon25"
       points="28.22,18.92 30.6,15.44 36.84,19.66 34.46,23.14 "
       class="cls-8"
       transform="translate(-0.51,1.9)" />
    <polygon
       style="fill:#ffffff;stroke:#ffffff;stroke-width:0.75px;stroke-miterlimit:10"
       id="polygon27"
       points="32.93,24.79 37.75,17.72 38.39,18.15 33.56,25.22 "
       class="cls-8"
       transform="translate(-0.51,1.9)" />
    <polygon
       style="fill:#ffffff;stroke:#ffffff;stroke-width:0.75px;stroke-miterlimit:10"
       id="polygon29"
       points="26.84,19.49 30.63,13.95 31.26,14.38 27.48,19.92 "
       class="cls-8"
       transform="translate(-0.51,1.9)" />
    <line
       style="fill:#ffffff;stroke:#ffffff;stroke-width:0.75px;stroke-miterlimit:10"
       id="line31"
       y2="41.440002"
       x2="61.790005"
       y1="35.690002"
       x1="53.400002"
       class="cls-8" />
    <line
       style="fill:#ffffff;stroke:#ffffff;stroke-width:0.75px;stroke-miterlimit:10"
       id="line33"
       y2="26.389999"
       x2="40.550003"
       y1="29.48"
       x1="38.43"
       class="cls-8" />
    <line
       style="fill:#ffffff;stroke:#ffffff;stroke-width:0.75px;stroke-miterlimit:10"
       id="line35"
       y2="26.969999"
       x2="41.390003"
       y1="30.059999"
       x1="39.27"
       class="cls-8" />
    <line
       style="fill:#ffffff;stroke:#ffffff;stroke-width:0.75px;stroke-miterlimit:10"
       id="line37"
       y2="27.609999"
       x2="42.330002"
       y1="30.699999"
       x1="40.210003"
       class="cls-8" />
    <line
       style="fill:#ffffff;stroke:#ffffff;stroke-width:0.75px;stroke-miterlimit:10"
       id="line39"
       y2="28.190001"
       x2="43.170002"
       y1="31.279999"
       x1="41.050003"
       class="cls-8" />
  </g>
</svg>
