<svg xmlns="http://www.w3.org/2000/svg" xmlns:xlink="http://www.w3.org/1999/xlink" viewBox="0 0 96.86 84.77"><defs><style>.cls-1,.cls-7{fill:none;}.cls-2{clip-path:url(#clip-path);}.cls-3{fill:#f9b233;stroke:#f9b233;stroke-width:10px;}.cls-3,.cls-7,.cls-8{stroke-miterlimit:10;}.cls-4{fill:#d59a2c;}.cls-5{font-size:12.96px;}.cls-5,.cls-6,.cls-8,.cls-9{fill:#fff;}.cls-5,.cls-6{font-family:Hind-SemiBold, Hind;font-weight:700;}.cls-6{font-size:8.64px;letter-spacing:-0.02em;}.cls-7,.cls-8{stroke:#fff;stroke-width:0.75px;}.cls-9{opacity:0.07;}</style><clipPath id="clip-path" transform="translate(0 -0.56)"><circle class="cls-1" cx="44.53" cy="41.1" r="41.1"/></clipPath></defs><title>Element 273</title><g id="Ebene_2" data-name="Ebene 2"><g id="Ebene_2-2" data-name="Ebene 2"><g class="cls-2"><circle class="cls-3" cx="44.8" cy="40.51" r="35.51"/><path class="cls-4" d="M63.31,22.36a24.32,24.32,0,0,1,1.77,2A8.77,8.77,0,0,1,68.62,23c2.06.89,4,1.85,4,2.07s-3.05-1.08-4.13-1.38a8.56,8.56,0,0,0-3,1.18c-.1.3,0,.4,0,.4a8.7,8.7,0,0,1,1.38.59c.19.39.39,1.57.09,1.86-.09.1-.05.14-.39.2s-1.44,1.75-2.5,2.81-4.87.24-4.87.24.22,2.22.29,4.42c.39.7.89.89,2.26,1.48,2.46.29,4.83-.06,4.92.2s-4.78.57-5.21.49S60.06,37,59,36.72a10.26,10.26,0,0,0,2.26,2.85c2,.59,3.94,1.18,3.94,1.38a32.16,32.16,0,0,1-4.33-.59,25.84,25.84,0,0,1-2.27-1.72c.25.76.46,2.27,1,2.8,1.33,1.33,3,2.66,2.9,2.78a34.65,34.65,0,0,1-3.72-2.45c-.7-1.54-1.76-4.19-1.76-4.19H55.93a170,170,0,0,1,3.74,40.34c-4.25-2.12-14.62-17.79-7.46-27.87,1.2-1.69,1.33-12.21,1.33-12.21a7.77,7.77,0,0,1-2.33-1,3,3,0,0,1-.69.1c4.51,10.35-27,25.27-27,25.27s14.92-31.55,25.27-27a3,3,0,0,1,.1-.69,7.77,7.77,0,0,1-1-2.33s-10.52.13-12.21,1.33C25.54,40.62,9.87,30.25,7.75,26a169.64,169.64,0,0,1,40.34,3.75V28.68s-2.65-1.06-4.19-1.76a33.68,33.68,0,0,1-2.45-3.72c.12-.15,1.45,1.57,2.78,2.9.53.53,2,.74,2.8,1a24.43,24.43,0,0,1-1.72-2.27,32,32,0,0,1-.59-4.32c.2,0,.79,2,1.38,3.93A10.26,10.26,0,0,0,49,26.69c-.3-1.08-.69-2.06-.79-2.56s.24-5.29.49-5.21-.09,2.46.2,4.92c.59,1.38.78,1.87,1.48,2.26,2.2.07,4.42.3,4.42.3s-.82-3.82.24-4.88,2.75-2.16,2.81-2.5.1-.29.2-.39c.29-.3,1.47-.1,1.87.1a9.42,9.42,0,0,1,.59,1.37s.09.1.39,0a8.36,8.36,0,0,0,1.18-3c-.3-1.08-1.59-4.12-1.38-4.13s1.18,2,2.07,4a8.72,8.72,0,0,1-1.38,3.54C63.46,22.45,63.21,22.27,63.31,22.36Z" transform="translate(0 -0.56)"/><text class="cls-5" transform="translate(43.46 49.85)">SQL</text><text class="cls-6" transform="translate(25.15 58.91)">INJECTION</text><polygon class="cls-7" points="52.04 28.63 48.36 34.01 34.07 24.33 37.75 18.94 52.04 28.63"/><polygon class="cls-8" points="52.72 31.01 50.83 33.78 49.3 32.75 51.2 29.98 52.72 31.01"/><polygon class="cls-8" points="54.42 32.92 53.22 34.68 51.22 33.33 52.42 31.57 54.42 32.92"/><polygon class="cls-8" points="36.84 19.66 34.46 23.14 28.22 18.92 30.6 15.44 36.84 19.66"/><polygon class="cls-8" points="38.39 18.15 33.56 25.22 32.93 24.79 37.75 17.72 38.39 18.15"/><polygon class="cls-8" points="31.26 14.38 27.48 19.92 26.84 19.49 30.63 13.95 31.26 14.38"/><line class="cls-8" x1="53.91" y1="33.79" x2="62.3" y2="39.54"/><line class="cls-8" x1="38.94" y1="27.58" x2="41.06" y2="24.49"/><line class="cls-8" x1="39.78" y1="28.16" x2="41.9" y2="25.07"/><line class="cls-8" x1="40.72" y1="28.8" x2="42.84" y2="25.71"/><line class="cls-8" x1="41.56" y1="29.38" x2="43.68" y2="26.29"/><path class="cls-9" d="M61,70.06A42,42,0,0,1,26.34,4.34,42,42,0,1,0,76.68,67,41.79,41.79,0,0,1,61,70.06Z" transform="translate(0 -0.56)"/></g></g></g></svg>