<?xml version="1.0" encoding="UTF-8" standalone="no"?>
<svg
   xmlns:dc="http://purl.org/dc/elements/1.1/"
   xmlns:cc="http://creativecommons.org/ns#"
   xmlns:rdf="http://www.w3.org/1999/02/22-rdf-syntax-ns#"
   xmlns:svg="http://www.w3.org/2000/svg"
   xmlns="http://www.w3.org/2000/svg"
   xmlns:sodipodi="http://sodipodi.sourceforge.net/DTD/sodipodi-0.dtd"
   xmlns:inkscape="http://www.inkscape.org/namespaces/inkscape"
   viewBox="0 0 97.388154 97.421373"
   version="1.1"
   id="svg47"
   sodipodi:docname="sql_injection.svg"
   inkscape:version="0.92.3 (2405546, 2018-03-11)"
   width="97.388153"
   height="97.421371">
  <metadata
     id="metadata51">
    <rdf:RDF>
      <cc:Work
         rdf:about="">
        <dc:format>image/svg+xml</dc:format>
        <dc:type
           rdf:resource="http://purl.org/dc/dcmitype/StillImage" />
        <dc:title>Element 273</dc:title>
      </cc:Work>
    </rdf:RDF>
  </metadata>
  <sodipodi:namedview
     pagecolor="#ffffff"
     bordercolor="#666666"
     borderopacity="1"
     objecttolerance="10"
     gridtolerance="10"
     guidetolerance="10"
     inkscape:pageopacity="0"
     inkscape:pageshadow="2"
     inkscape:window-width="1841"
     inkscape:window-height="879"
     id="namedview49"
     showgrid="false"
     inkscape:zoom="5.568008"
     inkscape:cx="26.195074"
     inkscape:cy="55.577401"
     inkscape:window-x="79"
     inkscape:window-y="27"
     inkscape:window-maximized="1"
     inkscape:current-layer="layer6"
     fit-margin-top="0"
     fit-margin-left="0"
     fit-margin-right="0"
     fit-margin-bottom="0"
     inkscape:snap-global="false" />
  <defs
     id="defs7">
    <style
       id="style2">.cls-1,.cls-7{fill:none;}.cls-2{clip-path:url(#clip-path);}.cls-3{fill:#f9b233;stroke:#f9b233;stroke-width:10px;}.cls-3,.cls-7,.cls-8{stroke-miterlimit:10;}.cls-4{fill:#d59a2c;}.cls-5{font-size:12.96px;}.cls-5,.cls-6,.cls-8,.cls-9{fill:#fff;}.cls-5,.cls-6{font-family:Hind-SemiBold, Hind;font-weight:700;}.cls-6{font-size:8.64px;letter-spacing:-0.02em;}.cls-7,.cls-8{stroke:#fff;stroke-width:0.75px;}.cls-9{opacity:0.07;}</style>
    <clipPath
       id="clip-path"
       transform="translate(0 -0.56)">
      <circle
         class="cls-1"
         cx="44.529999"
         cy="41.099998"
         r="41.099998"
         id="circle4"
         style="fill:none" />
    </clipPath>
    <clipPath
       clipPathUnits="userSpaceOnUse"
       id="clipPath896">
      <ellipse
         style="display:inline;opacity:1;vector-effect:none;fill:none;fill-opacity:1;stroke:#000000;stroke-width:0.01134289;stroke-linecap:butt;stroke-linejoin:miter;stroke-miterlimit:4;stroke-dasharray:none;stroke-dashoffset:0;stroke-opacity:1"
         id="ellipse898"
         cx="44.053925"
         cy="40.439102"
         rx="48.71244"
         ry="48.711475" />
    </clipPath>
    <clipPath
       clipPathUnits="userSpaceOnUse"
       id="clipPath15847">
      <ellipse
         style="display:inline;opacity:1;vector-effect:none;fill:none;fill-opacity:1;stroke:#000000;stroke-width:0.01138281;stroke-linecap:butt;stroke-linejoin:miter;stroke-miterlimit:4;stroke-dasharray:none;stroke-dashoffset:0;stroke-opacity:1"
         id="ellipse15849"
         cx="44.002853"
         cy="40.387505"
         rx="48.71244"
         ry="49.054932" />
    </clipPath>
  </defs>
  <title
     id="title9">Element 273</title>
  <g
     inkscape:groupmode="layer"
     id="layer6"
     inkscape:label="button"
     transform="translate(4.7320368,8.2617482)">
    <g
       inkscape:groupmode="layer"
       id="layer9"
       inkscape:label="background">
      <g
         transform="matrix(1,0,0,0.9929985,-0.0224497,0.3434204)"
         id="g841">
        <ellipse
           style="fill:#f9b233;stroke:#f9b233;stroke-width:12.05897999px;stroke-miterlimit:10"
           id="circle11"
           cy="40.36422"
           cx="44.006042"
           class="cls-3"
           rx="42.643032"
           ry="43.000572" />
      </g>
      <path
         class="cls-4"
         d="m 66.070428,18.542421 a 27.751856,27.751856 0 0 1 2.019769,2.282225 10.007557,10.007557 0 0 1 4.039538,-1.551913 c 2.350692,1.01559 4.56445,2.111058 4.56445,2.362102 0,0.251045 -3.480393,-1.232401 -4.712795,-1.574735 a 9.767923,9.767923 0 0 0 -3.423337,1.346513 c -0.114111,0.342334 0,0.456445 0,0.456445 a 9.9276787,9.9276787 0 0 1 1.574735,0.673256 c 0.216812,0.445034 0.445034,1.791547 0.1027,2.12247 -0.1027,0.114111 -0.05706,0.159755 -0.445034,0.228222 -0.387978,0.06847 -1.643202,1.996947 -2.852781,3.206526 -1.209579,1.209579 -5.557218,0.273867 -5.557218,0.273867 0,0 0.251045,2.53327 0.330923,5.043717 0.445034,0.798779 1.01559,1.015591 2.578914,1.688847 2.807137,0.330923 5.511574,-0.06847 5.614274,0.228222 0.1027,0.29669 -5.454518,0.650435 -5.945196,0.559146 -0.490679,-0.09129 -1.597558,-0.639023 -2.807137,-0.958535 a 11.707814,11.707814 0 0 0 2.578914,3.252171 c 2.282225,0.673256 4.495983,1.346512 4.495983,1.574735 a 36.698178,36.698178 0 0 1 -4.941017,-0.673256 29.486347,29.486347 0 0 1 -2.590325,-1.962714 c 0.285278,0.867246 0.524912,2.590325 1.141112,3.195115 1.51768,1.51768 3.423338,3.035359 3.309227,3.172293 A 39.539548,39.539548 0 0 1 60.901188,40.691414 C 60.102409,38.934101 58.89283,35.910153 58.89283,35.910153 h -1.243813 a 193.98912,193.98912 0 0 1 4.267761,46.032478 C 57.06705,79.523473 45.233713,61.64224 53.404079,50.139826 c 1.369335,-1.92848 1.51768,-13.932984 1.51768,-13.932984 a 8.8664441,8.8664441 0 0 1 -2.658793,-1.141112 3.4233375,3.4233375 0 0 1 -0.787367,0.114111 c 5.146417,11.810514 -30.810038,28.835913 -30.810038,28.835913 0,0 17.025399,-36.0021 28.835913,-30.810038 a 3.4233375,3.4233375 0 0 1 0.114111,-0.787367 8.8664441,8.8664441 0 0 1 -1.141112,-2.658793 c 0,0 -12.004504,0.148345 -13.932984,1.51768 C 22.970609,39.379135 5.0893757,27.545798 2.6702172,22.69607 a 193.57832,193.57832 0 0 1 46.0324778,4.279172 v -1.22099 c 0,0 -3.023948,-1.20958 -4.781261,-2.008358 a 38.432669,38.432669 0 0 1 -2.795726,-4.244939 c 0.136934,-0.171167 1.654614,1.791547 3.172293,3.309226 0.60479,0.60479 2.282225,0.844424 3.195115,1.141113 a 27.877378,27.877378 0 0 1 -1.962713,-2.590326 36.5156,36.5156 0 0 1 -0.673257,-4.929606 c 0.228223,0 0.901479,2.282225 1.574736,4.484573 a 11.707814,11.707814 0 0 0 3.309226,2.567503 c -0.342334,-1.232402 -0.787368,-2.350692 -0.901479,-2.921248 -0.114111,-0.570557 0.273867,-6.036485 0.559145,-5.945196 0.285278,0.09129 -0.1027,2.807136 0.228223,5.614273 0.673256,1.574735 0.890067,2.13388 1.688846,2.578914 2.510448,0.07988 5.043717,0.342334 5.043717,0.342334 0,0 -0.935712,-4.35905 0.273867,-5.568629 1.20958,-1.209579 3.13806,-2.464803 3.206526,-2.852781 0.06847,-0.387978 0.114112,-0.330923 0.228223,-0.445034 0.330923,-0.342334 1.677435,-0.114111 2.13388,0.114111 a 10.74928,10.74928 0 0 1 0.673257,1.563324 c 0,0 0.1027,0.114112 0.445034,0 a 9.5397005,9.5397005 0 0 0 1.346512,-3.423337 C 64.324526,11.307767 62.85249,7.8387853 63.092124,7.8273742 c 0.239634,-0.011411 1.346513,2.2822248 2.362103,4.5644498 a 9.950501,9.950501 0 0 1 -1.574735,4.039538 c 2.362103,2.213759 2.076824,2.008358 2.190936,2.111059 z"
         id="path13"
         inkscape:connector-curvature="0"
         style="fill:#d59a2c;stroke-width:1.14111245" />
    </g>
    <g
       inkscape:groupmode="layer"
       id="layer8"
       inkscape:label="content">
      <text
         y="55.403328"
         x="39.363663"
         class="cls-5"
         id="text15"
         style="font-weight:700;font-size:17.88159561px;font-family:Hind-SemiBold, Hind;fill:#ffffff;stroke-width:1.37975264">SQL</text>
      <text
         y="67.117386"
         x="16.604305"
         class="cls-6"
         id="text17"
         style="font-weight:700;font-size:11.92106342px;font-family:Hind-SemiBold, Hind;letter-spacing:-0.02em;fill:#ffffff;stroke-width:1.37975264">INJECTION</text>
      <g
         id="g939"
         transform="matrix(0.94512097,0,0,0.94512097,0.4011451,3.2848928)">
        <polygon
           style="fill:none;stroke:#ffffff;stroke-width:0.75px;stroke-miterlimit:10"
           id="polygon19"
           points="52.04,28.63 48.36,34.01 34.07,24.33 37.75,18.94 "
           class="cls-7"
           transform="matrix(1.3797527,0,0,1.3797527,-17.869862,-11.542315)" />
        <polygon
           style="fill:#ffffff;stroke:#ffffff;stroke-width:0.75px;stroke-miterlimit:10"
           id="polygon21"
           points="49.3,32.75 51.2,29.98 52.72,31.01 50.83,33.78 "
           class="cls-8"
           transform="matrix(1.3797527,0,0,1.3797527,-17.869862,-11.542315)" />
        <polygon
           style="fill:#ffffff;stroke:#ffffff;stroke-width:0.75px;stroke-miterlimit:10"
           id="polygon23"
           points="54.42,32.92 53.22,34.68 51.22,33.33 52.42,31.57 "
           class="cls-8"
           transform="matrix(1.3797527,0,0,1.3797527,-17.869862,-11.542315)" />
        <polygon
           style="fill:#ffffff;stroke:#ffffff;stroke-width:0.75px;stroke-miterlimit:10"
           id="polygon25"
           points="36.84,19.66 34.46,23.14 28.22,18.92 30.6,15.44 "
           class="cls-8"
           transform="matrix(1.3797527,0,0,1.3797527,-17.869862,-11.542315)" />
        <polygon
           style="fill:#ffffff;stroke:#ffffff;stroke-width:0.75px;stroke-miterlimit:10"
           id="polygon27"
           points="38.39,18.15 33.56,25.22 32.93,24.79 37.75,17.72 "
           class="cls-8"
           transform="matrix(1.3797527,0,0,1.3797527,-17.869862,-11.542315)" />
        <polygon
           style="fill:#ffffff;stroke:#ffffff;stroke-width:0.75px;stroke-miterlimit:10"
           id="polygon29"
           points="31.26,14.38 27.48,19.92 26.84,19.49 30.63,13.95 "
           class="cls-8"
           transform="matrix(1.3797527,0,0,1.3797527,-17.869862,-11.542315)" />
        <line
           style="fill:#ffffff;stroke:#ffffff;stroke-width:1.03481448px;stroke-miterlimit:10"
           id="line31"
           y2="43.013107"
           x2="68.088737"
           y1="35.079529"
           x1="56.512608"
           class="cls-8" />
        <line
           style="fill:#ffffff;stroke:#ffffff;stroke-width:1.03481448px;stroke-miterlimit:10"
           id="line33"
           y2="22.247828"
           x2="38.782784"
           y1="26.511263"
           x1="35.857708"
           class="cls-8" />
        <line
           style="fill:#ffffff;stroke:#ffffff;stroke-width:1.03481448px;stroke-miterlimit:10"
           id="line35"
           y2="23.048082"
           x2="39.94178"
           y1="27.31152"
           x1="37.016701"
           class="cls-8" />
        <line
           style="fill:#ffffff;stroke:#ffffff;stroke-width:1.03481448px;stroke-miterlimit:10"
           id="line37"
           y2="23.931126"
           x2="41.238747"
           y1="28.194559"
           x1="38.313671"
           class="cls-8" />
        <line
           style="fill:#ffffff;stroke:#ffffff;stroke-width:1.03481448px;stroke-miterlimit:10"
           id="line39"
           y2="24.731382"
           x2="42.397739"
           y1="28.994818"
           x1="39.47266"
           class="cls-8" />
      </g>
    </g>
    <g
       inkscape:groupmode="layer"
       id="layer7"
       inkscape:label="gleam">
      <path
         style="opacity:0.15;fill:#ffffff;stroke-width:1.20589793"
         inkscape:connector-curvature="0"
         id="path41"
         d="M 63.4602,75.469453 A 50.436711,50.859596 0 0 1 21.837904,-4.1137062 50.436711,50.859596 0 1 0 82.289904,71.763969 50.184528,50.605297 0 0 1 63.4602,75.469453 Z"
         class="cls-9"
         transform="matrix(1,0,0,0.9929985,-0.0224497,0.3434204)"
         clip-path="url(#clipPath15847)" />
    </g>
  </g>
</svg>
