<?xml version="1.0" encoding="UTF-8" standalone="no"?>
<svg
   xmlns:dc="http://purl.org/dc/elements/1.1/"
   xmlns:cc="http://creativecommons.org/ns#"
   xmlns:rdf="http://www.w3.org/1999/02/22-rdf-syntax-ns#"
   xmlns:svg="http://www.w3.org/2000/svg"
   xmlns="http://www.w3.org/2000/svg"
   xmlns:sodipodi="http://sodipodi.sourceforge.net/DTD/sodipodi-0.dtd"
   xmlns:inkscape="http://www.inkscape.org/namespaces/inkscape"
   viewBox="0 0 83.149607 83.149603"
   version="1.1"
   id="svg441"
   sodipodi:docname="storage-security.svg"
   inkscape:version="0.92.3 (2405546, 2018-03-11)"
   width="2.2cm"
   height="2.2cm">
  <metadata
     id="metadata445">
    <rdf:RDF>
      <cc:Work
         rdf:about="">
        <dc:format>image/svg+xml</dc:format>
        <dc:type
           rdf:resource="http://purl.org/dc/dcmitype/StillImage" />
        <dc:title>Element 267</dc:title>
      </cc:Work>
    </rdf:RDF>
  </metadata>
  <sodipodi:namedview
     pagecolor="#ffffff"
     bordercolor="#666666"
     borderopacity="1"
     objecttolerance="10"
     gridtolerance="10"
     guidetolerance="10"
     inkscape:pageopacity="0"
     inkscape:pageshadow="2"
     inkscape:window-width="1841"
     inkscape:window-height="879"
     id="namedview443"
     showgrid="false"
     inkscape:zoom="4.7031158"
     inkscape:cx="21.29332"
     inkscape:cy="65.824401"
     inkscape:window-x="79"
     inkscape:window-y="27"
     inkscape:window-maximized="1"
     inkscape:current-layer="g1195"
     units="cm"
     inkscape:snap-global="false" />
  <defs
     id="defs393">
    <style
       id="style388">.cls-1,.cls-11{fill:none;}.cls-2{clip-path:url(#clip-path);}.cls-3{fill:#0081c5;stroke:#0081c5;stroke-width:10px;}.cls-10,.cls-11,.cls-12,.cls-13,.cls-3,.cls-9{stroke-miterlimit:10;}.cls-4{fill:#1d65a4;}.cls-12,.cls-13,.cls-5,.cls-7{fill:#fff;}.cls-5{opacity:0.15;}.cls-6{fill:#1d1d1b;}.cls-7{font-size:12px;font-family:Hind-Bold, Hind;font-weight:700;}.cls-8,.cls-9{fill:#dadada;}.cls-12,.cls-13,.cls-9{stroke:#fff;}.cls-9{stroke-width:2px;}.cls-10{fill:#e30613;}.cls-10,.cls-11{stroke:#e30613;}.cls-12{stroke-width:0.75px;}.cls-13{stroke-width:0.5px;}</style>
    <clipPath
       id="clip-path">
      <circle
         class="cls-1"
         cx="94.949997"
         cy="42.689999"
         r="41.099998"
         id="circle390"
         style="fill:none" />
    </clipPath>
  </defs>
  <title
     id="title395">Element 267</title>
  <g
     id="Ebene_2"
     data-name="Ebene 2"
     transform="translate(0,-4.7904029)">
    <g
       id="Ebene_2-2"
       data-name="Ebene 2">
      <text
         id="text403"
         x="-53.15625"
         y="3.82725" />
      <text
         id="text405"
         x="-53.15625"
         y="3.82725" />
      <g
         id="g1195">
        <circle
           class="cls-3"
           cx="41.953751"
           cy="46.937252"
           r="35.98"
           id="circle397"
           style="fill:#0081c5;stroke:#0081c5;stroke-width:10px;stroke-miterlimit:10" />
        <path
           class="cls-4"
           d="m 60.133749,28.54725 a 15.38,15.38 0 0 1 1.71,1.93 8.45,8.45 0 0 1 3.48,-1.35 c 2,0.87 4,1.81 4,2 0,0.19 -3,-1.07 -4.06,-1.36 a 8.16,8.16 0 0 0 -2.89,1.16 c -0.1,0.29 0,0.39 0,0.39 a 8.61,8.61 0 0 1 1.35,0.58 c 0.19,0.38 0.38,1.54 0.1,1.83 -0.1,0.1 -0.06,0.14 -0.39,0.2 -0.33,0.06 -1.41,1.71 -2.46,2.76 -1.05,1.05 -4.79,0.23 -4.79,0.23 0,0 0.22,2.18 0.29,4.35 0.38,0.69 0.87,0.87 2.22,1.45 2.42,0.29 4.75,-0.06 4.84,0.19 0.09,0.25 -4.7,0.57 -5.12,0.48 -0.42,-0.09 -1.45,-0.48 -2.52,-0.77 a 10,10 0 0 0 2.23,2.8 c 1.93,0.58 3.86,1.16 3.86,1.36 a 32.61,32.61 0 0 1 -4.25,-0.58 24.94,24.94 0 0 1 -2.23,-1.69 c 0.25,0.74 0.45,2.23 1,2.75 1.31,1.3 3,2.61 2.85,2.73 a 33.4,33.4 0 0 1 -3.65,-2.41 c -0.69,-1.51 -1.73,-4.12 -1.73,-4.12 h -1 a 166.83,166.83 0 0 1 3.68,39.64 c -4.17,-2.09 -14.37,-17.48 -7.33,-27.39 1.18,-1.65 1.31,-12 1.31,-12 a 7.9,7.9 0 0 1 -2.29,-1 2.81,2.81 0 0 1 -0.67,0.09 c 4.43,10.17 -26.57,24.83 -26.57,24.83 0,0 14.57,-30.96 24.74,-26.52 a 2.82,2.82 0 0 1 0.09,-0.68 7.9,7.9 0 0 1 -1,-2.29 c 0,0 -10.33,0.13 -12,1.31 -9.91,7 -25.3,-3.16 -27.39,-7.33 a 167.45,167.45 0 0 1 39.65,3.71 v -1 c 0,0 -2.61,-1.05 -4.12,-1.74 a 33.4,33.4 0 0 1 -2.41,-3.65 c 0.12,-0.15 1.43,1.54 2.73,2.85 0.52,0.52 2,0.72 2.76,1 a 23.21,23.21 0 0 1 -1.7,-2.23 31,31 0 0 1 -0.61,-4.35 c 0.19,0 0.77,1.93 1.35,3.87 a 10.13,10.13 0 0 0 2.84,2.25 c -0.29,-1.07 -0.68,-2 -0.77,-2.51 -0.09,-0.51 0.23,-5.21 0.48,-5.12 0.25,0.09 -0.1,2.41 0.19,4.83 0.58,1.35 0.77,1.84 1.45,2.22 2.17,0.07 4.35,0.29 4.35,0.29 0,0 -0.81,-3.75 0.24,-4.79 1.05,-1.04 2.7,-2.13 2.75,-2.46 0.05,-0.33 0.1,-0.29 0.2,-0.38 0.29,-0.29 1.45,-0.1 1.83,0.09 a 9.05,9.05 0 0 1 0.58,1.35 c 0,0 0.1,0.1 0.39,0 a 8.16,8.16 0 0 0 1.12,-2.92 c -0.29,-1.07 -1.57,-4.05 -1.35,-4.06 0.22,-0.01 1.15,1.93 2,4 a 8.4,8.4 0 0 1 -1.29,3.46 15.38,15.38 0 0 1 1.93,1.72 z"
           id="path399"
           inkscape:connector-curvature="0"
           style="fill:#1d65a4" />
        <path
           class="cls-5"
           d="m 58.373749,76.30725 a 42.54,42.54 0 0 1 -35.12,-66.58 42.55,42.55 0 1 0 51,63.51 42.43,42.43 0 0 1 -15.88,3.07 z"
           id="path401"
           inkscape:connector-curvature="0"
           style="opacity:0.15;fill:#ffffff" />
        <text
           y="59.407249"
           x="14.503749"
           class="cls-7"
           id="text413"
           style="font-weight:700;font-size:9.33333397px;font-family:Hind-Bold, Hind;fill:#ffffff">STORAGE <tspan
   x="15.423749"
   y="70.407249"
   id="tspan411"
   style="font-size:9.33333397px">SECURITY</tspan>
</text>
        <rect
           style="fill:#dadada"
           id="rect417"
           height="4.9200001"
           width="30.09"
           y="19.07725"
           x="25.933744"
           class="cls-8" />
        <path
           style="fill:#dadada;stroke:#ffffff;stroke-width:2px;stroke-miterlimit:10"
           inkscape:connector-curvature="0"
           id="path419"
           d="m 57.103749,44.57725 c 0,0 -5.33,1.92 -15.74,2 -10.41,0.08 -15.78,-2 -15.78,-2 v -23.67 a 74.29,74.29 0 0 0 15.78,2 76.59,76.59 0 0 0 15.74,-2 z"
           class="cls-9" />
        <path
           style="fill:#dadada;stroke:#ffffff;stroke-width:2px;stroke-miterlimit:10"
           inkscape:connector-curvature="0"
           id="path421"
           d="m 25.443749,26.59725 a 74.32,74.32 0 0 0 15.79,2 76.72,76.72 0 0 0 15.74,-2"
           class="cls-9" />
        <path
           style="fill:#dadada;stroke:#ffffff;stroke-width:2px;stroke-miterlimit:10"
           inkscape:connector-curvature="0"
           id="path423"
           d="m 25.443749,32.09725 a 74.32,74.32 0 0 0 15.79,2 76.72,76.72 0 0 0 15.74,-2"
           class="cls-9" />
        <path
           style="fill:#dadada;stroke:#ffffff;stroke-width:2px;stroke-miterlimit:10"
           inkscape:connector-curvature="0"
           id="path425"
           d="m 25.443749,37.47725 a 74.32,74.32 0 0 0 15.79,2 76.72,76.72 0 0 0 15.74,-2"
           class="cls-9" />
        <path
           style="fill:#dadada;stroke:#ffffff;stroke-width:2px;stroke-miterlimit:10"
           inkscape:connector-curvature="0"
           id="path427"
           d="m 58.263749,20.13725 a 85.22,85.22 0 0 0 -16.94,-2 88.06,88.06 0 0 0 -16.9,2"
           class="cls-9" />
        <g
           id="g5565"
           transform="translate(0.42525,1.27575)">
          <rect
             class="cls-10"
             x="32.992001"
             y="27.976191"
             width="15.351749"
             height="14.731059"
             rx="5.2551808"
             ry="5.2551808"
             id="rect429"
             style="fill:#e30613;stroke:#e30613;stroke-width:2.06896901;stroke-miterlimit:10" />
          <path
             class="cls-11"
             d="m 36.860973,28.141702 c 0,-9.268981 7.593116,-9.227601 7.593116,0"
             id="path431"
             inkscape:connector-curvature="0"
             style="fill:none;stroke:#e30613;stroke-width:2.06896901;stroke-miterlimit:10" />
          <circle
             class="cls-12"
             cx="40.585114"
             cy="33.769299"
             r="1.2620711"
             id="circle435"
             style="fill:#ffffff;stroke:#ffffff;stroke-width:1.5517267px;stroke-miterlimit:10" />
          <rect
             class="cls-13"
             x="39.819603"
             y="34.948612"
             width="1.593106"
             height="3.0413845"
             rx="0.78620821"
             ry="0.78620821"
             id="rect437"
             style="fill:#ffffff;stroke:#ffffff;stroke-width:1.03448451px;stroke-miterlimit:10" />
        </g>
      </g>
    </g>
  </g>
</svg>
