<?xml version="1.0" encoding="UTF-8" standalone="no"?>
<svg
   xmlns:dc="http://purl.org/dc/elements/1.1/"
   xmlns:cc="http://creativecommons.org/ns#"
   xmlns:rdf="http://www.w3.org/1999/02/22-rdf-syntax-ns#"
   xmlns:svg="http://www.w3.org/2000/svg"
   xmlns="http://www.w3.org/2000/svg"
   xmlns:sodipodi="http://sodipodi.sourceforge.net/DTD/sodipodi-0.dtd"
   xmlns:inkscape="http://www.inkscape.org/namespaces/inkscape"
   viewBox="0 0 102.04724 102.04724"
   version="1.1"
   id="svg441"
   sodipodi:docname="storage-security.svg"
   inkscape:version="0.92.3 (2405546, 2018-03-11)"
   width="2.7cm"
   height="2.7cm">
  <metadata
     id="metadata445">
    <rdf:RDF>
      <cc:Work
         rdf:about="">
        <dc:format>image/svg+xml</dc:format>
        <dc:type
           rdf:resource="http://purl.org/dc/dcmitype/StillImage" />
        <dc:title>Element 267</dc:title>
      </cc:Work>
    </rdf:RDF>
  </metadata>
  <sodipodi:namedview
     pagecolor="#ffffff"
     bordercolor="#666666"
     borderopacity="1"
     objecttolerance="10"
     gridtolerance="10"
     guidetolerance="10"
     inkscape:pageopacity="0"
     inkscape:pageshadow="2"
     inkscape:window-width="1841"
     inkscape:window-height="879"
     id="namedview443"
     showgrid="false"
     inkscape:zoom="3.3256051"
     inkscape:cx="1.0234711"
     inkscape:cy="39.019631"
     inkscape:window-x="79"
     inkscape:window-y="27"
     inkscape:window-maximized="1"
     inkscape:current-layer="g1195"
     units="cm"
     inkscape:snap-global="false" />
  <defs
     id="defs393">
    <style
       id="style388">.cls-1,.cls-11{fill:none;}.cls-2{clip-path:url(#clip-path);}.cls-3{fill:#0081c5;stroke:#0081c5;stroke-width:10px;}.cls-10,.cls-11,.cls-12,.cls-13,.cls-3,.cls-9{stroke-miterlimit:10;}.cls-4{fill:#1d65a4;}.cls-12,.cls-13,.cls-5,.cls-7{fill:#fff;}.cls-5{opacity:0.15;}.cls-6{fill:#1d1d1b;}.cls-7{font-size:12px;font-family:Hind-Bold, Hind;font-weight:700;}.cls-8,.cls-9{fill:#dadada;}.cls-12,.cls-13,.cls-9{stroke:#fff;}.cls-9{stroke-width:2px;}.cls-10{fill:#e30613;}.cls-10,.cls-11{stroke:#e30613;}.cls-12{stroke-width:0.75px;}.cls-13{stroke-width:0.5px;}</style>
    <clipPath
       id="clip-path">
      <circle
         class="cls-1"
         cx="94.949997"
         cy="42.689999"
         r="41.099998"
         id="circle390"
         style="fill:none" />
    </clipPath>
  </defs>
  <title
     id="title395">Element 267</title>
  <g
     id="Ebene_2"
     data-name="Ebene 2"
     transform="translate(0,14.10723)">
    <g
       id="Ebene_2-2"
       data-name="Ebene 2">
      <text
         id="text403"
         x="-53.15625"
         y="3.82725" />
      <text
         id="text405"
         x="-53.15625"
         y="3.82725" />
      <g
         id="g1195">
        <circle
           class="cls-3"
           cx="50.206234"
           cy="38.784424"
           r="42.5261"
           id="circle397"
           style="fill:#0081c5;stroke:#0081c5;stroke-width:11.81937218px;stroke-miterlimit:10" />
        <path
           class="cls-4"
           d="m 75.335209,13.646593 a 18.178195,18.178195 0 0 1 2.021113,2.281137 9.9873698,9.9873698 0 0 1 4.113141,-1.595614 c 2.363875,1.028285 4.72775,2.139306 4.72775,2.363875 0,0.224567 -3.545812,-1.264673 -4.798666,-1.607436 a 9.6446081,9.6446081 0 0 0 -3.415798,1.371048 c -0.118194,0.342762 0,0.460955 0,0.460955 a 10.17648,10.17648 0 0 1 1.595615,0.685524 c 0.224568,0.449136 0.449136,1.820183 0.118194,2.162945 -0.118194,0.118194 -0.07092,0.165472 -0.460956,0.236388 -0.390039,0.07092 -1.666531,2.021113 -2.907566,3.262146 -1.241034,1.241034 -5.661478,0.271846 -5.661478,0.271846 0,0 0.260025,2.576624 0.34276,5.141427 0.449137,0.815537 1.028286,1.028285 2.623902,1.71381 2.860288,0.34276 5.614201,-0.07092 5.720575,0.224568 0.106376,0.295483 -5.555104,0.673704 -6.051518,0.567329 -0.496413,-0.106376 -1.713809,-0.567329 -2.978482,-0.910091 a 11.819373,11.819373 0 0 0 2.63572,3.309424 c 2.281139,0.685523 4.562278,1.371046 4.562278,1.607434 A 38.542974,38.542974 0 0 1 72.49856,34.507785 29.477515,29.477515 0 0 1 69.862839,32.510311 c 0.295485,0.874634 0.531873,2.63572 1.181938,3.250328 1.548338,1.536518 3.545812,3.084856 3.368521,3.226689 a 39.476705,39.476705 0 0 1 -4.314071,-2.84847 c -0.815536,-1.784725 -2.044751,-4.869581 -2.044751,-4.869581 h -1.181938 a 197.1826,197.1826 0 0 1 4.349529,46.851992 C 66.293389,75.651021 54.237629,57.461006 62.558467,45.748008 63.953153,43.797812 64.106805,31.564762 64.106805,31.564762 A 9.3373044,9.3373044 0 0 1 61.400168,30.382824 3.3212438,3.3212438 0 0 1 60.608271,30.4892 c 5.235982,12.020301 -31.404073,29.347502 -31.404073,29.347502 0,0 17.220826,-36.592779 29.241127,-31.344976 a 3.333063,3.333063 0 0 1 0.106376,-0.803718 9.3373044,9.3373044 0 0 1 -1.181937,-2.706636 c 0,0 -12.209411,0.153652 -14.183247,1.548337 -11.712999,8.273561 -29.903014,-3.734922 -32.373263,-8.6636 a 197.9154,197.9154 0 0 1 46.863813,4.384986 v -1.181936 c 0,0 -3.084857,-1.241035 -4.869581,-2.056572 a 39.476705,39.476705 0 0 1 -2.84847,-4.31407 c 0.141833,-0.177291 1.690171,1.820183 3.226689,3.36852 0.614608,0.614608 2.363875,0.850996 3.262147,1.181937 a 27.432764,27.432764 0 0 1 -2.009294,-2.635719 36.640055,36.640055 0 0 1 -0.720981,-5.141427 c 0.224567,0 0.910092,2.281138 1.595615,4.574096 a 11.973025,11.973025 0 0 0 3.356702,2.65936 c -0.342762,-1.264673 -0.803717,-2.363875 -0.910092,-2.966662 -0.106376,-0.602789 0.271846,-6.157895 0.56733,-6.05152 0.295484,0.106376 -0.118194,2.84847 0.224568,5.708757 0.685523,1.595615 0.910091,2.174765 1.713808,2.6239 2.564805,0.08274 5.141429,0.342763 5.141429,0.342763 0,0 -0.957371,-4.432265 0.283664,-5.66148 1.241034,-1.229214 3.19123,-2.517526 3.250327,-2.907566 0.0591,-0.390038 0.118194,-0.342761 0.236388,-0.449135 0.342762,-0.342762 1.713809,-0.118194 2.162945,0.106376 a 10.696532,10.696532 0 0 1 0.685523,1.595614 c 0,0 0.118194,0.118194 0.460957,0 a 9.6446081,9.6446081 0 0 0 1.32377,-3.451257 C 73.467748,6.3304024 71.954868,2.808229 72.214895,2.7964096 c 0.260026,-0.011805 1.359228,2.2811391 2.363874,4.7277484 a 9.928273,9.928273 0 0 1 -1.524699,4.089504 18.178195,18.178195 0 0 1 2.281139,2.032932 z"
           id="path399"
           inkscape:connector-curvature="0"
           style="fill:#1d65a4;stroke-width:1.18193722" />
        <path
           class="cls-5"
           d="M 69.613645,73.497916 A 50.279611,50.279611 0 0 1 28.104008,-5.1954667 50.29143,50.29143 0 1 0 88.382809,69.869369 50.149597,50.149597 0 0 1 69.613645,73.497916 Z"
           id="path401"
           inkscape:connector-curvature="0"
           style="opacity:0.15;fill:#ffffff;stroke-width:1.18193722" />
        <text
           y="53.523178"
           x="49.039055"
           class="cls-7"
           id="text413"
           style="font-weight:700;font-size:11.03141499px;font-family:Hind-Bold, Hind;text-align:center;text-anchor:middle;fill:#ffffff;stroke-width:1.18193722" />
        <rect
           style="fill:#dadada;stroke-width:1.18193722"
           id="rect417"
           height="5.8151317"
           width="35.564495"
           y="5.8556452"
           x="31.271595"
           class="cls-8" />
        <path
           style="fill:#dadada;stroke:#ffffff;stroke-width:2.36387444px;stroke-miterlimit:10"
           inkscape:connector-curvature="0"
           id="path419"
           d="m 68.112586,35.995047 c 0,0 -6.299726,2.269318 -18.603694,2.363873 C 37.204926,38.45348 30.857923,35.995047 30.857923,35.995047 V 8.0185912 A 87.80612,87.80612 0 0 0 49.508892,10.382466 90.524575,90.524575 0 0 0 68.112586,8.0185912 Z"
           class="cls-9" />
        <path
           style="fill:#dadada;stroke:#ffffff;stroke-width:2.36387444px;stroke-miterlimit:10"
           inkscape:connector-curvature="0"
           id="path421"
           d="M 30.692451,14.743815 A 87.841578,87.841578 0 0 0 49.35524,17.10769 90.678227,90.678227 0 0 0 67.958934,14.743815"
           class="cls-9" />
        <path
           style="fill:#dadada;stroke:#ffffff;stroke-width:2.36387444px;stroke-miterlimit:10"
           inkscape:connector-curvature="0"
           id="path423"
           d="M 30.692451,21.24447 A 87.841578,87.841578 0 0 0 49.35524,23.608343 90.678227,90.678227 0 0 0 67.958934,21.24447"
           class="cls-9" />
        <path
           style="fill:#dadada;stroke:#ffffff;stroke-width:2.36387444px;stroke-miterlimit:10"
           inkscape:connector-curvature="0"
           id="path425"
           d="M 30.692451,27.603292 A 87.841578,87.841578 0 0 0 49.35524,29.967166 90.678227,90.678227 0 0 0 67.958934,27.603292"
           class="cls-9" />
        <path
           style="fill:#dadada;stroke:#ffffff;stroke-width:2.36387444px;stroke-miterlimit:10"
           inkscape:connector-curvature="0"
           id="path427"
           d="M 69.289801,7.0968229 C 68.206172,7.0988456 68.059048,6.8013725 67.344611,6.6594712 66.589501,6.5094912 65.83284,6.3682023 65.074781,6.2356221 59.919302,5.3339583 54.699124,4.8350951 49.461615,4.7446249 46.102141,4.8152428 42.750034,5.0484652 39.417008,5.4429063 37.566202,5.6619366 35.721279,5.9306788 33.884244,6.2488954 32.958875,6.4091906 32.036354,6.5862989 31.114397,6.7674122 30.557798,6.876753 30.420589,7.116697 29.686211,7.1284333"
           class="cls-9"
           sodipodi:nodetypes="csscsssc" />
        <g
           id="g5565"
           transform="matrix(1.1819373,0,0,1.1819373,1.1221553,-15.184611)">
          <rect
             class="cls-10"
             x="32.992001"
             y="27.976191"
             width="15.351749"
             height="14.731059"
             rx="5.2551808"
             ry="5.2551808"
             id="rect429"
             style="fill:#e30613;stroke:#e30613;stroke-width:2.06896901;stroke-miterlimit:10" />
          <path
             class="cls-11"
             d="m 36.860973,28.141702 c 0,-9.268981 7.593116,-9.227601 7.593116,0"
             id="path431"
             inkscape:connector-curvature="0"
             style="fill:none;stroke:#e30613;stroke-width:2.06896901;stroke-miterlimit:10" />
          <circle
             class="cls-12"
             cx="40.585114"
             cy="33.769299"
             r="1.2620711"
             id="circle435"
             style="fill:#ffffff;stroke:#ffffff;stroke-width:1.5517267px;stroke-miterlimit:10" />
          <rect
             class="cls-13"
             x="39.819603"
             y="34.948612"
             width="1.593106"
             height="3.0413845"
             rx="0.78620821"
             ry="0.78620821"
             id="rect437"
             style="fill:#ffffff;stroke:#ffffff;stroke-width:1.03448451px;stroke-miterlimit:10" />
        </g>
        <text
           xml:space="preserve"
           style="font-style:normal;font-weight:normal;font-size:40px;line-height:1.25;font-family:sans-serif;letter-spacing:0px;word-spacing:0px;fill:#000000;fill-opacity:1;stroke:none"
           x="23.593971"
           y="53.601082"
           id="text41"><tspan
             sodipodi:role="line"
             id="tspan39"
             x="23.593971"
             y="53.601082"
             style="font-style:normal;font-variant:normal;font-weight:600;font-stretch:normal;font-size:12px;font-family:Hind;-inkscape-font-specification:'Hind Semi-Bold';fill:#ffffff">STORAGE</tspan></text>
        <text
           xml:space="preserve"
           style="font-style:normal;font-weight:normal;font-size:40px;line-height:1.25;font-family:sans-serif;letter-spacing:0px;word-spacing:0px;fill:#000000;fill-opacity:1;stroke:none"
           x="22.872002"
           y="64.579384"
           id="text41-3"><tspan
             sodipodi:role="line"
             id="tspan39-6"
             x="22.872002"
             y="64.579384"
             style="font-style:normal;font-variant:normal;font-weight:600;font-stretch:normal;font-size:12px;font-family:Hind;-inkscape-font-specification:'Hind Semi-Bold';fill:#ffffff">SECURITY</tspan></text>
      </g>
    </g>
  </g>
</svg>
