<?xml version="1.0" encoding="UTF-8" standalone="no"?>
<!-- Created with Inkscape (http://www.inkscape.org/) -->

<svg
   width="19.334957mm"
   height="19.334957mm"
   viewBox="0 0 19.334957 19.334957"
   version="1.1"
   id="svg4331"
   inkscape:version="1.1.1 (c3084ef, 2021-09-22)"
   sodipodi:docname="Supplychain Attack.svg"
   xmlns:inkscape="http://www.inkscape.org/namespaces/inkscape"
   xmlns:sodipodi="http://sodipodi.sourceforge.net/DTD/sodipodi-0.dtd"
   xmlns="http://www.w3.org/2000/svg"
   xmlns:svg="http://www.w3.org/2000/svg">
  <sodipodi:namedview
     id="namedview4333"
     pagecolor="#ffffff"
     bordercolor="#666666"
     borderopacity="1.0"
     inkscape:pageshadow="2"
     inkscape:pageopacity="0.0"
     inkscape:pagecheckerboard="0"
     inkscape:document-units="mm"
     showgrid="false"
     inkscape:zoom="3.9761067"
     inkscape:cx="42.378138"
     inkscape:cy="26.030489"
     inkscape:window-width="1312"
     inkscape:window-height="715"
     inkscape:window-x="54"
     inkscape:window-y="25"
     inkscape:window-maximized="0"
     inkscape:current-layer="circle129-7-9" />
  <defs
     id="defs4328">
    <clipPath
       id="_clip1">
      <rect
         x="20.216999"
         y="84.893997"
         width="30"
         height="25.981001"
         id="rect4032" />
    </clipPath>
    <clipPath
       id="_clip2">
      <rect
         x="20.216999"
         y="84.893997"
         width="30"
         height="25.981001"
         id="rect4049" />
    </clipPath>
  </defs>
  <g
     inkscape:label="Layer 1"
     inkscape:groupmode="layer"
     id="layer1"
     transform="translate(-115.44022,-57.395496)">
    <g
       transform="matrix(0.26458333,0,0,0.26458333,115.44022,5.3329046)"
       id="g2791"
       style="clip-rule:evenodd;fill-rule:evenodd;stroke-linejoin:round;stroke-miterlimit:2">
      <g
         id="Supplychain-Attack"
         transform="translate(0,196.772)">
        <rect
           x="0"
           y="0"
           width="73.077003"
           height="73.077003"
           style="fill:none"
           id="rect2612" />
        <g
           id="button-3"
           transform="translate(-215.713,-286.28)">
          <g
             id="background-7"
             transform="translate(215.713,286.28)">
            <g
               id="circle129-7-9"
               transform="translate(-215.713,-286.28)">
              <ellipse
                 cx="252.25101"
                 cy="322.81799"
                 style="fill:#711194;fill-opacity:1"
                 id="ellipse2614"
                 rx="32.080631"
                 ry="32.080002" />
            </g>
            <g
               transform="translate(-215.713,-286.28)"
               id="g2619">
              <path
                 d="m 252.251,286.28 c -20.165,0 -36.537,16.372 -36.537,36.538 0,20.166 16.372,36.538 36.537,36.538 20.166,0 36.537,-16.372 36.537,-36.538 0,-20.166 -16.371,-36.538 -36.537,-36.538 z m 0,8.915 c 15.245,0 27.622,12.378 27.622,27.623 0,15.246 -12.377,27.623 -27.622,27.623 -15.245,0 -27.622,-12.377 -27.622,-27.623 0,-15.245 12.377,-27.623 27.622,-27.623 z"
                 style="fill:#711194"
                 id="path2617" />
            </g>
            <g
               id="path131-3-0"
               transform="translate(-246.356,-406.822)">
              <path
                 d="m 300.718,425.445 c 0.555,0.53 1.065,1.106 1.525,1.721 0.931,-0.627 1.991,-1.039 3.102,-1.203 1.784,0.775 3.567,1.613 3.567,1.783 0,0.169 -2.675,-0.954 -3.62,-1.213 -0.917,0.176 -1.792,0.527 -2.577,1.034 -0.089,0.259 0,0.348 0,0.348 0.415,0.138 0.818,0.311 1.204,0.517 0.169,0.339 0.339,1.373 0.089,1.632 -0.089,0.089 -0.054,0.125 -0.348,0.178 -0.294,0.054 -1.257,1.525 -2.193,2.461 -0.937,0.936 -4.271,0.205 -4.271,0.205 0,0 0.196,1.944 0.258,3.879 0.339,0.615 0.776,0.775 1.98,1.292 2.157,0.259 4.235,-0.053 4.315,0.17 0.08,0.223 -4.19,0.508 -4.565,0.428 -0.374,-0.08 -1.293,-0.428 -2.247,-0.687 0.507,0.945 1.181,1.791 1.988,2.497 1.721,0.517 3.442,1.034 3.442,1.213 -1.273,-0.089 -2.539,-0.262 -3.789,-0.518 -0.691,-0.464 -1.354,-0.967 -1.989,-1.506 0.223,0.659 0.402,1.988 0.892,2.452 1.168,1.159 2.675,2.327 2.541,2.434 -1.13,-0.645 -2.218,-1.363 -3.254,-2.149 -0.615,-1.346 -1.543,-3.674 -1.543,-3.674 h -0.891 c 2.5,11.608 3.602,23.474 3.281,35.344 -3.718,-1.863 -12.813,-15.585 -6.536,-24.421 1.052,-1.471 1.168,-10.7 1.168,-10.7 -0.723,-0.187 -1.413,-0.488 -2.042,-0.891 -0.195,0.05 -0.395,0.077 -0.597,0.08 3.95,9.068 -23.69,22.139 -23.69,22.139 0,0 12.991,-27.605 22.058,-23.646 0.002,-0.205 0.029,-0.408 0.081,-0.606 -0.404,-0.629 -0.705,-1.318 -0.892,-2.042 0,0 -9.21,0.116 -10.699,1.168 -8.836,6.241 -22.558,-2.818 -24.422,-6.536 11.874,-0.307 23.742,0.803 35.353,3.308 v -0.891 c 0,0 -2.327,-0.936 -3.674,-1.552 -0.786,-1.036 -1.504,-2.124 -2.148,-3.254 0.106,-0.134 1.275,1.373 2.434,2.541 0.463,0.464 1.783,0.642 2.461,0.892 -0.545,-0.632 -1.051,-1.296 -1.516,-1.989 -0.273,-1.278 -0.455,-2.574 -0.544,-3.878 0.169,0 0.687,1.721 1.204,3.45 0.716,0.816 1.574,1.495 2.532,2.006 -0.259,-0.954 -0.606,-1.783 -0.687,-2.237 -0.08,-0.455 0.206,-4.646 0.428,-4.566 0.223,0.081 -0.089,2.149 0.17,4.307 0.517,1.204 0.686,1.641 1.293,1.979 1.934,0.063 3.878,0.259 3.878,0.259 0,0 -0.722,-3.344 0.214,-4.271 0.936,-0.927 2.408,-1.899 2.452,-2.193 0.045,-0.295 0.089,-0.259 0.178,-0.339 0.259,-0.259 1.293,-0.089 1.632,0.08 0.205,0.387 0.378,0.789 0.517,1.204 0,0 0.089,0.089 0.348,0 0.498,-0.796 0.837,-1.68 0.999,-2.604 -0.259,-0.954 -1.4,-3.611 -1.204,-3.62 0.196,-0.008 1.025,1.721 1.783,3.567 -0.15,1.101 -0.543,2.154 -1.15,3.085 0.616,0.462 1.191,0.975 1.721,1.533 z"
                 style="fill:#ffffff;fill-opacity:0.49;fill-rule:nonzero"
                 id="path2621" />
            </g>
          </g>
          <g
             transform="translate(2.83465e-6)"
             id="g2627">
            <g
               id="gleam-2">
              <path
                 id="path133-3-3-3"
                 d="m 236.102,290.185 c -0.519,0.225 -1.033,0.462 -1.541,0.71 -11.6,6.419 -18.83,18.666 -18.847,31.922 0,0 0,10e-4 0,10e-4 0,20.043 16.493,36.537 36.537,36.537 0,0 0,0 0,0 10.11,-0.018 19.772,-4.23 26.665,-11.625 -3.717,1.196 -7.596,1.809 -11.5,1.818 -0.008,0 -0.015,0 -0.022,0 -20.807,0 -37.929,-17.122 -37.929,-37.93 0,-7.649 2.314,-15.122 6.637,-21.433 z"
                 style="fill:#0b0b28;fill-opacity:0.13;fill-rule:nonzero" />
            </g>
          </g>
        </g>
        <g
           transform="matrix(0.944444,0,0,0.944444,-88.1282,75.3889)"
           id="g2632">
          <path
             d="m 142,-65 6,8 c 0,0 1.348,7.483 -4,17 -4.44,7.901 -11.54,10.817 -11.979,10.992 L 132,-29 c 0,0 -7.417,-2.844 -12,-11 -5.348,-9.517 -4,-17 -4,-17 l 6,-8 z"
             style="fill:#ffffff;fill-opacity:0.62"
             id="path2630" />
        </g>
        <g
           transform="matrix(0.944444,0,0,0.944444,-88.1282,75.3889)"
           id="g2636">
          <path
             d="M 131.987,-28.709 H 132 l 0.041,-0.009 c 0.03,-0.002 0.058,-0.008 0.086,-0.019 v 0 0 l 0.002,-0.001 c 0.444,-0.176 7.632,-3.124 12.125,-11.119 5.408,-9.625 4.033,-17.195 4.033,-17.195 -0.008,-0.044 -0.027,-0.086 -0.054,-0.123 l -6,-8 c -0.055,-0.073 -0.141,-0.116 -0.233,-0.116 h -20 c -0.092,0 -0.178,0.043 -0.233,0.116 l -6,8 c -0.027,0.037 -0.046,0.079 -0.054,0.123 0,0 -1.375,7.57 4.033,17.195 4.638,8.254 12.15,11.129 12.15,11.129 0.029,0.011 0.06,0.017 0.091,0.019 z M 132,-29.314 c -0.909,-0.378 -7.537,-3.337 -11.746,-10.829 -4.996,-8.89 -4.093,-15.982 -3.978,-16.739 0,-0.001 5.87,-7.827 5.87,-7.827 h 19.708 l 5.87,7.826 c 0.115,0.757 1.018,7.849 -3.978,16.74 -4.206,7.486 -10.827,10.446 -11.746,10.829 z"
             style="fill:#711194"
             id="path2634" />
        </g>
        <g
           transform="matrix(0.804783,0,0,0.804783,-69.6929,68.8248)"
           id="g2640">
          <path
             d="m 142,-65 6,8 c 0,0 1.348,7.483 -4,17 -4.44,7.901 -11.54,10.817 -11.979,10.992 L 132,-29 c 0,0 -7.417,-2.844 -12,-11 -5.348,-9.517 -4,-17 -4,-17 l 6,-8 z"
             style="fill:#ff005c;fill-opacity:0.4"
             id="path2638" />
        </g>
        <g
           transform="matrix(0.804783,0,0,0.804783,-69.6929,68.8248)"
           id="g2644">
          <path
             d="m 131.984,-28.659 0.016,10e-4 0.042,-0.009 c 0.035,-0.002 0.07,-0.01 0.103,-0.023 h 10e-4 -10e-4 l 0.003,-10e-4 c 0.444,-0.177 7.648,-3.13 12.15,-11.142 5.418,-9.643 4.038,-17.228 4.038,-17.228 -0.009,-0.052 -0.031,-0.101 -0.063,-0.144 l -6,-8 c -0.064,-0.086 -0.165,-0.137 -0.273,-0.137 h -20 c -0.108,0 -0.209,0.051 -0.273,0.137 l -6,8 c -0.032,0.043 -0.054,0.092 -0.063,0.144 0,0 -1.38,7.585 4.038,17.228 4.648,8.272 12.176,11.152 12.176,11.152 0.034,0.013 0.07,0.021 0.106,0.022 z m 0.016,-0.71 c -0.974,-0.408 -7.529,-3.371 -11.702,-10.798 -4.962,-8.832 -4.095,-15.884 -3.974,-16.695 0,-10e-4 5.847,-7.796 5.847,-7.796 h 19.658 l 5.847,7.795 c 0.122,0.814 0.987,7.866 -3.974,16.696 -4.17,7.421 -10.717,10.385 -11.702,10.798 z"
             style="fill:#711194"
             id="path2642" />
        </g>
        <g
           transform="matrix(0.421761,0.421761,-0.421761,0.421761,-1.99925,-40.2285)"
           id="g2648">
          <path
             d="m 136.349,27.315 c 0,-0.301 -0.244,-0.545 -0.545,-0.545 h -17.618 c -0.301,0 -0.545,0.244 -0.545,0.545 v 17.618 c 0,0.301 0.244,0.545 0.545,0.545 h 17.618 c 0.301,0 0.545,-0.244 0.545,-0.545 z m -1.09,0.545 v 16.528 c 0,0 -16.529,0 -16.529,0 0,0 0,-16.528 0,-16.528 z"
             style="fill:#711194"
             id="path2646" />
        </g>
        <g
           transform="matrix(0.299716,-0.173041,0.346082,0.199811,-4.89542,11.4681)"
           id="g2652">
          <rect
             x="40.216999"
             y="76.234001"
             width="10"
             height="8.6599998"
             style="fill:#faa3c8"
             id="rect2650" />
        </g>
        <g
           transform="matrix(0.299716,-0.173041,0.346082,0.199811,-4.89542,11.4681)"
           id="g2656">
          <path
             d="m 51.301,75.764 c 0,-0.29 -0.207,-0.469 -0.542,-0.469 h -10 c -0.336,0 -0.749,0.179 -1.085,0.469 -0.335,0.291 -0.542,0.649 -0.542,0.939 v 8.661 c 0,0.29 0.207,0.469 0.542,0.469 h 10 c 0.336,0 0.749,-0.179 1.085,-0.469 0.335,-0.291 0.542,-0.649 0.542,-0.94 z m -2.169,1.409 v 6.782 c 0,0 -7.831,0 -7.831,0 0,0 0,-6.782 0,-6.782 z"
             style="fill:#711194"
             id="path2654" />
        </g>
        <g
           transform="matrix(0.299716,-0.173041,0,0.399621,-4.89542,11.4681)"
           id="g2660">
          <rect
             x="138.244"
             y="84.893997"
             width="10"
             height="8.6599998"
             style="fill:#e40c6a"
             id="rect2658" />
        </g>
        <g
           transform="matrix(0.299716,-0.173041,0,0.399621,-4.89542,11.4681)"
           id="g2664">
          <path
             d="m 149.328,85.364 c 0,-0.291 -0.207,-0.649 -0.542,-0.94 -0.336,-0.29 -0.749,-0.469 -1.084,-0.469 h -10 c -0.336,0 -0.543,0.179 -0.543,0.469 v 8.661 c 0,0.29 0.207,0.648 0.543,0.939 0.335,0.29 0.748,0.469 1.084,0.469 h 10 c 0.335,0 0.542,-0.179 0.542,-0.469 z m -2.169,0.469 v 6.782 c 0,0 -7.831,0 -7.831,0 0,0 0,-6.782 0,-6.782 z"
             style="fill:#711194"
             id="path2662" />
        </g>
        <g
           transform="matrix(0.299716,0.173041,0,0.399621,-4.89542,11.4681)"
           id="g2668">
          <rect
             x="128.244"
             y="-34.828999"
             width="10"
             height="8.6599998"
             style="fill:#f76aa7"
             id="rect2666" />
        </g>
        <g
           transform="matrix(0.299716,0.173041,0,0.399621,-4.89542,11.4681)"
           id="g2672">
          <path
             d="m 139.328,-35.298 c 0,-0.291 -0.207,-0.47 -0.542,-0.47 h -10 c -0.336,0 -0.749,0.179 -1.084,0.47 -0.336,0.29 -0.543,0.648 -0.543,0.939 v 8.66 c 0,0.291 0.207,0.47 0.543,0.47 h 10 c 0.335,0 0.748,-0.179 1.084,-0.47 0.335,-0.29 0.542,-0.648 0.542,-0.939 z m -2.169,1.409 v 6.782 c 0,0 -7.831,0 -7.831,0 0,0 0,-6.783 0,-6.783 z"
             style="fill:#711194"
             id="path2670" />
        </g>
        <g
           transform="matrix(0.299716,-0.173041,0.346082,0.199811,-4.89542,26.5356)"
           id="g2676">
          <rect
             x="40.216999"
             y="76.234001"
             width="10"
             height="8.6599998"
             style="fill:#faa3c8"
             id="rect2674" />
        </g>
        <g
           transform="matrix(0.299716,-0.173041,0.346082,0.199811,-4.89542,26.5356)"
           id="g2680">
          <path
             d="m 51.301,75.764 c 0,-0.29 -0.207,-0.469 -0.542,-0.469 h -10 c -0.336,0 -0.749,0.179 -1.085,0.469 -0.335,0.291 -0.542,0.649 -0.542,0.939 v 8.661 c 0,0.29 0.207,0.469 0.542,0.469 h 10 c 0.336,0 0.749,-0.179 1.085,-0.469 0.335,-0.291 0.542,-0.649 0.542,-0.94 z m -2.169,1.409 v 6.782 c 0,0 -7.831,0 -7.831,0 0,0 0,-6.782 0,-6.782 z"
             style="fill:#711194"
             id="path2678" />
        </g>
        <g
           transform="matrix(0.299716,-0.173041,0,0.399621,-4.89542,26.5356)"
           id="g2684">
          <rect
             x="138.244"
             y="84.893997"
             width="10"
             height="8.6599998"
             style="fill:#e40c6a"
             id="rect2682" />
        </g>
        <g
           transform="matrix(0.299716,-0.173041,0,0.399621,-4.89542,26.5356)"
           id="g2688">
          <path
             d="m 149.328,85.364 c 0,-0.291 -0.207,-0.649 -0.542,-0.94 -0.336,-0.29 -0.749,-0.469 -1.084,-0.469 h -10 c -0.336,0 -0.543,0.179 -0.543,0.469 v 8.661 c 0,0.29 0.207,0.648 0.543,0.939 0.335,0.29 0.748,0.469 1.084,0.469 h 10 c 0.335,0 0.542,-0.179 0.542,-0.469 z m -2.169,0.469 v 6.782 c 0,0 -7.831,0 -7.831,0 0,0 0,-6.782 0,-6.782 z"
             style="fill:#711194"
             id="path2686" />
        </g>
        <g
           transform="matrix(0.299716,0.173041,0,0.399621,-4.89542,26.5356)"
           id="g2692">
          <rect
             x="128.244"
             y="-34.828999"
             width="10"
             height="8.6599998"
             style="fill:#f76aa7"
             id="rect2690" />
        </g>
        <g
           transform="matrix(0.299716,0.173041,0,0.399621,-4.89542,26.5356)"
           id="g2696">
          <path
             d="m 139.328,-35.298 c 0,-0.291 -0.207,-0.47 -0.542,-0.47 h -10 c -0.336,0 -0.749,0.179 -1.084,0.47 -0.336,0.29 -0.543,0.648 -0.543,0.939 v 8.66 c 0,0.291 0.207,0.47 0.543,0.47 h 10 c 0.335,0 0.748,-0.179 1.084,-0.47 0.335,-0.29 0.542,-0.648 0.542,-0.939 z m -2.169,1.409 v 6.782 c 0,0 -7.831,0 -7.831,0 0,0 0,-6.783 0,-6.783 z"
             style="fill:#711194"
             id="path2694" />
        </g>
        <g
           transform="matrix(0.299716,-0.173041,0.346082,0.199811,2.49179,19.0019)"
           id="g2700">
          <rect
             x="40.216999"
             y="76.234001"
             width="10"
             height="8.6599998"
             style="fill:#faa3c8"
             id="rect2698" />
        </g>
        <g
           transform="matrix(0.299716,-0.173041,0.346082,0.199811,2.49179,19.0019)"
           id="g2704">
          <path
             d="m 51.301,75.764 c 0,-0.29 -0.207,-0.469 -0.542,-0.469 h -10 c -0.336,0 -0.749,0.179 -1.085,0.469 -0.335,0.291 -0.542,0.649 -0.542,0.939 v 8.661 c 0,0.29 0.207,0.469 0.542,0.469 h 10 c 0.336,0 0.749,-0.179 1.085,-0.469 0.335,-0.291 0.542,-0.649 0.542,-0.94 z m -2.169,1.409 v 6.782 c 0,0 -7.831,0 -7.831,0 0,0 0,-6.782 0,-6.782 z"
             style="fill:#711194"
             id="path2702" />
        </g>
        <g
           transform="matrix(0.299716,-0.173041,0,0.399621,2.49179,19.0019)"
           id="g2708">
          <rect
             x="138.244"
             y="84.893997"
             width="10"
             height="8.6599998"
             style="fill:#e40c6a"
             id="rect2706" />
        </g>
        <g
           transform="matrix(0.299716,-0.173041,0,0.399621,2.49179,19.0019)"
           id="g2712">
          <path
             d="m 149.328,85.364 c 0,-0.291 -0.207,-0.649 -0.542,-0.94 -0.336,-0.29 -0.749,-0.469 -1.084,-0.469 h -10 c -0.336,0 -0.543,0.179 -0.543,0.469 v 8.661 c 0,0.29 0.207,0.648 0.543,0.939 0.335,0.29 0.748,0.469 1.084,0.469 h 10 c 0.335,0 0.542,-0.179 0.542,-0.469 z m -2.169,0.469 v 6.782 c 0,0 -7.831,0 -7.831,0 0,0 0,-6.782 0,-6.782 z"
             style="fill:#711194"
             id="path2710" />
        </g>
        <g
           transform="matrix(0.299716,0.173041,0,0.399621,2.49179,19.0019)"
           id="g2716">
          <rect
             x="128.244"
             y="-34.828999"
             width="10"
             height="8.6599998"
             style="fill:#f76aa7"
             id="rect2714" />
        </g>
        <g
           transform="matrix(0.299716,0.173041,0,0.399621,2.49179,19.0019)"
           id="g2720">
          <path
             d="m 139.328,-35.298 c 0,-0.291 -0.207,-0.47 -0.542,-0.47 h -10 c -0.336,0 -0.749,0.179 -1.084,0.47 -0.336,0.29 -0.543,0.648 -0.543,0.939 v 8.66 c 0,0.291 0.207,0.47 0.543,0.47 h 10 c 0.335,0 0.748,-0.179 1.084,-0.47 0.335,-0.29 0.542,-0.648 0.542,-0.939 z m -2.169,1.409 v 6.782 c 0,0 -7.831,0 -7.831,0 0,0 0,-6.783 0,-6.783 z"
             style="fill:#711194"
             id="path2718" />
        </g>
        <g
           transform="matrix(0.299716,-0.173041,0.346082,0.199811,-12.2826,19.0019)"
           id="g2724">
          <rect
             x="40.216999"
             y="76.234001"
             width="10"
             height="8.6599998"
             style="fill:#faa3c8"
             id="rect2722" />
        </g>
        <g
           transform="matrix(0.299716,-0.173041,0.346082,0.199811,-12.2826,19.0019)"
           id="g2728">
          <path
             d="m 51.301,75.764 c 0,-0.29 -0.207,-0.469 -0.542,-0.469 h -10 c -0.336,0 -0.749,0.179 -1.085,0.469 -0.335,0.291 -0.542,0.649 -0.542,0.939 v 8.661 c 0,0.29 0.207,0.469 0.542,0.469 h 10 c 0.336,0 0.749,-0.179 1.085,-0.469 0.335,-0.291 0.542,-0.649 0.542,-0.94 z m -2.169,1.409 v 6.782 c 0,0 -7.831,0 -7.831,0 0,0 0,-6.782 0,-6.782 z"
             style="fill:#711194"
             id="path2726" />
        </g>
        <g
           transform="matrix(0.299716,-0.173041,0,0.399621,-12.2826,19.0019)"
           id="g2732">
          <rect
             x="138.244"
             y="84.893997"
             width="10"
             height="8.6599998"
             style="fill:#e40c6a"
             id="rect2730" />
        </g>
        <g
           transform="matrix(0.299716,-0.173041,0,0.399621,-12.2826,19.0019)"
           id="g2736">
          <path
             d="m 149.328,85.364 c 0,-0.291 -0.207,-0.649 -0.542,-0.94 -0.336,-0.29 -0.749,-0.469 -1.084,-0.469 h -10 c -0.336,0 -0.543,0.179 -0.543,0.469 v 8.661 c 0,0.29 0.207,0.648 0.543,0.939 0.335,0.29 0.748,0.469 1.084,0.469 h 10 c 0.335,0 0.542,-0.179 0.542,-0.469 z m -2.169,0.469 v 6.782 c 0,0 -7.831,0 -7.831,0 0,0 0,-6.782 0,-6.782 z"
             style="fill:#711194"
             id="path2734" />
        </g>
        <g
           transform="matrix(0.299716,0.173041,0,0.399621,-12.2826,19.0019)"
           id="g2740">
          <rect
             x="128.244"
             y="-34.828999"
             width="10"
             height="8.6599998"
             style="fill:#f76aa7"
             id="rect2738" />
        </g>
        <g
           transform="matrix(0.299716,0.173041,0,0.399621,-12.2826,19.0019)"
           id="g2744">
          <path
             d="m 139.328,-35.298 c 0,-0.291 -0.207,-0.47 -0.542,-0.47 h -10 c -0.336,0 -0.749,0.179 -1.084,0.47 -0.336,0.29 -0.543,0.648 -0.543,0.939 v 8.66 c 0,0.291 0.207,0.47 0.543,0.47 h 10 c 0.335,0 0.748,-0.179 1.084,-0.47 0.335,-0.29 0.542,-0.648 0.542,-0.939 z m -2.169,1.409 v 6.782 c 0,0 -7.831,0 -7.831,0 0,0 0,-6.783 0,-6.783 z"
             style="fill:#711194"
             id="path2742" />
        </g>
        <g
           transform="matrix(0.773168,0,0,0.773168,37.1282,53.4837)"
           id="g2782">
          <path
             d="m -22.419,-0.043 v -0.839 c 0.526,0.22 0.976,0.331 1.35,0.331 0.262,0 0.469,-0.059 0.619,-0.175 0.151,-0.117 0.227,-0.276 0.227,-0.476 0,-0.158 -0.048,-0.292 -0.142,-0.401 -0.095,-0.109 -0.274,-0.238 -0.539,-0.388 l -0.326,-0.182 c -0.439,-0.246 -0.748,-0.482 -0.928,-0.708 -0.181,-0.226 -0.271,-0.489 -0.271,-0.791 0,-0.403 0.148,-0.726 0.444,-0.971 0.296,-0.244 0.687,-0.366 1.174,-0.366 0.39,0 0.829,0.056 1.317,0.168 v 0.783 c -0.499,-0.187 -0.894,-0.281 -1.185,-0.281 -0.225,0 -0.405,0.05 -0.54,0.15 -0.135,0.101 -0.203,0.232 -0.203,0.395 0,0.134 0.047,0.252 0.142,0.353 0.095,0.102 0.273,0.226 0.535,0.373 l 0.35,0.195 c 0.471,0.264 0.796,0.508 0.974,0.73 0.178,0.222 0.267,0.493 0.267,0.812 0,0.454 -0.168,0.809 -0.505,1.067 -0.337,0.257 -0.801,0.386 -1.393,0.386 -0.392,0 -0.848,-0.055 -1.367,-0.165 z"
             style="fill:#ffffff;fill-rule:nonzero"
             id="path2746" />
          <path
             d="m -16.04,0 v -0.684 c -0.317,0.511 -0.728,0.767 -1.235,0.767 -0.323,0 -0.579,-0.103 -0.766,-0.308 -0.187,-0.204 -0.28,-0.484 -0.28,-0.838 v -2.563 h 0.977 v 2.322 c 0,0.411 0.138,0.617 0.413,0.617 0.308,0 0.605,-0.219 0.891,-0.657 v -2.282 h 0.978 V 0 Z"
             style="fill:#ffffff;fill-rule:nonzero"
             id="path2748" />
          <path
             d="m -13.841,1.304 v -4.93 h 0.978 v 0.684 c 0.251,-0.511 0.646,-0.766 1.185,-0.766 0.436,0 0.779,0.159 1.029,0.479 0.25,0.319 0.375,0.758 0.375,1.317 0,0.608 -0.141,1.092 -0.423,1.453 -0.282,0.361 -0.659,0.542 -1.133,0.542 -0.38,0 -0.725,-0.15 -1.033,-0.45 v 1.671 z m 0.978,-2.252 c 0.238,0.264 0.491,0.397 0.759,0.397 0.24,0 0.432,-0.117 0.575,-0.349 0.143,-0.232 0.215,-0.542 0.215,-0.929 0,-0.742 -0.239,-1.113 -0.717,-1.113 -0.288,0 -0.566,0.186 -0.832,0.558 z"
             style="fill:#ffffff;fill-rule:nonzero"
             id="path2750" />
          <path
             d="m -9.36,1.304 v -4.93 h 0.978 v 0.684 c 0.251,-0.511 0.646,-0.766 1.185,-0.766 0.436,0 0.779,0.159 1.029,0.479 0.25,0.319 0.375,0.758 0.375,1.317 0,0.608 -0.141,1.092 -0.423,1.453 -0.282,0.361 -0.659,0.542 -1.133,0.542 -0.381,0 -0.725,-0.15 -1.033,-0.45 v 1.671 z m 0.978,-2.252 c 0.238,0.264 0.491,0.397 0.759,0.397 0.24,0 0.432,-0.117 0.575,-0.349 0.143,-0.232 0.214,-0.542 0.214,-0.929 0,-0.742 -0.238,-1.113 -0.716,-1.113 -0.289,0 -0.566,0.186 -0.832,0.558 z"
             style="fill:#ffffff;fill-rule:nonzero"
             id="path2752" />
          <rect
             x="-4.8790002"
             y="-5.2140002"
             width="0.977"
             height="5.2140002"
             style="fill:#ffffff;fill-rule:nonzero"
             id="rect2754" />
          <path
             d="M -2.666,1.304 -1.844,0 -3.188,-3.626 h 1.05 l 0.898,2.424 1.067,-2.424 H 0.57 l -2.239,4.93 z"
             style="fill:#ffffff;fill-rule:nonzero"
             id="path2756" />
          <path
             d="M 7.425,-0.195 C 6.951,0.017 6.387,0.122 5.731,0.122 c -0.802,0 -1.426,-0.225 -1.873,-0.677 -0.446,-0.451 -0.67,-1.081 -0.67,-1.889 0,-0.823 0.225,-1.456 0.675,-1.9 0.451,-0.443 1.093,-0.665 1.927,-0.665 0.533,0 1.062,0.063 1.588,0.188 v 0.796 C 6.782,-4.234 6.282,-4.339 5.879,-4.339 c -0.515,0 -0.912,0.164 -1.192,0.49 -0.279,0.327 -0.419,0.791 -0.419,1.392 0,0.59 0.15,1.05 0.451,1.381 0.3,0.33 0.718,0.495 1.253,0.495 0.48,0 0.964,-0.121 1.453,-0.363 z"
             style="fill:#ffffff;fill-rule:nonzero"
             id="path2758" />
          <path
             d="m 8.31,0 v -5.214 h 0.977 v 2.272 c 0.319,-0.511 0.731,-0.766 1.235,-0.766 0.324,0 0.579,0.102 0.766,0.307 0.187,0.205 0.281,0.484 0.281,0.839 V 0 h -0.978 v -2.321 c 0,-0.412 -0.136,-0.618 -0.409,-0.618 -0.311,0 -0.609,0.219 -0.895,0.657 V 0 Z"
             style="fill:#ffffff;fill-rule:nonzero"
             id="path2760" />
          <path
             d="m 14.527,-0.39 c -0.325,0.315 -0.674,0.473 -1.046,0.473 -0.317,0 -0.575,-0.097 -0.773,-0.291 -0.198,-0.194 -0.297,-0.445 -0.297,-0.753 0,-0.401 0.16,-0.709 0.48,-0.926 0.32,-0.217 0.779,-0.325 1.375,-0.325 h 0.261 v -0.331 c 0,-0.376 -0.214,-0.564 -0.644,-0.564 -0.38,0 -0.766,0.108 -1.155,0.323 v -0.673 c 0.442,-0.168 0.88,-0.251 1.314,-0.251 0.949,0 1.423,0.377 1.423,1.132 v 1.605 c 0,0.284 0.091,0.426 0.274,0.426 0.033,0 0.076,-0.004 0.129,-0.013 l 0.023,0.548 c -0.207,0.062 -0.39,0.093 -0.548,0.093 -0.401,0 -0.658,-0.158 -0.773,-0.473 z m 0,-0.525 v -0.736 h -0.231 c -0.632,0 -0.947,0.198 -0.947,0.594 0,0.135 0.045,0.247 0.137,0.339 0.091,0.091 0.204,0.137 0.338,0.137 0.229,0 0.463,-0.111 0.703,-0.334 z"
             style="fill:#ffffff;fill-rule:nonzero"
             id="path2762" />
          <path
             d="m 16.727,0 v -3.626 h 0.977 V 0 Z m 0,-4.237 v -0.815 h 0.977 v 0.815 z"
             style="fill:#ffffff;fill-rule:nonzero"
             id="path2764" />
          <path
             d="m 18.926,0 v -3.626 h 0.977 v 0.684 c 0.319,-0.511 0.731,-0.766 1.235,-0.766 0.324,0 0.579,0.102 0.766,0.307 0.187,0.205 0.281,0.484 0.281,0.839 V 0 h -0.978 v -2.321 c 0,-0.412 -0.136,-0.618 -0.409,-0.618 -0.31,0 -0.609,0.219 -0.895,0.657 V 0 Z"
             style="fill:#ffffff;fill-rule:nonzero"
             id="path2766" />
          <path
             d="m -12.994,9.054 1.902,-4.887 h 1.017 l 1.902,4.887 H -9.216 L -9.725,7.749 h -2.02 l -0.509,1.305 z m 1.5,-1.955 h 1.519 l -0.76,-1.948 z"
             style="fill:#ffffff;fill-rule:nonzero"
             id="path2768" />
          <path
             d="m -5.61,9.034 c -0.234,0.068 -0.417,0.102 -0.552,0.102 -0.847,0 -1.271,-0.396 -1.271,-1.189 V 6.039 H -7.839 V 5.428 h 0.406 V 4.817 l 0.978,-0.112 v 0.723 h 0.775 v 0.611 h -0.775 v 1.78 c 0,0.444 0.181,0.667 0.544,0.667 0.084,0 0.184,-0.016 0.301,-0.047 z"
             style="fill:#ffffff;fill-rule:nonzero"
             id="path2770" />
          <path
             d="m -2.869,9.034 c -0.234,0.068 -0.418,0.102 -0.552,0.102 -0.847,0 -1.271,-0.396 -1.271,-1.189 V 6.039 H -5.098 V 5.428 h 0.406 V 4.817 l 0.977,-0.112 v 0.723 h 0.776 v 0.611 h -0.776 v 1.78 c 0,0.444 0.182,0.667 0.545,0.667 0.084,0 0.184,-0.016 0.301,-0.047 z"
             style="fill:#ffffff;fill-rule:nonzero"
             id="path2772" />
          <path
             d="m -0.221,8.664 c -0.326,0.315 -0.675,0.472 -1.047,0.472 -0.317,0 -0.575,-0.097 -0.773,-0.29 -0.198,-0.194 -0.297,-0.445 -0.297,-0.753 0,-0.401 0.16,-0.71 0.481,-0.926 0.32,-0.217 0.778,-0.326 1.375,-0.326 h 0.261 v -0.33 c 0,-0.376 -0.215,-0.565 -0.644,-0.565 -0.381,0 -0.766,0.108 -1.156,0.324 V 5.596 c 0.443,-0.167 0.881,-0.251 1.314,-0.251 0.949,0 1.424,0.378 1.424,1.133 v 1.605 c 0,0.284 0.091,0.426 0.274,0.426 0.033,0 0.076,-0.005 0.128,-0.013 l 0.024,0.548 c -0.207,0.061 -0.39,0.092 -0.549,0.092 -0.4,0 -0.658,-0.157 -0.772,-0.472 z m 0,-0.525 V 7.403 h -0.231 c -0.632,0 -0.948,0.198 -0.948,0.594 0,0.134 0.046,0.247 0.137,0.338 0.091,0.092 0.204,0.137 0.338,0.137 0.229,0 0.464,-0.111 0.704,-0.333 z"
             style="fill:#ffffff;fill-rule:nonzero"
             id="path2774" />
          <path
             d="M 4.653,8.974 C 4.248,9.082 3.872,9.136 3.527,9.136 2.948,9.136 2.49,8.966 2.155,8.626 1.819,8.286 1.651,7.823 1.651,7.238 1.651,6.645 1.824,6.182 2.169,5.847 2.515,5.513 2.993,5.345 3.603,5.345 c 0.295,0 0.635,0.048 1.02,0.142 V 6.194 C 4.222,6.064 3.902,5.999 3.662,5.999 3.369,5.999 3.134,6.112 2.955,6.336 2.777,6.561 2.688,6.859 2.688,7.231 c 0,0.381 0.096,0.686 0.289,0.915 0.192,0.229 0.449,0.343 0.771,0.343 0.293,0 0.594,-0.064 0.905,-0.192 z"
             style="fill:#ffffff;fill-rule:nonzero"
             id="path2776" />
          <path
             d="M 5.577,9.054 V 3.84 H 6.555 V 7.119 H 6.617 L 7.908,5.428 H 8.721 L 7.529,6.98 9.094,9.054 H 7.905 L 6.617,7.241 H 6.555 v 1.813 z"
             style="fill:#ffffff;fill-rule:nonzero"
             id="path2778" />
          <path
             d="M 9.761,8.938 V 8.222 c 0.484,0.202 0.898,0.303 1.241,0.303 0.401,0 0.601,-0.136 0.601,-0.409 0,-0.176 -0.165,-0.33 -0.495,-0.462 L 10.778,7.522 C 10.419,7.376 10.163,7.22 10.008,7.053 9.854,6.885 9.777,6.678 9.777,6.432 c 0,-0.344 0.131,-0.61 0.393,-0.801 0.262,-0.19 0.629,-0.286 1.1,-0.286 0.295,0 0.646,0.043 1.053,0.129 V 6.161 C 11.931,6.025 11.607,5.956 11.349,5.956 c -0.405,0 -0.607,0.126 -0.607,0.377 0,0.165 0.149,0.305 0.449,0.419 l 0.284,0.109 c 0.424,0.161 0.72,0.324 0.886,0.489 0.166,0.165 0.25,0.377 0.25,0.637 0,0.341 -0.142,0.618 -0.425,0.831 -0.283,0.212 -0.651,0.318 -1.104,0.318 -0.436,0 -0.876,-0.066 -1.321,-0.198 z"
             style="fill:#ffffff;fill-rule:nonzero"
             id="path2780" />
        </g>
        <g
           transform="matrix(1.10277,0,0,1.10277,36.5403,31.8892)"
           id="g2788">
          <g
             id="content-9">
            <g
               id="text7112">
              <text
                 x="-1.0700001"
                 y="0"
                 style="font-weight:500;font-size:6.763px;font-family:LucidaGrande, 'Lucida Grande', sans-serif;fill:#ffffff"
                 id="text2784">!</text>
            </g>
          </g>
        </g>
      </g>
    </g>
  </g>
</svg>
