<?xml version="1.0" encoding="UTF-8" standalone="no"?>
<svg
   xmlns:dc="http://purl.org/dc/elements/1.1/"
   xmlns:cc="http://creativecommons.org/ns#"
   xmlns:rdf="http://www.w3.org/1999/02/22-rdf-syntax-ns#"
   xmlns:svg="http://www.w3.org/2000/svg"
   xmlns="http://www.w3.org/2000/svg"
   xmlns:sodipodi="http://sodipodi.sourceforge.net/DTD/sodipodi-0.dtd"
   xmlns:inkscape="http://www.inkscape.org/namespaces/inkscape"
   viewBox="0 0 97.433408 97.461965"
   version="1.1"
   id="svg28"
   sodipodi:docname="threat_modeling_securecodebox.svg"
   width="97.433411"
   height="97.461967"
   inkscape:version="1.0.1 (3bc2e813f5, 2020-09-07)">
  <metadata
     id="metadata32">
    <rdf:RDF>
      <cc:Work
         rdf:about="">
        <dc:format>image/svg+xml</dc:format>
        <dc:type
           rdf:resource="http://purl.org/dc/dcmitype/StillImage" />
        <dc:title>Element 292</dc:title>
      </cc:Work>
    </rdf:RDF>
  </metadata>
  <sodipodi:namedview
     pagecolor="#ffffff"
     bordercolor="#666666"
     borderopacity="1"
     objecttolerance="10"
     gridtolerance="10"
     guidetolerance="10"
     inkscape:pageopacity="0"
     inkscape:pageshadow="2"
     inkscape:window-width="3368"
     inkscape:window-height="1370"
     id="namedview30"
     showgrid="false"
     fit-margin-top="0"
     fit-margin-left="0"
     fit-margin-right="0"
     fit-margin-bottom="0"
     inkscape:zoom="8.1963259"
     inkscape:cx="24.23824"
     inkscape:cy="36.657351"
     inkscape:window-x="1992"
     inkscape:window-y="33"
     inkscape:window-maximized="1"
     inkscape:current-layer="Ebene_2"
     inkscape:document-rotation="0"
     inkscape:snap-to-guides="true"
     inkscape:snap-grids="true" />
  <defs
     id="defs4">
    <style
       id="style2">.cls-1{fill:#79992e;stroke:#79992e;stroke-width:10px;}.cls-1,.cls-5{stroke-miterlimit:10;}.cls-2{fill:#5c7522;}.cls-3{font-size:10px;font-family:Hind-SemiBold, Hind;font-weight:700;letter-spacing:-0.01em;}.cls-3,.cls-6{fill:#e30613;}.cls-4{font-size:8px;fill:#fff;letter-spacing:-0.01em;}.cls-5{fill:none;stroke:#fff;}</style>
    <clipPath
       clipPathUnits="userSpaceOnUse"
       id="clipPath993">
      <ellipse
         style="display:inline;opacity:1;vector-effect:none;fill:none;fill-opacity:1;stroke:#000000;stroke-width:0.01134289;stroke-linecap:butt;stroke-linejoin:miter;stroke-miterlimit:4;stroke-dasharray:none;stroke-dashoffset:0;stroke-opacity:1"
         id="ellipse995"
         cx="41.464516"
         cy="40.565277"
         rx="48.71244"
         ry="48.711475" />
    </clipPath>
  </defs>
  <title
     id="title6">Element 292</title>
  <g
     id="Ebene_2"
     data-name="Ebene 2"
     transform="matrix(1.1962088,0,0,1.1962088,0.0141646,0)">
    <circle
       class="cls-1"
       cx="40.720001"
       cy="40.720001"
       r="35.720001"
       id="circle8"
       style="fill:#3296dc;stroke:#3296dc;stroke-width:10px;stroke-miterlimit:10;fill-opacity:1;stroke-opacity:1" />
    <path
       class="cls-2"
       d="M 58.77,22.46 A 19.71,19.71 0 0 1 60.5,24.38 8.4,8.4 0 0 1 64,23 c 2,0.86 3.94,1.8 3.94,2 0,0.2 -3,-1.05 -4,-1.34 A 8.08,8.08 0 0 0 61,24.86 c -0.1,0.29 0,0.38 0,0.38 a 8.67,8.67 0 0 1 1.34,0.58 c 0.2,0.38 0.39,1.53 0.1,1.82 -0.1,0.1 -0.06,0.14 -0.38,0.19 -0.32,0.05 -1.41,1.71 -2.44,2.74 -1.03,1.03 -4.76,0.24 -4.76,0.24 0,0 0.22,2.16 0.29,4.31 0.38,0.68 0.86,0.86 2.21,1.44 2.39,0.29 4.71,-0.06 4.79,0.19 0.08,0.25 -4.66,0.57 -5.08,0.48 -0.42,-0.09 -1.44,-0.48 -2.5,-0.77 a 10.19,10.19 0 0 0 2.21,2.79 17.63,17.63 0 0 1 3.84,1.34 A 32.17,32.17 0 0 1 56.38,40 21.45,21.45 0 0 1 54.16,38.32 c 0.25,0.75 0.45,2.22 1,2.74 1.29,1.29 3,2.59 2.82,2.71 a 33.82,33.82 0 0 1 -3.62,-2.39 c -0.68,-1.5 -1.72,-4.09 -1.72,-4.09 h -1 A 165.72,165.72 0 0 1 55.3,76.64 C 51.08,74.58 41,59.3 48,49.46 c 1.17,-1.64 1.3,-11.9 1.3,-11.9 a 7.75,7.75 0 0 1 -2.27,-1 2.92,2.92 0 0 1 -0.67,0.1 c 4.4,10.09 -26.38,24.65 -26.38,24.65 0,0 14.5,-30.78 24.6,-26.38 a 2.75,2.75 0 0 1 0.09,-0.67 8,8 0 0 1 -1,-2.27 c 0,0 -10.26,0.12 -11.91,1.29 -9.83,7 -25.12,-3.13 -27.19,-7.27 a 166.08,166.08 0 0 1 39.36,3.65 v -1 c 0,0 -2.59,-1 -4.09,-1.72 a 34.41,34.41 0 0 1 -2.4,-3.62 c 0.13,-0.15 1.42,1.53 2.72,2.83 0.51,0.51 2,0.71 2.73,1 a 26,26 0 0 1 -1.68,-2.21 30.53,30.53 0 0 1 -0.57,-4.22 c 0.19,0 0.76,1.92 1.34,3.83 a 9.84,9.84 0 0 0 2.78,2.21 c -0.29,-1.05 -0.67,-2 -0.77,-2.49 -0.1,-0.49 0.23,-5.17 0.48,-5.09 0.25,0.08 -0.09,2.4 0.19,4.8 0.58,1.34 0.76,1.83 1.44,2.21 2.15,0.06 4.32,0.28 4.32,0.28 0,0 -0.8,-3.72 0.23,-4.75 1.03,-1.03 2.69,-2.11 2.74,-2.44 0.05,-0.33 0.1,-0.29 0.19,-0.38 0.29,-0.29 1.44,-0.1 1.83,0.09 A 9.33,9.33 0 0 1 56,20.25 c 0,0 0.1,0.1 0.39,0 a 8.3,8.3 0 0 0 1.15,-2.87 c -0.29,-1.06 -1.56,-4 -1.35,-4 0.21,0 1.16,1.92 2,3.93 a 8.4,8.4 0 0 1 -1.34,3.45 17,17 0 0 1 1.92,1.7 z"
       id="path10"
       inkscape:connector-curvature="0"
       style="fill:#5c7522;fill-opacity:0.23203789" />
    <g
       id="g859"
       transform="matrix(1.0681592,0,0,1.0681592,-3.0926846,-4.2120391)">
      <text
         style="font-weight:700;font-size:10px;font-family:Hind-SemiBold, Hind;letter-spacing:-0.01em;fill:#e30613"
         id="text16"
         class="cls-3"
         x="23.65"
         y="54.534737">THREAT<tspan
   style="font-size:8px;letter-spacing:-0.01em;fill:#ffffff"
   id="tspan14"
   class="cls-4"><tspan
     id="tspan12"
     y="62.534737"
     x="21.370001">MODELING</tspan></tspan></text>
      <g
         id="logo_secureCodeBox_color"
         transform="matrix(0.10240687,0,0,0.10240687,-138.74153,65.06399)"
         fill-rule="nonzero"
         style="fill:none;stroke:none;stroke-width:1">
        <path
           d="m 1817.5497,-367.62002 v -25 c 0,-35.33333 -29.4356,-63.66667 -64.8922,-63.66667 -35.4566,0 -64.8922,28.66667 -64.8922,63.66667 v 30 c -17.0593,17 -27.4287,40.66666 -27.4287,66.66666 0,52.33334 42.481,94.66667 94.9969,94.66667 52.5158,0 94.9968,-42.33333 94.9968,-94.66667 0.3345,-28.66666 -12.7108,-54.33333 -32.7806,-71.66666 z m -44.1534,109 h -38.4671 l 10.3694,-35 c -7.6934,-3.33334 -13.0453,-11 -13.0453,-20 0,-12 10.0348,-22 22.0767,-22 12.0418,0 22.0767,10 22.0767,22 0,9 -5.3519,16.66666 -13.0453,20 z m 22.0767,-119 c -8.3624,-7.33333 -22.0767,-13 -39.805,-13 -17.7283,0 -34.1186,3.33333 -48.1675,11.66667 v -3.33334 c 0,-33.33333 13.7144,-52 46.8295,-52 33.1151,0 41.4775,21.33334 41.4775,55 v 1.66667 z"
           id="path855"
           fill="#a9218e" />
      </g>
    </g>
  </g>
  <g
     inkscape:groupmode="layer"
     id="layer1"
     inkscape:label="button"
     transform="translate(7.2479248,8.1852149)">
    <path
       style="display:inline;opacity:0.15;fill:#ffffff;stroke-width:1.24994993"
       d="M 19.323594,-7.6624106 A 53.185375,53.185375 0 0 0 17.163252,-6.6664401 51.221167,51.221163 0 0 0 -9.2577584,38.084597 51.221167,51.221163 0 0 0 41.964013,89.306398 51.221167,51.221163 0 0 0 79.344839,73.009369 53.035385,53.035385 0 0 1 63.222396,75.557848 53.172877,53.172877 0 0 1 19.323594,-7.6624106 Z"
       id="path133-3-3"
       inkscape:connector-curvature="0"
       clip-path="url(#clipPath993)" />
  </g>
  <g
     inkscape:groupmode="layer"
     id="layer2"
     inkscape:label="edge"
     style="display:inline"
     transform="translate(7.2479248,8.1852149)" />
  <g
     style="fill:none;stroke:currentColor"
     id="g965"
     transform="translate(-2.7003387,63.573563)" />
</svg>
