<svg xmlns="http://www.w3.org/2000/svg" viewBox="0 0 81.44 81.44"><defs><style>.cls-1{fill:#79992e;stroke:#79992e;stroke-width:10px;}.cls-1,.cls-5{stroke-miterlimit:10;}.cls-2{fill:#5c7522;}.cls-3{font-size:10px;font-family:Hind-SemiBold, Hind;font-weight:700;letter-spacing:-0.01em;}.cls-3,.cls-6{fill:#e30613;}.cls-4{font-size:8px;fill:#fff;letter-spacing:-0.01em;}.cls-5{fill:none;stroke:#fff;}</style></defs><title>Element 266</title><g id="Ebene_2" data-name="Ebene 2"><g id="Ebene_2-2" data-name="Ebene 2"><circle class="cls-1" cx="40.72" cy="40.72" r="35.72"/><path class="cls-2" d="M58.77,22.46a19.71,19.71,0,0,1,1.73,1.92A8.4,8.4,0,0,1,64,23c2,.86,3.94,1.8,3.94,2s-3-1.05-4-1.34A8.08,8.08,0,0,0,61,24.86c-.1.29,0,.38,0,.38a8.67,8.67,0,0,1,1.34.58c.2.38.39,1.53.1,1.82-.1.1-.06.14-.38.19s-1.41,1.71-2.44,2.74-4.76.24-4.76.24.22,2.16.29,4.31c.38.68.86.86,2.21,1.44,2.39.29,4.71-.06,4.79.19s-4.66.57-5.08.48-1.44-.48-2.5-.77a10.19,10.19,0,0,0,2.21,2.79,17.63,17.63,0,0,1,3.84,1.34A32.17,32.17,0,0,1,56.38,40a21.45,21.45,0,0,1-2.22-1.68c.25.75.45,2.22,1,2.74,1.29,1.29,3,2.59,2.82,2.71a33.82,33.82,0,0,1-3.62-2.39c-.68-1.5-1.72-4.09-1.72-4.09h-1a165.72,165.72,0,0,1,3.66,39.35C51.08,74.58,41,59.3,48,49.46c1.17-1.64,1.3-11.9,1.3-11.9a7.75,7.75,0,0,1-2.27-1,2.92,2.92,0,0,1-.67.1c4.4,10.09-26.38,24.65-26.38,24.65S34.48,30.53,44.58,34.93a2.75,2.75,0,0,1,.09-.67,8,8,0,0,1-1-2.27s-10.26.12-11.91,1.29c-9.83,7-25.12-3.13-27.19-7.27a166.08,166.08,0,0,1,39.36,3.65v-1s-2.59-1-4.09-1.72a34.41,34.41,0,0,1-2.4-3.62c.13-.15,1.42,1.53,2.72,2.83.51.51,2,.71,2.73,1a26,26,0,0,1-1.68-2.21,30.53,30.53,0,0,1-.57-4.22c.19,0,.76,1.92,1.34,3.83a9.84,9.84,0,0,0,2.78,2.21c-.29-1.05-.67-2-.77-2.49s.23-5.17.48-5.09-.09,2.4.19,4.8c.58,1.34.76,1.83,1.44,2.21,2.15.06,4.32.28,4.32.28s-.8-3.72.23-4.75,2.69-2.11,2.74-2.44.1-.29.19-.38c.29-.29,1.44-.1,1.83.09A9.33,9.33,0,0,1,56,20.25s.1.1.39,0a8.3,8.3,0,0,0,1.15-2.87c-.29-1.06-1.56-4-1.35-4s1.16,1.92,2,3.93a8.4,8.4,0,0,1-1.34,3.45A17,17,0,0,1,58.77,22.46Z"/><text class="cls-3" transform="translate(20.35 56.1)">THREATH<tspan class="cls-4"><tspan x="1.02" y="8">MODELING</tspan></tspan></text><circle class="cls-5" cx="41.84" cy="22.73" r="11.86"/><circle class="cls-5" cx="47.84" cy="33.37" r="11.86"/><circle class="cls-5" cx="35.44" cy="32.95" r="11.86"/><circle class="cls-6" cx="41.69" cy="29.81" r="3.6"/></g></g></svg>