<svg xmlns="http://www.w3.org/2000/svg" xmlns:xlink="http://www.w3.org/1999/xlink" viewBox="0 0 85.67 85.12"><defs><style>.cls-1{fill:none;}.cls-2{clip-path:url(#clip-path);}.cls-3{fill:#e6332a;stroke:#e6332a;stroke-width:10px;}.cls-3,.cls-7{stroke-miterlimit:10;}.cls-4{fill:#be1622;}.cls-5{font-size:13.88px;font-family:Hind-SemiBold, Hind;font-weight:700;}.cls-5,.cls-6,.cls-7,.cls-8{fill:#fff;}.cls-6{opacity:0.07;}.cls-7{stroke:#fff;}</style><clipPath id="clip-path" transform="translate(0 -0.07)"><circle class="cls-1" cx="44.97" cy="40.77" r="40.77"/></clipPath></defs><title>Element 268</title><g id="Ebene_2" data-name="Ebene 2"><g id="Ebene_2-2" data-name="Ebene 2"><g class="cls-2"><circle class="cls-3" cx="45" cy="40.67" r="35.67"/><path class="cls-4" d="M63.59,22a18.12,18.12,0,0,1,1.78,2,8.66,8.66,0,0,1,3.55-1.38c2.08.89,4.06,1.86,4,2.07s-3.06-1.08-4.15-1.38a8.44,8.44,0,0,0-3,1.19c-.1.29,0,.39,0,.39a9.35,9.35,0,0,1,1.38.59c.2.4.4,1.58.1,1.88-.1.1,0,.14-.39.2s-1.45,1.75-2.51,2.82-4.9.24-4.9.24.22,2.23.3,4.44c.38.71.88.89,2.27,1.49,2.47.29,4.85-.07,4.94.19s-4.81.58-5.24.5-1.48-.5-2.57-.79a10.49,10.49,0,0,0,2.27,2.86c2,.59,4,1.19,4,1.38A32.45,32.45,0,0,1,61.12,40a24.24,24.24,0,0,1-2.28-1.73c.25.77.46,2.28,1,2.82,1.33,1.33,3.06,2.66,2.9,2.79A34.92,34.92,0,0,1,59,41.44c-.7-1.54-1.77-4.2-1.77-4.2H56.17a170.79,170.79,0,0,1,3.76,40.52c-4.26-2.13-14.68-17.87-7.49-28,1.21-1.69,1.34-12.26,1.34-12.26a7.79,7.79,0,0,1-2.34-1,3,3,0,0,1-.69.09C55.28,47,23.59,62,23.59,62S38.58,30.27,49,34.8a3.14,3.14,0,0,1,.1-.7,8.16,8.16,0,0,1-1-2.33s-10.56.13-12.26,1.33c-10.13,7.2-25.87-3.23-28-7.49a170.92,170.92,0,0,1,40.53,3.76V28.3s-2.67-1.06-4.21-1.77a34.92,34.92,0,0,1-2.47-3.73c.13-.15,1.46,1.58,2.8,2.91.53.53,2,.74,2.81,1a24.05,24.05,0,0,1-1.73-2.27,32.45,32.45,0,0,1-.59-4.35c.2,0,.79,2,1.38,4a10.37,10.37,0,0,0,2.87,2.27c-.3-1.08-.69-2.07-.79-2.57s.23-5.32.49-5.23-.1,2.47.2,4.94c.59,1.38.78,1.88,1.48,2.27,2.22.07,4.45.3,4.45.3s-.83-3.84.24-4.9S58,18.94,58.06,18.6s.1-.3.19-.4c.3-.29,1.49-.1,1.88.1a8.31,8.31,0,0,1,.59,1.38s.1.1.4,0a8.41,8.41,0,0,0,1.18-3c-.29-1.09-1.59-4.14-1.38-4.15s1.19,2,2.08,4.05a8.79,8.79,0,0,1-1.39,3.56A18.27,18.27,0,0,1,63.59,22Z" transform="translate(0 -0.07)"/><text class="cls-5" transform="translate(34.39 60.71)">TLS</text><path class="cls-6" d="M61.29,69.87a42.19,42.19,0,0,1-34.83-66A42.2,42.2,0,1,0,77,66.82,42,42,0,0,1,61.29,69.87Z" transform="translate(0 -0.07)"/><circle class="cls-7" cx="64.98" cy="52.67" r="0.55"/><circle class="cls-7" cx="71.48" cy="52.67" r="0.55"/><circle class="cls-7" cx="71.48" cy="47.18" r="0.55"/><circle class="cls-7" cx="71.48" cy="41.7" r="0.55"/><circle class="cls-7" cx="71.48" cy="36.22" r="0.55"/><circle class="cls-7" cx="24.96" cy="52.98" r="0.55"/><circle class="cls-7" cx="18.45" cy="52.98" r="0.55"/><circle class="cls-7" cx="18.45" cy="47.28" r="0.55"/><circle class="cls-7" cx="18.45" cy="41.58" r="0.55"/><circle class="cls-7" cx="18.45" cy="35.88" r="0.55"/><circle class="cls-7" cx="18.52" cy="30.18" r="0.55"/><circle class="cls-7" cx="24.47" cy="30.18" r="0.55"/><circle class="cls-7" cx="30.29" cy="30.18" r="0.55"/><circle class="cls-7" cx="71.41" cy="30.73" r="0.55"/><circle class="cls-7" cx="65.46" cy="30.73" r="0.55"/><circle class="cls-7" cx="59.65" cy="30.73" r="0.55"/><path class="cls-8" d="M50.85,26.57H42V22.15a3.32,3.32,0,1,1,6.64,0v1.11h2.22V22.15a5.54,5.54,0,0,0-11.07,0v4.42a2.22,2.22,0,0,0-2.21,2.22v7.74a2.22,2.22,0,0,0,2.21,2.22H50.85a2.22,2.22,0,0,0,2.21-2.22V28.79A2.22,2.22,0,0,0,50.85,26.57Zm-5.54,7.75A1.66,1.66,0,1,1,47,32.66,1.66,1.66,0,0,1,45.31,34.32Z" transform="translate(0 -0.07)"/></g></g></g></svg>