<svg xmlns="http://www.w3.org/2000/svg" xmlns:xlink="http://www.w3.org/1999/xlink" viewBox="0 0 86.59 84.91"><defs><style>.cls-1,.cls-8{fill:none;}.cls-2{clip-path:url(#clip-path);}.cls-3{fill:#fcea10;stroke:#fcea10;stroke-width:10px;}.cls-10,.cls-11,.cls-3,.cls-8,.cls-9{stroke-miterlimit:10;}.cls-4{fill:#eacf11;}.cls-5{font-size:8px;}.cls-10,.cls-11,.cls-5,.cls-6{fill:#1d1d1b;}.cls-5,.cls-6{font-family:Hind-SemiBold, Hind;font-weight:700;}.cls-6{font-size:8.7px;letter-spacing:-0.02em;}.cls-7{fill:#fff;opacity:0.07;}.cls-8,.cls-9{stroke:#e30613;}.cls-11,.cls-8{stroke-width:2px;}.cls-12,.cls-9{fill:#e30613;}.cls-10,.cls-11{stroke:#1d1d1b;}.cls-12{font-size:17px;font-family:MyriadPro-Regular, Myriad Pro;}</style><clipPath id="clip-path" transform="translate(0 -0.15)"><circle class="cls-1" cx="44.99" cy="40.92" r="40.92"/></clipPath></defs><title>Element 282</title><g id="Ebene_2" data-name="Ebene 2"><g id="Ebene_2-2" data-name="Ebene 2"><g class="cls-2"><circle class="cls-3" cx="45.14" cy="40.78" r="35.78"/><path class="cls-4" d="M63.39,22.47a15.55,15.55,0,0,1,1.75,1.94,8.52,8.52,0,0,1,3.49-1.36c2,.87,4,1.82,4,2s-3-1.07-4.08-1.36a8.32,8.32,0,0,0-2.91,1.16c-.09.29,0,.39,0,.39a8.57,8.57,0,0,1,1.36.58c.2.39.39,1.55.1,1.84-.1.1-.06.14-.39.2s-1.42,1.72-2.46,2.77-4.81.23-4.81.23.22,2.19.29,4.37c.38.69.87.87,2.23,1.45,2.42.3,4.76-.06,4.85.2s-4.72.57-5.14.48-1.46-.48-2.52-.77a10,10,0,0,0,2.23,2.81c1.94.58,3.88,1.16,3.88,1.36A32.91,32.91,0,0,1,61,40.22a24.72,24.72,0,0,1-2.24-1.7c.25.75.45,2.24,1,2.76,1.31,1.31,3,2.62,2.85,2.75A35.2,35.2,0,0,1,58.9,41.6c-.69-1.51-1.74-4.13-1.74-4.13h-1a167.8,167.8,0,0,1,3.69,39.8c-4.18-2.1-14.42-17.55-7.35-27.5,1.18-1.66,1.31-12,1.31-12a7.87,7.87,0,0,1-2.3-1,2.46,2.46,0,0,1-.68.1C55.23,47,24.11,61.75,24.11,61.75S38.83,30.63,49,35.08a2.46,2.46,0,0,1,.1-.68,7.87,7.87,0,0,1-1-2.3s-10.38.13-12,1.31c-10,7.07-25.4-3.17-27.5-7.35a167.8,167.8,0,0,1,39.8,3.69V28.7S45.77,27.65,44.26,27a35.2,35.2,0,0,1-2.43-3.66c.13-.15,1.44,1.54,2.75,2.85.52.53,2,.73,2.76,1a24.72,24.72,0,0,1-1.7-2.24,32.91,32.91,0,0,1-.58-4.27c.2,0,.78,1.94,1.36,3.88a10,10,0,0,0,2.81,2.23c-.29-1.06-.68-2-.77-2.52s.23-5.22.48-5.14-.1,2.43.2,4.85c.58,1.36.76,1.85,1.45,2.23,2.18.07,4.36.29,4.36.29s-.8-3.76.24-4.81S57.91,19.5,58,19.17s.1-.29.2-.39c.29-.29,1.45-.1,1.84.1a8.57,8.57,0,0,1,.58,1.36s.1.09.39,0a8.32,8.32,0,0,0,1.16-2.91c-.29-1.07-1.57-4.07-1.36-4.08s1.17,1.94,2,4a8.52,8.52,0,0,1-1.36,3.49A15.55,15.55,0,0,1,63.39,22.47Z" transform="translate(0 -0.15)"/><text class="cls-5" transform="translate(18.05 57.7)">UNVALIDATED</text><text class="cls-6" transform="translate(25.9 66.53)">REDIRECT</text><path class="cls-7" d="M61.47,69.68A42.33,42.33,0,0,1,26.54,3.46,42.33,42.33,0,1,0,77.26,66.63,42.28,42.28,0,0,1,61.47,69.68Z" transform="translate(0 -0.15)"/></g><path class="cls-8" d="M36.71,44.9c4.48,0,8.94,1,8.28-6.75" transform="translate(0 -0.15)"/><polygon class="cls-9" points="47.01 39.56 45.05 38.88 43.15 39.79 45.02 35.5 47.01 39.56"/><polygon class="cls-10" points="65.33 42.49 67.48 44.7 65.32 46.89 70.08 44.71 65.33 42.49"/><line class="cls-11" x1="47.86" y1="44.72" x2="68.49" y2="44.72"/><line class="cls-11" x1="16.53" y1="44.72" x2="35.66" y2="44.72"/><polygon class="cls-8" points="33.13 32.95 44.74 14.23 56.35 32.95 33.13 32.95"/><text class="cls-12" transform="translate(42.77 31)">!</text></g></g></svg>