<?xml version="1.0" encoding="UTF-8" standalone="no"?>
<svg
   xmlns:dc="http://purl.org/dc/elements/1.1/"
   xmlns:cc="http://creativecommons.org/ns#"
   xmlns:rdf="http://www.w3.org/1999/02/22-rdf-syntax-ns#"
   xmlns:svg="http://www.w3.org/2000/svg"
   xmlns="http://www.w3.org/2000/svg"
   xmlns:sodipodi="http://sodipodi.sourceforge.net/DTD/sodipodi-0.dtd"
   xmlns:inkscape="http://www.inkscape.org/namespaces/inkscape"
   viewBox="0 0 81.84 81.839993"
   version="1.1"
   id="svg39"
   sodipodi:docname="unvalidated_redirect.svg"
   width="81.839996"
   height="81.839996"
   inkscape:version="0.92.2 (5c3e80d, 2017-08-06)">
  <metadata
     id="metadata43">
    <rdf:RDF>
      <cc:Work
         rdf:about="">
        <dc:format>image/svg+xml</dc:format>
        <dc:type
           rdf:resource="http://purl.org/dc/dcmitype/StillImage" />
      </cc:Work>
    </rdf:RDF>
  </metadata>
  <sodipodi:namedview
     pagecolor="#ffffff"
     bordercolor="#666666"
     borderopacity="1"
     objecttolerance="10"
     gridtolerance="10"
     guidetolerance="10"
     inkscape:pageopacity="0"
     inkscape:pageshadow="2"
     inkscape:window-width="640"
     inkscape:window-height="480"
     id="namedview41"
     showgrid="false"
     inkscape:zoom="2.7794134"
     inkscape:cx="39.224995"
     inkscape:cy="39.384995"
     inkscape:window-x="0"
     inkscape:window-y="0"
     inkscape:window-maximized="0"
     inkscape:current-layer="svg39" />
  <defs
     id="defs7">
    <style
       id="style2">.cls-1,.cls-8{fill:none;}.cls-2{clip-path:url(#clip-path);}.cls-3{fill:#fcea10;stroke:#fcea10;stroke-width:10px;}.cls-10,.cls-11,.cls-3,.cls-8,.cls-9{stroke-miterlimit:10;}.cls-4{fill:#eacf11;}.cls-5{font-size:8px;}.cls-10,.cls-11,.cls-5,.cls-6{fill:#1d1d1b;}.cls-5,.cls-6{font-family:Hind-SemiBold, Hind;font-weight:700;}.cls-6{font-size:8.7px;letter-spacing:-0.02em;}.cls-7{fill:#fff;opacity:0.07;}.cls-8,.cls-9{stroke:#e30613;}.cls-11,.cls-8{stroke-width:2px;}.cls-12,.cls-9{fill:#e30613;}.cls-10,.cls-11{stroke:#1d1d1b;}.cls-12{font-size:17px;font-family:MyriadPro-Regular, Myriad Pro;}</style>
    <clipPath
       id="clip-path"
       transform="translate(0 -0.15)">
      <circle
         class="cls-1"
         cx="44.990002"
         cy="40.919998"
         r="40.919998"
         id="circle4"
         style="fill:none" />
    </clipPath>
  </defs>
  <title
     id="title9">Element 282</title>
  <g
     id="Ebene_2"
     data-name="Ebene 2"
     transform="translate(-4.0700035)">
    <g
       id="Ebene_2-2"
       data-name="Ebene 2">
      <g
         class="cls-2"
         clip-path="url(#clip-path)"
         id="g21">
        <circle
           class="cls-3"
           cx="45.139999"
           cy="40.779999"
           r="35.779999"
           id="circle11"
           style="fill:#fcea10;stroke:#fcea10;stroke-width:10px;stroke-miterlimit:10" />
        <path
           class="cls-4"
           d="m 63.39,22.47 a 15.55,15.55 0 0 1 1.75,1.94 8.52,8.52 0 0 1 3.49,-1.36 c 2,0.87 4,1.82 4,2 0,0.18 -3,-1.07 -4.08,-1.36 a 8.32,8.32 0 0 0 -2.91,1.16 c -0.09,0.29 0,0.39 0,0.39 A 8.57,8.57 0 0 1 67,25.82 c 0.2,0.39 0.39,1.55 0.1,1.84 -0.1,0.1 -0.06,0.14 -0.39,0.2 -0.33,0.06 -1.42,1.72 -2.46,2.77 -1.04,1.05 -4.81,0.23 -4.81,0.23 0,0 0.22,2.19 0.29,4.37 0.38,0.69 0.87,0.87 2.23,1.45 2.42,0.3 4.76,-0.06 4.85,0.2 0.09,0.26 -4.72,0.57 -5.14,0.48 -0.42,-0.09 -1.46,-0.48 -2.52,-0.77 a 10,10 0 0 0 2.23,2.81 c 1.94,0.58 3.88,1.16 3.88,1.36 A 32.91,32.91 0 0 1 61,40.22 24.72,24.72 0 0 1 58.76,38.52 c 0.25,0.75 0.45,2.24 1,2.76 1.31,1.31 3,2.62 2.85,2.75 A 35.2,35.2 0 0 1 58.9,41.6 c -0.69,-1.51 -1.74,-4.13 -1.74,-4.13 h -1 a 167.8,167.8 0 0 1 3.69,39.8 c -4.18,-2.1 -14.42,-17.55 -7.35,-27.5 1.18,-1.66 1.31,-12 1.31,-12 a 7.87,7.87 0 0 1 -2.3,-1 2.46,2.46 0 0 1 -0.68,0.1 C 55.23,47 24.11,61.75 24.11,61.75 c 0,0 14.72,-31.12 24.89,-26.67 a 2.46,2.46 0 0 1 0.1,-0.68 7.87,7.87 0 0 1 -1,-2.3 c 0,0 -10.38,0.13 -12,1.31 -10,7.07 -25.4,-3.17 -27.5,-7.35 a 167.8,167.8 0 0 1 39.8,3.69 V 28.7 c 0,0 -2.63,-1.05 -4.14,-1.7 a 35.2,35.2 0 0 1 -2.43,-3.66 c 0.13,-0.15 1.44,1.54 2.75,2.85 0.52,0.53 2,0.73 2.76,1 a 24.72,24.72 0 0 1 -1.7,-2.24 32.91,32.91 0 0 1 -0.58,-4.27 c 0.2,0 0.78,1.94 1.36,3.88 a 10,10 0 0 0 2.81,2.23 c -0.29,-1.06 -0.68,-2 -0.77,-2.52 -0.09,-0.52 0.23,-5.22 0.48,-5.14 0.25,0.08 -0.1,2.43 0.2,4.85 0.58,1.36 0.76,1.85 1.45,2.23 2.18,0.07 4.36,0.29 4.36,0.29 0,0 -0.8,-3.76 0.24,-4.81 1.04,-1.05 2.72,-2.19 2.81,-2.52 0.09,-0.33 0.1,-0.29 0.2,-0.39 0.29,-0.29 1.45,-0.1 1.84,0.1 a 8.57,8.57 0 0 1 0.58,1.36 c 0,0 0.1,0.09 0.39,0 a 8.32,8.32 0 0 0 1.16,-2.91 c -0.29,-1.07 -1.57,-4.07 -1.36,-4.08 0.21,-0.01 1.17,1.94 2,4 a 8.52,8.52 0 0 1 -1.36,3.49 15.55,15.55 0 0 1 1.94,1.73 z"
           transform="translate(0,-0.15)"
           id="path13"
           inkscape:connector-curvature="0"
           style="fill:#eacf11" />
        <text
           class="cls-5"
           transform="translate(18.05,57.7)"
           id="text15"
           style="font-weight:700;font-size:8px;font-family:Hind-SemiBold, Hind;fill:#1d1d1b">UNVALIDATED</text>
        <text
           class="cls-6"
           transform="translate(25.9,66.53)"
           id="text17"
           style="font-weight:700;font-size:8.69999981px;font-family:Hind-SemiBold, Hind;letter-spacing:-0.02em;fill:#1d1d1b">REDIRECT</text>
        <path
           class="cls-7"
           d="M 61.47,69.68 A 42.33,42.33 0 0 1 26.54,3.46 42.33,42.33 0 1 0 77.26,66.63 42.28,42.28 0 0 1 61.47,69.68 Z"
           transform="translate(0,-0.15)"
           id="path19"
           inkscape:connector-curvature="0"
           style="opacity:0.07000002;fill:#ffffff" />
      </g>
      <path
         class="cls-8"
         d="m 36.71,44.9 c 4.48,0 8.94,1 8.28,-6.75"
         transform="translate(0,-0.15)"
         id="path23"
         inkscape:connector-curvature="0"
         style="fill:none;stroke:#e30613;stroke-width:2px;stroke-miterlimit:10" />
      <polygon
         class="cls-9"
         points="47.01,39.56 45.05,38.88 43.15,39.79 45.02,35.5 "
         id="polygon25"
         style="fill:#e30613;stroke:#e30613;stroke-miterlimit:10" />
      <polygon
         class="cls-10"
         points="65.33,42.49 67.48,44.7 65.32,46.89 70.08,44.71 "
         id="polygon27"
         style="fill:#1d1d1b;stroke:#1d1d1b;stroke-miterlimit:10" />
      <line
         class="cls-11"
         x1="47.860001"
         y1="44.720001"
         x2="68.489998"
         y2="44.720001"
         id="line29"
         style="fill:#1d1d1b;stroke:#1d1d1b;stroke-width:2px;stroke-miterlimit:10" />
      <line
         class="cls-11"
         x1="16.530001"
         y1="44.720001"
         x2="35.66"
         y2="44.720001"
         id="line31"
         style="fill:#1d1d1b;stroke:#1d1d1b;stroke-width:2px;stroke-miterlimit:10" />
      <polygon
         class="cls-8"
         points="56.35,32.95 33.13,32.95 44.74,14.23 "
         id="polygon33"
         style="fill:none;stroke:#e30613;stroke-width:2px;stroke-miterlimit:10" />
      <text
         class="cls-12"
         transform="translate(42.77,31)"
         id="text35"
         style="font-size:17px;font-family:MyriadPro-Regular, 'Myriad Pro';fill:#e30613">!</text>
    </g>
  </g>
</svg>
