<?xml version="1.0" encoding="UTF-8" standalone="no"?>
<svg
   xmlns:dc="http://purl.org/dc/elements/1.1/"
   xmlns:cc="http://creativecommons.org/ns#"
   xmlns:rdf="http://www.w3.org/1999/02/22-rdf-syntax-ns#"
   xmlns:svg="http://www.w3.org/2000/svg"
   xmlns="http://www.w3.org/2000/svg"
   xmlns:sodipodi="http://sodipodi.sourceforge.net/DTD/sodipodi-0.dtd"
   xmlns:inkscape="http://www.inkscape.org/namespaces/inkscape"
   viewBox="0 0 97.384289 97.422954"
   version="1.1"
   id="svg39"
   sodipodi:docname="unvalidated_redirect.svg"
   width="97.384285"
   height="97.422958"
   inkscape:version="0.92.3 (2405546, 2018-03-11)">
  <metadata
     id="metadata43">
    <rdf:RDF>
      <cc:Work
         rdf:about="">
        <dc:format>image/svg+xml</dc:format>
        <dc:type
           rdf:resource="http://purl.org/dc/dcmitype/StillImage" />
        <dc:title>Element 282</dc:title>
      </cc:Work>
    </rdf:RDF>
  </metadata>
  <sodipodi:namedview
     pagecolor="#ffffff"
     bordercolor="#666666"
     borderopacity="1"
     objecttolerance="10"
     gridtolerance="10"
     guidetolerance="10"
     inkscape:pageopacity="0"
     inkscape:pageshadow="2"
     inkscape:window-width="1841"
     inkscape:window-height="879"
     id="namedview41"
     showgrid="false"
     inkscape:zoom="5.558827"
     inkscape:cx="31.784743"
     inkscape:cy="45.053557"
     inkscape:window-x="79"
     inkscape:window-y="27"
     inkscape:window-maximized="1"
     inkscape:current-layer="layer2"
     fit-margin-top="0"
     fit-margin-left="0"
     fit-margin-right="0"
     fit-margin-bottom="0" />
  <defs
     id="defs7">
    <style
       id="style2">.cls-1,.cls-8{fill:none;}.cls-2{clip-path:url(#clip-path);}.cls-3{fill:#fcea10;stroke:#fcea10;stroke-width:10px;}.cls-10,.cls-11,.cls-3,.cls-8,.cls-9{stroke-miterlimit:10;}.cls-4{fill:#eacf11;}.cls-5{font-size:8px;}.cls-10,.cls-11,.cls-5,.cls-6{fill:#1d1d1b;}.cls-5,.cls-6{font-family:Hind-SemiBold, Hind;font-weight:700;}.cls-6{font-size:8.7px;letter-spacing:-0.02em;}.cls-7{fill:#fff;opacity:0.07;}.cls-8,.cls-9{stroke:#e30613;}.cls-11,.cls-8{stroke-width:2px;}.cls-12,.cls-9{fill:#e30613;}.cls-10,.cls-11{stroke:#1d1d1b;}.cls-12{font-size:17px;font-family:MyriadPro-Regular, Myriad Pro;}</style>
    <clipPath
       id="clip-path"
       transform="translate(0 -0.15)">
      <circle
         class="cls-1"
         cx="44.990002"
         cy="40.919998"
         r="40.919998"
         id="circle4"
         style="fill:none" />
    </clipPath>
    <clipPath
       clipPathUnits="userSpaceOnUse"
       id="clipPath901">
      <ellipse
         style="display:inline;opacity:1;vector-effect:none;fill:none;fill-opacity:1;stroke:#000000;stroke-width:0.00890108;stroke-linecap:butt;stroke-linejoin:miter;stroke-miterlimit:4;stroke-dasharray:none;stroke-dashoffset:0;stroke-opacity:1"
         id="ellipse903"
         cx="45.387135"
         cy="41.576778"
         rx="38.226025"
         ry="38.225269" />
    </clipPath>
  </defs>
  <title
     id="title9">Element 282</title>
  <g
     inkscape:groupmode="layer"
     id="layer2"
     inkscape:label="button"
     transform="translate(7.7570691,8.0607368)">
    <g
       inkscape:groupmode="layer"
       id="layer3"
       inkscape:label="background"
       style="display:inline">
      <circle
         class="cls-3"
         cx="40.935074"
         cy="40.645077"
         r="42.722042"
         id="circle11"
         style="fill:#fcea10;stroke:#fcea10;stroke-width:11.94020176px;stroke-miterlimit:10" />
      <path
         class="cls-4"
         d="m 60.592264,21.174403 a 16.436666,16.436666 0 0 1 1.849785,2.050619 9.0058129,9.0058129 0 0 1 3.689001,-1.437548 c 2.11404,0.919608 4.228081,1.923777 4.228081,2.114041 0,0.190264 -3.171062,-1.131012 -4.312643,-1.437548 a 8.7944089,8.7944089 0 0 0 -3.075929,1.226144 c -0.09513,0.306536 0,0.412238 0,0.412238 a 9.0586639,9.0586639 0 0 1 1.437548,0.613071 c 0.211404,0.412238 0.412237,1.638382 0.105701,1.944918 -0.105701,0.105701 -0.06342,0.147983 -0.412238,0.211404 -0.348817,0.06342 -1.500969,1.818075 -2.60027,2.927946 -1.099301,1.109872 -5.084268,0.243115 -5.084268,0.243115 0,0 0.232544,2.314875 0.306536,4.619178 0.401668,0.729345 0.919607,0.919608 2.357155,1.53268 2.557989,0.317106 5.031417,-0.06342 5.126549,0.211404 0.09513,0.274825 -4.989136,0.602501 -5.433085,0.507369 -0.443949,-0.09513 -1.543249,-0.507369 -2.66369,-0.813905 a 10.570203,10.570203 0 0 0 2.357155,2.970228 c 2.050619,0.613071 4.101238,1.226143 4.101238,1.437546 a 34.786538,34.786538 0 0 1 -4.502906,-0.570791 26.129541,26.129541 0 0 1 -2.367725,-1.796934 c 0.264254,0.792765 0.475658,2.367725 1.057019,2.917376 1.384698,1.384697 3.171062,2.769393 3.012508,2.906806 A 37.207114,37.207114 0 0 1 55.846241,41.3952 C 55.116898,39.7991 54.007026,37.029707 54.007026,37.029707 H 52.950005 A 177.368,177.368 0 0 1 56.85041,79.099114 C 52.432066,76.879372 41.608178,60.548408 49.081312,50.031057 50.328595,48.276403 50.466008,37.346813 50.466008,37.346813 a 8.3187497,8.3187497 0 0 1 -2.431147,-1.05702 2.6002699,2.6002699 0 0 1 -0.718774,0.105701 c 4.65089,10.707615 -28.243581,26.298665 -28.243581,26.298665 0,0 15.559338,-32.894472 26.309235,-28.190731 a 2.6002699,2.6002699 0 0 1 0.105701,-0.718775 8.3187497,8.3187497 0 0 1 -1.057021,-2.431146 c 0,0 -10.971871,0.137413 -12.684243,1.384696 C 21.175976,40.211338 4.8978642,29.38745 2.6781216,24.969106 A 177.368,177.368 0 0 1 44.747529,28.86951 v -1.10987 c 0,0 -2.779963,-1.109872 -4.376064,-1.796936 A 37.207114,37.207114 0 0 1 37.802906,22.09401 c 0.137412,-0.158552 1.52211,1.627811 2.906806,3.012508 0.54965,0.560221 2.11404,0.771625 2.917376,1.05702 a 26.129541,26.129541 0 0 1 -1.796935,-2.367725 34.786538,34.786538 0 0 1 -0.613072,-4.513477 c 0.211404,0 0.824476,2.050619 1.437548,4.101238 a 10.570203,10.570203 0 0 0 2.970227,2.357157 c -0.306536,-1.120443 -0.718774,-2.114041 -0.813905,-2.663692 -0.09513,-0.54965 0.243114,-5.517646 0.507369,-5.433084 0.264255,0.08456 -0.105701,2.568559 0.211404,5.126548 0.613071,1.437548 0.803335,1.955487 1.53268,2.357155 2.304304,0.074 4.608608,0.306537 4.608608,0.306537 0,0 -0.845616,-3.974397 0.253685,-5.084269 1.099301,-1.109871 2.875095,-2.314873 2.970227,-2.66369 0.09513,-0.348818 0.105701,-0.306536 0.211405,-0.412238 0.306535,-0.306536 1.532678,-0.105701 1.944917,0.105701 a 9.0586639,9.0586639 0 0 1 0.613071,1.437548 c 0,0 0.105701,0.09513 0.412238,0 a 8.7944089,8.7944089 0 0 0 1.226144,-3.07593 c -0.306537,-1.131012 -1.659522,-4.302072 -1.437548,-4.312642 0.221974,-0.01053 1.236714,2.050619 2.114041,4.22808 a 9.0058129,9.0058129 0 0 1 -1.437548,3.689001 16.436666,16.436666 0 0 1 2.05062,1.828647 z"
         id="path13"
         inkscape:connector-curvature="0"
         style="fill:#eacf11;stroke-width:1.05702031" />
    </g>
    <g
       inkscape:groupmode="layer"
       id="layer5"
       inkscape:label="content">
      <text
         class="cls-5"
         id="text15"
         style="font-weight:700;font-size:9.93473244px;font-family:Hind-SemiBold, Hind;fill:#1d1d1b;stroke-width:1.24184155"
         x="8.0960159"
         y="61.586613">UNVALIDATED</text>
      <text
         class="cls-6"
         id="text17"
         style="font-weight:700;font-size:10.80402088px;font-family:Hind-SemiBold, Hind;letter-spacing:-0.02em;fill:#1d1d1b;stroke-width:1.24184155"
         x="17.844473"
         y="72.552071">REDIRECT</text>
      <g
         transform="matrix(1.2418415,0,0,1.2418415,-14.319222,-10.06764)"
         id="g865">
        <path
           class="cls-8"
           d="m 36.71,44.75 c 4.48,0 8.94,1 8.28,-6.75"
           id="path23"
           inkscape:connector-curvature="0"
           style="fill:none;stroke:#e30613;stroke-width:2px;stroke-miterlimit:10" />
        <polygon
           class="cls-9"
           points="43.15,39.79 45.02,35.5 47.01,39.56 45.05,38.88 "
           id="polygon25"
           style="fill:#e30613;stroke:#e30613;stroke-miterlimit:10" />
      </g>
      <g
         transform="matrix(1.2418415,0,0,1.2418415,-14.319222,-10.06764)"
         id="g861">
        <polygon
           class="cls-10"
           points="65.32,46.89 70.08,44.71 65.33,42.49 67.48,44.7 "
           id="polygon27"
           style="fill:#1d1d1b;stroke:#1d1d1b;stroke-miterlimit:10" />
        <line
           class="cls-11"
           x1="47.860001"
           y1="44.720001"
           x2="68.489998"
           y2="44.720001"
           id="line29"
           style="fill:#1d1d1b;stroke:#1d1d1b;stroke-width:2px;stroke-miterlimit:10" />
      </g>
      <line
         style="fill:#1d1d1b;stroke:#1d1d1b;stroke-width:2.48368311px;stroke-miterlimit:10"
         id="line31"
         y2="45.467514"
         x2="29.964846"
         y1="45.467514"
         x1="6.2084188"
         class="cls-11" />
      <g
         transform="matrix(1.2418415,0,0,1.2418415,-14.319222,-10.06764)"
         id="g857">
        <polygon
           class="cls-8"
           points="56.35,32.95 33.13,32.95 44.74,14.23 "
           id="polygon33"
           style="fill:none;stroke:#e30613;stroke-width:2px;stroke-miterlimit:10" />
        <text
           class="cls-12"
           id="text35"
           style="font-size:17px;font-family:MyriadPro-Regular, 'Myriad Pro';fill:#e30613"
           x="41.399632"
           y="31.089947">!</text>
      </g>
    </g>
    <g
       inkscape:groupmode="layer"
       id="layer4"
       inkscape:label="gleam" />
  </g>
  <g
     id="Ebene_2"
     data-name="Ebene 2"
     transform="matrix(1.2743266,0,0,1.2743266,-9.0627389,-4.2709172)"
     clip-path="url(#clipPath901)">
    <path
       class="cls-7"
       d="m 63.759678,68.512366 a 42.33,42.33 0 0 1 -34.93,-66.2200005 42.33,42.33 0 1 0 50.72,63.1700005 42.28,42.28 0 0 1 -15.79,3.05 z"
       id="path19"
       inkscape:connector-curvature="0"
       style="opacity:0.15;fill:#ffffff" />
  </g>
</svg>
