<?xml version="1.0" encoding="UTF-8" standalone="no"?>
<svg
   xmlns:osb="http://www.openswatchbook.org/uri/2009/osb"
   xmlns:dc="http://purl.org/dc/elements/1.1/"
   xmlns:cc="http://creativecommons.org/ns#"
   xmlns:rdf="http://www.w3.org/1999/02/22-rdf-syntax-ns#"
   xmlns:svg="http://www.w3.org/2000/svg"
   xmlns="http://www.w3.org/2000/svg"
   xmlns:sodipodi="http://sodipodi.sourceforge.net/DTD/sodipodi-0.dtd"
   xmlns:inkscape="http://www.inkscape.org/namespaces/inkscape"
   viewBox="0 0 102.04725 102.04724"
   version="1.1"
   id="svg249"
   sodipodi:docname="web-security-resources.svg"
   inkscape:version="0.92.3 (2405546, 2018-03-11)"
   width="2.7cm"
   height="2.7cm">
  <metadata
     id="metadata253">
    <rdf:RDF>
      <cc:Work
         rdf:about="">
        <dc:format>image/svg+xml</dc:format>
        <dc:type
           rdf:resource="http://purl.org/dc/dcmitype/StillImage" />
        <dc:title>Element 266</dc:title>
      </cc:Work>
    </rdf:RDF>
  </metadata>
  <sodipodi:namedview
     pagecolor="#ffffff"
     bordercolor="#666666"
     borderopacity="1"
     objecttolerance="10"
     gridtolerance="10"
     guidetolerance="10"
     inkscape:pageopacity="0"
     inkscape:pageshadow="2"
     inkscape:window-width="1841"
     inkscape:window-height="879"
     id="namedview251"
     showgrid="false"
     inkscape:zoom="1"
     inkscape:cx="-158.21419"
     inkscape:cy="190.55575"
     inkscape:window-x="79"
     inkscape:window-y="27"
     inkscape:window-maximized="1"
     inkscape:current-layer="layer1"
     units="cm"
     inkscape:snap-global="false"
     showguides="false" />
  <defs
     id="defs199">
    <linearGradient
       id="linearGradient2668"
       osb:paint="solid">
      <stop
         style="stop-color:#000000;stop-opacity:1;"
         offset="0"
         id="stop2666" />
    </linearGradient>
    <style
       id="style178">.cls-1,.cls-10,.cls-2{fill:#1d1d1b;}.cls-1,.cls-12,.cls-15,.cls-16,.cls-18{stroke:#fff;}.cls-1,.cls-11,.cls-12,.cls-15,.cls-16,.cls-18,.cls-5{stroke-miterlimit:10;}.cls-1,.cls-16{stroke-width:0.75px;}.cls-1{filter:url(#luminosity-noclip);}.cls-2{filter:url(#luminosity-noclip-2);}.cls-12,.cls-18,.cls-3{fill:none;}.cls-4{clip-path:url(#clip-path);}.cls-5{fill:#008d36;stroke:#008d36;stroke-width:10px;}.cls-6{fill:#063;}.cls-11,.cls-14,.cls-15,.cls-16,.cls-7,.cls-8{fill:#fff;}.cls-7{opacity:0.15;}.cls-8{font-size:9px;font-family:Hind-Bold, Hind;font-weight:700;letter-spacing:-0.01em;}.cls-9{font-family:Hind-SemiBold, Hind;}.cls-11{stroke:#1d1d1b;}.cls-11,.cls-12{stroke-width:2px;}.cls-13{mask:url(#mask);}.cls-15{stroke-width:0.25px;}.cls-17{mask:url(#mask-2);}</style>
    <clipPath
       id="clip-path">
      <circle
         class="cls-3"
         cx="94.949997"
         cy="79.040001"
         r="41.099998"
         id="circle180"
         style="fill:none" />
    </clipPath>
    <filter
       id="luminosity-noclip"
       x="96.540001"
       y="65.989998"
       width="18.18"
       height="12.1"
       filterUnits="userSpaceOnUse"
       style="color-interpolation-filters:sRGB">
      <feFlood
         flood-color="#fff"
         result="bg"
         id="feFlood183" />
      <feBlend
         in="SourceGraphic"
         in2="bg"
         id="feBlend185"
         mode="normal" />
    </filter>
    <mask
       id="mask"
       x="96.54"
       y="65.99"
       width="18.18"
       height="12.1"
       maskUnits="userSpaceOnUse">
      <path
         class="cls-1"
         d="m 103.94,67.16 c 0.62,0.43 -1,2.47 -1.56,4.81 -0.56,2.34 -1.47,5.69 -2.82,5.75 -1.35,0.06 -2.87,-2.55 -2.62,-4.93 0.37,-3.49 5.92,-6.38 7,-5.63 z"
         id="path188"
         inkscape:connector-curvature="0"
         style="fill:#1d1d1b;stroke:#ffffff;stroke-width:0.75px;stroke-miterlimit:10;filter:url(#luminosity-noclip)" />
    </mask>
    <filter
       id="luminosity-noclip-2"
       x="78.07"
       y="66.910004"
       width="14.87"
       height="12.61"
       filterUnits="userSpaceOnUse"
       style="color-interpolation-filters:sRGB">
      <feFlood
         flood-color="#fff"
         result="bg"
         id="feFlood191" />
      <feBlend
         in="SourceGraphic"
         in2="bg"
         id="feBlend193"
         mode="normal" />
    </filter>
    <mask
       id="mask-2"
       x="78.07"
       y="66.91"
       width="14.87"
       height="12.61"
       maskUnits="userSpaceOnUse">
      <polygon
         class="cls-2"
         points="86.06,66.91 90.5,77.41 92.56,74.91 92.94,67.72 90.63,67.28 "
         id="polygon196"
         style="fill:#1d1d1b;filter:url(#luminosity-noclip-2)" />
    </mask>
    <clipPath
       clipPathUnits="userSpaceOnUse"
       id="clipPath5473">
      <path
         style="fill:none;stroke:#000000;stroke-width:1.43560028px;stroke-linecap:butt;stroke-linejoin:miter;stroke-opacity:1"
         d="m 96.573516,67.68275 c 0,0 -0.364029,-20.386483 3.995584,-20.453001 11.09879,-0.169342 17.43499,1.240738 20.69622,3.451113 3.26123,2.210374 3.44749,5.221043 2.2464,8.25288 -1.20109,3.031837 -5.20526,18.440871 -6.22767,15.365553 -1.77263,-5.331903 -5.08647,-10.901681 -5.08647,-10.901681 l -3.09593,-0.496933 c 0,0 -2.06824,4.314202 -4.60075,4.751232 -2.5325,0.437031 -7.927384,0.03084 -7.927384,0.03084 z"
         id="path5475"
         inkscape:connector-curvature="0"
         sodipodi:nodetypes="csssscczcc" />
    </clipPath>
    <clipPath
       clipPathUnits="userSpaceOnUse"
       id="clipPath5515">
      <path
         style="fill:none;stroke:#000000;stroke-width:1px;stroke-linecap:butt;stroke-linejoin:miter;stroke-opacity:1"
         d="m 83.786649,61.147527 0.160143,-3.587196 4.900366,1.761569 2.786483,-2.241997 2.40214,-2.081855 -5.380794,-7.975105 -12.330986,7.110334 6.501792,9.544505 1.473313,0.288257 z"
         id="path5517"
         inkscape:connector-curvature="0"
         sodipodi:nodetypes="cccccccccc" />
    </clipPath>
    <clipPath
       clipPathUnits="userSpaceOnUse"
       id="clipPath5535">
      <path
         style="fill:none;stroke:#000000;stroke-width:1px;stroke-linecap:butt;stroke-linejoin:miter;stroke-opacity:1"
         d="m 90.845196,77.163116 -5.027766,-11.912633 -5.435423,-0.407658 -8.651382,2.536531 11.142617,14.22269 7.337821,-0.271771 z"
         id="path5537"
         inkscape:connector-curvature="0" />
    </clipPath>
    <clipPath
       clipPathUnits="userSpaceOnUse"
       id="clipPath5543">
      <path
         style="fill:none;stroke:#000000;stroke-width:1px;stroke-linecap:butt;stroke-linejoin:miter;stroke-opacity:1"
         d="m 99.496577,77.97843 3.487733,-5.390128 0.45295,-4.937175 10.46319,-4.031272 4.07656,6.522508 -12.13911,11.006732 z"
         id="path5545"
         inkscape:connector-curvature="0" />
    </clipPath>
    <mask
       id="mask-2-3"
       x="78.07"
       y="66.91"
       width="14.87"
       height="12.61"
       maskUnits="userSpaceOnUse">
      <polygon
         class="cls-2"
         points="90.5,77.41 92.56,74.91 92.94,67.72 90.63,67.28 86.06,66.91 "
         id="polygon196-6"
         style="fill:#1d1d1b;filter:url(#luminosity-noclip-2-7)" />
    </mask>
    <filter
       id="luminosity-noclip-2-7"
       x="78.07"
       y="66.910004"
       width="14.87"
       height="12.61"
       filterUnits="userSpaceOnUse"
       style="color-interpolation-filters:sRGB">
      <feFlood
         flood-color="#fff"
         result="bg"
         id="feFlood191-5" />
      <feBlend
         in="SourceGraphic"
         in2="bg"
         id="feBlend193-3"
         mode="normal" />
    </filter>
    <clipPath
       clipPathUnits="userSpaceOnUse"
       id="clipPath5535-5">
      <path
         style="fill:none;stroke:#000000;stroke-width:1px;stroke-linecap:butt;stroke-linejoin:miter;stroke-opacity:1"
         d="m 90.845196,77.163116 -5.027766,-11.912633 -5.435423,-0.407658 -8.651382,2.536531 11.142617,14.22269 7.337821,-0.271771 z"
         id="path5537-6"
         inkscape:connector-curvature="0" />
    </clipPath>
    <mask
       id="mask-29"
       x="96.54"
       y="65.99"
       width="18.18"
       height="12.1"
       maskUnits="userSpaceOnUse">
      <path
         class="cls-1"
         d="m 103.94,67.16 c 0.62,0.43 -1,2.47 -1.56,4.81 -0.56,2.34 -1.47,5.69 -2.82,5.75 -1.35,0.06 -2.87,-2.55 -2.62,-4.93 0.37,-3.49 5.92,-6.38 7,-5.63 z"
         id="path188-1"
         inkscape:connector-curvature="0"
         style="fill:#1d1d1b;stroke:#ffffff;stroke-width:0.75px;stroke-miterlimit:10;filter:url(#luminosity-noclip-27)" />
    </mask>
    <filter
       id="luminosity-noclip-27"
       x="96.540001"
       y="65.989998"
       width="18.18"
       height="12.1"
       filterUnits="userSpaceOnUse"
       style="color-interpolation-filters:sRGB">
      <feFlood
         flood-color="#fff"
         result="bg"
         id="feFlood183-0" />
      <feBlend
         in="SourceGraphic"
         in2="bg"
         id="feBlend185-9"
         mode="normal" />
    </filter>
    <clipPath
       clipPathUnits="userSpaceOnUse"
       id="clipPath5543-3">
      <path
         style="fill:none;stroke:#000000;stroke-width:1px;stroke-linecap:butt;stroke-linejoin:miter;stroke-opacity:1"
         d="m 99.496577,77.97843 3.487733,-5.390128 0.45295,-4.937175 10.46319,-4.031272 4.07656,6.522508 -12.13911,11.006732 z"
         id="path5545-6"
         inkscape:connector-curvature="0" />
    </clipPath>
    <clipPath
       clipPathUnits="userSpaceOnUse"
       id="clipPath3012">
      <path
         style="fill:none;stroke:#000000;stroke-width:1px;stroke-linecap:butt;stroke-linejoin:miter;stroke-opacity:1"
         d="m 119.136,31.417873 -2.5625,-11.0625 4.625,1.625 4.5,-2.875 -2.8125,-6.75 -7.8125,-2.4999994 -7.8125,3.4374994 -0.3125,10.8125 z"
         id="path3014"
         inkscape:connector-curvature="0"
         sodipodi:nodetypes="ccccccccc" />
    </clipPath>
    <clipPath
       clipPathUnits="userSpaceOnUse"
       id="clipPath3018">
      <path
         style="fill:none;stroke:#000000;stroke-width:1px;stroke-linecap:butt;stroke-linejoin:miter;stroke-opacity:1"
         d="m 129.32419,16.905927 -0.5625,2.5625 4.8125,0.9375 3.5,-0.9375 -2.8125,11.5 5.625,-1.4375 7.75,-11.875 -11.6875,-7.375 z"
         id="path3020"
         inkscape:connector-curvature="0" />
    </clipPath>
  </defs>
  <title
     id="title201">Element 266</title>
  <text
     id="text215"
     x="-53.295483"
     y="-18.961622" />
  <text
     id="text217"
     x="-53.295483"
     y="-18.961622" />
  <g
     inkscape:groupmode="layer"
     id="layer1"
     inkscape:label="Layer 1"
     style="display:inline"
     transform="translate(0,18.897631)">
    <circle
       style="fill:#008d36;stroke:#008d36;stroke-width:11.8156147px;stroke-miterlimit:10"
       id="circle203"
       r="42.512585"
       cy="34.006889"
       cx="50.300411"
       class="cls-5" />
    <path
       style="opacity:0.15;fill:#ffffff;stroke-width:1.18156159"
       inkscape:connector-curvature="0"
       id="path207"
       d="M 69.701653,68.792065 A 50.275444,50.275444 0 0 1 28.205212,-9.8881194 50.287259,50.287259 0 1 0 88.464851,65.164671 50.133657,50.133657 0 0 1 69.701653,68.792065 Z"
       class="cls-7" />
    <path
       class="cls-6"
       d="m 71.781203,12.348868 a 23.702124,23.702124 0 0 1 2.020469,2.292231 10.208692,10.208692 0 0 1 4.111834,-1.606925 c 2.363123,1.027959 4.726247,2.150442 4.726247,2.363124 0,0.212681 -3.544684,-1.252455 -4.797141,-1.595108 A 9.6415423,9.6415423 0 0 0 74.4279,15.172801 c -0.118156,0.342653 0,0.460809 0,0.460809 a 10.173245,10.173245 0 0 1 1.595109,0.685306 c 0.224495,0.448993 0.448993,1.819605 0.118155,2.162258 -0.118155,0.118156 -0.0709,0.165417 -0.460809,0.224496 -0.389916,0.05909 -1.666002,2.032286 -2.906642,3.26111 -1.240638,1.228823 -5.659679,0.283575 -5.659679,0.283575 0,0 0.259944,2.575803 0.342652,5.139792 0.448994,0.803462 1.027959,1.027959 2.623067,1.713265 2.85938,0.342654 5.612417,-0.07089 5.718758,0.224495 0.106337,0.295392 -5.553339,0.673492 -6.049594,0.567152 -0.496257,-0.106348 -1.713264,-0.567152 -2.977536,-0.909802 a 11.815616,11.815616 0 0 0 2.634882,3.30837 c 2.280415,0.685308 4.560828,1.370612 4.560828,1.595109 A 36.628408,36.628408 0 0 1 68.945454,33.20343 25.580808,25.580808 0 0 1 66.310572,31.206592 c 0.29539,0.88617 0.531703,2.646698 1.181561,3.261109 1.547846,1.536031 3.544685,3.07206 3.367451,3.225664 A 41.260131,41.260131 0 0 1 66.546885,34.8458 c -0.815278,-1.784158 -2.044102,-4.868033 -2.044102,-4.868033 h -1.181562 a 197.01356,197.01356 0 0 1 4.348148,46.837101 C 62.742256,74.345405 50.690329,56.161172 59.008521,44.451896 60.402764,42.490505 60.556367,30.273159 60.556367,30.273159 a 9.3343364,9.3343364 0 0 1 -2.705775,-1.181562 3.320188,3.320188 0 0 1 -0.791648,0.106337 c 5.234318,12.016487 -31.39409,29.338179 -31.39409,29.338179 0,0 17.215353,-36.581147 29.231833,-31.346829 a 3.320188,3.320188 0 0 1 0.106337,-0.791646 9.3343364,9.3343364 0 0 1 -1.181562,-2.705777 c 0,0 -12.205531,0.153604 -14.178739,1.547847 C 27.933453,33.510636 9.74922,21.50597 7.2797559,16.578859 a 197.11992,197.11992 0 0 1 46.8371021,4.348147 v -1.181562 c 0,0 -3.083877,-1.181562 -4.868035,-2.044101 a 39.464157,39.464157 0 0 1 -2.847563,-4.3127 c 0.141786,-0.177235 1.689633,1.819605 3.225663,3.367451 0.614412,0.614412 2.363123,0.850724 3.261111,1.181561 a 27.424044,27.424044 0 0 1 -2.008657,-2.634882 36.628408,36.628408 0 0 1 -0.708936,-5.116162 c 0.224497,0 0.909802,2.280414 1.595109,4.560828 a 11.815616,11.815616 0 0 0 3.308371,2.634883 c -0.342652,-1.264272 -0.803462,-2.363123 -0.909802,-2.977536 -0.106336,-0.614412 0.271759,-6.1441206 0.56715,-6.0495957 0.295391,0.094522 -0.118157,2.8593797 0.224497,5.7069427 0.685304,1.606924 0.909803,2.174073 1.713264,2.634882 2.563989,0.07089 5.139792,0.342653 5.139792,0.342653 0,0 -0.957065,-4.430856 0.283575,-5.65968 1.24064,-1.228824 3.190216,-2.5167258 3.249294,-2.9066403 0.05909,-0.3899168 0.118157,-0.3426527 0.236313,-0.460809 0.342653,-0.3426527 1.713265,-0.1063368 2.162257,0.1181563 a 10.173245,10.173245 0 0 1 0.685306,1.5951071 c 0,0 0.118157,0.1181563 0.46081,0 a 9.6888047,9.6888047 0 0 0 1.37061,-3.426529 C 69.914335,5.0468186 68.401936,1.5730275 68.661879,1.5730275 c 0.259945,0 1.358796,2.2804138 2.363124,4.7262456 a 10.043273,10.043273 0 0 1 -1.595109,4.1118339 23.524891,23.524891 0 0 1 2.351309,1.937761 z"
       id="path205"
       inkscape:connector-curvature="0"
       style="fill:#006633;stroke-width:1.18156159" />
    <text
       class="cls-8"
       id="text213"
       x="13.381461"
       y="53.506145"
       style="font-weight:700;font-size:8.66478539px;font-family:Hind-Bold, Hind;letter-spacing:-0.01em;fill:#ffffff;stroke-width:1.18156159">
      <tspan
         style="font-size:8.66478539px;stroke-width:1.18156159"
         id="tspan255">WEB SECURITY</tspan>
      <tspan
         class="cls-9"
         id="tspan211"
         style="font-size:8.66478539px;font-family:Hind-SemiBold, Hind;stroke-width:1.18156159">
        <tspan
           x="21.475151"
           y="64.140213"
           id="tspan209"
           style="font-size:8.66478539px;stroke-width:1.18156159">RESOURCES</tspan>
      </tspan>
    </text>
  </g>
  <g
     inkscape:groupmode="layer"
     id="layer5"
     inkscape:label="Layer 4"
     style="display:inline"
     transform="translate(0,18.897631)" />
  <g
     inkscape:groupmode="layer"
     id="layer2"
     inkscape:label="objects"
     transform="translate(0,18.897631)">
    <g
       id="g3073"
       transform="matrix(1.08,0,0,1.08,0.26611557,-6.9646306)">
      <g
         transform="matrix(1.0940385,0,0,1.0940385,-58.306147,-45.24451)"
         id="g239"
         mask="url(#mask)"
         class="cls-13"
         style="display:inline">
        <g
           id="g4751">
          <path
             class="cls-14"
             d="m 113.53,68.19 -6.93,4.56 a 1.22,1.22 0 0 1 -1.68,-0.35 v 0 a 1.22,1.22 0 0 1 0.35,-1.69 l 6.93,-4.55 c 0.56,-0.37 1.1,-0.08 1.46,0.48 v 0 c 0.34,0.56 0.43,1.19 -0.13,1.55 z"
             id="path231"
             inkscape:connector-curvature="0"
             style="fill:#ffffff" />
          <rect
             class="cls-15"
             x="111.27"
             y="69.360001"
             width="1.1799999"
             height="1.64"
             transform="rotate(-33.31,111.86205,70.174514)"
             id="rect233"
             style="fill:#ffffff;stroke:#ffffff;stroke-width:0.25px;stroke-miterlimit:10" />
          <rect
             class="cls-15"
             x="113.02"
             y="68.209999"
             width="1.1799999"
             height="1.64"
             transform="rotate(-33.31,113.604,69.038581)"
             id="rect235"
             style="fill:#ffffff;stroke:#ffffff;stroke-width:0.25px;stroke-miterlimit:10" />
          <path
             clip-path="url(#clipPath5543-3)"
             class="cls-16"
             d="m 100.94,70.28 a 3.92,3.92 0 1 0 5.42,1.12 3.93,3.93 0 0 0 -5.42,-1.12 z m 3.32,5 A 2,2 0 1 1 102.1,72 a 2,2 0 0 1 2.16,3.29 z"
             id="path237"
             inkscape:connector-curvature="0"
             style="fill:#ffffff;stroke:#ffffff;stroke-width:0.75px;stroke-miterlimit:10" />
        </g>
      </g>
      <g
         transform="matrix(1.0940385,0,0,1.0940385,-58.306147,-45.24451)"
         id="g245"
         mask="url(#mask-2)"
         class="cls-17"
         style="display:inline">
        <g
           id="g4745">
          <g
             id="g2919">
            <path
               style="fill:none;stroke:#ffffff;stroke-miterlimit:10"
               inkscape:connector-curvature="0"
               id="path241"
               d="m 81,73.09 c -4.85,-3.94 -1.6,-7.9 3.23,-4"
               class="cls-18" />
            <path
               style="fill:#ffffff"
               inkscape:connector-curvature="0"
               id="path243"
               d="m 83.07,69.41 -2,2.53 a 3.54,3.54 0 0 0 0.51,5 l 2.21,1.79 a 3.54,3.54 0 0 0 5,-0.51 l 2,-2.52 a 3.56,3.56 0 0 0 -0.51,-5 l -2.2,-1.79 a 3.55,3.55 0 0 0 -5.01,0.5 z m 2.72,4 a 0.52,0.52 0 0 1 0.7,0 l 1.36,1.1 a 0.54,0.54 0 0 1 0.08,0.75 l -0.25,0.31 a 0.55,0.55 0 0 1 -0.76,0.08 l -1.35,-1.11 a 0.51,0.51 0 0 1 -0.12,-0.67 1.14,1.14 0 0 1 -1.43,0 1.1893065,1.1893065 0 0 1 1.47,-1.87 1.14,1.14 0 0 1 0.3,1.42 z"
               class="cls-14"
               clip-path="url(#clipPath5535-5)" />
          </g>
        </g>
      </g>
      <g
         clip-path="url(#clipPath3018)"
         transform="matrix(1.0940385,0,0,1.0940385,-92.042656,-4.3139589)"
         id="g2915"
         style="display:inline">
        <g
           id="g5450"
           transform="matrix(0.50980836,0.36658186,-0.36658186,0.50980836,104.24305,-50.908)">
          <path
             style="opacity:1;fill:#ffffff;fill-opacity:1;stroke:#cdcdcd;stroke-width:0.52394992;stroke-miterlimit:4;stroke-dasharray:none;stroke-opacity:1"
             d="M 98.469954,54.149781 H 114.42413 V 75.539376 H 98.469954 Z"
             id="rect4757"
             inkscape:connector-curvature="0" />
          <rect
             style="opacity:1;fill:#ffffff;stroke:#ffffff;stroke-width:0;stroke-miterlimit:4;stroke-dasharray:none;stroke-opacity:1"
             id="rect5354"
             width="14.827656"
             height="20.335602"
             x="99.039902"
             y="54.722473"
             ry="0" />
          <path
             style="color:#000000;font-style:normal;font-variant:normal;font-weight:normal;font-stretch:normal;font-size:medium;line-height:normal;font-family:sans-serif;font-variant-ligatures:normal;font-variant-position:normal;font-variant-caps:normal;font-variant-numeric:normal;font-variant-alternates:normal;font-feature-settings:normal;text-indent:0;text-align:start;text-decoration:none;text-decoration-line:none;text-decoration-style:solid;text-decoration-color:#000000;letter-spacing:normal;word-spacing:normal;text-transform:none;writing-mode:lr-tb;direction:ltr;text-orientation:mixed;dominant-baseline:auto;baseline-shift:baseline;text-anchor:start;white-space:normal;shape-padding:0;clip-rule:nonzero;display:inline;overflow:visible;visibility:visible;opacity:1;isolation:auto;mix-blend-mode:normal;color-interpolation:sRGB;color-interpolation-filters:linearRGB;solid-color:#000000;solid-opacity:1;vector-effect:none;fill:#ffffff;fill-opacity:1;fill-rule:nonzero;stroke:none;stroke-width:0;stroke-linecap:butt;stroke-linejoin:miter;stroke-miterlimit:4;stroke-dasharray:none;stroke-dashoffset:0;stroke-opacity:1;color-rendering:auto;image-rendering:auto;shape-rendering:auto;text-rendering:auto;enable-background:accumulate"
             d="m 114.66422,54.382328 0.008,0.115735 -0.0181,20.232817 2.40839,-2.543063 0.0131,-20.322034 z"
             id="rect5354-5"
             inkscape:connector-curvature="0"
             sodipodi:nodetypes="cccccc" />
          <path
             style="fill:#ffffff;stroke:none;stroke-width:1.0405401px;stroke-linecap:butt;stroke-linejoin:miter;stroke-opacity:1"
             d="m 98.675193,53.89273 15.627407,0.01491 2.54869,-2.663949 -15.67333,-0.02091 z"
             id="path5403"
             inkscape:connector-curvature="0"
             sodipodi:nodetypes="ccccc" />
        </g>
      </g>
      <g
         clip-path="url(#clipPath3012)"
         transform="matrix(1.0940385,0,0,1.0940385,-94.024842,-5.8997086)"
         id="g2902"
         style="display:inline">
        <path
           sodipodi:nodetypes="ccccccc"
           inkscape:connector-curvature="0"
           id="rect5499"
           d="m 109.91157,17.144655 6.53037,-4.05942 1.56029,2.490596 2.89904,-1.87743 6.56439,10.560081 -9.47188,5.887941 z"
           style="opacity:1;fill:#ffffff;stroke:#cfcfcf;stroke-width:0.44100001;stroke-miterlimit:4;stroke-dasharray:none;stroke-opacity:1" />
        <path
           inkscape:connector-curvature="0"
           id="path5506"
           d="m 116.58199,12.886547 1.4914,2.403477 2.87184,-1.824178 z"
           style="fill:#ffffff;fill-opacity:1;stroke:#f5f5f5;stroke-width:0;stroke-linecap:butt;stroke-linejoin:miter;stroke-miterlimit:4;stroke-dasharray:none;stroke-opacity:1" />
        <path
           inkscape:connector-curvature="0"
           id="path2923"
           d="m 116.4879,12.96471 4.45026,0.611485"
           style="fill:none;stroke:#cfcfcf;stroke-width:0.40000001;stroke-linecap:butt;stroke-linejoin:miter;stroke-miterlimit:4;stroke-dasharray:none;stroke-opacity:1" />
      </g>
      <path
         sodipodi:nodetypes="ccc"
         inkscape:connector-curvature="0"
         id="path2993"
         d="m 57.909808,8.9779485 9.043729,6.6403295 -8.473851,11.71968"
         style="display:inline;fill:none;stroke:#cfcfcf;stroke-width:0.43761539;stroke-linecap:butt;stroke-linejoin:miter;stroke-miterlimit:4;stroke-dasharray:none;stroke-opacity:1" />
      <path
         sodipodi:nodetypes="ccccccc"
         inkscape:connector-curvature="0"
         id="path2998"
         d="m 64.074593,15.861845 0.25397,0.181904 -0.20602,0.310733 2.348697,-0.444149 0.187481,-0.248158 -0.296613,-0.210074 z"
         style="display:inline;fill:#ffffff;fill-opacity:1;stroke:#cdcdcd;stroke-width:0;stroke-linecap:butt;stroke-linejoin:miter;stroke-miterlimit:4;stroke-dasharray:none;stroke-opacity:1" />
      <path
         sodipodi:nodetypes="cc"
         inkscape:connector-curvature="0"
         id="path3000"
         d="M 55.196251,9.6525166 58.06704,9.0239654"
         style="display:inline;fill:none;stroke:#cfcfcf;stroke-width:0.43761539;stroke-linecap:butt;stroke-linejoin:miter;stroke-miterlimit:4;stroke-dasharray:none;stroke-opacity:1" />
      <g
         transform="translate(-53.923928,-35.178278)"
         id="g4755">
        <path
           inkscape:connector-curvature="0"
           id="path225"
           d="m 99.685218,47.39506 -0.809845,0.777792 c -3.156118,3.03473 -5.32747,3.821054 -6.891161,3.891103 -1.56369,0.07005 -2.649275,-0.588234 -3.929564,-1.029934 L 86.603765,50.53401 v 1.534218 c 0,3.608667 1.46054,9.613201 3.709474,15.143458 1.124467,2.765128 2.448315,5.390155 3.9317,7.489463 1.483385,2.099307 3.114958,3.730227 5.083432,4.303502 l 0.284197,0.08333 0.288462,-0.07266 c 1.88252,-0.475235 3.40465,-2.076349 4.85266,-4.153926 1.44801,-2.077579 2.78646,-4.708054 3.94879,-7.495873 2.32471,-5.575637 3.95094,-11.663276 3.95094,-15.297309 v -2.226537 l -1.76286,1.361136 c -0.46908,0.362477 -1.86528,1.042846 -3.68383,0.903865 -1.81855,-0.138983 -4.15523,-1.024132 -6.76508,-3.882554 z m -0.06625,2.933817 c 2.632342,2.566674 5.238532,3.792679 7.421082,3.95948 1.19401,0.09126 2.23787,-0.05859 3.10906,-0.322656 -0.37762,3.23562 -1.56242,7.990444 -3.46589,12.555801 -1.12009,2.686475 -2.41239,5.207382 -3.72444,7.089882 -1.20217,1.724853 -2.41352,2.7575 -3.316311,3.111172 -1.096015,-0.437952 -2.377686,-1.538599 -3.611178,-3.284253 -1.339233,-1.8953 -2.610222,-4.395588 -3.690243,-7.051419 -1.868088,-4.593737 -2.973594,-9.390834 -3.288525,-12.619905 0.832625,0.291358 1.820669,0.537089 3.029973,0.482916 2.034488,-0.09115 4.539789,-1.258287 7.536472,-3.921018 z"
           style="color:#000000;font-style:normal;font-variant:normal;font-weight:normal;font-stretch:normal;font-size:medium;line-height:normal;font-family:sans-serif;font-variant-ligatures:normal;font-variant-position:normal;font-variant-caps:normal;font-variant-numeric:normal;font-variant-alternates:normal;font-feature-settings:normal;text-indent:0;text-align:start;text-decoration:none;text-decoration-line:none;text-decoration-style:solid;text-decoration-color:#000000;letter-spacing:normal;word-spacing:normal;text-transform:none;writing-mode:lr-tb;direction:ltr;text-orientation:mixed;dominant-baseline:auto;baseline-shift:baseline;text-anchor:start;white-space:normal;shape-padding:0;clip-rule:nonzero;display:inline;overflow:visible;visibility:visible;opacity:1;isolation:auto;mix-blend-mode:normal;color-interpolation:sRGB;color-interpolation-filters:linearRGB;solid-color:#000000;solid-opacity:1;vector-effect:none;fill:#ffffff;fill-opacity:1;fill-rule:nonzero;stroke:#cfcfcf;stroke-width:0.65642309;stroke-linecap:round;stroke-linejoin:miter;stroke-miterlimit:4;stroke-dasharray:none;stroke-dashoffset:0;stroke-opacity:1;color-rendering:auto;image-rendering:auto;shape-rendering:auto;text-rendering:auto;enable-background:accumulate" />
        <line
           class="cls-12"
           x1="99.635033"
           y1="48.961662"
           x2="99.635033"
           y2="77.133156"
           id="line227"
           style="fill:none;stroke:#ffffff;stroke-width:2.18807697px;stroke-miterlimit:10" />
      </g>
    </g>
  </g>
</svg>
