<?xml version="1.0" encoding="UTF-8" standalone="no"?>
<svg
   xmlns:dc="http://purl.org/dc/elements/1.1/"
   xmlns:cc="http://creativecommons.org/ns#"
   xmlns:rdf="http://www.w3.org/1999/02/22-rdf-syntax-ns#"
   xmlns:svg="http://www.w3.org/2000/svg"
   xmlns="http://www.w3.org/2000/svg"
   xmlns:sodipodi="http://sodipodi.sourceforge.net/DTD/sodipodi-0.dtd"
   xmlns:inkscape="http://www.inkscape.org/namespaces/inkscape"
   viewBox="0 0 83.149609 83.149605"
   version="1.1"
   id="svg249"
   sodipodi:docname="web-security-resources.svg"
   inkscape:version="0.92.3 (2405546, 2018-03-11)"
   width="2.2cm"
   height="2.2cm">
  <metadata
     id="metadata253">
    <rdf:RDF>
      <cc:Work
         rdf:about="">
        <dc:format>image/svg+xml</dc:format>
        <dc:type
           rdf:resource="http://purl.org/dc/dcmitype/StillImage" />
        <dc:title>Element 266</dc:title>
      </cc:Work>
    </rdf:RDF>
  </metadata>
  <sodipodi:namedview
     pagecolor="#ffffff"
     bordercolor="#666666"
     borderopacity="1"
     objecttolerance="10"
     gridtolerance="10"
     guidetolerance="10"
     inkscape:pageopacity="0"
     inkscape:pageshadow="2"
     inkscape:window-width="1841"
     inkscape:window-height="879"
     id="namedview251"
     showgrid="false"
     inkscape:zoom="5.5193498"
     inkscape:cx="28.073014"
     inkscape:cy="42.681087"
     inkscape:window-x="79"
     inkscape:window-y="27"
     inkscape:window-maximized="1"
     inkscape:current-layer="g229"
     units="cm"
     inkscape:snap-global="false" />
  <defs
     id="defs199">
    <style
       id="style178">.cls-1,.cls-10,.cls-2{fill:#1d1d1b;}.cls-1,.cls-12,.cls-15,.cls-16,.cls-18{stroke:#fff;}.cls-1,.cls-11,.cls-12,.cls-15,.cls-16,.cls-18,.cls-5{stroke-miterlimit:10;}.cls-1,.cls-16{stroke-width:0.75px;}.cls-1{filter:url(#luminosity-noclip);}.cls-2{filter:url(#luminosity-noclip-2);}.cls-12,.cls-18,.cls-3{fill:none;}.cls-4{clip-path:url(#clip-path);}.cls-5{fill:#008d36;stroke:#008d36;stroke-width:10px;}.cls-6{fill:#063;}.cls-11,.cls-14,.cls-15,.cls-16,.cls-7,.cls-8{fill:#fff;}.cls-7{opacity:0.15;}.cls-8{font-size:9px;font-family:Hind-Bold, Hind;font-weight:700;letter-spacing:-0.01em;}.cls-9{font-family:Hind-SemiBold, Hind;}.cls-11{stroke:#1d1d1b;}.cls-11,.cls-12{stroke-width:2px;}.cls-13{mask:url(#mask);}.cls-15{stroke-width:0.25px;}.cls-17{mask:url(#mask-2);}</style>
    <clipPath
       id="clip-path">
      <circle
         class="cls-3"
         cx="94.949997"
         cy="79.040001"
         r="41.099998"
         id="circle180"
         style="fill:none" />
    </clipPath>
    <filter
       id="luminosity-noclip"
       x="96.540001"
       y="65.989998"
       width="18.18"
       height="12.1"
       filterUnits="userSpaceOnUse"
       style="color-interpolation-filters:sRGB">
      <feFlood
         flood-color="#fff"
         result="bg"
         id="feFlood183" />
      <feBlend
         in="SourceGraphic"
         in2="bg"
         id="feBlend185"
         mode="normal" />
    </filter>
    <mask
       id="mask"
       x="96.54"
       y="65.99"
       width="18.18"
       height="12.1"
       maskUnits="userSpaceOnUse">
      <path
         class="cls-1"
         d="m 103.94,67.16 c 0.62,0.43 -1,2.47 -1.56,4.81 -0.56,2.34 -1.47,5.69 -2.82,5.75 -1.35,0.06 -2.87,-2.55 -2.62,-4.93 0.37,-3.49 5.92,-6.38 7,-5.63 z"
         id="path188"
         inkscape:connector-curvature="0"
         style="fill:#1d1d1b;stroke:#ffffff;stroke-width:0.75px;stroke-miterlimit:10;filter:url(#luminosity-noclip)" />
    </mask>
    <filter
       id="luminosity-noclip-2"
       x="78.07"
       y="66.910004"
       width="14.87"
       height="12.61"
       filterUnits="userSpaceOnUse"
       style="color-interpolation-filters:sRGB">
      <feFlood
         flood-color="#fff"
         result="bg"
         id="feFlood191" />
      <feBlend
         in="SourceGraphic"
         in2="bg"
         id="feBlend193"
         mode="normal" />
    </filter>
    <mask
       id="mask-2"
       x="78.07"
       y="66.91"
       width="14.87"
       height="12.61"
       maskUnits="userSpaceOnUse">
      <polygon
         class="cls-2"
         points="90.63,67.28 86.06,66.91 90.5,77.41 92.56,74.91 92.94,67.72 "
         id="polygon196"
         style="fill:#1d1d1b;filter:url(#luminosity-noclip-2)" />
    </mask>
    <clipPath
       clipPathUnits="userSpaceOnUse"
       id="clipPath5473">
      <path
         style="fill:none;stroke:#000000;stroke-width:1.43560028px;stroke-linecap:butt;stroke-linejoin:miter;stroke-opacity:1"
         d="m 96.573516,67.68275 c 0,0 -0.364029,-20.386483 3.995584,-20.453001 11.09879,-0.169342 17.43499,1.240738 20.69622,3.451113 3.26123,2.210374 3.44749,5.221043 2.2464,8.25288 -1.20109,3.031837 -5.20526,18.440871 -6.22767,15.365553 -1.77263,-5.331903 -5.08647,-10.901681 -5.08647,-10.901681 l -3.09593,-0.496933 c 0,0 -2.06824,4.314202 -4.60075,4.751232 -2.5325,0.437031 -7.927384,0.03084 -7.927384,0.03084 z"
         id="path5475"
         inkscape:connector-curvature="0"
         sodipodi:nodetypes="csssscczcc" />
    </clipPath>
    <clipPath
       clipPathUnits="userSpaceOnUse"
       id="clipPath5515">
      <path
         style="fill:none;stroke:#000000;stroke-width:1px;stroke-linecap:butt;stroke-linejoin:miter;stroke-opacity:1"
         d="m 83.786649,61.147527 0.160143,-3.587196 4.900366,1.761569 2.786483,-2.241997 2.40214,-2.081855 -5.380794,-7.975105 -12.330986,7.110334 6.501792,9.544505 1.473313,0.288257 z"
         id="path5517"
         inkscape:connector-curvature="0"
         sodipodi:nodetypes="cccccccccc" />
    </clipPath>
    <clipPath
       clipPathUnits="userSpaceOnUse"
       id="clipPath5535">
      <path
         style="fill:none;stroke:#000000;stroke-width:1px;stroke-linecap:butt;stroke-linejoin:miter;stroke-opacity:1"
         d="m 90.845196,77.163116 -5.027766,-11.912633 -5.435423,-0.407658 -8.651382,2.536531 11.142617,14.22269 7.337821,-0.271771 z"
         id="path5537"
         inkscape:connector-curvature="0" />
    </clipPath>
    <clipPath
       clipPathUnits="userSpaceOnUse"
       id="clipPath5543">
      <path
         style="fill:none;stroke:#000000;stroke-width:1px;stroke-linecap:butt;stroke-linejoin:miter;stroke-opacity:1"
         d="m 99.496577,77.97843 3.487733,-5.390128 0.45295,-4.937175 10.46319,-4.031272 4.07656,6.522508 -12.13911,11.006732 z"
         id="path5545"
         inkscape:connector-curvature="0" />
    </clipPath>
  </defs>
  <title
     id="title201">Element 266</title>
  <g
     id="Ebene_2"
     data-name="Ebene 2"
     transform="translate(0,-41.140394)">
    <g
       id="Ebene_2-2"
       data-name="Ebene 2">
      <g
         id="g536"
         transform="translate(-53.295483,3.2811415)">
        <g
           id="g229"
           clip-path="url(#clip-path)"
           class="cls-4">
          <circle
             style="fill:#008d36;stroke:#008d36;stroke-width:10px;stroke-miterlimit:10"
             id="circle203"
             r="35.98"
             cy="79.389999"
             cx="95.110001"
             class="cls-5" />
          <path
             style="opacity:0.15;fill:#ffffff"
             inkscape:connector-curvature="0"
             id="path207"
             d="m 111.53,108.83 a 42.55,42.55 0 0 1 -35.12,-66.59 42.56,42.56 0 1 0 51,63.52 42.43,42.43 0 0 1 -15.88,3.07 z"
             class="cls-7" />
          <text
             id="text215" />
          <text
             id="text217" />
        </g>
        <g
           id="g510"
           sodipodi:insensitive="true">
          <path
             class="cls-6"
             d="M 113.29,61.06 A 20.06,20.06 0 0 1 115,63 a 8.64,8.64 0 0 1 3.48,-1.36 c 2,0.87 4,1.82 4,2 0,0.18 -3,-1.06 -4.06,-1.35 a 8.16,8.16 0 0 0 -2.89,1.16 c -0.1,0.29 0,0.39 0,0.39 a 8.61,8.61 0 0 1 1.35,0.58 c 0.19,0.38 0.38,1.54 0.1,1.83 -0.1,0.1 -0.06,0.14 -0.39,0.19 -0.33,0.05 -1.41,1.72 -2.46,2.76 -1.05,1.04 -4.79,0.24 -4.79,0.24 0,0 0.22,2.18 0.29,4.35 0.38,0.68 0.87,0.87 2.22,1.45 2.42,0.29 4.75,-0.06 4.84,0.19 0.09,0.25 -4.7,0.57 -5.12,0.48 -0.42,-0.09 -1.45,-0.48 -2.52,-0.77 a 10,10 0 0 0 2.23,2.8 c 1.93,0.58 3.86,1.16 3.86,1.35 a 31,31 0 0 1 -4.25,-0.58 21.65,21.65 0 0 1 -2.23,-1.69 c 0.25,0.75 0.45,2.24 1,2.76 1.31,1.3 3,2.6 2.85,2.73 a 34.92,34.92 0 0 1 -3.65,-2.41 c -0.69,-1.51 -1.73,-4.12 -1.73,-4.12 h -1 a 166.74,166.74 0 0 1 3.68,39.64 c -4.17,-2.09 -14.37,-17.48 -7.33,-27.39 1.18,-1.66 1.31,-12 1.31,-12 a 7.9,7.9 0 0 1 -2.29,-1 2.81,2.81 0 0 1 -0.67,0.09 c 4.43,10.17 -26.57,24.83 -26.57,24.83 0,0 14.57,-30.96 24.74,-26.53 a 2.81,2.81 0 0 1 0.09,-0.67 7.9,7.9 0 0 1 -1,-2.29 c 0,0 -10.33,0.13 -12,1.31 -9.91,7 -25.3,-3.16 -27.39,-7.33 a 166.83,166.83 0 0 1 39.64,3.68 v -1 c 0,0 -2.61,-1 -4.12,-1.73 a 33.4,33.4 0 0 1 -2.41,-3.65 c 0.12,-0.15 1.43,1.54 2.73,2.85 0.52,0.52 2,0.72 2.76,1 A 23.21,23.21 0 0 1 95.6,63.56 31,31 0 0 1 95,59.23 c 0.19,0 0.77,1.93 1.35,3.86 a 10,10 0 0 0 2.8,2.23 c -0.29,-1.07 -0.68,-2 -0.77,-2.52 -0.09,-0.52 0.23,-5.2 0.48,-5.12 0.25,0.08 -0.1,2.42 0.19,4.83 0.58,1.36 0.77,1.84 1.45,2.23 2.17,0.06 4.35,0.29 4.35,0.29 0,0 -0.81,-3.75 0.24,-4.79 1.05,-1.04 2.7,-2.13 2.75,-2.46 0.05,-0.33 0.1,-0.29 0.2,-0.39 0.29,-0.29 1.45,-0.09 1.83,0.1 a 8.61,8.61 0 0 1 0.58,1.35 c 0,0 0.1,0.1 0.39,0 a 8.2,8.2 0 0 0 1.16,-2.9 c -0.29,-1.06 -1.57,-4 -1.35,-4 0.22,0 1.15,1.93 2,4 a 8.5,8.5 0 0 1 -1.35,3.48 19.91,19.91 0 0 1 1.99,1.64 z"
             id="path205"
             inkscape:connector-curvature="0"
             style="fill:#006633" />
          <text
             class="cls-8"
             id="text213"
             x="63.864101"
             y="95.892952"
             style="font-weight:700;font-size:7.33333349px;font-family:Hind-Bold, Hind;letter-spacing:-0.01em;fill:#ffffff">
            <tspan
               style="font-size:7.33333349px"
               id="tspan255">WEB SECURITY</tspan>
            <tspan
               class="cls-9"
               id="tspan211"
               style="font-size:7.33333349px;font-family:Hind-SemiBold, Hind">
              <tspan
                 x="70.714096"
                 y="104.89295"
                 id="tspan209"
                 style="font-size:7.33333349px">RESOURCES</tspan>
            </tspan>
          </text>
          <g
             id="g4755">
            <path
               style="color:#000000;font-style:normal;font-variant:normal;font-weight:normal;font-stretch:normal;font-size:medium;line-height:normal;font-family:sans-serif;font-variant-ligatures:normal;font-variant-position:normal;font-variant-caps:normal;font-variant-numeric:normal;font-variant-alternates:normal;font-feature-settings:normal;text-indent:0;text-align:start;text-decoration:none;text-decoration-line:none;text-decoration-style:solid;text-decoration-color:#000000;letter-spacing:normal;word-spacing:normal;text-transform:none;writing-mode:lr-tb;direction:ltr;text-orientation:mixed;dominant-baseline:auto;baseline-shift:baseline;text-anchor:start;white-space:normal;shape-padding:0;clip-rule:nonzero;display:inline;overflow:visible;visibility:visible;opacity:1;isolation:auto;mix-blend-mode:normal;color-interpolation:sRGB;color-interpolation-filters:linearRGB;solid-color:#000000;solid-opacity:1;vector-effect:none;fill:#ffffff;fill-opacity:1;fill-rule:nonzero;stroke:none;stroke-width:0.2;stroke-linecap:butt;stroke-linejoin:miter;stroke-miterlimit:4;stroke-dasharray:none;stroke-dashoffset:0;stroke-opacity:1;color-rendering:auto;image-rendering:auto;shape-rendering:auto;text-rendering:auto;enable-background:accumulate"
               d="m 95.466797,53.828125 -0.740235,0.710937 c -2.884832,2.773878 -4.869545,3.492613 -6.298828,3.556641 -1.429282,0.06403 -2.421554,-0.537672 -3.591796,-0.941406 l -1.326172,-0.457031 v 1.402343 c 0,3.298483 1.334998,8.786895 3.390625,13.841797 1.027813,2.527451 2.237869,4.926843 3.59375,6.845703 1.35588,1.918861 2.847209,3.409595 4.646484,3.933594 l 0.259766,0.07617 0.263671,-0.06641 c 1.720711,-0.434387 3.112003,-1.897876 4.435548,-3.796875 1.32354,-1.898999 2.54694,-4.303372 3.60937,-6.851563 2.12488,-5.096382 3.61133,-10.660755 3.61133,-13.982422 v -2.035156 l -1.61133,1.244141 c -0.42876,0.33132 -1.70494,0.953208 -3.36718,0.826172 -1.66224,-0.127037 -3.798065,-0.936103 -6.183597,-3.548828 z m -0.06055,2.681641 c 2.40608,2.346054 4.788253,3.466676 6.783203,3.61914 1.09138,0.08341 2.0455,-0.05356 2.8418,-0.294922 -0.34514,2.957501 -1.42811,7.303623 -3.16797,11.476563 -1.02381,2.455559 -2.205031,4.75978 -3.404299,6.480469 -1.098837,1.576593 -2.206068,2.520479 -3.03125,2.84375 C 94.42592,80.234459 93.254417,79.228418 92.12695,77.632812 90.902831,75.900423 89.74109,73.615049 88.753903,71.1875 87.046387,66.988619 86.035904,62.60386 85.748044,59.652344 c 0.761057,0.266315 1.664173,0.490923 2.769531,0.441406 1.859612,-0.08331 4.14957,-1.15013 6.888672,-3.583984 z"
               id="path225"
               inkscape:connector-curvature="0" />
            <line
               style="fill:none;stroke:#ffffff;stroke-width:2px;stroke-miterlimit:10"
               id="line227"
               y2="81.010002"
               x2="95.419998"
               y1="55.259998"
               x1="95.419998"
               class="cls-12" />
          </g>
          <g
             class="cls-13"
             mask="url(#mask)"
             id="g239">
            <g
               id="g4751">
              <path
                 style="fill:#ffffff"
                 inkscape:connector-curvature="0"
                 id="path231"
                 d="m 113.53,68.19 -6.93,4.56 a 1.22,1.22 0 0 1 -1.68,-0.35 v 0 a 1.22,1.22 0 0 1 0.35,-1.69 l 6.93,-4.55 c 0.56,-0.37 1.1,-0.08 1.46,0.48 v 0 c 0.34,0.56 0.43,1.19 -0.13,1.55 z"
                 class="cls-14" />
              <rect
                 style="fill:#ffffff;stroke:#ffffff;stroke-width:0.25px;stroke-miterlimit:10"
                 id="rect233"
                 transform="rotate(-33.31,111.86205,70.174514)"
                 height="1.64"
                 width="1.1799999"
                 y="69.360001"
                 x="111.27"
                 class="cls-15" />
              <rect
                 style="fill:#ffffff;stroke:#ffffff;stroke-width:0.25px;stroke-miterlimit:10"
                 id="rect235"
                 transform="rotate(-33.31,113.604,69.038581)"
                 height="1.64"
                 width="1.1799999"
                 y="68.209999"
                 x="113.02"
                 class="cls-15" />
              <path
                 style="fill:#ffffff;stroke:#ffffff;stroke-width:0.75px;stroke-miterlimit:10"
                 inkscape:connector-curvature="0"
                 id="path237"
                 d="m 100.94,70.28 a 3.92,3.92 0 1 0 5.42,1.12 3.93,3.93 0 0 0 -5.42,-1.12 z m 3.32,5 A 2,2 0 1 1 102.1,72 a 2,2 0 0 1 2.16,3.29 z"
                 class="cls-16"
                 clip-path="url(#clipPath5543)" />
            </g>
          </g>
          <g
             class="cls-17"
             mask="url(#mask-2)"
             id="g245">
            <g
               id="g4745">
              <path
                 style="fill:none;stroke:#ffffff;stroke-miterlimit:10"
                 inkscape:connector-curvature="0"
                 id="path241"
                 d="m 81,73.09 c -4.85,-3.94 -1.6,-7.9 3.23,-4"
                 class="cls-18" />
              <path
                 style="fill:#ffffff"
                 inkscape:connector-curvature="0"
                 id="path243"
                 d="m 83.07,69.41 -2,2.53 a 3.54,3.54 0 0 0 0.51,5 l 2.21,1.79 a 3.54,3.54 0 0 0 5,-0.51 l 2,-2.52 a 3.56,3.56 0 0 0 -0.51,-5 l -2.2,-1.79 a 3.55,3.55 0 0 0 -5.01,0.5 z m 2.72,4 a 0.52,0.52 0 0 1 0.7,0 l 1.36,1.1 a 0.54,0.54 0 0 1 0.08,0.75 l -0.25,0.31 a 0.55,0.55 0 0 1 -0.76,0.08 l -1.35,-1.11 a 0.51,0.51 0 0 1 -0.12,-0.67 1.14,1.14 0 0 1 -1.43,0 1.1893065,1.1893065 0 0 1 1.47,-1.87 1.14,1.14 0 0 1 0.3,1.42 z"
                 class="cls-14"
                 clip-path="url(#clipPath5535)" />
            </g>
          </g>
        </g>
        <g
           id="g5463"
           transform="matrix(0.50980836,0.36658186,-0.36658186,0.50980836,73.044011,-14.039192)"
           clip-path="url(#clipPath5473)"
           inkscape:transform-center-x="0.66532889"
           inkscape:transform-center-y="2.890726">
          <path
             sodipodi:nodetypes="cc"
             inkscape:connector-curvature="0"
             id="path5319-6-7"
             d="m 114.60531,75.743204 3.567,-3.736854"
             style="fill:none;stroke:#cdcdcd;stroke-width:1px;stroke-linecap:butt;stroke-linejoin:miter;stroke-opacity:1" />
          <g
             id="g5450">
            <path
               style="opacity:1;fill:none;stroke:#cdcdcd;stroke-width:1.16091561;stroke-miterlimit:4;stroke-dasharray:none;stroke-opacity:1"
               d="M 98.469954,54.149781 H 114.42413 V 75.539376 H 98.469954 Z"
               id="rect4757"
               inkscape:connector-curvature="0" />
            <path
               style="opacity:1;fill:none;stroke:#cdcdcd;stroke-width:1.16091561;stroke-miterlimit:4;stroke-dasharray:none;stroke-opacity:1"
               d="m 102.00298,50.435574 h 15.95417 v 21.389595 h -15.95417 z"
               id="rect4757-3"
               inkscape:connector-curvature="0" />
            <path
               style="fill:none;stroke:#cdcdcd;stroke-width:1px;stroke-linecap:butt;stroke-linejoin:miter;stroke-opacity:1"
               d="m 98.243478,53.911982 3.567002,-3.736854"
               id="path5319"
               inkscape:connector-curvature="0"
               sodipodi:nodetypes="cc" />
            <path
               style="fill:none;stroke:#cdcdcd;stroke-width:1px;stroke-linecap:butt;stroke-linejoin:miter;stroke-opacity:1"
               d="m 114.39016,54.172428 3.56699,-3.736854"
               id="path5319-6"
               inkscape:connector-curvature="0"
               sodipodi:nodetypes="cc" />
            <rect
               style="opacity:1;fill:#ffffff;stroke:#ffffff;stroke-width:0;stroke-miterlimit:4;stroke-dasharray:none;stroke-opacity:1"
               id="rect5354"
               width="14.827656"
               height="20.335602"
               x="99.039902"
               y="54.722473"
               ry="0" />
            <path
               style="color:#000000;font-style:normal;font-variant:normal;font-weight:normal;font-stretch:normal;font-size:medium;line-height:normal;font-family:sans-serif;font-variant-ligatures:normal;font-variant-position:normal;font-variant-caps:normal;font-variant-numeric:normal;font-variant-alternates:normal;font-feature-settings:normal;text-indent:0;text-align:start;text-decoration:none;text-decoration-line:none;text-decoration-style:solid;text-decoration-color:#000000;letter-spacing:normal;word-spacing:normal;text-transform:none;writing-mode:lr-tb;direction:ltr;text-orientation:mixed;dominant-baseline:auto;baseline-shift:baseline;text-anchor:start;white-space:normal;shape-padding:0;clip-rule:nonzero;display:inline;overflow:visible;visibility:visible;opacity:1;isolation:auto;mix-blend-mode:normal;color-interpolation:sRGB;color-interpolation-filters:linearRGB;solid-color:#000000;solid-opacity:1;vector-effect:none;fill:#ffffff;fill-opacity:1;fill-rule:nonzero;stroke:none;stroke-width:0;stroke-linecap:butt;stroke-linejoin:miter;stroke-miterlimit:4;stroke-dasharray:none;stroke-dashoffset:0;stroke-opacity:1;color-rendering:auto;image-rendering:auto;shape-rendering:auto;text-rendering:auto;enable-background:accumulate"
               d="m 114.97237,54.283188 0.008,0.115719 0.024,20.232811 2.40309,-2.54807 -0.0292,-20.322017 z"
               id="rect5354-5"
               inkscape:connector-curvature="0"
               sodipodi:nodetypes="cccccc" />
            <path
               style="fill:#ffffff;stroke:none;stroke-width:1px;stroke-linecap:butt;stroke-linejoin:miter;stroke-opacity:1"
               d="m 99.248828,53.57844 15.025272,-0.0057 2.4539,-2.562283 h -15.06943 z"
               id="path5403"
               inkscape:connector-curvature="0"
               sodipodi:nodetypes="ccccc" />
            <path
               style="color:#000000;font-style:normal;font-variant:normal;font-weight:normal;font-stretch:normal;font-size:medium;line-height:normal;font-family:sans-serif;font-variant-ligatures:normal;font-variant-position:normal;font-variant-caps:normal;font-variant-numeric:normal;font-variant-alternates:normal;font-feature-settings:normal;text-indent:0;text-align:start;text-decoration:none;text-decoration-line:none;text-decoration-style:solid;text-decoration-color:#000000;letter-spacing:normal;word-spacing:normal;text-transform:none;writing-mode:lr-tb;direction:ltr;text-orientation:mixed;dominant-baseline:auto;baseline-shift:baseline;text-anchor:start;white-space:normal;shape-padding:0;clip-rule:nonzero;display:inline;overflow:visible;visibility:visible;opacity:1;isolation:auto;mix-blend-mode:normal;color-interpolation:sRGB;color-interpolation-filters:linearRGB;solid-color:#000000;solid-opacity:1;vector-effect:none;fill:#cfcfcf;fill-opacity:1;fill-rule:nonzero;stroke:none;stroke-width:0.59430701;stroke-linecap:butt;stroke-linejoin:miter;stroke-miterlimit:4;stroke-dasharray:none;stroke-dashoffset:0;stroke-opacity:1;color-rendering:auto;image-rendering:auto;shape-rendering:auto;text-rendering:auto;enable-background:accumulate"
               d="m 115.74919,55.417345 0.0111,14.823263 -0.004,0.08769 -0.0148,1.468787 0.74918,-0.953164 V 54.402516 Z"
               id="path5407"
               inkscape:connector-curvature="0"
               sodipodi:nodetypes="ccccccc" />
            <path
               style="color:#000000;font-style:normal;font-variant:normal;font-weight:normal;font-stretch:normal;font-size:medium;line-height:normal;font-family:sans-serif;font-variant-ligatures:normal;font-variant-position:normal;font-variant-caps:normal;font-variant-numeric:normal;font-variant-alternates:normal;font-feature-settings:normal;text-indent:0;text-align:start;text-decoration:none;text-decoration-line:none;text-decoration-style:solid;text-decoration-color:#000000;letter-spacing:normal;word-spacing:normal;text-transform:none;writing-mode:lr-tb;direction:ltr;text-orientation:mixed;dominant-baseline:auto;baseline-shift:baseline;text-anchor:start;white-space:normal;shape-padding:0;clip-rule:nonzero;display:inline;overflow:visible;visibility:visible;opacity:1;isolation:auto;mix-blend-mode:normal;color-interpolation:sRGB;color-interpolation-filters:linearRGB;solid-color:#000000;solid-opacity:1;vector-effect:none;fill:#cfcfcf;fill-opacity:1;fill-rule:nonzero;stroke:none;stroke-width:0.52455616;stroke-linecap:butt;stroke-linejoin:miter;stroke-miterlimit:4;stroke-dasharray:none;stroke-dashoffset:0;stroke-opacity:1;color-rendering:auto;image-rendering:auto;shape-rendering:auto;text-rendering:auto;enable-background:accumulate"
               d="m 114.04926,52.513872 -11.54799,-0.01109 -0.0683,0.0045 -1.14425,0.01482 0.74256,-0.749189 h 12.80859 z"
               id="path5407-2"
               inkscape:connector-curvature="0"
               sodipodi:nodetypes="ccccccc" />
          </g>
        </g>
        <g
           id="g5511"
           transform="translate(0.06405707,0.1601427)"
           clip-path="url(#clipPath5515)">
          <path
             sodipodi:nodetypes="ccccccc"
             inkscape:connector-curvature="0"
             id="rect5499"
             d="m 78.648483,53.853321 6.530354,-4.05942 1.560291,2.490596 2.899043,-1.87743 6.564393,10.560081 -9.47188,5.887941 z"
             style="opacity:1;fill:#ffffff;stroke:#cfcfcf;stroke-width:0.8411386;stroke-miterlimit:4;stroke-dasharray:none;stroke-opacity:1" />
          <path
             sodipodi:nodetypes="cc"
             inkscape:connector-curvature="0"
             id="path5502"
             d="m 85.289784,49.647718 4.420037,0.572862"
             style="fill:none;stroke:#cfcfcf;stroke-width:0.8411386;stroke-linecap:butt;stroke-linejoin:miter;stroke-miterlimit:4;stroke-dasharray:none;stroke-opacity:1" />
          <path
             inkscape:connector-curvature="0"
             id="path5506"
             d="m 85.892526,50.137718 0.968863,1.561391 1.865662,-1.185056 z"
             style="fill:#ffffff;fill-opacity:1;stroke:#f5f5f5;stroke-width:0;stroke-linecap:butt;stroke-linejoin:miter;stroke-miterlimit:4;stroke-dasharray:none;stroke-opacity:1" />
        </g>
      </g>
    </g>
  </g>
</svg>
