<svg xmlns="http://www.w3.org/2000/svg" xmlns:xlink="http://www.w3.org/1999/xlink" viewBox="0 0 137.67 124.29"><defs><style>.cls-1,.cls-10,.cls-2{fill:#1d1d1b;}.cls-1,.cls-12,.cls-15,.cls-16,.cls-18{stroke:#fff;}.cls-1,.cls-11,.cls-12,.cls-15,.cls-16,.cls-18,.cls-5{stroke-miterlimit:10;}.cls-1,.cls-16{stroke-width:0.75px;}.cls-1{filter:url(#luminosity-noclip);}.cls-2{filter:url(#luminosity-noclip-2);}.cls-12,.cls-18,.cls-3{fill:none;}.cls-4{clip-path:url(#clip-path);}.cls-5{fill:#008d36;stroke:#008d36;stroke-width:10px;}.cls-6{fill:#063;}.cls-11,.cls-14,.cls-15,.cls-16,.cls-7,.cls-8{fill:#fff;}.cls-7{opacity:0.15;}.cls-8{font-size:9px;font-family:Hind-Bold, Hind;font-weight:700;letter-spacing:-0.01em;}.cls-9{font-family:Hind-SemiBold, Hind;}.cls-11{stroke:#1d1d1b;}.cls-11,.cls-12{stroke-width:2px;}.cls-13{mask:url(#mask);}.cls-15{stroke-width:0.25px;}.cls-17{mask:url(#mask-2);}</style><clipPath id="clip-path"><circle class="cls-3" cx="94.95" cy="79.04" r="41.1"/></clipPath><filter id="luminosity-noclip" x="96.54" y="65.99" width="18.18" height="12.1" filterUnits="userSpaceOnUse" color-interpolation-filters="sRGB"><feFlood flood-color="#fff" result="bg"/><feBlend in="SourceGraphic" in2="bg"/></filter><mask id="mask" x="96.54" y="65.99" width="18.18" height="12.1" maskUnits="userSpaceOnUse"><path class="cls-1" d="M103.94,67.16c.62.43-1,2.47-1.56,4.81s-1.47,5.69-2.82,5.75-2.87-2.55-2.62-4.93C97.31,69.3,102.86,66.41,103.94,67.16Z"/></mask><filter id="luminosity-noclip-2" x="78.07" y="66.91" width="14.87" height="12.61" filterUnits="userSpaceOnUse" color-interpolation-filters="sRGB"><feFlood flood-color="#fff" result="bg"/><feBlend in="SourceGraphic" in2="bg"/></filter><mask id="mask-2" x="78.07" y="66.91" width="14.87" height="12.61" maskUnits="userSpaceOnUse"><polygon class="cls-2" points="90.63 67.28 86.06 66.91 90.5 77.41 92.56 74.91 92.94 67.72 90.63 67.28"/></mask></defs><title>Element 266</title><g id="Ebene_2" data-name="Ebene 2"><g id="Ebene_2-2" data-name="Ebene 2"><g class="cls-4"><circle class="cls-5" cx="95.11" cy="79.39" r="35.98"/><path class="cls-6" d="M113.29,61.06A20.06,20.06,0,0,1,115,63a8.64,8.64,0,0,1,3.48-1.36c2,.87,4,1.82,4,2s-3-1.06-4.06-1.35a8.16,8.16,0,0,0-2.89,1.16c-.1.29,0,.39,0,.39a8.61,8.61,0,0,1,1.35.58c.19.38.38,1.54.1,1.83-.1.1-.06.14-.39.19s-1.41,1.72-2.46,2.76-4.79.24-4.79.24.22,2.18.29,4.35c.38.68.87.87,2.22,1.45,2.42.29,4.75-.06,4.84.19s-4.7.57-5.12.48-1.45-.48-2.52-.77a10,10,0,0,0,2.23,2.8c1.93.58,3.86,1.16,3.86,1.35a31,31,0,0,1-4.25-.58,21.65,21.65,0,0,1-2.23-1.69c.25.75.45,2.24,1,2.76,1.31,1.3,3,2.6,2.85,2.73a34.92,34.92,0,0,1-3.65-2.41c-.69-1.51-1.73-4.12-1.73-4.12h-1a166.74,166.74,0,0,1,3.68,39.64c-4.17-2.09-14.37-17.48-7.33-27.39,1.18-1.66,1.31-12,1.31-12a7.9,7.9,0,0,1-2.29-1,2.81,2.81,0,0,1-.67.09c4.43,10.17-26.57,24.83-26.57,24.83S88.83,69.19,99,73.62a2.81,2.81,0,0,1,.09-.67,7.9,7.9,0,0,1-1-2.29s-10.33.13-12,1.31c-9.91,7-25.3-3.16-27.39-7.33a166.83,166.83,0,0,1,39.64,3.68v-1s-2.61-1-4.12-1.73a33.4,33.4,0,0,1-2.41-3.65c.12-.15,1.43,1.54,2.73,2.85.52.52,2,.72,2.76,1a23.21,23.21,0,0,1-1.7-2.23A31,31,0,0,1,95,59.23c.19,0,.77,1.93,1.35,3.86a10,10,0,0,0,2.8,2.23c-.29-1.07-.68-2-.77-2.52s.23-5.2.48-5.12-.1,2.42.19,4.83c.58,1.36.77,1.84,1.45,2.23,2.17.06,4.35.29,4.35.29s-.81-3.75.24-4.79,2.7-2.13,2.75-2.46.1-.29.2-.39c.29-.29,1.45-.09,1.83.1a8.61,8.61,0,0,1,.58,1.35s.1.1.39,0a8.2,8.2,0,0,0,1.16-2.9c-.29-1.06-1.57-4-1.35-4s1.15,1.93,2,4a8.5,8.5,0,0,1-1.35,3.48A19.91,19.91,0,0,1,113.29,61.06Z"/><path class="cls-7" d="M111.53,108.83A42.55,42.55,0,0,1,76.41,42.24a42.56,42.56,0,1,0,51,63.52A42.43,42.43,0,0,1,111.53,108.83Z"/><text class="cls-8" transform="translate(64.77 94.8)">WEB SECURITY<tspan class="cls-9"><tspan x="6.85" y="9">RESOURCES</tspan></tspan></text><text></text><text></text><rect class="cls-10" x="16.88" y="36.35" width="3" height="13"/><rect class="cls-10" y="55.1" width="15.38" height="11.38"/><path class="cls-11" d="M54.92,16.93c0,8.56-8,20.67-15.5,22.17-9.17-2-15.5-13.61-15.5-22.17s7-7.33,15.5-15.5C46.58,9.26,54.92,8.37,54.92,16.93Z"/><path class="cls-12" d="M106.32,58.1c0,6-5.79,22.37-10.9,23.66C89.72,80.1,84.51,64.12,84.51,58.1c2,.69,4.93,2.91,10.91-2.84C100.46,60.78,105,59.12,106.32,58.1Z"/><line class="cls-12" x1="95.42" y1="55.26" x2="95.42" y2="81.01"/></g><g class="cls-13"><path class="cls-14" d="M113.53,68.19l-6.93,4.56a1.22,1.22,0,0,1-1.68-.35h0a1.22,1.22,0,0,1,.35-1.69l6.93-4.55c.56-.37,1.1-.08,1.46.48h0C114,67.2,114.09,67.83,113.53,68.19Z"/><rect class="cls-15" x="111.27" y="69.36" width="1.18" height="1.64" transform="translate(-20.16 72.96) rotate(-33.31)"/><rect class="cls-15" x="113.02" y="68.21" width="1.18" height="1.64" transform="translate(-19.25 73.73) rotate(-33.31)"/><path class="cls-16" d="M100.94,70.28a3.92,3.92,0,1,0,5.42,1.12A3.93,3.93,0,0,0,100.94,70.28Zm3.32,5A2,2,0,1,1,102.1,72a2,2,0,0,1,2.16,3.29Z"/></g><g class="cls-17"><path class="cls-18" d="M81,73.09c-4.85-3.94-1.6-7.9,3.23-4"/><path class="cls-14" d="M83.07,69.41l-2,2.53a3.54,3.54,0,0,0,.51,5l2.21,1.79a3.54,3.54,0,0,0,5-.51l2-2.52a3.56,3.56,0,0,0-.51-5l-2.2-1.79A3.55,3.55,0,0,0,83.07,69.41Zm2.72,4a.52.52,0,0,1,.7,0l1.36,1.1a.54.54,0,0,1,.08.75l-.25.31a.55.55,0,0,1-.76.08l-1.35-1.11a.51.51,0,0,1-.12-.67,1.14,1.14,0,0,1-1.43,0A1.17,1.17,0,0,1,85.49,72,1.14,1.14,0,0,1,85.79,73.42Z"/></g></g></g></svg>
