<?xml version="1.0" encoding="UTF-8" standalone="no"?>
<svg
   xmlns:dc="http://purl.org/dc/elements/1.1/"
   xmlns:cc="http://creativecommons.org/ns#"
   xmlns:rdf="http://www.w3.org/1999/02/22-rdf-syntax-ns#"
   xmlns:svg="http://www.w3.org/2000/svg"
   xmlns="http://www.w3.org/2000/svg"
   xmlns:sodipodi="http://sodipodi.sourceforge.net/DTD/sodipodi-0.dtd"
   xmlns:inkscape="http://www.inkscape.org/namespaces/inkscape"
   viewBox="0 0 83.149609 83.149605"
   version="1.1"
   id="svg249"
   sodipodi:docname="web-security-resources.svg"
   inkscape:version="0.92.3 (2405546, 2018-03-11)"
   width="2.2cm"
   height="2.2cm">
  <metadata
     id="metadata253">
    <rdf:RDF>
      <cc:Work
         rdf:about="">
        <dc:format>image/svg+xml</dc:format>
        <dc:type
           rdf:resource="http://purl.org/dc/dcmitype/StillImage" />
        <dc:title>Element 266</dc:title>
      </cc:Work>
    </rdf:RDF>
  </metadata>
  <sodipodi:namedview
     pagecolor="#ffffff"
     bordercolor="#666666"
     borderopacity="1"
     objecttolerance="10"
     gridtolerance="10"
     guidetolerance="10"
     inkscape:pageopacity="0"
     inkscape:pageshadow="2"
     inkscape:window-width="1841"
     inkscape:window-height="879"
     id="namedview251"
     showgrid="false"
     inkscape:zoom="3.9027697"
     inkscape:cx="34.007276"
     inkscape:cy="60.493954"
     inkscape:window-x="79"
     inkscape:window-y="27"
     inkscape:window-maximized="1"
     inkscape:current-layer="Ebene_2-2"
     units="cm" />
  <defs
     id="defs199">
    <style
       id="style178">.cls-1,.cls-10,.cls-2{fill:#1d1d1b;}.cls-1,.cls-12,.cls-15,.cls-16,.cls-18{stroke:#fff;}.cls-1,.cls-11,.cls-12,.cls-15,.cls-16,.cls-18,.cls-5{stroke-miterlimit:10;}.cls-1,.cls-16{stroke-width:0.75px;}.cls-1{filter:url(#luminosity-noclip);}.cls-2{filter:url(#luminosity-noclip-2);}.cls-12,.cls-18,.cls-3{fill:none;}.cls-4{clip-path:url(#clip-path);}.cls-5{fill:#008d36;stroke:#008d36;stroke-width:10px;}.cls-6{fill:#063;}.cls-11,.cls-14,.cls-15,.cls-16,.cls-7,.cls-8{fill:#fff;}.cls-7{opacity:0.15;}.cls-8{font-size:9px;font-family:Hind-Bold, Hind;font-weight:700;letter-spacing:-0.01em;}.cls-9{font-family:Hind-SemiBold, Hind;}.cls-11{stroke:#1d1d1b;}.cls-11,.cls-12{stroke-width:2px;}.cls-13{mask:url(#mask);}.cls-15{stroke-width:0.25px;}.cls-17{mask:url(#mask-2);}</style>
    <clipPath
       id="clip-path">
      <circle
         class="cls-3"
         cx="94.949997"
         cy="79.040001"
         r="41.099998"
         id="circle180"
         style="fill:none" />
    </clipPath>
    <filter
       id="luminosity-noclip"
       x="96.540001"
       y="65.989998"
       width="18.18"
       height="12.1"
       filterUnits="userSpaceOnUse"
       style="color-interpolation-filters:sRGB">
      <feFlood
         flood-color="#fff"
         result="bg"
         id="feFlood183" />
      <feBlend
         in="SourceGraphic"
         in2="bg"
         id="feBlend185"
         mode="normal" />
    </filter>
    <mask
       id="mask"
       x="96.54"
       y="65.99"
       width="18.18"
       height="12.1"
       maskUnits="userSpaceOnUse">
      <path
         class="cls-1"
         d="m 103.94,67.16 c 0.62,0.43 -1,2.47 -1.56,4.81 -0.56,2.34 -1.47,5.69 -2.82,5.75 -1.35,0.06 -2.87,-2.55 -2.62,-4.93 0.37,-3.49 5.92,-6.38 7,-5.63 z"
         id="path188"
         inkscape:connector-curvature="0"
         style="fill:#1d1d1b;stroke:#ffffff;stroke-width:0.75px;stroke-miterlimit:10;filter:url(#luminosity-noclip)" />
    </mask>
    <filter
       id="luminosity-noclip-2"
       x="78.07"
       y="66.910004"
       width="14.87"
       height="12.61"
       filterUnits="userSpaceOnUse"
       style="color-interpolation-filters:sRGB">
      <feFlood
         flood-color="#fff"
         result="bg"
         id="feFlood191" />
      <feBlend
         in="SourceGraphic"
         in2="bg"
         id="feBlend193"
         mode="normal" />
    </filter>
    <mask
       id="mask-2"
       x="78.07"
       y="66.91"
       width="14.87"
       height="12.61"
       maskUnits="userSpaceOnUse">
      <polygon
         class="cls-2"
         points="90.63,67.28 86.06,66.91 90.5,77.41 92.56,74.91 92.94,67.72 "
         id="polygon196"
         style="fill:#1d1d1b;filter:url(#luminosity-noclip-2)" />
    </mask>
  </defs>
  <title
     id="title201">Element 266</title>
  <g
     id="Ebene_2"
     data-name="Ebene 2"
     transform="translate(0,-41.140394)">
    <g
       id="Ebene_2-2"
       data-name="Ebene 2">
      <g
         id="g1147">
        <g
           transform="translate(-53.295483,3.2811415)"
           id="g229"
           clip-path="url(#clip-path)"
           class="cls-4">
          <circle
             style="fill:#008d36;stroke:#008d36;stroke-width:10px;stroke-miterlimit:10"
             id="circle203"
             r="35.98"
             cy="79.389999"
             cx="95.110001"
             class="cls-5" />
          <path
             style="opacity:0.15;fill:#ffffff"
             inkscape:connector-curvature="0"
             id="path207"
             d="m 111.53,108.83 a 42.55,42.55 0 0 1 -35.12,-66.59 42.56,42.56 0 1 0 51,63.52 42.43,42.43 0 0 1 -15.88,3.07 z"
             class="cls-7" />
          <text
             id="text215" />
          <text
             id="text217" />
          <rect
             style="fill:#1d1d1b"
             id="rect219"
             height="13"
             width="3"
             y="36.349998"
             x="16.879999"
             class="cls-10" />
          <rect
             style="fill:#1d1d1b"
             x="0"
             id="rect221"
             height="11.38"
             width="15.38"
             y="55.099998"
             class="cls-10" />
          <path
             style="fill:#ffffff;stroke:#1d1d1b;stroke-width:2px;stroke-miterlimit:10"
             inkscape:connector-curvature="0"
             id="path223"
             d="m 54.92,16.93 c 0,8.56 -8,20.67 -15.5,22.17 -9.17,-2 -15.5,-13.61 -15.5,-22.17 0,-8.56 7,-7.33 15.5,-15.5 7.16,7.83 15.5,6.94 15.5,15.5 z"
             class="cls-11" />
        </g>
        <path
           style="fill:#006633"
           inkscape:connector-curvature="0"
           id="path205"
           d="m 59.994517,64.341142 a 20.06,20.06 0 0 1 1.71,1.94 8.64,8.64 0 0 1 3.48,-1.36 c 2,0.869999 4,1.819999 4,2 0,0.179999 -3,-1.06 -4.06,-1.350001 a 8.16,8.16 0 0 0 -2.89,1.16 c -0.1,0.29 0,0.39 0,0.39 a 8.61,8.61 0 0 1 1.35,0.580001 c 0.19,0.379999 0.38,1.54 0.1,1.83 -0.1,0.1 -0.06,0.14 -0.39,0.19 -0.33,0.05 -1.41,1.719999 -2.46,2.76 -1.05,1.04 -4.79,0.24 -4.79,0.24 0,0 0.22,2.18 0.29,4.349999 0.38,0.680001 0.87,0.87 2.22,1.45 2.42,0.290001 4.75,-0.06 4.84,0.19 0.09,0.25 -4.7,0.57 -5.12,0.48 -0.42,-0.09 -1.45,-0.48 -2.52,-0.769999 a 10,10 0 0 0 2.23,2.8 c 1.93,0.579999 3.86,1.159999 3.86,1.349999 a 31,31 0 0 1 -4.25,-0.58 21.65,21.65 0 0 1 -2.23,-1.69 c 0.25,0.75 0.45,2.24 1,2.760001 1.31,1.3 3,2.599999 2.85,2.73 a 34.92,34.92 0 0 1 -3.65,-2.41 c -0.69,-1.51 -1.73,-4.12 -1.73,-4.12 h -1 a 166.74,166.74 0 0 1 3.68,39.639998 c -4.17,-2.09 -14.37,-17.48 -7.33,-27.389998 1.18,-1.66 1.31,-12 1.31,-12 a 7.9,7.9 0 0 1 -2.29,-1 2.81,2.81 0 0 1 -0.67,0.09 c 4.43,10.17 -26.57,24.829998 -26.57,24.829998 0,0 14.57,-30.959998 24.74,-26.529998 a 2.81,2.81 0 0 1 0.09,-0.67 7.9,7.9 0 0 1 -1,-2.290001 c 0,0 -10.33,0.13 -12,1.310001 -9.91,7 -25.3,-3.16 -27.39,-7.33 a 166.83,166.83 0 0 1 39.64,3.68 v -1 c 0,0 -2.61,-1 -4.12,-1.73 a 33.4,33.4 0 0 1 -2.41,-3.65 c 0.12,-0.15 1.43,1.54 2.73,2.85 0.52,0.52 2,0.72 2.76,1 a 23.21,23.21 0 0 1 -1.7,-2.23 31,31 0 0 1 -0.6,-4.330001 c 0.19,0 0.77,1.93 1.35,3.86 a 10,10 0 0 0 2.8,2.23 c -0.29,-1.069999 -0.68,-2 -0.77,-2.52 -0.09,-0.52 0.23,-5.2 0.48,-5.12 0.25,0.08 -0.1,2.42 0.19,4.83 0.58,1.36 0.77,1.84 1.45,2.23 2.17,0.06 4.35,0.290001 4.35,0.290001 0,0 -0.81,-3.75 0.24,-4.790001 1.05,-1.04 2.7,-2.13 2.75,-2.46 0.05,-0.33 0.1,-0.29 0.2,-0.39 0.29,-0.29 1.45,-0.09 1.83,0.1 a 8.61,8.61 0 0 1 0.58,1.35 c 0,0 0.1,0.100001 0.39,0 a 8.2,8.2 0 0 0 1.16,-2.899999 c -0.29,-1.060001 -1.57,-4 -1.35,-4 0.22,0 1.15,1.93 2,4 a 8.5,8.5 0 0 1 -1.35,3.479999 19.91,19.91 0 0 1 1.99,1.640001 z"
           class="cls-6" />
        <text
           style="font-weight:700;font-size:9px;font-family:Hind-Bold, Hind;letter-spacing:-0.01em;fill:#ffffff"
           y="96.081146"
           x="7.4745173"
           id="text213"
           class="cls-8">
          <tspan
             id="tspan255"
             style="font-size:8px">WEB SECURITY</tspan>
          <tspan
             style="font-size:8px;font-family:Hind-SemiBold, Hind"
             id="tspan211"
             class="cls-9">
            <tspan
               style="font-size:8px"
               id="tspan209"
               y="105.08115"
               x="14.32452">RESOURCES</tspan>
          </tspan>
        </text>
        <path
           style="fill:none;stroke:#ffffff;stroke-width:2px;stroke-miterlimit:10"
           inkscape:connector-curvature="0"
           id="path225"
           d="m 53.024517,61.381141 c 0,6 -5.79,22.370001 -10.9,23.660001 -5.7,-1.660001 -10.91,-17.64 -10.91,-23.660001 2,0.69 4.93,2.910001 10.91,-2.839999 5.04,5.52 9.58,3.86 10.9,2.839999 z"
           class="cls-12" />
        <line
           style="fill:none;stroke:#ffffff;stroke-width:2px;stroke-miterlimit:10"
           id="line227"
           y2="84.291145"
           x2="42.124516"
           y1="58.541142"
           x1="42.124516"
           class="cls-12" />
        <path
           class="cls-14"
           d="m 60.234517,71.471142 -6.93,4.56 a 1.22,1.22 0 0 1 -1.68,-0.35 v 0 a 1.22,1.22 0 0 1 0.35,-1.69 l 6.93,-4.55 c 0.56,-0.37 1.1,-0.08 1.46,0.48 v 0 c 0.34,0.56 0.43,1.19 -0.13,1.55 z"
           id="path231"
           inkscape:connector-curvature="0"
           style="fill:#ffffff" />
        <rect
           class="cls-15"
           x="8.0131559"
           y="92.736153"
           width="1.1799999"
           height="1.64"
           transform="rotate(-33.31)"
           id="rect233"
           style="fill:#ffffff;stroke:#ffffff;stroke-width:0.25px;stroke-miterlimit:10" />
        <rect
           class="cls-15"
           x="10.100791"
           y="92.729393"
           width="1.1799999"
           height="1.64"
           transform="rotate(-33.31)"
           id="rect235"
           style="fill:#ffffff;stroke:#ffffff;stroke-width:0.25px;stroke-miterlimit:10" />
        <path
           class="cls-16"
           d="m 47.644517,73.561142 a 3.92,3.92 0 1 0 5.42,1.12 3.93,3.93 0 0 0 -5.42,-1.12 z m 3.32,5 a 2,2 0 1 1 -2.16,-3.28 2,2 0 0 1 2.16,3.29 z"
           id="path237"
           inkscape:connector-curvature="0"
           style="fill:#ffffff;stroke:#ffffff;stroke-width:0.75px;stroke-miterlimit:10" />
        <g
           transform="translate(-53.295483,3.2811415)"
           id="g245"
           mask="url(#mask-2)"
           class="cls-17">
          <path
             style="fill:none;stroke:#ffffff;stroke-miterlimit:10"
             inkscape:connector-curvature="0"
             id="path241"
             d="m 81,73.09 c -4.85,-3.94 -1.6,-7.9 3.23,-4"
             class="cls-18" />
          <path
             style="fill:#ffffff"
             inkscape:connector-curvature="0"
             id="path243"
             d="m 83.07,69.41 -2,2.53 a 3.54,3.54 0 0 0 0.51,5 l 2.21,1.79 a 3.54,3.54 0 0 0 5,-0.51 l 2,-2.52 a 3.56,3.56 0 0 0 -0.51,-5 l -2.2,-1.79 a 3.55,3.55 0 0 0 -5.01,0.5 z m 2.72,4 a 0.52,0.52 0 0 1 0.7,0 l 1.36,1.1 a 0.54,0.54 0 0 1 0.08,0.75 l -0.25,0.31 a 0.55,0.55 0 0 1 -0.76,0.08 l -1.35,-1.11 a 0.51,0.51 0 0 1 -0.12,-0.67 1.14,1.14 0 0 1 -1.43,0 1.1893065,1.1893065 0 0 1 1.47,-1.87 1.14,1.14 0 0 1 0.3,1.42 z"
             class="cls-14" />
        </g>
      </g>
    </g>
  </g>
</svg>
