<?xml version="1.0" encoding="UTF-8" standalone="no"?>
<svg
   xmlns:dc="http://purl.org/dc/elements/1.1/"
   xmlns:cc="http://creativecommons.org/ns#"
   xmlns:rdf="http://www.w3.org/1999/02/22-rdf-syntax-ns#"
   xmlns:svg="http://www.w3.org/2000/svg"
   xmlns="http://www.w3.org/2000/svg"
   xmlns:sodipodi="http://sodipodi.sourceforge.net/DTD/sodipodi-0.dtd"
   xmlns:inkscape="http://www.inkscape.org/namespaces/inkscape"
   viewBox="0 0 97.413793 97.465247"
   version="1.1"
   id="svg3044"
   sodipodi:docname="xml_external_entity.svg"
   inkscape:version="0.92.3 (2405546, 2018-03-11)"
   width="97.413795"
   height="97.465248">
  <metadata
     id="metadata3048">
    <rdf:RDF>
      <cc:Work
         rdf:about="">
        <dc:format>image/svg+xml</dc:format>
        <dc:type
           rdf:resource="http://purl.org/dc/dcmitype/StillImage" />
        <dc:title>Element 275</dc:title>
      </cc:Work>
    </rdf:RDF>
  </metadata>
  <sodipodi:namedview
     pagecolor="#ffffff"
     bordercolor="#666666"
     borderopacity="1"
     objecttolerance="10"
     gridtolerance="10"
     guidetolerance="10"
     inkscape:pageopacity="0"
     inkscape:pageshadow="2"
     inkscape:window-width="1841"
     inkscape:window-height="879"
     id="namedview3046"
     showgrid="false"
     inkscape:zoom="5.0730868"
     inkscape:cx="6.9896904"
     inkscape:cy="32.62265"
     inkscape:window-x="79"
     inkscape:window-y="27"
     inkscape:window-maximized="1"
     inkscape:current-layer="layer8"
     fit-margin-top="0"
     fit-margin-left="0"
     fit-margin-right="0"
     fit-margin-bottom="0" />
  <defs
     id="defs3002">
    <style
       id="style2997">.cls-1,.cls-10{fill:none;}.cls-2{clip-path:url(#clip-path);}.cls-3{fill:#00a19a;stroke:#00a19a;stroke-width:10px;}.cls-10,.cls-3{stroke-miterlimit:10;}.cls-4{fill:#00867f;}.cls-11,.cls-5,.cls-7,.cls-9{fill:#fff;}.cls-5{opacity:0.07;}.cls-6{font-size:8px;font-family:Hind-SemiBold, Hind;letter-spacing:-0.05em;}.cls-6,.cls-8{fill:#878787;}.cls-11,.cls-6{font-weight:700;}.cls-9{letter-spacing:-0.05em;}.cls-10{stroke:#fff;}.cls-11{font-size:11.57px;font-family:HalisR-Bold, Halis R;}</style>
    <clipPath
       id="clip-path"
       transform="translate(0 -0.11)">
      <circle
         class="cls-1"
         cx="45.939999"
         cy="41.099998"
         r="41.099998"
         id="circle2999"
         style="fill:none" />
    </clipPath>
    <clipPath
       clipPathUnits="userSpaceOnUse"
       id="clipPath7145">
      <ellipse
         style="display:inline;opacity:1;vector-effect:none;fill:none;fill-opacity:1;stroke:#000000;stroke-width:0.01134289;stroke-linecap:butt;stroke-linejoin:miter;stroke-miterlimit:4;stroke-dasharray:none;stroke-dashoffset:0;stroke-opacity:1"
         id="ellipse7147"
         cx="45.337288"
         cy="41.789158"
         rx="48.71244"
         ry="48.711475" />
    </clipPath>
  </defs>
  <title
     id="title3004">Element 275</title>
  <g
     inkscape:groupmode="layer"
     id="layer8"
     inkscape:label="button"
     transform="translate(3.3751526,6.9646158)">
    <g
       inkscape:groupmode="layer"
       id="layer11"
       inkscape:label="background">
      <circle
         style="fill:#00a19a;stroke:#00a19a;stroke-width:11.84214211px;stroke-miterlimit:10"
         class="cls-3"
         cx="45.343754"
         cy="41.730274"
         r="42.773819"
         id="circle3006" />
      <path
         style="fill:#00867f;stroke-width:1.07764101"
         class="cls-4"
         d="m 66.21495,20.268156 a 23.08307,23.08307 0 0 1 1.939754,2.155282 9.5047936,9.5047936 0 0 1 3.879507,-1.508698 c 2.263047,0.969877 4.429105,2.036742 4.418329,2.263046 -0.01078,0.226305 -3.340688,-1.185405 -4.526093,-1.508697 a 9.3215946,9.3215946 0 0 0 -3.232923,1.293169 c -0.107764,0.323292 0,0.431056 0,0.431056 a 9.6987689,9.6987689 0 0 1 1.508698,0.646585 c 0.215528,0.431056 0.431056,1.724226 0.107764,2.047518 -0.107764,0.107764 0,0.161646 -0.431057,0.215528 -0.431056,0.05388 -1.573355,1.918201 -2.737208,3.082053 -1.163852,1.163853 -5.388205,0.269411 -5.388205,0.269411 0,0 0.247858,2.424692 0.323293,4.849384 0.431056,0.765125 0.969877,0.969877 2.478574,1.616462 2.694102,0.323292 5.291217,-0.07543 5.388205,0.215528 0.09699,0.290963 -5.237335,0.625032 -5.711497,0.53882 -0.474162,-0.08621 -1.616462,-0.53882 -2.801867,-0.862113 a 11.250572,11.250572 0 0 0 2.478574,3.125159 c 2.155282,0.646585 4.310564,1.29317 4.310564,1.508698 a 35.788457,35.788457 0 0 1 -4.74162,-0.646585 28.837673,28.837673 0 0 1 -2.489351,-1.885872 c 0.280187,0.829784 0.506492,2.489351 1.077641,3.071277 1.454816,1.454816 3.340687,2.909631 3.179041,3.049724 A 37.545012,37.545012 0 0 1 61.17159,41.540789 c -0.765125,-1.68112 -1.842766,-4.590751 -1.842766,-4.590751 h -1.206958 a 186.15171,186.15171 0 0 1 4.105812,44.183281 C 57.572269,78.816391 46.203157,61.638793 54.048383,50.582197 55.373882,48.760983 55.503199,37.294883 55.503199,37.294883 a 8.9228674,8.9228674 0 0 1 -2.543233,-1.077641 3.3837927,3.3837927 0 0 1 -0.754349,0.107764 c 4.967925,11.239796 -29.645904,27.598386 -29.645904,27.598386 0,0 16.358591,-34.581499 27.70615,-29.635127 a 2.7910902,2.7910902 0 0 1 0.107765,-0.754349 8.8258797,8.8258797 0 0 1 -1.077641,-2.554009 c 0,0 -11.530759,0.140093 -13.384302,1.454815 C 24.844312,40.290725 7.6020565,28.910836 5.3174576,24.255427 a 186.97071,186.97071 0 0 1 44.1832804,4.105812 v -1.163852 c 0,0 -2.90963,-1.163852 -4.59075,-1.928977 a 38.622653,38.622653 0 0 1 -2.694103,-4.073483 c 0.140094,-0.172423 1.594909,1.713449 3.049724,3.168264 0.581926,0.581926 2.230717,0.808231 3.071277,1.077641 a 23.837419,23.837419 0 0 1 -1.885872,-2.48935 35.788457,35.788457 0 0 1 -0.646584,-4.741621 c 0.215528,0 0.862112,2.155282 1.508697,4.310564 A 11.04582,11.04582 0 0 0 50.438286,24.999 c -0.323292,-1.185406 -0.754349,-2.263047 -0.862113,-2.801867 -0.107764,-0.538821 0.258634,-5.797709 0.538821,-5.711497 0.280186,0.08621 -0.107764,2.694102 0.215528,5.388205 0.646584,1.508697 0.851336,2.058294 1.616461,2.478574 2.413916,0.08621 4.849385,0.323292 4.849385,0.323292 0,0 -0.905219,-4.181247 0.258634,-5.388205 1.163852,-1.206958 3.017394,-2.360034 3.082053,-2.737208 0.06466,-0.377174 0.107764,-0.323292 0.215528,-0.431056 0.323292,-0.323293 1.616462,-0.107764 2.047518,0.107764 a 9.6987689,9.6987689 0 0 1 0.646585,1.508697 c 0,0 0.107764,0.107764 0.431056,0 a 9.1168428,9.1168428 0 0 0 1.293169,-3.232923 c -0.323292,-1.185405 -1.745778,-4.5153155 -1.508697,-4.5260919 0.237081,-0.010776 1.293169,2.1552819 2.263046,4.4183279 a 9.5047936,9.5047936 0 0 1 -1.508698,3.879508 23.08307,23.08307 0 0 1 2.198388,1.993636 z"
         id="path3008"
         inkscape:connector-curvature="0" />
    </g>
    <g
       inkscape:groupmode="layer"
       id="layer10"
       inkscape:label="content"
       style="opacity:1">
      <text
         class="cls-6"
         y="-5.3477273"
         id="text3032"
         x="-12.633294"
         style="font-weight:700;font-size:9.48348236px;font-family:Hind-SemiBold, Hind;letter-spacing:-0.05em;fill:#878787;stroke-width:1.1854353">
        <tspan
           x="43.153294"
           y="37.802116"
           xml:space="preserve"
           id="tspan3012"
           style="stroke-width:1.1854353">                </tspan>        <tspan
           class="cls-7"
           id="tspan3018"
           style="fill:#ffffff;stroke-width:1.1854353">
          <tspan
             x="34.108421"
             y="49.739452"
             id="tspan3014"
             style="stroke-width:1.1854353">X</tspan>
          <tspan
             class="cls-8"
             x="39.739239"
             y="49.739452"
             id="tspan3016"
             style="fill:#878787;stroke-width:1.1854353">ML</tspan>
        </tspan>
        <tspan
           x="19.361607"
           y="61.688637"
           xml:space="preserve"
           id="tspan3020"
           style="stroke-width:1.1854353"> E</tspan>        <tspan
           class="cls-9"
           x="25.774811"
           y="61.688637"
           id="tspan3022"
           style="letter-spacing:-0.05em;fill:#ffffff;stroke-width:1.1854353">X</tspan>
        <tspan
           x="31.405632"
           y="61.688637"
           id="tspan3024"
           style="stroke-width:1.1854353">TERNAL&gt;</tspan>
        <tspan
           x="25.834084"
           y="73.625977"
           id="tspan3026"
           style="stroke-width:1.1854353">&lt;!</tspan>
        <tspan
           class="cls-9"
           x="32.85186"
           y="73.625977"
           id="tspan3028"
           style="letter-spacing:-0.05em;fill:#ffffff;stroke-width:1.1854353">E</tspan>
        <tspan
           x="37.392078"
           y="73.625977"
           id="tspan3030"
           style="stroke-width:1.1854353">NTITY</tspan>
      </text>
      <g
         id="g4612"
         transform="matrix(1.1854353,0,0,1.1854353,-13.735175,-5.2173294)">
        <polygon
           style="fill:none;stroke:#ffffff;stroke-miterlimit:10"
           transform="matrix(1.1563141,0,0,1.1563141,-6.0083715,-5.7073808)"
           id="polygon3034"
           points="41.73,13.43 39,33.72 55.56,35.95 57.63,20.59 52.94,14.94 "
           class="cls-10" />
        <polyline
           style="fill:none;stroke:#ffffff;stroke-miterlimit:10"
           transform="matrix(1.1563141,0,0,1.1563141,-6.0083715,-5.7073808)"
           id="polyline3036"
           points="52.94 14.94 52.27 19.93 57.62 20.65"
           class="cls-10" />
        <text
           style="font-weight:700;font-size:9.05797958px;font-family:HalisR-Bold, 'Halis R';fill:#ffffff;stroke-width:0.78288502"
           y="20.519228"
           x="43.491611"
           id="text3038"
           transform="rotate(7.67)"
           class="cls-11">&lt;/&gt;</text>
      </g>
    </g>
    <g
       inkscape:groupmode="layer"
       id="layer9"
       inkscape:label="gleam">
      <path
         style="opacity:0.15;fill:#ffffff;stroke-width:1.18421435"
         class="cls-5"
         d="M 64.871451,76.652752 A 50.601477,50.601477 0 0 1 23.104214,-2.5119726 50.601477,50.601477 0 1 0 83.747827,73.005372 50.506739,50.506739 0 0 1 64.871451,76.652752 Z"
         id="path3010"
         inkscape:connector-curvature="0"
         clip-path="url(#clipPath7145)" />
    </g>
  </g>
  <g
     id="Ebene_2"
     data-name="Ebene 2"
     transform="translate(3.3751526,6.9646158)">
    <g
       id="Ebene_2-2"
       data-name="Ebene 2">
      <g
         class="cls-2"
         clip-path="url(#clip-path)"
         id="g3040" />
    </g>
  </g>
</svg>
