<?xml version="1.0" encoding="UTF-8" standalone="no"?>
<!-- Created with Inkscape (http://www.inkscape.org/) -->

<svg
   width="19.334957mm"
   height="19.334957mm"
   viewBox="0 0 19.334957 19.334957"
   version="1.1"
   id="svg4331"
   inkscape:version="1.1.1 (c3084ef, 2021-09-22)"
   sodipodi:docname="Zero trust.svg"
   xmlns:inkscape="http://www.inkscape.org/namespaces/inkscape"
   xmlns:sodipodi="http://sodipodi.sourceforge.net/DTD/sodipodi-0.dtd"
   xmlns="http://www.w3.org/2000/svg"
   xmlns:svg="http://www.w3.org/2000/svg">
  <sodipodi:namedview
     id="namedview4333"
     pagecolor="#ffffff"
     bordercolor="#666666"
     borderopacity="1.0"
     inkscape:pageshadow="2"
     inkscape:pageopacity="0.0"
     inkscape:pagecheckerboard="0"
     inkscape:document-units="mm"
     showgrid="false"
     inkscape:zoom="5.623064"
     inkscape:cx="51.306548"
     inkscape:cy="43.83731"
     inkscape:window-width="1312"
     inkscape:window-height="715"
     inkscape:window-x="54"
     inkscape:window-y="25"
     inkscape:window-maximized="0"
     inkscape:current-layer="circle129-7" />
  <defs
     id="defs4328">
    <clipPath
       id="_clip1">
      <rect
         x="20.216999"
         y="84.893997"
         width="30"
         height="25.981001"
         id="rect4032" />
    </clipPath>
    <clipPath
       id="_clip2">
      <rect
         x="20.216999"
         y="84.893997"
         width="30"
         height="25.981001"
         id="rect4049" />
    </clipPath>
  </defs>
  <g
     inkscape:label="Layer 1"
     inkscape:groupmode="layer"
     id="layer1"
     transform="translate(-115.30591,-57.336324)">
    <g
       transform="matrix(0.26458333,0,0,0.26458333,91.808921,5.2737327)"
       id="g4095"
       style="clip-rule:evenodd;fill-rule:evenodd;stroke-linejoin:round;stroke-miterlimit:2">
      <g
         id="Zero-trust"
         transform="translate(88.8075,196.772)">
        <rect
           x="0"
           y="0"
           width="73.077003"
           height="73.077003"
           style="fill:none"
           id="rect3967" />
        <g
           id="button"
           transform="translate(-215.713,-286.28)">
          <g
             id="background"
             transform="translate(215.713,286.28)">
            <g
               id="circle129-7"
               transform="translate(-215.713,-286.28)">
              <circle
                 cx="252.25101"
                 cy="322.81799"
                 style="fill:#3797a4;fill-opacity:1"
                 id="ellipse3969"
                 r="32.080002" />
            </g>
            <g
               transform="translate(-215.713,-286.28)"
               id="g3974">
              <path
                 d="m 252.251,286.28 c -20.165,0 -36.537,16.372 -36.537,36.538 0,20.166 16.372,36.538 36.537,36.538 20.166,0 36.537,-16.372 36.537,-36.538 0,-20.166 -16.371,-36.538 -36.537,-36.538 z m 0,8.915 c 15.245,0 27.622,12.378 27.622,27.623 0,15.246 -12.377,27.623 -27.622,27.623 -15.245,0 -27.622,-12.377 -27.622,-27.623 0,-15.245 12.377,-27.623 27.622,-27.623 z"
                 style="fill:#3797a4"
                 id="path3972" />
            </g>
            <g
               id="path131-3"
               transform="translate(-246.356,-406.822)">
              <path
                 d="m 300.718,425.445 c 0.555,0.53 1.065,1.106 1.525,1.721 0.931,-0.627 1.991,-1.039 3.102,-1.203 1.784,0.775 3.567,1.613 3.567,1.783 0,0.169 -2.675,-0.954 -3.62,-1.213 -0.917,0.176 -1.792,0.527 -2.577,1.034 -0.089,0.259 0,0.348 0,0.348 0.415,0.138 0.818,0.311 1.204,0.517 0.169,0.339 0.339,1.373 0.089,1.632 -0.089,0.089 -0.054,0.125 -0.348,0.178 -0.294,0.054 -1.257,1.525 -2.193,2.461 -0.937,0.936 -4.271,0.205 -4.271,0.205 0,0 0.196,1.944 0.258,3.879 0.339,0.615 0.776,0.775 1.98,1.292 2.157,0.259 4.235,-0.053 4.315,0.17 0.08,0.223 -4.19,0.508 -4.565,0.428 -0.374,-0.08 -1.293,-0.428 -2.247,-0.687 0.507,0.945 1.181,1.791 1.988,2.497 1.721,0.517 3.442,1.034 3.442,1.213 -1.273,-0.089 -2.539,-0.262 -3.789,-0.518 -0.691,-0.464 -1.354,-0.967 -1.989,-1.506 0.223,0.659 0.402,1.988 0.892,2.452 1.168,1.159 2.675,2.327 2.541,2.434 -1.13,-0.645 -2.218,-1.363 -3.254,-2.149 -0.615,-1.346 -1.543,-3.674 -1.543,-3.674 h -0.891 c 2.5,11.608 3.602,23.474 3.281,35.344 -3.718,-1.863 -12.813,-15.585 -6.536,-24.421 1.052,-1.471 1.168,-10.7 1.168,-10.7 -0.723,-0.187 -1.413,-0.488 -2.042,-0.891 -0.195,0.05 -0.395,0.077 -0.597,0.08 3.95,9.068 -23.69,22.139 -23.69,22.139 0,0 12.991,-27.605 22.058,-23.646 0.002,-0.205 0.029,-0.408 0.081,-0.606 -0.404,-0.629 -0.705,-1.318 -0.892,-2.042 0,0 -9.21,0.116 -10.699,1.168 -8.836,6.241 -22.558,-2.818 -24.422,-6.536 11.874,-0.307 23.742,0.803 35.353,3.308 v -0.891 c 0,0 -2.327,-0.936 -3.674,-1.552 -0.786,-1.036 -1.504,-2.124 -2.148,-3.254 0.106,-0.134 1.275,1.373 2.434,2.541 0.463,0.464 1.783,0.642 2.461,0.892 -0.545,-0.632 -1.051,-1.296 -1.516,-1.989 -0.273,-1.278 -0.455,-2.574 -0.544,-3.878 0.169,0 0.687,1.721 1.204,3.45 0.716,0.816 1.574,1.495 2.532,2.006 -0.259,-0.954 -0.606,-1.783 -0.687,-2.237 -0.08,-0.455 0.206,-4.646 0.428,-4.566 0.223,0.081 -0.089,2.149 0.17,4.307 0.517,1.204 0.686,1.641 1.293,1.979 1.934,0.063 3.878,0.259 3.878,0.259 0,0 -0.722,-3.344 0.214,-4.271 0.936,-0.927 2.408,-1.899 2.452,-2.193 0.045,-0.295 0.089,-0.259 0.178,-0.339 0.259,-0.259 1.293,-0.089 1.632,0.08 0.205,0.387 0.378,0.789 0.517,1.204 0,0 0.089,0.089 0.348,0 0.498,-0.796 0.837,-1.68 0.999,-2.604 -0.259,-0.954 -1.4,-3.611 -1.204,-3.62 0.196,-0.008 1.025,1.721 1.783,3.567 -0.15,1.101 -0.543,2.154 -1.15,3.085 0.616,0.462 1.191,0.975 1.721,1.533 z"
                 style="fill:#ffffff;fill-opacity:0.49;fill-rule:nonzero"
                 id="path3976" />
            </g>
          </g>
          <g
             transform="translate(2.83465e-6)"
             id="g3982">
            <g
               id="gleam">
              <path
                 id="path133-3-3"
                 d="m 236.102,290.185 c -0.519,0.225 -1.033,0.462 -1.541,0.71 -11.6,6.419 -18.83,18.666 -18.847,31.922 0,0 0,10e-4 0,10e-4 0,20.043 16.493,36.537 36.537,36.537 0,0 0,0 0,0 10.11,-0.018 19.772,-4.23 26.665,-11.625 -3.717,1.196 -7.596,1.809 -11.5,1.818 -0.008,0 -0.015,0 -0.022,0 -20.807,0 -37.929,-17.122 -37.929,-37.93 0,-7.649 2.314,-15.122 6.637,-21.433 z"
                 style="fill:#0b0b28;fill-opacity:0.13;fill-rule:nonzero" />
            </g>
          </g>
        </g>
        <g
           transform="matrix(0.773168,0,0,0.773168,36.6635,52)"
           id="g4027">
          <path
             d="m -17.994,0 v -0.693 l 2.43,-3.524 h -2.292 v -0.67 h 3.474 v 0.67 l -2.43,3.524 h 2.43 V 0 Z"
             style="fill:#ffffff;fill-rule:nonzero"
             id="path3985" />
          <path
             d="m -10.423,-0.122 c -0.464,0.136 -0.905,0.205 -1.321,0.205 -0.605,0 -1.083,-0.172 -1.433,-0.516 -0.35,-0.343 -0.525,-0.812 -0.525,-1.406 0,-0.562 0.16,-1.013 0.481,-1.356 0.32,-0.342 0.743,-0.513 1.269,-0.513 0.531,0 0.918,0.167 1.163,0.502 0.244,0.334 0.366,0.864 0.366,1.588 h -2.249 c 0.066,0.691 0.446,1.037 1.14,1.037 0.328,0 0.697,-0.076 1.109,-0.228 z m -2.262,-2.047 h 1.301 c 0,-0.619 -0.199,-0.928 -0.597,-0.928 -0.406,0 -0.64,0.309 -0.704,0.928 z"
             style="fill:#ffffff;fill-rule:nonzero"
             id="path3987" />
          <path
             d="m -9.412,0 v -3.626 h 0.977 v 0.684 c 0.253,-0.511 0.638,-0.766 1.156,-0.766 0.061,0 0.122,0.006 0.181,0.02 v 0.871 c -0.138,-0.05 -0.267,-0.076 -0.386,-0.076 -0.39,0 -0.707,0.197 -0.951,0.591 V 0 Z"
             style="fill:#ffffff;fill-rule:nonzero"
             id="path3989" />
          <path
             d="m -4.816,0.083 c -0.566,0 -1.015,-0.172 -1.349,-0.514 -0.333,-0.342 -0.5,-0.803 -0.5,-1.382 0,-0.585 0.168,-1.048 0.503,-1.387 0.336,-0.339 0.792,-0.508 1.369,-0.508 0.579,0 1.036,0.169 1.372,0.508 0.336,0.339 0.504,0.799 0.504,1.381 0,0.594 -0.169,1.06 -0.506,1.396 -0.336,0.337 -0.801,0.506 -1.393,0.506 z M -4.8,-0.528 c 0.562,0 0.843,-0.431 0.843,-1.291 0,-0.394 -0.075,-0.706 -0.223,-0.935 -0.149,-0.229 -0.353,-0.343 -0.613,-0.343 -0.257,0 -0.461,0.114 -0.609,0.343 -0.149,0.229 -0.223,0.543 -0.223,0.941 0,0.394 0.074,0.707 0.221,0.938 0.148,0.231 0.349,0.347 0.604,0.347 z"
             style="fill:#ffffff;fill-rule:nonzero"
             id="path3991" />
          <path
             d="m 1.422,0 v -4.217 h -1.751 v -0.67 h 4.521 v 0.67 H 2.442 V 0 Z"
             style="fill:#ffffff;fill-rule:nonzero"
             id="path3993" />
          <path
             d="m 4.875,0 v -3.626 h 0.978 v 0.684 c 0.253,-0.511 0.638,-0.766 1.156,-0.766 0.061,0 0.122,0.006 0.181,0.02 v 0.871 c -0.138,-0.05 -0.267,-0.076 -0.386,-0.076 -0.39,0 -0.707,0.197 -0.951,0.591 V 0 Z"
             style="fill:#ffffff;fill-rule:nonzero"
             id="path3995" />
          <path
             d="M 10.192,0 V -0.684 C 9.875,-0.173 9.463,0.083 8.957,0.083 8.633,0.083 8.378,-0.02 8.191,-0.225 8.004,-0.429 7.91,-0.709 7.91,-1.063 v -2.563 h 0.977 v 2.322 c 0,0.411 0.138,0.617 0.413,0.617 0.308,0 0.606,-0.219 0.892,-0.657 v -2.282 h 0.977 V 0 Z"
             style="fill:#ffffff;fill-rule:nonzero"
             id="path3997" />
          <path
             d="m 12.295,-0.116 v -0.716 c 0.484,0.202 0.898,0.304 1.242,0.304 0.4,0 0.601,-0.137 0.601,-0.41 0,-0.176 -0.165,-0.33 -0.496,-0.462 l -0.33,-0.132 c -0.359,-0.145 -0.615,-0.302 -0.769,-0.469 -0.154,-0.167 -0.231,-0.374 -0.231,-0.621 0,-0.343 0.131,-0.61 0.393,-0.801 0.262,-0.19 0.628,-0.285 1.099,-0.285 0.295,0 0.646,0.043 1.054,0.129 v 0.686 c -0.392,-0.136 -0.717,-0.204 -0.975,-0.204 -0.405,0 -0.607,0.125 -0.607,0.376 0,0.165 0.15,0.305 0.449,0.419 l 0.284,0.109 c 0.425,0.161 0.72,0.324 0.887,0.489 0.166,0.165 0.249,0.378 0.249,0.637 0,0.342 -0.142,0.618 -0.424,0.831 -0.283,0.212 -0.652,0.319 -1.105,0.319 -0.436,0 -0.876,-0.066 -1.321,-0.199 z"
             style="fill:#ffffff;fill-rule:nonzero"
             id="path3999" />
          <path
             d="m 18.084,-0.02 c -0.234,0.068 -0.418,0.103 -0.552,0.103 -0.847,0 -1.271,-0.397 -1.271,-1.189 v -1.909 h -0.406 v -0.611 h 0.406 v -0.611 l 0.977,-0.112 v 0.723 h 0.776 v 0.611 h -0.776 v 1.78 c 0,0.445 0.182,0.667 0.545,0.667 0.084,0 0.184,-0.015 0.301,-0.046 z"
             style="fill:#ffffff;fill-rule:nonzero"
             id="path4001" />
          <path
             d="m -21.331,7.76 1.902,-4.887 h 1.017 l 1.902,4.887 h -1.044 l -0.508,-1.304 h -2.021 l -0.509,1.304 z m 1.499,-1.955 h 1.519 l -0.76,-1.948 z"
             style="fill:#ffffff;fill-rule:nonzero"
             id="path4003" />
          <path
             d="M -15.817,7.76 V 4.135 h 0.978 v 0.683 c 0.253,-0.511 0.638,-0.766 1.155,-0.766 0.062,0 0.123,0.007 0.182,0.02 v 0.872 c -0.139,-0.051 -0.268,-0.076 -0.386,-0.076 -0.39,0 -0.707,0.197 -0.951,0.591 V 7.76 Z"
             style="fill:#ffffff;fill-rule:nonzero"
             id="path4005" />
          <path
             d="m -10.068,7.681 c -0.405,0.108 -0.78,0.162 -1.126,0.162 -0.579,0 -1.036,-0.17 -1.372,-0.51 -0.336,-0.34 -0.503,-0.803 -0.503,-1.389 0,-0.592 0.172,-1.055 0.518,-1.39 0.346,-0.335 0.823,-0.502 1.433,-0.502 0.295,0 0.635,0.047 1.02,0.142 v 0.707 c -0.4,-0.13 -0.721,-0.195 -0.961,-0.195 -0.292,0 -0.528,0.112 -0.706,0.337 -0.178,0.224 -0.268,0.523 -0.268,0.895 0,0.38 0.097,0.685 0.289,0.914 0.193,0.229 0.45,0.344 0.771,0.344 0.293,0 0.595,-0.064 0.905,-0.192 z"
             style="fill:#ffffff;fill-rule:nonzero"
             id="path4007" />
          <path
             d="M -9.143,7.76 V 2.546 h 0.977 v 2.272 c 0.319,-0.511 0.731,-0.766 1.235,-0.766 0.324,0 0.579,0.102 0.766,0.307 0.187,0.205 0.281,0.484 0.281,0.839 V 7.76 H -6.862 V 5.439 c 0,-0.412 -0.136,-0.618 -0.409,-0.618 -0.31,0 -0.609,0.219 -0.895,0.658 V 7.76 Z"
             style="fill:#ffffff;fill-rule:nonzero"
             id="path4009" />
          <path
             d="M -4.702,7.76 V 4.135 h 0.977 V 7.76 Z m 0,-4.236 V 2.708 h 0.977 v 0.816 z"
             style="fill:#ffffff;fill-rule:nonzero"
             id="path4011" />
          <path
             d="m -0.634,7.74 c -0.233,0.069 -0.417,0.103 -0.551,0.103 -0.848,0 -1.272,-0.396 -1.272,-1.189 V 4.746 H -2.863 V 4.135 h 0.406 V 3.524 l 0.978,-0.113 v 0.724 h 0.776 v 0.611 h -0.776 v 1.779 c 0,0.445 0.181,0.667 0.545,0.667 0.083,0 0.183,-0.015 0.3,-0.046 z"
             style="fill:#ffffff;fill-rule:nonzero"
             id="path4013" />
          <path
             d="M 3.19,7.638 C 2.725,7.775 2.285,7.843 1.869,7.843 1.264,7.843 0.786,7.671 0.436,7.328 0.086,6.984 -0.089,6.515 -0.089,5.921 c 0,-0.561 0.16,-1.013 0.48,-1.355 0.321,-0.343 0.744,-0.514 1.27,-0.514 0.53,0 0.918,0.167 1.162,0.502 C 3.068,4.889 3.19,5.418 3.19,6.142 H 0.941 c 0.066,0.692 0.446,1.037 1.139,1.037 0.328,0 0.698,-0.076 1.11,-0.228 z M 0.928,5.591 H 2.229 C 2.229,4.972 2.03,4.663 1.631,4.663 1.226,4.663 0.992,4.972 0.928,5.591 Z"
             style="fill:#ffffff;fill-rule:nonzero"
             id="path4015" />
          <path
             d="M 6.875,7.681 C 6.47,7.789 6.094,7.843 5.749,7.843 5.17,7.843 4.713,7.673 4.377,7.333 4.041,6.993 3.873,6.53 3.873,5.944 3.873,5.352 4.046,4.889 4.392,4.554 4.737,4.219 5.215,4.052 5.825,4.052 c 0.295,0 0.635,0.047 1.02,0.142 V 4.901 C 6.444,4.771 6.124,4.706 5.884,4.706 5.591,4.706 5.356,4.818 5.178,5.043 4.999,5.267 4.91,5.566 4.91,5.938 c 0,0.38 0.096,0.685 0.289,0.914 0.193,0.229 0.45,0.344 0.771,0.344 0.293,0 0.594,-0.064 0.905,-0.192 z"
             style="fill:#ffffff;fill-rule:nonzero"
             id="path4017" />
          <path
             d="M 9.668,7.74 C 9.435,7.809 9.251,7.843 9.117,7.843 8.269,7.843 7.846,7.447 7.846,6.654 V 4.746 H 7.44 V 4.135 H 7.846 V 3.524 L 8.823,3.411 V 4.135 H 9.599 V 4.746 H 8.823 v 1.779 c 0,0.445 0.182,0.667 0.545,0.667 0.084,0 0.184,-0.015 0.3,-0.046 z"
             style="fill:#ffffff;fill-rule:nonzero"
             id="path4019" />
          <path
             d="M 12.782,7.76 V 7.077 C 12.465,7.587 12.054,7.843 11.547,7.843 11.224,7.843 10.968,7.74 10.781,7.536 10.594,7.331 10.5,7.051 10.5,6.697 V 4.135 h 0.978 v 2.321 c 0,0.412 0.137,0.617 0.413,0.617 0.308,0 0.605,-0.219 0.891,-0.657 V 4.135 H 13.76 V 7.76 Z"
             style="fill:#ffffff;fill-rule:nonzero"
             id="path4021" />
          <path
             d="M 14.981,7.76 V 4.135 h 0.978 v 0.683 c 0.253,-0.511 0.638,-0.766 1.155,-0.766 0.062,0 0.123,0.007 0.182,0.02 V 4.944 C 17.157,4.893 17.029,4.868 16.91,4.868 c -0.39,0 -0.707,0.197 -0.951,0.591 V 7.76 Z"
             style="fill:#ffffff;fill-rule:nonzero"
             id="path4023" />
          <path
             d="m 21.008,7.638 c -0.465,0.137 -0.905,0.205 -1.321,0.205 -0.606,0 -1.083,-0.172 -1.433,-0.515 -0.35,-0.344 -0.525,-0.813 -0.525,-1.407 0,-0.561 0.16,-1.013 0.48,-1.355 0.32,-0.343 0.744,-0.514 1.27,-0.514 0.53,0 0.918,0.167 1.162,0.502 0.244,0.335 0.367,0.864 0.367,1.588 h -2.249 c 0.066,0.692 0.446,1.037 1.139,1.037 0.328,0 0.698,-0.076 1.11,-0.228 z M 18.746,5.591 h 1.301 c 0,-0.619 -0.2,-0.928 -0.598,-0.928 -0.405,0 -0.639,0.309 -0.703,0.928 z"
             style="fill:#ffffff;fill-rule:nonzero"
             id="path4025" />
        </g>
        <g
           id="content" />
        <g
           transform="matrix(0.576599,-0.3329,0.665799,0.384399,-48.9388,8.86738)"
           id="g4041">
          <rect
             x="20.216999"
             y="84.893997"
             width="30"
             height="25.981001"
             style="fill:#ffffff"
             id="rect4030" />
          <clipPath
             id="clipPath4385">
            <rect
               x="20.216999"
               y="84.893997"
               width="30"
               height="25.981001"
               id="rect4383" />
          </clipPath>
          <g
             clip-path="url(#_clip1)"
             id="g4039">
            <g
               transform="translate(2.92478,-2.53293)"
               id="g4037">
              <rect
                 x="20.216999"
                 y="84.893997"
                 width="30"
                 height="25.981001"
                 style="fill:#8ccbbe"
                 id="rect4035" />
            </g>
          </g>
        </g>
        <g
           transform="matrix(0.576599,-0.3329,0.665799,0.384399,-48.9388,8.86738)"
           id="g4045">
          <path
             d="m 50.694,84.687 c 0,-0.127 -0.091,-0.206 -0.239,-0.206 h -30 c -0.147,0 -0.329,0.079 -0.477,0.206 -0.147,0.128 -0.238,0.286 -0.238,0.414 v 25.98 c 0,0.128 0.091,0.207 0.238,0.207 h 30 c 0.148,0 0.33,-0.079 0.477,-0.207 0.148,-0.128 0.239,-0.285 0.239,-0.413 z m -0.954,0.62 v 25.155 c 0,0 -29.046,0 -29.046,0 0,0 0,-25.155 0,-25.155 z"
             style="fill:#3797a4"
             id="path4043" />
        </g>
        <g
           transform="matrix(0.576599,-0.3329,0.665799,0.384399,-48.9388,4.50488)"
           id="g4058">
          <rect
             x="20.216999"
             y="84.893997"
             width="30"
             height="25.981001"
             style="fill:#ffffff"
             id="rect4047" />
          <clipPath
             id="clipPath4396">
            <rect
               x="20.216999"
               y="84.893997"
               width="30"
               height="25.981001"
               id="rect4394" />
          </clipPath>
          <g
             clip-path="url(#_clip2)"
             id="g4056">
            <g
               transform="translate(2.92478,-2.53293)"
               id="g4054">
              <rect
                 x="20.216999"
                 y="84.893997"
                 width="30"
                 height="25.981001"
                 style="fill:#8ccbbe"
                 id="rect4052" />
            </g>
          </g>
        </g>
        <g
           transform="matrix(0.576599,-0.3329,0.665799,0.384399,-48.9388,4.50488)"
           id="g4062">
          <path
             d="m 50.694,84.687 c 0,-0.127 -0.091,-0.206 -0.239,-0.206 h -30 c -0.147,0 -0.329,0.079 -0.477,0.206 -0.147,0.128 -0.238,0.286 -0.238,0.414 v 25.98 c 0,0.128 0.091,0.207 0.238,0.207 h 30 c 0.148,0 0.33,-0.079 0.477,-0.207 0.148,-0.128 0.239,-0.285 0.239,-0.413 z m -0.954,0.62 v 25.155 c 0,0 -29.046,0 -29.046,0 0,0 0,-25.155 0,-25.155 z"
             style="fill:#3797a4"
             id="path4060" />
        </g>
        <g
           transform="matrix(0.576599,-0.3329,0.665799,0.384399,-48.9388,0.142378)"
           id="g4066">
          <rect
             x="20.216999"
             y="84.893997"
             width="30"
             height="25.981001"
             style="fill:#ffffff"
             id="rect4064" />
        </g>
        <g
           transform="matrix(0.576599,-0.3329,0.665799,0.384399,-48.9388,0.142378)"
           id="g4070">
          <path
             d="m 50.694,84.687 c 0,-0.127 -0.091,-0.206 -0.239,-0.206 h -30 c -0.147,0 -0.329,0.079 -0.477,0.206 -0.147,0.128 -0.238,0.286 -0.238,0.414 v 25.98 c 0,0.128 0.091,0.207 0.238,0.207 h 30 c 0.148,0 0.33,-0.079 0.477,-0.207 0.148,-0.128 0.239,-0.285 0.239,-0.413 z m -0.954,0.62 v 25.155 c 0,0 -29.046,0 -29.046,0 0,0 0,-25.155 0,-25.155 z"
             style="fill:#3797a4"
             id="path4068" />
        </g>
        <g
           transform="matrix(0.513202,0,0,0.513202,17.8688,4.4747)"
           id="g4088">
          <g
             transform="matrix(1.08112,0,0,1.08112,-106.169,82.9876)"
             id="g4074">
            <path
               d="m 142,-65 6,8 c 0,0 1.348,7.483 -4,17 -4.44,7.901 -11.54,10.817 -11.979,10.992 L 132,-29 c 0,0 -7.417,-2.844 -12,-11 -5.348,-9.517 -4,-17 -4,-17 l 6,-8 z"
               style="fill:#ffffff"
               id="path4072" />
          </g>
          <g
             transform="matrix(1.08112,0,0,1.08112,-106.169,82.9876)"
             id="g4078">
            <path
               d="m 131.977,-28.505 0.023,10e-4 0.042,-0.009 c 0.055,-0.003 0.109,-0.014 0.16,-0.034 v 0 0 l 0.002,-10e-4 c 0.448,-0.178 7.698,-3.147 12.228,-11.209 5.45,-9.7 4.056,-17.331 4.056,-17.331 -0.014,-0.076 -0.045,-0.148 -0.091,-0.209 l -6,-8 c -0.094,-0.125 -0.241,-0.199 -0.397,-0.199 h -20 c -0.156,0 -0.303,0.074 -0.397,0.199 l -6,8 c -0.046,0.061 -0.077,0.133 -0.091,0.209 0,0 -1.394,7.631 4.056,17.331 4.677,8.324 12.255,11.22 12.255,11.22 0.049,0.019 0.101,0.03 0.154,0.032 z M 132,-29.536 c -1.139,-0.487 -7.494,-3.457 -11.568,-10.707 -4.868,-8.663 -4.098,-15.604 -3.961,-16.557 0,-0.002 5.777,-7.704 5.777,-7.704 h 19.504 l 5.777,7.702 c 0.137,0.962 0.904,7.9 -3.961,16.559 -4.07,7.243 -10.417,10.215 -11.568,10.707 z"
               style="fill:#3797a4"
               id="path4076" />
          </g>
          <g
             transform="matrix(0.921247,0,0,0.921247,-85.0662,75.4736)"
             id="g4082">
            <path
               d="m 142,-65 6,8 c 0,0 1.348,7.483 -4,17 -4.44,7.901 -11.54,10.817 -11.979,10.992 L 132,-29 c 0,0 -7.417,-2.844 -12,-11 -5.348,-9.517 -4,-17 -4,-17 l 6,-8 z"
               style="fill:#3797a4"
               id="path4080" />
          </g>
          <g
             transform="matrix(0.921247,0,0,0.921247,-85.0662,75.4736)"
             id="g4086">
            <path
               d="m 131.973,-28.419 0.027,0.001 0.043,-0.009 c 0.065,-0.003 0.129,-0.016 0.19,-0.04 v 0 0 l 0.003,-0.001 c 0.449,-0.178 7.725,-3.157 12.271,-11.247 5.468,-9.732 4.065,-17.388 4.065,-17.388 -0.016,-0.089 -0.052,-0.173 -0.107,-0.246 l -6,-8 c -0.11,-0.146 -0.282,-0.233 -0.465,-0.233 h -20 c -0.183,0 -0.355,0.087 -0.465,0.233 l -6,8 c -0.055,0.073 -0.091,0.157 -0.107,0.246 0,0 -1.403,7.656 4.065,17.388 4.694,8.353 12.299,11.258 12.299,11.258 0.058,0.022 0.119,0.035 0.181,0.038 z M 132,-29.63 c -1.216,-0.524 -7.47,-3.496 -11.493,-10.655 -4.818,-8.575 -4.097,-15.455 -3.955,-16.48 10e-4,-0.003 5.739,-7.653 5.739,-7.653 h 19.418 l 5.738,7.65 c 0.144,1.032 0.863,7.911 -3.954,16.483 -4.018,7.151 -10.264,10.125 -11.493,10.655 z"
               style="fill:#3797a4"
               id="path4084" />
          </g>
        </g>
        <g
           transform="matrix(1.25228,0,0,1.19739,-127.773,-5.7381)"
           id="g4092">
          <path
             d="m 128.409,21.288 c 0,-1.016 0.105,-1.833 0.314,-2.452 0.209,-0.619 0.519,-1.097 0.932,-1.433 0.412,-0.336 0.93,-0.504 1.555,-0.504 0.461,0 0.865,0.093 1.213,0.279 0.348,0.185 0.635,0.453 0.861,0.802 0.227,0.35 0.405,0.776 0.534,1.278 0.128,0.502 0.193,1.179 0.193,2.03 0,1.008 -0.104,1.821 -0.311,2.441 -0.207,0.619 -0.516,1.097 -0.928,1.435 -0.412,0.338 -0.933,0.507 -1.562,0.507 -0.828,0 -1.478,-0.297 -1.951,-0.891 -0.566,-0.715 -0.85,-1.879 -0.85,-3.492 z m 1.084,0 c 0,1.41 0.165,2.349 0.495,2.816 0.331,0.466 0.738,0.7 1.222,0.7 0.485,0 0.892,-0.235 1.222,-0.703 0.33,-0.469 0.495,-1.407 0.495,-2.813 0,-1.414 -0.165,-2.353 -0.495,-2.818 -0.33,-0.465 -0.741,-0.698 -1.234,-0.698 -0.484,0 -0.871,0.206 -1.16,0.616 -0.363,0.523 -0.545,1.49 -0.545,2.9 z"
             style="fill:#ffffff;fill-rule:nonzero"
             id="path4090" />
        </g>
      </g>
    </g>
  </g>
</svg>
