<?xml version="1.0" encoding="UTF-8" standalone="no"?>
<!-- Created with Inkscape (http://www.inkscape.org/) -->

<svg
   xmlns:dc="http://purl.org/dc/elements/1.1/"
   xmlns:cc="http://creativecommons.org/ns#"
   xmlns:rdf="http://www.w3.org/1999/02/22-rdf-syntax-ns#"
   xmlns:svg="http://www.w3.org/2000/svg"
   xmlns="http://www.w3.org/2000/svg"
   xmlns:sodipodi="http://sodipodi.sourceforge.net/DTD/sodipodi-0.dtd"
   xmlns:inkscape="http://www.inkscape.org/namespaces/inkscape"
   width="25.7799mm"
   height="25.7799mm"
   viewBox="0 0 25.7799 25.779899"
   version="1.1"
   id="svg1709"
   inkscape:version="0.92.3 (2405546, 2018-03-11)"
   sodipodi:docname="blueprint.svg">
  <defs
     id="defs1703" />
  <sodipodi:namedview
     id="base"
     pagecolor="#ffffff"
     bordercolor="#666666"
     borderopacity="1.0"
     inkscape:pageopacity="0.0"
     inkscape:pageshadow="2"
     inkscape:zoom="8.0000001"
     inkscape:cx="57.376379"
     inkscape:cy="47.724966"
     inkscape:document-units="mm"
     inkscape:current-layer="layer6"
     showgrid="false"
     fit-margin-top="0"
     fit-margin-left="0"
     fit-margin-right="0"
     fit-margin-bottom="0"
     inkscape:window-width="1920"
     inkscape:window-height="979"
     inkscape:window-x="1920"
     inkscape:window-y="0"
     inkscape:window-maximized="1"
     inkscape:document-rotation="0"
     showguides="false" />
  <metadata
     id="metadata1706">
    <rdf:RDF>
      <cc:Work
         rdf:about="">
        <dc:format>image/svg+xml</dc:format>
        <dc:type
           rdf:resource="http://purl.org/dc/dcmitype/StillImage" />
        <dc:title />
      </cc:Work>
    </rdf:RDF>
  </metadata>
  <g
     inkscape:label="button"
     inkscape:groupmode="layer"
     id="layer1"
     transform="translate(-76.098697,-100.99309)"
     style="display:inline">
    <g
       inkscape:groupmode="layer"
       id="layer5"
       inkscape:label="background"
       transform="translate(76.098697,100.99309)"
       style="display:inline">
      <circle
         class="cls-4"
         cx="88.987877"
         cy="113.88011"
         r="12.889999"
         id="circle129-7"
         style="display:inline;fill:#b3b3b3;fill-opacity:1;stroke:#dadada;stroke-width:0;stroke-miterlimit:10;stroke-dasharray:none;stroke-opacity:1"
         transform="translate(-76.098696,-100.99309)" />
      <path
         transform="translate(-86.908836,-143.51764)"
         class="cls-5"
         d="m 106.08657,150.08769 a 4.8376628,4.8376628 0 0 1 0.53787,0.60707 2.6578838,2.6578838 0 0 1 1.09461,-0.42463 c 0.62908,0.27365 1.25817,0.56932 1.25817,0.62908 0,0.0598 -0.94363,-0.33656 -1.27704,-0.42778 a 2.5666665,2.5666665 0 0 0 -0.90903,0.36487 c -0.0315,0.0912 0,0.12267 0,0.12267 a 2.7082107,2.7082107 0 0 1 0.42463,0.18244 c 0.0598,0.11953 0.11953,0.48439 0.0314,0.57561 -0.0314,0.0315 -0.0189,0.044 -0.12267,0.0629 -0.1038,0.0189 -0.44351,0.53787 -0.77378,0.86814 -0.33027,0.33027 -1.50665,0.0723 -1.50665,0.0723 0,0 0.0692,0.6857 0.0912,1.36825 0.11952,0.21704 0.27365,0.27365 0.69828,0.45609 0.76119,0.0912 1.49408,-0.0189 1.52238,0.0598 0.0283,0.0786 -1.47834,0.1793 -1.61045,0.15098 -0.13211,-0.0283 -0.45609,-0.15098 -0.79265,-0.24219 a 3.1454246,3.1454246 0 0 0 0.70143,0.88071 c 0.60707,0.18244 1.21413,0.36488 1.21413,0.42779 a 10.25723,10.25723 0 0 1 -1.3368,-0.18244 7.8446892,7.8446892 0 0 1 -0.70143,-0.53156 c 0.0786,0.23275 0.14154,0.70143 0.31454,0.86498 0.41205,0.4089 0.94363,0.82095 0.89645,0.85871 a 10.505718,10.505718 0 0 1 -1.14808,-0.75805 c -0.21703,-0.47496 -0.54416,-1.29592 -0.54416,-1.29592 h -0.31454 a 52.475119,52.475119 0 0 1 1.15751,12.46847 c -1.31164,-0.65739 -4.51997,-5.49821 -2.30559,-8.61533 0.37116,-0.51899 0.41205,-3.7745 0.41205,-3.7745 a 2.4848854,2.4848854 0 0 1 -0.7203,-0.31454 0.88386433,0.88386433 0 0 1 -0.21075,0.0283 c 1.39343,3.1989 -8.357393,7.81009 -8.357393,7.81009 0,0 4.58288,-9.73823 7.781783,-8.34167 a 0.88700972,0.88700972 0 0 1 0.0283,-0.21388 2.4848854,2.4848854 0 0 1 -0.31454,-0.72031 c 0,0 -3.249223,0.0409 -3.774513,0.41205 -3.11712,2.20178 -7.957931,-0.99396 -8.61532,-2.3056 a 52.670136,52.670136 0 0 1 12.471613,1.16695 V 152.063 c 0,0 -0.82096,-0.33027 -1.29592,-0.5473 a 10.505718,10.505718 0 0 1 -0.758043,-1.14809 c 0.0377,-0.0472 0.44979,0.4844 0.858703,0.89645 0.16356,0.16356 0.62908,0.22647 0.86813,0.31454 a 7.3005304,7.3005304 0 0 1 -0.53472,-0.70143 9.7508163,9.7508163 0 0 1 -0.19187,-1.36826 c 0.0598,0 0.2422,0.60707 0.42463,1.21728 a 3.1863152,3.1863152 0 0 0 0.8933,0.70772 c -0.0912,-0.33656 -0.21389,-0.62908 -0.24219,-0.7895 -0.0283,-0.16041 0.0724,-1.63876 0.15098,-1.61045 0.0786,0.0283 -0.0315,0.75804 0.0598,1.51923 0.18243,0.42464 0.24219,0.57876 0.45608,0.69829 0.68256,0.022 1.36826,0.0912 1.36826,0.0912 0,0 -0.25478,-1.17954 0.0755,-1.50666 0.33027,-0.32713 0.84927,-0.66998 0.86499,-0.77378 0.0157,-0.10379 0.0314,-0.0912 0.0629,-0.11952 0.0912,-0.0912 0.45609,-0.0315 0.57562,0.0283 a 2.8466092,2.8466092 0 0 1 0.18243,0.42463 c 0,0 0.0314,0.0315 0.12267,0 a 2.5666665,2.5666665 0 0 0 0.35229,-0.91846 c -0.0912,-0.33656 -0.49383,-1.27391 -0.42463,-1.27705 0.0692,-0.003 0.36172,0.60707 0.62909,1.25817 a 2.6421567,2.6421567 0 0 1 -0.40576,1.08832 4.8376628,4.8376628 0 0 1 0.60706,0.54101 z"
         id="path131-3"
         inkscape:connector-curvature="0"
         style="display:inline;fill:#999999;fill-opacity:1;stroke-width:0.314542"
         clip-path="none" />
      <path
         style="fill:#34c6e9;stroke-width:0.125"
         d="m 68.53328,83.606216 0.0069,-0.71875 1.774348,-1.160322 c 2.805346,-1.834532 4.899012,-3.618202 7.368134,-6.277178 4.607302,-4.961564 8.005005,-11.492651 9.465485,-18.194619 0.569509,-2.613404 0.772594,-4.409636 0.842854,-7.454784 0.12034,-5.215711 -0.483534,-9.317026 -2.044149,-13.883201 -0.886761,-2.594557 -2.690218,-6.43341 -3.702346,-7.880843 -0.134971,-0.19302 -0.223051,-0.373299 -0.195731,-0.400618 0.02732,-0.02732 0.272519,0.0297 0.544886,0.12671 1.178853,0.419875 1.076818,0.105216 -0.177487,-0.547345 -0.929068,-0.483353 -1.041568,-0.589201 -1.974438,-1.85768 -2.500307,-3.399812 -5.402181,-6.282978 -8.830707,-8.77378 -0.971325,-0.705661 -1.15268,-0.900165 -1.520708,-1.63097 -0.660045,-1.310673 -1.059565,-1.480463 -0.63199,-0.268586 0.100075,0.283644 0.165304,0.515716 0.144952,0.515716 -0.02035,0 -0.510044,-0.2863 -1.088205,-0.636222 C 64.97683,12.422278 60.330651,10.686527 55.839117,9.8281705 52.426098,9.1759244 47.508024,8.9942009 44.055914,9.3927795 35.338634,10.399271 27.840805,13.87533 21.245129,19.968059 c -0.670312,0.619199 -1.218742,1.079374 -1.218733,1.022611 1e-5,-0.05676 0.228892,-0.862579 0.508627,-1.790704 1.322759,-4.388733 3.479489,-9.05033 5.944268,-12.8480507 0.369649,-0.5695533 0.67233,-1.0758033 0.672625,-1.125 0.0014,-0.2399181 3.116511,-1.5948012 5.749463,-2.5006962 2.161705,-0.7437574 5.298024,-1.5874475 6.875,-1.84941964 0.503055,-0.083569 1.167904,-0.19865892 1.4375,-0.24884108 0.545556,-0.10154877 3.012214,-0.37501029 4.4375,-0.4919553 1.050309,-0.08617808 5.074691,-0.08617808 6.125,0 1.809133,0.14843968 3.617108,0.35884796 4.6875,0.54552113 0.4125,0.0719388 0.91875,0.15622081 1.125,0.18729344 0.562262,0.0847078 3.13071,0.67959905 3.827247,0.88644845 0.335639,0.099674 0.610253,0.1492448 0.610253,0.1101573 0,-0.039087 0.07031,-0.014426 0.15625,0.054804 0.124241,0.1000863 0.718475,0.2832307 1.09375,0.3370968 0.03438,0.00493 0.11875,0.042746 0.1875,0.084028 0.06875,0.041281 0.603125,0.2273069 1.1875,0.4133909 0.584375,0.1860839 1.175,0.3882997 1.3125,0.4493685 0.946054,0.4201772 3.522736,1.5083016 3.625,1.5308248 0.06875,0.015142 0.153125,0.060167 0.1875,0.1000558 0.03437,0.039889 0.540625,0.3137765 1.125,0.6086397 0.584375,0.2948633 1.437939,0.7544146 1.896809,1.0212253 0.45887,0.2668106 0.89012,0.4851102 0.958333,0.4851102 0.06821,0 0.142774,0.043204 0.165692,0.096009 0.05976,0.1376959 1.287573,0.9039909 1.448442,0.9039909 0.07419,0 0.15364,0.045313 0.176558,0.1006947 0.03586,0.086656 2.255858,1.7281076 2.822324,2.086805 0.108573,0.06875 0.288713,0.211373 0.400312,0.316939 0.111598,0.105566 0.424053,0.358691 0.694345,0.5625 0.27029,0.203809 0.584253,0.454936 0.697697,0.558061 0.113443,0.103125 0.493809,0.440625 0.845258,0.75 1.459118,1.28444 4.06003,3.9971 5.2135,5.4375 0.385383,0.48125 0.770003,0.93125 0.854711,1 0.08471,0.06875 0.190947,0.223438 0.236092,0.34375 0.04514,0.120313 0.140095,0.21875 0.211004,0.21875 0.07091,0 0.128923,0.06222 0.128923,0.138263 0,0.14596 0.743678,1.144769 0.90532,1.215904 0.05207,0.02292 0.09468,0.121355 0.09468,0.21875 0,0.0974 0.05625,0.177083 0.125,0.177083 0.06875,0 0.125,0.05369 0.125,0.119299 0,0.06561 0.356235,0.670303 0.791632,1.34375 0.435398,0.673449 1.006958,1.618201 1.270133,2.099451 0.263176,0.48125 0.543048,0.959375 0.62194,1.0625 0.231656,0.302817 1.65536,3.385124 2.237131,4.843374 0.294934,0.73927 0.583229,1.456626 0.640657,1.594126 0.05743,0.1375 0.116304,0.292188 0.130835,0.34375 0.01453,0.05156 0.03763,0.107813 0.05134,0.125 0.0137,0.01719 0.04734,0.150144 0.07474,0.29546 0.02741,0.145315 0.116243,0.426565 0.197419,0.625 0.08117,0.198434 0.16026,0.41704 0.175745,0.48579 0.01548,0.06875 0.157221,0.546875 0.314971,1.0625 0.15775,0.515625 0.306537,1.047083 0.330635,1.181016 0.0241,0.133934 0.124699,0.555809 0.223555,0.9375 0.21283,0.821748 0.561039,2.414822 0.643488,2.943984 0.03214,0.20625 0.111542,0.684375 0.176459,1.0625 0.06492,0.378125 0.15192,0.96875 0.193341,1.3125 0.04142,0.34375 0.09372,0.765625 0.116215,0.9375 0.233987,1.787586 0.318781,6.781871 0.150304,8.852741 -0.121948,1.498931 -0.443838,3.889103 -0.718447,5.334759 -0.343188,1.806682 -0.339635,1.790345 -0.605493,2.784257 -0.133768,0.500092 -0.25028,0.950092 -0.258918,1 -0.0086,0.04991 -0.133211,0.484493 -0.276831,0.965743 -0.14362,0.48125 -0.269958,0.93125 -0.280751,1 -0.0108,0.06875 -0.05284,0.18125 -0.09345,0.25 -0.07662,0.129747 -0.357602,0.965809 -0.412096,1.226206 -0.01713,0.08184 -0.0896,0.289419 -0.161054,0.461294 -0.224918,0.541024 -0.961111,2.43464 -0.971941,2.5 -0.0057,0.03437 -0.128344,0.2875 -0.272554,0.5625 -0.14421,0.275 -0.267855,0.542376 -0.274767,0.594168 -0.0069,0.05179 -0.333305,0.726793 -0.725318,1.5 -0.392011,0.773208 -0.701762,1.448019 -0.688333,1.499582 0.01343,0.05156 -0.01777,0.09382 -0.06933,0.09392 -0.05156,9.2e-5 -0.290625,0.37978 -0.53125,0.84375 -0.240625,0.463971 -0.468147,0.871709 -0.505602,0.906084 -0.09286,0.08522 -1.994398,2.996868 -1.994398,3.053835 0,0.025 -0.135298,0.20593 -0.300662,0.402061 -0.657465,0.779794 -2.449338,3.059656 -2.449338,3.116377 0,0.0332 -0.196875,0.233223 -0.4375,0.444494 -0.240625,0.211273 -0.439268,0.448616 -0.441428,0.527431 -0.0078,0.286112 -0.617314,0.575334 -2.13509,1.0132 -3.854371,1.111957 -9.465568,1.936977 -13.204732,1.941504 l -0.90625,0.0011 0.0069,-0.71875 z"
         id="path973"
         inkscape:connector-curvature="0"
         transform="scale(0.26458333)" />
    </g>
    <g
       inkscape:groupmode="layer"
       id="layer2"
       inkscape:label="content"
       transform="translate(76.098697,100.99309)"
       style="display:inline">
      <text
         transform="translate(-76.098696,-100.99309)"
         xml:space="preserve"
         style="font-style:normal;font-weight:normal;font-size:2.82222px;line-height:1.25;font-family:sans-serif;letter-spacing:0px;word-spacing:0px;display:inline;fill:#000000;fill-opacity:1;stroke:none;stroke-width:0.264583"
         x="89.37072"
         y="112.75933"
         id="text7112"><tspan
           sodipodi:role="line"
           id="tspan7110"
           x="89.37072"
           y="112.75933"
           style="font-style:normal;font-variant:normal;font-weight:normal;font-stretch:normal;font-size:3.52778px;font-family:hind;-inkscape-font-specification:hind;text-align:center;text-anchor:middle;fill:#ffffff;stroke-width:0.264583">SECURITY</tspan><tspan
           sodipodi:role="line"
           x="89.37072"
           y="117.16905"
           style="font-style:normal;font-variant:normal;font-weight:normal;font-stretch:normal;font-size:3.52778px;font-family:hind;-inkscape-font-specification:hind;text-align:center;text-anchor:middle;fill:#ffffff;stroke-width:0.264583"
           id="tspan7114">BUTTON</tspan></text>
    </g>
    <g
       inkscape:groupmode="layer"
       id="layer7"
       inkscape:label="keycloak" />
    <g
       inkscape:groupmode="layer"
       id="layer4"
       inkscape:label="gleam"
       transform="translate(76.098697,100.99309)"
       style="display:inline">
      <path
         transform="translate(-76.098696,-100.99309)"
         style="display:inline;opacity:0.15;fill:#ffffff;stroke-width:0.314542"
         d="m 83.291381,102.37078 a 13.383781,13.383781 0 0 0 -0.543637,0.25063 12.8895,12.889499 0 0 0 -6.648689,11.26133 12.8895,12.889499 0 0 0 12.889652,12.88966 12.8895,12.889499 0 0 0 9.406661,-4.10105 13.346037,13.346037 0 0 1 -4.057116,0.64131 13.380636,13.380636 0 0 1 -11.046871,-20.94188 z"
         id="path133-3-3"
         inkscape:connector-curvature="0" />
    </g>
  </g>
  <g
     inkscape:groupmode="layer"
     id="layer3"
     inkscape:label="edge"
     style="display:inline">
    <ellipse
       style="opacity:1;vector-effect:none;fill:none;fill-opacity:1;stroke:#000000;stroke-width:0.00300114;stroke-linecap:butt;stroke-linejoin:miter;stroke-miterlimit:4;stroke-dasharray:none;stroke-dashoffset:0;stroke-opacity:1"
       id="path1859"
       cx="12.888689"
       cy="12.885541"
       rx="12.888499"
       ry="12.888245" />
  </g>
  <g
     inkscape:groupmode="layer"
     id="layer6"
     inkscape:label="contentscope"
     style="display:inline">
    <ellipse
       style="display:inline;opacity:1;vector-effect:none;fill:none;fill-opacity:1;stroke:#ff0000;stroke-width:0.102;stroke-linecap:butt;stroke-linejoin:miter;stroke-miterlimit:4;stroke-dasharray:none;stroke-dashoffset:0;stroke-opacity:1"
       id="path1859-3"
       cx="12.825768"
       cy="12.893641"
       rx="10.409864"
       ry="10.409657" />
  </g>
</svg>
