<?xml version="1.0" encoding="UTF-8" standalone="no"?>
<svg
   xmlns:dc="http://purl.org/dc/elements/1.1/"
   xmlns:cc="http://creativecommons.org/ns#"
   xmlns:rdf="http://www.w3.org/1999/02/22-rdf-syntax-ns#"
   xmlns:svg="http://www.w3.org/2000/svg"
   xmlns="http://www.w3.org/2000/svg"
   xmlns:sodipodi="http://sodipodi.sourceforge.net/DTD/sodipodi-0.dtd"
   xmlns:inkscape="http://www.inkscape.org/namespaces/inkscape"
   viewBox="0 0 97.207176 97.191711"
   version="1.1"
   id="svg391"
   sodipodi:docname="broken_access_control2.svg"
   width="97.207176"
   height="97.191711"
   inkscape:version="0.92.4 (unknown)">
  <metadata
     id="metadata395">
    <rdf:RDF>
      <cc:Work
         rdf:about="">
        <dc:format>image/svg+xml</dc:format>
        <dc:type
           rdf:resource="http://purl.org/dc/dcmitype/StillImage" />
        <dc:title>Element 270</dc:title>
      </cc:Work>
    </rdf:RDF>
  </metadata>
  <sodipodi:namedview
     pagecolor="#ffffff"
     bordercolor="#666666"
     borderopacity="1"
     objecttolerance="10"
     gridtolerance="10"
     guidetolerance="10"
     inkscape:pageopacity="0"
     inkscape:pageshadow="2"
     inkscape:window-width="2560"
     inkscape:window-height="1312"
     id="namedview393"
     showgrid="false"
     fit-margin-top="0"
     fit-margin-left="0"
     fit-margin-right="0"
     fit-margin-bottom="0"
     inkscape:zoom="8"
     inkscape:cx="68.161486"
     inkscape:cy="44.410919"
     inkscape:window-x="0"
     inkscape:window-y="54"
     inkscape:window-maximized="1"
     inkscape:current-layer="g387"
     inkscape:snap-global="false" />
  <defs
     id="defs359">
    <style
       id="style354">.cls-1{fill:none;}.cls-2{clip-path:url(#clip-path);}.cls-3{fill:#970b27;stroke:#970b27;stroke-width:10px;}.cls-3,.cls-5,.cls-6,.cls-8{stroke-miterlimit:10;}.cls-4{fill:#6b0816;}.cls-5{fill:#c6c6c6;}.cls-5,.cls-6,.cls-8{stroke:#878787;}.cls-10,.cls-6,.cls-7,.cls-8,.cls-9{fill:#fff;}.cls-7{font-size:10.77px;font-family:HalisR-SBlack, Halis R;}.cls-8{stroke-width:0.75px;}.cls-9{opacity:0.07;}.cls-10,.cls-12{font-size:6.98px;font-family:Hind-SemiBold, Hind;font-weight:700;}.cls-11{font-size:8.73px;}.cls-12{fill:#e6332a;}</style>
    <clipPath
       id="clip-path"
       transform="translate(0 -0.37)">
      <circle
         class="cls-1"
         cx="46.860001"
         cy="41.099998"
         r="41.099998"
         id="circle356"
         style="fill:none" />
    </clipPath>
    <clipPath
       clipPathUnits="userSpaceOnUse"
       id="clipPath5233">
      <ellipse
         style="display:inline;opacity:1;vector-effect:none;fill:none;fill-opacity:1;stroke:#000000;stroke-width:0.00956128;stroke-linecap:butt;stroke-linejoin:miter;stroke-miterlimit:4;stroke-dasharray:none;stroke-dashoffset:0;stroke-opacity:1"
         id="ellipse5235"
         cx="46.872238"
         cy="41.235538"
         rx="41.061272"
         ry="41.060459" />
    </clipPath>
  </defs>
  <title
     id="title361">Element 270</title>
  <g
     id="Ebene_2"
     data-name="Ebene 2"
     transform="translate(2.4160667,7.6583829)">
    <g
       id="Ebene_2-2"
       data-name="Ebene 2"
       transform="matrix(1.1863354,0,0,1.1863354,-9.044657,-7.4816062)">
      <g
         class="cls-2"
         clip-path="url(#clip-path)"
         id="g387">
        <circle
           class="cls-3"
           cx="46.869999"
           cy="40.880001"
           r="35.880001"
           id="circle363"
           style="fill:#469220;fill-opacity:1;stroke:#469220;stroke-width:10px;stroke-miterlimit:10;stroke-opacity:1" />
        <path
           class="cls-4"
           d="m 66.56,21.36 a 21.42,21.42 0 0 1 1.8,2 A 8.82,8.82 0 0 1 72,22 c 2.1,0.9 4.11,1.88 4.1,2.1 C 76.09,24.32 73,23 71.9,22.7 a 8.46,8.46 0 0 0 -3,1.2 c -0.1,0.3 0,0.4 0,0.4 a 9,9 0 0 1 1.4,0.6 c 0.2,0.4 0.4,1.6 0.1,1.9 -0.1,0.1 -0.06,0.14 -0.4,0.2 -0.34,0.06 -1.46,1.77 -2.54,2.85 -1.08,1.08 -5,0.25 -5,0.25 0,0 0.23,2.25 0.3,4.5 0.39,0.71 0.9,0.9 2.3,1.5 2.5,0.3 4.91,-0.06 5,0.2 0.09,0.26 -4.86,0.58 -5.3,0.5 -0.44,-0.08 -1.5,-0.5 -2.6,-0.8 a 10.44,10.44 0 0 0 2.3,2.9 c 2,0.6 4,1.2 4,1.4 a 33.21,33.21 0 0 1 -4.4,-0.6 26.76,26.76 0 0 1 -2.31,-1.75 c 0.26,0.77 0.47,2.31 1,2.85 1.35,1.35 3.1,2.7 2.94,2.83 a 35.7,35.7 0 0 1 -3.77,-2.5 c -0.72,-1.56 -1.8,-4.26 -1.8,-4.26 h -1.07 a 172.74,172.74 0 0 1 3.81,41 C 58.54,75.7 48,59.76 55.27,49.51 56.5,47.79 56.62,37.1 56.62,37.1 a 8.28,8.28 0 0 1 -2.36,-1 3.14,3.14 0 0 1 -0.7,0.1 c 4.59,10.52 -27.5,25.7 -27.5,25.7 0,0 15.18,-32.09 25.7,-27.5 a 2.59,2.59 0 0 1 0.1,-0.7 8.19,8.19 0 0 1 -1,-2.37 c 0,0 -10.7,0.13 -12.41,1.35 C 28.19,39.97 12.26,29.41 10.1,25.1 a 173.16,173.16 0 0 1 41,3.8 v -1.12 c 0,0 -2.71,-1.08 -4.27,-1.78 a 34.84,34.84 0 0 1 -2.5,-3.78 c 0.13,-0.15 1.48,1.6 2.83,2.95 0.54,0.54 2.07,0.75 2.85,1 a 24.46,24.46 0 0 1 -1.75,-2.31 33.21,33.21 0 0 1 -0.6,-4.4 c 0.2,0 0.8,2 1.4,4 a 10.44,10.44 0 0 0 2.9,2.3 c -0.3,-1.1 -0.7,-2.1 -0.8,-2.6 -0.1,-0.5 0.24,-5.39 0.5,-5.3 0.26,0.09 -0.1,2.5 0.2,5 0.6,1.4 0.79,1.9 1.5,2.3 2.24,0.07 4.5,0.3 4.5,0.3 0,0 -0.84,-3.88 0.24,-5 1.08,-1.12 2.8,-2.16 2.9,-2.46 0.1,-0.3 0.1,-0.3 0.2,-0.4 0.3,-0.3 1.5,-0.1 1.9,0.1 a 9,9 0 0 1 0.6,1.4 c 0,0 0.1,0.1 0.4,0 a 8.65,8.65 0 0 0 1.2,-3 C 65,15 63.68,11.9 63.9,11.9 c 0.22,0 1.2,2 2.1,4.1 a 8.87,8.87 0 0 1 -1.4,3.6 21.42,21.42 0 0 1 1.96,1.76 z"
           transform="translate(0,-0.37)"
           id="path365"
           inkscape:connector-curvature="0"
           style="fill:#2d6611;fill-opacity:1" />
        <path
           class="cls-9"
           d="m 61.65,71.59 a 42.43,42.43 0 0 1 -35,-66.4 42.44,42.44 0 1 0 50.83,63.34 42.34,42.34 0 0 1 -15.83,3.06 z"
           transform="translate(0,-0.37)"
           id="path377"
           inkscape:connector-curvature="0"
           style="opacity:0.07000002;fill:#ffffff"
           clip-path="url(#clipPath5233)" />
        <text
           class="cls-10"
           id="text383"
           style="font-weight:700;font-size:6.98000002px;font-family:Hind-SemiBold, Hind;fill:#ffffff"
           x="20.452143"
           y="44.66" />
        <text
           xml:space="preserve"
           style="font-style:normal;font-weight:normal;font-size:33.71727753px;line-height:1.25;font-family:sans-serif;letter-spacing:0px;word-spacing:0px;fill:#000000;fill-opacity:1;stroke:none;stroke-width:0.84293193"
           x="27.777201"
           y="35.671894"
           id="text3562"><tspan
             sodipodi:role="line"
             id="tspan3560"
             x="27.777201"
             y="65.503784"
             style="font-style:normal;font-variant:normal;font-weight:normal;font-stretch:normal;font-size:11.23909283px;font-family:Hind-SemiBold, Hind;-inkscape-font-specification:'Hind-SemiBold, Hind';stroke-width:0.84293193" /></text>
        <g
           id="g3323"
           transform="matrix(0.30562968,0.78557288,-0.78557288,0.30562968,64.083402,1.764452)">
          <path
             sodipodi:type="star"
             style="display:inline;fill:#2363ab;fill-opacity:1;stroke:#ffffff;stroke-width:0.16500001;stroke-miterlimit:4;stroke-dasharray:none;stroke-opacity:1"
             id="path5530"
             sodipodi:sides="5"
             sodipodi:cx="6.4822917"
             sodipodi:cy="8.5489101"
             sodipodi:r1="1.8720556"
             sodipodi:r2="0.93602777"
             sodipodi:arg1="0.55859932"
             sodipodi:arg2="1.1869178"
             inkscape:flatsided="false"
             inkscape:rounded="0"
             inkscape:randomized="0"
             d="M 8.0697917,9.5410977 6.8328524,9.4168129 6.0292298,10.365315 5.7651963,9.1505099 4.614784,8.6793227 5.6885417,8.0528165 l 0.092629,-1.239712 0.9276522,0.8276032 1.20766,-0.294997 -0.5004371,1.1379931 z"
             inkscape:transform-center-x="0.12954224"
             inkscape:transform-center-y="-0.051023882"
             transform="matrix(1.579096,-3.0918439,3.0918439,1.579096,-23.666778,43.241925)" />
          <path
             sodipodi:type="star"
             style="display:inline;fill:#2363ab;fill-opacity:1;stroke:#ffffff;stroke-width:0.16500001;stroke-miterlimit:4;stroke-dasharray:none;stroke-opacity:1"
             id="path5530-3"
             sodipodi:sides="5"
             sodipodi:cx="6.4822917"
             sodipodi:cy="8.5489101"
             sodipodi:r1="1.8720556"
             sodipodi:r2="0.93602777"
             sodipodi:arg1="0.55859932"
             sodipodi:arg2="1.1869178"
             inkscape:flatsided="false"
             inkscape:rounded="0"
             inkscape:randomized="0"
             d="M 8.0697917,9.5410977 6.8328524,9.4168129 6.0292298,10.365315 5.7651963,9.1505099 4.614784,8.6793227 5.6885417,8.0528165 l 0.092629,-1.239712 0.9276522,0.8276032 1.20766,-0.294997 -0.5004371,1.1379931 z"
             inkscape:transform-center-x="-0.14309001"
             inkscape:transform-center-y="0.037123761"
             transform="matrix(3.0560487,-1.6473036,1.6473036,3.0560487,-14.632176,4.6744161)" />
        </g>
      </g>
      <text
         xml:space="preserve"
         style="font-style:normal;font-weight:normal;font-size:27.24792671px;line-height:1.25;font-family:sans-serif;letter-spacing:0px;word-spacing:0px;fill:#000000;fill-opacity:1;stroke:none;stroke-width:0.68119812"
         x="28.36659"
         y="56.133396"
         id="text832"><tspan
           sodipodi:role="line"
           id="tspan830"
           x="28.36659"
           y="56.133396"
           style="font-style:normal;font-variant:normal;font-weight:normal;font-stretch:normal;font-size:10.89916992px;font-family:Hind-SemiBold, Hind;-inkscape-font-specification:'Hind-SemiBold, Hind';fill:#ffffff;stroke-width:0.68119812">ACCESS</tspan></text>
      <text
         xml:space="preserve"
         style="font-style:normal;font-weight:normal;font-size:33.71727753px;line-height:1.25;font-family:sans-serif;letter-spacing:0px;word-spacing:0px;fill:#000000;fill-opacity:1;stroke:none;stroke-width:0.84293193"
         x="27.90745"
         y="64.167313"
         id="text832-3"><tspan
           sodipodi:role="line"
           id="tspan830-6"
           x="27.90745"
           y="64.167313"
           style="font-style:normal;font-variant:normal;font-weight:normal;font-stretch:normal;font-size:8.99127388px;font-family:Hind-SemiBold, Hind;-inkscape-font-specification:'Hind-SemiBold, Hind';fill:#ffffff;stroke-width:0.84293193">CONTROL</tspan></text>
      <g
         id="g1087"
         transform="translate(0.42152723,6.7434556)">
        <path
           inkscape:connector-curvature="0"
           id="path1039"
           d="m 45.972063,34.843382 c 0.142344,-0.517061 0.243661,-1.065938 0.243661,-1.694096 0,-1.438604 -0.364884,-2.576697 -1.093177,-3.412886 -0.455748,-0.535504 -1.06395,-0.839345 -1.743487,-1.035555 l 0.66348,1.570619 c 0.0749,0.07421 0.17597,0.10712 0.24366,0.192623 0.397918,0.502634 0.59427,1.201217 0.683236,2.001964 z"
           style="font-style:normal;font-weight:normal;font-size:33.71727753px;line-height:1.25;font-family:sans-serif;letter-spacing:0px;word-spacing:0px;fill:#ffffff;fill-opacity:1;stroke:none;stroke-width:0.84293193" />
        <path
           inkscape:connector-curvature="0"
           transform="matrix(0.84293194,0,0,0.84293194,5.8109665,0)"
           id="path1037"
           d="m 38.257812,41.289062 1.441407,0.683594 c -0.0205,-0.222598 -0.08594,-0.405814 -0.08594,-0.646484 0,-0.953311 0.207776,-1.709532 0.513672,-2.373047 l -1.027344,-0.861328 c -0.505657,0.884812 -0.836446,1.910972 -0.841797,3.197265 z"
           style="font-style:normal;font-weight:normal;font-size:33.71727753px;line-height:1.25;font-family:sans-serif;letter-spacing:0px;word-spacing:0px;fill:#ffffff;fill-opacity:1;stroke:none;stroke-width:1" />
        <path
           inkscape:connector-curvature="0"
           transform="matrix(0.84293194,0,0,0.84293194,5.8109665,0)"
           id="path1035"
           d="m 38.503906,43.056641 1.56836,0.49414 c -0.197339,-0.462003 -0.318868,-0.989947 -0.373047,-1.578125 l -1.441407,-0.683594 c -5.7e-5,0.01376 -0.0059,0.02331 -0.0059,0.03711 0,0.640831 0.12395,1.186797 0.251953,1.730469 z"
           style="font-style:normal;font-weight:normal;font-size:33.71727753px;line-height:1.25;font-family:sans-serif;letter-spacing:0px;word-spacing:0px;fill:#ffffff;fill-opacity:1;stroke:none;stroke-width:1" />
        <path
           inkscape:connector-curvature="0"
           transform="matrix(0.84293194,0,0,0.84293194,5.8109665,0)"
           id="path1033"
           d="m 36.138672,40.285156 -1.181641,-0.560547 c -0.08268,0.394412 -0.137291,0.80364 -0.414062,1.087891 -0.34206,0.351562 -0.874725,0.4909 -1.496094,0.529297 l 1.792969,0.564453 c 0.366873,-0.208007 0.776092,-0.373638 1.015625,-0.708984 0.178803,-0.250325 0.185142,-0.610404 0.283203,-0.91211 z"
           style="font-style:normal;font-weight:normal;font-size:33.71727753px;line-height:1.25;font-family:sans-serif;letter-spacing:0px;word-spacing:0px;fill:#ffffff;fill-opacity:1;stroke:none;stroke-width:1" />
        <path
           inkscape:connector-curvature="0"
           id="path1031"
           d="m 31.044595,29.792376 1.093178,0.5186 v -0.722748 h 1.252873 c 1.357683,0 2.036537,0.607043 2.036537,1.820865 0,0.158468 -0.120132,0.248566 -0.149819,0.390185 l 0.996043,0.472503 c 0.08993,-0.276687 0.250754,-0.508395 0.260124,-0.836346 0,-0.872154 -0.274708,-1.555188 -0.823176,-2.049708 -0.539476,-0.494521 -1.33523,-0.742504 -2.387209,-0.742504 h -2.278551 z"
           style="font-style:normal;font-weight:normal;font-size:33.71727753px;line-height:1.25;font-family:sans-serif;letter-spacing:0px;word-spacing:0px;fill:#ffffff;fill-opacity:1;stroke:none;stroke-width:0.84293193" />
        <path
           inkscape:connector-curvature="0"
           transform="matrix(0.84293194,0,0,0.84293194,5.8109665,0)"
           id="path1029"
           d="m 29.935547,40.363281 1.296875,0.408203 v -2.8125 L 29.935547,37.34375 Z"
           style="font-style:normal;font-weight:normal;font-size:33.71727753px;line-height:1.25;font-family:sans-serif;letter-spacing:0px;word-spacing:0px;fill:#ffffff;fill-opacity:1;stroke:none;stroke-width:1" />
        <path
           inkscape:connector-curvature="0"
           id="path1027"
           d="m 23.352841,29.920791 1.093178,0.342441 v -0.688174 h 1.644705 c 0.647372,-10e-7 1.133334,0.139443 1.45702,0.418172 0.332678,0.269739 0.498845,0.614612 0.498845,1.037202 0,0.131179 -0.115989,0.202986 -0.141586,0.321038 l 1.06025,0.332564 c 0.06827,-0.219111 0.214026,-0.403461 0.214026,-0.653602 0,-0.728293 -0.283067,-1.306966 -0.849517,-1.738547 -0.55746,-0.431581 -1.303946,-0.648662 -2.239038,-0.648662 h -2.737883 z"
           style="font-style:normal;font-weight:normal;font-size:33.71727753px;line-height:1.25;font-family:sans-serif;letter-spacing:0px;word-spacing:0px;fill:#ffffff;fill-opacity:1;stroke:none;stroke-width:0.84293193" />
        <path
           inkscape:connector-curvature="0"
           id="path1025"
           d="m 28.947144,38.173951 c 0.217522,-0.3626 0.488966,-0.694606 0.488966,-1.18208 0,-0.638381 -0.180353,-1.141063 -0.540003,-1.509705 -0.35066,-0.377633 -0.77735,-0.607253 -1.280862,-0.688174 0.458555,-0.09891 0.831798,-0.336884 1.119519,-0.714517 0.15439,-0.201175 0.156434,-0.471885 0.230489,-0.709577 l -1.06025,-0.332564 c -0.06914,0.318892 -0.129327,0.642872 -0.385247,0.865981 -0.350659,0.305704 -0.89007,0.459332 -1.618363,0.459332 h -1.455374 v -2.413551 l -1.093178,-0.342441 v 6.295648 l 1.093178,0.05433 v -2.663797 h 1.860377 c 0.63838,0 1.128523,0.143623 1.470192,0.431344 0.350659,0.287721 0.525186,0.687688 0.525186,1.200191 0,0.512502 -0.156163,0.90411 -0.470857,1.173848 -0.01489,0.0127 -0.04867,0.0077 -0.06421,0.01976 z"
           style="font-style:normal;font-weight:normal;font-size:33.71727753px;line-height:1.25;font-family:sans-serif;letter-spacing:0px;word-spacing:0px;fill:#ffffff;fill-opacity:1;stroke:none;stroke-width:0.84293193" />
        <path
           inkscape:connector-curvature="0"
           id="path1023"
           d="m 28.947144,39.859815 -1.180435,-0.05598 c -0.303311,0.23596 -0.710405,0.372075 -1.257812,0.372075 h -2.062878 v -0.533417 l -1.093178,-0.05433 v 1.517936 h 3.317399 c 0.881144,0 1.559998,-0.221261 2.036536,-0.661833 0.160546,-0.148654 0.132908,-0.405326 0.240368,-0.584455 z"
           style="font-style:normal;font-weight:normal;font-size:33.71727753px;line-height:1.25;font-family:sans-serif;letter-spacing:0px;word-spacing:0px;fill:#ffffff;fill-opacity:1;stroke:none;stroke-width:0.84293193" />
        <path
           inkscape:connector-curvature="0"
           id="path1021"
           d="m 32.137773,40.014572 -1.093178,-0.05268 v 1.144214 h 1.093178 z"
           style="font-style:normal;font-weight:normal;font-size:33.71727753px;line-height:1.25;font-family:sans-serif;letter-spacing:0px;word-spacing:0px;fill:#ffffff;fill-opacity:1;stroke:none;stroke-width:0.84293193" />
        <path
           inkscape:connector-curvature="0"
           transform="matrix(0.84293194,0,0,0.84293194,5.8109665,0)"
           id="path1019"
           d="m 36.443359,45.724609 -2.171875,-3.423828 c 0.244664,-0.07646 0.363429,-0.278341 0.56836,-0.394531 l -1.792969,-0.564453 c -0.07619,0.0047 -0.103209,0.06445 -0.183594,0.06445 H 31.232422 V 40.771481 L 29.935547,40.363278 V 45.4082 l 1.296875,0.0625 v -2.960937 h 1.550781 0.128906 l 1.945313,3.136718 z"
           style="font-style:normal;font-weight:normal;font-size:33.71727753px;line-height:1.25;font-family:sans-serif;letter-spacing:0px;word-spacing:0px;fill:#ffffff;fill-opacity:1;stroke:none;stroke-width:1" />
        <path
           inkscape:connector-curvature="0"
           id="path1017"
           d="m 36.530238,40.228597 -1.336837,-0.06585 0.584454,0.94336 h 1.30885 z"
           style="font-style:normal;font-weight:normal;font-size:33.71727753px;line-height:1.25;font-family:sans-serif;letter-spacing:0px;word-spacing:0px;fill:#ffffff;fill-opacity:1;stroke:none;stroke-width:0.84293193" />
        <path
           inkscape:connector-curvature="0"
           id="path1015"
           d="m 44.221992,40.60232 -4.431978,-0.215673 c 0.657516,0.498092 1.411995,0.826469 2.352636,0.826469 0.818842,0 1.484361,-0.247988 2.079342,-0.610796 z"
           style="font-style:normal;font-weight:normal;font-size:33.71727753px;line-height:1.25;font-family:sans-serif;letter-spacing:0px;word-spacing:0px;fill:#ffffff;fill-opacity:1;stroke:none;stroke-width:0.84293193" />
        <path
           inkscape:connector-curvature="0"
           transform="matrix(0.84293194,0,0,0.84293194,5.8109665,0)"
           id="path1013"
           d="m 46.412109,45.542969 -1.480468,-0.464844 c -0.511499,0.345819 -1.092837,0.583984 -1.830079,0.583984 -1.055999,0 -1.904921,-0.389302 -2.544921,-1.167968 -0.215579,-0.266733 -0.342643,-0.611542 -0.484375,-0.94336 l -1.56836,-0.49414 c 0.208636,0.88614 0.527478,1.688382 1.076172,2.316406 0.209268,0.239523 0.489019,0.356156 0.730469,0.539062 l 5.257812,0.25586 c 0.297803,-0.181594 0.593222,-0.36679 0.84375,-0.625 z"
           style="font-style:normal;font-weight:normal;font-size:33.71727753px;line-height:1.25;font-family:sans-serif;letter-spacing:0px;word-spacing:0px;fill:#ffffff;fill-opacity:1;stroke:none;stroke-width:1" />
        <path
           inkscape:connector-curvature="0"
           transform="matrix(0.84293194,0,0,0.84293194,5.8109665,0)"
           id="path1011"
           d="M 46.679688,45.283203 45.421875,44.6875 c -0.146756,0.155845 -0.317834,0.274067 -0.490234,0.390625 l 1.480468,0.464844 c 0.06198,-0.06388 0.149898,-0.08573 0.208985,-0.154297 0.02599,-0.03011 0.03337,-0.07475 0.05859,-0.105469 z"
           style="font-style:normal;font-weight:normal;font-size:33.71727753px;line-height:1.25;font-family:sans-serif;letter-spacing:0px;word-spacing:0px;fill:#ffffff;fill-opacity:1;stroke:none;stroke-width:1" />
        <path
           inkscape:connector-curvature="0"
           transform="matrix(0.84293194,0,0,0.84293194,5.8109665,0)"
           id="path1009"
           d="m 46.990234,44.722656 -1.023437,-0.861328 c -0.10964,0.213973 -0.178748,0.467153 -0.322266,0.648438 -0.0614,0.07895 -0.155955,0.106903 -0.222656,0.177734 l 1.257813,0.595703 c 0.133951,-0.163142 0.198385,-0.380398 0.310546,-0.560547 z"
           style="font-style:normal;font-weight:normal;font-size:33.71727753px;line-height:1.25;font-family:sans-serif;letter-spacing:0px;word-spacing:0px;fill:#ffffff;fill-opacity:1;stroke:none;stroke-width:1" />
        <path
           inkscape:connector-curvature="0"
           transform="matrix(0.84293194,0,0,0.84293194,5.8109665,0)"
           id="path1007"
           d="m 46.34375,43.013672 c -0.08442,0.322149 -0.238567,0.577583 -0.376953,0.847656 l 1.023437,0.861328 c 0.101138,-0.162443 0.195877,-0.329588 0.279297,-0.505859 z"
           style="font-style:normal;font-weight:normal;font-size:33.71727753px;line-height:1.25;font-family:sans-serif;letter-spacing:0px;word-spacing:0px;fill:#ffffff;fill-opacity:1;stroke:none;stroke-width:1" />
        <path
           inkscape:connector-curvature="0"
           transform="matrix(0.84293194,0,0,0.84293194,5.8109665,0)"
           id="path1005"
           d="m 46.34375,43.013672 0.925781,1.203125 c 0.135241,-0.28577 0.286325,-0.558745 0.375,-0.880859 l -1.189453,-2.820313 c 0.03039,0.273547 0.101563,0.507674 0.101563,0.810547 0,0.631296 -0.08085,1.18361 -0.212891,1.6875 z"
           style="font-style:normal;font-weight:normal;font-size:33.71727753px;line-height:1.25;font-family:sans-serif;letter-spacing:0px;word-spacing:0px;fill:#ffffff;fill-opacity:1;stroke:none;stroke-width:1" />
        <path
           inkscape:connector-curvature="0"
           id="path1003"
           d="m 40.433738,28.794687 c -0.491275,0.211278 -0.920405,0.522845 -1.285801,0.941713 -0.168165,0.195155 -0.249326,0.460214 -0.378661,0.686528 l 0.865981,0.726041 c 0.105672,-0.229212 0.186876,-0.481879 0.335856,-0.670065 0.308333,-0.388074 0.707461,-0.625037 1.154092,-0.783663 z"
           style="font-style:normal;font-weight:normal;font-size:33.71727753px;line-height:1.25;font-family:sans-serif;letter-spacing:0px;word-spacing:0px;fill:#ffffff;fill-opacity:1;stroke:none;stroke-width:0.84293193" />
        <path
           inkscape:connector-curvature="0"
           id="path1001"
           d="m 40.433738,27.108823 0.691467,0.900554 c 0.308771,-0.109663 0.627759,-0.200855 1.002628,-0.200855 0.803783,0 1.422482,0.289421 1.914707,0.777078 l -0.66348,-1.570619 c -0.392969,-0.113467 -0.783418,-0.232135 -1.251227,-0.232135 -0.630397,0 -1.194091,0.110944 -1.694095,0.325977 z"
           style="font-style:normal;font-weight:normal;font-size:33.71727753px;line-height:1.25;font-family:sans-serif;letter-spacing:0px;word-spacing:0px;fill:#ffffff;fill-opacity:1;stroke:none;stroke-width:0.84293193" />
        <path
           inkscape:connector-curvature="0"
           id="path999"
           d="m 63.067777,28.643223 h -0.702992 v 0.381953 z"
           style="font-style:normal;font-weight:normal;font-size:33.71727753px;line-height:1.25;font-family:sans-serif;letter-spacing:0px;word-spacing:0px;fill:#ffffff;fill-opacity:1;stroke:none;stroke-width:0.84293193" />
        <path
           inkscape:connector-curvature="0"
           id="path997"
           d="m 55.594988,29.326459 v 3.384898 l 1.093177,-0.59598 v -2.513978 h 3.910085 v -0.958176 h -4.275575 z"
           style="font-style:normal;font-weight:normal;font-size:33.71727753px;line-height:1.25;font-family:sans-serif;letter-spacing:0px;word-spacing:0px;fill:#ffffff;fill-opacity:1;stroke:none;stroke-width:0.84293193" />
        <path
           inkscape:connector-curvature="0"
           transform="matrix(0.84293194,0,0,0.84293194,5.8109665,0)"
           id="path995"
           d="m 59.060547,36.791016 0.863281,-0.810547 h -0.863281 z"
           style="font-style:normal;font-weight:normal;font-size:33.71727753px;line-height:1.25;font-family:sans-serif;letter-spacing:0px;word-spacing:0px;fill:#ffffff;fill-opacity:1;stroke:none;stroke-width:1" />
        <path
           inkscape:connector-curvature="0"
           id="path993"
           d="m 50.147211,34.448258 0.775431,-0.729334 -0.388538,-0.475796 3.46557,-4.599905 h -1.348363 l -3.46557,4.599905 z"
           style="font-style:normal;font-weight:normal;font-size:33.71727753px;line-height:1.25;font-family:sans-serif;letter-spacing:0px;word-spacing:0px;fill:#ffffff;fill-opacity:1;stroke:none;stroke-width:0.84293193" />
        <path
           inkscape:connector-curvature="0"
           transform="matrix(0.84293194,0,0,0.84293194,5.8109665,0)"
           id="path991"
           d="m 53.410156,43.880859 1.132813,-0.617187 -1.025391,-1.261719 -0.919922,0.865235 z"
           style="font-style:normal;font-weight:normal;font-size:33.71727753px;line-height:1.25;font-family:sans-serif;letter-spacing:0px;word-spacing:0px;fill:#ffffff;fill-opacity:1;stroke:none;stroke-width:1" />
        <path
           inkscape:connector-curvature="0"
           transform="matrix(0.84293194,0,0,0.84293194,5.8109665,0)"
           id="path989"
           d="m 55.382812,44.296875 -0.839843,-1.033203 -1.132813,0.617187 0.660156,0.828125 z"
           style="font-style:normal;font-weight:normal;font-size:33.71727753px;line-height:1.25;font-family:sans-serif;letter-spacing:0px;word-spacing:0px;fill:#ffffff;fill-opacity:1;stroke:none;stroke-width:1" />
        <path
           inkscape:connector-curvature="0"
           transform="matrix(0.84293194,0,0,0.84293194,5.8109665,0)"
           id="path987"
           d="M 64.453125,41.445312 V 40.8125 h -4.095703 v -0.712891 l -1.296875,0.707032 v 2.333984 l 1.296875,-0.408203 v -0.783203 h 2.492187 z"
           style="font-style:normal;font-weight:normal;font-size:33.71727753px;line-height:1.25;font-family:sans-serif;letter-spacing:0px;word-spacing:0px;fill:#ffffff;fill-opacity:1;stroke:none;stroke-width:1" />
        <path
           inkscape:connector-curvature="0"
           transform="matrix(0.84293194,0,0,0.84293194,5.8109665,0)"
           id="path985"
           d="m 64.453125,41.445312 -1.603516,0.503907 h 1.603516 z"
           style="font-style:normal;font-weight:normal;font-size:33.71727753px;line-height:1.25;font-family:sans-serif;letter-spacing:0px;word-spacing:0px;fill:#ffffff;fill-opacity:1;stroke:none;stroke-width:1" />
        <path
           inkscape:connector-curvature="0"
           id="path983"
           d="m 65.481328,31.570435 -1.740194,-2.927212 h -0.673357 l -0.702992,0.381953 v 3.524838 l 1.063543,-0.334209 c -0.011,-0.786578 -0.01211,-1.728006 -0.03787,-2.263733 l 0.228843,0.418173 c 0.161843,0.287721 0.436551,0.763679 0.823176,1.429033 0.01496,0.0254 0.03432,0.05675 0.04939,0.08232 z"
           style="font-style:normal;font-weight:normal;font-size:33.71727753px;line-height:1.25;font-family:sans-serif;letter-spacing:0px;word-spacing:0px;fill:#ffffff;fill-opacity:1;stroke:none;stroke-width:0.84293193" />
        <path
           inkscape:connector-curvature="0"
           id="path981"
           d="m 68.271894,30.69293 1.093177,-0.344088 v -1.705619 h -1.093177 z"
           style="font-style:normal;font-weight:normal;font-size:33.71727753px;line-height:1.25;font-family:sans-serif;letter-spacing:0px;word-spacing:0px;fill:#ffffff;fill-opacity:1;stroke:none;stroke-width:0.84293193" />
        <path
           inkscape:connector-curvature="0"
           transform="matrix(0.84293194,0,0,0.84293194,5.8109665,0)"
           id="path979"
           d="m 74.162109,45.103516 1.234375,-0.05859 V 38.00391 l -1.296875,0.408203 v 2.128907 c 0,2.027664 0.02154,3.528252 0.0625,4.5625 z"
           style="font-style:normal;font-weight:normal;font-size:33.71727753px;line-height:1.25;font-family:sans-serif;letter-spacing:0px;word-spacing:0px;fill:#ffffff;fill-opacity:1;stroke:none;stroke-width:1" />
        <path
           inkscape:connector-curvature="0"
           id="path977"
           d="m 67.183656,39.761034 0.805066,1.345069 h 1.376349 v -1.450436 l -1.040494,0.04939 c 7.1e-4,0.01792 9.22e-4,0.06146 0.0016,0.07903 l -0.04445,-0.07573 z"
           style="font-style:normal;font-weight:normal;font-size:33.71727753px;line-height:1.25;font-family:sans-serif;letter-spacing:0px;word-spacing:0px;fill:#ffffff;fill-opacity:1;stroke:none;stroke-width:0.84293193" />
        <path
           inkscape:connector-curvature="0"
           transform="matrix(0.84293194,0,0,0.84293194,5.8109665,0)"
           id="path975"
           d="m 72.808594,45.169922 1.302734,-0.0625 -2.683594,-4.582031 -0.638672,-1.072266 -1.173828,0.369141 c 0.444091,0.753293 0.922367,1.560063 1.445313,2.43164 z"
           style="font-style:normal;font-weight:normal;font-size:33.71727753px;line-height:1.25;font-family:sans-serif;letter-spacing:0px;word-spacing:0px;fill:#ffffff;fill-opacity:1;stroke:none;stroke-width:1" />
        <path
           inkscape:connector-curvature="0"
           id="path973"
           d="m 62.364785,39.994816 v 1.111287 h 1.093177 v -1.16397 z"
           style="font-style:normal;font-weight:normal;font-size:33.71727753px;line-height:1.25;font-family:sans-serif;letter-spacing:0px;word-spacing:0px;fill:#ffffff;fill-opacity:1;stroke:none;stroke-width:0.84293193" />
        <path
           inkscape:connector-curvature="0"
           transform="matrix(0.84293194,0,0,0.84293194,5.8109665,0)"
           id="path971"
           d="m 67.091797,45.447266 1.296875,-0.0625 v -3.164063 c 0,-0.861007 -0.02543,-1.306325 -0.03516,-2.001953 l -1.261719,0.396484 z"
           style="font-style:normal;font-weight:normal;font-size:33.71727753px;line-height:1.25;font-family:sans-serif;letter-spacing:0px;word-spacing:0px;fill:#ffffff;fill-opacity:1;stroke:none;stroke-width:1" />
        <path
           inkscape:connector-curvature="0"
           id="path969"
           d="m 55.594988,40.324086 v 0.782017 h 5.070762 v -0.958177 h -1.448789 z"
           style="font-style:normal;font-weight:normal;font-size:33.71727753px;line-height:1.25;font-family:sans-serif;letter-spacing:0px;word-spacing:0px;fill:#ffffff;fill-opacity:1;stroke:none;stroke-width:0.84293193" />
        <path
           inkscape:connector-curvature="0"
           id="path967"
           d="m 55.594988,40.324086 3.621973,-0.17616 h -2.528796 v -2.441539 l -1.093177,0.344088 z"
           style="font-style:normal;font-weight:normal;font-size:33.71727753px;line-height:1.25;font-family:sans-serif;letter-spacing:0px;word-spacing:0px;fill:#ffffff;fill-opacity:1;stroke:none;stroke-width:0.84293193" />
        <path
           inkscape:connector-curvature="0"
           id="path965"
           d="m 52.27759,40.485428 0.495552,0.620675 h 1.415862 l -0.559759,-0.686529 z"
           style="font-style:normal;font-weight:normal;font-size:33.71727753px;line-height:1.25;font-family:sans-serif;letter-spacing:0px;word-spacing:0px;fill:#ffffff;fill-opacity:1;stroke:none;stroke-width:0.84293193" />
        <path
           inkscape:connector-curvature="0"
           id="path963"
           d="m 52.27759,40.485428 1.351655,-0.06585 -1.134337,-1.394459 -1.106349,0.347379 z"
           style="font-style:normal;font-weight:normal;font-size:33.71727753px;line-height:1.25;font-family:sans-serif;letter-spacing:0px;word-spacing:0px;fill:#ffffff;fill-opacity:1;stroke:none;stroke-width:0.84293193" />
        <path
           inkscape:connector-curvature="0"
           id="path961"
           d="m 48.97007,40.645124 -1.093178,0.05268 v 0.408295 h 1.093178 z"
           style="font-style:normal;font-weight:normal;font-size:33.71727753px;line-height:1.25;font-family:sans-serif;letter-spacing:0px;word-spacing:0px;fill:#ffffff;fill-opacity:1;stroke:none;stroke-width:0.84293193" />
        <path
           inkscape:connector-curvature="0"
           id="path959"
           d="m 48.97007,40.133109 -1.093178,0.344087 v 0.220612 l 1.093178,-0.05268 z"
           style="font-style:normal;font-weight:normal;font-size:33.71727753px;line-height:1.25;font-family:sans-serif;letter-spacing:0px;word-spacing:0px;fill:#ffffff;fill-opacity:1;stroke:none;stroke-width:0.84293193" />
        <path
           inkscape:connector-curvature="0"
           transform="matrix(0.84293194,0,0,0.84293194,5.8109665,0)"
           id="path957"
           d="m 51.201172,45.083984 -1.296875,0.705078 v 0.230469 l 1.296875,-0.408203 z"
           style="font-style:normal;font-weight:normal;font-size:33.71727753px;line-height:1.25;font-family:sans-serif;letter-spacing:0px;word-spacing:0px;fill:#ffffff;fill-opacity:1;stroke:none;stroke-width:1" />
        <path
           inkscape:connector-curvature="0"
           transform="matrix(0.84293194,0,0,0.84293194,5.8109665,0)"
           id="path955"
           d="m 51.201172,44.179688 -1.296875,1.21875 v 0.390624 l 1.296875,-0.705078 z"
           style="font-style:normal;font-weight:normal;font-size:33.71727753px;line-height:1.25;font-family:sans-serif;letter-spacing:0px;word-spacing:0px;fill:#ffffff;fill-opacity:1;stroke:none;stroke-width:1" />
        <path
           inkscape:connector-curvature="0"
           transform="matrix(0.84293194,0,0,0.84293194,5.8109665,0)"
           id="path953"
           d="m 49.904297,44.355469 v 1.042969 l 1.296875,-1.21875 v -2.40625 z"
           style="font-style:normal;font-weight:normal;font-size:33.71727753px;line-height:1.25;font-family:sans-serif;letter-spacing:0px;word-spacing:0px;fill:#ffffff;fill-opacity:1;stroke:none;stroke-width:1" />
        <path
           inkscape:connector-curvature="0"
           id="path951"
           d="m 48.89763,28.643223 h -1.020738 v 4.804053 z"
           style="font-style:normal;font-weight:normal;font-size:33.71727753px;line-height:1.25;font-family:sans-serif;letter-spacing:0px;word-spacing:0px;fill:#ffffff;fill-opacity:1;stroke:none;stroke-width:0.84293193" />
        <path
           inkscape:connector-curvature="0"
           transform="matrix(0.84293194,0,0,0.84293194,5.8109665,0)"
           id="text832-7"
           d="m 51.115234,35.980469 -1.210937,5.699219 v 2.675781 l 1.296875,-2.582031 v -5.792969 z"
           style="font-style:normal;font-weight:normal;font-size:33.71727753px;line-height:1.25;font-family:sans-serif;letter-spacing:0px;word-spacing:0px;fill:#ffffff;fill-opacity:1;stroke:none;stroke-width:1" />
      </g>
    </g>
  </g>
  <g
     inkscape:groupmode="layer"
     id="layer9"
     inkscape:label="edge"
     transform="translate(2.4160667,7.6583829)" />
  <g
     inkscape:groupmode="layer"
     id="layer10"
     inkscape:label="button"
     transform="translate(2.4160667,7.6583829)" />
</svg>
