<?xml version="1.0" encoding="UTF-8" standalone="no"?>
<svg
   xmlns:dc="http://purl.org/dc/elements/1.1/"
   xmlns:cc="http://creativecommons.org/ns#"
   xmlns:rdf="http://www.w3.org/1999/02/22-rdf-syntax-ns#"
   xmlns:svg="http://www.w3.org/2000/svg"
   xmlns="http://www.w3.org/2000/svg"
   xmlns:sodipodi="http://sodipodi.sourceforge.net/DTD/sodipodi-0.dtd"
   xmlns:inkscape="http://www.inkscape.org/namespaces/inkscape"
   viewBox="0 0 97.207176 97.191711"
   version="1.1"
   id="svg391"
   sodipodi:docname="cross-site-scripting1.svg"
   width="97.207176"
   height="97.191711"
   inkscape:version="0.92.4 (unknown)">
  <metadata
     id="metadata395">
    <rdf:RDF>
      <cc:Work
         rdf:about="">
        <dc:format>image/svg+xml</dc:format>
        <dc:type
           rdf:resource="http://purl.org/dc/dcmitype/StillImage" />
        <dc:title>Element 270</dc:title>
      </cc:Work>
    </rdf:RDF>
  </metadata>
  <sodipodi:namedview
     pagecolor="#ffffff"
     bordercolor="#666666"
     borderopacity="1"
     objecttolerance="10"
     gridtolerance="10"
     guidetolerance="10"
     inkscape:pageopacity="0"
     inkscape:pageshadow="2"
     inkscape:window-width="2560"
     inkscape:window-height="1312"
     id="namedview393"
     showgrid="false"
     fit-margin-top="0"
     fit-margin-left="0"
     fit-margin-right="0"
     fit-margin-bottom="0"
     inkscape:zoom="6.675088"
     inkscape:cx="-21.760242"
     inkscape:cy="32.247316"
     inkscape:window-x="0"
     inkscape:window-y="54"
     inkscape:window-maximized="1"
     inkscape:current-layer="g387" />
  <defs
     id="defs359">
    <style
       id="style354">.cls-1{fill:none;}.cls-2{clip-path:url(#clip-path);}.cls-3{fill:#970b27;stroke:#970b27;stroke-width:10px;}.cls-3,.cls-5,.cls-6,.cls-8{stroke-miterlimit:10;}.cls-4{fill:#6b0816;}.cls-5{fill:#c6c6c6;}.cls-5,.cls-6,.cls-8{stroke:#878787;}.cls-10,.cls-6,.cls-7,.cls-8,.cls-9{fill:#fff;}.cls-7{font-size:10.77px;font-family:HalisR-SBlack, Halis R;}.cls-8{stroke-width:0.75px;}.cls-9{opacity:0.07;}.cls-10,.cls-12{font-size:6.98px;font-family:Hind-SemiBold, Hind;font-weight:700;}.cls-11{font-size:8.73px;}.cls-12{fill:#e6332a;}</style>
    <clipPath
       id="clip-path"
       transform="translate(0 -0.37)">
      <circle
         class="cls-1"
         cx="46.860001"
         cy="41.099998"
         r="41.099998"
         id="circle356"
         style="fill:none" />
    </clipPath>
    <clipPath
       clipPathUnits="userSpaceOnUse"
       id="clipPath5233">
      <ellipse
         style="display:inline;opacity:1;vector-effect:none;fill:none;fill-opacity:1;stroke:#000000;stroke-width:0.00956128;stroke-linecap:butt;stroke-linejoin:miter;stroke-miterlimit:4;stroke-dasharray:none;stroke-dashoffset:0;stroke-opacity:1"
         id="ellipse5235"
         cx="46.872238"
         cy="41.235538"
         rx="41.061272"
         ry="41.060459" />
    </clipPath>
  </defs>
  <title
     id="title361">Element 270</title>
  <g
     id="Ebene_2"
     data-name="Ebene 2"
     transform="translate(2.4160667,7.6583829)">
    <g
       id="Ebene_2-2"
       data-name="Ebene 2"
       transform="matrix(1.1863354,0,0,1.1863354,-9.309822,-7.6583829)">
      <g
         class="cls-2"
         clip-path="url(#clip-path)"
         id="g387">
        <circle
           class="cls-3"
           cx="46.869999"
           cy="40.880001"
           r="35.880001"
           id="circle363"
           style="fill:#970b27;stroke:#970b27;stroke-width:10px;stroke-miterlimit:10" />
        <path
           class="cls-4"
           d="m 66.56,21.36 a 21.42,21.42 0 0 1 1.8,2 A 8.82,8.82 0 0 1 72,22 c 2.1,0.9 4.11,1.88 4.1,2.1 C 76.09,24.32 73,23 71.9,22.7 a 8.46,8.46 0 0 0 -3,1.2 c -0.1,0.3 0,0.4 0,0.4 a 9,9 0 0 1 1.4,0.6 c 0.2,0.4 0.4,1.6 0.1,1.9 -0.1,0.1 -0.06,0.14 -0.4,0.2 -0.34,0.06 -1.46,1.77 -2.54,2.85 -1.08,1.08 -5,0.25 -5,0.25 0,0 0.23,2.25 0.3,4.5 0.39,0.71 0.9,0.9 2.3,1.5 2.5,0.3 4.91,-0.06 5,0.2 0.09,0.26 -4.86,0.58 -5.3,0.5 -0.44,-0.08 -1.5,-0.5 -2.6,-0.8 a 10.44,10.44 0 0 0 2.3,2.9 c 2,0.6 4,1.2 4,1.4 a 33.21,33.21 0 0 1 -4.4,-0.6 26.76,26.76 0 0 1 -2.31,-1.75 c 0.26,0.77 0.47,2.31 1,2.85 1.35,1.35 3.1,2.7 2.94,2.83 a 35.7,35.7 0 0 1 -3.77,-2.5 c -0.72,-1.56 -1.8,-4.26 -1.8,-4.26 h -1.07 a 172.74,172.74 0 0 1 3.81,41 C 58.54,75.7 48,59.76 55.27,49.51 56.5,47.79 56.62,37.1 56.62,37.1 a 8.28,8.28 0 0 1 -2.36,-1 3.14,3.14 0 0 1 -0.7,0.1 c 4.59,10.52 -27.5,25.7 -27.5,25.7 0,0 15.18,-32.09 25.7,-27.5 a 2.59,2.59 0 0 1 0.1,-0.7 8.19,8.19 0 0 1 -1,-2.37 c 0,0 -10.7,0.13 -12.41,1.35 C 28.19,39.97 12.26,29.41 10.1,25.1 a 173.16,173.16 0 0 1 41,3.8 v -1.12 c 0,0 -2.71,-1.08 -4.27,-1.78 a 34.84,34.84 0 0 1 -2.5,-3.78 c 0.13,-0.15 1.48,1.6 2.83,2.95 0.54,0.54 2.07,0.75 2.85,1 a 24.46,24.46 0 0 1 -1.75,-2.31 33.21,33.21 0 0 1 -0.6,-4.4 c 0.2,0 0.8,2 1.4,4 a 10.44,10.44 0 0 0 2.9,2.3 c -0.3,-1.1 -0.7,-2.1 -0.8,-2.6 -0.1,-0.5 0.24,-5.39 0.5,-5.3 0.26,0.09 -0.1,2.5 0.2,5 0.6,1.4 0.79,1.9 1.5,2.3 2.24,0.07 4.5,0.3 4.5,0.3 0,0 -0.84,-3.88 0.24,-5 1.08,-1.12 2.8,-2.16 2.9,-2.46 0.1,-0.3 0.1,-0.3 0.2,-0.4 0.3,-0.3 1.5,-0.1 1.9,0.1 a 9,9 0 0 1 0.6,1.4 c 0,0 0.1,0.1 0.4,0 a 8.65,8.65 0 0 0 1.2,-3 C 65,15 63.68,11.9 63.9,11.9 c 0.22,0 1.2,2 2.1,4.1 a 8.87,8.87 0 0 1 -1.4,3.6 21.42,21.42 0 0 1 1.96,1.76 z"
           transform="translate(0,-0.37)"
           id="path365"
           inkscape:connector-curvature="0"
           style="fill:#6b0816" />
        <path
           class="cls-9"
           d="m 61.65,71.59 a 42.43,42.43 0 0 1 -35,-66.4 42.44,42.44 0 1 0 50.83,63.34 42.34,42.34 0 0 1 -15.83,3.06 z"
           transform="translate(0,-0.37)"
           id="path377"
           inkscape:connector-curvature="0"
           style="opacity:0.07000002;fill:#ffffff"
           clip-path="url(#clipPath5233)" />
        <text
           class="cls-10"
           id="text383"
           style="font-weight:700;font-size:6.98000002px;font-family:Hind-SemiBold, Hind;fill:#ffffff"
           x="24.760412"
           y="44.66">/CROSS/SITE/<tspan
   class="cls-11"
   id="tspan381"
   style="font-size:8.72999954px">
  <tspan
     x="25.480413"
     y="55.130001"
     id="tspan379">SCRIPTING</tspan>
</tspan>
</text>
        <g
           id="g3323"
           transform="matrix(0.54497733,0.64306606,-0.64306606,0.54497733,49.357375,-3.408545)">
          <path
             sodipodi:type="star"
             style="display:inline;fill:#2363ab;fill-opacity:1;stroke:#ffffff;stroke-width:0.16500001;stroke-miterlimit:4;stroke-dasharray:none;stroke-opacity:1"
             id="path5530-3"
             sodipodi:sides="5"
             sodipodi:cx="6.4822917"
             sodipodi:cy="8.5489101"
             sodipodi:r1="1.8720556"
             sodipodi:r2="0.93602777"
             sodipodi:arg1="0.55859932"
             sodipodi:arg2="1.1869178"
             inkscape:flatsided="false"
             inkscape:rounded="0"
             inkscape:randomized="0"
             d="M 8.0697917,9.5410977 6.8328524,9.4168129 6.0292298,10.365315 5.7651963,9.1505099 4.614784,8.6793227 5.6885417,8.0528165 l 0.092629,-1.239712 0.9276522,0.8276032 1.20766,-0.294997 -0.5004371,1.1379931 z"
             inkscape:transform-center-x="-0.14309001"
             inkscape:transform-center-y="0.037123761"
             transform="matrix(3.0560487,-1.6473036,1.6473036,3.0560487,-14.632176,4.6744161)" />
        </g>
      </g>
    </g>
  </g>
  <g
     inkscape:groupmode="layer"
     id="layer9"
     inkscape:label="edge"
     transform="translate(2.4160667,7.6583829)" />
  <g
     inkscape:groupmode="layer"
     id="layer10"
     inkscape:label="button"
     transform="translate(2.4160667,7.6583829)" />
</svg>
